M48
; DRILL file KiCad 10.0.4 date 2026-09-10T17:02:06
; FORMAT={-:-/ absolute / metric / decimal}
; #@! TF.CreationDate,2026-09-10T17:02:06-04:00
; #@! TF.GenerationSoftware,Kicad,Pcbnew,10.0.4
; #@! TF.FileFunction,Plated,1,2,PTH
FMAT,2
METRIC
; #@! TA.AperFunction,Plated,PTH,ViaDrill
T1C0.300
; #@! TA.AperFunction,Plated,PTH,ComponentDrill
T2C0.400
; #@! TA.AperFunction,Plated,PTH,ComponentDrill
T3C0.600
; #@! TA.AperFunction,Plated,PTH,ComponentDrill
T4C1.000
%
G90
G05
T1
X87.0Y-91.5
X87.5Y-66.0
X88.636Y-81.653
X89.0Y-67.5
X90.0Y-74.3
X90.0Y-84.5
X90.291Y-73.149
X91.116Y-71.608
X91.831Y-68.619
X93.532Y-83.629
X93.632Y-80.822
X93.775Y-68.0
X93.837Y-79.365
X94.18Y-77.736
X94.264Y-83.641
X94.704Y-83.046
X94.739Y-78.254
X94.879Y-88.735
X95.15Y-68.0
X95.365Y-83.667
X96.0Y-73.0
X96.881Y-75.184
X97.0Y-91.8
X97.04Y-81.236
X97.796Y-75.367
X97.915Y-78.563
X98.1Y-86.65
X98.174Y-80.807
X98.681Y-82.45
X98.687Y-83.293
X98.691Y-81.45
X98.8Y-88.3
X99.097Y-85.325
X100.0Y-72.0
X100.392Y-84.032
X101.049Y-83.139
X101.153Y-83.995
X101.975Y-84.258
X102.496Y-75.641
X102.5Y-87.5
X102.741Y-82.571
X103.214Y-65.439
X103.279Y-82.071
X103.428Y-83.752
X105.456Y-79.663
X106.5Y-71.0
X107.0Y-90.0
T2
X91.225Y-65.275
X91.225Y-66.625
X92.075Y-65.275
X92.075Y-66.625
X92.925Y-65.275
X92.925Y-66.625
X93.775Y-65.275
X93.775Y-66.625
X94.625Y-65.275
X94.625Y-66.625
X95.475Y-65.275
X95.475Y-66.625
X96.325Y-65.275
X96.325Y-66.625
X97.175Y-65.275
X97.175Y-66.625
T4
X83.0Y-67.3
X83.0Y-69.84
X83.0Y-72.38
X83.0Y-74.92
X83.0Y-77.46
X83.0Y-80.0
X83.0Y-82.54
X83.0Y-85.08
X83.0Y-87.62
X83.0Y-90.16
X85.54Y-67.3
X85.54Y-69.84
X85.54Y-72.38
X85.54Y-74.92
X85.54Y-77.46
X85.54Y-80.0
X85.54Y-82.54
X85.54Y-85.08
X85.54Y-87.62
X85.54Y-90.16
X109.2Y-67.3
X109.2Y-69.84
X109.2Y-72.38
X109.2Y-74.92
X109.2Y-77.46
X109.2Y-80.0
X109.2Y-82.54
X109.2Y-85.08
X109.2Y-87.62
X109.2Y-90.16
X111.74Y-67.3
X111.74Y-69.84
X111.74Y-72.38
X111.74Y-74.92
X111.74Y-77.46
X111.74Y-80.0
X111.74Y-82.54
X111.74Y-85.08
X111.74Y-87.62
X111.74Y-90.16
T3
X89.875Y-62.665G85X89.875Y-61.865
G05
X89.875Y-66.395G85X89.875Y-64.895
G05
X98.525Y-62.665G85X98.525Y-61.865
G05
X98.525Y-66.395G85X98.525Y-64.895
G05
M30
