%TF.GenerationSoftware,KiCad,Pcbnew,10.0.4*%
%TF.CreationDate,2026-09-10T17:02:07-04:00*%
%TF.ProjectId,nicklink,7063625f-6865-46c6-9c6f-5f776f726c64,rev?*%
%TF.SameCoordinates,Original*%
%TF.FileFunction,Legend,Bot*%
%TF.FilePolarity,Positive*%
%FSLAX46Y46*%
G04 Gerber Fmt 4.6, Leading zero omitted, Abs format (unit mm)*
G04 Created by KiCad (PCBNEW 10.0.4) date 2026-09-10 17:02:07*
%MOMM*%
%LPD*%
G01*
G04 APERTURE LIST*
%ADD10C,0.120000*%
G04 APERTURE END LIST*
D10*
X90233332Y-69201950D02*
X90299999Y-69163855D01*
X90299999Y-69163855D02*
X90399999Y-69163855D01*
X90399999Y-69163855D02*
X90499999Y-69201950D01*
X90499999Y-69201950D02*
X90566666Y-69278140D01*
X90566666Y-69278140D02*
X90599999Y-69354331D01*
X90599999Y-69354331D02*
X90633332Y-69506712D01*
X90633332Y-69506712D02*
X90633332Y-69620998D01*
X90633332Y-69620998D02*
X90599999Y-69773379D01*
X90599999Y-69773379D02*
X90566666Y-69849569D01*
X90566666Y-69849569D02*
X90499999Y-69925760D01*
X90499999Y-69925760D02*
X90399999Y-69963855D01*
X90399999Y-69963855D02*
X90333332Y-69963855D01*
X90333332Y-69963855D02*
X90233332Y-69925760D01*
X90233332Y-69925760D02*
X90199999Y-69887664D01*
X90199999Y-69887664D02*
X90199999Y-69620998D01*
X90199999Y-69620998D02*
X90333332Y-69620998D01*
X89899999Y-69963855D02*
X89899999Y-69163855D01*
X89899999Y-69163855D02*
X89499999Y-69963855D01*
X89499999Y-69963855D02*
X89499999Y-69163855D01*
X89166666Y-69963855D02*
X89166666Y-69163855D01*
X89166666Y-69163855D02*
X88999999Y-69163855D01*
X88999999Y-69163855D02*
X88899999Y-69201950D01*
X88899999Y-69201950D02*
X88833333Y-69278140D01*
X88833333Y-69278140D02*
X88799999Y-69354331D01*
X88799999Y-69354331D02*
X88766666Y-69506712D01*
X88766666Y-69506712D02*
X88766666Y-69620998D01*
X88766666Y-69620998D02*
X88799999Y-69773379D01*
X88799999Y-69773379D02*
X88833333Y-69849569D01*
X88833333Y-69849569D02*
X88899999Y-69925760D01*
X88899999Y-69925760D02*
X88999999Y-69963855D01*
X88999999Y-69963855D02*
X89166666Y-69963855D01*
X90566666Y-71813854D02*
X90566666Y-71013854D01*
X90566666Y-71013854D02*
X90299999Y-71013854D01*
X90299999Y-71013854D02*
X90233333Y-71051949D01*
X90233333Y-71051949D02*
X90199999Y-71090044D01*
X90199999Y-71090044D02*
X90166666Y-71166235D01*
X90166666Y-71166235D02*
X90166666Y-71280520D01*
X90166666Y-71280520D02*
X90199999Y-71356711D01*
X90199999Y-71356711D02*
X90233333Y-71394806D01*
X90233333Y-71394806D02*
X90299999Y-71432901D01*
X90299999Y-71432901D02*
X90566666Y-71432901D01*
X89633333Y-71394806D02*
X89533333Y-71432901D01*
X89533333Y-71432901D02*
X89499999Y-71470997D01*
X89499999Y-71470997D02*
X89466666Y-71547187D01*
X89466666Y-71547187D02*
X89466666Y-71661473D01*
X89466666Y-71661473D02*
X89499999Y-71737663D01*
X89499999Y-71737663D02*
X89533333Y-71775759D01*
X89533333Y-71775759D02*
X89599999Y-71813854D01*
X89599999Y-71813854D02*
X89866666Y-71813854D01*
X89866666Y-71813854D02*
X89866666Y-71013854D01*
X89866666Y-71013854D02*
X89633333Y-71013854D01*
X89633333Y-71013854D02*
X89566666Y-71051949D01*
X89566666Y-71051949D02*
X89533333Y-71090044D01*
X89533333Y-71090044D02*
X89499999Y-71166235D01*
X89499999Y-71166235D02*
X89499999Y-71242425D01*
X89499999Y-71242425D02*
X89533333Y-71318616D01*
X89533333Y-71318616D02*
X89566666Y-71356711D01*
X89566666Y-71356711D02*
X89633333Y-71394806D01*
X89633333Y-71394806D02*
X89866666Y-71394806D01*
X89133333Y-71813854D02*
X88999999Y-71813854D01*
X88999999Y-71813854D02*
X88933333Y-71775759D01*
X88933333Y-71775759D02*
X88899999Y-71737663D01*
X88899999Y-71737663D02*
X88833333Y-71623378D01*
X88833333Y-71623378D02*
X88799999Y-71470997D01*
X88799999Y-71470997D02*
X88799999Y-71166235D01*
X88799999Y-71166235D02*
X88833333Y-71090044D01*
X88833333Y-71090044D02*
X88866666Y-71051949D01*
X88866666Y-71051949D02*
X88933333Y-71013854D01*
X88933333Y-71013854D02*
X89066666Y-71013854D01*
X89066666Y-71013854D02*
X89133333Y-71051949D01*
X89133333Y-71051949D02*
X89166666Y-71090044D01*
X89166666Y-71090044D02*
X89199999Y-71166235D01*
X89199999Y-71166235D02*
X89199999Y-71356711D01*
X89199999Y-71356711D02*
X89166666Y-71432901D01*
X89166666Y-71432901D02*
X89133333Y-71470997D01*
X89133333Y-71470997D02*
X89066666Y-71509092D01*
X89066666Y-71509092D02*
X88933333Y-71509092D01*
X88933333Y-71509092D02*
X88866666Y-71470997D01*
X88866666Y-71470997D02*
X88833333Y-71432901D01*
X88833333Y-71432901D02*
X88799999Y-71356711D01*
X90566666Y-73663855D02*
X90566666Y-72863855D01*
X90566666Y-72863855D02*
X90299999Y-72863855D01*
X90299999Y-72863855D02*
X90233333Y-72901950D01*
X90233333Y-72901950D02*
X90199999Y-72940045D01*
X90199999Y-72940045D02*
X90166666Y-73016236D01*
X90166666Y-73016236D02*
X90166666Y-73130521D01*
X90166666Y-73130521D02*
X90199999Y-73206712D01*
X90199999Y-73206712D02*
X90233333Y-73244807D01*
X90233333Y-73244807D02*
X90299999Y-73282902D01*
X90299999Y-73282902D02*
X90566666Y-73282902D01*
X89633333Y-73244807D02*
X89533333Y-73282902D01*
X89533333Y-73282902D02*
X89499999Y-73320998D01*
X89499999Y-73320998D02*
X89466666Y-73397188D01*
X89466666Y-73397188D02*
X89466666Y-73511474D01*
X89466666Y-73511474D02*
X89499999Y-73587664D01*
X89499999Y-73587664D02*
X89533333Y-73625760D01*
X89533333Y-73625760D02*
X89599999Y-73663855D01*
X89599999Y-73663855D02*
X89866666Y-73663855D01*
X89866666Y-73663855D02*
X89866666Y-72863855D01*
X89866666Y-72863855D02*
X89633333Y-72863855D01*
X89633333Y-72863855D02*
X89566666Y-72901950D01*
X89566666Y-72901950D02*
X89533333Y-72940045D01*
X89533333Y-72940045D02*
X89499999Y-73016236D01*
X89499999Y-73016236D02*
X89499999Y-73092426D01*
X89499999Y-73092426D02*
X89533333Y-73168617D01*
X89533333Y-73168617D02*
X89566666Y-73206712D01*
X89566666Y-73206712D02*
X89633333Y-73244807D01*
X89633333Y-73244807D02*
X89866666Y-73244807D01*
X89233333Y-72863855D02*
X88766666Y-72863855D01*
X88766666Y-72863855D02*
X89066666Y-73663855D01*
X90566666Y-75513854D02*
X90566666Y-74713854D01*
X90566666Y-74713854D02*
X90299999Y-74713854D01*
X90299999Y-74713854D02*
X90233333Y-74751949D01*
X90233333Y-74751949D02*
X90199999Y-74790044D01*
X90199999Y-74790044D02*
X90166666Y-74866235D01*
X90166666Y-74866235D02*
X90166666Y-74980520D01*
X90166666Y-74980520D02*
X90199999Y-75056711D01*
X90199999Y-75056711D02*
X90233333Y-75094806D01*
X90233333Y-75094806D02*
X90299999Y-75132901D01*
X90299999Y-75132901D02*
X90566666Y-75132901D01*
X89633333Y-75094806D02*
X89533333Y-75132901D01*
X89533333Y-75132901D02*
X89499999Y-75170997D01*
X89499999Y-75170997D02*
X89466666Y-75247187D01*
X89466666Y-75247187D02*
X89466666Y-75361473D01*
X89466666Y-75361473D02*
X89499999Y-75437663D01*
X89499999Y-75437663D02*
X89533333Y-75475759D01*
X89533333Y-75475759D02*
X89599999Y-75513854D01*
X89599999Y-75513854D02*
X89866666Y-75513854D01*
X89866666Y-75513854D02*
X89866666Y-74713854D01*
X89866666Y-74713854D02*
X89633333Y-74713854D01*
X89633333Y-74713854D02*
X89566666Y-74751949D01*
X89566666Y-74751949D02*
X89533333Y-74790044D01*
X89533333Y-74790044D02*
X89499999Y-74866235D01*
X89499999Y-74866235D02*
X89499999Y-74942425D01*
X89499999Y-74942425D02*
X89533333Y-75018616D01*
X89533333Y-75018616D02*
X89566666Y-75056711D01*
X89566666Y-75056711D02*
X89633333Y-75094806D01*
X89633333Y-75094806D02*
X89866666Y-75094806D01*
X88866666Y-74980520D02*
X88866666Y-75513854D01*
X89033333Y-74675759D02*
X89199999Y-75247187D01*
X89199999Y-75247187D02*
X88766666Y-75247187D01*
X90850000Y-77363855D02*
X90850000Y-76563855D01*
X90850000Y-76563855D02*
X90583333Y-76563855D01*
X90583333Y-76563855D02*
X90516667Y-76601950D01*
X90516667Y-76601950D02*
X90483333Y-76640045D01*
X90483333Y-76640045D02*
X90450000Y-76716236D01*
X90450000Y-76716236D02*
X90450000Y-76830521D01*
X90450000Y-76830521D02*
X90483333Y-76906712D01*
X90483333Y-76906712D02*
X90516667Y-76944807D01*
X90516667Y-76944807D02*
X90583333Y-76982902D01*
X90583333Y-76982902D02*
X90850000Y-76982902D01*
X90183333Y-77135283D02*
X89850000Y-77135283D01*
X90250000Y-77363855D02*
X90016667Y-76563855D01*
X90016667Y-76563855D02*
X89783333Y-77363855D01*
X89183333Y-77363855D02*
X89583333Y-77363855D01*
X89383333Y-77363855D02*
X89383333Y-76563855D01*
X89383333Y-76563855D02*
X89450000Y-76678140D01*
X89450000Y-76678140D02*
X89516667Y-76754331D01*
X89516667Y-76754331D02*
X89583333Y-76792426D01*
X88550000Y-76563855D02*
X88883333Y-76563855D01*
X88883333Y-76563855D02*
X88916666Y-76944807D01*
X88916666Y-76944807D02*
X88883333Y-76906712D01*
X88883333Y-76906712D02*
X88816666Y-76868617D01*
X88816666Y-76868617D02*
X88650000Y-76868617D01*
X88650000Y-76868617D02*
X88583333Y-76906712D01*
X88583333Y-76906712D02*
X88550000Y-76944807D01*
X88550000Y-76944807D02*
X88516666Y-77020998D01*
X88516666Y-77020998D02*
X88516666Y-77211474D01*
X88516666Y-77211474D02*
X88550000Y-77287664D01*
X88550000Y-77287664D02*
X88583333Y-77325760D01*
X88583333Y-77325760D02*
X88650000Y-77363855D01*
X88650000Y-77363855D02*
X88816666Y-77363855D01*
X88816666Y-77363855D02*
X88883333Y-77325760D01*
X88883333Y-77325760D02*
X88916666Y-77287664D01*
X90850000Y-79213855D02*
X90850000Y-78413855D01*
X90850000Y-78413855D02*
X90583333Y-78413855D01*
X90583333Y-78413855D02*
X90516667Y-78451950D01*
X90516667Y-78451950D02*
X90483333Y-78490045D01*
X90483333Y-78490045D02*
X90450000Y-78566236D01*
X90450000Y-78566236D02*
X90450000Y-78680521D01*
X90450000Y-78680521D02*
X90483333Y-78756712D01*
X90483333Y-78756712D02*
X90516667Y-78794807D01*
X90516667Y-78794807D02*
X90583333Y-78832902D01*
X90583333Y-78832902D02*
X90850000Y-78832902D01*
X90183333Y-78985283D02*
X89850000Y-78985283D01*
X90250000Y-79213855D02*
X90016667Y-78413855D01*
X90016667Y-78413855D02*
X89783333Y-79213855D01*
X89183333Y-79213855D02*
X89583333Y-79213855D01*
X89383333Y-79213855D02*
X89383333Y-78413855D01*
X89383333Y-78413855D02*
X89450000Y-78528140D01*
X89450000Y-78528140D02*
X89516667Y-78604331D01*
X89516667Y-78604331D02*
X89583333Y-78642426D01*
X88950000Y-78413855D02*
X88516666Y-78413855D01*
X88516666Y-78413855D02*
X88750000Y-78718617D01*
X88750000Y-78718617D02*
X88650000Y-78718617D01*
X88650000Y-78718617D02*
X88583333Y-78756712D01*
X88583333Y-78756712D02*
X88550000Y-78794807D01*
X88550000Y-78794807D02*
X88516666Y-78870998D01*
X88516666Y-78870998D02*
X88516666Y-79061474D01*
X88516666Y-79061474D02*
X88550000Y-79137664D01*
X88550000Y-79137664D02*
X88583333Y-79175760D01*
X88583333Y-79175760D02*
X88650000Y-79213855D01*
X88650000Y-79213855D02*
X88850000Y-79213855D01*
X88850000Y-79213855D02*
X88916666Y-79175760D01*
X88916666Y-79175760D02*
X88950000Y-79137664D01*
X90850000Y-81063854D02*
X90850000Y-80263854D01*
X90850000Y-80263854D02*
X90583333Y-80263854D01*
X90583333Y-80263854D02*
X90516667Y-80301949D01*
X90516667Y-80301949D02*
X90483333Y-80340044D01*
X90483333Y-80340044D02*
X90450000Y-80416235D01*
X90450000Y-80416235D02*
X90450000Y-80530520D01*
X90450000Y-80530520D02*
X90483333Y-80606711D01*
X90483333Y-80606711D02*
X90516667Y-80644806D01*
X90516667Y-80644806D02*
X90583333Y-80682901D01*
X90583333Y-80682901D02*
X90850000Y-80682901D01*
X90183333Y-80835282D02*
X89850000Y-80835282D01*
X90250000Y-81063854D02*
X90016667Y-80263854D01*
X90016667Y-80263854D02*
X89783333Y-81063854D01*
X89183333Y-81063854D02*
X89583333Y-81063854D01*
X89383333Y-81063854D02*
X89383333Y-80263854D01*
X89383333Y-80263854D02*
X89450000Y-80378139D01*
X89450000Y-80378139D02*
X89516667Y-80454330D01*
X89516667Y-80454330D02*
X89583333Y-80492425D01*
X88750000Y-80263854D02*
X88683333Y-80263854D01*
X88683333Y-80263854D02*
X88616666Y-80301949D01*
X88616666Y-80301949D02*
X88583333Y-80340044D01*
X88583333Y-80340044D02*
X88550000Y-80416235D01*
X88550000Y-80416235D02*
X88516666Y-80568616D01*
X88516666Y-80568616D02*
X88516666Y-80759092D01*
X88516666Y-80759092D02*
X88550000Y-80911473D01*
X88550000Y-80911473D02*
X88583333Y-80987663D01*
X88583333Y-80987663D02*
X88616666Y-81025759D01*
X88616666Y-81025759D02*
X88683333Y-81063854D01*
X88683333Y-81063854D02*
X88750000Y-81063854D01*
X88750000Y-81063854D02*
X88816666Y-81025759D01*
X88816666Y-81025759D02*
X88850000Y-80987663D01*
X88850000Y-80987663D02*
X88883333Y-80911473D01*
X88883333Y-80911473D02*
X88916666Y-80759092D01*
X88916666Y-80759092D02*
X88916666Y-80568616D01*
X88916666Y-80568616D02*
X88883333Y-80416235D01*
X88883333Y-80416235D02*
X88850000Y-80340044D01*
X88850000Y-80340044D02*
X88816666Y-80301949D01*
X88816666Y-80301949D02*
X88750000Y-80263854D01*
X90900000Y-82913855D02*
X90900000Y-82113855D01*
X90900000Y-82113855D02*
X90633333Y-82113855D01*
X90633333Y-82113855D02*
X90566667Y-82151950D01*
X90566667Y-82151950D02*
X90533333Y-82190045D01*
X90533333Y-82190045D02*
X90500000Y-82266236D01*
X90500000Y-82266236D02*
X90500000Y-82380521D01*
X90500000Y-82380521D02*
X90533333Y-82456712D01*
X90533333Y-82456712D02*
X90566667Y-82494807D01*
X90566667Y-82494807D02*
X90633333Y-82532902D01*
X90633333Y-82532902D02*
X90900000Y-82532902D01*
X89966667Y-82494807D02*
X89866667Y-82532902D01*
X89866667Y-82532902D02*
X89833333Y-82570998D01*
X89833333Y-82570998D02*
X89800000Y-82647188D01*
X89800000Y-82647188D02*
X89800000Y-82761474D01*
X89800000Y-82761474D02*
X89833333Y-82837664D01*
X89833333Y-82837664D02*
X89866667Y-82875760D01*
X89866667Y-82875760D02*
X89933333Y-82913855D01*
X89933333Y-82913855D02*
X90200000Y-82913855D01*
X90200000Y-82913855D02*
X90200000Y-82113855D01*
X90200000Y-82113855D02*
X89966667Y-82113855D01*
X89966667Y-82113855D02*
X89900000Y-82151950D01*
X89900000Y-82151950D02*
X89866667Y-82190045D01*
X89866667Y-82190045D02*
X89833333Y-82266236D01*
X89833333Y-82266236D02*
X89833333Y-82342426D01*
X89833333Y-82342426D02*
X89866667Y-82418617D01*
X89866667Y-82418617D02*
X89900000Y-82456712D01*
X89900000Y-82456712D02*
X89966667Y-82494807D01*
X89966667Y-82494807D02*
X90200000Y-82494807D01*
X89133333Y-82913855D02*
X89533333Y-82913855D01*
X89333333Y-82913855D02*
X89333333Y-82113855D01*
X89333333Y-82113855D02*
X89400000Y-82228140D01*
X89400000Y-82228140D02*
X89466667Y-82304331D01*
X89466667Y-82304331D02*
X89533333Y-82342426D01*
X88500000Y-82113855D02*
X88833333Y-82113855D01*
X88833333Y-82113855D02*
X88866666Y-82494807D01*
X88866666Y-82494807D02*
X88833333Y-82456712D01*
X88833333Y-82456712D02*
X88766666Y-82418617D01*
X88766666Y-82418617D02*
X88600000Y-82418617D01*
X88600000Y-82418617D02*
X88533333Y-82456712D01*
X88533333Y-82456712D02*
X88500000Y-82494807D01*
X88500000Y-82494807D02*
X88466666Y-82570998D01*
X88466666Y-82570998D02*
X88466666Y-82761474D01*
X88466666Y-82761474D02*
X88500000Y-82837664D01*
X88500000Y-82837664D02*
X88533333Y-82875760D01*
X88533333Y-82875760D02*
X88600000Y-82913855D01*
X88600000Y-82913855D02*
X88766666Y-82913855D01*
X88766666Y-82913855D02*
X88833333Y-82875760D01*
X88833333Y-82875760D02*
X88866666Y-82837664D01*
X90900000Y-84763854D02*
X90900000Y-83963854D01*
X90900000Y-83963854D02*
X90633333Y-83963854D01*
X90633333Y-83963854D02*
X90566667Y-84001949D01*
X90566667Y-84001949D02*
X90533333Y-84040044D01*
X90533333Y-84040044D02*
X90500000Y-84116235D01*
X90500000Y-84116235D02*
X90500000Y-84230520D01*
X90500000Y-84230520D02*
X90533333Y-84306711D01*
X90533333Y-84306711D02*
X90566667Y-84344806D01*
X90566667Y-84344806D02*
X90633333Y-84382901D01*
X90633333Y-84382901D02*
X90900000Y-84382901D01*
X89966667Y-84344806D02*
X89866667Y-84382901D01*
X89866667Y-84382901D02*
X89833333Y-84420997D01*
X89833333Y-84420997D02*
X89800000Y-84497187D01*
X89800000Y-84497187D02*
X89800000Y-84611473D01*
X89800000Y-84611473D02*
X89833333Y-84687663D01*
X89833333Y-84687663D02*
X89866667Y-84725759D01*
X89866667Y-84725759D02*
X89933333Y-84763854D01*
X89933333Y-84763854D02*
X90200000Y-84763854D01*
X90200000Y-84763854D02*
X90200000Y-83963854D01*
X90200000Y-83963854D02*
X89966667Y-83963854D01*
X89966667Y-83963854D02*
X89900000Y-84001949D01*
X89900000Y-84001949D02*
X89866667Y-84040044D01*
X89866667Y-84040044D02*
X89833333Y-84116235D01*
X89833333Y-84116235D02*
X89833333Y-84192425D01*
X89833333Y-84192425D02*
X89866667Y-84268616D01*
X89866667Y-84268616D02*
X89900000Y-84306711D01*
X89900000Y-84306711D02*
X89966667Y-84344806D01*
X89966667Y-84344806D02*
X90200000Y-84344806D01*
X89133333Y-84763854D02*
X89533333Y-84763854D01*
X89333333Y-84763854D02*
X89333333Y-83963854D01*
X89333333Y-83963854D02*
X89400000Y-84078139D01*
X89400000Y-84078139D02*
X89466667Y-84154330D01*
X89466667Y-84154330D02*
X89533333Y-84192425D01*
X88900000Y-83963854D02*
X88466666Y-83963854D01*
X88466666Y-83963854D02*
X88700000Y-84268616D01*
X88700000Y-84268616D02*
X88600000Y-84268616D01*
X88600000Y-84268616D02*
X88533333Y-84306711D01*
X88533333Y-84306711D02*
X88500000Y-84344806D01*
X88500000Y-84344806D02*
X88466666Y-84420997D01*
X88466666Y-84420997D02*
X88466666Y-84611473D01*
X88466666Y-84611473D02*
X88500000Y-84687663D01*
X88500000Y-84687663D02*
X88533333Y-84725759D01*
X88533333Y-84725759D02*
X88600000Y-84763854D01*
X88600000Y-84763854D02*
X88800000Y-84763854D01*
X88800000Y-84763854D02*
X88866666Y-84725759D01*
X88866666Y-84725759D02*
X88900000Y-84687663D01*
X90233332Y-85851950D02*
X90299999Y-85813855D01*
X90299999Y-85813855D02*
X90399999Y-85813855D01*
X90399999Y-85813855D02*
X90499999Y-85851950D01*
X90499999Y-85851950D02*
X90566666Y-85928140D01*
X90566666Y-85928140D02*
X90599999Y-86004331D01*
X90599999Y-86004331D02*
X90633332Y-86156712D01*
X90633332Y-86156712D02*
X90633332Y-86270998D01*
X90633332Y-86270998D02*
X90599999Y-86423379D01*
X90599999Y-86423379D02*
X90566666Y-86499569D01*
X90566666Y-86499569D02*
X90499999Y-86575760D01*
X90499999Y-86575760D02*
X90399999Y-86613855D01*
X90399999Y-86613855D02*
X90333332Y-86613855D01*
X90333332Y-86613855D02*
X90233332Y-86575760D01*
X90233332Y-86575760D02*
X90199999Y-86537664D01*
X90199999Y-86537664D02*
X90199999Y-86270998D01*
X90199999Y-86270998D02*
X90333332Y-86270998D01*
X89899999Y-86613855D02*
X89899999Y-85813855D01*
X89899999Y-85813855D02*
X89499999Y-86613855D01*
X89499999Y-86613855D02*
X89499999Y-85813855D01*
X89166666Y-86613855D02*
X89166666Y-85813855D01*
X89166666Y-85813855D02*
X88999999Y-85813855D01*
X88999999Y-85813855D02*
X88899999Y-85851950D01*
X88899999Y-85851950D02*
X88833333Y-85928140D01*
X88833333Y-85928140D02*
X88799999Y-86004331D01*
X88799999Y-86004331D02*
X88766666Y-86156712D01*
X88766666Y-86156712D02*
X88766666Y-86270998D01*
X88766666Y-86270998D02*
X88799999Y-86423379D01*
X88799999Y-86423379D02*
X88833333Y-86499569D01*
X88833333Y-86499569D02*
X88899999Y-86575760D01*
X88899999Y-86575760D02*
X88999999Y-86613855D01*
X88999999Y-86613855D02*
X89166666Y-86613855D01*
X92316667Y-69163855D02*
X92250000Y-69163855D01*
X92250000Y-69163855D02*
X92183333Y-69201950D01*
X92183333Y-69201950D02*
X92150000Y-69240045D01*
X92150000Y-69240045D02*
X92116667Y-69316236D01*
X92116667Y-69316236D02*
X92083333Y-69468617D01*
X92083333Y-69468617D02*
X92083333Y-69659093D01*
X92083333Y-69659093D02*
X92116667Y-69811474D01*
X92116667Y-69811474D02*
X92150000Y-69887664D01*
X92150000Y-69887664D02*
X92183333Y-69925760D01*
X92183333Y-69925760D02*
X92250000Y-69963855D01*
X92250000Y-69963855D02*
X92316667Y-69963855D01*
X92316667Y-69963855D02*
X92383333Y-69925760D01*
X92383333Y-69925760D02*
X92416667Y-69887664D01*
X92416667Y-69887664D02*
X92450000Y-69811474D01*
X92450000Y-69811474D02*
X92483333Y-69659093D01*
X92483333Y-69659093D02*
X92483333Y-69468617D01*
X92483333Y-69468617D02*
X92450000Y-69316236D01*
X92450000Y-69316236D02*
X92416667Y-69240045D01*
X92416667Y-69240045D02*
X92383333Y-69201950D01*
X92383333Y-69201950D02*
X92316667Y-69163855D01*
X91816666Y-69240045D02*
X91783333Y-69201950D01*
X91783333Y-69201950D02*
X91716666Y-69163855D01*
X91716666Y-69163855D02*
X91550000Y-69163855D01*
X91550000Y-69163855D02*
X91483333Y-69201950D01*
X91483333Y-69201950D02*
X91450000Y-69240045D01*
X91450000Y-69240045D02*
X91416666Y-69316236D01*
X91416666Y-69316236D02*
X91416666Y-69392426D01*
X91416666Y-69392426D02*
X91450000Y-69506712D01*
X91450000Y-69506712D02*
X91850000Y-69963855D01*
X91850000Y-69963855D02*
X91416666Y-69963855D01*
X92316667Y-71013854D02*
X92250000Y-71013854D01*
X92250000Y-71013854D02*
X92183333Y-71051949D01*
X92183333Y-71051949D02*
X92150000Y-71090044D01*
X92150000Y-71090044D02*
X92116667Y-71166235D01*
X92116667Y-71166235D02*
X92083333Y-71318616D01*
X92083333Y-71318616D02*
X92083333Y-71509092D01*
X92083333Y-71509092D02*
X92116667Y-71661473D01*
X92116667Y-71661473D02*
X92150000Y-71737663D01*
X92150000Y-71737663D02*
X92183333Y-71775759D01*
X92183333Y-71775759D02*
X92250000Y-71813854D01*
X92250000Y-71813854D02*
X92316667Y-71813854D01*
X92316667Y-71813854D02*
X92383333Y-71775759D01*
X92383333Y-71775759D02*
X92416667Y-71737663D01*
X92416667Y-71737663D02*
X92450000Y-71661473D01*
X92450000Y-71661473D02*
X92483333Y-71509092D01*
X92483333Y-71509092D02*
X92483333Y-71318616D01*
X92483333Y-71318616D02*
X92450000Y-71166235D01*
X92450000Y-71166235D02*
X92416667Y-71090044D01*
X92416667Y-71090044D02*
X92383333Y-71051949D01*
X92383333Y-71051949D02*
X92316667Y-71013854D01*
X91483333Y-71280520D02*
X91483333Y-71813854D01*
X91650000Y-70975759D02*
X91816666Y-71547187D01*
X91816666Y-71547187D02*
X91383333Y-71547187D01*
X92316667Y-72863855D02*
X92250000Y-72863855D01*
X92250000Y-72863855D02*
X92183333Y-72901950D01*
X92183333Y-72901950D02*
X92150000Y-72940045D01*
X92150000Y-72940045D02*
X92116667Y-73016236D01*
X92116667Y-73016236D02*
X92083333Y-73168617D01*
X92083333Y-73168617D02*
X92083333Y-73359093D01*
X92083333Y-73359093D02*
X92116667Y-73511474D01*
X92116667Y-73511474D02*
X92150000Y-73587664D01*
X92150000Y-73587664D02*
X92183333Y-73625760D01*
X92183333Y-73625760D02*
X92250000Y-73663855D01*
X92250000Y-73663855D02*
X92316667Y-73663855D01*
X92316667Y-73663855D02*
X92383333Y-73625760D01*
X92383333Y-73625760D02*
X92416667Y-73587664D01*
X92416667Y-73587664D02*
X92450000Y-73511474D01*
X92450000Y-73511474D02*
X92483333Y-73359093D01*
X92483333Y-73359093D02*
X92483333Y-73168617D01*
X92483333Y-73168617D02*
X92450000Y-73016236D01*
X92450000Y-73016236D02*
X92416667Y-72940045D01*
X92416667Y-72940045D02*
X92383333Y-72901950D01*
X92383333Y-72901950D02*
X92316667Y-72863855D01*
X91483333Y-72863855D02*
X91616666Y-72863855D01*
X91616666Y-72863855D02*
X91683333Y-72901950D01*
X91683333Y-72901950D02*
X91716666Y-72940045D01*
X91716666Y-72940045D02*
X91783333Y-73054331D01*
X91783333Y-73054331D02*
X91816666Y-73206712D01*
X91816666Y-73206712D02*
X91816666Y-73511474D01*
X91816666Y-73511474D02*
X91783333Y-73587664D01*
X91783333Y-73587664D02*
X91750000Y-73625760D01*
X91750000Y-73625760D02*
X91683333Y-73663855D01*
X91683333Y-73663855D02*
X91550000Y-73663855D01*
X91550000Y-73663855D02*
X91483333Y-73625760D01*
X91483333Y-73625760D02*
X91450000Y-73587664D01*
X91450000Y-73587664D02*
X91416666Y-73511474D01*
X91416666Y-73511474D02*
X91416666Y-73320998D01*
X91416666Y-73320998D02*
X91450000Y-73244807D01*
X91450000Y-73244807D02*
X91483333Y-73206712D01*
X91483333Y-73206712D02*
X91550000Y-73168617D01*
X91550000Y-73168617D02*
X91683333Y-73168617D01*
X91683333Y-73168617D02*
X91750000Y-73206712D01*
X91750000Y-73206712D02*
X91783333Y-73244807D01*
X91783333Y-73244807D02*
X91816666Y-73320998D01*
X92316667Y-74713854D02*
X92250000Y-74713854D01*
X92250000Y-74713854D02*
X92183333Y-74751949D01*
X92183333Y-74751949D02*
X92150000Y-74790044D01*
X92150000Y-74790044D02*
X92116667Y-74866235D01*
X92116667Y-74866235D02*
X92083333Y-75018616D01*
X92083333Y-75018616D02*
X92083333Y-75209092D01*
X92083333Y-75209092D02*
X92116667Y-75361473D01*
X92116667Y-75361473D02*
X92150000Y-75437663D01*
X92150000Y-75437663D02*
X92183333Y-75475759D01*
X92183333Y-75475759D02*
X92250000Y-75513854D01*
X92250000Y-75513854D02*
X92316667Y-75513854D01*
X92316667Y-75513854D02*
X92383333Y-75475759D01*
X92383333Y-75475759D02*
X92416667Y-75437663D01*
X92416667Y-75437663D02*
X92450000Y-75361473D01*
X92450000Y-75361473D02*
X92483333Y-75209092D01*
X92483333Y-75209092D02*
X92483333Y-75018616D01*
X92483333Y-75018616D02*
X92450000Y-74866235D01*
X92450000Y-74866235D02*
X92416667Y-74790044D01*
X92416667Y-74790044D02*
X92383333Y-74751949D01*
X92383333Y-74751949D02*
X92316667Y-74713854D01*
X91683333Y-75056711D02*
X91750000Y-75018616D01*
X91750000Y-75018616D02*
X91783333Y-74980520D01*
X91783333Y-74980520D02*
X91816666Y-74904330D01*
X91816666Y-74904330D02*
X91816666Y-74866235D01*
X91816666Y-74866235D02*
X91783333Y-74790044D01*
X91783333Y-74790044D02*
X91750000Y-74751949D01*
X91750000Y-74751949D02*
X91683333Y-74713854D01*
X91683333Y-74713854D02*
X91550000Y-74713854D01*
X91550000Y-74713854D02*
X91483333Y-74751949D01*
X91483333Y-74751949D02*
X91450000Y-74790044D01*
X91450000Y-74790044D02*
X91416666Y-74866235D01*
X91416666Y-74866235D02*
X91416666Y-74904330D01*
X91416666Y-74904330D02*
X91450000Y-74980520D01*
X91450000Y-74980520D02*
X91483333Y-75018616D01*
X91483333Y-75018616D02*
X91550000Y-75056711D01*
X91550000Y-75056711D02*
X91683333Y-75056711D01*
X91683333Y-75056711D02*
X91750000Y-75094806D01*
X91750000Y-75094806D02*
X91783333Y-75132901D01*
X91783333Y-75132901D02*
X91816666Y-75209092D01*
X91816666Y-75209092D02*
X91816666Y-75361473D01*
X91816666Y-75361473D02*
X91783333Y-75437663D01*
X91783333Y-75437663D02*
X91750000Y-75475759D01*
X91750000Y-75475759D02*
X91683333Y-75513854D01*
X91683333Y-75513854D02*
X91550000Y-75513854D01*
X91550000Y-75513854D02*
X91483333Y-75475759D01*
X91483333Y-75475759D02*
X91450000Y-75437663D01*
X91450000Y-75437663D02*
X91416666Y-75361473D01*
X91416666Y-75361473D02*
X91416666Y-75209092D01*
X91416666Y-75209092D02*
X91450000Y-75132901D01*
X91450000Y-75132901D02*
X91483333Y-75094806D01*
X91483333Y-75094806D02*
X91550000Y-75056711D01*
X92083333Y-77363855D02*
X92483333Y-77363855D01*
X92283333Y-77363855D02*
X92283333Y-76563855D01*
X92283333Y-76563855D02*
X92350000Y-76678140D01*
X92350000Y-76678140D02*
X92416667Y-76754331D01*
X92416667Y-76754331D02*
X92483333Y-76792426D01*
X91650000Y-76563855D02*
X91583333Y-76563855D01*
X91583333Y-76563855D02*
X91516666Y-76601950D01*
X91516666Y-76601950D02*
X91483333Y-76640045D01*
X91483333Y-76640045D02*
X91450000Y-76716236D01*
X91450000Y-76716236D02*
X91416666Y-76868617D01*
X91416666Y-76868617D02*
X91416666Y-77059093D01*
X91416666Y-77059093D02*
X91450000Y-77211474D01*
X91450000Y-77211474D02*
X91483333Y-77287664D01*
X91483333Y-77287664D02*
X91516666Y-77325760D01*
X91516666Y-77325760D02*
X91583333Y-77363855D01*
X91583333Y-77363855D02*
X91650000Y-77363855D01*
X91650000Y-77363855D02*
X91716666Y-77325760D01*
X91716666Y-77325760D02*
X91750000Y-77287664D01*
X91750000Y-77287664D02*
X91783333Y-77211474D01*
X91783333Y-77211474D02*
X91816666Y-77059093D01*
X91816666Y-77059093D02*
X91816666Y-76868617D01*
X91816666Y-76868617D02*
X91783333Y-76716236D01*
X91783333Y-76716236D02*
X91750000Y-76640045D01*
X91750000Y-76640045D02*
X91716666Y-76601950D01*
X91716666Y-76601950D02*
X91650000Y-76563855D01*
X92083333Y-79213855D02*
X92483333Y-79213855D01*
X92283333Y-79213855D02*
X92283333Y-78413855D01*
X92283333Y-78413855D02*
X92350000Y-78528140D01*
X92350000Y-78528140D02*
X92416667Y-78604331D01*
X92416667Y-78604331D02*
X92483333Y-78642426D01*
X91816666Y-78490045D02*
X91783333Y-78451950D01*
X91783333Y-78451950D02*
X91716666Y-78413855D01*
X91716666Y-78413855D02*
X91550000Y-78413855D01*
X91550000Y-78413855D02*
X91483333Y-78451950D01*
X91483333Y-78451950D02*
X91450000Y-78490045D01*
X91450000Y-78490045D02*
X91416666Y-78566236D01*
X91416666Y-78566236D02*
X91416666Y-78642426D01*
X91416666Y-78642426D02*
X91450000Y-78756712D01*
X91450000Y-78756712D02*
X91850000Y-79213855D01*
X91850000Y-79213855D02*
X91416666Y-79213855D01*
X92083333Y-81063854D02*
X92483333Y-81063854D01*
X92283333Y-81063854D02*
X92283333Y-80263854D01*
X92283333Y-80263854D02*
X92350000Y-80378139D01*
X92350000Y-80378139D02*
X92416667Y-80454330D01*
X92416667Y-80454330D02*
X92483333Y-80492425D01*
X91483333Y-80530520D02*
X91483333Y-81063854D01*
X91650000Y-80225759D02*
X91816666Y-80797187D01*
X91816666Y-80797187D02*
X91383333Y-80797187D01*
X92083333Y-82913855D02*
X92483333Y-82913855D01*
X92283333Y-82913855D02*
X92283333Y-82113855D01*
X92283333Y-82113855D02*
X92350000Y-82228140D01*
X92350000Y-82228140D02*
X92416667Y-82304331D01*
X92416667Y-82304331D02*
X92483333Y-82342426D01*
X91483333Y-82113855D02*
X91616666Y-82113855D01*
X91616666Y-82113855D02*
X91683333Y-82151950D01*
X91683333Y-82151950D02*
X91716666Y-82190045D01*
X91716666Y-82190045D02*
X91783333Y-82304331D01*
X91783333Y-82304331D02*
X91816666Y-82456712D01*
X91816666Y-82456712D02*
X91816666Y-82761474D01*
X91816666Y-82761474D02*
X91783333Y-82837664D01*
X91783333Y-82837664D02*
X91750000Y-82875760D01*
X91750000Y-82875760D02*
X91683333Y-82913855D01*
X91683333Y-82913855D02*
X91550000Y-82913855D01*
X91550000Y-82913855D02*
X91483333Y-82875760D01*
X91483333Y-82875760D02*
X91450000Y-82837664D01*
X91450000Y-82837664D02*
X91416666Y-82761474D01*
X91416666Y-82761474D02*
X91416666Y-82570998D01*
X91416666Y-82570998D02*
X91450000Y-82494807D01*
X91450000Y-82494807D02*
X91483333Y-82456712D01*
X91483333Y-82456712D02*
X91550000Y-82418617D01*
X91550000Y-82418617D02*
X91683333Y-82418617D01*
X91683333Y-82418617D02*
X91750000Y-82456712D01*
X91750000Y-82456712D02*
X91783333Y-82494807D01*
X91783333Y-82494807D02*
X91816666Y-82570998D01*
X92083333Y-84763854D02*
X92483333Y-84763854D01*
X92283333Y-84763854D02*
X92283333Y-83963854D01*
X92283333Y-83963854D02*
X92350000Y-84078139D01*
X92350000Y-84078139D02*
X92416667Y-84154330D01*
X92416667Y-84154330D02*
X92483333Y-84192425D01*
X91683333Y-84306711D02*
X91750000Y-84268616D01*
X91750000Y-84268616D02*
X91783333Y-84230520D01*
X91783333Y-84230520D02*
X91816666Y-84154330D01*
X91816666Y-84154330D02*
X91816666Y-84116235D01*
X91816666Y-84116235D02*
X91783333Y-84040044D01*
X91783333Y-84040044D02*
X91750000Y-84001949D01*
X91750000Y-84001949D02*
X91683333Y-83963854D01*
X91683333Y-83963854D02*
X91550000Y-83963854D01*
X91550000Y-83963854D02*
X91483333Y-84001949D01*
X91483333Y-84001949D02*
X91450000Y-84040044D01*
X91450000Y-84040044D02*
X91416666Y-84116235D01*
X91416666Y-84116235D02*
X91416666Y-84154330D01*
X91416666Y-84154330D02*
X91450000Y-84230520D01*
X91450000Y-84230520D02*
X91483333Y-84268616D01*
X91483333Y-84268616D02*
X91550000Y-84306711D01*
X91550000Y-84306711D02*
X91683333Y-84306711D01*
X91683333Y-84306711D02*
X91750000Y-84344806D01*
X91750000Y-84344806D02*
X91783333Y-84382901D01*
X91783333Y-84382901D02*
X91816666Y-84459092D01*
X91816666Y-84459092D02*
X91816666Y-84611473D01*
X91816666Y-84611473D02*
X91783333Y-84687663D01*
X91783333Y-84687663D02*
X91750000Y-84725759D01*
X91750000Y-84725759D02*
X91683333Y-84763854D01*
X91683333Y-84763854D02*
X91550000Y-84763854D01*
X91550000Y-84763854D02*
X91483333Y-84725759D01*
X91483333Y-84725759D02*
X91450000Y-84687663D01*
X91450000Y-84687663D02*
X91416666Y-84611473D01*
X91416666Y-84611473D02*
X91416666Y-84459092D01*
X91416666Y-84459092D02*
X91450000Y-84382901D01*
X91450000Y-84382901D02*
X91483333Y-84344806D01*
X91483333Y-84344806D02*
X91550000Y-84306711D01*
X92483333Y-85890045D02*
X92450000Y-85851950D01*
X92450000Y-85851950D02*
X92383333Y-85813855D01*
X92383333Y-85813855D02*
X92216667Y-85813855D01*
X92216667Y-85813855D02*
X92150000Y-85851950D01*
X92150000Y-85851950D02*
X92116667Y-85890045D01*
X92116667Y-85890045D02*
X92083333Y-85966236D01*
X92083333Y-85966236D02*
X92083333Y-86042426D01*
X92083333Y-86042426D02*
X92116667Y-86156712D01*
X92116667Y-86156712D02*
X92516667Y-86613855D01*
X92516667Y-86613855D02*
X92083333Y-86613855D01*
X91650000Y-85813855D02*
X91583333Y-85813855D01*
X91583333Y-85813855D02*
X91516666Y-85851950D01*
X91516666Y-85851950D02*
X91483333Y-85890045D01*
X91483333Y-85890045D02*
X91450000Y-85966236D01*
X91450000Y-85966236D02*
X91416666Y-86118617D01*
X91416666Y-86118617D02*
X91416666Y-86309093D01*
X91416666Y-86309093D02*
X91450000Y-86461474D01*
X91450000Y-86461474D02*
X91483333Y-86537664D01*
X91483333Y-86537664D02*
X91516666Y-86575760D01*
X91516666Y-86575760D02*
X91583333Y-86613855D01*
X91583333Y-86613855D02*
X91650000Y-86613855D01*
X91650000Y-86613855D02*
X91716666Y-86575760D01*
X91716666Y-86575760D02*
X91750000Y-86537664D01*
X91750000Y-86537664D02*
X91783333Y-86461474D01*
X91783333Y-86461474D02*
X91816666Y-86309093D01*
X91816666Y-86309093D02*
X91816666Y-86118617D01*
X91816666Y-86118617D02*
X91783333Y-85966236D01*
X91783333Y-85966236D02*
X91750000Y-85890045D01*
X91750000Y-85890045D02*
X91716666Y-85851950D01*
X91716666Y-85851950D02*
X91650000Y-85813855D01*
X95066667Y-69163855D02*
X94633333Y-69163855D01*
X94633333Y-69163855D02*
X94866667Y-69468617D01*
X94866667Y-69468617D02*
X94766667Y-69468617D01*
X94766667Y-69468617D02*
X94700000Y-69506712D01*
X94700000Y-69506712D02*
X94666667Y-69544807D01*
X94666667Y-69544807D02*
X94633333Y-69620998D01*
X94633333Y-69620998D02*
X94633333Y-69811474D01*
X94633333Y-69811474D02*
X94666667Y-69887664D01*
X94666667Y-69887664D02*
X94700000Y-69925760D01*
X94700000Y-69925760D02*
X94766667Y-69963855D01*
X94766667Y-69963855D02*
X94966667Y-69963855D01*
X94966667Y-69963855D02*
X95033333Y-69925760D01*
X95033333Y-69925760D02*
X95066667Y-69887664D01*
X94433333Y-69163855D02*
X94200000Y-69963855D01*
X94200000Y-69963855D02*
X93966666Y-69163855D01*
X93800000Y-69163855D02*
X93366666Y-69163855D01*
X93366666Y-69163855D02*
X93600000Y-69468617D01*
X93600000Y-69468617D02*
X93500000Y-69468617D01*
X93500000Y-69468617D02*
X93433333Y-69506712D01*
X93433333Y-69506712D02*
X93400000Y-69544807D01*
X93400000Y-69544807D02*
X93366666Y-69620998D01*
X93366666Y-69620998D02*
X93366666Y-69811474D01*
X93366666Y-69811474D02*
X93400000Y-69887664D01*
X93400000Y-69887664D02*
X93433333Y-69925760D01*
X93433333Y-69925760D02*
X93500000Y-69963855D01*
X93500000Y-69963855D02*
X93700000Y-69963855D01*
X93700000Y-69963855D02*
X93766666Y-69925760D01*
X93766666Y-69925760D02*
X93800000Y-69887664D01*
X95066666Y-71813854D02*
X95066666Y-71013854D01*
X95066666Y-71013854D02*
X94799999Y-71013854D01*
X94799999Y-71013854D02*
X94733333Y-71051949D01*
X94733333Y-71051949D02*
X94699999Y-71090044D01*
X94699999Y-71090044D02*
X94666666Y-71166235D01*
X94666666Y-71166235D02*
X94666666Y-71280520D01*
X94666666Y-71280520D02*
X94699999Y-71356711D01*
X94699999Y-71356711D02*
X94733333Y-71394806D01*
X94733333Y-71394806D02*
X94799999Y-71432901D01*
X94799999Y-71432901D02*
X95066666Y-71432901D01*
X94133333Y-71394806D02*
X94033333Y-71432901D01*
X94033333Y-71432901D02*
X93999999Y-71470997D01*
X93999999Y-71470997D02*
X93966666Y-71547187D01*
X93966666Y-71547187D02*
X93966666Y-71661473D01*
X93966666Y-71661473D02*
X93999999Y-71737663D01*
X93999999Y-71737663D02*
X94033333Y-71775759D01*
X94033333Y-71775759D02*
X94099999Y-71813854D01*
X94099999Y-71813854D02*
X94366666Y-71813854D01*
X94366666Y-71813854D02*
X94366666Y-71013854D01*
X94366666Y-71013854D02*
X94133333Y-71013854D01*
X94133333Y-71013854D02*
X94066666Y-71051949D01*
X94066666Y-71051949D02*
X94033333Y-71090044D01*
X94033333Y-71090044D02*
X93999999Y-71166235D01*
X93999999Y-71166235D02*
X93999999Y-71242425D01*
X93999999Y-71242425D02*
X94033333Y-71318616D01*
X94033333Y-71318616D02*
X94066666Y-71356711D01*
X94066666Y-71356711D02*
X94133333Y-71394806D01*
X94133333Y-71394806D02*
X94366666Y-71394806D01*
X93566666Y-71356711D02*
X93633333Y-71318616D01*
X93633333Y-71318616D02*
X93666666Y-71280520D01*
X93666666Y-71280520D02*
X93699999Y-71204330D01*
X93699999Y-71204330D02*
X93699999Y-71166235D01*
X93699999Y-71166235D02*
X93666666Y-71090044D01*
X93666666Y-71090044D02*
X93633333Y-71051949D01*
X93633333Y-71051949D02*
X93566666Y-71013854D01*
X93566666Y-71013854D02*
X93433333Y-71013854D01*
X93433333Y-71013854D02*
X93366666Y-71051949D01*
X93366666Y-71051949D02*
X93333333Y-71090044D01*
X93333333Y-71090044D02*
X93299999Y-71166235D01*
X93299999Y-71166235D02*
X93299999Y-71204330D01*
X93299999Y-71204330D02*
X93333333Y-71280520D01*
X93333333Y-71280520D02*
X93366666Y-71318616D01*
X93366666Y-71318616D02*
X93433333Y-71356711D01*
X93433333Y-71356711D02*
X93566666Y-71356711D01*
X93566666Y-71356711D02*
X93633333Y-71394806D01*
X93633333Y-71394806D02*
X93666666Y-71432901D01*
X93666666Y-71432901D02*
X93699999Y-71509092D01*
X93699999Y-71509092D02*
X93699999Y-71661473D01*
X93699999Y-71661473D02*
X93666666Y-71737663D01*
X93666666Y-71737663D02*
X93633333Y-71775759D01*
X93633333Y-71775759D02*
X93566666Y-71813854D01*
X93566666Y-71813854D02*
X93433333Y-71813854D01*
X93433333Y-71813854D02*
X93366666Y-71775759D01*
X93366666Y-71775759D02*
X93333333Y-71737663D01*
X93333333Y-71737663D02*
X93299999Y-71661473D01*
X93299999Y-71661473D02*
X93299999Y-71509092D01*
X93299999Y-71509092D02*
X93333333Y-71432901D01*
X93333333Y-71432901D02*
X93366666Y-71394806D01*
X93366666Y-71394806D02*
X93433333Y-71356711D01*
X95066666Y-73663855D02*
X95066666Y-72863855D01*
X95066666Y-72863855D02*
X94799999Y-72863855D01*
X94799999Y-72863855D02*
X94733333Y-72901950D01*
X94733333Y-72901950D02*
X94699999Y-72940045D01*
X94699999Y-72940045D02*
X94666666Y-73016236D01*
X94666666Y-73016236D02*
X94666666Y-73130521D01*
X94666666Y-73130521D02*
X94699999Y-73206712D01*
X94699999Y-73206712D02*
X94733333Y-73244807D01*
X94733333Y-73244807D02*
X94799999Y-73282902D01*
X94799999Y-73282902D02*
X95066666Y-73282902D01*
X94133333Y-73244807D02*
X94033333Y-73282902D01*
X94033333Y-73282902D02*
X93999999Y-73320998D01*
X93999999Y-73320998D02*
X93966666Y-73397188D01*
X93966666Y-73397188D02*
X93966666Y-73511474D01*
X93966666Y-73511474D02*
X93999999Y-73587664D01*
X93999999Y-73587664D02*
X94033333Y-73625760D01*
X94033333Y-73625760D02*
X94099999Y-73663855D01*
X94099999Y-73663855D02*
X94366666Y-73663855D01*
X94366666Y-73663855D02*
X94366666Y-72863855D01*
X94366666Y-72863855D02*
X94133333Y-72863855D01*
X94133333Y-72863855D02*
X94066666Y-72901950D01*
X94066666Y-72901950D02*
X94033333Y-72940045D01*
X94033333Y-72940045D02*
X93999999Y-73016236D01*
X93999999Y-73016236D02*
X93999999Y-73092426D01*
X93999999Y-73092426D02*
X94033333Y-73168617D01*
X94033333Y-73168617D02*
X94066666Y-73206712D01*
X94066666Y-73206712D02*
X94133333Y-73244807D01*
X94133333Y-73244807D02*
X94366666Y-73244807D01*
X93366666Y-72863855D02*
X93499999Y-72863855D01*
X93499999Y-72863855D02*
X93566666Y-72901950D01*
X93566666Y-72901950D02*
X93599999Y-72940045D01*
X93599999Y-72940045D02*
X93666666Y-73054331D01*
X93666666Y-73054331D02*
X93699999Y-73206712D01*
X93699999Y-73206712D02*
X93699999Y-73511474D01*
X93699999Y-73511474D02*
X93666666Y-73587664D01*
X93666666Y-73587664D02*
X93633333Y-73625760D01*
X93633333Y-73625760D02*
X93566666Y-73663855D01*
X93566666Y-73663855D02*
X93433333Y-73663855D01*
X93433333Y-73663855D02*
X93366666Y-73625760D01*
X93366666Y-73625760D02*
X93333333Y-73587664D01*
X93333333Y-73587664D02*
X93299999Y-73511474D01*
X93299999Y-73511474D02*
X93299999Y-73320998D01*
X93299999Y-73320998D02*
X93333333Y-73244807D01*
X93333333Y-73244807D02*
X93366666Y-73206712D01*
X93366666Y-73206712D02*
X93433333Y-73168617D01*
X93433333Y-73168617D02*
X93566666Y-73168617D01*
X93566666Y-73168617D02*
X93633333Y-73206712D01*
X93633333Y-73206712D02*
X93666666Y-73244807D01*
X93666666Y-73244807D02*
X93699999Y-73320998D01*
X95066666Y-75513854D02*
X95066666Y-74713854D01*
X95066666Y-74713854D02*
X94799999Y-74713854D01*
X94799999Y-74713854D02*
X94733333Y-74751949D01*
X94733333Y-74751949D02*
X94699999Y-74790044D01*
X94699999Y-74790044D02*
X94666666Y-74866235D01*
X94666666Y-74866235D02*
X94666666Y-74980520D01*
X94666666Y-74980520D02*
X94699999Y-75056711D01*
X94699999Y-75056711D02*
X94733333Y-75094806D01*
X94733333Y-75094806D02*
X94799999Y-75132901D01*
X94799999Y-75132901D02*
X95066666Y-75132901D01*
X94133333Y-75094806D02*
X94033333Y-75132901D01*
X94033333Y-75132901D02*
X93999999Y-75170997D01*
X93999999Y-75170997D02*
X93966666Y-75247187D01*
X93966666Y-75247187D02*
X93966666Y-75361473D01*
X93966666Y-75361473D02*
X93999999Y-75437663D01*
X93999999Y-75437663D02*
X94033333Y-75475759D01*
X94033333Y-75475759D02*
X94099999Y-75513854D01*
X94099999Y-75513854D02*
X94366666Y-75513854D01*
X94366666Y-75513854D02*
X94366666Y-74713854D01*
X94366666Y-74713854D02*
X94133333Y-74713854D01*
X94133333Y-74713854D02*
X94066666Y-74751949D01*
X94066666Y-74751949D02*
X94033333Y-74790044D01*
X94033333Y-74790044D02*
X93999999Y-74866235D01*
X93999999Y-74866235D02*
X93999999Y-74942425D01*
X93999999Y-74942425D02*
X94033333Y-75018616D01*
X94033333Y-75018616D02*
X94066666Y-75056711D01*
X94066666Y-75056711D02*
X94133333Y-75094806D01*
X94133333Y-75094806D02*
X94366666Y-75094806D01*
X93333333Y-74713854D02*
X93666666Y-74713854D01*
X93666666Y-74713854D02*
X93699999Y-75094806D01*
X93699999Y-75094806D02*
X93666666Y-75056711D01*
X93666666Y-75056711D02*
X93599999Y-75018616D01*
X93599999Y-75018616D02*
X93433333Y-75018616D01*
X93433333Y-75018616D02*
X93366666Y-75056711D01*
X93366666Y-75056711D02*
X93333333Y-75094806D01*
X93333333Y-75094806D02*
X93299999Y-75170997D01*
X93299999Y-75170997D02*
X93299999Y-75361473D01*
X93299999Y-75361473D02*
X93333333Y-75437663D01*
X93333333Y-75437663D02*
X93366666Y-75475759D01*
X93366666Y-75475759D02*
X93433333Y-75513854D01*
X93433333Y-75513854D02*
X93599999Y-75513854D01*
X93599999Y-75513854D02*
X93666666Y-75475759D01*
X93666666Y-75475759D02*
X93699999Y-75437663D01*
X95066666Y-77363855D02*
X95066666Y-76563855D01*
X95066666Y-76563855D02*
X94799999Y-76563855D01*
X94799999Y-76563855D02*
X94733333Y-76601950D01*
X94733333Y-76601950D02*
X94699999Y-76640045D01*
X94699999Y-76640045D02*
X94666666Y-76716236D01*
X94666666Y-76716236D02*
X94666666Y-76830521D01*
X94666666Y-76830521D02*
X94699999Y-76906712D01*
X94699999Y-76906712D02*
X94733333Y-76944807D01*
X94733333Y-76944807D02*
X94799999Y-76982902D01*
X94799999Y-76982902D02*
X95066666Y-76982902D01*
X94133333Y-76944807D02*
X94033333Y-76982902D01*
X94033333Y-76982902D02*
X93999999Y-77020998D01*
X93999999Y-77020998D02*
X93966666Y-77097188D01*
X93966666Y-77097188D02*
X93966666Y-77211474D01*
X93966666Y-77211474D02*
X93999999Y-77287664D01*
X93999999Y-77287664D02*
X94033333Y-77325760D01*
X94033333Y-77325760D02*
X94099999Y-77363855D01*
X94099999Y-77363855D02*
X94366666Y-77363855D01*
X94366666Y-77363855D02*
X94366666Y-76563855D01*
X94366666Y-76563855D02*
X94133333Y-76563855D01*
X94133333Y-76563855D02*
X94066666Y-76601950D01*
X94066666Y-76601950D02*
X94033333Y-76640045D01*
X94033333Y-76640045D02*
X93999999Y-76716236D01*
X93999999Y-76716236D02*
X93999999Y-76792426D01*
X93999999Y-76792426D02*
X94033333Y-76868617D01*
X94033333Y-76868617D02*
X94066666Y-76906712D01*
X94066666Y-76906712D02*
X94133333Y-76944807D01*
X94133333Y-76944807D02*
X94366666Y-76944807D01*
X93733333Y-76563855D02*
X93299999Y-76563855D01*
X93299999Y-76563855D02*
X93533333Y-76868617D01*
X93533333Y-76868617D02*
X93433333Y-76868617D01*
X93433333Y-76868617D02*
X93366666Y-76906712D01*
X93366666Y-76906712D02*
X93333333Y-76944807D01*
X93333333Y-76944807D02*
X93299999Y-77020998D01*
X93299999Y-77020998D02*
X93299999Y-77211474D01*
X93299999Y-77211474D02*
X93333333Y-77287664D01*
X93333333Y-77287664D02*
X93366666Y-77325760D01*
X93366666Y-77325760D02*
X93433333Y-77363855D01*
X93433333Y-77363855D02*
X93633333Y-77363855D01*
X93633333Y-77363855D02*
X93699999Y-77325760D01*
X93699999Y-77325760D02*
X93733333Y-77287664D01*
X95350000Y-79213855D02*
X95350000Y-78413855D01*
X95350000Y-78413855D02*
X95083333Y-78413855D01*
X95083333Y-78413855D02*
X95016667Y-78451950D01*
X95016667Y-78451950D02*
X94983333Y-78490045D01*
X94983333Y-78490045D02*
X94950000Y-78566236D01*
X94950000Y-78566236D02*
X94950000Y-78680521D01*
X94950000Y-78680521D02*
X94983333Y-78756712D01*
X94983333Y-78756712D02*
X95016667Y-78794807D01*
X95016667Y-78794807D02*
X95083333Y-78832902D01*
X95083333Y-78832902D02*
X95350000Y-78832902D01*
X94683333Y-78985283D02*
X94350000Y-78985283D01*
X94750000Y-79213855D02*
X94516667Y-78413855D01*
X94516667Y-78413855D02*
X94283333Y-79213855D01*
X93683333Y-79213855D02*
X94083333Y-79213855D01*
X93883333Y-79213855D02*
X93883333Y-78413855D01*
X93883333Y-78413855D02*
X93950000Y-78528140D01*
X93950000Y-78528140D02*
X94016667Y-78604331D01*
X94016667Y-78604331D02*
X94083333Y-78642426D01*
X93083333Y-78680521D02*
X93083333Y-79213855D01*
X93250000Y-78375760D02*
X93416666Y-78947188D01*
X93416666Y-78947188D02*
X92983333Y-78947188D01*
X95016666Y-81063854D02*
X95016666Y-80263854D01*
X95016666Y-80263854D02*
X94749999Y-80263854D01*
X94749999Y-80263854D02*
X94683333Y-80301949D01*
X94683333Y-80301949D02*
X94649999Y-80340044D01*
X94649999Y-80340044D02*
X94616666Y-80416235D01*
X94616666Y-80416235D02*
X94616666Y-80530520D01*
X94616666Y-80530520D02*
X94649999Y-80606711D01*
X94649999Y-80606711D02*
X94683333Y-80644806D01*
X94683333Y-80644806D02*
X94749999Y-80682901D01*
X94749999Y-80682901D02*
X95016666Y-80682901D01*
X94349999Y-80835282D02*
X94016666Y-80835282D01*
X94416666Y-81063854D02*
X94183333Y-80263854D01*
X94183333Y-80263854D02*
X93949999Y-81063854D01*
X93683333Y-81063854D02*
X93549999Y-81063854D01*
X93549999Y-81063854D02*
X93483333Y-81025759D01*
X93483333Y-81025759D02*
X93449999Y-80987663D01*
X93449999Y-80987663D02*
X93383333Y-80873378D01*
X93383333Y-80873378D02*
X93349999Y-80720997D01*
X93349999Y-80720997D02*
X93349999Y-80416235D01*
X93349999Y-80416235D02*
X93383333Y-80340044D01*
X93383333Y-80340044D02*
X93416666Y-80301949D01*
X93416666Y-80301949D02*
X93483333Y-80263854D01*
X93483333Y-80263854D02*
X93616666Y-80263854D01*
X93616666Y-80263854D02*
X93683333Y-80301949D01*
X93683333Y-80301949D02*
X93716666Y-80340044D01*
X93716666Y-80340044D02*
X93749999Y-80416235D01*
X93749999Y-80416235D02*
X93749999Y-80606711D01*
X93749999Y-80606711D02*
X93716666Y-80682901D01*
X93716666Y-80682901D02*
X93683333Y-80720997D01*
X93683333Y-80720997D02*
X93616666Y-80759092D01*
X93616666Y-80759092D02*
X93483333Y-80759092D01*
X93483333Y-80759092D02*
X93416666Y-80720997D01*
X93416666Y-80720997D02*
X93383333Y-80682901D01*
X93383333Y-80682901D02*
X93349999Y-80606711D01*
X95016666Y-82913855D02*
X95016666Y-82113855D01*
X95016666Y-82113855D02*
X94749999Y-82113855D01*
X94749999Y-82113855D02*
X94683333Y-82151950D01*
X94683333Y-82151950D02*
X94649999Y-82190045D01*
X94649999Y-82190045D02*
X94616666Y-82266236D01*
X94616666Y-82266236D02*
X94616666Y-82380521D01*
X94616666Y-82380521D02*
X94649999Y-82456712D01*
X94649999Y-82456712D02*
X94683333Y-82494807D01*
X94683333Y-82494807D02*
X94749999Y-82532902D01*
X94749999Y-82532902D02*
X95016666Y-82532902D01*
X94349999Y-82685283D02*
X94016666Y-82685283D01*
X94416666Y-82913855D02*
X94183333Y-82113855D01*
X94183333Y-82113855D02*
X93949999Y-82913855D01*
X93616666Y-82456712D02*
X93683333Y-82418617D01*
X93683333Y-82418617D02*
X93716666Y-82380521D01*
X93716666Y-82380521D02*
X93749999Y-82304331D01*
X93749999Y-82304331D02*
X93749999Y-82266236D01*
X93749999Y-82266236D02*
X93716666Y-82190045D01*
X93716666Y-82190045D02*
X93683333Y-82151950D01*
X93683333Y-82151950D02*
X93616666Y-82113855D01*
X93616666Y-82113855D02*
X93483333Y-82113855D01*
X93483333Y-82113855D02*
X93416666Y-82151950D01*
X93416666Y-82151950D02*
X93383333Y-82190045D01*
X93383333Y-82190045D02*
X93349999Y-82266236D01*
X93349999Y-82266236D02*
X93349999Y-82304331D01*
X93349999Y-82304331D02*
X93383333Y-82380521D01*
X93383333Y-82380521D02*
X93416666Y-82418617D01*
X93416666Y-82418617D02*
X93483333Y-82456712D01*
X93483333Y-82456712D02*
X93616666Y-82456712D01*
X93616666Y-82456712D02*
X93683333Y-82494807D01*
X93683333Y-82494807D02*
X93716666Y-82532902D01*
X93716666Y-82532902D02*
X93749999Y-82609093D01*
X93749999Y-82609093D02*
X93749999Y-82761474D01*
X93749999Y-82761474D02*
X93716666Y-82837664D01*
X93716666Y-82837664D02*
X93683333Y-82875760D01*
X93683333Y-82875760D02*
X93616666Y-82913855D01*
X93616666Y-82913855D02*
X93483333Y-82913855D01*
X93483333Y-82913855D02*
X93416666Y-82875760D01*
X93416666Y-82875760D02*
X93383333Y-82837664D01*
X93383333Y-82837664D02*
X93349999Y-82761474D01*
X93349999Y-82761474D02*
X93349999Y-82609093D01*
X93349999Y-82609093D02*
X93383333Y-82532902D01*
X93383333Y-82532902D02*
X93416666Y-82494807D01*
X93416666Y-82494807D02*
X93483333Y-82456712D01*
X95400000Y-84763854D02*
X95400000Y-83963854D01*
X95400000Y-83963854D02*
X95133333Y-83963854D01*
X95133333Y-83963854D02*
X95066667Y-84001949D01*
X95066667Y-84001949D02*
X95033333Y-84040044D01*
X95033333Y-84040044D02*
X95000000Y-84116235D01*
X95000000Y-84116235D02*
X95000000Y-84230520D01*
X95000000Y-84230520D02*
X95033333Y-84306711D01*
X95033333Y-84306711D02*
X95066667Y-84344806D01*
X95066667Y-84344806D02*
X95133333Y-84382901D01*
X95133333Y-84382901D02*
X95400000Y-84382901D01*
X94466667Y-84344806D02*
X94366667Y-84382901D01*
X94366667Y-84382901D02*
X94333333Y-84420997D01*
X94333333Y-84420997D02*
X94300000Y-84497187D01*
X94300000Y-84497187D02*
X94300000Y-84611473D01*
X94300000Y-84611473D02*
X94333333Y-84687663D01*
X94333333Y-84687663D02*
X94366667Y-84725759D01*
X94366667Y-84725759D02*
X94433333Y-84763854D01*
X94433333Y-84763854D02*
X94700000Y-84763854D01*
X94700000Y-84763854D02*
X94700000Y-83963854D01*
X94700000Y-83963854D02*
X94466667Y-83963854D01*
X94466667Y-83963854D02*
X94400000Y-84001949D01*
X94400000Y-84001949D02*
X94366667Y-84040044D01*
X94366667Y-84040044D02*
X94333333Y-84116235D01*
X94333333Y-84116235D02*
X94333333Y-84192425D01*
X94333333Y-84192425D02*
X94366667Y-84268616D01*
X94366667Y-84268616D02*
X94400000Y-84306711D01*
X94400000Y-84306711D02*
X94466667Y-84344806D01*
X94466667Y-84344806D02*
X94700000Y-84344806D01*
X93633333Y-84763854D02*
X94033333Y-84763854D01*
X93833333Y-84763854D02*
X93833333Y-83963854D01*
X93833333Y-83963854D02*
X93900000Y-84078139D01*
X93900000Y-84078139D02*
X93966667Y-84154330D01*
X93966667Y-84154330D02*
X94033333Y-84192425D01*
X93033333Y-84230520D02*
X93033333Y-84763854D01*
X93200000Y-83925759D02*
X93366666Y-84497187D01*
X93366666Y-84497187D02*
X92933333Y-84497187D01*
X95400000Y-86613855D02*
X95400000Y-85813855D01*
X95400000Y-85813855D02*
X95133333Y-85813855D01*
X95133333Y-85813855D02*
X95066667Y-85851950D01*
X95066667Y-85851950D02*
X95033333Y-85890045D01*
X95033333Y-85890045D02*
X95000000Y-85966236D01*
X95000000Y-85966236D02*
X95000000Y-86080521D01*
X95000000Y-86080521D02*
X95033333Y-86156712D01*
X95033333Y-86156712D02*
X95066667Y-86194807D01*
X95066667Y-86194807D02*
X95133333Y-86232902D01*
X95133333Y-86232902D02*
X95400000Y-86232902D01*
X94466667Y-86194807D02*
X94366667Y-86232902D01*
X94366667Y-86232902D02*
X94333333Y-86270998D01*
X94333333Y-86270998D02*
X94300000Y-86347188D01*
X94300000Y-86347188D02*
X94300000Y-86461474D01*
X94300000Y-86461474D02*
X94333333Y-86537664D01*
X94333333Y-86537664D02*
X94366667Y-86575760D01*
X94366667Y-86575760D02*
X94433333Y-86613855D01*
X94433333Y-86613855D02*
X94700000Y-86613855D01*
X94700000Y-86613855D02*
X94700000Y-85813855D01*
X94700000Y-85813855D02*
X94466667Y-85813855D01*
X94466667Y-85813855D02*
X94400000Y-85851950D01*
X94400000Y-85851950D02*
X94366667Y-85890045D01*
X94366667Y-85890045D02*
X94333333Y-85966236D01*
X94333333Y-85966236D02*
X94333333Y-86042426D01*
X94333333Y-86042426D02*
X94366667Y-86118617D01*
X94366667Y-86118617D02*
X94400000Y-86156712D01*
X94400000Y-86156712D02*
X94466667Y-86194807D01*
X94466667Y-86194807D02*
X94700000Y-86194807D01*
X93633333Y-86613855D02*
X94033333Y-86613855D01*
X93833333Y-86613855D02*
X93833333Y-85813855D01*
X93833333Y-85813855D02*
X93900000Y-85928140D01*
X93900000Y-85928140D02*
X93966667Y-86004331D01*
X93966667Y-86004331D02*
X94033333Y-86042426D01*
X93366666Y-85890045D02*
X93333333Y-85851950D01*
X93333333Y-85851950D02*
X93266666Y-85813855D01*
X93266666Y-85813855D02*
X93100000Y-85813855D01*
X93100000Y-85813855D02*
X93033333Y-85851950D01*
X93033333Y-85851950D02*
X93000000Y-85890045D01*
X93000000Y-85890045D02*
X92966666Y-85966236D01*
X92966666Y-85966236D02*
X92966666Y-86042426D01*
X92966666Y-86042426D02*
X93000000Y-86156712D01*
X93000000Y-86156712D02*
X93400000Y-86613855D01*
X93400000Y-86613855D02*
X92966666Y-86613855D01*
X96816667Y-69163855D02*
X96750000Y-69163855D01*
X96750000Y-69163855D02*
X96683333Y-69201950D01*
X96683333Y-69201950D02*
X96650000Y-69240045D01*
X96650000Y-69240045D02*
X96616667Y-69316236D01*
X96616667Y-69316236D02*
X96583333Y-69468617D01*
X96583333Y-69468617D02*
X96583333Y-69659093D01*
X96583333Y-69659093D02*
X96616667Y-69811474D01*
X96616667Y-69811474D02*
X96650000Y-69887664D01*
X96650000Y-69887664D02*
X96683333Y-69925760D01*
X96683333Y-69925760D02*
X96750000Y-69963855D01*
X96750000Y-69963855D02*
X96816667Y-69963855D01*
X96816667Y-69963855D02*
X96883333Y-69925760D01*
X96883333Y-69925760D02*
X96916667Y-69887664D01*
X96916667Y-69887664D02*
X96950000Y-69811474D01*
X96950000Y-69811474D02*
X96983333Y-69659093D01*
X96983333Y-69659093D02*
X96983333Y-69468617D01*
X96983333Y-69468617D02*
X96950000Y-69316236D01*
X96950000Y-69316236D02*
X96916667Y-69240045D01*
X96916667Y-69240045D02*
X96883333Y-69201950D01*
X96883333Y-69201950D02*
X96816667Y-69163855D01*
X95916666Y-69963855D02*
X96316666Y-69963855D01*
X96116666Y-69963855D02*
X96116666Y-69163855D01*
X96116666Y-69163855D02*
X96183333Y-69278140D01*
X96183333Y-69278140D02*
X96250000Y-69354331D01*
X96250000Y-69354331D02*
X96316666Y-69392426D01*
X96816667Y-71013854D02*
X96750000Y-71013854D01*
X96750000Y-71013854D02*
X96683333Y-71051949D01*
X96683333Y-71051949D02*
X96650000Y-71090044D01*
X96650000Y-71090044D02*
X96616667Y-71166235D01*
X96616667Y-71166235D02*
X96583333Y-71318616D01*
X96583333Y-71318616D02*
X96583333Y-71509092D01*
X96583333Y-71509092D02*
X96616667Y-71661473D01*
X96616667Y-71661473D02*
X96650000Y-71737663D01*
X96650000Y-71737663D02*
X96683333Y-71775759D01*
X96683333Y-71775759D02*
X96750000Y-71813854D01*
X96750000Y-71813854D02*
X96816667Y-71813854D01*
X96816667Y-71813854D02*
X96883333Y-71775759D01*
X96883333Y-71775759D02*
X96916667Y-71737663D01*
X96916667Y-71737663D02*
X96950000Y-71661473D01*
X96950000Y-71661473D02*
X96983333Y-71509092D01*
X96983333Y-71509092D02*
X96983333Y-71318616D01*
X96983333Y-71318616D02*
X96950000Y-71166235D01*
X96950000Y-71166235D02*
X96916667Y-71090044D01*
X96916667Y-71090044D02*
X96883333Y-71051949D01*
X96883333Y-71051949D02*
X96816667Y-71013854D01*
X96350000Y-71013854D02*
X95916666Y-71013854D01*
X95916666Y-71013854D02*
X96150000Y-71318616D01*
X96150000Y-71318616D02*
X96050000Y-71318616D01*
X96050000Y-71318616D02*
X95983333Y-71356711D01*
X95983333Y-71356711D02*
X95950000Y-71394806D01*
X95950000Y-71394806D02*
X95916666Y-71470997D01*
X95916666Y-71470997D02*
X95916666Y-71661473D01*
X95916666Y-71661473D02*
X95950000Y-71737663D01*
X95950000Y-71737663D02*
X95983333Y-71775759D01*
X95983333Y-71775759D02*
X96050000Y-71813854D01*
X96050000Y-71813854D02*
X96250000Y-71813854D01*
X96250000Y-71813854D02*
X96316666Y-71775759D01*
X96316666Y-71775759D02*
X96350000Y-71737663D01*
X96816667Y-72863855D02*
X96750000Y-72863855D01*
X96750000Y-72863855D02*
X96683333Y-72901950D01*
X96683333Y-72901950D02*
X96650000Y-72940045D01*
X96650000Y-72940045D02*
X96616667Y-73016236D01*
X96616667Y-73016236D02*
X96583333Y-73168617D01*
X96583333Y-73168617D02*
X96583333Y-73359093D01*
X96583333Y-73359093D02*
X96616667Y-73511474D01*
X96616667Y-73511474D02*
X96650000Y-73587664D01*
X96650000Y-73587664D02*
X96683333Y-73625760D01*
X96683333Y-73625760D02*
X96750000Y-73663855D01*
X96750000Y-73663855D02*
X96816667Y-73663855D01*
X96816667Y-73663855D02*
X96883333Y-73625760D01*
X96883333Y-73625760D02*
X96916667Y-73587664D01*
X96916667Y-73587664D02*
X96950000Y-73511474D01*
X96950000Y-73511474D02*
X96983333Y-73359093D01*
X96983333Y-73359093D02*
X96983333Y-73168617D01*
X96983333Y-73168617D02*
X96950000Y-73016236D01*
X96950000Y-73016236D02*
X96916667Y-72940045D01*
X96916667Y-72940045D02*
X96883333Y-72901950D01*
X96883333Y-72901950D02*
X96816667Y-72863855D01*
X95950000Y-72863855D02*
X96283333Y-72863855D01*
X96283333Y-72863855D02*
X96316666Y-73244807D01*
X96316666Y-73244807D02*
X96283333Y-73206712D01*
X96283333Y-73206712D02*
X96216666Y-73168617D01*
X96216666Y-73168617D02*
X96050000Y-73168617D01*
X96050000Y-73168617D02*
X95983333Y-73206712D01*
X95983333Y-73206712D02*
X95950000Y-73244807D01*
X95950000Y-73244807D02*
X95916666Y-73320998D01*
X95916666Y-73320998D02*
X95916666Y-73511474D01*
X95916666Y-73511474D02*
X95950000Y-73587664D01*
X95950000Y-73587664D02*
X95983333Y-73625760D01*
X95983333Y-73625760D02*
X96050000Y-73663855D01*
X96050000Y-73663855D02*
X96216666Y-73663855D01*
X96216666Y-73663855D02*
X96283333Y-73625760D01*
X96283333Y-73625760D02*
X96316666Y-73587664D01*
X96816667Y-74713854D02*
X96750000Y-74713854D01*
X96750000Y-74713854D02*
X96683333Y-74751949D01*
X96683333Y-74751949D02*
X96650000Y-74790044D01*
X96650000Y-74790044D02*
X96616667Y-74866235D01*
X96616667Y-74866235D02*
X96583333Y-75018616D01*
X96583333Y-75018616D02*
X96583333Y-75209092D01*
X96583333Y-75209092D02*
X96616667Y-75361473D01*
X96616667Y-75361473D02*
X96650000Y-75437663D01*
X96650000Y-75437663D02*
X96683333Y-75475759D01*
X96683333Y-75475759D02*
X96750000Y-75513854D01*
X96750000Y-75513854D02*
X96816667Y-75513854D01*
X96816667Y-75513854D02*
X96883333Y-75475759D01*
X96883333Y-75475759D02*
X96916667Y-75437663D01*
X96916667Y-75437663D02*
X96950000Y-75361473D01*
X96950000Y-75361473D02*
X96983333Y-75209092D01*
X96983333Y-75209092D02*
X96983333Y-75018616D01*
X96983333Y-75018616D02*
X96950000Y-74866235D01*
X96950000Y-74866235D02*
X96916667Y-74790044D01*
X96916667Y-74790044D02*
X96883333Y-74751949D01*
X96883333Y-74751949D02*
X96816667Y-74713854D01*
X96350000Y-74713854D02*
X95883333Y-74713854D01*
X95883333Y-74713854D02*
X96183333Y-75513854D01*
X96816667Y-76563855D02*
X96750000Y-76563855D01*
X96750000Y-76563855D02*
X96683333Y-76601950D01*
X96683333Y-76601950D02*
X96650000Y-76640045D01*
X96650000Y-76640045D02*
X96616667Y-76716236D01*
X96616667Y-76716236D02*
X96583333Y-76868617D01*
X96583333Y-76868617D02*
X96583333Y-77059093D01*
X96583333Y-77059093D02*
X96616667Y-77211474D01*
X96616667Y-77211474D02*
X96650000Y-77287664D01*
X96650000Y-77287664D02*
X96683333Y-77325760D01*
X96683333Y-77325760D02*
X96750000Y-77363855D01*
X96750000Y-77363855D02*
X96816667Y-77363855D01*
X96816667Y-77363855D02*
X96883333Y-77325760D01*
X96883333Y-77325760D02*
X96916667Y-77287664D01*
X96916667Y-77287664D02*
X96950000Y-77211474D01*
X96950000Y-77211474D02*
X96983333Y-77059093D01*
X96983333Y-77059093D02*
X96983333Y-76868617D01*
X96983333Y-76868617D02*
X96950000Y-76716236D01*
X96950000Y-76716236D02*
X96916667Y-76640045D01*
X96916667Y-76640045D02*
X96883333Y-76601950D01*
X96883333Y-76601950D02*
X96816667Y-76563855D01*
X96250000Y-77363855D02*
X96116666Y-77363855D01*
X96116666Y-77363855D02*
X96050000Y-77325760D01*
X96050000Y-77325760D02*
X96016666Y-77287664D01*
X96016666Y-77287664D02*
X95950000Y-77173379D01*
X95950000Y-77173379D02*
X95916666Y-77020998D01*
X95916666Y-77020998D02*
X95916666Y-76716236D01*
X95916666Y-76716236D02*
X95950000Y-76640045D01*
X95950000Y-76640045D02*
X95983333Y-76601950D01*
X95983333Y-76601950D02*
X96050000Y-76563855D01*
X96050000Y-76563855D02*
X96183333Y-76563855D01*
X96183333Y-76563855D02*
X96250000Y-76601950D01*
X96250000Y-76601950D02*
X96283333Y-76640045D01*
X96283333Y-76640045D02*
X96316666Y-76716236D01*
X96316666Y-76716236D02*
X96316666Y-76906712D01*
X96316666Y-76906712D02*
X96283333Y-76982902D01*
X96283333Y-76982902D02*
X96250000Y-77020998D01*
X96250000Y-77020998D02*
X96183333Y-77059093D01*
X96183333Y-77059093D02*
X96050000Y-77059093D01*
X96050000Y-77059093D02*
X95983333Y-77020998D01*
X95983333Y-77020998D02*
X95950000Y-76982902D01*
X95950000Y-76982902D02*
X95916666Y-76906712D01*
X96583333Y-79213855D02*
X96983333Y-79213855D01*
X96783333Y-79213855D02*
X96783333Y-78413855D01*
X96783333Y-78413855D02*
X96850000Y-78528140D01*
X96850000Y-78528140D02*
X96916667Y-78604331D01*
X96916667Y-78604331D02*
X96983333Y-78642426D01*
X95916666Y-79213855D02*
X96316666Y-79213855D01*
X96116666Y-79213855D02*
X96116666Y-78413855D01*
X96116666Y-78413855D02*
X96183333Y-78528140D01*
X96183333Y-78528140D02*
X96250000Y-78604331D01*
X96250000Y-78604331D02*
X96316666Y-78642426D01*
X96583333Y-81063854D02*
X96983333Y-81063854D01*
X96783333Y-81063854D02*
X96783333Y-80263854D01*
X96783333Y-80263854D02*
X96850000Y-80378139D01*
X96850000Y-80378139D02*
X96916667Y-80454330D01*
X96916667Y-80454330D02*
X96983333Y-80492425D01*
X96350000Y-80263854D02*
X95916666Y-80263854D01*
X95916666Y-80263854D02*
X96150000Y-80568616D01*
X96150000Y-80568616D02*
X96050000Y-80568616D01*
X96050000Y-80568616D02*
X95983333Y-80606711D01*
X95983333Y-80606711D02*
X95950000Y-80644806D01*
X95950000Y-80644806D02*
X95916666Y-80720997D01*
X95916666Y-80720997D02*
X95916666Y-80911473D01*
X95916666Y-80911473D02*
X95950000Y-80987663D01*
X95950000Y-80987663D02*
X95983333Y-81025759D01*
X95983333Y-81025759D02*
X96050000Y-81063854D01*
X96050000Y-81063854D02*
X96250000Y-81063854D01*
X96250000Y-81063854D02*
X96316666Y-81025759D01*
X96316666Y-81025759D02*
X96350000Y-80987663D01*
X96583333Y-82913855D02*
X96983333Y-82913855D01*
X96783333Y-82913855D02*
X96783333Y-82113855D01*
X96783333Y-82113855D02*
X96850000Y-82228140D01*
X96850000Y-82228140D02*
X96916667Y-82304331D01*
X96916667Y-82304331D02*
X96983333Y-82342426D01*
X95950000Y-82113855D02*
X96283333Y-82113855D01*
X96283333Y-82113855D02*
X96316666Y-82494807D01*
X96316666Y-82494807D02*
X96283333Y-82456712D01*
X96283333Y-82456712D02*
X96216666Y-82418617D01*
X96216666Y-82418617D02*
X96050000Y-82418617D01*
X96050000Y-82418617D02*
X95983333Y-82456712D01*
X95983333Y-82456712D02*
X95950000Y-82494807D01*
X95950000Y-82494807D02*
X95916666Y-82570998D01*
X95916666Y-82570998D02*
X95916666Y-82761474D01*
X95916666Y-82761474D02*
X95950000Y-82837664D01*
X95950000Y-82837664D02*
X95983333Y-82875760D01*
X95983333Y-82875760D02*
X96050000Y-82913855D01*
X96050000Y-82913855D02*
X96216666Y-82913855D01*
X96216666Y-82913855D02*
X96283333Y-82875760D01*
X96283333Y-82875760D02*
X96316666Y-82837664D01*
X96583333Y-84763854D02*
X96983333Y-84763854D01*
X96783333Y-84763854D02*
X96783333Y-83963854D01*
X96783333Y-83963854D02*
X96850000Y-84078139D01*
X96850000Y-84078139D02*
X96916667Y-84154330D01*
X96916667Y-84154330D02*
X96983333Y-84192425D01*
X96350000Y-83963854D02*
X95883333Y-83963854D01*
X95883333Y-83963854D02*
X96183333Y-84763854D01*
X96583333Y-86613855D02*
X96983333Y-86613855D01*
X96783333Y-86613855D02*
X96783333Y-85813855D01*
X96783333Y-85813855D02*
X96850000Y-85928140D01*
X96850000Y-85928140D02*
X96916667Y-86004331D01*
X96916667Y-86004331D02*
X96983333Y-86042426D01*
X96250000Y-86613855D02*
X96116666Y-86613855D01*
X96116666Y-86613855D02*
X96050000Y-86575760D01*
X96050000Y-86575760D02*
X96016666Y-86537664D01*
X96016666Y-86537664D02*
X95950000Y-86423379D01*
X95950000Y-86423379D02*
X95916666Y-86270998D01*
X95916666Y-86270998D02*
X95916666Y-85966236D01*
X95916666Y-85966236D02*
X95950000Y-85890045D01*
X95950000Y-85890045D02*
X95983333Y-85851950D01*
X95983333Y-85851950D02*
X96050000Y-85813855D01*
X96050000Y-85813855D02*
X96183333Y-85813855D01*
X96183333Y-85813855D02*
X96250000Y-85851950D01*
X96250000Y-85851950D02*
X96283333Y-85890045D01*
X96283333Y-85890045D02*
X96316666Y-85966236D01*
X96316666Y-85966236D02*
X96316666Y-86156712D01*
X96316666Y-86156712D02*
X96283333Y-86232902D01*
X96283333Y-86232902D02*
X96250000Y-86270998D01*
X96250000Y-86270998D02*
X96183333Y-86309093D01*
X96183333Y-86309093D02*
X96050000Y-86309093D01*
X96050000Y-86309093D02*
X95983333Y-86270998D01*
X95983333Y-86270998D02*
X95950000Y-86232902D01*
X95950000Y-86232902D02*
X95916666Y-86156712D01*
X99933331Y-69201950D02*
X99999998Y-69163855D01*
X99999998Y-69163855D02*
X100099998Y-69163855D01*
X100099998Y-69163855D02*
X100199998Y-69201950D01*
X100199998Y-69201950D02*
X100266665Y-69278140D01*
X100266665Y-69278140D02*
X100299998Y-69354331D01*
X100299998Y-69354331D02*
X100333331Y-69506712D01*
X100333331Y-69506712D02*
X100333331Y-69620998D01*
X100333331Y-69620998D02*
X100299998Y-69773379D01*
X100299998Y-69773379D02*
X100266665Y-69849569D01*
X100266665Y-69849569D02*
X100199998Y-69925760D01*
X100199998Y-69925760D02*
X100099998Y-69963855D01*
X100099998Y-69963855D02*
X100033331Y-69963855D01*
X100033331Y-69963855D02*
X99933331Y-69925760D01*
X99933331Y-69925760D02*
X99899998Y-69887664D01*
X99899998Y-69887664D02*
X99899998Y-69620998D01*
X99899998Y-69620998D02*
X100033331Y-69620998D01*
X99599998Y-69963855D02*
X99599998Y-69163855D01*
X99599998Y-69163855D02*
X99199998Y-69963855D01*
X99199998Y-69963855D02*
X99199998Y-69163855D01*
X98866665Y-69963855D02*
X98866665Y-69163855D01*
X98866665Y-69163855D02*
X98699998Y-69163855D01*
X98699998Y-69163855D02*
X98599998Y-69201950D01*
X98599998Y-69201950D02*
X98533332Y-69278140D01*
X98533332Y-69278140D02*
X98499998Y-69354331D01*
X98499998Y-69354331D02*
X98466665Y-69506712D01*
X98466665Y-69506712D02*
X98466665Y-69620998D01*
X98466665Y-69620998D02*
X98499998Y-69773379D01*
X98499998Y-69773379D02*
X98533332Y-69849569D01*
X98533332Y-69849569D02*
X98599998Y-69925760D01*
X98599998Y-69925760D02*
X98699998Y-69963855D01*
X98699998Y-69963855D02*
X98866665Y-69963855D01*
X100599999Y-71813854D02*
X100599999Y-71013854D01*
X100599999Y-71013854D02*
X100333332Y-71013854D01*
X100333332Y-71013854D02*
X100266666Y-71051949D01*
X100266666Y-71051949D02*
X100233332Y-71090044D01*
X100233332Y-71090044D02*
X100199999Y-71166235D01*
X100199999Y-71166235D02*
X100199999Y-71280520D01*
X100199999Y-71280520D02*
X100233332Y-71356711D01*
X100233332Y-71356711D02*
X100266666Y-71394806D01*
X100266666Y-71394806D02*
X100333332Y-71432901D01*
X100333332Y-71432901D02*
X100599999Y-71432901D01*
X99499999Y-71737663D02*
X99533332Y-71775759D01*
X99533332Y-71775759D02*
X99633332Y-71813854D01*
X99633332Y-71813854D02*
X99699999Y-71813854D01*
X99699999Y-71813854D02*
X99799999Y-71775759D01*
X99799999Y-71775759D02*
X99866666Y-71699568D01*
X99866666Y-71699568D02*
X99899999Y-71623378D01*
X99899999Y-71623378D02*
X99933332Y-71470997D01*
X99933332Y-71470997D02*
X99933332Y-71356711D01*
X99933332Y-71356711D02*
X99899999Y-71204330D01*
X99899999Y-71204330D02*
X99866666Y-71128139D01*
X99866666Y-71128139D02*
X99799999Y-71051949D01*
X99799999Y-71051949D02*
X99699999Y-71013854D01*
X99699999Y-71013854D02*
X99633332Y-71013854D01*
X99633332Y-71013854D02*
X99533332Y-71051949D01*
X99533332Y-71051949D02*
X99499999Y-71090044D01*
X98833332Y-71813854D02*
X99233332Y-71813854D01*
X99033332Y-71813854D02*
X99033332Y-71013854D01*
X99033332Y-71013854D02*
X99099999Y-71128139D01*
X99099999Y-71128139D02*
X99166666Y-71204330D01*
X99166666Y-71204330D02*
X99233332Y-71242425D01*
X98233332Y-71280520D02*
X98233332Y-71813854D01*
X98399999Y-70975759D02*
X98566665Y-71547187D01*
X98566665Y-71547187D02*
X98133332Y-71547187D01*
X100549998Y-73663855D02*
X100549998Y-72863855D01*
X100549998Y-72863855D02*
X100149998Y-73663855D01*
X100149998Y-73663855D02*
X100149998Y-72863855D01*
X99416665Y-73663855D02*
X99649998Y-73282902D01*
X99816665Y-73663855D02*
X99816665Y-72863855D01*
X99816665Y-72863855D02*
X99549998Y-72863855D01*
X99549998Y-72863855D02*
X99483332Y-72901950D01*
X99483332Y-72901950D02*
X99449998Y-72940045D01*
X99449998Y-72940045D02*
X99416665Y-73016236D01*
X99416665Y-73016236D02*
X99416665Y-73130521D01*
X99416665Y-73130521D02*
X99449998Y-73206712D01*
X99449998Y-73206712D02*
X99483332Y-73244807D01*
X99483332Y-73244807D02*
X99549998Y-73282902D01*
X99549998Y-73282902D02*
X99816665Y-73282902D01*
X99149998Y-73625760D02*
X99049998Y-73663855D01*
X99049998Y-73663855D02*
X98883332Y-73663855D01*
X98883332Y-73663855D02*
X98816665Y-73625760D01*
X98816665Y-73625760D02*
X98783332Y-73587664D01*
X98783332Y-73587664D02*
X98749998Y-73511474D01*
X98749998Y-73511474D02*
X98749998Y-73435283D01*
X98749998Y-73435283D02*
X98783332Y-73359093D01*
X98783332Y-73359093D02*
X98816665Y-73320998D01*
X98816665Y-73320998D02*
X98883332Y-73282902D01*
X98883332Y-73282902D02*
X99016665Y-73244807D01*
X99016665Y-73244807D02*
X99083332Y-73206712D01*
X99083332Y-73206712D02*
X99116665Y-73168617D01*
X99116665Y-73168617D02*
X99149998Y-73092426D01*
X99149998Y-73092426D02*
X99149998Y-73016236D01*
X99149998Y-73016236D02*
X99116665Y-72940045D01*
X99116665Y-72940045D02*
X99083332Y-72901950D01*
X99083332Y-72901950D02*
X99016665Y-72863855D01*
X99016665Y-72863855D02*
X98849998Y-72863855D01*
X98849998Y-72863855D02*
X98749998Y-72901950D01*
X98549998Y-72863855D02*
X98149998Y-72863855D01*
X98349998Y-73663855D02*
X98349998Y-72863855D01*
X100216665Y-75513854D02*
X100216665Y-74713854D01*
X100216665Y-74713854D02*
X99949998Y-74713854D01*
X99949998Y-74713854D02*
X99883332Y-74751949D01*
X99883332Y-74751949D02*
X99849998Y-74790044D01*
X99849998Y-74790044D02*
X99816665Y-74866235D01*
X99816665Y-74866235D02*
X99816665Y-74980520D01*
X99816665Y-74980520D02*
X99849998Y-75056711D01*
X99849998Y-75056711D02*
X99883332Y-75094806D01*
X99883332Y-75094806D02*
X99949998Y-75132901D01*
X99949998Y-75132901D02*
X100216665Y-75132901D01*
X99549998Y-75285282D02*
X99216665Y-75285282D01*
X99616665Y-75513854D02*
X99383332Y-74713854D01*
X99383332Y-74713854D02*
X99149998Y-75513854D01*
X98549998Y-75513854D02*
X98949998Y-75513854D01*
X98749998Y-75513854D02*
X98749998Y-74713854D01*
X98749998Y-74713854D02*
X98816665Y-74828139D01*
X98816665Y-74828139D02*
X98883332Y-74904330D01*
X98883332Y-74904330D02*
X98949998Y-74942425D01*
X100216665Y-77363855D02*
X100216665Y-76563855D01*
X100216665Y-76563855D02*
X99949998Y-76563855D01*
X99949998Y-76563855D02*
X99883332Y-76601950D01*
X99883332Y-76601950D02*
X99849998Y-76640045D01*
X99849998Y-76640045D02*
X99816665Y-76716236D01*
X99816665Y-76716236D02*
X99816665Y-76830521D01*
X99816665Y-76830521D02*
X99849998Y-76906712D01*
X99849998Y-76906712D02*
X99883332Y-76944807D01*
X99883332Y-76944807D02*
X99949998Y-76982902D01*
X99949998Y-76982902D02*
X100216665Y-76982902D01*
X99549998Y-77135283D02*
X99216665Y-77135283D01*
X99616665Y-77363855D02*
X99383332Y-76563855D01*
X99383332Y-76563855D02*
X99149998Y-77363855D01*
X98983332Y-76563855D02*
X98549998Y-76563855D01*
X98549998Y-76563855D02*
X98783332Y-76868617D01*
X98783332Y-76868617D02*
X98683332Y-76868617D01*
X98683332Y-76868617D02*
X98616665Y-76906712D01*
X98616665Y-76906712D02*
X98583332Y-76944807D01*
X98583332Y-76944807D02*
X98549998Y-77020998D01*
X98549998Y-77020998D02*
X98549998Y-77211474D01*
X98549998Y-77211474D02*
X98583332Y-77287664D01*
X98583332Y-77287664D02*
X98616665Y-77325760D01*
X98616665Y-77325760D02*
X98683332Y-77363855D01*
X98683332Y-77363855D02*
X98883332Y-77363855D01*
X98883332Y-77363855D02*
X98949998Y-77325760D01*
X98949998Y-77325760D02*
X98983332Y-77287664D01*
X100216665Y-79213855D02*
X100216665Y-78413855D01*
X100216665Y-78413855D02*
X99949998Y-78413855D01*
X99949998Y-78413855D02*
X99883332Y-78451950D01*
X99883332Y-78451950D02*
X99849998Y-78490045D01*
X99849998Y-78490045D02*
X99816665Y-78566236D01*
X99816665Y-78566236D02*
X99816665Y-78680521D01*
X99816665Y-78680521D02*
X99849998Y-78756712D01*
X99849998Y-78756712D02*
X99883332Y-78794807D01*
X99883332Y-78794807D02*
X99949998Y-78832902D01*
X99949998Y-78832902D02*
X100216665Y-78832902D01*
X99549998Y-78985283D02*
X99216665Y-78985283D01*
X99616665Y-79213855D02*
X99383332Y-78413855D01*
X99383332Y-78413855D02*
X99149998Y-79213855D01*
X98583332Y-78413855D02*
X98916665Y-78413855D01*
X98916665Y-78413855D02*
X98949998Y-78794807D01*
X98949998Y-78794807D02*
X98916665Y-78756712D01*
X98916665Y-78756712D02*
X98849998Y-78718617D01*
X98849998Y-78718617D02*
X98683332Y-78718617D01*
X98683332Y-78718617D02*
X98616665Y-78756712D01*
X98616665Y-78756712D02*
X98583332Y-78794807D01*
X98583332Y-78794807D02*
X98549998Y-78870998D01*
X98549998Y-78870998D02*
X98549998Y-79061474D01*
X98549998Y-79061474D02*
X98583332Y-79137664D01*
X98583332Y-79137664D02*
X98616665Y-79175760D01*
X98616665Y-79175760D02*
X98683332Y-79213855D01*
X98683332Y-79213855D02*
X98849998Y-79213855D01*
X98849998Y-79213855D02*
X98916665Y-79175760D01*
X98916665Y-79175760D02*
X98949998Y-79137664D01*
X100216665Y-81063854D02*
X100216665Y-80263854D01*
X100216665Y-80263854D02*
X99949998Y-80263854D01*
X99949998Y-80263854D02*
X99883332Y-80301949D01*
X99883332Y-80301949D02*
X99849998Y-80340044D01*
X99849998Y-80340044D02*
X99816665Y-80416235D01*
X99816665Y-80416235D02*
X99816665Y-80530520D01*
X99816665Y-80530520D02*
X99849998Y-80606711D01*
X99849998Y-80606711D02*
X99883332Y-80644806D01*
X99883332Y-80644806D02*
X99949998Y-80682901D01*
X99949998Y-80682901D02*
X100216665Y-80682901D01*
X99549998Y-80835282D02*
X99216665Y-80835282D01*
X99616665Y-81063854D02*
X99383332Y-80263854D01*
X99383332Y-80263854D02*
X99149998Y-81063854D01*
X98983332Y-80263854D02*
X98516665Y-80263854D01*
X98516665Y-80263854D02*
X98816665Y-81063854D01*
X100266665Y-82913855D02*
X100266665Y-82113855D01*
X100266665Y-82113855D02*
X99999998Y-82113855D01*
X99999998Y-82113855D02*
X99933332Y-82151950D01*
X99933332Y-82151950D02*
X99899998Y-82190045D01*
X99899998Y-82190045D02*
X99866665Y-82266236D01*
X99866665Y-82266236D02*
X99866665Y-82380521D01*
X99866665Y-82380521D02*
X99899998Y-82456712D01*
X99899998Y-82456712D02*
X99933332Y-82494807D01*
X99933332Y-82494807D02*
X99999998Y-82532902D01*
X99999998Y-82532902D02*
X100266665Y-82532902D01*
X99333332Y-82494807D02*
X99233332Y-82532902D01*
X99233332Y-82532902D02*
X99199998Y-82570998D01*
X99199998Y-82570998D02*
X99166665Y-82647188D01*
X99166665Y-82647188D02*
X99166665Y-82761474D01*
X99166665Y-82761474D02*
X99199998Y-82837664D01*
X99199998Y-82837664D02*
X99233332Y-82875760D01*
X99233332Y-82875760D02*
X99299998Y-82913855D01*
X99299998Y-82913855D02*
X99566665Y-82913855D01*
X99566665Y-82913855D02*
X99566665Y-82113855D01*
X99566665Y-82113855D02*
X99333332Y-82113855D01*
X99333332Y-82113855D02*
X99266665Y-82151950D01*
X99266665Y-82151950D02*
X99233332Y-82190045D01*
X99233332Y-82190045D02*
X99199998Y-82266236D01*
X99199998Y-82266236D02*
X99199998Y-82342426D01*
X99199998Y-82342426D02*
X99233332Y-82418617D01*
X99233332Y-82418617D02*
X99266665Y-82456712D01*
X99266665Y-82456712D02*
X99333332Y-82494807D01*
X99333332Y-82494807D02*
X99566665Y-82494807D01*
X98499998Y-82913855D02*
X98899998Y-82913855D01*
X98699998Y-82913855D02*
X98699998Y-82113855D01*
X98699998Y-82113855D02*
X98766665Y-82228140D01*
X98766665Y-82228140D02*
X98833332Y-82304331D01*
X98833332Y-82304331D02*
X98899998Y-82342426D01*
X100599999Y-84763854D02*
X100599999Y-83963854D01*
X100599999Y-83963854D02*
X100333332Y-83963854D01*
X100333332Y-83963854D02*
X100266666Y-84001949D01*
X100266666Y-84001949D02*
X100233332Y-84040044D01*
X100233332Y-84040044D02*
X100199999Y-84116235D01*
X100199999Y-84116235D02*
X100199999Y-84230520D01*
X100199999Y-84230520D02*
X100233332Y-84306711D01*
X100233332Y-84306711D02*
X100266666Y-84344806D01*
X100266666Y-84344806D02*
X100333332Y-84382901D01*
X100333332Y-84382901D02*
X100599999Y-84382901D01*
X99666666Y-84344806D02*
X99566666Y-84382901D01*
X99566666Y-84382901D02*
X99533332Y-84420997D01*
X99533332Y-84420997D02*
X99499999Y-84497187D01*
X99499999Y-84497187D02*
X99499999Y-84611473D01*
X99499999Y-84611473D02*
X99533332Y-84687663D01*
X99533332Y-84687663D02*
X99566666Y-84725759D01*
X99566666Y-84725759D02*
X99633332Y-84763854D01*
X99633332Y-84763854D02*
X99899999Y-84763854D01*
X99899999Y-84763854D02*
X99899999Y-83963854D01*
X99899999Y-83963854D02*
X99666666Y-83963854D01*
X99666666Y-83963854D02*
X99599999Y-84001949D01*
X99599999Y-84001949D02*
X99566666Y-84040044D01*
X99566666Y-84040044D02*
X99533332Y-84116235D01*
X99533332Y-84116235D02*
X99533332Y-84192425D01*
X99533332Y-84192425D02*
X99566666Y-84268616D01*
X99566666Y-84268616D02*
X99599999Y-84306711D01*
X99599999Y-84306711D02*
X99666666Y-84344806D01*
X99666666Y-84344806D02*
X99899999Y-84344806D01*
X98833332Y-84763854D02*
X99233332Y-84763854D01*
X99033332Y-84763854D02*
X99033332Y-83963854D01*
X99033332Y-83963854D02*
X99099999Y-84078139D01*
X99099999Y-84078139D02*
X99166666Y-84154330D01*
X99166666Y-84154330D02*
X99233332Y-84192425D01*
X98399999Y-83963854D02*
X98333332Y-83963854D01*
X98333332Y-83963854D02*
X98266665Y-84001949D01*
X98266665Y-84001949D02*
X98233332Y-84040044D01*
X98233332Y-84040044D02*
X98199999Y-84116235D01*
X98199999Y-84116235D02*
X98166665Y-84268616D01*
X98166665Y-84268616D02*
X98166665Y-84459092D01*
X98166665Y-84459092D02*
X98199999Y-84611473D01*
X98199999Y-84611473D02*
X98233332Y-84687663D01*
X98233332Y-84687663D02*
X98266665Y-84725759D01*
X98266665Y-84725759D02*
X98333332Y-84763854D01*
X98333332Y-84763854D02*
X98399999Y-84763854D01*
X98399999Y-84763854D02*
X98466665Y-84725759D01*
X98466665Y-84725759D02*
X98499999Y-84687663D01*
X98499999Y-84687663D02*
X98533332Y-84611473D01*
X98533332Y-84611473D02*
X98566665Y-84459092D01*
X98566665Y-84459092D02*
X98566665Y-84268616D01*
X98566665Y-84268616D02*
X98533332Y-84116235D01*
X98533332Y-84116235D02*
X98499999Y-84040044D01*
X98499999Y-84040044D02*
X98466665Y-84001949D01*
X98466665Y-84001949D02*
X98399999Y-83963854D01*
X99933331Y-85851950D02*
X99999998Y-85813855D01*
X99999998Y-85813855D02*
X100099998Y-85813855D01*
X100099998Y-85813855D02*
X100199998Y-85851950D01*
X100199998Y-85851950D02*
X100266665Y-85928140D01*
X100266665Y-85928140D02*
X100299998Y-86004331D01*
X100299998Y-86004331D02*
X100333331Y-86156712D01*
X100333331Y-86156712D02*
X100333331Y-86270998D01*
X100333331Y-86270998D02*
X100299998Y-86423379D01*
X100299998Y-86423379D02*
X100266665Y-86499569D01*
X100266665Y-86499569D02*
X100199998Y-86575760D01*
X100199998Y-86575760D02*
X100099998Y-86613855D01*
X100099998Y-86613855D02*
X100033331Y-86613855D01*
X100033331Y-86613855D02*
X99933331Y-86575760D01*
X99933331Y-86575760D02*
X99899998Y-86537664D01*
X99899998Y-86537664D02*
X99899998Y-86270998D01*
X99899998Y-86270998D02*
X100033331Y-86270998D01*
X99599998Y-86613855D02*
X99599998Y-85813855D01*
X99599998Y-85813855D02*
X99199998Y-86613855D01*
X99199998Y-86613855D02*
X99199998Y-85813855D01*
X98866665Y-86613855D02*
X98866665Y-85813855D01*
X98866665Y-85813855D02*
X98699998Y-85813855D01*
X98699998Y-85813855D02*
X98599998Y-85851950D01*
X98599998Y-85851950D02*
X98533332Y-85928140D01*
X98533332Y-85928140D02*
X98499998Y-86004331D01*
X98499998Y-86004331D02*
X98466665Y-86156712D01*
X98466665Y-86156712D02*
X98466665Y-86270998D01*
X98466665Y-86270998D02*
X98499998Y-86423379D01*
X98499998Y-86423379D02*
X98533332Y-86499569D01*
X98533332Y-86499569D02*
X98599998Y-86575760D01*
X98599998Y-86575760D02*
X98699998Y-86613855D01*
X98699998Y-86613855D02*
X98866665Y-86613855D01*
X102016666Y-69163855D02*
X101949999Y-69163855D01*
X101949999Y-69163855D02*
X101883332Y-69201950D01*
X101883332Y-69201950D02*
X101849999Y-69240045D01*
X101849999Y-69240045D02*
X101816666Y-69316236D01*
X101816666Y-69316236D02*
X101783332Y-69468617D01*
X101783332Y-69468617D02*
X101783332Y-69659093D01*
X101783332Y-69659093D02*
X101816666Y-69811474D01*
X101816666Y-69811474D02*
X101849999Y-69887664D01*
X101849999Y-69887664D02*
X101883332Y-69925760D01*
X101883332Y-69925760D02*
X101949999Y-69963855D01*
X101949999Y-69963855D02*
X102016666Y-69963855D01*
X102016666Y-69963855D02*
X102083332Y-69925760D01*
X102083332Y-69925760D02*
X102116666Y-69887664D01*
X102116666Y-69887664D02*
X102149999Y-69811474D01*
X102149999Y-69811474D02*
X102183332Y-69659093D01*
X102183332Y-69659093D02*
X102183332Y-69468617D01*
X102183332Y-69468617D02*
X102149999Y-69316236D01*
X102149999Y-69316236D02*
X102116666Y-69240045D01*
X102116666Y-69240045D02*
X102083332Y-69201950D01*
X102083332Y-69201950D02*
X102016666Y-69163855D01*
X101516665Y-69240045D02*
X101483332Y-69201950D01*
X101483332Y-69201950D02*
X101416665Y-69163855D01*
X101416665Y-69163855D02*
X101249999Y-69163855D01*
X101249999Y-69163855D02*
X101183332Y-69201950D01*
X101183332Y-69201950D02*
X101149999Y-69240045D01*
X101149999Y-69240045D02*
X101116665Y-69316236D01*
X101116665Y-69316236D02*
X101116665Y-69392426D01*
X101116665Y-69392426D02*
X101149999Y-69506712D01*
X101149999Y-69506712D02*
X101549999Y-69963855D01*
X101549999Y-69963855D02*
X101116665Y-69963855D01*
X102016666Y-71013854D02*
X101949999Y-71013854D01*
X101949999Y-71013854D02*
X101883332Y-71051949D01*
X101883332Y-71051949D02*
X101849999Y-71090044D01*
X101849999Y-71090044D02*
X101816666Y-71166235D01*
X101816666Y-71166235D02*
X101783332Y-71318616D01*
X101783332Y-71318616D02*
X101783332Y-71509092D01*
X101783332Y-71509092D02*
X101816666Y-71661473D01*
X101816666Y-71661473D02*
X101849999Y-71737663D01*
X101849999Y-71737663D02*
X101883332Y-71775759D01*
X101883332Y-71775759D02*
X101949999Y-71813854D01*
X101949999Y-71813854D02*
X102016666Y-71813854D01*
X102016666Y-71813854D02*
X102083332Y-71775759D01*
X102083332Y-71775759D02*
X102116666Y-71737663D01*
X102116666Y-71737663D02*
X102149999Y-71661473D01*
X102149999Y-71661473D02*
X102183332Y-71509092D01*
X102183332Y-71509092D02*
X102183332Y-71318616D01*
X102183332Y-71318616D02*
X102149999Y-71166235D01*
X102149999Y-71166235D02*
X102116666Y-71090044D01*
X102116666Y-71090044D02*
X102083332Y-71051949D01*
X102083332Y-71051949D02*
X102016666Y-71013854D01*
X101183332Y-71280520D02*
X101183332Y-71813854D01*
X101349999Y-70975759D02*
X101516665Y-71547187D01*
X101516665Y-71547187D02*
X101083332Y-71547187D01*
X102016666Y-72863855D02*
X101949999Y-72863855D01*
X101949999Y-72863855D02*
X101883332Y-72901950D01*
X101883332Y-72901950D02*
X101849999Y-72940045D01*
X101849999Y-72940045D02*
X101816666Y-73016236D01*
X101816666Y-73016236D02*
X101783332Y-73168617D01*
X101783332Y-73168617D02*
X101783332Y-73359093D01*
X101783332Y-73359093D02*
X101816666Y-73511474D01*
X101816666Y-73511474D02*
X101849999Y-73587664D01*
X101849999Y-73587664D02*
X101883332Y-73625760D01*
X101883332Y-73625760D02*
X101949999Y-73663855D01*
X101949999Y-73663855D02*
X102016666Y-73663855D01*
X102016666Y-73663855D02*
X102083332Y-73625760D01*
X102083332Y-73625760D02*
X102116666Y-73587664D01*
X102116666Y-73587664D02*
X102149999Y-73511474D01*
X102149999Y-73511474D02*
X102183332Y-73359093D01*
X102183332Y-73359093D02*
X102183332Y-73168617D01*
X102183332Y-73168617D02*
X102149999Y-73016236D01*
X102149999Y-73016236D02*
X102116666Y-72940045D01*
X102116666Y-72940045D02*
X102083332Y-72901950D01*
X102083332Y-72901950D02*
X102016666Y-72863855D01*
X101183332Y-72863855D02*
X101316665Y-72863855D01*
X101316665Y-72863855D02*
X101383332Y-72901950D01*
X101383332Y-72901950D02*
X101416665Y-72940045D01*
X101416665Y-72940045D02*
X101483332Y-73054331D01*
X101483332Y-73054331D02*
X101516665Y-73206712D01*
X101516665Y-73206712D02*
X101516665Y-73511474D01*
X101516665Y-73511474D02*
X101483332Y-73587664D01*
X101483332Y-73587664D02*
X101449999Y-73625760D01*
X101449999Y-73625760D02*
X101383332Y-73663855D01*
X101383332Y-73663855D02*
X101249999Y-73663855D01*
X101249999Y-73663855D02*
X101183332Y-73625760D01*
X101183332Y-73625760D02*
X101149999Y-73587664D01*
X101149999Y-73587664D02*
X101116665Y-73511474D01*
X101116665Y-73511474D02*
X101116665Y-73320998D01*
X101116665Y-73320998D02*
X101149999Y-73244807D01*
X101149999Y-73244807D02*
X101183332Y-73206712D01*
X101183332Y-73206712D02*
X101249999Y-73168617D01*
X101249999Y-73168617D02*
X101383332Y-73168617D01*
X101383332Y-73168617D02*
X101449999Y-73206712D01*
X101449999Y-73206712D02*
X101483332Y-73244807D01*
X101483332Y-73244807D02*
X101516665Y-73320998D01*
X102016666Y-74713854D02*
X101949999Y-74713854D01*
X101949999Y-74713854D02*
X101883332Y-74751949D01*
X101883332Y-74751949D02*
X101849999Y-74790044D01*
X101849999Y-74790044D02*
X101816666Y-74866235D01*
X101816666Y-74866235D02*
X101783332Y-75018616D01*
X101783332Y-75018616D02*
X101783332Y-75209092D01*
X101783332Y-75209092D02*
X101816666Y-75361473D01*
X101816666Y-75361473D02*
X101849999Y-75437663D01*
X101849999Y-75437663D02*
X101883332Y-75475759D01*
X101883332Y-75475759D02*
X101949999Y-75513854D01*
X101949999Y-75513854D02*
X102016666Y-75513854D01*
X102016666Y-75513854D02*
X102083332Y-75475759D01*
X102083332Y-75475759D02*
X102116666Y-75437663D01*
X102116666Y-75437663D02*
X102149999Y-75361473D01*
X102149999Y-75361473D02*
X102183332Y-75209092D01*
X102183332Y-75209092D02*
X102183332Y-75018616D01*
X102183332Y-75018616D02*
X102149999Y-74866235D01*
X102149999Y-74866235D02*
X102116666Y-74790044D01*
X102116666Y-74790044D02*
X102083332Y-74751949D01*
X102083332Y-74751949D02*
X102016666Y-74713854D01*
X101383332Y-75056711D02*
X101449999Y-75018616D01*
X101449999Y-75018616D02*
X101483332Y-74980520D01*
X101483332Y-74980520D02*
X101516665Y-74904330D01*
X101516665Y-74904330D02*
X101516665Y-74866235D01*
X101516665Y-74866235D02*
X101483332Y-74790044D01*
X101483332Y-74790044D02*
X101449999Y-74751949D01*
X101449999Y-74751949D02*
X101383332Y-74713854D01*
X101383332Y-74713854D02*
X101249999Y-74713854D01*
X101249999Y-74713854D02*
X101183332Y-74751949D01*
X101183332Y-74751949D02*
X101149999Y-74790044D01*
X101149999Y-74790044D02*
X101116665Y-74866235D01*
X101116665Y-74866235D02*
X101116665Y-74904330D01*
X101116665Y-74904330D02*
X101149999Y-74980520D01*
X101149999Y-74980520D02*
X101183332Y-75018616D01*
X101183332Y-75018616D02*
X101249999Y-75056711D01*
X101249999Y-75056711D02*
X101383332Y-75056711D01*
X101383332Y-75056711D02*
X101449999Y-75094806D01*
X101449999Y-75094806D02*
X101483332Y-75132901D01*
X101483332Y-75132901D02*
X101516665Y-75209092D01*
X101516665Y-75209092D02*
X101516665Y-75361473D01*
X101516665Y-75361473D02*
X101483332Y-75437663D01*
X101483332Y-75437663D02*
X101449999Y-75475759D01*
X101449999Y-75475759D02*
X101383332Y-75513854D01*
X101383332Y-75513854D02*
X101249999Y-75513854D01*
X101249999Y-75513854D02*
X101183332Y-75475759D01*
X101183332Y-75475759D02*
X101149999Y-75437663D01*
X101149999Y-75437663D02*
X101116665Y-75361473D01*
X101116665Y-75361473D02*
X101116665Y-75209092D01*
X101116665Y-75209092D02*
X101149999Y-75132901D01*
X101149999Y-75132901D02*
X101183332Y-75094806D01*
X101183332Y-75094806D02*
X101249999Y-75056711D01*
X101783332Y-77363855D02*
X102183332Y-77363855D01*
X101983332Y-77363855D02*
X101983332Y-76563855D01*
X101983332Y-76563855D02*
X102049999Y-76678140D01*
X102049999Y-76678140D02*
X102116666Y-76754331D01*
X102116666Y-76754331D02*
X102183332Y-76792426D01*
X101349999Y-76563855D02*
X101283332Y-76563855D01*
X101283332Y-76563855D02*
X101216665Y-76601950D01*
X101216665Y-76601950D02*
X101183332Y-76640045D01*
X101183332Y-76640045D02*
X101149999Y-76716236D01*
X101149999Y-76716236D02*
X101116665Y-76868617D01*
X101116665Y-76868617D02*
X101116665Y-77059093D01*
X101116665Y-77059093D02*
X101149999Y-77211474D01*
X101149999Y-77211474D02*
X101183332Y-77287664D01*
X101183332Y-77287664D02*
X101216665Y-77325760D01*
X101216665Y-77325760D02*
X101283332Y-77363855D01*
X101283332Y-77363855D02*
X101349999Y-77363855D01*
X101349999Y-77363855D02*
X101416665Y-77325760D01*
X101416665Y-77325760D02*
X101449999Y-77287664D01*
X101449999Y-77287664D02*
X101483332Y-77211474D01*
X101483332Y-77211474D02*
X101516665Y-77059093D01*
X101516665Y-77059093D02*
X101516665Y-76868617D01*
X101516665Y-76868617D02*
X101483332Y-76716236D01*
X101483332Y-76716236D02*
X101449999Y-76640045D01*
X101449999Y-76640045D02*
X101416665Y-76601950D01*
X101416665Y-76601950D02*
X101349999Y-76563855D01*
X101783332Y-79213855D02*
X102183332Y-79213855D01*
X101983332Y-79213855D02*
X101983332Y-78413855D01*
X101983332Y-78413855D02*
X102049999Y-78528140D01*
X102049999Y-78528140D02*
X102116666Y-78604331D01*
X102116666Y-78604331D02*
X102183332Y-78642426D01*
X101516665Y-78490045D02*
X101483332Y-78451950D01*
X101483332Y-78451950D02*
X101416665Y-78413855D01*
X101416665Y-78413855D02*
X101249999Y-78413855D01*
X101249999Y-78413855D02*
X101183332Y-78451950D01*
X101183332Y-78451950D02*
X101149999Y-78490045D01*
X101149999Y-78490045D02*
X101116665Y-78566236D01*
X101116665Y-78566236D02*
X101116665Y-78642426D01*
X101116665Y-78642426D02*
X101149999Y-78756712D01*
X101149999Y-78756712D02*
X101549999Y-79213855D01*
X101549999Y-79213855D02*
X101116665Y-79213855D01*
X101783332Y-81063854D02*
X102183332Y-81063854D01*
X101983332Y-81063854D02*
X101983332Y-80263854D01*
X101983332Y-80263854D02*
X102049999Y-80378139D01*
X102049999Y-80378139D02*
X102116666Y-80454330D01*
X102116666Y-80454330D02*
X102183332Y-80492425D01*
X101183332Y-80530520D02*
X101183332Y-81063854D01*
X101349999Y-80225759D02*
X101516665Y-80797187D01*
X101516665Y-80797187D02*
X101083332Y-80797187D01*
X101783332Y-82913855D02*
X102183332Y-82913855D01*
X101983332Y-82913855D02*
X101983332Y-82113855D01*
X101983332Y-82113855D02*
X102049999Y-82228140D01*
X102049999Y-82228140D02*
X102116666Y-82304331D01*
X102116666Y-82304331D02*
X102183332Y-82342426D01*
X101183332Y-82113855D02*
X101316665Y-82113855D01*
X101316665Y-82113855D02*
X101383332Y-82151950D01*
X101383332Y-82151950D02*
X101416665Y-82190045D01*
X101416665Y-82190045D02*
X101483332Y-82304331D01*
X101483332Y-82304331D02*
X101516665Y-82456712D01*
X101516665Y-82456712D02*
X101516665Y-82761474D01*
X101516665Y-82761474D02*
X101483332Y-82837664D01*
X101483332Y-82837664D02*
X101449999Y-82875760D01*
X101449999Y-82875760D02*
X101383332Y-82913855D01*
X101383332Y-82913855D02*
X101249999Y-82913855D01*
X101249999Y-82913855D02*
X101183332Y-82875760D01*
X101183332Y-82875760D02*
X101149999Y-82837664D01*
X101149999Y-82837664D02*
X101116665Y-82761474D01*
X101116665Y-82761474D02*
X101116665Y-82570998D01*
X101116665Y-82570998D02*
X101149999Y-82494807D01*
X101149999Y-82494807D02*
X101183332Y-82456712D01*
X101183332Y-82456712D02*
X101249999Y-82418617D01*
X101249999Y-82418617D02*
X101383332Y-82418617D01*
X101383332Y-82418617D02*
X101449999Y-82456712D01*
X101449999Y-82456712D02*
X101483332Y-82494807D01*
X101483332Y-82494807D02*
X101516665Y-82570998D01*
X101783332Y-84763854D02*
X102183332Y-84763854D01*
X101983332Y-84763854D02*
X101983332Y-83963854D01*
X101983332Y-83963854D02*
X102049999Y-84078139D01*
X102049999Y-84078139D02*
X102116666Y-84154330D01*
X102116666Y-84154330D02*
X102183332Y-84192425D01*
X101383332Y-84306711D02*
X101449999Y-84268616D01*
X101449999Y-84268616D02*
X101483332Y-84230520D01*
X101483332Y-84230520D02*
X101516665Y-84154330D01*
X101516665Y-84154330D02*
X101516665Y-84116235D01*
X101516665Y-84116235D02*
X101483332Y-84040044D01*
X101483332Y-84040044D02*
X101449999Y-84001949D01*
X101449999Y-84001949D02*
X101383332Y-83963854D01*
X101383332Y-83963854D02*
X101249999Y-83963854D01*
X101249999Y-83963854D02*
X101183332Y-84001949D01*
X101183332Y-84001949D02*
X101149999Y-84040044D01*
X101149999Y-84040044D02*
X101116665Y-84116235D01*
X101116665Y-84116235D02*
X101116665Y-84154330D01*
X101116665Y-84154330D02*
X101149999Y-84230520D01*
X101149999Y-84230520D02*
X101183332Y-84268616D01*
X101183332Y-84268616D02*
X101249999Y-84306711D01*
X101249999Y-84306711D02*
X101383332Y-84306711D01*
X101383332Y-84306711D02*
X101449999Y-84344806D01*
X101449999Y-84344806D02*
X101483332Y-84382901D01*
X101483332Y-84382901D02*
X101516665Y-84459092D01*
X101516665Y-84459092D02*
X101516665Y-84611473D01*
X101516665Y-84611473D02*
X101483332Y-84687663D01*
X101483332Y-84687663D02*
X101449999Y-84725759D01*
X101449999Y-84725759D02*
X101383332Y-84763854D01*
X101383332Y-84763854D02*
X101249999Y-84763854D01*
X101249999Y-84763854D02*
X101183332Y-84725759D01*
X101183332Y-84725759D02*
X101149999Y-84687663D01*
X101149999Y-84687663D02*
X101116665Y-84611473D01*
X101116665Y-84611473D02*
X101116665Y-84459092D01*
X101116665Y-84459092D02*
X101149999Y-84382901D01*
X101149999Y-84382901D02*
X101183332Y-84344806D01*
X101183332Y-84344806D02*
X101249999Y-84306711D01*
X102183332Y-85890045D02*
X102149999Y-85851950D01*
X102149999Y-85851950D02*
X102083332Y-85813855D01*
X102083332Y-85813855D02*
X101916666Y-85813855D01*
X101916666Y-85813855D02*
X101849999Y-85851950D01*
X101849999Y-85851950D02*
X101816666Y-85890045D01*
X101816666Y-85890045D02*
X101783332Y-85966236D01*
X101783332Y-85966236D02*
X101783332Y-86042426D01*
X101783332Y-86042426D02*
X101816666Y-86156712D01*
X101816666Y-86156712D02*
X102216666Y-86613855D01*
X102216666Y-86613855D02*
X101783332Y-86613855D01*
X101349999Y-85813855D02*
X101283332Y-85813855D01*
X101283332Y-85813855D02*
X101216665Y-85851950D01*
X101216665Y-85851950D02*
X101183332Y-85890045D01*
X101183332Y-85890045D02*
X101149999Y-85966236D01*
X101149999Y-85966236D02*
X101116665Y-86118617D01*
X101116665Y-86118617D02*
X101116665Y-86309093D01*
X101116665Y-86309093D02*
X101149999Y-86461474D01*
X101149999Y-86461474D02*
X101183332Y-86537664D01*
X101183332Y-86537664D02*
X101216665Y-86575760D01*
X101216665Y-86575760D02*
X101283332Y-86613855D01*
X101283332Y-86613855D02*
X101349999Y-86613855D01*
X101349999Y-86613855D02*
X101416665Y-86575760D01*
X101416665Y-86575760D02*
X101449999Y-86537664D01*
X101449999Y-86537664D02*
X101483332Y-86461474D01*
X101483332Y-86461474D02*
X101516665Y-86309093D01*
X101516665Y-86309093D02*
X101516665Y-86118617D01*
X101516665Y-86118617D02*
X101483332Y-85966236D01*
X101483332Y-85966236D02*
X101449999Y-85890045D01*
X101449999Y-85890045D02*
X101416665Y-85851950D01*
X101416665Y-85851950D02*
X101349999Y-85813855D01*
X104766666Y-69163855D02*
X104333332Y-69163855D01*
X104333332Y-69163855D02*
X104566666Y-69468617D01*
X104566666Y-69468617D02*
X104466666Y-69468617D01*
X104466666Y-69468617D02*
X104399999Y-69506712D01*
X104399999Y-69506712D02*
X104366666Y-69544807D01*
X104366666Y-69544807D02*
X104333332Y-69620998D01*
X104333332Y-69620998D02*
X104333332Y-69811474D01*
X104333332Y-69811474D02*
X104366666Y-69887664D01*
X104366666Y-69887664D02*
X104399999Y-69925760D01*
X104399999Y-69925760D02*
X104466666Y-69963855D01*
X104466666Y-69963855D02*
X104666666Y-69963855D01*
X104666666Y-69963855D02*
X104733332Y-69925760D01*
X104733332Y-69925760D02*
X104766666Y-69887664D01*
X104133332Y-69163855D02*
X103899999Y-69963855D01*
X103899999Y-69963855D02*
X103666665Y-69163855D01*
X103499999Y-69163855D02*
X103066665Y-69163855D01*
X103066665Y-69163855D02*
X103299999Y-69468617D01*
X103299999Y-69468617D02*
X103199999Y-69468617D01*
X103199999Y-69468617D02*
X103133332Y-69506712D01*
X103133332Y-69506712D02*
X103099999Y-69544807D01*
X103099999Y-69544807D02*
X103066665Y-69620998D01*
X103066665Y-69620998D02*
X103066665Y-69811474D01*
X103066665Y-69811474D02*
X103099999Y-69887664D01*
X103099999Y-69887664D02*
X103133332Y-69925760D01*
X103133332Y-69925760D02*
X103199999Y-69963855D01*
X103199999Y-69963855D02*
X103399999Y-69963855D01*
X103399999Y-69963855D02*
X103466665Y-69925760D01*
X103466665Y-69925760D02*
X103499999Y-69887664D01*
X105099999Y-71813854D02*
X105099999Y-71013854D01*
X105099999Y-71013854D02*
X104833332Y-71013854D01*
X104833332Y-71013854D02*
X104766666Y-71051949D01*
X104766666Y-71051949D02*
X104733332Y-71090044D01*
X104733332Y-71090044D02*
X104699999Y-71166235D01*
X104699999Y-71166235D02*
X104699999Y-71280520D01*
X104699999Y-71280520D02*
X104733332Y-71356711D01*
X104733332Y-71356711D02*
X104766666Y-71394806D01*
X104766666Y-71394806D02*
X104833332Y-71432901D01*
X104833332Y-71432901D02*
X105099999Y-71432901D01*
X103999999Y-71737663D02*
X104033332Y-71775759D01*
X104033332Y-71775759D02*
X104133332Y-71813854D01*
X104133332Y-71813854D02*
X104199999Y-71813854D01*
X104199999Y-71813854D02*
X104299999Y-71775759D01*
X104299999Y-71775759D02*
X104366666Y-71699568D01*
X104366666Y-71699568D02*
X104399999Y-71623378D01*
X104399999Y-71623378D02*
X104433332Y-71470997D01*
X104433332Y-71470997D02*
X104433332Y-71356711D01*
X104433332Y-71356711D02*
X104399999Y-71204330D01*
X104399999Y-71204330D02*
X104366666Y-71128139D01*
X104366666Y-71128139D02*
X104299999Y-71051949D01*
X104299999Y-71051949D02*
X104199999Y-71013854D01*
X104199999Y-71013854D02*
X104133332Y-71013854D01*
X104133332Y-71013854D02*
X104033332Y-71051949D01*
X104033332Y-71051949D02*
X103999999Y-71090044D01*
X103333332Y-71813854D02*
X103733332Y-71813854D01*
X103533332Y-71813854D02*
X103533332Y-71013854D01*
X103533332Y-71013854D02*
X103599999Y-71128139D01*
X103599999Y-71128139D02*
X103666666Y-71204330D01*
X103666666Y-71204330D02*
X103733332Y-71242425D01*
X103099999Y-71013854D02*
X102666665Y-71013854D01*
X102666665Y-71013854D02*
X102899999Y-71318616D01*
X102899999Y-71318616D02*
X102799999Y-71318616D01*
X102799999Y-71318616D02*
X102733332Y-71356711D01*
X102733332Y-71356711D02*
X102699999Y-71394806D01*
X102699999Y-71394806D02*
X102666665Y-71470997D01*
X102666665Y-71470997D02*
X102666665Y-71661473D01*
X102666665Y-71661473D02*
X102699999Y-71737663D01*
X102699999Y-71737663D02*
X102733332Y-71775759D01*
X102733332Y-71775759D02*
X102799999Y-71813854D01*
X102799999Y-71813854D02*
X102999999Y-71813854D01*
X102999999Y-71813854D02*
X103066665Y-71775759D01*
X103066665Y-71775759D02*
X103099999Y-71737663D01*
X105099999Y-73663855D02*
X105099999Y-72863855D01*
X105099999Y-72863855D02*
X104833332Y-72863855D01*
X104833332Y-72863855D02*
X104766666Y-72901950D01*
X104766666Y-72901950D02*
X104733332Y-72940045D01*
X104733332Y-72940045D02*
X104699999Y-73016236D01*
X104699999Y-73016236D02*
X104699999Y-73130521D01*
X104699999Y-73130521D02*
X104733332Y-73206712D01*
X104733332Y-73206712D02*
X104766666Y-73244807D01*
X104766666Y-73244807D02*
X104833332Y-73282902D01*
X104833332Y-73282902D02*
X105099999Y-73282902D01*
X103999999Y-73587664D02*
X104033332Y-73625760D01*
X104033332Y-73625760D02*
X104133332Y-73663855D01*
X104133332Y-73663855D02*
X104199999Y-73663855D01*
X104199999Y-73663855D02*
X104299999Y-73625760D01*
X104299999Y-73625760D02*
X104366666Y-73549569D01*
X104366666Y-73549569D02*
X104399999Y-73473379D01*
X104399999Y-73473379D02*
X104433332Y-73320998D01*
X104433332Y-73320998D02*
X104433332Y-73206712D01*
X104433332Y-73206712D02*
X104399999Y-73054331D01*
X104399999Y-73054331D02*
X104366666Y-72978140D01*
X104366666Y-72978140D02*
X104299999Y-72901950D01*
X104299999Y-72901950D02*
X104199999Y-72863855D01*
X104199999Y-72863855D02*
X104133332Y-72863855D01*
X104133332Y-72863855D02*
X104033332Y-72901950D01*
X104033332Y-72901950D02*
X103999999Y-72940045D01*
X103333332Y-73663855D02*
X103733332Y-73663855D01*
X103533332Y-73663855D02*
X103533332Y-72863855D01*
X103533332Y-72863855D02*
X103599999Y-72978140D01*
X103599999Y-72978140D02*
X103666666Y-73054331D01*
X103666666Y-73054331D02*
X103733332Y-73092426D01*
X102699999Y-72863855D02*
X103033332Y-72863855D01*
X103033332Y-72863855D02*
X103066665Y-73244807D01*
X103066665Y-73244807D02*
X103033332Y-73206712D01*
X103033332Y-73206712D02*
X102966665Y-73168617D01*
X102966665Y-73168617D02*
X102799999Y-73168617D01*
X102799999Y-73168617D02*
X102733332Y-73206712D01*
X102733332Y-73206712D02*
X102699999Y-73244807D01*
X102699999Y-73244807D02*
X102666665Y-73320998D01*
X102666665Y-73320998D02*
X102666665Y-73511474D01*
X102666665Y-73511474D02*
X102699999Y-73587664D01*
X102699999Y-73587664D02*
X102733332Y-73625760D01*
X102733332Y-73625760D02*
X102799999Y-73663855D01*
X102799999Y-73663855D02*
X102966665Y-73663855D01*
X102966665Y-73663855D02*
X103033332Y-73625760D01*
X103033332Y-73625760D02*
X103066665Y-73587664D01*
X104716665Y-75513854D02*
X104716665Y-74713854D01*
X104716665Y-74713854D02*
X104449998Y-74713854D01*
X104449998Y-74713854D02*
X104383332Y-74751949D01*
X104383332Y-74751949D02*
X104349998Y-74790044D01*
X104349998Y-74790044D02*
X104316665Y-74866235D01*
X104316665Y-74866235D02*
X104316665Y-74980520D01*
X104316665Y-74980520D02*
X104349998Y-75056711D01*
X104349998Y-75056711D02*
X104383332Y-75094806D01*
X104383332Y-75094806D02*
X104449998Y-75132901D01*
X104449998Y-75132901D02*
X104716665Y-75132901D01*
X104049998Y-75285282D02*
X103716665Y-75285282D01*
X104116665Y-75513854D02*
X103883332Y-74713854D01*
X103883332Y-74713854D02*
X103649998Y-75513854D01*
X103283332Y-74713854D02*
X103216665Y-74713854D01*
X103216665Y-74713854D02*
X103149998Y-74751949D01*
X103149998Y-74751949D02*
X103116665Y-74790044D01*
X103116665Y-74790044D02*
X103083332Y-74866235D01*
X103083332Y-74866235D02*
X103049998Y-75018616D01*
X103049998Y-75018616D02*
X103049998Y-75209092D01*
X103049998Y-75209092D02*
X103083332Y-75361473D01*
X103083332Y-75361473D02*
X103116665Y-75437663D01*
X103116665Y-75437663D02*
X103149998Y-75475759D01*
X103149998Y-75475759D02*
X103216665Y-75513854D01*
X103216665Y-75513854D02*
X103283332Y-75513854D01*
X103283332Y-75513854D02*
X103349998Y-75475759D01*
X103349998Y-75475759D02*
X103383332Y-75437663D01*
X103383332Y-75437663D02*
X103416665Y-75361473D01*
X103416665Y-75361473D02*
X103449998Y-75209092D01*
X103449998Y-75209092D02*
X103449998Y-75018616D01*
X103449998Y-75018616D02*
X103416665Y-74866235D01*
X103416665Y-74866235D02*
X103383332Y-74790044D01*
X103383332Y-74790044D02*
X103349998Y-74751949D01*
X103349998Y-74751949D02*
X103283332Y-74713854D01*
X104716665Y-77363855D02*
X104716665Y-76563855D01*
X104716665Y-76563855D02*
X104449998Y-76563855D01*
X104449998Y-76563855D02*
X104383332Y-76601950D01*
X104383332Y-76601950D02*
X104349998Y-76640045D01*
X104349998Y-76640045D02*
X104316665Y-76716236D01*
X104316665Y-76716236D02*
X104316665Y-76830521D01*
X104316665Y-76830521D02*
X104349998Y-76906712D01*
X104349998Y-76906712D02*
X104383332Y-76944807D01*
X104383332Y-76944807D02*
X104449998Y-76982902D01*
X104449998Y-76982902D02*
X104716665Y-76982902D01*
X104049998Y-77135283D02*
X103716665Y-77135283D01*
X104116665Y-77363855D02*
X103883332Y-76563855D01*
X103883332Y-76563855D02*
X103649998Y-77363855D01*
X103449998Y-76640045D02*
X103416665Y-76601950D01*
X103416665Y-76601950D02*
X103349998Y-76563855D01*
X103349998Y-76563855D02*
X103183332Y-76563855D01*
X103183332Y-76563855D02*
X103116665Y-76601950D01*
X103116665Y-76601950D02*
X103083332Y-76640045D01*
X103083332Y-76640045D02*
X103049998Y-76716236D01*
X103049998Y-76716236D02*
X103049998Y-76792426D01*
X103049998Y-76792426D02*
X103083332Y-76906712D01*
X103083332Y-76906712D02*
X103483332Y-77363855D01*
X103483332Y-77363855D02*
X103049998Y-77363855D01*
X104716665Y-79213855D02*
X104716665Y-78413855D01*
X104716665Y-78413855D02*
X104449998Y-78413855D01*
X104449998Y-78413855D02*
X104383332Y-78451950D01*
X104383332Y-78451950D02*
X104349998Y-78490045D01*
X104349998Y-78490045D02*
X104316665Y-78566236D01*
X104316665Y-78566236D02*
X104316665Y-78680521D01*
X104316665Y-78680521D02*
X104349998Y-78756712D01*
X104349998Y-78756712D02*
X104383332Y-78794807D01*
X104383332Y-78794807D02*
X104449998Y-78832902D01*
X104449998Y-78832902D02*
X104716665Y-78832902D01*
X104049998Y-78985283D02*
X103716665Y-78985283D01*
X104116665Y-79213855D02*
X103883332Y-78413855D01*
X103883332Y-78413855D02*
X103649998Y-79213855D01*
X103116665Y-78680521D02*
X103116665Y-79213855D01*
X103283332Y-78375760D02*
X103449998Y-78947188D01*
X103449998Y-78947188D02*
X103016665Y-78947188D01*
X104716665Y-81063854D02*
X104716665Y-80263854D01*
X104716665Y-80263854D02*
X104449998Y-80263854D01*
X104449998Y-80263854D02*
X104383332Y-80301949D01*
X104383332Y-80301949D02*
X104349998Y-80340044D01*
X104349998Y-80340044D02*
X104316665Y-80416235D01*
X104316665Y-80416235D02*
X104316665Y-80530520D01*
X104316665Y-80530520D02*
X104349998Y-80606711D01*
X104349998Y-80606711D02*
X104383332Y-80644806D01*
X104383332Y-80644806D02*
X104449998Y-80682901D01*
X104449998Y-80682901D02*
X104716665Y-80682901D01*
X104049998Y-80835282D02*
X103716665Y-80835282D01*
X104116665Y-81063854D02*
X103883332Y-80263854D01*
X103883332Y-80263854D02*
X103649998Y-81063854D01*
X103116665Y-80263854D02*
X103249998Y-80263854D01*
X103249998Y-80263854D02*
X103316665Y-80301949D01*
X103316665Y-80301949D02*
X103349998Y-80340044D01*
X103349998Y-80340044D02*
X103416665Y-80454330D01*
X103416665Y-80454330D02*
X103449998Y-80606711D01*
X103449998Y-80606711D02*
X103449998Y-80911473D01*
X103449998Y-80911473D02*
X103416665Y-80987663D01*
X103416665Y-80987663D02*
X103383332Y-81025759D01*
X103383332Y-81025759D02*
X103316665Y-81063854D01*
X103316665Y-81063854D02*
X103183332Y-81063854D01*
X103183332Y-81063854D02*
X103116665Y-81025759D01*
X103116665Y-81025759D02*
X103083332Y-80987663D01*
X103083332Y-80987663D02*
X103049998Y-80911473D01*
X103049998Y-80911473D02*
X103049998Y-80720997D01*
X103049998Y-80720997D02*
X103083332Y-80644806D01*
X103083332Y-80644806D02*
X103116665Y-80606711D01*
X103116665Y-80606711D02*
X103183332Y-80568616D01*
X103183332Y-80568616D02*
X103316665Y-80568616D01*
X103316665Y-80568616D02*
X103383332Y-80606711D01*
X103383332Y-80606711D02*
X103416665Y-80644806D01*
X103416665Y-80644806D02*
X103449998Y-80720997D01*
X104766665Y-82913855D02*
X104766665Y-82113855D01*
X104766665Y-82113855D02*
X104499998Y-82113855D01*
X104499998Y-82113855D02*
X104433332Y-82151950D01*
X104433332Y-82151950D02*
X104399998Y-82190045D01*
X104399998Y-82190045D02*
X104366665Y-82266236D01*
X104366665Y-82266236D02*
X104366665Y-82380521D01*
X104366665Y-82380521D02*
X104399998Y-82456712D01*
X104399998Y-82456712D02*
X104433332Y-82494807D01*
X104433332Y-82494807D02*
X104499998Y-82532902D01*
X104499998Y-82532902D02*
X104766665Y-82532902D01*
X103833332Y-82494807D02*
X103733332Y-82532902D01*
X103733332Y-82532902D02*
X103699998Y-82570998D01*
X103699998Y-82570998D02*
X103666665Y-82647188D01*
X103666665Y-82647188D02*
X103666665Y-82761474D01*
X103666665Y-82761474D02*
X103699998Y-82837664D01*
X103699998Y-82837664D02*
X103733332Y-82875760D01*
X103733332Y-82875760D02*
X103799998Y-82913855D01*
X103799998Y-82913855D02*
X104066665Y-82913855D01*
X104066665Y-82913855D02*
X104066665Y-82113855D01*
X104066665Y-82113855D02*
X103833332Y-82113855D01*
X103833332Y-82113855D02*
X103766665Y-82151950D01*
X103766665Y-82151950D02*
X103733332Y-82190045D01*
X103733332Y-82190045D02*
X103699998Y-82266236D01*
X103699998Y-82266236D02*
X103699998Y-82342426D01*
X103699998Y-82342426D02*
X103733332Y-82418617D01*
X103733332Y-82418617D02*
X103766665Y-82456712D01*
X103766665Y-82456712D02*
X103833332Y-82494807D01*
X103833332Y-82494807D02*
X104066665Y-82494807D01*
X103233332Y-82113855D02*
X103166665Y-82113855D01*
X103166665Y-82113855D02*
X103099998Y-82151950D01*
X103099998Y-82151950D02*
X103066665Y-82190045D01*
X103066665Y-82190045D02*
X103033332Y-82266236D01*
X103033332Y-82266236D02*
X102999998Y-82418617D01*
X102999998Y-82418617D02*
X102999998Y-82609093D01*
X102999998Y-82609093D02*
X103033332Y-82761474D01*
X103033332Y-82761474D02*
X103066665Y-82837664D01*
X103066665Y-82837664D02*
X103099998Y-82875760D01*
X103099998Y-82875760D02*
X103166665Y-82913855D01*
X103166665Y-82913855D02*
X103233332Y-82913855D01*
X103233332Y-82913855D02*
X103299998Y-82875760D01*
X103299998Y-82875760D02*
X103333332Y-82837664D01*
X103333332Y-82837664D02*
X103366665Y-82761474D01*
X103366665Y-82761474D02*
X103399998Y-82609093D01*
X103399998Y-82609093D02*
X103399998Y-82418617D01*
X103399998Y-82418617D02*
X103366665Y-82266236D01*
X103366665Y-82266236D02*
X103333332Y-82190045D01*
X103333332Y-82190045D02*
X103299998Y-82151950D01*
X103299998Y-82151950D02*
X103233332Y-82113855D01*
X104766665Y-84763854D02*
X104766665Y-83963854D01*
X104766665Y-83963854D02*
X104499998Y-83963854D01*
X104499998Y-83963854D02*
X104433332Y-84001949D01*
X104433332Y-84001949D02*
X104399998Y-84040044D01*
X104399998Y-84040044D02*
X104366665Y-84116235D01*
X104366665Y-84116235D02*
X104366665Y-84230520D01*
X104366665Y-84230520D02*
X104399998Y-84306711D01*
X104399998Y-84306711D02*
X104433332Y-84344806D01*
X104433332Y-84344806D02*
X104499998Y-84382901D01*
X104499998Y-84382901D02*
X104766665Y-84382901D01*
X103833332Y-84344806D02*
X103733332Y-84382901D01*
X103733332Y-84382901D02*
X103699998Y-84420997D01*
X103699998Y-84420997D02*
X103666665Y-84497187D01*
X103666665Y-84497187D02*
X103666665Y-84611473D01*
X103666665Y-84611473D02*
X103699998Y-84687663D01*
X103699998Y-84687663D02*
X103733332Y-84725759D01*
X103733332Y-84725759D02*
X103799998Y-84763854D01*
X103799998Y-84763854D02*
X104066665Y-84763854D01*
X104066665Y-84763854D02*
X104066665Y-83963854D01*
X104066665Y-83963854D02*
X103833332Y-83963854D01*
X103833332Y-83963854D02*
X103766665Y-84001949D01*
X103766665Y-84001949D02*
X103733332Y-84040044D01*
X103733332Y-84040044D02*
X103699998Y-84116235D01*
X103699998Y-84116235D02*
X103699998Y-84192425D01*
X103699998Y-84192425D02*
X103733332Y-84268616D01*
X103733332Y-84268616D02*
X103766665Y-84306711D01*
X103766665Y-84306711D02*
X103833332Y-84344806D01*
X103833332Y-84344806D02*
X104066665Y-84344806D01*
X103399998Y-84040044D02*
X103366665Y-84001949D01*
X103366665Y-84001949D02*
X103299998Y-83963854D01*
X103299998Y-83963854D02*
X103133332Y-83963854D01*
X103133332Y-83963854D02*
X103066665Y-84001949D01*
X103066665Y-84001949D02*
X103033332Y-84040044D01*
X103033332Y-84040044D02*
X102999998Y-84116235D01*
X102999998Y-84116235D02*
X102999998Y-84192425D01*
X102999998Y-84192425D02*
X103033332Y-84306711D01*
X103033332Y-84306711D02*
X103433332Y-84763854D01*
X103433332Y-84763854D02*
X102999998Y-84763854D01*
X105099999Y-86613855D02*
X105099999Y-85813855D01*
X105099999Y-85813855D02*
X104833332Y-85813855D01*
X104833332Y-85813855D02*
X104766666Y-85851950D01*
X104766666Y-85851950D02*
X104733332Y-85890045D01*
X104733332Y-85890045D02*
X104699999Y-85966236D01*
X104699999Y-85966236D02*
X104699999Y-86080521D01*
X104699999Y-86080521D02*
X104733332Y-86156712D01*
X104733332Y-86156712D02*
X104766666Y-86194807D01*
X104766666Y-86194807D02*
X104833332Y-86232902D01*
X104833332Y-86232902D02*
X105099999Y-86232902D01*
X104166666Y-86194807D02*
X104066666Y-86232902D01*
X104066666Y-86232902D02*
X104033332Y-86270998D01*
X104033332Y-86270998D02*
X103999999Y-86347188D01*
X103999999Y-86347188D02*
X103999999Y-86461474D01*
X103999999Y-86461474D02*
X104033332Y-86537664D01*
X104033332Y-86537664D02*
X104066666Y-86575760D01*
X104066666Y-86575760D02*
X104133332Y-86613855D01*
X104133332Y-86613855D02*
X104399999Y-86613855D01*
X104399999Y-86613855D02*
X104399999Y-85813855D01*
X104399999Y-85813855D02*
X104166666Y-85813855D01*
X104166666Y-85813855D02*
X104099999Y-85851950D01*
X104099999Y-85851950D02*
X104066666Y-85890045D01*
X104066666Y-85890045D02*
X104033332Y-85966236D01*
X104033332Y-85966236D02*
X104033332Y-86042426D01*
X104033332Y-86042426D02*
X104066666Y-86118617D01*
X104066666Y-86118617D02*
X104099999Y-86156712D01*
X104099999Y-86156712D02*
X104166666Y-86194807D01*
X104166666Y-86194807D02*
X104399999Y-86194807D01*
X103333332Y-86613855D02*
X103733332Y-86613855D01*
X103533332Y-86613855D02*
X103533332Y-85813855D01*
X103533332Y-85813855D02*
X103599999Y-85928140D01*
X103599999Y-85928140D02*
X103666666Y-86004331D01*
X103666666Y-86004331D02*
X103733332Y-86042426D01*
X102666665Y-86613855D02*
X103066665Y-86613855D01*
X102866665Y-86613855D02*
X102866665Y-85813855D01*
X102866665Y-85813855D02*
X102933332Y-85928140D01*
X102933332Y-85928140D02*
X102999999Y-86004331D01*
X102999999Y-86004331D02*
X103066665Y-86042426D01*
X106516666Y-69163855D02*
X106449999Y-69163855D01*
X106449999Y-69163855D02*
X106383332Y-69201950D01*
X106383332Y-69201950D02*
X106349999Y-69240045D01*
X106349999Y-69240045D02*
X106316666Y-69316236D01*
X106316666Y-69316236D02*
X106283332Y-69468617D01*
X106283332Y-69468617D02*
X106283332Y-69659093D01*
X106283332Y-69659093D02*
X106316666Y-69811474D01*
X106316666Y-69811474D02*
X106349999Y-69887664D01*
X106349999Y-69887664D02*
X106383332Y-69925760D01*
X106383332Y-69925760D02*
X106449999Y-69963855D01*
X106449999Y-69963855D02*
X106516666Y-69963855D01*
X106516666Y-69963855D02*
X106583332Y-69925760D01*
X106583332Y-69925760D02*
X106616666Y-69887664D01*
X106616666Y-69887664D02*
X106649999Y-69811474D01*
X106649999Y-69811474D02*
X106683332Y-69659093D01*
X106683332Y-69659093D02*
X106683332Y-69468617D01*
X106683332Y-69468617D02*
X106649999Y-69316236D01*
X106649999Y-69316236D02*
X106616666Y-69240045D01*
X106616666Y-69240045D02*
X106583332Y-69201950D01*
X106583332Y-69201950D02*
X106516666Y-69163855D01*
X105616665Y-69963855D02*
X106016665Y-69963855D01*
X105816665Y-69963855D02*
X105816665Y-69163855D01*
X105816665Y-69163855D02*
X105883332Y-69278140D01*
X105883332Y-69278140D02*
X105949999Y-69354331D01*
X105949999Y-69354331D02*
X106016665Y-69392426D01*
X106516666Y-71013854D02*
X106449999Y-71013854D01*
X106449999Y-71013854D02*
X106383332Y-71051949D01*
X106383332Y-71051949D02*
X106349999Y-71090044D01*
X106349999Y-71090044D02*
X106316666Y-71166235D01*
X106316666Y-71166235D02*
X106283332Y-71318616D01*
X106283332Y-71318616D02*
X106283332Y-71509092D01*
X106283332Y-71509092D02*
X106316666Y-71661473D01*
X106316666Y-71661473D02*
X106349999Y-71737663D01*
X106349999Y-71737663D02*
X106383332Y-71775759D01*
X106383332Y-71775759D02*
X106449999Y-71813854D01*
X106449999Y-71813854D02*
X106516666Y-71813854D01*
X106516666Y-71813854D02*
X106583332Y-71775759D01*
X106583332Y-71775759D02*
X106616666Y-71737663D01*
X106616666Y-71737663D02*
X106649999Y-71661473D01*
X106649999Y-71661473D02*
X106683332Y-71509092D01*
X106683332Y-71509092D02*
X106683332Y-71318616D01*
X106683332Y-71318616D02*
X106649999Y-71166235D01*
X106649999Y-71166235D02*
X106616666Y-71090044D01*
X106616666Y-71090044D02*
X106583332Y-71051949D01*
X106583332Y-71051949D02*
X106516666Y-71013854D01*
X106049999Y-71013854D02*
X105616665Y-71013854D01*
X105616665Y-71013854D02*
X105849999Y-71318616D01*
X105849999Y-71318616D02*
X105749999Y-71318616D01*
X105749999Y-71318616D02*
X105683332Y-71356711D01*
X105683332Y-71356711D02*
X105649999Y-71394806D01*
X105649999Y-71394806D02*
X105616665Y-71470997D01*
X105616665Y-71470997D02*
X105616665Y-71661473D01*
X105616665Y-71661473D02*
X105649999Y-71737663D01*
X105649999Y-71737663D02*
X105683332Y-71775759D01*
X105683332Y-71775759D02*
X105749999Y-71813854D01*
X105749999Y-71813854D02*
X105949999Y-71813854D01*
X105949999Y-71813854D02*
X106016665Y-71775759D01*
X106016665Y-71775759D02*
X106049999Y-71737663D01*
X106516666Y-72863855D02*
X106449999Y-72863855D01*
X106449999Y-72863855D02*
X106383332Y-72901950D01*
X106383332Y-72901950D02*
X106349999Y-72940045D01*
X106349999Y-72940045D02*
X106316666Y-73016236D01*
X106316666Y-73016236D02*
X106283332Y-73168617D01*
X106283332Y-73168617D02*
X106283332Y-73359093D01*
X106283332Y-73359093D02*
X106316666Y-73511474D01*
X106316666Y-73511474D02*
X106349999Y-73587664D01*
X106349999Y-73587664D02*
X106383332Y-73625760D01*
X106383332Y-73625760D02*
X106449999Y-73663855D01*
X106449999Y-73663855D02*
X106516666Y-73663855D01*
X106516666Y-73663855D02*
X106583332Y-73625760D01*
X106583332Y-73625760D02*
X106616666Y-73587664D01*
X106616666Y-73587664D02*
X106649999Y-73511474D01*
X106649999Y-73511474D02*
X106683332Y-73359093D01*
X106683332Y-73359093D02*
X106683332Y-73168617D01*
X106683332Y-73168617D02*
X106649999Y-73016236D01*
X106649999Y-73016236D02*
X106616666Y-72940045D01*
X106616666Y-72940045D02*
X106583332Y-72901950D01*
X106583332Y-72901950D02*
X106516666Y-72863855D01*
X105649999Y-72863855D02*
X105983332Y-72863855D01*
X105983332Y-72863855D02*
X106016665Y-73244807D01*
X106016665Y-73244807D02*
X105983332Y-73206712D01*
X105983332Y-73206712D02*
X105916665Y-73168617D01*
X105916665Y-73168617D02*
X105749999Y-73168617D01*
X105749999Y-73168617D02*
X105683332Y-73206712D01*
X105683332Y-73206712D02*
X105649999Y-73244807D01*
X105649999Y-73244807D02*
X105616665Y-73320998D01*
X105616665Y-73320998D02*
X105616665Y-73511474D01*
X105616665Y-73511474D02*
X105649999Y-73587664D01*
X105649999Y-73587664D02*
X105683332Y-73625760D01*
X105683332Y-73625760D02*
X105749999Y-73663855D01*
X105749999Y-73663855D02*
X105916665Y-73663855D01*
X105916665Y-73663855D02*
X105983332Y-73625760D01*
X105983332Y-73625760D02*
X106016665Y-73587664D01*
X106516666Y-74713854D02*
X106449999Y-74713854D01*
X106449999Y-74713854D02*
X106383332Y-74751949D01*
X106383332Y-74751949D02*
X106349999Y-74790044D01*
X106349999Y-74790044D02*
X106316666Y-74866235D01*
X106316666Y-74866235D02*
X106283332Y-75018616D01*
X106283332Y-75018616D02*
X106283332Y-75209092D01*
X106283332Y-75209092D02*
X106316666Y-75361473D01*
X106316666Y-75361473D02*
X106349999Y-75437663D01*
X106349999Y-75437663D02*
X106383332Y-75475759D01*
X106383332Y-75475759D02*
X106449999Y-75513854D01*
X106449999Y-75513854D02*
X106516666Y-75513854D01*
X106516666Y-75513854D02*
X106583332Y-75475759D01*
X106583332Y-75475759D02*
X106616666Y-75437663D01*
X106616666Y-75437663D02*
X106649999Y-75361473D01*
X106649999Y-75361473D02*
X106683332Y-75209092D01*
X106683332Y-75209092D02*
X106683332Y-75018616D01*
X106683332Y-75018616D02*
X106649999Y-74866235D01*
X106649999Y-74866235D02*
X106616666Y-74790044D01*
X106616666Y-74790044D02*
X106583332Y-74751949D01*
X106583332Y-74751949D02*
X106516666Y-74713854D01*
X106049999Y-74713854D02*
X105583332Y-74713854D01*
X105583332Y-74713854D02*
X105883332Y-75513854D01*
X106516666Y-76563855D02*
X106449999Y-76563855D01*
X106449999Y-76563855D02*
X106383332Y-76601950D01*
X106383332Y-76601950D02*
X106349999Y-76640045D01*
X106349999Y-76640045D02*
X106316666Y-76716236D01*
X106316666Y-76716236D02*
X106283332Y-76868617D01*
X106283332Y-76868617D02*
X106283332Y-77059093D01*
X106283332Y-77059093D02*
X106316666Y-77211474D01*
X106316666Y-77211474D02*
X106349999Y-77287664D01*
X106349999Y-77287664D02*
X106383332Y-77325760D01*
X106383332Y-77325760D02*
X106449999Y-77363855D01*
X106449999Y-77363855D02*
X106516666Y-77363855D01*
X106516666Y-77363855D02*
X106583332Y-77325760D01*
X106583332Y-77325760D02*
X106616666Y-77287664D01*
X106616666Y-77287664D02*
X106649999Y-77211474D01*
X106649999Y-77211474D02*
X106683332Y-77059093D01*
X106683332Y-77059093D02*
X106683332Y-76868617D01*
X106683332Y-76868617D02*
X106649999Y-76716236D01*
X106649999Y-76716236D02*
X106616666Y-76640045D01*
X106616666Y-76640045D02*
X106583332Y-76601950D01*
X106583332Y-76601950D02*
X106516666Y-76563855D01*
X105949999Y-77363855D02*
X105816665Y-77363855D01*
X105816665Y-77363855D02*
X105749999Y-77325760D01*
X105749999Y-77325760D02*
X105716665Y-77287664D01*
X105716665Y-77287664D02*
X105649999Y-77173379D01*
X105649999Y-77173379D02*
X105616665Y-77020998D01*
X105616665Y-77020998D02*
X105616665Y-76716236D01*
X105616665Y-76716236D02*
X105649999Y-76640045D01*
X105649999Y-76640045D02*
X105683332Y-76601950D01*
X105683332Y-76601950D02*
X105749999Y-76563855D01*
X105749999Y-76563855D02*
X105883332Y-76563855D01*
X105883332Y-76563855D02*
X105949999Y-76601950D01*
X105949999Y-76601950D02*
X105983332Y-76640045D01*
X105983332Y-76640045D02*
X106016665Y-76716236D01*
X106016665Y-76716236D02*
X106016665Y-76906712D01*
X106016665Y-76906712D02*
X105983332Y-76982902D01*
X105983332Y-76982902D02*
X105949999Y-77020998D01*
X105949999Y-77020998D02*
X105883332Y-77059093D01*
X105883332Y-77059093D02*
X105749999Y-77059093D01*
X105749999Y-77059093D02*
X105683332Y-77020998D01*
X105683332Y-77020998D02*
X105649999Y-76982902D01*
X105649999Y-76982902D02*
X105616665Y-76906712D01*
X106283332Y-79213855D02*
X106683332Y-79213855D01*
X106483332Y-79213855D02*
X106483332Y-78413855D01*
X106483332Y-78413855D02*
X106549999Y-78528140D01*
X106549999Y-78528140D02*
X106616666Y-78604331D01*
X106616666Y-78604331D02*
X106683332Y-78642426D01*
X105616665Y-79213855D02*
X106016665Y-79213855D01*
X105816665Y-79213855D02*
X105816665Y-78413855D01*
X105816665Y-78413855D02*
X105883332Y-78528140D01*
X105883332Y-78528140D02*
X105949999Y-78604331D01*
X105949999Y-78604331D02*
X106016665Y-78642426D01*
X106283332Y-81063854D02*
X106683332Y-81063854D01*
X106483332Y-81063854D02*
X106483332Y-80263854D01*
X106483332Y-80263854D02*
X106549999Y-80378139D01*
X106549999Y-80378139D02*
X106616666Y-80454330D01*
X106616666Y-80454330D02*
X106683332Y-80492425D01*
X106049999Y-80263854D02*
X105616665Y-80263854D01*
X105616665Y-80263854D02*
X105849999Y-80568616D01*
X105849999Y-80568616D02*
X105749999Y-80568616D01*
X105749999Y-80568616D02*
X105683332Y-80606711D01*
X105683332Y-80606711D02*
X105649999Y-80644806D01*
X105649999Y-80644806D02*
X105616665Y-80720997D01*
X105616665Y-80720997D02*
X105616665Y-80911473D01*
X105616665Y-80911473D02*
X105649999Y-80987663D01*
X105649999Y-80987663D02*
X105683332Y-81025759D01*
X105683332Y-81025759D02*
X105749999Y-81063854D01*
X105749999Y-81063854D02*
X105949999Y-81063854D01*
X105949999Y-81063854D02*
X106016665Y-81025759D01*
X106016665Y-81025759D02*
X106049999Y-80987663D01*
X106283332Y-82913855D02*
X106683332Y-82913855D01*
X106483332Y-82913855D02*
X106483332Y-82113855D01*
X106483332Y-82113855D02*
X106549999Y-82228140D01*
X106549999Y-82228140D02*
X106616666Y-82304331D01*
X106616666Y-82304331D02*
X106683332Y-82342426D01*
X105649999Y-82113855D02*
X105983332Y-82113855D01*
X105983332Y-82113855D02*
X106016665Y-82494807D01*
X106016665Y-82494807D02*
X105983332Y-82456712D01*
X105983332Y-82456712D02*
X105916665Y-82418617D01*
X105916665Y-82418617D02*
X105749999Y-82418617D01*
X105749999Y-82418617D02*
X105683332Y-82456712D01*
X105683332Y-82456712D02*
X105649999Y-82494807D01*
X105649999Y-82494807D02*
X105616665Y-82570998D01*
X105616665Y-82570998D02*
X105616665Y-82761474D01*
X105616665Y-82761474D02*
X105649999Y-82837664D01*
X105649999Y-82837664D02*
X105683332Y-82875760D01*
X105683332Y-82875760D02*
X105749999Y-82913855D01*
X105749999Y-82913855D02*
X105916665Y-82913855D01*
X105916665Y-82913855D02*
X105983332Y-82875760D01*
X105983332Y-82875760D02*
X106016665Y-82837664D01*
X106283332Y-84763854D02*
X106683332Y-84763854D01*
X106483332Y-84763854D02*
X106483332Y-83963854D01*
X106483332Y-83963854D02*
X106549999Y-84078139D01*
X106549999Y-84078139D02*
X106616666Y-84154330D01*
X106616666Y-84154330D02*
X106683332Y-84192425D01*
X106049999Y-83963854D02*
X105583332Y-83963854D01*
X105583332Y-83963854D02*
X105883332Y-84763854D01*
X106283332Y-86613855D02*
X106683332Y-86613855D01*
X106483332Y-86613855D02*
X106483332Y-85813855D01*
X106483332Y-85813855D02*
X106549999Y-85928140D01*
X106549999Y-85928140D02*
X106616666Y-86004331D01*
X106616666Y-86004331D02*
X106683332Y-86042426D01*
X105949999Y-86613855D02*
X105816665Y-86613855D01*
X105816665Y-86613855D02*
X105749999Y-86575760D01*
X105749999Y-86575760D02*
X105716665Y-86537664D01*
X105716665Y-86537664D02*
X105649999Y-86423379D01*
X105649999Y-86423379D02*
X105616665Y-86270998D01*
X105616665Y-86270998D02*
X105616665Y-85966236D01*
X105616665Y-85966236D02*
X105649999Y-85890045D01*
X105649999Y-85890045D02*
X105683332Y-85851950D01*
X105683332Y-85851950D02*
X105749999Y-85813855D01*
X105749999Y-85813855D02*
X105883332Y-85813855D01*
X105883332Y-85813855D02*
X105949999Y-85851950D01*
X105949999Y-85851950D02*
X105983332Y-85890045D01*
X105983332Y-85890045D02*
X106016665Y-85966236D01*
X106016665Y-85966236D02*
X106016665Y-86156712D01*
X106016665Y-86156712D02*
X105983332Y-86232902D01*
X105983332Y-86232902D02*
X105949999Y-86270998D01*
X105949999Y-86270998D02*
X105883332Y-86309093D01*
X105883332Y-86309093D02*
X105749999Y-86309093D01*
X105749999Y-86309093D02*
X105683332Y-86270998D01*
X105683332Y-86270998D02*
X105649999Y-86232902D01*
X105649999Y-86232902D02*
X105616665Y-86156712D01*
X100847618Y-91363855D02*
X100847618Y-90563855D01*
X100847618Y-90563855D02*
X100390475Y-91363855D01*
X100390475Y-91363855D02*
X100390475Y-90563855D01*
X100009523Y-91363855D02*
X100009523Y-90830521D01*
X100009523Y-90563855D02*
X100047619Y-90601950D01*
X100047619Y-90601950D02*
X100009523Y-90640045D01*
X100009523Y-90640045D02*
X99971428Y-90601950D01*
X99971428Y-90601950D02*
X100009523Y-90563855D01*
X100009523Y-90563855D02*
X100009523Y-90640045D01*
X99285714Y-91325760D02*
X99361905Y-91363855D01*
X99361905Y-91363855D02*
X99514286Y-91363855D01*
X99514286Y-91363855D02*
X99590476Y-91325760D01*
X99590476Y-91325760D02*
X99628571Y-91287664D01*
X99628571Y-91287664D02*
X99666667Y-91211474D01*
X99666667Y-91211474D02*
X99666667Y-90982902D01*
X99666667Y-90982902D02*
X99628571Y-90906712D01*
X99628571Y-90906712D02*
X99590476Y-90868617D01*
X99590476Y-90868617D02*
X99514286Y-90830521D01*
X99514286Y-90830521D02*
X99361905Y-90830521D01*
X99361905Y-90830521D02*
X99285714Y-90868617D01*
X98942857Y-91363855D02*
X98942857Y-90563855D01*
X98866667Y-91059093D02*
X98638095Y-91363855D01*
X98638095Y-90830521D02*
X98942857Y-91135283D01*
X97914286Y-91363855D02*
X98295238Y-91363855D01*
X98295238Y-91363855D02*
X98295238Y-90563855D01*
X97647619Y-91363855D02*
X97647619Y-90830521D01*
X97647619Y-90563855D02*
X97685715Y-90601950D01*
X97685715Y-90601950D02*
X97647619Y-90640045D01*
X97647619Y-90640045D02*
X97609524Y-90601950D01*
X97609524Y-90601950D02*
X97647619Y-90563855D01*
X97647619Y-90563855D02*
X97647619Y-90640045D01*
X97266667Y-90830521D02*
X97266667Y-91363855D01*
X97266667Y-90906712D02*
X97228572Y-90868617D01*
X97228572Y-90868617D02*
X97152382Y-90830521D01*
X97152382Y-90830521D02*
X97038096Y-90830521D01*
X97038096Y-90830521D02*
X96961905Y-90868617D01*
X96961905Y-90868617D02*
X96923810Y-90944807D01*
X96923810Y-90944807D02*
X96923810Y-91363855D01*
X96542857Y-91363855D02*
X96542857Y-90563855D01*
X96466667Y-91059093D02*
X96238095Y-91363855D01*
X96238095Y-90830521D02*
X96542857Y-91135283D01*
X95361905Y-90830521D02*
X95171429Y-91363855D01*
X95171429Y-91363855D02*
X94980952Y-90830521D01*
X94257143Y-91363855D02*
X94714286Y-91363855D01*
X94485714Y-91363855D02*
X94485714Y-90563855D01*
X94485714Y-90563855D02*
X94561905Y-90678140D01*
X94561905Y-90678140D02*
X94638095Y-90754331D01*
X94638095Y-90754331D02*
X94714286Y-90792426D01*
X93914285Y-91287664D02*
X93876190Y-91325760D01*
X93876190Y-91325760D02*
X93914285Y-91363855D01*
X93914285Y-91363855D02*
X93952381Y-91325760D01*
X93952381Y-91325760D02*
X93914285Y-91287664D01*
X93914285Y-91287664D02*
X93914285Y-91363855D01*
X93114286Y-91363855D02*
X93571429Y-91363855D01*
X93342857Y-91363855D02*
X93342857Y-90563855D01*
X93342857Y-90563855D02*
X93419048Y-90678140D01*
X93419048Y-90678140D02*
X93495238Y-90754331D01*
X93495238Y-90754331D02*
X93571429Y-90792426D01*
X95294046Y-67636987D02*
X95294046Y-68244130D01*
X95294046Y-68244130D02*
X95334523Y-68365558D01*
X95334523Y-68365558D02*
X95415475Y-68446511D01*
X95415475Y-68446511D02*
X95536904Y-68486987D01*
X95536904Y-68486987D02*
X95617856Y-68486987D01*
X94970237Y-67636987D02*
X94444046Y-67636987D01*
X94444046Y-67636987D02*
X94727380Y-67960796D01*
X94727380Y-67960796D02*
X94605951Y-67960796D01*
X94605951Y-67960796D02*
X94524999Y-68001272D01*
X94524999Y-68001272D02*
X94484523Y-68041749D01*
X94484523Y-68041749D02*
X94444046Y-68122701D01*
X94444046Y-68122701D02*
X94444046Y-68325082D01*
X94444046Y-68325082D02*
X94484523Y-68406034D01*
X94484523Y-68406034D02*
X94524999Y-68446511D01*
X94524999Y-68446511D02*
X94605951Y-68486987D01*
X94605951Y-68486987D02*
X94848808Y-68486987D01*
X94848808Y-68486987D02*
X94929761Y-68446511D01*
X94929761Y-68446511D02*
X94970237Y-68406034D01*
X93432142Y-68486987D02*
X93432142Y-67636987D01*
X93432142Y-67636987D02*
X93108332Y-67636987D01*
X93108332Y-67636987D02*
X93027380Y-67677463D01*
X93027380Y-67677463D02*
X92986903Y-67717939D01*
X92986903Y-67717939D02*
X92946427Y-67798891D01*
X92946427Y-67798891D02*
X92946427Y-67920320D01*
X92946427Y-67920320D02*
X92986903Y-68001272D01*
X92986903Y-68001272D02*
X93027380Y-68041749D01*
X93027380Y-68041749D02*
X93108332Y-68082225D01*
X93108332Y-68082225D02*
X93432142Y-68082225D01*
X92582142Y-68486987D02*
X92582142Y-67636987D01*
X92177380Y-68486987D02*
X92177380Y-67636987D01*
X92177380Y-67636987D02*
X91691665Y-68486987D01*
X91691665Y-68486987D02*
X91691665Y-67636987D01*
X91124999Y-67636987D02*
X90963094Y-67636987D01*
X90963094Y-67636987D02*
X90882142Y-67677463D01*
X90882142Y-67677463D02*
X90801189Y-67758415D01*
X90801189Y-67758415D02*
X90760713Y-67920320D01*
X90760713Y-67920320D02*
X90760713Y-68203653D01*
X90760713Y-68203653D02*
X90801189Y-68365558D01*
X90801189Y-68365558D02*
X90882142Y-68446511D01*
X90882142Y-68446511D02*
X90963094Y-68486987D01*
X90963094Y-68486987D02*
X91124999Y-68486987D01*
X91124999Y-68486987D02*
X91205951Y-68446511D01*
X91205951Y-68446511D02*
X91286904Y-68365558D01*
X91286904Y-68365558D02*
X91327380Y-68203653D01*
X91327380Y-68203653D02*
X91327380Y-67920320D01*
X91327380Y-67920320D02*
X91286904Y-67758415D01*
X91286904Y-67758415D02*
X91205951Y-67677463D01*
X91205951Y-67677463D02*
X91124999Y-67636987D01*
X90396428Y-67636987D02*
X90396428Y-68325082D01*
X90396428Y-68325082D02*
X90355951Y-68406034D01*
X90355951Y-68406034D02*
X90315475Y-68446511D01*
X90315475Y-68446511D02*
X90234523Y-68486987D01*
X90234523Y-68486987D02*
X90072618Y-68486987D01*
X90072618Y-68486987D02*
X89991666Y-68446511D01*
X89991666Y-68446511D02*
X89951189Y-68406034D01*
X89951189Y-68406034D02*
X89910713Y-68325082D01*
X89910713Y-68325082D02*
X89910713Y-67636987D01*
X89627380Y-67636987D02*
X89141666Y-67636987D01*
X89384523Y-68486987D02*
X89384523Y-67636987D01*
X104994046Y-67636987D02*
X104994046Y-68244130D01*
X104994046Y-68244130D02*
X105034523Y-68365558D01*
X105034523Y-68365558D02*
X105115475Y-68446511D01*
X105115475Y-68446511D02*
X105236904Y-68486987D01*
X105236904Y-68486987D02*
X105317856Y-68486987D01*
X104144046Y-68486987D02*
X104629761Y-68486987D01*
X104386904Y-68486987D02*
X104386904Y-67636987D01*
X104386904Y-67636987D02*
X104467856Y-67758415D01*
X104467856Y-67758415D02*
X104548808Y-67839368D01*
X104548808Y-67839368D02*
X104629761Y-67879844D01*
X103132142Y-68486987D02*
X103132142Y-67636987D01*
X103132142Y-67636987D02*
X102808332Y-67636987D01*
X102808332Y-67636987D02*
X102727380Y-67677463D01*
X102727380Y-67677463D02*
X102686903Y-67717939D01*
X102686903Y-67717939D02*
X102646427Y-67798891D01*
X102646427Y-67798891D02*
X102646427Y-67920320D01*
X102646427Y-67920320D02*
X102686903Y-68001272D01*
X102686903Y-68001272D02*
X102727380Y-68041749D01*
X102727380Y-68041749D02*
X102808332Y-68082225D01*
X102808332Y-68082225D02*
X103132142Y-68082225D01*
X102282142Y-68486987D02*
X102282142Y-67636987D01*
X101877380Y-68486987D02*
X101877380Y-67636987D01*
X101877380Y-67636987D02*
X101391665Y-68486987D01*
X101391665Y-68486987D02*
X101391665Y-67636987D01*
X100824999Y-67636987D02*
X100663094Y-67636987D01*
X100663094Y-67636987D02*
X100582142Y-67677463D01*
X100582142Y-67677463D02*
X100501189Y-67758415D01*
X100501189Y-67758415D02*
X100460713Y-67920320D01*
X100460713Y-67920320D02*
X100460713Y-68203653D01*
X100460713Y-68203653D02*
X100501189Y-68365558D01*
X100501189Y-68365558D02*
X100582142Y-68446511D01*
X100582142Y-68446511D02*
X100663094Y-68486987D01*
X100663094Y-68486987D02*
X100824999Y-68486987D01*
X100824999Y-68486987D02*
X100905951Y-68446511D01*
X100905951Y-68446511D02*
X100986904Y-68365558D01*
X100986904Y-68365558D02*
X101027380Y-68203653D01*
X101027380Y-68203653D02*
X101027380Y-67920320D01*
X101027380Y-67920320D02*
X100986904Y-67758415D01*
X100986904Y-67758415D02*
X100905951Y-67677463D01*
X100905951Y-67677463D02*
X100824999Y-67636987D01*
X100096428Y-67636987D02*
X100096428Y-68325082D01*
X100096428Y-68325082D02*
X100055951Y-68406034D01*
X100055951Y-68406034D02*
X100015475Y-68446511D01*
X100015475Y-68446511D02*
X99934523Y-68486987D01*
X99934523Y-68486987D02*
X99772618Y-68486987D01*
X99772618Y-68486987D02*
X99691666Y-68446511D01*
X99691666Y-68446511D02*
X99651189Y-68406034D01*
X99651189Y-68406034D02*
X99610713Y-68325082D01*
X99610713Y-68325082D02*
X99610713Y-67636987D01*
X99327380Y-67636987D02*
X98841666Y-67636987D01*
X99084523Y-68486987D02*
X99084523Y-67636987D01*
X101521428Y-89567260D02*
X101392857Y-89610117D01*
X101392857Y-89610117D02*
X101178571Y-89610117D01*
X101178571Y-89610117D02*
X101092857Y-89567260D01*
X101092857Y-89567260D02*
X101049999Y-89524402D01*
X101049999Y-89524402D02*
X101007142Y-89438688D01*
X101007142Y-89438688D02*
X101007142Y-89352974D01*
X101007142Y-89352974D02*
X101049999Y-89267260D01*
X101049999Y-89267260D02*
X101092857Y-89224402D01*
X101092857Y-89224402D02*
X101178571Y-89181545D01*
X101178571Y-89181545D02*
X101349999Y-89138688D01*
X101349999Y-89138688D02*
X101435714Y-89095831D01*
X101435714Y-89095831D02*
X101478571Y-89052974D01*
X101478571Y-89052974D02*
X101521428Y-88967260D01*
X101521428Y-88967260D02*
X101521428Y-88881545D01*
X101521428Y-88881545D02*
X101478571Y-88795831D01*
X101478571Y-88795831D02*
X101435714Y-88752974D01*
X101435714Y-88752974D02*
X101349999Y-88710117D01*
X101349999Y-88710117D02*
X101135714Y-88710117D01*
X101135714Y-88710117D02*
X101007142Y-88752974D01*
X100749999Y-88710117D02*
X100235714Y-88710117D01*
X100492856Y-89610117D02*
X100492856Y-88710117D01*
X99935714Y-89610117D02*
X99935714Y-88710117D01*
X99935714Y-88710117D02*
X99635714Y-89352974D01*
X99635714Y-89352974D02*
X99335714Y-88710117D01*
X99335714Y-88710117D02*
X99335714Y-89610117D01*
X98992857Y-88710117D02*
X98435714Y-88710117D01*
X98435714Y-88710117D02*
X98735714Y-89052974D01*
X98735714Y-89052974D02*
X98607143Y-89052974D01*
X98607143Y-89052974D02*
X98521429Y-89095831D01*
X98521429Y-89095831D02*
X98478571Y-89138688D01*
X98478571Y-89138688D02*
X98435714Y-89224402D01*
X98435714Y-89224402D02*
X98435714Y-89438688D01*
X98435714Y-89438688D02*
X98478571Y-89524402D01*
X98478571Y-89524402D02*
X98521429Y-89567260D01*
X98521429Y-89567260D02*
X98607143Y-89610117D01*
X98607143Y-89610117D02*
X98864286Y-89610117D01*
X98864286Y-89610117D02*
X98950000Y-89567260D01*
X98950000Y-89567260D02*
X98992857Y-89524402D01*
X98092857Y-88795831D02*
X98050000Y-88752974D01*
X98050000Y-88752974D02*
X97964286Y-88710117D01*
X97964286Y-88710117D02*
X97750000Y-88710117D01*
X97750000Y-88710117D02*
X97664286Y-88752974D01*
X97664286Y-88752974D02*
X97621428Y-88795831D01*
X97621428Y-88795831D02*
X97578571Y-88881545D01*
X97578571Y-88881545D02*
X97578571Y-88967260D01*
X97578571Y-88967260D02*
X97621428Y-89095831D01*
X97621428Y-89095831D02*
X98135714Y-89610117D01*
X98135714Y-89610117D02*
X97578571Y-89610117D01*
X96892857Y-89138688D02*
X97192857Y-89138688D01*
X97192857Y-89610117D02*
X97192857Y-88710117D01*
X97192857Y-88710117D02*
X96764285Y-88710117D01*
X95949999Y-89610117D02*
X96464285Y-89610117D01*
X96207142Y-89610117D02*
X96207142Y-88710117D01*
X96207142Y-88710117D02*
X96292856Y-88838688D01*
X96292856Y-88838688D02*
X96378571Y-88924402D01*
X96378571Y-88924402D02*
X96464285Y-88967260D01*
X95392856Y-88710117D02*
X95307142Y-88710117D01*
X95307142Y-88710117D02*
X95221428Y-88752974D01*
X95221428Y-88752974D02*
X95178571Y-88795831D01*
X95178571Y-88795831D02*
X95135713Y-88881545D01*
X95135713Y-88881545D02*
X95092856Y-89052974D01*
X95092856Y-89052974D02*
X95092856Y-89267260D01*
X95092856Y-89267260D02*
X95135713Y-89438688D01*
X95135713Y-89438688D02*
X95178571Y-89524402D01*
X95178571Y-89524402D02*
X95221428Y-89567260D01*
X95221428Y-89567260D02*
X95307142Y-89610117D01*
X95307142Y-89610117D02*
X95392856Y-89610117D01*
X95392856Y-89610117D02*
X95478571Y-89567260D01*
X95478571Y-89567260D02*
X95521428Y-89524402D01*
X95521428Y-89524402D02*
X95564285Y-89438688D01*
X95564285Y-89438688D02*
X95607142Y-89267260D01*
X95607142Y-89267260D02*
X95607142Y-89052974D01*
X95607142Y-89052974D02*
X95564285Y-88881545D01*
X95564285Y-88881545D02*
X95521428Y-88795831D01*
X95521428Y-88795831D02*
X95478571Y-88752974D01*
X95478571Y-88752974D02*
X95392856Y-88710117D01*
X94792856Y-88710117D02*
X94235713Y-88710117D01*
X94235713Y-88710117D02*
X94535713Y-89052974D01*
X94535713Y-89052974D02*
X94407142Y-89052974D01*
X94407142Y-89052974D02*
X94321428Y-89095831D01*
X94321428Y-89095831D02*
X94278570Y-89138688D01*
X94278570Y-89138688D02*
X94235713Y-89224402D01*
X94235713Y-89224402D02*
X94235713Y-89438688D01*
X94235713Y-89438688D02*
X94278570Y-89524402D01*
X94278570Y-89524402D02*
X94321428Y-89567260D01*
X94321428Y-89567260D02*
X94407142Y-89610117D01*
X94407142Y-89610117D02*
X94664285Y-89610117D01*
X94664285Y-89610117D02*
X94749999Y-89567260D01*
X94749999Y-89567260D02*
X94792856Y-89524402D01*
X93335713Y-89524402D02*
X93378570Y-89567260D01*
X93378570Y-89567260D02*
X93507142Y-89610117D01*
X93507142Y-89610117D02*
X93592856Y-89610117D01*
X93592856Y-89610117D02*
X93721427Y-89567260D01*
X93721427Y-89567260D02*
X93807142Y-89481545D01*
X93807142Y-89481545D02*
X93849999Y-89395831D01*
X93849999Y-89395831D02*
X93892856Y-89224402D01*
X93892856Y-89224402D02*
X93892856Y-89095831D01*
X93892856Y-89095831D02*
X93849999Y-88924402D01*
X93849999Y-88924402D02*
X93807142Y-88838688D01*
X93807142Y-88838688D02*
X93721427Y-88752974D01*
X93721427Y-88752974D02*
X93592856Y-88710117D01*
X93592856Y-88710117D02*
X93507142Y-88710117D01*
X93507142Y-88710117D02*
X93378570Y-88752974D01*
X93378570Y-88752974D02*
X93335713Y-88795831D01*
X92821427Y-89095831D02*
X92907142Y-89052974D01*
X92907142Y-89052974D02*
X92949999Y-89010117D01*
X92949999Y-89010117D02*
X92992856Y-88924402D01*
X92992856Y-88924402D02*
X92992856Y-88881545D01*
X92992856Y-88881545D02*
X92949999Y-88795831D01*
X92949999Y-88795831D02*
X92907142Y-88752974D01*
X92907142Y-88752974D02*
X92821427Y-88710117D01*
X92821427Y-88710117D02*
X92649999Y-88710117D01*
X92649999Y-88710117D02*
X92564285Y-88752974D01*
X92564285Y-88752974D02*
X92521427Y-88795831D01*
X92521427Y-88795831D02*
X92478570Y-88881545D01*
X92478570Y-88881545D02*
X92478570Y-88924402D01*
X92478570Y-88924402D02*
X92521427Y-89010117D01*
X92521427Y-89010117D02*
X92564285Y-89052974D01*
X92564285Y-89052974D02*
X92649999Y-89095831D01*
X92649999Y-89095831D02*
X92821427Y-89095831D01*
X92821427Y-89095831D02*
X92907142Y-89138688D01*
X92907142Y-89138688D02*
X92949999Y-89181545D01*
X92949999Y-89181545D02*
X92992856Y-89267260D01*
X92992856Y-89267260D02*
X92992856Y-89438688D01*
X92992856Y-89438688D02*
X92949999Y-89524402D01*
X92949999Y-89524402D02*
X92907142Y-89567260D01*
X92907142Y-89567260D02*
X92821427Y-89610117D01*
X92821427Y-89610117D02*
X92649999Y-89610117D01*
X92649999Y-89610117D02*
X92564285Y-89567260D01*
X92564285Y-89567260D02*
X92521427Y-89524402D01*
X92521427Y-89524402D02*
X92478570Y-89438688D01*
X92478570Y-89438688D02*
X92478570Y-89267260D01*
X92478570Y-89267260D02*
X92521427Y-89181545D01*
X92521427Y-89181545D02*
X92564285Y-89138688D01*
X92564285Y-89138688D02*
X92649999Y-89095831D01*
M02*
