%TF.GenerationSoftware,KiCad,Pcbnew,10.0.4*%
%TF.CreationDate,2026-09-10T17:02:07-04:00*%
%TF.ProjectId,nicklink,7063625f-6865-46c6-9c6f-5f776f726c64,rev?*%
%TF.SameCoordinates,Original*%
%TF.FileFunction,Copper,L2,Bot*%
%TF.FilePolarity,Positive*%
%FSLAX46Y46*%
G04 Gerber Fmt 4.6, Leading zero omitted, Abs format (unit mm)*
G04 Created by KiCad (PCBNEW 10.0.4) date 2026-09-10 17:02:07*
%MOMM*%
%LPD*%
G01*
G04 APERTURE LIST*
%TA.AperFunction,ComponentPad*%
%ADD10C,0.700000*%
%TD*%
%TA.AperFunction,ComponentPad*%
%ADD11O,0.900000X2.400000*%
%TD*%
%TA.AperFunction,ComponentPad*%
%ADD12O,0.900000X1.700000*%
%TD*%
%TA.AperFunction,ComponentPad*%
%ADD13R,1.700000X1.700000*%
%TD*%
%TA.AperFunction,ComponentPad*%
%ADD14C,1.700000*%
%TD*%
%TA.AperFunction,ViaPad*%
%ADD15C,0.600000*%
%TD*%
%TA.AperFunction,Conductor*%
%ADD16C,0.300000*%
%TD*%
%TA.AperFunction,Conductor*%
%ADD17C,0.250000*%
%TD*%
%TA.AperFunction,Conductor*%
%ADD18C,0.150000*%
%TD*%
%TA.AperFunction,Conductor*%
%ADD19C,0.200000*%
%TD*%
G04 APERTURE END LIST*
D10*
%TO.P,J2,A1*%
%TO.N,GND*%
X97175000Y-66625000D03*
%TO.P,J2,A4*%
%TO.N,VBUS*%
X96325000Y-66625000D03*
%TO.P,J2,A5*%
%TO.N,/USB_CC1*%
X95475000Y-66625000D03*
%TO.P,J2,A6*%
%TO.N,/USB_D+*%
X94625000Y-66625000D03*
%TO.P,J2,A7*%
%TO.N,/USB_D-*%
X93775000Y-66625000D03*
%TO.P,J2,A8*%
%TO.N,unconnected-(J2-SBU1-PadA8)*%
X92925000Y-66625000D03*
%TO.P,J2,A9*%
%TO.N,VBUS*%
X92075000Y-66625000D03*
%TO.P,J2,A12*%
%TO.N,GND*%
X91225000Y-66625000D03*
%TO.P,J2,B1*%
X91225000Y-65275000D03*
%TO.P,J2,B4*%
%TO.N,VBUS*%
X92075000Y-65275000D03*
%TO.P,J2,B5*%
%TO.N,/USB_CC2*%
X92925000Y-65275000D03*
%TO.P,J2,B6*%
%TO.N,/USB_D+*%
X93775000Y-65275000D03*
%TO.P,J2,B7*%
%TO.N,/USB_D-*%
X94625000Y-65275000D03*
%TO.P,J2,B8*%
%TO.N,unconnected-(J2-SBU2-PadB8)*%
X95475000Y-65275000D03*
%TO.P,J2,B9*%
%TO.N,VBUS*%
X96325000Y-65275000D03*
%TO.P,J2,B12*%
%TO.N,GND*%
X97175000Y-65275000D03*
D11*
%TO.P,J2,SH*%
X98525000Y-65645000D03*
D12*
X98525000Y-62265000D03*
D11*
X89875000Y-65645000D03*
D12*
X89875000Y-62265000D03*
%TD*%
D13*
%TO.P,J3,1*%
%TO.N,+3.3V*%
X83000000Y-67300000D03*
D14*
%TO.P,J3,2*%
%TO.N,GND*%
X85540000Y-67300000D03*
%TO.P,J3,3*%
%TO.N,/CAN_RX*%
X83000000Y-69840000D03*
%TO.P,J3,4*%
%TO.N,/CAN_TX*%
X85540000Y-69840000D03*
%TO.P,J3,5*%
%TO.N,/I2C1_SCL*%
X83000000Y-72380000D03*
%TO.P,J3,6*%
%TO.N,/I2C1_SDA*%
X85540000Y-72380000D03*
%TO.P,J3,7*%
%TO.N,/PB5*%
X83000000Y-74920000D03*
%TO.P,J3,8*%
%TO.N,/PB4*%
X85540000Y-74920000D03*
%TO.P,J3,9*%
%TO.N,/PB3*%
X83000000Y-77460000D03*
%TO.P,J3,10*%
%TO.N,/PA15*%
X85540000Y-77460000D03*
%TO.P,J3,11*%
%TO.N,/SWCLK*%
X83000000Y-80000000D03*
%TO.P,J3,12*%
%TO.N,/SWDIO*%
X85540000Y-80000000D03*
%TO.P,J3,13*%
%TO.N,/USART1_TX*%
X83000000Y-82540000D03*
%TO.P,J3,14*%
%TO.N,/USART1_RX*%
X85540000Y-82540000D03*
%TO.P,J3,15*%
%TO.N,/PA8*%
X83000000Y-85080000D03*
%TO.P,J3,16*%
%TO.N,/PB15*%
X85540000Y-85080000D03*
%TO.P,J3,17*%
%TO.N,/PB14*%
X83000000Y-87620000D03*
%TO.P,J3,18*%
%TO.N,/PB13*%
X85540000Y-87620000D03*
%TO.P,J3,19*%
%TO.N,/PB12*%
X83000000Y-90160000D03*
%TO.P,J3,20*%
%TO.N,GND*%
X85540000Y-90160000D03*
%TD*%
D13*
%TO.P,J1,1*%
%TO.N,+3.3V*%
X109200000Y-67300000D03*
D14*
%TO.P,J1,2*%
%TO.N,GND*%
X111740000Y-67300000D03*
%TO.P,J1,3*%
%TO.N,/PC13*%
X109200000Y-69840000D03*
%TO.P,J1,4*%
%TO.N,/PC14*%
X111740000Y-69840000D03*
%TO.P,J1,5*%
%TO.N,/PC15*%
X109200000Y-72380000D03*
%TO.P,J1,6*%
%TO.N,/NRST*%
X111740000Y-72380000D03*
%TO.P,J1,7*%
%TO.N,/PA0*%
X109200000Y-74920000D03*
%TO.P,J1,8*%
%TO.N,/PA1*%
X111740000Y-74920000D03*
%TO.P,J1,9*%
%TO.N,/PA2*%
X109200000Y-77460000D03*
%TO.P,J1,10*%
%TO.N,/PA3*%
X111740000Y-77460000D03*
%TO.P,J1,11*%
%TO.N,/PA4*%
X109200000Y-80000000D03*
%TO.P,J1,12*%
%TO.N,/SPI1_SCK*%
X111740000Y-80000000D03*
%TO.P,J1,13*%
%TO.N,/SPI1_MISO*%
X109200000Y-82540000D03*
%TO.P,J1,14*%
%TO.N,/SPI1_MOSI*%
X111740000Y-82540000D03*
%TO.P,J1,15*%
%TO.N,/PB0*%
X109200000Y-85080000D03*
%TO.P,J1,16*%
%TO.N,/PB1*%
X111740000Y-85080000D03*
%TO.P,J1,17*%
%TO.N,/PB2*%
X109200000Y-87620000D03*
%TO.P,J1,18*%
%TO.N,/PB10*%
X111740000Y-87620000D03*
%TO.P,J1,19*%
%TO.N,/PB11*%
X109200000Y-90160000D03*
%TO.P,J1,20*%
%TO.N,GND*%
X111740000Y-90160000D03*
%TD*%
D15*
%TO.N,+3.3V*%
X90000000Y-74300000D03*
X90000000Y-84500000D03*
X101975000Y-84258400D03*
X96000000Y-73000000D03*
X105456200Y-79662900D03*
%TO.N,GND*%
X89000000Y-67500000D03*
X87000000Y-91500000D03*
X87500000Y-66000000D03*
X98100000Y-86650000D03*
X100000000Y-72000000D03*
X97000000Y-91800000D03*
X107000000Y-90000000D03*
X102500000Y-87500000D03*
X106500000Y-71000000D03*
X98800000Y-88300000D03*
%TO.N,/I2C1_SDA*%
X88636100Y-81653000D03*
%TO.N,VBUS*%
X102496300Y-75640700D03*
%TO.N,/BOOT_SELECT*%
X103213900Y-65439500D03*
X90291400Y-73149200D03*
%TO.N,/PB2*%
X102741200Y-82571300D03*
%TO.N,/PC13*%
X93532400Y-83628600D03*
%TO.N,/PC14*%
X94264200Y-83641500D03*
%TO.N,/PC15*%
X94703600Y-83045800D03*
%TO.N,/NRST*%
X95364600Y-83667100D03*
X94878900Y-88735100D03*
%TO.N,/PA0*%
X98686800Y-83292700D03*
%TO.N,/PA1*%
X100392300Y-84032300D03*
%TO.N,/PA2*%
X99096800Y-85324900D03*
%TO.N,/PA3*%
X101153500Y-83995200D03*
%TO.N,/PA4*%
X101048900Y-83139300D03*
%TO.N,/SPI1_SCK*%
X98680600Y-82450000D03*
%TO.N,/SPI1_MISO*%
X103428100Y-83751700D03*
%TO.N,/SPI1_MOSI*%
X98691500Y-81450000D03*
%TO.N,/PB0*%
X98173900Y-80807000D03*
%TO.N,/PB1*%
X103278700Y-82071100D03*
%TO.N,/PB11*%
X97040000Y-81236500D03*
%TO.N,/PB12*%
X97914600Y-78562700D03*
%TO.N,/PB13*%
X97796000Y-75367300D03*
%TO.N,/PB14*%
X93631800Y-80822100D03*
%TO.N,/PB15*%
X93837400Y-79365400D03*
%TO.N,/PA8*%
X96880600Y-75184500D03*
%TO.N,/USART1_TX*%
X94738700Y-78254000D03*
%TO.N,/USART1_RX*%
X94180100Y-77735600D03*
%TO.N,/USB_D-*%
X93775000Y-68000000D03*
X95150000Y-68000000D03*
%TO.N,/SWDIO*%
X91115800Y-71608200D03*
%TO.N,/USB_CC1*%
X91830600Y-68619400D03*
%TD*%
%TO.N,+3.3V*%
D16*
X91300000Y-73000000D02*
X96000000Y-73000000D01*
X105456200Y-79662900D02*
X104770800Y-79662900D01*
X104770800Y-79662900D02*
X101975000Y-82458700D01*
X90000000Y-74300000D02*
X90000000Y-84500000D01*
X101975000Y-82458700D02*
X101975000Y-84258400D01*
X90000000Y-74300000D02*
X91300000Y-73000000D01*
%TO.N,GND*%
D17*
X91130400Y-65051500D02*
X91131900Y-65050000D01*
X97269700Y-65051500D02*
X97931500Y-65051500D01*
X96924000Y-64855800D02*
X97118200Y-65050000D01*
X91281900Y-65050000D02*
X91476100Y-64855800D01*
X91131900Y-65050000D02*
X91281900Y-65050000D01*
X97175000Y-65275000D02*
X97175000Y-66625000D01*
X96924000Y-64608400D02*
X96924000Y-64855800D01*
X98525000Y-63371700D02*
X98160700Y-63371700D01*
X91476100Y-64855800D02*
X91476100Y-64608400D01*
X97268200Y-65050000D02*
X97269700Y-65051500D01*
X91225000Y-65275000D02*
X91225000Y-66625000D01*
X89875000Y-62265000D02*
X89875000Y-63371700D01*
X90468500Y-65051500D02*
X91130400Y-65051500D01*
X97118200Y-65050000D02*
X97268200Y-65050000D01*
X98160700Y-63371700D02*
X96924000Y-64608400D01*
X90239400Y-63371700D02*
X89875000Y-63371700D01*
X98525000Y-62265000D02*
X98525000Y-63371700D01*
X91476100Y-64608400D02*
X90239400Y-63371700D01*
X89875000Y-65645000D02*
X90468500Y-65051500D01*
X97931500Y-65051500D02*
X98525000Y-65645000D01*
%TO.N,/I2C1_SDA*%
D18*
X85069800Y-81087100D02*
X88070200Y-81087100D01*
X84440000Y-73480000D02*
X84440000Y-80457300D01*
X84440000Y-80457300D02*
X85069800Y-81087100D01*
X85540000Y-72380000D02*
X84440000Y-73480000D01*
X88070200Y-81087100D02*
X88636100Y-81653000D01*
%TO.N,VBUS*%
D16*
X92075000Y-65275000D02*
X92075000Y-66625000D01*
X96325000Y-65275000D02*
X96325000Y-66625000D01*
X96325000Y-66625000D02*
X96325000Y-69469400D01*
X96325000Y-69469400D02*
X102496300Y-75640700D01*
%TO.N,/BOOT_SELECT*%
D18*
X100798100Y-76192300D02*
X102674300Y-76192300D01*
X102674300Y-76192300D02*
X103213900Y-75652700D01*
X91005500Y-72435100D02*
X97040900Y-72435100D01*
X103213900Y-75652700D02*
X103213900Y-65439500D01*
X90291400Y-73149200D02*
X91005500Y-72435100D01*
X97040900Y-72435100D02*
X100798100Y-76192300D01*
%TO.N,/PB2*%
X102582700Y-84033200D02*
X102582700Y-82729800D01*
X109200000Y-87620000D02*
X106169500Y-87620000D01*
X106169500Y-87620000D02*
X102582700Y-84033200D01*
X102582700Y-82729800D02*
X102741200Y-82571300D01*
%TO.N,/PC13*%
X93532400Y-83628600D02*
X93532400Y-83032600D01*
X99908600Y-79413100D02*
X109200000Y-70121700D01*
X93532400Y-83032600D02*
X97151900Y-79413100D01*
X109200000Y-70121700D02*
X109200000Y-69840000D01*
X97151900Y-79413100D02*
X99908600Y-79413100D01*
%TO.N,/PC14*%
X110470000Y-71110000D02*
X111740000Y-69840000D01*
X94264200Y-83641500D02*
X94172600Y-83549900D01*
X108726900Y-71110000D02*
X110470000Y-71110000D01*
X100142100Y-79694800D02*
X108726900Y-71110000D01*
X97309400Y-79694800D02*
X100142100Y-79694800D01*
X94172600Y-83549900D02*
X94172600Y-82831600D01*
X94172600Y-82831600D02*
X97309400Y-79694800D01*
%TO.N,/PC15*%
X100264400Y-80075300D02*
X107959700Y-72380000D01*
X107959700Y-72380000D02*
X109200000Y-72380000D01*
X97484300Y-80075300D02*
X100264400Y-80075300D01*
X94703600Y-83045800D02*
X94703600Y-82856000D01*
X94703600Y-82856000D02*
X97484300Y-80075300D01*
%TO.N,/NRST*%
X94878900Y-88735100D02*
X98032600Y-91888800D01*
X111459700Y-86397800D02*
X111953500Y-86397800D01*
X111953500Y-86397800D02*
X113389100Y-84962200D01*
X94878900Y-88735100D02*
X94878900Y-84152800D01*
X113389100Y-74029100D02*
X111740000Y-72380000D01*
X110638400Y-87219100D02*
X111459700Y-86397800D01*
X110638400Y-90232000D02*
X110638400Y-87219100D01*
X108981600Y-91888800D02*
X110638400Y-90232000D01*
X113389100Y-84962200D02*
X113389100Y-74029100D01*
X98032600Y-91888800D02*
X108981600Y-91888800D01*
X94878900Y-84152800D02*
X95364600Y-83667100D01*
%TO.N,/PA0*%
X109200000Y-74920000D02*
X107059500Y-74920000D01*
X107059500Y-74920000D02*
X98686800Y-83292700D01*
%TO.N,/PA1*%
X110470100Y-77686500D02*
X109588100Y-78568500D01*
X100392300Y-82731400D02*
X100392300Y-84032300D01*
X104555200Y-78568500D02*
X100392300Y-82731400D01*
X110470100Y-76189900D02*
X110470100Y-77686500D01*
X111740000Y-74920000D02*
X110470100Y-76189900D01*
X109588100Y-78568500D02*
X104555200Y-78568500D01*
%TO.N,/PA2*%
X99096800Y-83628400D02*
X99096800Y-85324900D01*
X109200000Y-77460000D02*
X105265200Y-77460000D01*
X105265200Y-77460000D02*
X99096800Y-83628400D01*
%TO.N,/PA3*%
X111740000Y-77460000D02*
X110470100Y-78729900D01*
X104788800Y-79131900D02*
X101618300Y-82302400D01*
X110470100Y-78729900D02*
X110470100Y-80256800D01*
X101618300Y-82302400D02*
X101618300Y-83530400D01*
X110470100Y-80256800D02*
X109670200Y-81056700D01*
X108135500Y-81056700D02*
X106210700Y-79131900D01*
X109670200Y-81056700D02*
X108135500Y-81056700D01*
X106210700Y-79131900D02*
X104788800Y-79131900D01*
X101618300Y-83530400D02*
X101153500Y-83995200D01*
%TO.N,/PA4*%
X109200000Y-80000000D02*
X108050200Y-78850200D01*
X101048900Y-82473300D02*
X101048900Y-83139300D01*
X108050200Y-78850200D02*
X104672000Y-78850200D01*
X104672000Y-78850200D02*
X101048900Y-82473300D01*
%TO.N,/SPI1_SCK*%
X98680600Y-82450000D02*
X98931800Y-82450000D01*
X107522400Y-73859400D02*
X112178900Y-73859400D01*
X98931800Y-82450000D02*
X107522400Y-73859400D01*
X112805700Y-78934300D02*
X111740000Y-80000000D01*
X112178900Y-73859400D02*
X112805700Y-74486200D01*
X112805700Y-74486200D02*
X112805700Y-78934300D01*
%TO.N,/SPI1_MISO*%
X104639800Y-82540000D02*
X109200000Y-82540000D01*
X103428100Y-83751700D02*
X104639800Y-82540000D01*
%TO.N,/SPI1_MOSI*%
X98691500Y-81450000D02*
X99392200Y-81450000D01*
X113088900Y-74370900D02*
X113088900Y-81191100D01*
X113088900Y-81191100D02*
X111740000Y-82540000D01*
X107264500Y-73577700D02*
X112295700Y-73577700D01*
X99392200Y-81450000D02*
X107264500Y-73577700D01*
X112295700Y-73577700D02*
X113088900Y-74370900D01*
%TO.N,/PB0*%
X110306000Y-86186000D02*
X110306000Y-88071100D01*
X109200000Y-85080000D02*
X110306000Y-86186000D01*
X98916100Y-85915500D02*
X98173900Y-85173300D01*
X109673400Y-88703700D02*
X105704400Y-88703700D01*
X110306000Y-88071100D02*
X109673400Y-88703700D01*
X105704400Y-88703700D02*
X102916200Y-85915500D01*
X98173900Y-85173300D02*
X98173900Y-80807000D01*
X102916200Y-85915500D02*
X98916100Y-85915500D01*
%TO.N,/PB1*%
X102881200Y-83933200D02*
X103249100Y-84301100D01*
X103249100Y-84301100D02*
X104005500Y-84301100D01*
X103278700Y-82071100D02*
X103278700Y-83072500D01*
X102881200Y-83470000D02*
X102881200Y-83933200D01*
X104328100Y-83978500D02*
X110638500Y-83978500D01*
X104005500Y-84301100D02*
X104328100Y-83978500D01*
X110638500Y-83978500D02*
X111740000Y-85080000D01*
X103278700Y-83072500D02*
X102881200Y-83470000D01*
%TO.N,/PB11*%
X107797800Y-91562200D02*
X103839800Y-91562200D01*
X109200000Y-90160000D02*
X107797800Y-91562200D01*
X97040000Y-84762400D02*
X97040000Y-81236500D01*
X103839800Y-91562200D02*
X97040000Y-84762400D01*
%TO.N,/PB12*%
X93025500Y-83140300D02*
X97603100Y-78562700D01*
X84056700Y-89103300D02*
X88692700Y-89103300D01*
X93025500Y-84770500D02*
X93025500Y-83140300D01*
X88692700Y-89103300D02*
X93025500Y-84770500D01*
X97603100Y-78562700D02*
X97914600Y-78562700D01*
X83000000Y-90160000D02*
X84056700Y-89103300D01*
%TO.N,/PB13*%
X92462100Y-82708700D02*
X92462100Y-84536900D01*
X97796000Y-75367300D02*
X97796000Y-77374800D01*
X97796000Y-77374800D02*
X92462100Y-82708700D01*
X89379000Y-87620000D02*
X85540000Y-87620000D01*
X92462100Y-84536900D02*
X89379000Y-87620000D01*
%TO.N,/PB14*%
X83000000Y-87620000D02*
X84309000Y-86311000D01*
X92180400Y-82273500D02*
X93631800Y-80822100D01*
X92180400Y-84420100D02*
X92180400Y-82273500D01*
X84309000Y-86311000D02*
X90289500Y-86311000D01*
X90289500Y-86311000D02*
X92180400Y-84420100D01*
%TO.N,/PB15*%
X91379400Y-84762500D02*
X91379400Y-81823400D01*
X91379400Y-81823400D02*
X93837400Y-79365400D01*
X86130400Y-85670400D02*
X90471500Y-85670400D01*
X85540000Y-85080000D02*
X86130400Y-85670400D01*
X90471500Y-85670400D02*
X91379400Y-84762500D01*
%TO.N,/PA8*%
X96880600Y-75184500D02*
X97271500Y-74793600D01*
X97271500Y-74793600D02*
X97939100Y-74793600D01*
X98308700Y-75163200D02*
X98308700Y-77452000D01*
X97939100Y-74793600D02*
X98308700Y-75163200D01*
X92743800Y-84653700D02*
X88711400Y-88686100D01*
X88711400Y-88686100D02*
X82545400Y-88686100D01*
X81933600Y-88074300D02*
X81933600Y-86146400D01*
X81933600Y-86146400D02*
X83000000Y-85080000D01*
X82545400Y-88686100D02*
X81933600Y-88074300D01*
X92743800Y-83016900D02*
X92743800Y-84653700D01*
X98308700Y-77452000D02*
X92743800Y-83016900D01*
%TO.N,/USART1_TX*%
X89562100Y-85009500D02*
X90235500Y-85009500D01*
X84056700Y-81483300D02*
X86035900Y-81483300D01*
X94738700Y-77498000D02*
X94738700Y-78254000D01*
X90639400Y-80547500D02*
X94032100Y-77154800D01*
X94395500Y-77154800D02*
X94738700Y-77498000D01*
X83000000Y-82540000D02*
X84056700Y-81483300D01*
X90639400Y-84605600D02*
X90639400Y-80547500D01*
X86035900Y-81483300D02*
X89562100Y-85009500D01*
X90235500Y-85009500D02*
X90639400Y-84605600D01*
X94032100Y-77154800D02*
X94395500Y-77154800D01*
%TO.N,/USART1_RX*%
X90332600Y-85347100D02*
X91097700Y-84582000D01*
X88347100Y-85347100D02*
X90332600Y-85347100D01*
X91097700Y-80818000D02*
X94180100Y-77735600D01*
X85540000Y-82540000D02*
X88347100Y-85347100D01*
X91097700Y-84582000D02*
X91097700Y-80818000D01*
%TO.N,/USB_D-*%
D19*
X93775000Y-68000000D02*
X95150000Y-68000000D01*
X94625000Y-65275000D02*
X94625000Y-65675000D01*
X94625000Y-65675000D02*
X93775000Y-66525000D01*
X93775000Y-66525000D02*
X93775000Y-66625000D01*
%TO.N,/SWDIO*%
D18*
X87024800Y-75699200D02*
X87024800Y-78515200D01*
X87024800Y-78515200D02*
X85540000Y-80000000D01*
X91115800Y-71608200D02*
X87024800Y-75699200D01*
%TO.N,/USB_CC1*%
X94918300Y-67181700D02*
X93268300Y-67181700D01*
X95475000Y-66625000D02*
X94918300Y-67181700D01*
X93268300Y-67181700D02*
X91830600Y-68619400D01*
%TD*%
%TA.AperFunction,Conductor*%
%TO.N,GND*%
G36*
X112502897Y-60200728D02*
G01*
X112697487Y-60216042D01*
X112708949Y-60217858D01*
X112895910Y-60262743D01*
X112906938Y-60266326D01*
X113070200Y-60333951D01*
X113084582Y-60339909D01*
X113094928Y-60345181D01*
X113258860Y-60445638D01*
X113268254Y-60452463D01*
X113414457Y-60577331D01*
X113422668Y-60585542D01*
X113547536Y-60731745D01*
X113554361Y-60741139D01*
X113654818Y-60905071D01*
X113660090Y-60915417D01*
X113733670Y-61093053D01*
X113737258Y-61104097D01*
X113782140Y-61291046D01*
X113783957Y-61302515D01*
X113799272Y-61497102D01*
X113799500Y-61502908D01*
X113799500Y-73927955D01*
X113777826Y-73980281D01*
X113725500Y-74001955D01*
X113673174Y-73980281D01*
X113657133Y-73956273D01*
X113622659Y-73873044D01*
X113622657Y-73873041D01*
X112693096Y-72943480D01*
X112671422Y-72891154D01*
X112677054Y-72862839D01*
X112750130Y-72686420D01*
X112790500Y-72483465D01*
X112790500Y-72276535D01*
X112750130Y-72073580D01*
X112670941Y-71882402D01*
X112555977Y-71710345D01*
X112409655Y-71564023D01*
X112377151Y-71542305D01*
X112237598Y-71449059D01*
X112046420Y-71369870D01*
X112046413Y-71369868D01*
X111893516Y-71339455D01*
X111843465Y-71329500D01*
X111636535Y-71329500D01*
X111596385Y-71337486D01*
X111433586Y-71369868D01*
X111433579Y-71369870D01*
X111242401Y-71449059D01*
X111070345Y-71564022D01*
X111070344Y-71564024D01*
X110924024Y-71710344D01*
X110924022Y-71710345D01*
X110809059Y-71882401D01*
X110729870Y-72073579D01*
X110729868Y-72073586D01*
X110689500Y-72276535D01*
X110689500Y-72483464D01*
X110729868Y-72686413D01*
X110729870Y-72686420D01*
X110809059Y-72877598D01*
X110924022Y-73049654D01*
X111050242Y-73175874D01*
X111071916Y-73228200D01*
X111050242Y-73280526D01*
X110997916Y-73302200D01*
X109942084Y-73302200D01*
X109889758Y-73280526D01*
X109868084Y-73228200D01*
X109889758Y-73175874D01*
X110015976Y-73049656D01*
X110015977Y-73049655D01*
X110130941Y-72877598D01*
X110210130Y-72686420D01*
X110250500Y-72483465D01*
X110250500Y-72276535D01*
X110210130Y-72073580D01*
X110130941Y-71882402D01*
X110015977Y-71710345D01*
X109869655Y-71564023D01*
X109805308Y-71521028D01*
X109773843Y-71473937D01*
X109784892Y-71418388D01*
X109831984Y-71386922D01*
X109846421Y-71385500D01*
X110524798Y-71385500D01*
X110524800Y-71385500D01*
X110626058Y-71343557D01*
X110703557Y-71266058D01*
X110703556Y-71266058D01*
X110738517Y-71231097D01*
X110738516Y-71231097D01*
X111176519Y-70793095D01*
X111228844Y-70771422D01*
X111257161Y-70777054D01*
X111433580Y-70850130D01*
X111636535Y-70890500D01*
X111636536Y-70890500D01*
X111843464Y-70890500D01*
X111843465Y-70890500D01*
X112046420Y-70850130D01*
X112237598Y-70770941D01*
X112409655Y-70655977D01*
X112555977Y-70509655D01*
X112670941Y-70337598D01*
X112750130Y-70146420D01*
X112790500Y-69943465D01*
X112790500Y-69736535D01*
X112750130Y-69533580D01*
X112670941Y-69342402D01*
X112555977Y-69170345D01*
X112409655Y-69024023D01*
X112403484Y-69019900D01*
X112237598Y-68909059D01*
X112046420Y-68829870D01*
X112046413Y-68829868D01*
X111893516Y-68799455D01*
X111843465Y-68789500D01*
X111636535Y-68789500D01*
X111596385Y-68797486D01*
X111433586Y-68829868D01*
X111433579Y-68829870D01*
X111242401Y-68909059D01*
X111070345Y-69024022D01*
X111070344Y-69024024D01*
X110924024Y-69170344D01*
X110924022Y-69170345D01*
X110809059Y-69342401D01*
X110729870Y-69533579D01*
X110729868Y-69533586D01*
X110689500Y-69736535D01*
X110689500Y-69943464D01*
X110729868Y-70146413D01*
X110729870Y-70146420D01*
X110802944Y-70322835D01*
X110802944Y-70379473D01*
X110786903Y-70403480D01*
X110377559Y-70812826D01*
X110325233Y-70834500D01*
X109846421Y-70834500D01*
X109794095Y-70812826D01*
X109772421Y-70760500D01*
X109794095Y-70708174D01*
X109805309Y-70698971D01*
X109869655Y-70655977D01*
X110015977Y-70509655D01*
X110130941Y-70337598D01*
X110210130Y-70146420D01*
X110250500Y-69943465D01*
X110250500Y-69736535D01*
X110210130Y-69533580D01*
X110130941Y-69342402D01*
X110015977Y-69170345D01*
X109869655Y-69024023D01*
X109863484Y-69019900D01*
X109697598Y-68909059D01*
X109506420Y-68829870D01*
X109506413Y-68829868D01*
X109353516Y-68799455D01*
X109303465Y-68789500D01*
X109096535Y-68789500D01*
X109056385Y-68797486D01*
X108893586Y-68829868D01*
X108893579Y-68829870D01*
X108702401Y-68909059D01*
X108530345Y-69024022D01*
X108530344Y-69024024D01*
X108384024Y-69170344D01*
X108384022Y-69170345D01*
X108269059Y-69342401D01*
X108189870Y-69533579D01*
X108189868Y-69533586D01*
X108149500Y-69736535D01*
X108149500Y-69943464D01*
X108189868Y-70146413D01*
X108189870Y-70146420D01*
X108269059Y-70337598D01*
X108365666Y-70482182D01*
X108376715Y-70537731D01*
X108356463Y-70575620D01*
X103615726Y-75316358D01*
X103563400Y-75338032D01*
X103511074Y-75316358D01*
X103489400Y-75264032D01*
X103489400Y-66430253D01*
X108149500Y-66430253D01*
X108149500Y-68169746D01*
X108161133Y-68228232D01*
X108190608Y-68272343D01*
X108205448Y-68294552D01*
X108228042Y-68309649D01*
X108271767Y-68338866D01*
X108271768Y-68338866D01*
X108271769Y-68338867D01*
X108330252Y-68350500D01*
X108330254Y-68350500D01*
X110069746Y-68350500D01*
X110069748Y-68350500D01*
X110128231Y-68338867D01*
X110194552Y-68294552D01*
X110238867Y-68228231D01*
X110250500Y-68169748D01*
X110250500Y-67196584D01*
X110690000Y-67196584D01*
X110690000Y-67403415D01*
X110730348Y-67606267D01*
X110730350Y-67606274D01*
X110809502Y-67797362D01*
X110912183Y-67951036D01*
X111309269Y-67553951D01*
X111339901Y-67607007D01*
X111432993Y-67700099D01*
X111486046Y-67730729D01*
X111088961Y-68127814D01*
X111242637Y-68230497D01*
X111433725Y-68309649D01*
X111433732Y-68309651D01*
X111636584Y-68350000D01*
X111843416Y-68350000D01*
X112046267Y-68309651D01*
X112046274Y-68309649D01*
X112237361Y-68230498D01*
X112391037Y-68127815D01*
X112391037Y-68127814D01*
X111993953Y-67730729D01*
X112047007Y-67700099D01*
X112140099Y-67607007D01*
X112170729Y-67553952D01*
X112567814Y-67951037D01*
X112567815Y-67951037D01*
X112670498Y-67797361D01*
X112749649Y-67606274D01*
X112749651Y-67606267D01*
X112790000Y-67403415D01*
X112790000Y-67196584D01*
X112749651Y-66993732D01*
X112749649Y-66993725D01*
X112670497Y-66802637D01*
X112567814Y-66648961D01*
X112170729Y-67046045D01*
X112140099Y-66992993D01*
X112047007Y-66899901D01*
X111993951Y-66869269D01*
X112391037Y-66472183D01*
X112237362Y-66369502D01*
X112046274Y-66290350D01*
X112046267Y-66290348D01*
X111843416Y-66250000D01*
X111636584Y-66250000D01*
X111433732Y-66290348D01*
X111433725Y-66290350D01*
X111242637Y-66369502D01*
X111088961Y-66472183D01*
X111486047Y-66869270D01*
X111432993Y-66899901D01*
X111339901Y-66992993D01*
X111309270Y-67046047D01*
X110912183Y-66648961D01*
X110809502Y-66802637D01*
X110730350Y-66993725D01*
X110730348Y-66993732D01*
X110690000Y-67196584D01*
X110250500Y-67196584D01*
X110250500Y-66430252D01*
X110238867Y-66371769D01*
X110237352Y-66369502D01*
X110224027Y-66349560D01*
X110194552Y-66305448D01*
X110166919Y-66286984D01*
X110128232Y-66261133D01*
X110128233Y-66261133D01*
X110098989Y-66255316D01*
X110069748Y-66249500D01*
X108330252Y-66249500D01*
X108301010Y-66255316D01*
X108271767Y-66261133D01*
X108205449Y-66305447D01*
X108205447Y-66305449D01*
X108161133Y-66371767D01*
X108149500Y-66430253D01*
X103489400Y-66430253D01*
X103489400Y-65900904D01*
X103511074Y-65848578D01*
X103518356Y-65842193D01*
X103521212Y-65840001D01*
X103521211Y-65840001D01*
X103521214Y-65840000D01*
X103614400Y-65746814D01*
X103680292Y-65632686D01*
X103714399Y-65505394D01*
X103714400Y-65505394D01*
X103714400Y-65373606D01*
X103714399Y-65373605D01*
X103680293Y-65246318D01*
X103680292Y-65246314D01*
X103614400Y-65132186D01*
X103521214Y-65039000D01*
X103407090Y-64973110D01*
X103407081Y-64973106D01*
X103279794Y-64939000D01*
X103279792Y-64939000D01*
X103148008Y-64939000D01*
X103148006Y-64939000D01*
X103020718Y-64973106D01*
X103020709Y-64973110D01*
X102906585Y-65039000D01*
X102813400Y-65132185D01*
X102747510Y-65246309D01*
X102747506Y-65246318D01*
X102713400Y-65373605D01*
X102713400Y-65505394D01*
X102747506Y-65632681D01*
X102747510Y-65632690D01*
X102813400Y-65746814D01*
X102906587Y-65840001D01*
X102909444Y-65842193D01*
X102937766Y-65891240D01*
X102938400Y-65900904D01*
X102938400Y-75196334D01*
X102916726Y-75248660D01*
X102864400Y-75270334D01*
X102812074Y-75248660D01*
X102803614Y-75240200D01*
X102689490Y-75174310D01*
X102689481Y-75174306D01*
X102562194Y-75140200D01*
X102562192Y-75140200D01*
X102522134Y-75140200D01*
X102469808Y-75118526D01*
X96697174Y-69345892D01*
X96675500Y-69293566D01*
X96675500Y-67083676D01*
X96697174Y-67031350D01*
X96719348Y-67009176D01*
X96765509Y-66963015D01*
X96837984Y-66837485D01*
X96875499Y-66697477D01*
X96875500Y-66697477D01*
X96875500Y-66552523D01*
X96875499Y-66552522D01*
X96837985Y-66412518D01*
X96837983Y-66412513D01*
X96776169Y-66305449D01*
X96765509Y-66286985D01*
X96697174Y-66218650D01*
X96675500Y-66166324D01*
X96675500Y-65733676D01*
X96697174Y-65681350D01*
X96726748Y-65651776D01*
X96765509Y-65613015D01*
X96837984Y-65487485D01*
X96875499Y-65347477D01*
X96875500Y-65347477D01*
X96875500Y-65202523D01*
X96875499Y-65202522D01*
X96837985Y-65062518D01*
X96837983Y-65062513D01*
X96786366Y-64973110D01*
X96765509Y-64936985D01*
X96663015Y-64834491D01*
X96537486Y-64762016D01*
X96537481Y-64762014D01*
X96397477Y-64724500D01*
X96397475Y-64724500D01*
X96252525Y-64724500D01*
X96252523Y-64724500D01*
X96112518Y-64762014D01*
X96112513Y-64762016D01*
X95986984Y-64834491D01*
X95952326Y-64869150D01*
X95900000Y-64890824D01*
X95847674Y-64869150D01*
X95813015Y-64834491D01*
X95687486Y-64762016D01*
X95687481Y-64762014D01*
X95547477Y-64724500D01*
X95547475Y-64724500D01*
X95402525Y-64724500D01*
X95402523Y-64724500D01*
X95262518Y-64762014D01*
X95262513Y-64762016D01*
X95136984Y-64834491D01*
X95102326Y-64869150D01*
X95050000Y-64890824D01*
X94997674Y-64869150D01*
X94963015Y-64834491D01*
X94837486Y-64762016D01*
X94837481Y-64762014D01*
X94697477Y-64724500D01*
X94697475Y-64724500D01*
X94552525Y-64724500D01*
X94552523Y-64724500D01*
X94412518Y-64762014D01*
X94412513Y-64762016D01*
X94286984Y-64834491D01*
X94252326Y-64869150D01*
X94200000Y-64890824D01*
X94147674Y-64869150D01*
X94113015Y-64834491D01*
X93987486Y-64762016D01*
X93987481Y-64762014D01*
X93847477Y-64724500D01*
X93847475Y-64724500D01*
X93702525Y-64724500D01*
X93702523Y-64724500D01*
X93562518Y-64762014D01*
X93562513Y-64762016D01*
X93436984Y-64834491D01*
X93402326Y-64869150D01*
X93350000Y-64890824D01*
X93297674Y-64869150D01*
X93263015Y-64834491D01*
X93137486Y-64762016D01*
X93137481Y-64762014D01*
X92997477Y-64724500D01*
X92997475Y-64724500D01*
X92852525Y-64724500D01*
X92852523Y-64724500D01*
X92712518Y-64762014D01*
X92712513Y-64762016D01*
X92586984Y-64834491D01*
X92552326Y-64869150D01*
X92500000Y-64890824D01*
X92447674Y-64869150D01*
X92413015Y-64834491D01*
X92287486Y-64762016D01*
X92287481Y-64762014D01*
X92147477Y-64724500D01*
X92147475Y-64724500D01*
X92002525Y-64724500D01*
X92002523Y-64724500D01*
X91862518Y-64762014D01*
X91862513Y-64762016D01*
X91736984Y-64834491D01*
X91634491Y-64936984D01*
X91562016Y-65062513D01*
X91562014Y-65062518D01*
X91524500Y-65202522D01*
X91524500Y-65347477D01*
X91562014Y-65487481D01*
X91562016Y-65487486D01*
X91634491Y-65613015D01*
X91702826Y-65681350D01*
X91724500Y-65733676D01*
X91724500Y-66166324D01*
X91702826Y-66218650D01*
X91634491Y-66286984D01*
X91562016Y-66412513D01*
X91562014Y-66412518D01*
X91524500Y-66552522D01*
X91524500Y-66697477D01*
X91562014Y-66837481D01*
X91562016Y-66837486D01*
X91598052Y-66899901D01*
X91634491Y-66963015D01*
X91736985Y-67065509D01*
X91828876Y-67118563D01*
X91862511Y-67137982D01*
X91862515Y-67137984D01*
X91862516Y-67137984D01*
X91862518Y-67137985D01*
X91904239Y-67149164D01*
X92002522Y-67175499D01*
X92002523Y-67175500D01*
X92002525Y-67175500D01*
X92147477Y-67175500D01*
X92147477Y-67175499D01*
X92287485Y-67137984D01*
X92413015Y-67065509D01*
X92447674Y-67030850D01*
X92500000Y-67009176D01*
X92552326Y-67030850D01*
X92586985Y-67065509D01*
X92712515Y-67137984D01*
X92754243Y-67149165D01*
X92799175Y-67183643D01*
X92806568Y-67239796D01*
X92787415Y-67272969D01*
X91962054Y-68098329D01*
X91909728Y-68120003D01*
X91900078Y-68119371D01*
X91896497Y-68118900D01*
X91896492Y-68118900D01*
X91764708Y-68118900D01*
X91764706Y-68118900D01*
X91637418Y-68153006D01*
X91637409Y-68153010D01*
X91523285Y-68218900D01*
X91430100Y-68312085D01*
X91364210Y-68426209D01*
X91364206Y-68426218D01*
X91330100Y-68553505D01*
X91330100Y-68685294D01*
X91364206Y-68812581D01*
X91364207Y-68812584D01*
X91364208Y-68812586D01*
X91430100Y-68926714D01*
X91523286Y-69019900D01*
X91637414Y-69085792D01*
X91764705Y-69119899D01*
X91764706Y-69119900D01*
X91764708Y-69119900D01*
X91896494Y-69119900D01*
X91896494Y-69119899D01*
X92023786Y-69085792D01*
X92137914Y-69019900D01*
X92231100Y-68926714D01*
X92296992Y-68812586D01*
X92331099Y-68685294D01*
X92331100Y-68685294D01*
X92331100Y-68553503D01*
X92330629Y-68549925D01*
X92345289Y-68495219D01*
X92351662Y-68487951D01*
X93360741Y-67478874D01*
X93413067Y-67457200D01*
X93437985Y-67457200D01*
X93490311Y-67478874D01*
X93511985Y-67531200D01*
X93490311Y-67583526D01*
X93474985Y-67595286D01*
X93467685Y-67599500D01*
X93374500Y-67692685D01*
X93308610Y-67806809D01*
X93308606Y-67806818D01*
X93274500Y-67934105D01*
X93274500Y-68065894D01*
X93308606Y-68193181D01*
X93308610Y-68193190D01*
X93330150Y-68230498D01*
X93374500Y-68307314D01*
X93467686Y-68400500D01*
X93581814Y-68466392D01*
X93709105Y-68500499D01*
X93709106Y-68500500D01*
X93709108Y-68500500D01*
X93840894Y-68500500D01*
X93840894Y-68500499D01*
X93968186Y-68466392D01*
X94082314Y-68400500D01*
X94160640Y-68322174D01*
X94212966Y-68300500D01*
X94712034Y-68300500D01*
X94764360Y-68322174D01*
X94842686Y-68400500D01*
X94956814Y-68466392D01*
X95084105Y-68500499D01*
X95084106Y-68500500D01*
X95084108Y-68500500D01*
X95215894Y-68500500D01*
X95215894Y-68500499D01*
X95343186Y-68466392D01*
X95457314Y-68400500D01*
X95550500Y-68307314D01*
X95616392Y-68193186D01*
X95650499Y-68065894D01*
X95650500Y-68065894D01*
X95650500Y-67934106D01*
X95650499Y-67934105D01*
X95616393Y-67806818D01*
X95616392Y-67806814D01*
X95550500Y-67692686D01*
X95457314Y-67599500D01*
X95386181Y-67558431D01*
X95343190Y-67533610D01*
X95343181Y-67533606D01*
X95215894Y-67499500D01*
X95215892Y-67499500D01*
X95168766Y-67499500D01*
X95116440Y-67477826D01*
X95094766Y-67425500D01*
X95116439Y-67373175D01*
X95151857Y-67337758D01*
X95151856Y-67337758D01*
X95302588Y-67187025D01*
X95354913Y-67165352D01*
X95374063Y-67167873D01*
X95402525Y-67175500D01*
X95547477Y-67175500D01*
X95547477Y-67175499D01*
X95687485Y-67137984D01*
X95813015Y-67065509D01*
X95847674Y-67030850D01*
X95900000Y-67009176D01*
X95952326Y-67030850D01*
X95952826Y-67031350D01*
X95974500Y-67083676D01*
X95974500Y-69515546D01*
X95987617Y-69564498D01*
X95987617Y-69564499D01*
X95998384Y-69604683D01*
X95998386Y-69604688D01*
X96044530Y-69684612D01*
X101974126Y-75614208D01*
X101995800Y-75666534D01*
X101995800Y-75706592D01*
X102027164Y-75823648D01*
X102019772Y-75879800D01*
X101974839Y-75914279D01*
X101955686Y-75916800D01*
X100942868Y-75916800D01*
X100890542Y-75895126D01*
X99986725Y-74991309D01*
X97196958Y-72201543D01*
X97095700Y-72159600D01*
X97095699Y-72159600D01*
X91437919Y-72159600D01*
X91385593Y-72137926D01*
X91363919Y-72085600D01*
X91385593Y-72033274D01*
X91400917Y-72021515D01*
X91423114Y-72008700D01*
X91516300Y-71915514D01*
X91582192Y-71801386D01*
X91616299Y-71674094D01*
X91616300Y-71674094D01*
X91616300Y-71542306D01*
X91616299Y-71542305D01*
X91582193Y-71415018D01*
X91582192Y-71415014D01*
X91516300Y-71300886D01*
X91423114Y-71207700D01*
X91308990Y-71141810D01*
X91308981Y-71141806D01*
X91181694Y-71107700D01*
X91181692Y-71107700D01*
X91049908Y-71107700D01*
X91049906Y-71107700D01*
X90922618Y-71141806D01*
X90922609Y-71141810D01*
X90808485Y-71207700D01*
X90715300Y-71300885D01*
X90649410Y-71415009D01*
X90649406Y-71415018D01*
X90615300Y-71542305D01*
X90615300Y-71674095D01*
X90615771Y-71677676D01*
X90601106Y-71732382D01*
X90594729Y-71739653D01*
X86868742Y-75465643D01*
X86791242Y-75543143D01*
X86749300Y-75644400D01*
X86749300Y-78370431D01*
X86727626Y-78422757D01*
X86103480Y-79046903D01*
X86051154Y-79068577D01*
X86022835Y-79062944D01*
X86013552Y-79059099D01*
X85846420Y-78989870D01*
X85846413Y-78989868D01*
X85691466Y-78959048D01*
X85643465Y-78949500D01*
X85436535Y-78949500D01*
X85396385Y-78957486D01*
X85233586Y-78989868D01*
X85233579Y-78989870D01*
X85042401Y-79069059D01*
X84870345Y-79184022D01*
X84870344Y-79184024D01*
X84841826Y-79212542D01*
X84789500Y-79234216D01*
X84737174Y-79212542D01*
X84715500Y-79160216D01*
X84715500Y-78299784D01*
X84737174Y-78247458D01*
X84789500Y-78225784D01*
X84841826Y-78247458D01*
X84870345Y-78275977D01*
X85042402Y-78390941D01*
X85233580Y-78470130D01*
X85436535Y-78510500D01*
X85436536Y-78510500D01*
X85643464Y-78510500D01*
X85643465Y-78510500D01*
X85846420Y-78470130D01*
X86037598Y-78390941D01*
X86209655Y-78275977D01*
X86355977Y-78129655D01*
X86470941Y-77957598D01*
X86550130Y-77766420D01*
X86590500Y-77563465D01*
X86590500Y-77356535D01*
X86550130Y-77153580D01*
X86470941Y-76962402D01*
X86355977Y-76790345D01*
X86209655Y-76644023D01*
X86134978Y-76594126D01*
X86037598Y-76529059D01*
X85846420Y-76449870D01*
X85846413Y-76449868D01*
X85693516Y-76419455D01*
X85643465Y-76409500D01*
X85436535Y-76409500D01*
X85396385Y-76417486D01*
X85233586Y-76449868D01*
X85233579Y-76449870D01*
X85042401Y-76529059D01*
X84870345Y-76644022D01*
X84870344Y-76644024D01*
X84841826Y-76672542D01*
X84789500Y-76694216D01*
X84737174Y-76672542D01*
X84715500Y-76620216D01*
X84715500Y-75759784D01*
X84737174Y-75707458D01*
X84789500Y-75685784D01*
X84841826Y-75707458D01*
X84870345Y-75735977D01*
X85042402Y-75850941D01*
X85233580Y-75930130D01*
X85436535Y-75970500D01*
X85436536Y-75970500D01*
X85643464Y-75970500D01*
X85643465Y-75970500D01*
X85846420Y-75930130D01*
X86037598Y-75850941D01*
X86209655Y-75735977D01*
X86355977Y-75589655D01*
X86470941Y-75417598D01*
X86550130Y-75226420D01*
X86590500Y-75023465D01*
X86590500Y-74816535D01*
X86550130Y-74613580D01*
X86470941Y-74422402D01*
X86355977Y-74250345D01*
X86209655Y-74104023D01*
X86037598Y-73989059D01*
X85846420Y-73909870D01*
X85846413Y-73909868D01*
X85693516Y-73879455D01*
X85643465Y-73869500D01*
X85436535Y-73869500D01*
X85396385Y-73877486D01*
X85233586Y-73909868D01*
X85233579Y-73909870D01*
X85042401Y-73989059D01*
X84870345Y-74104022D01*
X84870344Y-74104024D01*
X84841826Y-74132542D01*
X84789500Y-74154216D01*
X84737174Y-74132542D01*
X84715500Y-74080216D01*
X84715500Y-73624766D01*
X84737173Y-73572441D01*
X84976518Y-73333095D01*
X85028843Y-73311422D01*
X85057162Y-73317055D01*
X85233580Y-73390130D01*
X85436535Y-73430500D01*
X85436536Y-73430500D01*
X85643464Y-73430500D01*
X85643465Y-73430500D01*
X85846420Y-73390130D01*
X86037598Y-73310941D01*
X86209655Y-73195977D01*
X86355977Y-73049655D01*
X86470941Y-72877598D01*
X86550130Y-72686420D01*
X86590500Y-72483465D01*
X86590500Y-72276535D01*
X86550130Y-72073580D01*
X86470941Y-71882402D01*
X86355977Y-71710345D01*
X86209655Y-71564023D01*
X86177151Y-71542305D01*
X86037598Y-71449059D01*
X85846420Y-71369870D01*
X85846413Y-71369868D01*
X85693516Y-71339455D01*
X85643465Y-71329500D01*
X85436535Y-71329500D01*
X85396385Y-71337486D01*
X85233586Y-71369868D01*
X85233579Y-71369870D01*
X85042401Y-71449059D01*
X84870345Y-71564022D01*
X84870344Y-71564024D01*
X84724024Y-71710344D01*
X84724022Y-71710345D01*
X84609059Y-71882401D01*
X84529870Y-72073579D01*
X84529868Y-72073586D01*
X84489500Y-72276535D01*
X84489500Y-72483464D01*
X84529868Y-72686413D01*
X84529870Y-72686420D01*
X84602944Y-72862835D01*
X84602944Y-72919473D01*
X84586903Y-72943480D01*
X84283942Y-73246443D01*
X84206442Y-73323943D01*
X84164500Y-73425200D01*
X84164500Y-74638316D01*
X84142826Y-74690642D01*
X84090500Y-74712316D01*
X84038174Y-74690642D01*
X84017922Y-74652752D01*
X84010131Y-74613586D01*
X84010130Y-74613580D01*
X83930941Y-74422402D01*
X83815977Y-74250345D01*
X83669655Y-74104023D01*
X83497598Y-73989059D01*
X83306420Y-73909870D01*
X83306413Y-73909868D01*
X83153516Y-73879455D01*
X83103465Y-73869500D01*
X82896535Y-73869500D01*
X82856385Y-73877486D01*
X82693586Y-73909868D01*
X82693579Y-73909870D01*
X82502401Y-73989059D01*
X82330345Y-74104022D01*
X82330344Y-74104024D01*
X82184024Y-74250344D01*
X82184022Y-74250345D01*
X82069059Y-74422401D01*
X81989870Y-74613579D01*
X81989868Y-74613586D01*
X81949500Y-74816535D01*
X81949500Y-75023464D01*
X81989868Y-75226413D01*
X81989870Y-75226420D01*
X82069059Y-75417598D01*
X82180912Y-75585000D01*
X82184023Y-75589655D01*
X82330345Y-75735977D01*
X82502402Y-75850941D01*
X82693580Y-75930130D01*
X82896535Y-75970500D01*
X82896536Y-75970500D01*
X83103464Y-75970500D01*
X83103465Y-75970500D01*
X83306420Y-75930130D01*
X83497598Y-75850941D01*
X83669655Y-75735977D01*
X83815977Y-75589655D01*
X83930941Y-75417598D01*
X84010130Y-75226420D01*
X84017922Y-75187247D01*
X84049387Y-75140155D01*
X84104936Y-75129105D01*
X84152028Y-75160570D01*
X84164500Y-75201683D01*
X84164500Y-77178316D01*
X84142826Y-77230642D01*
X84090500Y-77252316D01*
X84038174Y-77230642D01*
X84017922Y-77192752D01*
X84010131Y-77153586D01*
X84010130Y-77153580D01*
X83930941Y-76962402D01*
X83815977Y-76790345D01*
X83669655Y-76644023D01*
X83594978Y-76594126D01*
X83497598Y-76529059D01*
X83306420Y-76449870D01*
X83306413Y-76449868D01*
X83153516Y-76419455D01*
X83103465Y-76409500D01*
X82896535Y-76409500D01*
X82856385Y-76417486D01*
X82693586Y-76449868D01*
X82693579Y-76449870D01*
X82502401Y-76529059D01*
X82330345Y-76644022D01*
X82330344Y-76644024D01*
X82184024Y-76790344D01*
X82184022Y-76790345D01*
X82069059Y-76962401D01*
X81989870Y-77153579D01*
X81989868Y-77153586D01*
X81949500Y-77356535D01*
X81949500Y-77563464D01*
X81989868Y-77766413D01*
X81989870Y-77766420D01*
X82069059Y-77957598D01*
X82180807Y-78124843D01*
X82184023Y-78129655D01*
X82330345Y-78275977D01*
X82502402Y-78390941D01*
X82693580Y-78470130D01*
X82896535Y-78510500D01*
X82896536Y-78510500D01*
X83103464Y-78510500D01*
X83103465Y-78510500D01*
X83306420Y-78470130D01*
X83497598Y-78390941D01*
X83669655Y-78275977D01*
X83815977Y-78129655D01*
X83930941Y-77957598D01*
X84010130Y-77766420D01*
X84017922Y-77727247D01*
X84049387Y-77680155D01*
X84104936Y-77669105D01*
X84152028Y-77700570D01*
X84164500Y-77741683D01*
X84164500Y-79718316D01*
X84142826Y-79770642D01*
X84090500Y-79792316D01*
X84038174Y-79770642D01*
X84017922Y-79732752D01*
X84010131Y-79693586D01*
X84010130Y-79693580D01*
X83930941Y-79502402D01*
X83815977Y-79330345D01*
X83669655Y-79184023D01*
X83651987Y-79172218D01*
X83497598Y-79069059D01*
X83306420Y-78989870D01*
X83306413Y-78989868D01*
X83151466Y-78959048D01*
X83103465Y-78949500D01*
X82896535Y-78949500D01*
X82856385Y-78957486D01*
X82693586Y-78989868D01*
X82693579Y-78989870D01*
X82502401Y-79069059D01*
X82330345Y-79184022D01*
X82330344Y-79184024D01*
X82184024Y-79330344D01*
X82184022Y-79330345D01*
X82069059Y-79502401D01*
X81989870Y-79693579D01*
X81989868Y-79693586D01*
X81962378Y-79831792D01*
X81949500Y-79896535D01*
X81949500Y-80103465D01*
X81959455Y-80153516D01*
X81989868Y-80306413D01*
X81989870Y-80306420D01*
X82069059Y-80497598D01*
X82181639Y-80666088D01*
X82184023Y-80669655D01*
X82330345Y-80815977D01*
X82502402Y-80930941D01*
X82693580Y-81010130D01*
X82896535Y-81050500D01*
X82896536Y-81050500D01*
X83103464Y-81050500D01*
X83103465Y-81050500D01*
X83306420Y-81010130D01*
X83497598Y-80930941D01*
X83669655Y-80815977D01*
X83815977Y-80669655D01*
X83930941Y-80497598D01*
X84010130Y-80306420D01*
X84017922Y-80267247D01*
X84049387Y-80220155D01*
X84104936Y-80209105D01*
X84152028Y-80240570D01*
X84164500Y-80281683D01*
X84164500Y-80512099D01*
X84164499Y-80512099D01*
X84191046Y-80576187D01*
X84206442Y-80613356D01*
X84206444Y-80613359D01*
X84674558Y-81081474D01*
X84696232Y-81133800D01*
X84674558Y-81186126D01*
X84622232Y-81207800D01*
X84001900Y-81207800D01*
X83930298Y-81237457D01*
X83930299Y-81237458D01*
X83900642Y-81249742D01*
X83900639Y-81249744D01*
X83563480Y-81586903D01*
X83511154Y-81608577D01*
X83482835Y-81602944D01*
X83306420Y-81529870D01*
X83306413Y-81529868D01*
X83153516Y-81499455D01*
X83103465Y-81489500D01*
X82896535Y-81489500D01*
X82856385Y-81497486D01*
X82693586Y-81529868D01*
X82693579Y-81529870D01*
X82502401Y-81609059D01*
X82330345Y-81724022D01*
X82330344Y-81724024D01*
X82184024Y-81870344D01*
X82184022Y-81870345D01*
X82069059Y-82042401D01*
X81989870Y-82233579D01*
X81989868Y-82233586D01*
X81949500Y-82436535D01*
X81949500Y-82643464D01*
X81989868Y-82846413D01*
X81989870Y-82846420D01*
X82069059Y-83037598D01*
X82178043Y-83200706D01*
X82184023Y-83209655D01*
X82330345Y-83355977D01*
X82502402Y-83470941D01*
X82693580Y-83550130D01*
X82896535Y-83590500D01*
X82896536Y-83590500D01*
X83103464Y-83590500D01*
X83103465Y-83590500D01*
X83306420Y-83550130D01*
X83497598Y-83470941D01*
X83669655Y-83355977D01*
X83815977Y-83209655D01*
X83930941Y-83037598D01*
X84010130Y-82846420D01*
X84050500Y-82643465D01*
X84050500Y-82436535D01*
X84010130Y-82233580D01*
X83937055Y-82057162D01*
X83937055Y-82000526D01*
X83953093Y-81976521D01*
X84149142Y-81780474D01*
X84201468Y-81758800D01*
X84660111Y-81758800D01*
X84712437Y-81780474D01*
X84734111Y-81832800D01*
X84721640Y-81873910D01*
X84693256Y-81916392D01*
X84609059Y-82042401D01*
X84529870Y-82233579D01*
X84529868Y-82233586D01*
X84489500Y-82436535D01*
X84489500Y-82643464D01*
X84529868Y-82846413D01*
X84529870Y-82846420D01*
X84609059Y-83037598D01*
X84718043Y-83200706D01*
X84724023Y-83209655D01*
X84870345Y-83355977D01*
X85042402Y-83470941D01*
X85233580Y-83550130D01*
X85436535Y-83590500D01*
X85436536Y-83590500D01*
X85643464Y-83590500D01*
X85643465Y-83590500D01*
X85846420Y-83550130D01*
X86022838Y-83477055D01*
X86079473Y-83477055D01*
X86103481Y-83493096D01*
X87878959Y-85268574D01*
X87900633Y-85320900D01*
X87878959Y-85373226D01*
X87826633Y-85394900D01*
X86638612Y-85394900D01*
X86586286Y-85373226D01*
X86564612Y-85320900D01*
X86566034Y-85306463D01*
X86573571Y-85268574D01*
X86590500Y-85183465D01*
X86590500Y-84976535D01*
X86550130Y-84773580D01*
X86470941Y-84582402D01*
X86355977Y-84410345D01*
X86209655Y-84264023D01*
X86194654Y-84254000D01*
X86037598Y-84149059D01*
X85846420Y-84069870D01*
X85846413Y-84069868D01*
X85693516Y-84039455D01*
X85643465Y-84029500D01*
X85436535Y-84029500D01*
X85396385Y-84037486D01*
X85233586Y-84069868D01*
X85233579Y-84069870D01*
X85042401Y-84149059D01*
X84870345Y-84264022D01*
X84870344Y-84264024D01*
X84724024Y-84410344D01*
X84724022Y-84410345D01*
X84609059Y-84582401D01*
X84529870Y-84773579D01*
X84529868Y-84773586D01*
X84489500Y-84976535D01*
X84489500Y-85183464D01*
X84529868Y-85386413D01*
X84529870Y-85386420D01*
X84609059Y-85577598D01*
X84678779Y-85681943D01*
X84724023Y-85749655D01*
X84870345Y-85895977D01*
X84876322Y-85899971D01*
X84907789Y-85947062D01*
X84896741Y-86002611D01*
X84849649Y-86034078D01*
X84835211Y-86035500D01*
X84254200Y-86035500D01*
X84152944Y-86077440D01*
X84152940Y-86077443D01*
X83563480Y-86666903D01*
X83511154Y-86688577D01*
X83482835Y-86682944D01*
X83306420Y-86609870D01*
X83306413Y-86609868D01*
X83153516Y-86579455D01*
X83103465Y-86569500D01*
X82896535Y-86569500D01*
X82856385Y-86577486D01*
X82693586Y-86609868D01*
X82693579Y-86609870D01*
X82502401Y-86689059D01*
X82330346Y-86804021D01*
X82330042Y-86804272D01*
X82329914Y-86804310D01*
X82327322Y-86806043D01*
X82326796Y-86805256D01*
X82275842Y-86820709D01*
X82225894Y-86794008D01*
X82209100Y-86747066D01*
X82209100Y-86291167D01*
X82230774Y-86238841D01*
X82307437Y-86162178D01*
X82436519Y-86033095D01*
X82488844Y-86011422D01*
X82517161Y-86017054D01*
X82693580Y-86090130D01*
X82896535Y-86130500D01*
X82896536Y-86130500D01*
X83103464Y-86130500D01*
X83103465Y-86130500D01*
X83306420Y-86090130D01*
X83497598Y-86010941D01*
X83669655Y-85895977D01*
X83815977Y-85749655D01*
X83930941Y-85577598D01*
X84010130Y-85386420D01*
X84050500Y-85183465D01*
X84050500Y-84976535D01*
X84010130Y-84773580D01*
X83930941Y-84582402D01*
X83815977Y-84410345D01*
X83669655Y-84264023D01*
X83654654Y-84254000D01*
X83497598Y-84149059D01*
X83306420Y-84069870D01*
X83306413Y-84069868D01*
X83153516Y-84039455D01*
X83103465Y-84029500D01*
X82896535Y-84029500D01*
X82856385Y-84037486D01*
X82693586Y-84069868D01*
X82693579Y-84069870D01*
X82502401Y-84149059D01*
X82330345Y-84264022D01*
X82330344Y-84264024D01*
X82184024Y-84410344D01*
X82184022Y-84410345D01*
X82069059Y-84582401D01*
X81989870Y-84773579D01*
X81989868Y-84773586D01*
X81949500Y-84976535D01*
X81949500Y-85183464D01*
X81989868Y-85386413D01*
X81989870Y-85386420D01*
X82062944Y-85562835D01*
X82062944Y-85619473D01*
X82046903Y-85643480D01*
X81777542Y-85912843D01*
X81700042Y-85990343D01*
X81663964Y-86077443D01*
X81658100Y-86091600D01*
X81658100Y-88129100D01*
X81698718Y-88227159D01*
X81700043Y-88230358D01*
X82389342Y-88919657D01*
X82490600Y-88961600D01*
X82600200Y-88961600D01*
X82891885Y-88961600D01*
X82944211Y-88983274D01*
X82965885Y-89035600D01*
X82944211Y-89087926D01*
X82900099Y-89108789D01*
X82900100Y-89108791D01*
X82900095Y-89108791D01*
X82899142Y-89109243D01*
X82896537Y-89109499D01*
X82693586Y-89149868D01*
X82693579Y-89149870D01*
X82502401Y-89229059D01*
X82330345Y-89344022D01*
X82330344Y-89344024D01*
X82184024Y-89490344D01*
X82184022Y-89490345D01*
X82069059Y-89662401D01*
X81989870Y-89853579D01*
X81989868Y-89853586D01*
X81949500Y-90056535D01*
X81949500Y-90263464D01*
X81989868Y-90466413D01*
X81989870Y-90466420D01*
X82069059Y-90657598D01*
X82184023Y-90829655D01*
X82330345Y-90975977D01*
X82502402Y-91090941D01*
X82693580Y-91170130D01*
X82896535Y-91210500D01*
X82896536Y-91210500D01*
X83103464Y-91210500D01*
X83103465Y-91210500D01*
X83306420Y-91170130D01*
X83497598Y-91090941D01*
X83669655Y-90975977D01*
X83815977Y-90829655D01*
X83930941Y-90657598D01*
X84010130Y-90466420D01*
X84050500Y-90263465D01*
X84050500Y-90056535D01*
X84010130Y-89853580D01*
X83937055Y-89677162D01*
X83937055Y-89620526D01*
X83953093Y-89596521D01*
X84149142Y-89400474D01*
X84201468Y-89378800D01*
X84660712Y-89378800D01*
X84713038Y-89400474D01*
X84734712Y-89452800D01*
X84722241Y-89493912D01*
X84609500Y-89662641D01*
X84530350Y-89853725D01*
X84530348Y-89853732D01*
X84490000Y-90056584D01*
X84490000Y-90263415D01*
X84530348Y-90466267D01*
X84530350Y-90466274D01*
X84609502Y-90657362D01*
X84712183Y-90811036D01*
X85109269Y-90413951D01*
X85139901Y-90467007D01*
X85232993Y-90560099D01*
X85286046Y-90590729D01*
X84888961Y-90987814D01*
X85042637Y-91090497D01*
X85233725Y-91169649D01*
X85233732Y-91169651D01*
X85436584Y-91210000D01*
X85643416Y-91210000D01*
X85846267Y-91169651D01*
X85846274Y-91169649D01*
X86037361Y-91090498D01*
X86191037Y-90987815D01*
X86191037Y-90987814D01*
X85793953Y-90590729D01*
X85847007Y-90560099D01*
X85940099Y-90467007D01*
X85970729Y-90413952D01*
X86367814Y-90811037D01*
X86367815Y-90811037D01*
X86470498Y-90657361D01*
X86549649Y-90466274D01*
X86549651Y-90466267D01*
X86590000Y-90263415D01*
X86590000Y-90056584D01*
X86549651Y-89853732D01*
X86549649Y-89853725D01*
X86470499Y-89662641D01*
X86357759Y-89493912D01*
X86346710Y-89438363D01*
X86378176Y-89391271D01*
X86419288Y-89378800D01*
X88680270Y-89378800D01*
X88732596Y-89400474D01*
X88754270Y-89452800D01*
X88749109Y-89478747D01*
X88749341Y-89478823D01*
X88748705Y-89480777D01*
X88748639Y-89481114D01*
X88748442Y-89481589D01*
X88682756Y-89683746D01*
X88682753Y-89683759D01*
X88649500Y-89893711D01*
X88649500Y-90106288D01*
X88682753Y-90316240D01*
X88682756Y-90316253D01*
X88748440Y-90518406D01*
X88844948Y-90707816D01*
X88856329Y-90723480D01*
X88969896Y-90879792D01*
X89120208Y-91030104D01*
X89203334Y-91090498D01*
X89292183Y-91155051D01*
X89383474Y-91201565D01*
X89481588Y-91251557D01*
X89481590Y-91251557D01*
X89481593Y-91251559D01*
X89683746Y-91317243D01*
X89683752Y-91317244D01*
X89683757Y-91317246D01*
X89788735Y-91333873D01*
X89893711Y-91350500D01*
X89893713Y-91350500D01*
X90106289Y-91350500D01*
X90193340Y-91336712D01*
X90316243Y-91317246D01*
X90316250Y-91317243D01*
X90316253Y-91317243D01*
X90518406Y-91251559D01*
X90518406Y-91251558D01*
X90518412Y-91251557D01*
X90707816Y-91155051D01*
X90879792Y-91030104D01*
X91030104Y-90879792D01*
X91155051Y-90707816D01*
X91251557Y-90518412D01*
X91305305Y-90352993D01*
X91317243Y-90316253D01*
X91317243Y-90316250D01*
X91317246Y-90316243D01*
X91347704Y-90123938D01*
X91350500Y-90106288D01*
X91350500Y-89893711D01*
X91317246Y-89683759D01*
X91317243Y-89683746D01*
X91251559Y-89481593D01*
X91251557Y-89481589D01*
X91251557Y-89481588D01*
X91181464Y-89344022D01*
X91155051Y-89292183D01*
X91093091Y-89206903D01*
X91030104Y-89120208D01*
X90879792Y-88969896D01*
X90772427Y-88891891D01*
X90707816Y-88844948D01*
X90518406Y-88748440D01*
X90316253Y-88682756D01*
X90316240Y-88682753D01*
X90106289Y-88649500D01*
X90106287Y-88649500D01*
X89893713Y-88649500D01*
X89893711Y-88649500D01*
X89693761Y-88681169D01*
X89638689Y-88667947D01*
X89609096Y-88619656D01*
X89622318Y-88564584D01*
X89629852Y-88555761D01*
X93259058Y-84926558D01*
X93301000Y-84825300D01*
X93301000Y-84715700D01*
X93301000Y-84181191D01*
X93322674Y-84128865D01*
X93375000Y-84107191D01*
X93394153Y-84109713D01*
X93436659Y-84121102D01*
X93466505Y-84129099D01*
X93466506Y-84129100D01*
X93466508Y-84129100D01*
X93598294Y-84129100D01*
X93598294Y-84129099D01*
X93725586Y-84094992D01*
X93839714Y-84029100D01*
X93839716Y-84029098D01*
X93843563Y-84026147D01*
X93844418Y-84027262D01*
X93891850Y-84007616D01*
X93944176Y-84029290D01*
X93956886Y-84042000D01*
X94071014Y-84107892D01*
X94198305Y-84141999D01*
X94198306Y-84142000D01*
X94198308Y-84142000D01*
X94330094Y-84142000D01*
X94330094Y-84141999D01*
X94457386Y-84107892D01*
X94492399Y-84087676D01*
X94548552Y-84080283D01*
X94593485Y-84114761D01*
X94603400Y-84151762D01*
X94603400Y-88273694D01*
X94581726Y-88326020D01*
X94574461Y-88332393D01*
X94571590Y-88334596D01*
X94478400Y-88427785D01*
X94412510Y-88541909D01*
X94412506Y-88541918D01*
X94378400Y-88669205D01*
X94378400Y-88800994D01*
X94412506Y-88928281D01*
X94412510Y-88928290D01*
X94454417Y-89000874D01*
X94478400Y-89042414D01*
X94571586Y-89135600D01*
X94685714Y-89201492D01*
X94813005Y-89235599D01*
X94813006Y-89235600D01*
X94813008Y-89235600D01*
X94944792Y-89235600D01*
X94948370Y-89235129D01*
X95003078Y-89249788D01*
X95010354Y-89256169D01*
X96453657Y-90699473D01*
X97876541Y-92122357D01*
X97876540Y-92122357D01*
X97906199Y-92134641D01*
X97977800Y-92164300D01*
X109036398Y-92164300D01*
X109036400Y-92164300D01*
X109137658Y-92122357D01*
X109215157Y-92044858D01*
X110670608Y-90589406D01*
X110722931Y-90567734D01*
X110775257Y-90589408D01*
X110791298Y-90613415D01*
X110809501Y-90657361D01*
X110912183Y-90811036D01*
X111309269Y-90413951D01*
X111339901Y-90467007D01*
X111432993Y-90560099D01*
X111486046Y-90590729D01*
X111088961Y-90987814D01*
X111242637Y-91090497D01*
X111433725Y-91169649D01*
X111433732Y-91169651D01*
X111636584Y-91210000D01*
X111843416Y-91210000D01*
X112046267Y-91169651D01*
X112046274Y-91169649D01*
X112237361Y-91090498D01*
X112391037Y-90987815D01*
X112391037Y-90987814D01*
X111993953Y-90590729D01*
X112047007Y-90560099D01*
X112140099Y-90467007D01*
X112170729Y-90413952D01*
X112567814Y-90811037D01*
X112567815Y-90811037D01*
X112670498Y-90657361D01*
X112749649Y-90466274D01*
X112749651Y-90466267D01*
X112790000Y-90263415D01*
X112790000Y-90056584D01*
X112749651Y-89853732D01*
X112749649Y-89853725D01*
X112670497Y-89662637D01*
X112567814Y-89508961D01*
X112170729Y-89906045D01*
X112140099Y-89852993D01*
X112047007Y-89759901D01*
X111993951Y-89729269D01*
X112391037Y-89332183D01*
X112237362Y-89229502D01*
X112046274Y-89150350D01*
X112046267Y-89150348D01*
X111843416Y-89110000D01*
X111636584Y-89110000D01*
X111433732Y-89150348D01*
X111433725Y-89150350D01*
X111242637Y-89229502D01*
X111088961Y-89332183D01*
X111486047Y-89729270D01*
X111432993Y-89759901D01*
X111339901Y-89852993D01*
X111309270Y-89906046D01*
X110935574Y-89532350D01*
X110913900Y-89480024D01*
X110913900Y-88458184D01*
X110935574Y-88405858D01*
X110987900Y-88384184D01*
X111040226Y-88405858D01*
X111070345Y-88435977D01*
X111242402Y-88550941D01*
X111433580Y-88630130D01*
X111636535Y-88670500D01*
X111636536Y-88670500D01*
X111843464Y-88670500D01*
X111843465Y-88670500D01*
X112046420Y-88630130D01*
X112237598Y-88550941D01*
X112409655Y-88435977D01*
X112555977Y-88289655D01*
X112670941Y-88117598D01*
X112750130Y-87926420D01*
X112790500Y-87723465D01*
X112790500Y-87516535D01*
X112750130Y-87313580D01*
X112670941Y-87122402D01*
X112555977Y-86950345D01*
X112409655Y-86804023D01*
X112409653Y-86804021D01*
X112237597Y-86689058D01*
X112208575Y-86677036D01*
X112168528Y-86636986D01*
X112168530Y-86580349D01*
X112184581Y-86556334D01*
X113622656Y-85118259D01*
X113622657Y-85118258D01*
X113624610Y-85113543D01*
X113657133Y-85035025D01*
X113697182Y-84994978D01*
X113753819Y-84994978D01*
X113793867Y-85035027D01*
X113799500Y-85063345D01*
X113799500Y-91497091D01*
X113799272Y-91502897D01*
X113783957Y-91697483D01*
X113782140Y-91708952D01*
X113737257Y-91895903D01*
X113733669Y-91906946D01*
X113660092Y-92084579D01*
X113654820Y-92094926D01*
X113554360Y-92258860D01*
X113547535Y-92268254D01*
X113422667Y-92414456D01*
X113414456Y-92422667D01*
X113268254Y-92547535D01*
X113258860Y-92554360D01*
X113094926Y-92654820D01*
X113084579Y-92660092D01*
X112906946Y-92733669D01*
X112895903Y-92737257D01*
X112708952Y-92782140D01*
X112697483Y-92783957D01*
X112502897Y-92799272D01*
X112497091Y-92799500D01*
X81502909Y-92799500D01*
X81497103Y-92799272D01*
X81302515Y-92783957D01*
X81291046Y-92782140D01*
X81104097Y-92737258D01*
X81093053Y-92733670D01*
X80915417Y-92660090D01*
X80905071Y-92654818D01*
X80741139Y-92554361D01*
X80731745Y-92547536D01*
X80585542Y-92422668D01*
X80577331Y-92414457D01*
X80452463Y-92268254D01*
X80445638Y-92258860D01*
X80345181Y-92094928D01*
X80339909Y-92084582D01*
X80323455Y-92044858D01*
X80266326Y-91906938D01*
X80262743Y-91895910D01*
X80217858Y-91708949D01*
X80216042Y-91697484D01*
X80200728Y-91502897D01*
X80200500Y-91497091D01*
X80200500Y-72276535D01*
X81949500Y-72276535D01*
X81949500Y-72483464D01*
X81989868Y-72686413D01*
X81989870Y-72686420D01*
X82069059Y-72877598D01*
X82106817Y-72934108D01*
X82184023Y-73049655D01*
X82330345Y-73195977D01*
X82502402Y-73310941D01*
X82693580Y-73390130D01*
X82896535Y-73430500D01*
X82896536Y-73430500D01*
X83103464Y-73430500D01*
X83103465Y-73430500D01*
X83306420Y-73390130D01*
X83497598Y-73310941D01*
X83669655Y-73195977D01*
X83815977Y-73049655D01*
X83930941Y-72877598D01*
X84010130Y-72686420D01*
X84050500Y-72483465D01*
X84050500Y-72276535D01*
X84010130Y-72073580D01*
X83930941Y-71882402D01*
X83815977Y-71710345D01*
X83669655Y-71564023D01*
X83637151Y-71542305D01*
X83497598Y-71449059D01*
X83306420Y-71369870D01*
X83306413Y-71369868D01*
X83153516Y-71339455D01*
X83103465Y-71329500D01*
X82896535Y-71329500D01*
X82856385Y-71337486D01*
X82693586Y-71369868D01*
X82693579Y-71369870D01*
X82502401Y-71449059D01*
X82330345Y-71564022D01*
X82330344Y-71564024D01*
X82184024Y-71710344D01*
X82184022Y-71710345D01*
X82069059Y-71882401D01*
X81989870Y-72073579D01*
X81989868Y-72073586D01*
X81949500Y-72276535D01*
X80200500Y-72276535D01*
X80200500Y-69736535D01*
X81949500Y-69736535D01*
X81949500Y-69943464D01*
X81989868Y-70146413D01*
X81989870Y-70146420D01*
X82069059Y-70337598D01*
X82184023Y-70509655D01*
X82330345Y-70655977D01*
X82502402Y-70770941D01*
X82693580Y-70850130D01*
X82896535Y-70890500D01*
X82896536Y-70890500D01*
X83103464Y-70890500D01*
X83103465Y-70890500D01*
X83306420Y-70850130D01*
X83497598Y-70770941D01*
X83669655Y-70655977D01*
X83815977Y-70509655D01*
X83930941Y-70337598D01*
X84010130Y-70146420D01*
X84050500Y-69943465D01*
X84050500Y-69736535D01*
X84489500Y-69736535D01*
X84489500Y-69943464D01*
X84529868Y-70146413D01*
X84529870Y-70146420D01*
X84609059Y-70337598D01*
X84724023Y-70509655D01*
X84870345Y-70655977D01*
X85042402Y-70770941D01*
X85233580Y-70850130D01*
X85436535Y-70890500D01*
X85436536Y-70890500D01*
X85643464Y-70890500D01*
X85643465Y-70890500D01*
X85846420Y-70850130D01*
X86037598Y-70770941D01*
X86209655Y-70655977D01*
X86355977Y-70509655D01*
X86470941Y-70337598D01*
X86550130Y-70146420D01*
X86590500Y-69943465D01*
X86590500Y-69736535D01*
X86550130Y-69533580D01*
X86470941Y-69342402D01*
X86355977Y-69170345D01*
X86209655Y-69024023D01*
X86203484Y-69019900D01*
X86037598Y-68909059D01*
X85846420Y-68829870D01*
X85846413Y-68829868D01*
X85693516Y-68799455D01*
X85643465Y-68789500D01*
X85436535Y-68789500D01*
X85396385Y-68797486D01*
X85233586Y-68829868D01*
X85233579Y-68829870D01*
X85042401Y-68909059D01*
X84870345Y-69024022D01*
X84870344Y-69024024D01*
X84724024Y-69170344D01*
X84724022Y-69170345D01*
X84609059Y-69342401D01*
X84529870Y-69533579D01*
X84529868Y-69533586D01*
X84489500Y-69736535D01*
X84050500Y-69736535D01*
X84010130Y-69533580D01*
X83930941Y-69342402D01*
X83815977Y-69170345D01*
X83669655Y-69024023D01*
X83663484Y-69019900D01*
X83497598Y-68909059D01*
X83306420Y-68829870D01*
X83306413Y-68829868D01*
X83153516Y-68799455D01*
X83103465Y-68789500D01*
X82896535Y-68789500D01*
X82856385Y-68797486D01*
X82693586Y-68829868D01*
X82693579Y-68829870D01*
X82502401Y-68909059D01*
X82330345Y-69024022D01*
X82330344Y-69024024D01*
X82184024Y-69170344D01*
X82184022Y-69170345D01*
X82069059Y-69342401D01*
X81989870Y-69533579D01*
X81989868Y-69533586D01*
X81949500Y-69736535D01*
X80200500Y-69736535D01*
X80200500Y-66430253D01*
X81949500Y-66430253D01*
X81949500Y-68169746D01*
X81961133Y-68228232D01*
X81990608Y-68272343D01*
X82005448Y-68294552D01*
X82028042Y-68309649D01*
X82071767Y-68338866D01*
X82071768Y-68338866D01*
X82071769Y-68338867D01*
X82130252Y-68350500D01*
X82130254Y-68350500D01*
X83869746Y-68350500D01*
X83869748Y-68350500D01*
X83928231Y-68338867D01*
X83994552Y-68294552D01*
X84038867Y-68228231D01*
X84050500Y-68169748D01*
X84050500Y-67196584D01*
X84490000Y-67196584D01*
X84490000Y-67403415D01*
X84530348Y-67606267D01*
X84530350Y-67606274D01*
X84609502Y-67797362D01*
X84712183Y-67951036D01*
X85109269Y-67553951D01*
X85139901Y-67607007D01*
X85232993Y-67700099D01*
X85286046Y-67730729D01*
X84888961Y-68127814D01*
X85042637Y-68230497D01*
X85233725Y-68309649D01*
X85233732Y-68309651D01*
X85436584Y-68350000D01*
X85643416Y-68350000D01*
X85846267Y-68309651D01*
X85846274Y-68309649D01*
X86037361Y-68230498D01*
X86191037Y-68127815D01*
X86191037Y-68127814D01*
X85793953Y-67730729D01*
X85847007Y-67700099D01*
X85940099Y-67607007D01*
X85970729Y-67553952D01*
X86367814Y-67951037D01*
X86367815Y-67951037D01*
X86470498Y-67797361D01*
X86549649Y-67606274D01*
X86549651Y-67606267D01*
X86590000Y-67403415D01*
X86590000Y-67196584D01*
X86549651Y-66993732D01*
X86549649Y-66993725D01*
X86470497Y-66802637D01*
X86367814Y-66648961D01*
X85970729Y-67046045D01*
X85940099Y-66992993D01*
X85847007Y-66899901D01*
X85793951Y-66869269D01*
X86191037Y-66472183D01*
X86037362Y-66369502D01*
X85846274Y-66290350D01*
X85846267Y-66290348D01*
X85643416Y-66250000D01*
X85436584Y-66250000D01*
X85233732Y-66290348D01*
X85233725Y-66290350D01*
X85042637Y-66369502D01*
X84888961Y-66472183D01*
X85286047Y-66869270D01*
X85232993Y-66899901D01*
X85139901Y-66992993D01*
X85109270Y-67046047D01*
X84712183Y-66648961D01*
X84609502Y-66802637D01*
X84530350Y-66993725D01*
X84530348Y-66993732D01*
X84490000Y-67196584D01*
X84050500Y-67196584D01*
X84050500Y-66430252D01*
X84038867Y-66371769D01*
X84037352Y-66369502D01*
X84024027Y-66349560D01*
X83994552Y-66305448D01*
X83966919Y-66286984D01*
X83928232Y-66261133D01*
X83928233Y-66261133D01*
X83898989Y-66255316D01*
X83869748Y-66249500D01*
X82130252Y-66249500D01*
X82101010Y-66255316D01*
X82071767Y-66261133D01*
X82005449Y-66305447D01*
X82005447Y-66305449D01*
X81961133Y-66371767D01*
X81949500Y-66430253D01*
X80200500Y-66430253D01*
X80200500Y-62693711D01*
X81649500Y-62693711D01*
X81649500Y-62906288D01*
X81682753Y-63116240D01*
X81682756Y-63116253D01*
X81748440Y-63318406D01*
X81844948Y-63507816D01*
X81921475Y-63613146D01*
X81969896Y-63679792D01*
X82120208Y-63830104D01*
X82215656Y-63899451D01*
X82292183Y-63955051D01*
X82383474Y-64001565D01*
X82481588Y-64051557D01*
X82481590Y-64051557D01*
X82481593Y-64051559D01*
X82683746Y-64117243D01*
X82683752Y-64117244D01*
X82683757Y-64117246D01*
X82788735Y-64133873D01*
X82893711Y-64150500D01*
X82893713Y-64150500D01*
X83106289Y-64150500D01*
X83190269Y-64137198D01*
X83316243Y-64117246D01*
X83316250Y-64117243D01*
X83316253Y-64117243D01*
X83518406Y-64051559D01*
X83518406Y-64051558D01*
X83518412Y-64051557D01*
X83707816Y-63955051D01*
X83879792Y-63830104D01*
X84030104Y-63679792D01*
X84155051Y-63507816D01*
X84251557Y-63318412D01*
X84299617Y-63170500D01*
X84317243Y-63116253D01*
X84317243Y-63116250D01*
X84317246Y-63116243D01*
X84348876Y-62916542D01*
X84350500Y-62906288D01*
X84350500Y-62693711D01*
X84333873Y-62588735D01*
X84317246Y-62483757D01*
X84317242Y-62483746D01*
X84296608Y-62420240D01*
X84296608Y-62420239D01*
X84290359Y-62401008D01*
X101799500Y-62401008D01*
X101799500Y-62538991D01*
X101826418Y-62674322D01*
X101826421Y-62674332D01*
X101879223Y-62801808D01*
X101879224Y-62801810D01*
X101879225Y-62801811D01*
X101955886Y-62916542D01*
X102053458Y-63014114D01*
X102168189Y-63090775D01*
X102168190Y-63090775D01*
X102168191Y-63090776D01*
X102295667Y-63143578D01*
X102295672Y-63143580D01*
X102431007Y-63170500D01*
X102431009Y-63170500D01*
X102568991Y-63170500D01*
X102568993Y-63170500D01*
X102704328Y-63143580D01*
X102831811Y-63090775D01*
X102946542Y-63014114D01*
X103044114Y-62916542D01*
X103120775Y-62801811D01*
X103173580Y-62674328D01*
X103200500Y-62538993D01*
X103200500Y-62401008D01*
X104799500Y-62401008D01*
X104799500Y-62538991D01*
X104826418Y-62674322D01*
X104826421Y-62674332D01*
X104879223Y-62801808D01*
X104879224Y-62801810D01*
X104879225Y-62801811D01*
X104955886Y-62916542D01*
X105053458Y-63014114D01*
X105168189Y-63090775D01*
X105168190Y-63090775D01*
X105168191Y-63090776D01*
X105295667Y-63143578D01*
X105295672Y-63143580D01*
X105431007Y-63170500D01*
X105431009Y-63170500D01*
X105568991Y-63170500D01*
X105568993Y-63170500D01*
X105704328Y-63143580D01*
X105831811Y-63090775D01*
X105946542Y-63014114D01*
X106044114Y-62916542D01*
X106120775Y-62801811D01*
X106165551Y-62693711D01*
X109649500Y-62693711D01*
X109649500Y-62906288D01*
X109682753Y-63116240D01*
X109682756Y-63116253D01*
X109748440Y-63318406D01*
X109844948Y-63507816D01*
X109921475Y-63613146D01*
X109969896Y-63679792D01*
X110120208Y-63830104D01*
X110215656Y-63899451D01*
X110292183Y-63955051D01*
X110383474Y-64001565D01*
X110481588Y-64051557D01*
X110481590Y-64051557D01*
X110481593Y-64051559D01*
X110683746Y-64117243D01*
X110683752Y-64117244D01*
X110683757Y-64117246D01*
X110788735Y-64133873D01*
X110893711Y-64150500D01*
X110893713Y-64150500D01*
X111106289Y-64150500D01*
X111190269Y-64137198D01*
X111316243Y-64117246D01*
X111316250Y-64117243D01*
X111316253Y-64117243D01*
X111518406Y-64051559D01*
X111518406Y-64051558D01*
X111518412Y-64051557D01*
X111707816Y-63955051D01*
X111879792Y-63830104D01*
X112030104Y-63679792D01*
X112155051Y-63507816D01*
X112251557Y-63318412D01*
X112299617Y-63170500D01*
X112317243Y-63116253D01*
X112317243Y-63116250D01*
X112317246Y-63116243D01*
X112348876Y-62916542D01*
X112350500Y-62906288D01*
X112350500Y-62693711D01*
X112333873Y-62588735D01*
X112317246Y-62483757D01*
X112317244Y-62483750D01*
X112317243Y-62483746D01*
X112251559Y-62281593D01*
X112251557Y-62281590D01*
X112251557Y-62281588D01*
X112178492Y-62138189D01*
X112155051Y-62092183D01*
X112099451Y-62015656D01*
X112030104Y-61920208D01*
X111879792Y-61769896D01*
X111813146Y-61721475D01*
X111707816Y-61644948D01*
X111518406Y-61548440D01*
X111316253Y-61482756D01*
X111316240Y-61482753D01*
X111106289Y-61449500D01*
X111106287Y-61449500D01*
X110893713Y-61449500D01*
X110893711Y-61449500D01*
X110683759Y-61482753D01*
X110683746Y-61482756D01*
X110481593Y-61548440D01*
X110292183Y-61644948D01*
X110120753Y-61769500D01*
X110120208Y-61769896D01*
X109969896Y-61920208D01*
X109969893Y-61920211D01*
X109969893Y-61920212D01*
X109844948Y-62092183D01*
X109748440Y-62281593D01*
X109682756Y-62483746D01*
X109682753Y-62483759D01*
X109649500Y-62693711D01*
X106165551Y-62693711D01*
X106173580Y-62674328D01*
X106200500Y-62538993D01*
X106200500Y-62401007D01*
X106173580Y-62265672D01*
X106120775Y-62138189D01*
X106044114Y-62023458D01*
X105946542Y-61925886D01*
X105938050Y-61920212D01*
X105831808Y-61849223D01*
X105704332Y-61796421D01*
X105704322Y-61796418D01*
X105613694Y-61778391D01*
X105568993Y-61769500D01*
X105431007Y-61769500D01*
X105392642Y-61777131D01*
X105295677Y-61796418D01*
X105295667Y-61796421D01*
X105168191Y-61849223D01*
X105053461Y-61925883D01*
X104955883Y-62023461D01*
X104879223Y-62138191D01*
X104826421Y-62265667D01*
X104826418Y-62265677D01*
X104799500Y-62401008D01*
X103200500Y-62401008D01*
X103200500Y-62401007D01*
X103173580Y-62265672D01*
X103120775Y-62138189D01*
X103044114Y-62023458D01*
X102946542Y-61925886D01*
X102938050Y-61920212D01*
X102831808Y-61849223D01*
X102704332Y-61796421D01*
X102704322Y-61796418D01*
X102613694Y-61778391D01*
X102568993Y-61769500D01*
X102431007Y-61769500D01*
X102392642Y-61777131D01*
X102295677Y-61796418D01*
X102295667Y-61796421D01*
X102168191Y-61849223D01*
X102053461Y-61925883D01*
X101955883Y-62023461D01*
X101879223Y-62138191D01*
X101826421Y-62265667D01*
X101826418Y-62265677D01*
X101799500Y-62401008D01*
X84290359Y-62401008D01*
X84251559Y-62281593D01*
X84251557Y-62281590D01*
X84251557Y-62281588D01*
X84178492Y-62138189D01*
X84155051Y-62092183D01*
X84099451Y-62015656D01*
X84030104Y-61920208D01*
X83879792Y-61769896D01*
X83813146Y-61721475D01*
X83707816Y-61644948D01*
X83518406Y-61548440D01*
X83316253Y-61482756D01*
X83316240Y-61482753D01*
X83106289Y-61449500D01*
X83106287Y-61449500D01*
X82893713Y-61449500D01*
X82893711Y-61449500D01*
X82683759Y-61482753D01*
X82683746Y-61482756D01*
X82481593Y-61548440D01*
X82292183Y-61644948D01*
X82120753Y-61769500D01*
X82120208Y-61769896D01*
X81969896Y-61920208D01*
X81969893Y-61920211D01*
X81969893Y-61920212D01*
X81844948Y-62092183D01*
X81748440Y-62281593D01*
X81682756Y-62483746D01*
X81682753Y-62483759D01*
X81649500Y-62693711D01*
X80200500Y-62693711D01*
X80200500Y-61502908D01*
X80200728Y-61497102D01*
X80216042Y-61302515D01*
X80217855Y-61291062D01*
X80262745Y-61104077D01*
X80266324Y-61093064D01*
X80339909Y-60915413D01*
X80345180Y-60905071D01*
X80345703Y-60904218D01*
X80445643Y-60741130D01*
X80452458Y-60731750D01*
X80577338Y-60585534D01*
X80585534Y-60577338D01*
X80731750Y-60452458D01*
X80741130Y-60445643D01*
X80905074Y-60345178D01*
X80915413Y-60339909D01*
X81093064Y-60266324D01*
X81104077Y-60262745D01*
X81291062Y-60217855D01*
X81302510Y-60216042D01*
X81497103Y-60200728D01*
X81502909Y-60200500D01*
X81539882Y-60200500D01*
X112460118Y-60200500D01*
X112497091Y-60200500D01*
X112502897Y-60200728D01*
G37*
%TD.AperFunction*%
%TA.AperFunction,Conductor*%
G36*
X96590272Y-81463593D02*
G01*
X96602031Y-81478918D01*
X96639499Y-81543813D01*
X96732687Y-81637001D01*
X96735544Y-81639193D01*
X96763866Y-81688240D01*
X96764500Y-81697904D01*
X96764500Y-84817200D01*
X96801862Y-84907397D01*
X96801863Y-84907401D01*
X96806442Y-84918456D01*
X96806442Y-84918457D01*
X103374958Y-91486974D01*
X103396632Y-91539300D01*
X103374958Y-91591626D01*
X103322632Y-91613300D01*
X98177368Y-91613300D01*
X98125042Y-91591626D01*
X96763701Y-90230285D01*
X95399969Y-88866554D01*
X95378296Y-88814229D01*
X95378929Y-88804570D01*
X95379400Y-88800992D01*
X95379400Y-88669206D01*
X95379399Y-88669205D01*
X95345293Y-88541918D01*
X95345292Y-88541914D01*
X95279400Y-88427786D01*
X95186214Y-88334600D01*
X95186211Y-88334598D01*
X95186209Y-88334596D01*
X95183339Y-88332393D01*
X95155031Y-88283338D01*
X95154400Y-88273694D01*
X95154400Y-84297567D01*
X95176074Y-84245242D01*
X95233145Y-84188170D01*
X95285470Y-84166495D01*
X95295137Y-84167129D01*
X95298704Y-84167598D01*
X95298708Y-84167600D01*
X95298712Y-84167600D01*
X95430494Y-84167600D01*
X95430494Y-84167599D01*
X95557786Y-84133492D01*
X95671914Y-84067600D01*
X95765100Y-83974414D01*
X95830992Y-83860286D01*
X95865099Y-83732994D01*
X95865100Y-83732994D01*
X95865100Y-83601206D01*
X95865099Y-83601205D01*
X95858240Y-83575608D01*
X95830992Y-83473914D01*
X95765100Y-83359786D01*
X95671914Y-83266600D01*
X95661709Y-83260708D01*
X95557790Y-83200710D01*
X95557781Y-83200706D01*
X95430494Y-83166600D01*
X95430492Y-83166600D01*
X95298708Y-83166600D01*
X95298707Y-83166600D01*
X95297247Y-83166991D01*
X95296492Y-83166891D01*
X95293899Y-83167233D01*
X95293807Y-83166537D01*
X95241095Y-83159594D01*
X95206620Y-83114658D01*
X95204100Y-83095511D01*
X95204100Y-82979906D01*
X95204099Y-82979905D01*
X95169993Y-82852618D01*
X95169992Y-82852614D01*
X95169989Y-82852609D01*
X95168134Y-82848129D01*
X95170453Y-82847168D01*
X95164129Y-82799100D01*
X95183278Y-82765936D01*
X96485621Y-81463592D01*
X96537946Y-81441919D01*
X96590272Y-81463593D01*
G37*
%TD.AperFunction*%
%TA.AperFunction,Conductor*%
G36*
X105548593Y-88937361D02*
G01*
X105577999Y-88949541D01*
X105578000Y-88949541D01*
X105578001Y-88949542D01*
X105649600Y-88979200D01*
X109000263Y-88979200D01*
X109052589Y-89000874D01*
X109074263Y-89053200D01*
X109052589Y-89105526D01*
X109014699Y-89125778D01*
X108893586Y-89149868D01*
X108893579Y-89149870D01*
X108702401Y-89229059D01*
X108530345Y-89344022D01*
X108530344Y-89344024D01*
X108384024Y-89490344D01*
X108384022Y-89490345D01*
X108269059Y-89662401D01*
X108189870Y-89853579D01*
X108189868Y-89853586D01*
X108149500Y-90056535D01*
X108149500Y-90263464D01*
X108189868Y-90466413D01*
X108189870Y-90466420D01*
X108262944Y-90642835D01*
X108262944Y-90699473D01*
X108246903Y-90723480D01*
X107705359Y-91265026D01*
X107653033Y-91286700D01*
X105254365Y-91286700D01*
X105202039Y-91265026D01*
X105180365Y-91212700D01*
X105202039Y-91160374D01*
X105210869Y-91152833D01*
X105222322Y-91144511D01*
X105379792Y-91030104D01*
X105530104Y-90879792D01*
X105655051Y-90707816D01*
X105751557Y-90518412D01*
X105805305Y-90352993D01*
X105817243Y-90316253D01*
X105817243Y-90316250D01*
X105817246Y-90316243D01*
X105847704Y-90123938D01*
X105850500Y-90106288D01*
X105850500Y-89893711D01*
X105817246Y-89683759D01*
X105817243Y-89683746D01*
X105751559Y-89481593D01*
X105751557Y-89481589D01*
X105751557Y-89481588D01*
X105681464Y-89344022D01*
X105655051Y-89292183D01*
X105593091Y-89206903D01*
X105530104Y-89120208D01*
X105467952Y-89058056D01*
X105462319Y-89044458D01*
X105451911Y-89034050D01*
X105451910Y-89019328D01*
X105446278Y-89005730D01*
X105451910Y-88992132D01*
X105451910Y-88977412D01*
X105462319Y-88967002D01*
X105467952Y-88953404D01*
X105481549Y-88947771D01*
X105491958Y-88937363D01*
X105506679Y-88937362D01*
X105520278Y-88931730D01*
X105548593Y-88937361D01*
G37*
%TD.AperFunction*%
%TA.AperFunction,Conductor*%
G36*
X102823759Y-86212674D02*
G01*
X105450649Y-88839565D01*
X105472323Y-88891891D01*
X105450649Y-88944217D01*
X105398323Y-88965891D01*
X105354827Y-88951758D01*
X105207816Y-88844948D01*
X105018406Y-88748440D01*
X104816253Y-88682756D01*
X104816240Y-88682753D01*
X104606289Y-88649500D01*
X104606287Y-88649500D01*
X104393713Y-88649500D01*
X104393711Y-88649500D01*
X104183759Y-88682753D01*
X104183746Y-88682756D01*
X103981593Y-88748440D01*
X103792183Y-88844948D01*
X103625720Y-88965891D01*
X103620208Y-88969896D01*
X103469896Y-89120208D01*
X103469893Y-89120211D01*
X103469893Y-89120212D01*
X103344948Y-89292183D01*
X103248440Y-89481593D01*
X103182756Y-89683746D01*
X103182753Y-89683759D01*
X103149500Y-89893711D01*
X103149500Y-90106288D01*
X103182753Y-90316240D01*
X103182756Y-90316253D01*
X103183426Y-90318313D01*
X103183382Y-90318861D01*
X103183434Y-90319075D01*
X103183364Y-90319091D01*
X103178983Y-90374775D01*
X103135915Y-90411558D01*
X103079453Y-90407115D01*
X103060722Y-90393506D01*
X98984541Y-86317326D01*
X98962867Y-86265000D01*
X98984541Y-86212674D01*
X99036867Y-86191000D01*
X102771433Y-86191000D01*
X102823759Y-86212674D01*
G37*
%TD.AperFunction*%
%TD*%
M02*
