%TF.GenerationSoftware,KiCad,Pcbnew,10.0.4*%
%TF.CreationDate,2026-09-10T17:02:07-04:00*%
%TF.ProjectId,pcb_hello_world,7063625f-6865-46c6-9c6f-5f776f726c64,rev?*%
%TF.SameCoordinates,Original*%
%TF.FileFunction,Soldermask,Bot*%
%TF.FilePolarity,Negative*%
%FSLAX46Y46*%
G04 Gerber Fmt 4.6, Leading zero omitted, Abs format (unit mm)*
G04 Created by KiCad (PCBNEW 10.0.4) date 2026-09-10 17:02:07*
%MOMM*%
%LPD*%
G01*
G04 APERTURE LIST*
%ADD10C,2.200000*%
%ADD11C,0.900000*%
%ADD12C,0.700000*%
%ADD13O,0.900000X2.400000*%
%ADD14O,0.900000X1.700000*%
%ADD15R,1.700000X1.700000*%
%ADD16C,1.700000*%
G04 APERTURE END LIST*
D10*
%TO.C,H1*%
X83000000Y-62800000D03*
%TD*%
D11*
%TO.C,SW1*%
X105500000Y-62470000D03*
X102500000Y-62470000D03*
%TD*%
D10*
%TO.C,H2*%
X111000000Y-62800000D03*
%TD*%
D12*
%TO.C,J2*%
X97175000Y-66625000D03*
X96325000Y-66625000D03*
X95475000Y-66625000D03*
X94625000Y-66625000D03*
X93775000Y-66625000D03*
X92925000Y-66625000D03*
X92075000Y-66625000D03*
X91225000Y-66625000D03*
X91225000Y-65275000D03*
X92075000Y-65275000D03*
X92925000Y-65275000D03*
X93775000Y-65275000D03*
X94625000Y-65275000D03*
X95475000Y-65275000D03*
X96325000Y-65275000D03*
X97175000Y-65275000D03*
D13*
X98525000Y-65645000D03*
D14*
X98525000Y-62265000D03*
D13*
X89875000Y-65645000D03*
D14*
X89875000Y-62265000D03*
%TD*%
D15*
%TO.C,J3*%
X83000000Y-67300000D03*
D16*
X85540000Y-67300000D03*
X83000000Y-69840000D03*
X85540000Y-69840000D03*
X83000000Y-72380000D03*
X85540000Y-72380000D03*
X83000000Y-74920000D03*
X85540000Y-74920000D03*
X83000000Y-77460000D03*
X85540000Y-77460000D03*
X83000000Y-80000000D03*
X85540000Y-80000000D03*
X83000000Y-82540000D03*
X85540000Y-82540000D03*
X83000000Y-85080000D03*
X85540000Y-85080000D03*
X83000000Y-87620000D03*
X85540000Y-87620000D03*
X83000000Y-90160000D03*
X85540000Y-90160000D03*
%TD*%
D15*
%TO.C,J1*%
X109200000Y-67300000D03*
D16*
X111740000Y-67300000D03*
X109200000Y-69840000D03*
X111740000Y-69840000D03*
X109200000Y-72380000D03*
X111740000Y-72380000D03*
X109200000Y-74920000D03*
X111740000Y-74920000D03*
X109200000Y-77460000D03*
X111740000Y-77460000D03*
X109200000Y-80000000D03*
X111740000Y-80000000D03*
X109200000Y-82540000D03*
X111740000Y-82540000D03*
X109200000Y-85080000D03*
X111740000Y-85080000D03*
X109200000Y-87620000D03*
X111740000Y-87620000D03*
X109200000Y-90160000D03*
X111740000Y-90160000D03*
%TD*%
D10*
%TO.C,H3*%
X90000000Y-90000000D03*
%TD*%
%TO.C,H4*%
X104500000Y-90000000D03*
%TD*%
M02*
