%TF.GenerationSoftware,KiCad,Pcbnew,10.0.4*%
%TF.CreationDate,2026-09-10T17:02:07-04:00*%
%TF.ProjectId,pcb_hello_world,7063625f-6865-46c6-9c6f-5f776f726c64,rev?*%
%TF.SameCoordinates,Original*%
%TF.FileFunction,Legend,Top*%
%TF.FilePolarity,Positive*%
%FSLAX46Y46*%
G04 Gerber Fmt 4.6, Leading zero omitted, Abs format (unit mm)*
G04 Created by KiCad (PCBNEW 10.0.4) date 2026-09-10 17:02:07*
%MOMM*%
%LPD*%
G01*
G04 APERTURE LIST*
%ADD10C,0.120000*%
G04 APERTURE END LIST*
D10*
X84733333Y-64363855D02*
X84733333Y-64935283D01*
X84733333Y-64935283D02*
X84695238Y-65049569D01*
X84695238Y-65049569D02*
X84619047Y-65125760D01*
X84619047Y-65125760D02*
X84504762Y-65163855D01*
X84504762Y-65163855D02*
X84428571Y-65163855D01*
X85038095Y-64363855D02*
X85533333Y-64363855D01*
X85533333Y-64363855D02*
X85266667Y-64668617D01*
X85266667Y-64668617D02*
X85380952Y-64668617D01*
X85380952Y-64668617D02*
X85457143Y-64706712D01*
X85457143Y-64706712D02*
X85495238Y-64744807D01*
X85495238Y-64744807D02*
X85533333Y-64820998D01*
X85533333Y-64820998D02*
X85533333Y-65011474D01*
X85533333Y-65011474D02*
X85495238Y-65087664D01*
X85495238Y-65087664D02*
X85457143Y-65125760D01*
X85457143Y-65125760D02*
X85380952Y-65163855D01*
X85380952Y-65163855D02*
X85152381Y-65163855D01*
X85152381Y-65163855D02*
X85076190Y-65125760D01*
X85076190Y-65125760D02*
X85038095Y-65087664D01*
X91685715Y-92613855D02*
X91685715Y-91813855D01*
X91685715Y-91813855D02*
X91990477Y-91813855D01*
X91990477Y-91813855D02*
X92066667Y-91851950D01*
X92066667Y-91851950D02*
X92104762Y-91890045D01*
X92104762Y-91890045D02*
X92142858Y-91966236D01*
X92142858Y-91966236D02*
X92142858Y-92080521D01*
X92142858Y-92080521D02*
X92104762Y-92156712D01*
X92104762Y-92156712D02*
X92066667Y-92194807D01*
X92066667Y-92194807D02*
X91990477Y-92232902D01*
X91990477Y-92232902D02*
X91685715Y-92232902D01*
X92485715Y-92613855D02*
X92485715Y-91813855D01*
X92866667Y-92613855D02*
X92866667Y-91813855D01*
X92866667Y-91813855D02*
X93323810Y-92613855D01*
X93323810Y-92613855D02*
X93323810Y-91813855D01*
X94314286Y-92613855D02*
X94314286Y-91813855D01*
X94314286Y-91813855D02*
X94580952Y-92385283D01*
X94580952Y-92385283D02*
X94847619Y-91813855D01*
X94847619Y-91813855D02*
X94847619Y-92613855D01*
X95190476Y-92385283D02*
X95571429Y-92385283D01*
X95114286Y-92613855D02*
X95380953Y-91813855D01*
X95380953Y-91813855D02*
X95647619Y-92613855D01*
X95914286Y-92613855D02*
X95914286Y-91813855D01*
X95914286Y-91813855D02*
X96219048Y-91813855D01*
X96219048Y-91813855D02*
X96295238Y-91851950D01*
X96295238Y-91851950D02*
X96333333Y-91890045D01*
X96333333Y-91890045D02*
X96371429Y-91966236D01*
X96371429Y-91966236D02*
X96371429Y-92080521D01*
X96371429Y-92080521D02*
X96333333Y-92156712D01*
X96333333Y-92156712D02*
X96295238Y-92194807D01*
X96295238Y-92194807D02*
X96219048Y-92232902D01*
X96219048Y-92232902D02*
X95914286Y-92232902D01*
X97476191Y-91813855D02*
X97628572Y-91813855D01*
X97628572Y-91813855D02*
X97704762Y-91851950D01*
X97704762Y-91851950D02*
X97780953Y-91928140D01*
X97780953Y-91928140D02*
X97819048Y-92080521D01*
X97819048Y-92080521D02*
X97819048Y-92347188D01*
X97819048Y-92347188D02*
X97780953Y-92499569D01*
X97780953Y-92499569D02*
X97704762Y-92575760D01*
X97704762Y-92575760D02*
X97628572Y-92613855D01*
X97628572Y-92613855D02*
X97476191Y-92613855D01*
X97476191Y-92613855D02*
X97400000Y-92575760D01*
X97400000Y-92575760D02*
X97323810Y-92499569D01*
X97323810Y-92499569D02*
X97285714Y-92347188D01*
X97285714Y-92347188D02*
X97285714Y-92080521D01*
X97285714Y-92080521D02*
X97323810Y-91928140D01*
X97323810Y-91928140D02*
X97400000Y-91851950D01*
X97400000Y-91851950D02*
X97476191Y-91813855D01*
X98161905Y-92613855D02*
X98161905Y-91813855D01*
X98161905Y-91813855D02*
X98619048Y-92613855D01*
X98619048Y-92613855D02*
X98619048Y-91813855D01*
X99876190Y-92194807D02*
X99990476Y-92232902D01*
X99990476Y-92232902D02*
X100028571Y-92270998D01*
X100028571Y-92270998D02*
X100066667Y-92347188D01*
X100066667Y-92347188D02*
X100066667Y-92461474D01*
X100066667Y-92461474D02*
X100028571Y-92537664D01*
X100028571Y-92537664D02*
X99990476Y-92575760D01*
X99990476Y-92575760D02*
X99914286Y-92613855D01*
X99914286Y-92613855D02*
X99609524Y-92613855D01*
X99609524Y-92613855D02*
X99609524Y-91813855D01*
X99609524Y-91813855D02*
X99876190Y-91813855D01*
X99876190Y-91813855D02*
X99952381Y-91851950D01*
X99952381Y-91851950D02*
X99990476Y-91890045D01*
X99990476Y-91890045D02*
X100028571Y-91966236D01*
X100028571Y-91966236D02*
X100028571Y-92042426D01*
X100028571Y-92042426D02*
X99990476Y-92118617D01*
X99990476Y-92118617D02*
X99952381Y-92156712D01*
X99952381Y-92156712D02*
X99876190Y-92194807D01*
X99876190Y-92194807D02*
X99609524Y-92194807D01*
X100371428Y-92385283D02*
X100752381Y-92385283D01*
X100295238Y-92613855D02*
X100561905Y-91813855D01*
X100561905Y-91813855D02*
X100828571Y-92613855D01*
X101552381Y-92537664D02*
X101514285Y-92575760D01*
X101514285Y-92575760D02*
X101400000Y-92613855D01*
X101400000Y-92613855D02*
X101323809Y-92613855D01*
X101323809Y-92613855D02*
X101209523Y-92575760D01*
X101209523Y-92575760D02*
X101133333Y-92499569D01*
X101133333Y-92499569D02*
X101095238Y-92423379D01*
X101095238Y-92423379D02*
X101057142Y-92270998D01*
X101057142Y-92270998D02*
X101057142Y-92156712D01*
X101057142Y-92156712D02*
X101095238Y-92004331D01*
X101095238Y-92004331D02*
X101133333Y-91928140D01*
X101133333Y-91928140D02*
X101209523Y-91851950D01*
X101209523Y-91851950D02*
X101323809Y-91813855D01*
X101323809Y-91813855D02*
X101400000Y-91813855D01*
X101400000Y-91813855D02*
X101514285Y-91851950D01*
X101514285Y-91851950D02*
X101552381Y-91890045D01*
X101895238Y-92613855D02*
X101895238Y-91813855D01*
X102352381Y-92613855D02*
X102009523Y-92156712D01*
X102352381Y-91813855D02*
X101895238Y-92270998D01*
X100714285Y-65494807D02*
X100828571Y-65532902D01*
X100828571Y-65532902D02*
X100866666Y-65570998D01*
X100866666Y-65570998D02*
X100904762Y-65647188D01*
X100904762Y-65647188D02*
X100904762Y-65761474D01*
X100904762Y-65761474D02*
X100866666Y-65837664D01*
X100866666Y-65837664D02*
X100828571Y-65875760D01*
X100828571Y-65875760D02*
X100752381Y-65913855D01*
X100752381Y-65913855D02*
X100447619Y-65913855D01*
X100447619Y-65913855D02*
X100447619Y-65113855D01*
X100447619Y-65113855D02*
X100714285Y-65113855D01*
X100714285Y-65113855D02*
X100790476Y-65151950D01*
X100790476Y-65151950D02*
X100828571Y-65190045D01*
X100828571Y-65190045D02*
X100866666Y-65266236D01*
X100866666Y-65266236D02*
X100866666Y-65342426D01*
X100866666Y-65342426D02*
X100828571Y-65418617D01*
X100828571Y-65418617D02*
X100790476Y-65456712D01*
X100790476Y-65456712D02*
X100714285Y-65494807D01*
X100714285Y-65494807D02*
X100447619Y-65494807D01*
X101400000Y-65113855D02*
X101552381Y-65113855D01*
X101552381Y-65113855D02*
X101628571Y-65151950D01*
X101628571Y-65151950D02*
X101704762Y-65228140D01*
X101704762Y-65228140D02*
X101742857Y-65380521D01*
X101742857Y-65380521D02*
X101742857Y-65647188D01*
X101742857Y-65647188D02*
X101704762Y-65799569D01*
X101704762Y-65799569D02*
X101628571Y-65875760D01*
X101628571Y-65875760D02*
X101552381Y-65913855D01*
X101552381Y-65913855D02*
X101400000Y-65913855D01*
X101400000Y-65913855D02*
X101323809Y-65875760D01*
X101323809Y-65875760D02*
X101247619Y-65799569D01*
X101247619Y-65799569D02*
X101209523Y-65647188D01*
X101209523Y-65647188D02*
X101209523Y-65380521D01*
X101209523Y-65380521D02*
X101247619Y-65228140D01*
X101247619Y-65228140D02*
X101323809Y-65151950D01*
X101323809Y-65151950D02*
X101400000Y-65113855D01*
X102238095Y-65113855D02*
X102390476Y-65113855D01*
X102390476Y-65113855D02*
X102466666Y-65151950D01*
X102466666Y-65151950D02*
X102542857Y-65228140D01*
X102542857Y-65228140D02*
X102580952Y-65380521D01*
X102580952Y-65380521D02*
X102580952Y-65647188D01*
X102580952Y-65647188D02*
X102542857Y-65799569D01*
X102542857Y-65799569D02*
X102466666Y-65875760D01*
X102466666Y-65875760D02*
X102390476Y-65913855D01*
X102390476Y-65913855D02*
X102238095Y-65913855D01*
X102238095Y-65913855D02*
X102161904Y-65875760D01*
X102161904Y-65875760D02*
X102085714Y-65799569D01*
X102085714Y-65799569D02*
X102047618Y-65647188D01*
X102047618Y-65647188D02*
X102047618Y-65380521D01*
X102047618Y-65380521D02*
X102085714Y-65228140D01*
X102085714Y-65228140D02*
X102161904Y-65151950D01*
X102161904Y-65151950D02*
X102238095Y-65113855D01*
X102809523Y-65113855D02*
X103266666Y-65113855D01*
X103038094Y-65913855D02*
X103038094Y-65113855D01*
X104433333Y-84663855D02*
X104433333Y-83863855D01*
X104433333Y-83863855D02*
X104738095Y-83863855D01*
X104738095Y-83863855D02*
X104814285Y-83901950D01*
X104814285Y-83901950D02*
X104852380Y-83940045D01*
X104852380Y-83940045D02*
X104890476Y-84016236D01*
X104890476Y-84016236D02*
X104890476Y-84130521D01*
X104890476Y-84130521D02*
X104852380Y-84206712D01*
X104852380Y-84206712D02*
X104814285Y-84244807D01*
X104814285Y-84244807D02*
X104738095Y-84282902D01*
X104738095Y-84282902D02*
X104433333Y-84282902D01*
X105157142Y-83863855D02*
X105347618Y-84663855D01*
X105347618Y-84663855D02*
X105499999Y-84092426D01*
X105499999Y-84092426D02*
X105652380Y-84663855D01*
X105652380Y-84663855D02*
X105842857Y-83863855D01*
X106604762Y-84663855D02*
X106338095Y-84282902D01*
X106147619Y-84663855D02*
X106147619Y-83863855D01*
X106147619Y-83863855D02*
X106452381Y-83863855D01*
X106452381Y-83863855D02*
X106528571Y-83901950D01*
X106528571Y-83901950D02*
X106566666Y-83940045D01*
X106566666Y-83940045D02*
X106604762Y-84016236D01*
X106604762Y-84016236D02*
X106604762Y-84130521D01*
X106604762Y-84130521D02*
X106566666Y-84206712D01*
X106566666Y-84206712D02*
X106528571Y-84244807D01*
X106528571Y-84244807D02*
X106452381Y-84282902D01*
X106452381Y-84282902D02*
X106147619Y-84282902D01*
X105709524Y-65913855D02*
X105442857Y-65532902D01*
X105252381Y-65913855D02*
X105252381Y-65113855D01*
X105252381Y-65113855D02*
X105557143Y-65113855D01*
X105557143Y-65113855D02*
X105633333Y-65151950D01*
X105633333Y-65151950D02*
X105671428Y-65190045D01*
X105671428Y-65190045D02*
X105709524Y-65266236D01*
X105709524Y-65266236D02*
X105709524Y-65380521D01*
X105709524Y-65380521D02*
X105671428Y-65456712D01*
X105671428Y-65456712D02*
X105633333Y-65494807D01*
X105633333Y-65494807D02*
X105557143Y-65532902D01*
X105557143Y-65532902D02*
X105252381Y-65532902D01*
X106052381Y-65113855D02*
X106052381Y-65761474D01*
X106052381Y-65761474D02*
X106090476Y-65837664D01*
X106090476Y-65837664D02*
X106128571Y-65875760D01*
X106128571Y-65875760D02*
X106204762Y-65913855D01*
X106204762Y-65913855D02*
X106357143Y-65913855D01*
X106357143Y-65913855D02*
X106433333Y-65875760D01*
X106433333Y-65875760D02*
X106471428Y-65837664D01*
X106471428Y-65837664D02*
X106509524Y-65761474D01*
X106509524Y-65761474D02*
X106509524Y-65113855D01*
X106890476Y-65913855D02*
X106890476Y-65113855D01*
X106890476Y-65113855D02*
X107347619Y-65913855D01*
X107347619Y-65913855D02*
X107347619Y-65113855D01*
X109533333Y-64363855D02*
X109533333Y-64935283D01*
X109533333Y-64935283D02*
X109495238Y-65049569D01*
X109495238Y-65049569D02*
X109419047Y-65125760D01*
X109419047Y-65125760D02*
X109304762Y-65163855D01*
X109304762Y-65163855D02*
X109228571Y-65163855D01*
X110333333Y-65163855D02*
X109876190Y-65163855D01*
X110104762Y-65163855D02*
X110104762Y-64363855D01*
X110104762Y-64363855D02*
X110028571Y-64478140D01*
X110028571Y-64478140D02*
X109952381Y-64554331D01*
X109952381Y-64554331D02*
X109876190Y-64592426D01*
%TO.C,C3*%
X92842164Y-73940000D02*
X93057836Y-73940000D01*
X92842164Y-74660000D02*
X93057836Y-74660000D01*
%TO.C,C7*%
X99492164Y-86140000D02*
X99707836Y-86140000D01*
X99492164Y-86860000D02*
X99707836Y-86860000D01*
%TO.C,C13*%
X97545000Y-67980000D02*
X97545000Y-71900000D01*
X99455000Y-67980000D02*
X97545000Y-67980000D01*
X99455000Y-71900000D02*
X99455000Y-67980000D01*
%TO.C,C8*%
X97492164Y-73940000D02*
X97707836Y-73940000D01*
X97492164Y-74660000D02*
X97707836Y-74660000D01*
%TO.C,R7*%
X88646359Y-72020000D02*
X88953641Y-72020000D01*
X88646359Y-72780000D02*
X88953641Y-72780000D01*
%TO.C,Y1*%
X95290000Y-87340000D02*
X95290000Y-91460000D01*
X98710000Y-87340000D02*
X95290000Y-87340000D01*
%TO.C,C12*%
X105238748Y-76265000D02*
X105761252Y-76265000D01*
X105238748Y-77735000D02*
X105761252Y-77735000D01*
%TO.C,C2*%
X88940000Y-83557836D02*
X88940000Y-83342164D01*
X89660000Y-83557836D02*
X89660000Y-83342164D01*
%TO.C,R6*%
X88646359Y-70520000D02*
X88953641Y-70520000D01*
X88646359Y-71280000D02*
X88953641Y-71280000D01*
%TO.C,R1*%
X88646359Y-73520000D02*
X88953641Y-73520000D01*
X88646359Y-74280000D02*
X88953641Y-74280000D01*
%TO.C,C11*%
X100192164Y-89140000D02*
X100407836Y-89140000D01*
X100192164Y-89860000D02*
X100407836Y-89860000D01*
%TO.C,C10*%
X95107836Y-86140000D02*
X94892164Y-86140000D01*
X95107836Y-86860000D02*
X94892164Y-86860000D01*
%TO.C,R8*%
X102046359Y-79570000D02*
X102353641Y-79570000D01*
X102046359Y-80330000D02*
X102353641Y-80330000D01*
%TO.C,U1*%
X92090000Y-77090000D02*
X92540000Y-77090000D01*
X92090000Y-77540000D02*
X92090000Y-77090000D01*
X92090000Y-84310000D02*
X92090000Y-83860000D01*
X92540000Y-84310000D02*
X92090000Y-84310000D01*
X98860000Y-77090000D02*
X99310000Y-77090000D01*
X99310000Y-77090000D02*
X99310000Y-77540000D01*
X99310000Y-83860000D02*
X99310000Y-84310000D01*
X99310000Y-84310000D02*
X98860000Y-84310000D01*
X92540000Y-84950000D02*
X92070000Y-85290000D01*
X92070000Y-84610000D01*
X92540000Y-84950000D01*
G36*
X92540000Y-84950000D02*
G01*
X92070000Y-85290000D01*
X92070000Y-84610000D01*
X92540000Y-84950000D01*
G37*
%TO.C,J3*%
X81620000Y-65920000D02*
X83000000Y-65920000D01*
X81620000Y-67300000D02*
X81620000Y-65920000D01*
X81620000Y-68570000D02*
X81620000Y-91540000D01*
X81620000Y-68570000D02*
X84270000Y-68570000D01*
X81620000Y-91540000D02*
X86920000Y-91540000D01*
X84270000Y-65920000D02*
X86920000Y-65920000D01*
X84270000Y-68570000D02*
X84270000Y-65920000D01*
X86920000Y-65920000D02*
X86920000Y-91540000D01*
%TO.C,J1*%
X107820000Y-65920000D02*
X109200000Y-65920000D01*
X107820000Y-67300000D02*
X107820000Y-65920000D01*
X107820000Y-68570000D02*
X107820000Y-91540000D01*
X107820000Y-68570000D02*
X110470000Y-68570000D01*
X107820000Y-91540000D02*
X113120000Y-91540000D01*
X110470000Y-65920000D02*
X113120000Y-65920000D01*
X110470000Y-68570000D02*
X110470000Y-65920000D01*
X113120000Y-65920000D02*
X113120000Y-91540000D01*
%TO.C,C5*%
X95490000Y-70540580D02*
X95490000Y-70259420D01*
X96510000Y-70540580D02*
X96510000Y-70259420D01*
%TO.C,R3*%
X104346359Y-82320000D02*
X104653641Y-82320000D01*
X104346359Y-83080000D02*
X104653641Y-83080000D01*
%TO.C,C6*%
X97192164Y-86140000D02*
X97407836Y-86140000D01*
X97192164Y-86860000D02*
X97407836Y-86860000D01*
%TO.C,C1*%
X92907836Y-86340000D02*
X92692164Y-86340000D01*
X92907836Y-87060000D02*
X92692164Y-87060000D01*
%TO.C,R2*%
X92346359Y-72420000D02*
X92653641Y-72420000D01*
X92346359Y-73180000D02*
X92653641Y-73180000D01*
%TO.C,R5*%
X92646359Y-68920000D02*
X92953641Y-68920000D01*
X92646359Y-69680000D02*
X92953641Y-69680000D01*
%TO.C,D1*%
X103765000Y-79700000D02*
X103765000Y-81985000D01*
X103765000Y-81985000D02*
X105235000Y-81985000D01*
X105235000Y-81985000D02*
X105235000Y-79700000D01*
%TO.C,FB1*%
X101837221Y-84490000D02*
X102162779Y-84490000D01*
X101837221Y-85510000D02*
X102162779Y-85510000D01*
%TO.C,R4*%
X90346359Y-68920000D02*
X90653641Y-68920000D01*
X90346359Y-69680000D02*
X90653641Y-69680000D01*
%TO.C,C4*%
X101840000Y-77842164D02*
X101840000Y-78057836D01*
X102560000Y-77842164D02*
X102560000Y-78057836D01*
%TO.C,U2*%
X100090000Y-68990000D02*
X101350000Y-68990000D01*
X100090000Y-72750000D02*
X100090000Y-68990000D01*
X106910000Y-68990000D02*
X105650000Y-68990000D01*
X106910000Y-72750000D02*
X106910000Y-68990000D01*
X100190000Y-74030000D02*
X99860000Y-74270000D01*
X99860000Y-73790000D01*
X100190000Y-74030000D01*
G36*
X100190000Y-74030000D02*
G01*
X99860000Y-74270000D01*
X99860000Y-73790000D01*
X100190000Y-74030000D01*
G37*
%TO.C,C9*%
X93407836Y-87940000D02*
X93192164Y-87940000D01*
X93407836Y-88660000D02*
X93192164Y-88660000D01*
%TD*%
M02*
