%TF.GenerationSoftware,KiCad,Pcbnew,10.0.4*%
%TF.CreationDate,2026-09-10T17:02:07-04:00*%
%TF.ProjectId,pcb_hello_world,7063625f-6865-46c6-9c6f-5f776f726c64,rev?*%
%TF.SameCoordinates,Original*%
%TF.FileFunction,Copper,L1,Top*%
%TF.FilePolarity,Positive*%
%FSLAX46Y46*%
G04 Gerber Fmt 4.6, Leading zero omitted, Abs format (unit mm)*
G04 Created by KiCad (PCBNEW 10.0.4) date 2026-09-10 17:02:07*
%MOMM*%
%LPD*%
G01*
G04 APERTURE LIST*
G04 Aperture macros list*
%AMRoundRect*
0 Rectangle with rounded corners*
0 $1 Rounding radius*
0 $2 $3 $4 $5 $6 $7 $8 $9 X,Y pos of 4 corners*
0 Add a 4 corners polygon primitive as box body*
4,1,4,$2,$3,$4,$5,$6,$7,$8,$9,$2,$3,0*
0 Add four circle primitives for the rounded corners*
1,1,$1+$1,$2,$3*
1,1,$1+$1,$4,$5*
1,1,$1+$1,$6,$7*
1,1,$1+$1,$8,$9*
0 Add four rect primitives between the rounded corners*
20,1,$1+$1,$2,$3,$4,$5,0*
20,1,$1+$1,$4,$5,$6,$7,0*
20,1,$1+$1,$6,$7,$8,$9,0*
20,1,$1+$1,$8,$9,$2,$3,0*%
G04 Aperture macros list end*
%TA.AperFunction,SMDPad,CuDef*%
%ADD10RoundRect,0.140000X-0.140000X-0.170000X0.140000X-0.170000X0.140000X0.170000X-0.140000X0.170000X0*%
%TD*%
%TA.AperFunction,SMDPad,CuDef*%
%ADD11RoundRect,0.250000X-0.445000X0.457500X-0.445000X-0.457500X0.445000X-0.457500X0.445000X0.457500X0*%
%TD*%
%TA.AperFunction,SMDPad,CuDef*%
%ADD12RoundRect,0.135000X-0.135000X-0.185000X0.135000X-0.185000X0.135000X0.185000X-0.135000X0.185000X0*%
%TD*%
%TA.AperFunction,SMDPad,CuDef*%
%ADD13RoundRect,0.250000X-0.350000X0.450000X-0.350000X-0.450000X0.350000X-0.450000X0.350000X0.450000X0*%
%TD*%
%TA.AperFunction,SMDPad,CuDef*%
%ADD14RoundRect,0.250000X-0.250000X-0.475000X0.250000X-0.475000X0.250000X0.475000X-0.250000X0.475000X0*%
%TD*%
%TA.AperFunction,SMDPad,CuDef*%
%ADD15RoundRect,0.140000X0.170000X-0.140000X0.170000X0.140000X-0.170000X0.140000X-0.170000X-0.140000X0*%
%TD*%
%TA.AperFunction,SMDPad,CuDef*%
%ADD16R,1.000000X0.800000*%
%TD*%
%TA.AperFunction,SMDPad,CuDef*%
%ADD17R,0.700000X1.500000*%
%TD*%
%TA.AperFunction,SMDPad,CuDef*%
%ADD18RoundRect,0.140000X0.140000X0.170000X-0.140000X0.170000X-0.140000X-0.170000X0.140000X-0.170000X0*%
%TD*%
%TA.AperFunction,SMDPad,CuDef*%
%ADD19RoundRect,0.075000X0.075000X-0.662500X0.075000X0.662500X-0.075000X0.662500X-0.075000X-0.662500X0*%
%TD*%
%TA.AperFunction,SMDPad,CuDef*%
%ADD20RoundRect,0.075000X0.662500X-0.075000X0.662500X0.075000X-0.662500X0.075000X-0.662500X-0.075000X0*%
%TD*%
%TA.AperFunction,ComponentPad*%
%ADD21C,0.700000*%
%TD*%
%TA.AperFunction,ComponentPad*%
%ADD22O,0.900000X2.400000*%
%TD*%
%TA.AperFunction,ComponentPad*%
%ADD23O,0.900000X1.700000*%
%TD*%
%TA.AperFunction,ComponentPad*%
%ADD24R,1.700000X1.700000*%
%TD*%
%TA.AperFunction,ComponentPad*%
%ADD25C,1.700000*%
%TD*%
%TA.AperFunction,SMDPad,CuDef*%
%ADD26RoundRect,0.225000X0.250000X-0.225000X0.250000X0.225000X-0.250000X0.225000X-0.250000X-0.225000X0*%
%TD*%
%TA.AperFunction,SMDPad,CuDef*%
%ADD27RoundRect,0.218750X0.256250X-0.218750X0.256250X0.218750X-0.256250X0.218750X-0.256250X-0.218750X0*%
%TD*%
%TA.AperFunction,SMDPad,CuDef*%
%ADD28RoundRect,0.218750X-0.218750X-0.256250X0.218750X-0.256250X0.218750X0.256250X-0.218750X0.256250X0*%
%TD*%
%TA.AperFunction,SMDPad,CuDef*%
%ADD29RoundRect,0.140000X-0.170000X0.140000X-0.170000X-0.140000X0.170000X-0.140000X0.170000X0.140000X0*%
%TD*%
%TA.AperFunction,SMDPad,CuDef*%
%ADD30RoundRect,0.375000X0.375000X-0.625000X0.375000X0.625000X-0.375000X0.625000X-0.375000X-0.625000X0*%
%TD*%
%TA.AperFunction,SMDPad,CuDef*%
%ADD31RoundRect,0.500000X1.400000X-0.500000X1.400000X0.500000X-1.400000X0.500000X-1.400000X-0.500000X0*%
%TD*%
%TA.AperFunction,ViaPad*%
%ADD32C,0.600000*%
%TD*%
%TA.AperFunction,Conductor*%
%ADD33C,0.250000*%
%TD*%
%TA.AperFunction,Conductor*%
%ADD34C,0.300000*%
%TD*%
%TA.AperFunction,Conductor*%
%ADD35C,0.400000*%
%TD*%
%TA.AperFunction,Conductor*%
%ADD36C,0.200000*%
%TD*%
%TA.AperFunction,Conductor*%
%ADD37C,0.150000*%
%TD*%
G04 APERTURE END LIST*
D10*
%TO.P,C3,1*%
%TO.N,+3.3V*%
X92470000Y-74300000D03*
%TO.P,C3,2*%
%TO.N,GND*%
X93430000Y-74300000D03*
%TD*%
%TO.P,C7,1*%
%TO.N,+3.3VA*%
X99120000Y-86500000D03*
%TO.P,C7,2*%
%TO.N,GND*%
X100080000Y-86500000D03*
%TD*%
D11*
%TO.P,C13,1*%
%TO.N,+3.3V*%
X98500000Y-68947500D03*
%TO.P,C13,2*%
%TO.N,GND*%
X98500000Y-71652500D03*
%TD*%
D10*
%TO.P,C8,1*%
%TO.N,+3.3V*%
X97120000Y-74300000D03*
%TO.P,C8,2*%
%TO.N,GND*%
X98080000Y-74300000D03*
%TD*%
D12*
%TO.P,R7,1*%
%TO.N,+3.3V*%
X88290000Y-72400000D03*
%TO.P,R7,2*%
%TO.N,/I2C1_SDA*%
X89310000Y-72400000D03*
%TD*%
D13*
%TO.P,Y1,1,1_1*%
%TO.N,/HSE_IN*%
X96150000Y-88300000D03*
%TO.P,Y1,2,G_2*%
%TO.N,GND*%
X96150000Y-90500000D03*
%TO.P,Y1,3,3_3*%
%TO.N,/HSE_OUT*%
X97850000Y-90500000D03*
%TO.P,Y1,4,G_4*%
%TO.N,GND*%
X97850000Y-88300000D03*
%TD*%
D14*
%TO.P,C12,1*%
%TO.N,VBUS*%
X104550000Y-77000000D03*
%TO.P,C12,2*%
%TO.N,GND*%
X106450000Y-77000000D03*
%TD*%
D15*
%TO.P,C2,1*%
%TO.N,+3.3V*%
X89300000Y-83930000D03*
%TO.P,C2,2*%
%TO.N,GND*%
X89300000Y-82970000D03*
%TD*%
D12*
%TO.P,R6,1*%
%TO.N,+3.3V*%
X88290000Y-70900000D03*
%TO.P,R6,2*%
%TO.N,/I2C1_SCL*%
X89310000Y-70900000D03*
%TD*%
D16*
%TO.P,SW1,*%
%TO.N,*%
X107650000Y-63580000D03*
X107650000Y-61370000D03*
X100350000Y-63580000D03*
X100350000Y-61370000D03*
D17*
%TO.P,SW1,1*%
%TO.N,GND*%
X106250000Y-64230000D03*
%TO.P,SW1,2*%
%TO.N,/BOOT_SELECT*%
X103250000Y-64230000D03*
%TO.P,SW1,3*%
%TO.N,+3.3V*%
X101750000Y-64230000D03*
%TD*%
D12*
%TO.P,R1,1*%
%TO.N,/BOOT_SELECT*%
X88290000Y-73900000D03*
%TO.P,R1,2*%
%TO.N,/BOOT0*%
X89310000Y-73900000D03*
%TD*%
D10*
%TO.P,C11,1*%
%TO.N,/HSE_OUT*%
X99820000Y-89500000D03*
%TO.P,C11,2*%
%TO.N,GND*%
X100780000Y-89500000D03*
%TD*%
D18*
%TO.P,C10,1*%
%TO.N,/HSE_IN*%
X95480000Y-86500000D03*
%TO.P,C10,2*%
%TO.N,GND*%
X94520000Y-86500000D03*
%TD*%
D12*
%TO.P,R8,1*%
%TO.N,/PB2*%
X101690000Y-79950000D03*
%TO.P,R8,2*%
%TO.N,GND*%
X102710000Y-79950000D03*
%TD*%
D19*
%TO.P,U1,1,VBAT_1*%
%TO.N,+3.3V*%
X92950000Y-84862500D03*
%TO.P,U1,2,PC13_2*%
%TO.N,/PC13*%
X93450000Y-84862500D03*
%TO.P,U1,3,PC14_3*%
%TO.N,/PC14*%
X93950000Y-84862500D03*
%TO.P,U1,4,PC15_4*%
%TO.N,/PC15*%
X94450000Y-84862500D03*
%TO.P,U1,5,PD0_5*%
%TO.N,/HSE_IN*%
X94950000Y-84862500D03*
%TO.P,U1,6,PD1_6*%
%TO.N,/HSE_OUT*%
X95450000Y-84862500D03*
%TO.P,U1,7,NRST_7*%
%TO.N,/NRST*%
X95950000Y-84862500D03*
%TO.P,U1,8,VSSA_8*%
%TO.N,GND*%
X96450000Y-84862500D03*
%TO.P,U1,9,VDDA_9*%
%TO.N,+3.3VA*%
X96950000Y-84862500D03*
%TO.P,U1,10,PA0_10*%
%TO.N,/PA0*%
X97450000Y-84862500D03*
%TO.P,U1,11,PA1_11*%
%TO.N,/PA1*%
X97950000Y-84862500D03*
%TO.P,U1,12,PA2_12*%
%TO.N,/PA2*%
X98450000Y-84862500D03*
D20*
%TO.P,U1,13,PA3_13*%
%TO.N,/PA3*%
X99862500Y-83450000D03*
%TO.P,U1,14,PA4_14*%
%TO.N,/PA4*%
X99862500Y-82950000D03*
%TO.P,U1,15,PA5_15*%
%TO.N,/SPI1_SCK*%
X99862500Y-82450000D03*
%TO.P,U1,16,PA6_16*%
%TO.N,/SPI1_MISO*%
X99862500Y-81950000D03*
%TO.P,U1,17,PA7_17*%
%TO.N,/SPI1_MOSI*%
X99862500Y-81450000D03*
%TO.P,U1,18,PB0_18*%
%TO.N,/PB0*%
X99862500Y-80950000D03*
%TO.P,U1,19,PB1_19*%
%TO.N,/PB1*%
X99862500Y-80450000D03*
%TO.P,U1,20,PB2_20*%
%TO.N,/PB2*%
X99862500Y-79950000D03*
%TO.P,U1,21,PB10_21*%
%TO.N,/PB10*%
X99862500Y-79450000D03*
%TO.P,U1,22,PB11_22*%
%TO.N,/PB11*%
X99862500Y-78950000D03*
%TO.P,U1,23,VSS_23*%
%TO.N,GND*%
X99862500Y-78450000D03*
%TO.P,U1,24,VDD_24*%
%TO.N,+3.3V*%
X99862500Y-77950000D03*
D19*
%TO.P,U1,25,PB12_25*%
%TO.N,/PB12*%
X98450000Y-76537500D03*
%TO.P,U1,26,PB13_26*%
%TO.N,/PB13*%
X97950000Y-76537500D03*
%TO.P,U1,27,PB14_27*%
%TO.N,/PB14*%
X97450000Y-76537500D03*
%TO.P,U1,28,PB15_28*%
%TO.N,/PB15*%
X96950000Y-76537500D03*
%TO.P,U1,29,PA8_29*%
%TO.N,/PA8*%
X96450000Y-76537500D03*
%TO.P,U1,30,PA9_30*%
%TO.N,/USART1_TX*%
X95950000Y-76537500D03*
%TO.P,U1,31,PA10_31*%
%TO.N,/USART1_RX*%
X95450000Y-76537500D03*
%TO.P,U1,32,PA11_32*%
%TO.N,/USB_D-*%
X94950000Y-76537500D03*
%TO.P,U1,33,PA12_33*%
%TO.N,/USB_D+*%
X94450000Y-76537500D03*
%TO.P,U1,34,PA13_34*%
%TO.N,/SWDIO*%
X93950000Y-76537500D03*
%TO.P,U1,35,VSS_35*%
%TO.N,GND*%
X93450000Y-76537500D03*
%TO.P,U1,36,VDD_36*%
%TO.N,+3.3V*%
X92950000Y-76537500D03*
D20*
%TO.P,U1,37,PA14_37*%
%TO.N,/SWCLK*%
X91537500Y-77950000D03*
%TO.P,U1,38,PA15_38*%
%TO.N,/PA15*%
X91537500Y-78450000D03*
%TO.P,U1,39,PB3_39*%
%TO.N,/PB3*%
X91537500Y-78950000D03*
%TO.P,U1,40,PB4_40*%
%TO.N,/PB4*%
X91537500Y-79450000D03*
%TO.P,U1,41,PB5_41*%
%TO.N,/PB5*%
X91537500Y-79950000D03*
%TO.P,U1,42,PB6_42*%
%TO.N,/I2C1_SCL*%
X91537500Y-80450000D03*
%TO.P,U1,43,PB7_43*%
%TO.N,/I2C1_SDA*%
X91537500Y-80950000D03*
%TO.P,U1,44,BOOT0_44*%
%TO.N,/BOOT0*%
X91537500Y-81450000D03*
%TO.P,U1,45,PB8_45*%
%TO.N,/CAN_RX*%
X91537500Y-81950000D03*
%TO.P,U1,46,PB9_46*%
%TO.N,/CAN_TX*%
X91537500Y-82450000D03*
%TO.P,U1,47,VSS_47*%
%TO.N,GND*%
X91537500Y-82950000D03*
%TO.P,U1,48,VDD_48*%
%TO.N,+3.3V*%
X91537500Y-83450000D03*
%TD*%
D21*
%TO.P,J2,A1*%
%TO.N,GND*%
X97175000Y-66625000D03*
%TO.P,J2,A4*%
%TO.N,VBUS*%
X96325000Y-66625000D03*
%TO.P,J2,A5*%
%TO.N,/USB_CC1*%
X95475000Y-66625000D03*
%TO.P,J2,A6*%
%TO.N,/USB_D+*%
X94625000Y-66625000D03*
%TO.P,J2,A7*%
%TO.N,/USB_D-*%
X93775000Y-66625000D03*
%TO.P,J2,A8*%
%TO.N,unconnected-(J2-SBU1-PadA8)*%
X92925000Y-66625000D03*
%TO.P,J2,A9*%
%TO.N,VBUS*%
X92075000Y-66625000D03*
%TO.P,J2,A12*%
%TO.N,GND*%
X91225000Y-66625000D03*
%TO.P,J2,B1*%
X91225000Y-65275000D03*
%TO.P,J2,B4*%
%TO.N,VBUS*%
X92075000Y-65275000D03*
%TO.P,J2,B5*%
%TO.N,/USB_CC2*%
X92925000Y-65275000D03*
%TO.P,J2,B6*%
%TO.N,/USB_D+*%
X93775000Y-65275000D03*
%TO.P,J2,B7*%
%TO.N,/USB_D-*%
X94625000Y-65275000D03*
%TO.P,J2,B8*%
%TO.N,unconnected-(J2-SBU2-PadB8)*%
X95475000Y-65275000D03*
%TO.P,J2,B9*%
%TO.N,VBUS*%
X96325000Y-65275000D03*
%TO.P,J2,B12*%
%TO.N,GND*%
X97175000Y-65275000D03*
D22*
%TO.P,J2,SH*%
X98525000Y-65645000D03*
D23*
X98525000Y-62265000D03*
D22*
X89875000Y-65645000D03*
D23*
X89875000Y-62265000D03*
%TD*%
D24*
%TO.P,J3,1*%
%TO.N,+3.3V*%
X83000000Y-67300000D03*
D25*
%TO.P,J3,2*%
%TO.N,GND*%
X85540000Y-67300000D03*
%TO.P,J3,3*%
%TO.N,/CAN_RX*%
X83000000Y-69840000D03*
%TO.P,J3,4*%
%TO.N,/CAN_TX*%
X85540000Y-69840000D03*
%TO.P,J3,5*%
%TO.N,/I2C1_SCL*%
X83000000Y-72380000D03*
%TO.P,J3,6*%
%TO.N,/I2C1_SDA*%
X85540000Y-72380000D03*
%TO.P,J3,7*%
%TO.N,/PB5*%
X83000000Y-74920000D03*
%TO.P,J3,8*%
%TO.N,/PB4*%
X85540000Y-74920000D03*
%TO.P,J3,9*%
%TO.N,/PB3*%
X83000000Y-77460000D03*
%TO.P,J3,10*%
%TO.N,/PA15*%
X85540000Y-77460000D03*
%TO.P,J3,11*%
%TO.N,/SWCLK*%
X83000000Y-80000000D03*
%TO.P,J3,12*%
%TO.N,/SWDIO*%
X85540000Y-80000000D03*
%TO.P,J3,13*%
%TO.N,/USART1_TX*%
X83000000Y-82540000D03*
%TO.P,J3,14*%
%TO.N,/USART1_RX*%
X85540000Y-82540000D03*
%TO.P,J3,15*%
%TO.N,/PA8*%
X83000000Y-85080000D03*
%TO.P,J3,16*%
%TO.N,/PB15*%
X85540000Y-85080000D03*
%TO.P,J3,17*%
%TO.N,/PB14*%
X83000000Y-87620000D03*
%TO.P,J3,18*%
%TO.N,/PB13*%
X85540000Y-87620000D03*
%TO.P,J3,19*%
%TO.N,/PB12*%
X83000000Y-90160000D03*
%TO.P,J3,20*%
%TO.N,GND*%
X85540000Y-90160000D03*
%TD*%
D24*
%TO.P,J1,1*%
%TO.N,+3.3V*%
X109200000Y-67300000D03*
D25*
%TO.P,J1,2*%
%TO.N,GND*%
X111740000Y-67300000D03*
%TO.P,J1,3*%
%TO.N,/PC13*%
X109200000Y-69840000D03*
%TO.P,J1,4*%
%TO.N,/PC14*%
X111740000Y-69840000D03*
%TO.P,J1,5*%
%TO.N,/PC15*%
X109200000Y-72380000D03*
%TO.P,J1,6*%
%TO.N,/NRST*%
X111740000Y-72380000D03*
%TO.P,J1,7*%
%TO.N,/PA0*%
X109200000Y-74920000D03*
%TO.P,J1,8*%
%TO.N,/PA1*%
X111740000Y-74920000D03*
%TO.P,J1,9*%
%TO.N,/PA2*%
X109200000Y-77460000D03*
%TO.P,J1,10*%
%TO.N,/PA3*%
X111740000Y-77460000D03*
%TO.P,J1,11*%
%TO.N,/PA4*%
X109200000Y-80000000D03*
%TO.P,J1,12*%
%TO.N,/SPI1_SCK*%
X111740000Y-80000000D03*
%TO.P,J1,13*%
%TO.N,/SPI1_MISO*%
X109200000Y-82540000D03*
%TO.P,J1,14*%
%TO.N,/SPI1_MOSI*%
X111740000Y-82540000D03*
%TO.P,J1,15*%
%TO.N,/PB0*%
X109200000Y-85080000D03*
%TO.P,J1,16*%
%TO.N,/PB1*%
X111740000Y-85080000D03*
%TO.P,J1,17*%
%TO.N,/PB2*%
X109200000Y-87620000D03*
%TO.P,J1,18*%
%TO.N,/PB10*%
X111740000Y-87620000D03*
%TO.P,J1,19*%
%TO.N,/PB11*%
X109200000Y-90160000D03*
%TO.P,J1,20*%
%TO.N,GND*%
X111740000Y-90160000D03*
%TD*%
D26*
%TO.P,C5,1*%
%TO.N,+3.3V*%
X96000000Y-71175000D03*
%TO.P,C5,2*%
%TO.N,GND*%
X96000000Y-69625000D03*
%TD*%
D12*
%TO.P,R3,1*%
%TO.N,GND*%
X103990000Y-82700000D03*
%TO.P,R3,2*%
%TO.N,/PWR_LED_K*%
X105010000Y-82700000D03*
%TD*%
D10*
%TO.P,C6,1*%
%TO.N,+3.3VA*%
X96820000Y-86500000D03*
%TO.P,C6,2*%
%TO.N,GND*%
X97780000Y-86500000D03*
%TD*%
D18*
%TO.P,C1,1*%
%TO.N,+3.3V*%
X93280000Y-86700000D03*
%TO.P,C1,2*%
%TO.N,GND*%
X92320000Y-86700000D03*
%TD*%
D12*
%TO.P,R2,1*%
%TO.N,+3.3V*%
X91990000Y-72800000D03*
%TO.P,R2,2*%
%TO.N,/USB_D+*%
X93010000Y-72800000D03*
%TD*%
%TO.P,R5,1*%
%TO.N,GND*%
X92290000Y-69300000D03*
%TO.P,R5,2*%
%TO.N,/USB_CC2*%
X93310000Y-69300000D03*
%TD*%
D27*
%TO.P,D1,1,K_1*%
%TO.N,/PWR_LED_K*%
X104500000Y-81287500D03*
%TO.P,D1,2,A_2*%
%TO.N,+3.3V*%
X104500000Y-79712500D03*
%TD*%
D28*
%TO.P,FB1,1*%
%TO.N,+3.3VA*%
X101212500Y-85000000D03*
%TO.P,FB1,2*%
%TO.N,+3.3V*%
X102787500Y-85000000D03*
%TD*%
D12*
%TO.P,R4,1*%
%TO.N,GND*%
X89990000Y-69300000D03*
%TO.P,R4,2*%
%TO.N,/USB_CC1*%
X91010000Y-69300000D03*
%TD*%
D29*
%TO.P,C4,1*%
%TO.N,+3.3V*%
X102200000Y-77470000D03*
%TO.P,C4,2*%
%TO.N,GND*%
X102200000Y-78430000D03*
%TD*%
D30*
%TO.P,U2,1,GND_1*%
%TO.N,GND*%
X101200000Y-74050000D03*
%TO.P,U2,2,VO_2*%
%TO.N,+3.3V*%
X103500000Y-74050000D03*
D31*
X103500000Y-67750000D03*
D30*
%TO.P,U2,3,VI_3*%
%TO.N,VBUS*%
X105800000Y-74050000D03*
%TD*%
D18*
%TO.P,C9,1*%
%TO.N,/NRST*%
X93780000Y-88300000D03*
%TO.P,C9,2*%
%TO.N,GND*%
X92820000Y-88300000D03*
%TD*%
D32*
%TO.N,+3.3V*%
X90000000Y-74300000D03*
X90000000Y-84500000D03*
X101975000Y-84258400D03*
X96000000Y-73000000D03*
X105456200Y-79662900D03*
%TO.N,GND*%
X89000000Y-67500000D03*
X87000000Y-91500000D03*
X87500000Y-66000000D03*
X98100000Y-86650000D03*
X100000000Y-72000000D03*
X97000000Y-91800000D03*
X107000000Y-90000000D03*
X102500000Y-87500000D03*
X106500000Y-71000000D03*
X98800000Y-88300000D03*
%TO.N,/I2C1_SDA*%
X88636100Y-81653000D03*
%TO.N,VBUS*%
X102496300Y-75640700D03*
%TO.N,/BOOT_SELECT*%
X103213900Y-65439500D03*
X90291400Y-73149200D03*
%TO.N,/PB2*%
X102741200Y-82571300D03*
%TO.N,/PC13*%
X93532400Y-83628600D03*
%TO.N,/PC14*%
X94264200Y-83641500D03*
%TO.N,/PC15*%
X94703600Y-83045800D03*
%TO.N,/NRST*%
X95364600Y-83667100D03*
X94878900Y-88735100D03*
%TO.N,/PA0*%
X98686800Y-83292700D03*
%TO.N,/PA1*%
X100392300Y-84032300D03*
%TO.N,/PA2*%
X99096800Y-85324900D03*
%TO.N,/PA3*%
X101153500Y-83995200D03*
%TO.N,/PA4*%
X101048900Y-83139300D03*
%TO.N,/SPI1_SCK*%
X98680600Y-82450000D03*
%TO.N,/SPI1_MISO*%
X103428100Y-83751700D03*
%TO.N,/SPI1_MOSI*%
X98691500Y-81450000D03*
%TO.N,/PB0*%
X98173900Y-80807000D03*
%TO.N,/PB1*%
X103278700Y-82071100D03*
%TO.N,/PB11*%
X97040000Y-81236500D03*
%TO.N,/PB12*%
X97914600Y-78562700D03*
%TO.N,/PB13*%
X97796000Y-75367300D03*
%TO.N,/PB14*%
X93631800Y-80822100D03*
%TO.N,/PB15*%
X93837400Y-79365400D03*
%TO.N,/PA8*%
X96880600Y-75184500D03*
%TO.N,/USART1_TX*%
X94738700Y-78254000D03*
%TO.N,/USART1_RX*%
X94180100Y-77735600D03*
%TO.N,/USB_D-*%
X93775000Y-68000000D03*
X95150000Y-68000000D03*
%TO.N,/SWDIO*%
X91115800Y-71608200D03*
%TO.N,/USB_CC1*%
X91830600Y-68619400D03*
%TD*%
%TO.N,+3.3V*%
D33*
X92950000Y-84862500D02*
X92950000Y-86370000D01*
X92950000Y-76537500D02*
X92950000Y-74780000D01*
D34*
X91160000Y-72800000D02*
X91990000Y-72800000D01*
D35*
X103500000Y-74050000D02*
X103500000Y-68947500D01*
D34*
X101750000Y-66000000D02*
X103500000Y-67750000D01*
X83000000Y-67300000D02*
X84131700Y-67300000D01*
X89870000Y-84500000D02*
X89300000Y-83930000D01*
X103500000Y-74050000D02*
X103264400Y-74050000D01*
X101914600Y-77184600D02*
X102200000Y-77470000D01*
X102716600Y-85000000D02*
X101975000Y-84258400D01*
X98500000Y-68947500D02*
X98227500Y-68947500D01*
X96000000Y-73000000D02*
X96000000Y-71175000D01*
X102200000Y-77470000D02*
X102257500Y-77470000D01*
X92950000Y-84862500D02*
X90362500Y-84862500D01*
D33*
X92950000Y-74780000D02*
X92470000Y-74300000D01*
X99862500Y-77950000D02*
X101720000Y-77950000D01*
D34*
X87830700Y-68431700D02*
X89862200Y-70463200D01*
X88290000Y-70900000D02*
X88892200Y-71502200D01*
X104500000Y-79712500D02*
X104549600Y-79662900D01*
D33*
X91537500Y-83450000D02*
X89780000Y-83450000D01*
X92950000Y-86370000D02*
X93280000Y-86700000D01*
X101720000Y-77950000D02*
X102200000Y-77470000D01*
D34*
X98227500Y-68947500D02*
X96000000Y-71175000D01*
X102787500Y-85000000D02*
X102716600Y-85000000D01*
X88290000Y-72400000D02*
X88290000Y-70900000D01*
X91990000Y-72800000D02*
X91990000Y-73820000D01*
X89862200Y-70463200D02*
X89862200Y-71502200D01*
X103264400Y-74050000D02*
X101914600Y-75399800D01*
X102257500Y-77470000D02*
X104500000Y-79712500D01*
X90362500Y-84862500D02*
X90000000Y-84500000D01*
X107618300Y-67750000D02*
X103500000Y-67750000D01*
X90000000Y-84500000D02*
X89870000Y-84500000D01*
X84131700Y-67512300D02*
X85051100Y-68431700D01*
X89862200Y-71502200D02*
X91160000Y-72800000D01*
X92470000Y-74300000D02*
X90000000Y-74300000D01*
X109200000Y-67300000D02*
X108068300Y-67300000D01*
X85051100Y-68431700D02*
X87830700Y-68431700D01*
X101750000Y-64230000D02*
X101750000Y-66000000D01*
X101914600Y-75399800D02*
X101914600Y-77184600D01*
X108068300Y-67300000D02*
X107618300Y-67750000D01*
X96000000Y-73180000D02*
X96000000Y-73000000D01*
X97120000Y-74300000D02*
X96000000Y-73180000D01*
D33*
X89780000Y-83450000D02*
X89300000Y-83930000D01*
D34*
X104549600Y-79662900D02*
X105456200Y-79662900D01*
D35*
X103500000Y-68947500D02*
X98500000Y-68947500D01*
D34*
X91990000Y-73820000D02*
X92470000Y-74300000D01*
X84131700Y-67300000D02*
X84131700Y-67512300D01*
X88892200Y-71502200D02*
X89862200Y-71502200D01*
%TO.N,GND*%
D33*
X98857000Y-74300000D02*
X98500000Y-74300000D01*
X106151600Y-64498600D02*
X104276300Y-62623300D01*
X105475300Y-80431200D02*
X106450000Y-79456500D01*
X93075100Y-82375100D02*
X96283900Y-82375100D01*
X93130900Y-78639700D02*
X93130900Y-80535700D01*
X91225000Y-65275000D02*
X90855000Y-65645000D01*
X99862500Y-78450000D02*
X98857000Y-78450000D01*
X92320000Y-86700000D02*
X92820000Y-87200000D01*
X103990000Y-86500000D02*
X106534200Y-89044200D01*
X93727700Y-87292300D02*
X92820000Y-87292300D01*
X106450000Y-79456500D02*
X106450000Y-77000000D01*
X98857000Y-78450000D02*
X98857000Y-74300000D01*
X97175000Y-68450000D02*
X97175000Y-66625000D01*
X102710000Y-78940000D02*
X102710000Y-79950000D01*
X96150000Y-90500000D02*
X95020000Y-90500000D01*
X88722700Y-84293200D02*
X91129500Y-86700000D01*
X93130900Y-80535700D02*
X93075100Y-80591500D01*
X98525000Y-65645000D02*
X97545000Y-65645000D01*
X107919900Y-72086700D02*
X107919900Y-75530100D01*
X106250000Y-64498600D02*
X106151600Y-64498600D01*
X97850000Y-88800000D02*
X96150000Y-90500000D01*
X92820000Y-87292300D02*
X92820000Y-88300000D01*
X99354700Y-91506400D02*
X100780000Y-90081100D01*
X103191200Y-80431200D02*
X105475300Y-80431200D01*
X87400000Y-88300000D02*
X92820000Y-88300000D01*
X93075100Y-82375100D02*
X92500200Y-82950000D01*
X98500000Y-74300000D02*
X98080000Y-74300000D01*
X104276300Y-62438500D02*
X102551100Y-60713300D01*
X95020000Y-90500000D02*
X92820000Y-88300000D01*
X90855000Y-65645000D02*
X89875000Y-65645000D01*
X97545000Y-65645000D02*
X97175000Y-65275000D01*
X97850000Y-88300000D02*
X97850000Y-88800000D01*
X100950000Y-74300000D02*
X98857000Y-74300000D01*
X110470000Y-66506300D02*
X110470000Y-67300000D01*
X96000000Y-69625000D02*
X97175000Y-68450000D01*
X85540000Y-67300000D02*
X88220000Y-67300000D01*
X110470000Y-67300000D02*
X110470000Y-70160300D01*
X89875000Y-62265000D02*
X98525000Y-62265000D01*
X91129500Y-86700000D02*
X92320000Y-86700000D01*
X102551100Y-60713300D02*
X98970000Y-60713300D01*
X91666000Y-69924000D02*
X92290000Y-69300000D01*
X99882500Y-78430000D02*
X99862500Y-78450000D01*
X93450000Y-76537500D02*
X93450000Y-74320000D01*
X93450000Y-76537500D02*
X93450000Y-78320600D01*
X106250000Y-65236700D02*
X109200400Y-65236700D01*
X98970000Y-60713300D02*
X98525000Y-61158300D01*
X93450000Y-74320000D02*
X93430000Y-74300000D01*
X96283900Y-82375100D02*
X96283900Y-81023100D01*
X96150000Y-90500000D02*
X97156400Y-91506400D01*
X92820000Y-87200000D02*
X92820000Y-87292300D01*
X89320000Y-82950000D02*
X89300000Y-82970000D01*
X106250000Y-64230000D02*
X106250000Y-64498600D01*
X102200000Y-78430000D02*
X102710000Y-78940000D01*
X93075100Y-80591500D02*
X93075100Y-82375100D01*
X102710000Y-79950000D02*
X103191200Y-80431200D01*
X94520000Y-86500000D02*
X93727700Y-87292300D01*
X85540000Y-90160000D02*
X87400000Y-88300000D01*
X102200000Y-78430000D02*
X99882500Y-78430000D01*
X92500200Y-82950000D02*
X91537500Y-82950000D01*
X98500000Y-71652500D02*
X98500000Y-74300000D01*
X100780000Y-89500000D02*
X100780000Y-87200000D01*
X100780000Y-87200000D02*
X100080000Y-86500000D01*
X96283900Y-81023100D02*
X98857000Y-78450000D01*
X106534200Y-89044200D02*
X110624200Y-89044200D01*
X88220000Y-67300000D02*
X88220000Y-67530000D01*
X110470000Y-70160300D02*
X109520300Y-71110000D01*
X88220000Y-67530000D02*
X89990000Y-69300000D01*
X111740000Y-67300000D02*
X110470000Y-67300000D01*
X100780000Y-90081100D02*
X100780000Y-89500000D01*
X110624200Y-89044200D02*
X111740000Y-90160000D01*
X89300000Y-82970000D02*
X88722700Y-83547300D01*
X91537500Y-82950000D02*
X89320000Y-82950000D01*
X93450000Y-78320600D02*
X93130900Y-78639700D01*
X106250000Y-64498600D02*
X106250000Y-65236700D01*
X89990000Y-69300000D02*
X90614000Y-69924000D01*
X96450000Y-84862500D02*
X96450000Y-82541200D01*
X109200400Y-65236700D02*
X110470000Y-66506300D01*
X88722700Y-83547300D02*
X88722700Y-84293200D01*
X90614000Y-69924000D02*
X91666000Y-69924000D01*
X100080000Y-86500000D02*
X103990000Y-86500000D01*
X108896600Y-71110000D02*
X107919900Y-72086700D01*
X101200000Y-74050000D02*
X100950000Y-74300000D01*
X107919900Y-75530100D02*
X106450000Y-77000000D01*
X103990000Y-82700000D02*
X103990000Y-86500000D01*
X109520300Y-71110000D02*
X108896600Y-71110000D01*
X97156400Y-91506400D02*
X99354700Y-91506400D01*
X104276300Y-62623300D02*
X104276300Y-62438500D01*
X98525000Y-62265000D02*
X98525000Y-61158300D01*
X88220000Y-67300000D02*
X89875000Y-65645000D01*
X96450000Y-82541200D02*
X96283900Y-82375100D01*
%TO.N,+3.3VA*%
X100620000Y-85000000D02*
X101212500Y-85000000D01*
D36*
X96820000Y-85950000D02*
X99120000Y-85950000D01*
X96820000Y-86500000D02*
X96820000Y-85950000D01*
D33*
X99120000Y-86500000D02*
X100620000Y-85000000D01*
X96950000Y-84862500D02*
X96950000Y-86370000D01*
D34*
X101212500Y-85000000D02*
X101212000Y-85000000D01*
D33*
X96950000Y-86370000D02*
X96820000Y-86500000D01*
D36*
X99120000Y-85950000D02*
X99120000Y-86500000D01*
%TO.N,/I2C1_SDA*%
D37*
X89339100Y-80950000D02*
X91537500Y-80950000D01*
X88764100Y-72945900D02*
X86105900Y-72945900D01*
X86105900Y-72945900D02*
X85540000Y-72380000D01*
X88636100Y-81653000D02*
X89339100Y-80950000D01*
X89310000Y-72400000D02*
X88764100Y-72945900D01*
%TO.N,/HSE_IN*%
D36*
X95480000Y-86500000D02*
X95480000Y-87630000D01*
X95480000Y-87630000D02*
X96150000Y-88300000D01*
X94950000Y-84862500D02*
X94950000Y-85970000D01*
X94950000Y-85970000D02*
X95480000Y-86500000D01*
%TO.N,/HSE_OUT*%
X99820000Y-89500000D02*
X99820000Y-90500000D01*
X99820000Y-90500000D02*
X97850000Y-90500000D01*
X95450000Y-85900000D02*
X96200000Y-85900000D01*
X99820000Y-87300000D02*
X99820000Y-89500000D01*
X96200000Y-87300000D02*
X99820000Y-87300000D01*
X96200000Y-85900000D02*
X96200000Y-87300000D01*
X95450000Y-84862500D02*
X95450000Y-85900000D01*
%TO.N,VBUS*%
D35*
X105800000Y-75750000D02*
X104550000Y-77000000D01*
D34*
X103855600Y-77000000D02*
X102496300Y-75640700D01*
X92075000Y-65275000D02*
X92075000Y-65139700D01*
X92075000Y-65139700D02*
X92641000Y-64573700D01*
X96325000Y-65177100D02*
X96325000Y-65275000D01*
X92641000Y-64573700D02*
X95721600Y-64573700D01*
X95721600Y-64573700D02*
X96325000Y-65177100D01*
X104550000Y-77000000D02*
X103855600Y-77000000D01*
D35*
X105800000Y-74050000D02*
X105800000Y-75750000D01*
%TO.N,/I2C1_SCL*%
D37*
X86507100Y-71323300D02*
X87460400Y-70370000D01*
X81298200Y-74081800D02*
X83000000Y-72380000D01*
X87460400Y-70370000D02*
X88780000Y-70370000D01*
X89122500Y-80450000D02*
X88216400Y-81356100D01*
X81298200Y-80275400D02*
X81298200Y-74081800D01*
X83000000Y-72380000D02*
X84056700Y-71323300D01*
X88780000Y-70370000D02*
X89310000Y-70900000D01*
X84056700Y-71323300D02*
X86507100Y-71323300D01*
X88216400Y-81356100D02*
X82378900Y-81356100D01*
X82378900Y-81356100D02*
X81298200Y-80275400D01*
X91537500Y-80450000D02*
X89122500Y-80450000D01*
%TO.N,/BOOT_SELECT*%
X103250000Y-64230000D02*
X103250000Y-65403400D01*
X89040800Y-73149200D02*
X88290000Y-73900000D01*
X103250000Y-65403400D02*
X103213900Y-65439500D01*
X90291400Y-73149200D02*
X89040800Y-73149200D01*
%TO.N,/BOOT0*%
X89310000Y-74333700D02*
X89814100Y-74837800D01*
X89981600Y-74837800D02*
X92786100Y-77642300D01*
X92221600Y-81450000D02*
X91537500Y-81450000D01*
X92786100Y-80411300D02*
X92743400Y-80454000D01*
X89814100Y-74837800D02*
X89981600Y-74837800D01*
X89310000Y-73900000D02*
X89310000Y-74333700D01*
X92743400Y-80928200D02*
X92221600Y-81450000D01*
X92743400Y-80454000D02*
X92743400Y-80928200D01*
X92786100Y-77642300D02*
X92786100Y-80411300D01*
%TO.N,/PB2*%
X101690000Y-79950000D02*
X101690000Y-81520100D01*
X101690000Y-81520100D02*
X102741200Y-82571300D01*
X99862500Y-79950000D02*
X101690000Y-79950000D01*
%TO.N,/PC13*%
X93450000Y-83711000D02*
X93532400Y-83628600D01*
X93450000Y-84862500D02*
X93450000Y-83711000D01*
%TO.N,/PC14*%
X93950000Y-84862500D02*
X93950000Y-83955700D01*
X93950000Y-83955700D02*
X94264200Y-83641500D01*
%TO.N,/PC15*%
X94770900Y-83851500D02*
X94770900Y-83113100D01*
X94770900Y-83113100D02*
X94703600Y-83045800D01*
X94450000Y-84172400D02*
X94770900Y-83851500D01*
X94450000Y-84862500D02*
X94450000Y-84172400D01*
%TO.N,/NRST*%
X95950000Y-84129600D02*
X95950000Y-84862500D01*
X94878900Y-88735100D02*
X94215100Y-88735100D01*
X94215100Y-88735100D02*
X93780000Y-88300000D01*
X95364600Y-83667100D02*
X95487500Y-83667100D01*
X95487500Y-83667100D02*
X95950000Y-84129600D01*
%TO.N,/PA0*%
X98686800Y-83292700D02*
X98377300Y-83292700D01*
X97450100Y-84219900D02*
X97450100Y-84862500D01*
X97450100Y-84862500D02*
X97450000Y-84862500D01*
X98377300Y-83292700D02*
X97450100Y-84219900D01*
%TO.N,/PA1*%
X97950000Y-84206300D02*
X98245900Y-83910400D01*
X100270400Y-83910400D02*
X100392300Y-84032300D01*
X98245900Y-83910400D02*
X100270400Y-83910400D01*
X97950000Y-84862500D02*
X97950000Y-84206300D01*
%TO.N,/PA2*%
X98450000Y-84862500D02*
X98912400Y-85324900D01*
X98912400Y-85324900D02*
X99096800Y-85324900D01*
%TO.N,/PA3*%
X100608300Y-83450000D02*
X99862500Y-83450000D01*
X101153500Y-83995200D02*
X100608300Y-83450000D01*
%TO.N,/PA4*%
X100859600Y-82950000D02*
X101048900Y-83139300D01*
X99862500Y-82950000D02*
X100859600Y-82950000D01*
%TO.N,/SPI1_SCK*%
X99862500Y-82450000D02*
X98680600Y-82450000D01*
%TO.N,/SPI1_MISO*%
X99862500Y-81950000D02*
X100587100Y-81950000D01*
X102388800Y-83751700D02*
X103428100Y-83751700D01*
X100587100Y-81950000D02*
X102388800Y-83751700D01*
%TO.N,/SPI1_MOSI*%
X99862500Y-81450000D02*
X98691500Y-81450000D01*
%TO.N,/PB0*%
X99719500Y-80807000D02*
X98173900Y-80807000D01*
X99862500Y-80950000D02*
X99719500Y-80807000D01*
%TO.N,/PB1*%
X101215800Y-81876400D02*
X101215800Y-81122000D01*
X103278700Y-82754600D02*
X102953500Y-83079800D01*
X102419200Y-83079800D02*
X101215800Y-81876400D01*
X103278700Y-82071100D02*
X103278700Y-82754600D01*
X100543800Y-80450000D02*
X99862500Y-80450000D01*
X102953500Y-83079800D02*
X102419200Y-83079800D01*
X101215800Y-81122000D02*
X100543800Y-80450000D01*
%TO.N,/PB10*%
X103781800Y-81669700D02*
X103607700Y-81669700D01*
X111740000Y-87620000D02*
X110256700Y-86136700D01*
X102200000Y-80262000D02*
X102200000Y-79622000D01*
X102200000Y-79622000D02*
X101955700Y-79377700D01*
X99934800Y-79377700D02*
X99862500Y-79450000D01*
X101955700Y-79377700D02*
X99934800Y-79377700D01*
X110256700Y-86136700D02*
X107640800Y-86136700D01*
X104500000Y-82387900D02*
X103781800Y-81669700D01*
X107640800Y-86136700D02*
X104500000Y-82995900D01*
X103607700Y-81669700D02*
X102200000Y-80262000D01*
X104500000Y-82995900D02*
X104500000Y-82387900D01*
%TO.N,/PB11*%
X97040000Y-81037000D02*
X97040000Y-81236500D01*
X99127000Y-78950000D02*
X97040000Y-81037000D01*
X99862500Y-78950000D02*
X99127000Y-78950000D01*
%TO.N,/PB12*%
X98450000Y-78027300D02*
X98450000Y-76537500D01*
X97914600Y-78562700D02*
X98450000Y-78027300D01*
%TO.N,/PB13*%
X97950000Y-76537500D02*
X97950000Y-75521300D01*
X97950000Y-75521300D02*
X97796000Y-75367300D01*
%TO.N,/PB14*%
X97450000Y-76537500D02*
X97450000Y-77190300D01*
X93818200Y-80822100D02*
X93631800Y-80822100D01*
X97450000Y-77190300D02*
X93818200Y-80822100D01*
%TO.N,/PB15*%
X94807400Y-79365400D02*
X93837400Y-79365400D01*
X96950000Y-77222800D02*
X94807400Y-79365400D01*
X96950000Y-76537500D02*
X96950000Y-77222800D01*
%TO.N,/PA8*%
X96450000Y-76537500D02*
X96450000Y-75615100D01*
X96450000Y-75615100D02*
X96880600Y-75184500D01*
%TO.N,/USART1_TX*%
X94936000Y-78254000D02*
X94738700Y-78254000D01*
X95950000Y-76537500D02*
X95950000Y-77240000D01*
X95950000Y-77240000D02*
X94936000Y-78254000D01*
%TO.N,/USART1_RX*%
X95450000Y-77203300D02*
X94917700Y-77735600D01*
X95450000Y-76537500D02*
X95450000Y-77203300D01*
X94917700Y-77735600D02*
X94180100Y-77735600D01*
%TO.N,/USB_D-*%
D36*
X94950000Y-68500000D02*
X94950000Y-76537500D01*
X95150000Y-68000000D02*
X94950000Y-68500000D01*
X93775000Y-66625000D02*
X93775000Y-68000000D01*
%TO.N,/USB_D+*%
X94450000Y-67675000D02*
X94450000Y-76537500D01*
X93775000Y-65675000D02*
X94625000Y-66525000D01*
X94625000Y-67500000D02*
X94450000Y-67675000D01*
X93010000Y-72800000D02*
X94450000Y-72800000D01*
X94625000Y-66525000D02*
X94625000Y-66625000D01*
X94625000Y-66625000D02*
X94625000Y-67500000D01*
X93775000Y-65275000D02*
X93775000Y-65675000D01*
%TO.N,/SWDIO*%
D37*
X93719300Y-73782800D02*
X93131600Y-73782800D01*
X93131600Y-73782800D02*
X92532800Y-73184000D01*
X93950000Y-74013500D02*
X93719300Y-73782800D01*
X91609100Y-71608200D02*
X91115800Y-71608200D01*
X92532800Y-73184000D02*
X92532800Y-72531900D01*
X93950000Y-76537500D02*
X93950000Y-74013500D01*
X92532800Y-72531900D02*
X91609100Y-71608200D01*
%TO.N,/SWCLK*%
X83000000Y-80000000D02*
X81901400Y-78901400D01*
X89966700Y-76379200D02*
X91537500Y-77950000D01*
X82575600Y-76379200D02*
X89966700Y-76379200D01*
X81901400Y-78901400D02*
X81901400Y-77053400D01*
X81901400Y-77053400D02*
X82575600Y-76379200D01*
%TO.N,/PA15*%
X91397100Y-78309600D02*
X86389600Y-78309600D01*
X91537500Y-78450000D02*
X91397100Y-78309600D01*
X86389600Y-78309600D02*
X85540000Y-77460000D01*
%TO.N,/PB3*%
X84131300Y-78591300D02*
X87412600Y-78591300D01*
X83000000Y-77460000D02*
X84131300Y-78591300D01*
X87771300Y-78950000D02*
X91537500Y-78950000D01*
X87412600Y-78591300D02*
X87771300Y-78950000D01*
%TO.N,/PB4*%
X91537500Y-79450000D02*
X92215600Y-79450000D01*
X90821300Y-76097500D02*
X86717500Y-76097500D01*
X92215600Y-79450000D02*
X92482900Y-79182700D01*
X92482900Y-79182700D02*
X92482900Y-77759100D01*
X92482900Y-77759100D02*
X90821300Y-76097500D01*
X86717500Y-76097500D02*
X85540000Y-74920000D01*
%TO.N,/PB5*%
X81579900Y-80102700D02*
X81579900Y-76340100D01*
X82551600Y-81074400D02*
X81579900Y-80102700D01*
X81579900Y-76340100D02*
X83000000Y-74920000D01*
X91537500Y-79950000D02*
X89224000Y-79950000D01*
X89224000Y-79950000D02*
X88099600Y-81074400D01*
X88099600Y-81074400D02*
X82551600Y-81074400D01*
%TO.N,/CAN_RX*%
X89055800Y-81950000D02*
X91537500Y-81950000D01*
X83000000Y-69840000D02*
X81016400Y-71823600D01*
X87404700Y-83601100D02*
X89055800Y-81950000D01*
X81016400Y-71823600D02*
X81016400Y-82063100D01*
X81016400Y-82063100D02*
X82554400Y-83601100D01*
X82554400Y-83601100D02*
X87404700Y-83601100D01*
%TO.N,/CAN_TX*%
X82489100Y-83953700D02*
X80696400Y-82161000D01*
X91537500Y-82450000D02*
X88959400Y-82450000D01*
X80696400Y-70581600D02*
X82499300Y-68778700D01*
X87455700Y-83953700D02*
X82489100Y-83953700D01*
X80696400Y-82161000D02*
X80696400Y-70581600D01*
X88959400Y-82450000D02*
X87455700Y-83953700D01*
X84478700Y-68778700D02*
X85540000Y-69840000D01*
X82499300Y-68778700D02*
X84478700Y-68778700D01*
%TO.N,/USB_CC1*%
X91690600Y-68619400D02*
X91830600Y-68619400D01*
X91010000Y-69300000D02*
X91690600Y-68619400D01*
%TO.N,/USB_CC2*%
X91282200Y-67518300D02*
X90656400Y-66892500D01*
X90656400Y-66892500D02*
X90656400Y-66381400D01*
X91528300Y-67518300D02*
X91282200Y-67518300D01*
X93310000Y-69300000D02*
X91528300Y-67518300D01*
X92155000Y-66045000D02*
X92925000Y-65275000D01*
X90992800Y-66045000D02*
X92155000Y-66045000D01*
X90656400Y-66381400D02*
X90992800Y-66045000D01*
%TO.N,/PWR_LED_K*%
X104500000Y-81287500D02*
X105010000Y-81797500D01*
X105010000Y-81797500D02*
X105010000Y-82700000D01*
%TD*%
%TA.AperFunction,Conductor*%
%TO.N,GND*%
G36*
X98617826Y-86272174D02*
G01*
X98639500Y-86324500D01*
X98639500Y-86709899D01*
X98646027Y-86759485D01*
X98646028Y-86759487D01*
X98696776Y-86868316D01*
X98701634Y-86873174D01*
X98723308Y-86925500D01*
X98701634Y-86977826D01*
X98649308Y-86999500D01*
X97290692Y-86999500D01*
X97238366Y-86977826D01*
X97216692Y-86925500D01*
X97238366Y-86873174D01*
X97239500Y-86872040D01*
X97243224Y-86868316D01*
X97293972Y-86759487D01*
X97300500Y-86709901D01*
X97300499Y-86324499D01*
X97322173Y-86272174D01*
X97374499Y-86250500D01*
X98565500Y-86250500D01*
X98617826Y-86272174D01*
G37*
%TD.AperFunction*%
%TA.AperFunction,Conductor*%
G36*
X93052815Y-74048365D02*
G01*
X93076800Y-74058300D01*
X93574533Y-74058300D01*
X93626859Y-74079974D01*
X93652826Y-74105941D01*
X93674500Y-74158267D01*
X93674500Y-75656735D01*
X93662029Y-75697847D01*
X93615485Y-75767504D01*
X93615485Y-75767505D01*
X93602373Y-75833426D01*
X93599500Y-75847868D01*
X93599500Y-77227130D01*
X93615485Y-77307495D01*
X93615485Y-77307496D01*
X93641570Y-77346534D01*
X93676376Y-77398624D01*
X93705595Y-77418147D01*
X93737060Y-77465238D01*
X93728569Y-77516673D01*
X93713708Y-77542414D01*
X93713708Y-77542415D01*
X93713706Y-77542418D01*
X93679600Y-77669705D01*
X93679600Y-77801494D01*
X93713706Y-77928781D01*
X93713710Y-77928790D01*
X93745476Y-77983810D01*
X93779600Y-78042914D01*
X93872786Y-78136100D01*
X93986914Y-78201992D01*
X94114205Y-78236099D01*
X94114206Y-78236100D01*
X94114208Y-78236100D01*
X94164200Y-78236100D01*
X94216526Y-78257774D01*
X94238200Y-78310100D01*
X94238200Y-78319894D01*
X94272306Y-78447181D01*
X94272310Y-78447190D01*
X94300957Y-78496808D01*
X94338200Y-78561314D01*
X94431386Y-78654500D01*
X94545514Y-78720392D01*
X94672805Y-78754499D01*
X94672806Y-78754500D01*
X94672808Y-78754500D01*
X94804593Y-78754500D01*
X94818399Y-78750800D01*
X94843946Y-78743955D01*
X94900098Y-78751347D01*
X94934577Y-78796279D01*
X94927185Y-78852432D01*
X94915425Y-78867759D01*
X94714959Y-79068226D01*
X94662633Y-79089900D01*
X94298805Y-79089900D01*
X94246479Y-79068226D01*
X94240102Y-79060955D01*
X94237903Y-79058090D01*
X94237901Y-79058088D01*
X94237900Y-79058086D01*
X94144714Y-78964900D01*
X94141768Y-78963199D01*
X94030590Y-78899010D01*
X94030581Y-78899006D01*
X93903294Y-78864900D01*
X93903292Y-78864900D01*
X93771508Y-78864900D01*
X93771506Y-78864900D01*
X93644218Y-78899006D01*
X93644209Y-78899010D01*
X93530085Y-78964900D01*
X93436900Y-79058085D01*
X93371010Y-79172209D01*
X93371006Y-79172218D01*
X93336901Y-79299500D01*
X93336900Y-79299506D01*
X93336900Y-79431294D01*
X93371006Y-79558581D01*
X93371010Y-79558590D01*
X93375981Y-79567200D01*
X93436900Y-79672714D01*
X93530086Y-79765900D01*
X93644214Y-79831792D01*
X93771505Y-79865899D01*
X93771506Y-79865900D01*
X93771508Y-79865900D01*
X93903294Y-79865900D01*
X93903294Y-79865899D01*
X94030586Y-79831792D01*
X94144714Y-79765900D01*
X94237900Y-79672714D01*
X94237903Y-79672709D01*
X94240102Y-79669845D01*
X94289155Y-79641532D01*
X94298805Y-79640900D01*
X94431133Y-79640900D01*
X94483459Y-79662574D01*
X94505133Y-79714900D01*
X94483459Y-79767226D01*
X93909439Y-80341244D01*
X93857113Y-80362918D01*
X93828800Y-80357288D01*
X93824981Y-80355706D01*
X93697694Y-80321600D01*
X93697692Y-80321600D01*
X93565908Y-80321600D01*
X93565906Y-80321600D01*
X93438618Y-80355706D01*
X93438609Y-80355710D01*
X93324485Y-80421600D01*
X93231300Y-80514785D01*
X93165410Y-80628909D01*
X93165407Y-80628917D01*
X93164378Y-80632758D01*
X93152618Y-80648083D01*
X93145226Y-80665930D01*
X93135987Y-80669756D01*
X93129899Y-80677691D01*
X93110746Y-80680211D01*
X93092900Y-80687604D01*
X93083660Y-80683776D01*
X93073746Y-80685082D01*
X93058420Y-80673322D01*
X93040574Y-80665930D01*
X93036747Y-80656691D01*
X93028813Y-80650603D01*
X93018900Y-80613604D01*
X93018900Y-80583904D01*
X93024534Y-80555584D01*
X93028255Y-80546600D01*
X93061600Y-80466100D01*
X93061600Y-77587500D01*
X93052524Y-77565588D01*
X93052524Y-77508953D01*
X93092572Y-77468904D01*
X93106438Y-77464697D01*
X93132495Y-77459515D01*
X93223624Y-77398624D01*
X93284515Y-77307495D01*
X93300500Y-77227133D01*
X93300499Y-75847868D01*
X93284515Y-75767505D01*
X93284513Y-75767502D01*
X93281725Y-75760769D01*
X93284061Y-75759801D01*
X93275500Y-75731565D01*
X93275500Y-74828824D01*
X93275501Y-74828811D01*
X93275501Y-74737146D01*
X93275500Y-74737145D01*
X93272879Y-74727365D01*
X93253318Y-74654362D01*
X93233756Y-74620480D01*
X93210465Y-74580138D01*
X93149862Y-74519535D01*
X93147283Y-74516956D01*
X93147272Y-74516946D01*
X92972173Y-74341847D01*
X92950499Y-74289521D01*
X92950499Y-74116732D01*
X92956132Y-74103131D01*
X92956133Y-74088411D01*
X92966540Y-74078003D01*
X92972173Y-74064406D01*
X92985772Y-74058772D01*
X92996182Y-74048364D01*
X93010900Y-74048364D01*
X93024499Y-74042732D01*
X93052815Y-74048365D01*
G37*
%TD.AperFunction*%
%TA.AperFunction,Conductor*%
G36*
X112502897Y-60200728D02*
G01*
X112697487Y-60216042D01*
X112708949Y-60217858D01*
X112895910Y-60262743D01*
X112906938Y-60266326D01*
X113070200Y-60333951D01*
X113084582Y-60339909D01*
X113094928Y-60345181D01*
X113258860Y-60445638D01*
X113268254Y-60452463D01*
X113414457Y-60577331D01*
X113422668Y-60585542D01*
X113547536Y-60731745D01*
X113554361Y-60741139D01*
X113654818Y-60905071D01*
X113660090Y-60915417D01*
X113733670Y-61093053D01*
X113737258Y-61104097D01*
X113782140Y-61291046D01*
X113783957Y-61302515D01*
X113799272Y-61497102D01*
X113799500Y-61502908D01*
X113799500Y-91497091D01*
X113799272Y-91502897D01*
X113783957Y-91697483D01*
X113782140Y-91708952D01*
X113737257Y-91895903D01*
X113733669Y-91906946D01*
X113660092Y-92084579D01*
X113654820Y-92094926D01*
X113554360Y-92258860D01*
X113547535Y-92268254D01*
X113422667Y-92414456D01*
X113414456Y-92422667D01*
X113268254Y-92547535D01*
X113258860Y-92554360D01*
X113094926Y-92654820D01*
X113084579Y-92660092D01*
X112906946Y-92733669D01*
X112895903Y-92737257D01*
X112708952Y-92782140D01*
X112697483Y-92783957D01*
X112502897Y-92799272D01*
X112497091Y-92799500D01*
X81502909Y-92799500D01*
X81497103Y-92799272D01*
X81302515Y-92783957D01*
X81291046Y-92782140D01*
X81104097Y-92737258D01*
X81093053Y-92733670D01*
X80915417Y-92660090D01*
X80905071Y-92654818D01*
X80741139Y-92554361D01*
X80731745Y-92547536D01*
X80585542Y-92422668D01*
X80577331Y-92414457D01*
X80452463Y-92268254D01*
X80445638Y-92258860D01*
X80345181Y-92094928D01*
X80339909Y-92084582D01*
X80333951Y-92070200D01*
X80266326Y-91906938D01*
X80262743Y-91895910D01*
X80217858Y-91708949D01*
X80216042Y-91697484D01*
X80200728Y-91502897D01*
X80200500Y-91497091D01*
X80200500Y-90056535D01*
X81949500Y-90056535D01*
X81949500Y-90263464D01*
X81989868Y-90466413D01*
X81989870Y-90466420D01*
X82069059Y-90657598D01*
X82164541Y-90800499D01*
X82184023Y-90829655D01*
X82330345Y-90975977D01*
X82502402Y-91090941D01*
X82693580Y-91170130D01*
X82896535Y-91210500D01*
X82896536Y-91210500D01*
X83103464Y-91210500D01*
X83103465Y-91210500D01*
X83306420Y-91170130D01*
X83497598Y-91090941D01*
X83669655Y-90975977D01*
X83815977Y-90829655D01*
X83930941Y-90657598D01*
X84010130Y-90466420D01*
X84050500Y-90263465D01*
X84050500Y-90056584D01*
X84490000Y-90056584D01*
X84490000Y-90263415D01*
X84530348Y-90466267D01*
X84530350Y-90466274D01*
X84609502Y-90657362D01*
X84712183Y-90811036D01*
X85109269Y-90413951D01*
X85139901Y-90467007D01*
X85232993Y-90560099D01*
X85286046Y-90590729D01*
X84888961Y-90987814D01*
X85042637Y-91090497D01*
X85233725Y-91169649D01*
X85233732Y-91169651D01*
X85436584Y-91210000D01*
X85643416Y-91210000D01*
X85846267Y-91169651D01*
X85846274Y-91169649D01*
X86037361Y-91090498D01*
X86191037Y-90987815D01*
X86191037Y-90987814D01*
X85793953Y-90590729D01*
X85847007Y-90560099D01*
X85940099Y-90467007D01*
X85970729Y-90413952D01*
X86367814Y-90811037D01*
X86367815Y-90811037D01*
X86470498Y-90657361D01*
X86549649Y-90466274D01*
X86549651Y-90466267D01*
X86590000Y-90263415D01*
X86590000Y-90056584D01*
X86559897Y-89905242D01*
X86557603Y-89893711D01*
X88649500Y-89893711D01*
X88649500Y-90106288D01*
X88682753Y-90316240D01*
X88682756Y-90316253D01*
X88748440Y-90518406D01*
X88844948Y-90707816D01*
X88897409Y-90780022D01*
X88969896Y-90879792D01*
X89120208Y-91030104D01*
X89203334Y-91090498D01*
X89292183Y-91155051D01*
X89321776Y-91170129D01*
X89481588Y-91251557D01*
X89481590Y-91251557D01*
X89481593Y-91251559D01*
X89683746Y-91317243D01*
X89683752Y-91317244D01*
X89683757Y-91317246D01*
X89788735Y-91333873D01*
X89893711Y-91350500D01*
X89893713Y-91350500D01*
X90106289Y-91350500D01*
X90190269Y-91337198D01*
X90316243Y-91317246D01*
X90316250Y-91317243D01*
X90316253Y-91317243D01*
X90518406Y-91251559D01*
X90518406Y-91251558D01*
X90518412Y-91251557D01*
X90707816Y-91155051D01*
X90879792Y-91030104D01*
X91030104Y-90879792D01*
X91155051Y-90707816D01*
X91251557Y-90518412D01*
X91305305Y-90352993D01*
X91317243Y-90316253D01*
X91317243Y-90316250D01*
X91317246Y-90316243D01*
X91350500Y-90106287D01*
X91350500Y-89893713D01*
X91346477Y-89868316D01*
X91329306Y-89759901D01*
X91317246Y-89683757D01*
X91317244Y-89683752D01*
X91317243Y-89683746D01*
X91251559Y-89481593D01*
X91251557Y-89481590D01*
X91251557Y-89481588D01*
X91181464Y-89344022D01*
X91155051Y-89292183D01*
X91099451Y-89215656D01*
X91030104Y-89120208D01*
X90879792Y-88969896D01*
X90813146Y-88921475D01*
X90707816Y-88844948D01*
X90518406Y-88748440D01*
X90316253Y-88682756D01*
X90316240Y-88682753D01*
X90106289Y-88649500D01*
X90106287Y-88649500D01*
X89893713Y-88649500D01*
X89893711Y-88649500D01*
X89683759Y-88682753D01*
X89683746Y-88682756D01*
X89481593Y-88748440D01*
X89292183Y-88844948D01*
X89121913Y-88968657D01*
X89120208Y-88969896D01*
X88969896Y-89120208D01*
X88969893Y-89120211D01*
X88969893Y-89120212D01*
X88844948Y-89292183D01*
X88748440Y-89481593D01*
X88682756Y-89683746D01*
X88682753Y-89683759D01*
X88649500Y-89893711D01*
X86557603Y-89893711D01*
X86549651Y-89853732D01*
X86549649Y-89853725D01*
X86470497Y-89662637D01*
X86367814Y-89508961D01*
X85970729Y-89906045D01*
X85940099Y-89852993D01*
X85847007Y-89759901D01*
X85793951Y-89729269D01*
X86191037Y-89332183D01*
X86037362Y-89229502D01*
X85846274Y-89150350D01*
X85846267Y-89150348D01*
X85643416Y-89110000D01*
X85436584Y-89110000D01*
X85233732Y-89150348D01*
X85233725Y-89150350D01*
X85042637Y-89229502D01*
X84888961Y-89332183D01*
X85286047Y-89729270D01*
X85232993Y-89759901D01*
X85139901Y-89852993D01*
X85109270Y-89906047D01*
X84712183Y-89508961D01*
X84609502Y-89662637D01*
X84530350Y-89853725D01*
X84530348Y-89853732D01*
X84490000Y-90056584D01*
X84050500Y-90056584D01*
X84050500Y-90056535D01*
X84010130Y-89853580D01*
X83930941Y-89662402D01*
X83815977Y-89490345D01*
X83669655Y-89344023D01*
X83651935Y-89332183D01*
X83497598Y-89229059D01*
X83306420Y-89149870D01*
X83306413Y-89149868D01*
X83153516Y-89119455D01*
X83103465Y-89109500D01*
X82896535Y-89109500D01*
X82856385Y-89117486D01*
X82693586Y-89149868D01*
X82693579Y-89149870D01*
X82502401Y-89229059D01*
X82330345Y-89344022D01*
X82330344Y-89344024D01*
X82184024Y-89490344D01*
X82184022Y-89490345D01*
X82069059Y-89662401D01*
X81989870Y-89853579D01*
X81989868Y-89853586D01*
X81949500Y-90056535D01*
X80200500Y-90056535D01*
X80200500Y-87516535D01*
X81949500Y-87516535D01*
X81949500Y-87723465D01*
X81957820Y-87765295D01*
X81989868Y-87926413D01*
X81989870Y-87926420D01*
X82069059Y-88117598D01*
X82170026Y-88268708D01*
X82184023Y-88289655D01*
X82330345Y-88435977D01*
X82502402Y-88550941D01*
X82693580Y-88630130D01*
X82896535Y-88670500D01*
X82896536Y-88670500D01*
X83103464Y-88670500D01*
X83103465Y-88670500D01*
X83306420Y-88630130D01*
X83497598Y-88550941D01*
X83669655Y-88435977D01*
X83815977Y-88289655D01*
X83930941Y-88117598D01*
X84010130Y-87926420D01*
X84050500Y-87723465D01*
X84050500Y-87516535D01*
X84489500Y-87516535D01*
X84489500Y-87723465D01*
X84497820Y-87765295D01*
X84529868Y-87926413D01*
X84529870Y-87926420D01*
X84609059Y-88117598D01*
X84710026Y-88268708D01*
X84724023Y-88289655D01*
X84870345Y-88435977D01*
X85042402Y-88550941D01*
X85233580Y-88630130D01*
X85436535Y-88670500D01*
X85436536Y-88670500D01*
X85643464Y-88670500D01*
X85643465Y-88670500D01*
X85846420Y-88630130D01*
X86037598Y-88550941D01*
X86209655Y-88435977D01*
X86355977Y-88289655D01*
X86470941Y-88117598D01*
X86550130Y-87926420D01*
X86590500Y-87723465D01*
X86590500Y-87516535D01*
X86550130Y-87313580D01*
X86470941Y-87122402D01*
X86355977Y-86950345D01*
X86209655Y-86804023D01*
X86068790Y-86709901D01*
X86037598Y-86689059D01*
X85846420Y-86609870D01*
X85846413Y-86609868D01*
X85693516Y-86579455D01*
X85643465Y-86569500D01*
X85436535Y-86569500D01*
X85396385Y-86577486D01*
X85233586Y-86609868D01*
X85233579Y-86609870D01*
X85042401Y-86689059D01*
X84870345Y-86804022D01*
X84870344Y-86804024D01*
X84724024Y-86950344D01*
X84724022Y-86950345D01*
X84609059Y-87122401D01*
X84529870Y-87313579D01*
X84529868Y-87313586D01*
X84489500Y-87516535D01*
X84050500Y-87516535D01*
X84010130Y-87313580D01*
X83930941Y-87122402D01*
X83815977Y-86950345D01*
X83669655Y-86804023D01*
X83528790Y-86709901D01*
X83497598Y-86689059D01*
X83306420Y-86609870D01*
X83306413Y-86609868D01*
X83153516Y-86579455D01*
X83103465Y-86569500D01*
X82896535Y-86569500D01*
X82856385Y-86577486D01*
X82693586Y-86609868D01*
X82693579Y-86609870D01*
X82502401Y-86689059D01*
X82330345Y-86804022D01*
X82330344Y-86804024D01*
X82184024Y-86950344D01*
X82184022Y-86950345D01*
X82069059Y-87122401D01*
X81989870Y-87313579D01*
X81989868Y-87313586D01*
X81949500Y-87516535D01*
X80200500Y-87516535D01*
X80200500Y-70526800D01*
X80420900Y-70526800D01*
X80420900Y-82215801D01*
X80462822Y-82317011D01*
X80462841Y-82317056D01*
X80462843Y-82317058D01*
X82317750Y-84171966D01*
X82339424Y-84224291D01*
X82317750Y-84276617D01*
X82184026Y-84410342D01*
X82184022Y-84410345D01*
X82069059Y-84582401D01*
X81989870Y-84773579D01*
X81989868Y-84773586D01*
X81959870Y-84924400D01*
X81949500Y-84976535D01*
X81949500Y-85183465D01*
X81950624Y-85189114D01*
X81989868Y-85386413D01*
X81989870Y-85386420D01*
X82069059Y-85577598D01*
X82181639Y-85746088D01*
X82184023Y-85749655D01*
X82330345Y-85895977D01*
X82502402Y-86010941D01*
X82693580Y-86090130D01*
X82896535Y-86130500D01*
X82896536Y-86130500D01*
X83103464Y-86130500D01*
X83103465Y-86130500D01*
X83306420Y-86090130D01*
X83497598Y-86010941D01*
X83669655Y-85895977D01*
X83815977Y-85749655D01*
X83930941Y-85577598D01*
X84010130Y-85386420D01*
X84050500Y-85183465D01*
X84050500Y-84976535D01*
X84010130Y-84773580D01*
X83930941Y-84582402D01*
X83815977Y-84410345D01*
X83761158Y-84355526D01*
X83739484Y-84303200D01*
X83761158Y-84250874D01*
X83813484Y-84229200D01*
X84726516Y-84229200D01*
X84778842Y-84250874D01*
X84800516Y-84303200D01*
X84778842Y-84355526D01*
X84724026Y-84410342D01*
X84724022Y-84410345D01*
X84609059Y-84582401D01*
X84529870Y-84773579D01*
X84529868Y-84773586D01*
X84499870Y-84924400D01*
X84489500Y-84976535D01*
X84489500Y-85183465D01*
X84490624Y-85189114D01*
X84529868Y-85386413D01*
X84529870Y-85386420D01*
X84609059Y-85577598D01*
X84721639Y-85746088D01*
X84724023Y-85749655D01*
X84870345Y-85895977D01*
X85042402Y-86010941D01*
X85233580Y-86090130D01*
X85436535Y-86130500D01*
X85436536Y-86130500D01*
X85643464Y-86130500D01*
X85643465Y-86130500D01*
X85846420Y-86090130D01*
X86037598Y-86010941D01*
X86209655Y-85895977D01*
X86355977Y-85749655D01*
X86470941Y-85577598D01*
X86550130Y-85386420D01*
X86590500Y-85183465D01*
X86590500Y-84976535D01*
X86550130Y-84773580D01*
X86470941Y-84582402D01*
X86355977Y-84410345D01*
X86301158Y-84355526D01*
X86279484Y-84303200D01*
X86301158Y-84250874D01*
X86353484Y-84229200D01*
X87510498Y-84229200D01*
X87510500Y-84229200D01*
X87611758Y-84187257D01*
X87689257Y-84109758D01*
X88048915Y-83750100D01*
X88789500Y-83750100D01*
X88789500Y-84109899D01*
X88796027Y-84159485D01*
X88796028Y-84159487D01*
X88846776Y-84268316D01*
X88931684Y-84353224D01*
X89040513Y-84403972D01*
X89090099Y-84410500D01*
X89254165Y-84410499D01*
X89306491Y-84432173D01*
X89507180Y-84632862D01*
X89526332Y-84666034D01*
X89533607Y-84693183D01*
X89533608Y-84693187D01*
X89589776Y-84790471D01*
X89599500Y-84807314D01*
X89692686Y-84900500D01*
X89806814Y-84966392D01*
X89934105Y-85000499D01*
X89934106Y-85000500D01*
X89934108Y-85000500D01*
X89974167Y-85000500D01*
X90026493Y-85022174D01*
X90082031Y-85077712D01*
X90147288Y-85142969D01*
X90227212Y-85189114D01*
X90227213Y-85189114D01*
X90227215Y-85189115D01*
X90271784Y-85201057D01*
X90316353Y-85212999D01*
X90316354Y-85213000D01*
X90316356Y-85213000D01*
X92525501Y-85213000D01*
X92577827Y-85234674D01*
X92599501Y-85287000D01*
X92599501Y-85552132D01*
X92608954Y-85599658D01*
X92615485Y-85632495D01*
X92618274Y-85639228D01*
X92615927Y-85640200D01*
X92624500Y-85668433D01*
X92624500Y-86327147D01*
X92624500Y-86412853D01*
X92645198Y-86490100D01*
X92646683Y-86495641D01*
X92646684Y-86495643D01*
X92689532Y-86569858D01*
X92689533Y-86569859D01*
X92689535Y-86569862D01*
X92777826Y-86658153D01*
X92799500Y-86710478D01*
X92799500Y-86909899D01*
X92806027Y-86959485D01*
X92806028Y-86959487D01*
X92856776Y-87068316D01*
X92941684Y-87153224D01*
X93050513Y-87203972D01*
X93100099Y-87210500D01*
X93459900Y-87210499D01*
X93509487Y-87203972D01*
X93618316Y-87153224D01*
X93703224Y-87068316D01*
X93753972Y-86959487D01*
X93760500Y-86909901D01*
X93760499Y-86490100D01*
X93753972Y-86440513D01*
X93703224Y-86331684D01*
X93618316Y-86246776D01*
X93509487Y-86196028D01*
X93509485Y-86196027D01*
X93472955Y-86191218D01*
X93459901Y-86189500D01*
X93459899Y-86189500D01*
X93349500Y-86189500D01*
X93297174Y-86167826D01*
X93275500Y-86115500D01*
X93275500Y-85874499D01*
X93297174Y-85822173D01*
X93349497Y-85800499D01*
X93552132Y-85800499D01*
X93632495Y-85784515D01*
X93658887Y-85766879D01*
X93714436Y-85755830D01*
X93741112Y-85766879D01*
X93767505Y-85784515D01*
X93847867Y-85800500D01*
X94052132Y-85800499D01*
X94132495Y-85784515D01*
X94158887Y-85766879D01*
X94214436Y-85755830D01*
X94241112Y-85766879D01*
X94267505Y-85784515D01*
X94347867Y-85800500D01*
X94552132Y-85800499D01*
X94561064Y-85798722D01*
X94616612Y-85809771D01*
X94648078Y-85856863D01*
X94649500Y-85871300D01*
X94649500Y-86009564D01*
X94669977Y-86085985D01*
X94669979Y-86085990D01*
X94696361Y-86131684D01*
X94709540Y-86154511D01*
X94977826Y-86422797D01*
X94999500Y-86475123D01*
X94999500Y-86709899D01*
X95006027Y-86759485D01*
X95006028Y-86759487D01*
X95056776Y-86868316D01*
X95141683Y-86953223D01*
X95146986Y-86956936D01*
X95144938Y-86959860D01*
X95175020Y-86992643D01*
X95179500Y-87018000D01*
X95179500Y-87669564D01*
X95199977Y-87745985D01*
X95199979Y-87745990D01*
X95225100Y-87789500D01*
X95239540Y-87814511D01*
X95327826Y-87902797D01*
X95349500Y-87955123D01*
X95349500Y-88319234D01*
X95327826Y-88371560D01*
X95275500Y-88393234D01*
X95223174Y-88371560D01*
X95186214Y-88334600D01*
X95072090Y-88268710D01*
X95072081Y-88268706D01*
X94944794Y-88234600D01*
X94944792Y-88234600D01*
X94813008Y-88234600D01*
X94813006Y-88234600D01*
X94685718Y-88268706D01*
X94685709Y-88268710D01*
X94571585Y-88334600D01*
X94478396Y-88427790D01*
X94476198Y-88430655D01*
X94471775Y-88433207D01*
X94469821Y-88437926D01*
X94447792Y-88447050D01*
X94427145Y-88458968D01*
X94417495Y-88459600D01*
X94359868Y-88459600D01*
X94307542Y-88437926D01*
X94282173Y-88412557D01*
X94260499Y-88360231D01*
X94260499Y-88090100D01*
X94253972Y-88040514D01*
X94253972Y-88040513D01*
X94203224Y-87931684D01*
X94118316Y-87846776D01*
X94009487Y-87796028D01*
X94009485Y-87796027D01*
X93972955Y-87791218D01*
X93959901Y-87789500D01*
X93959899Y-87789500D01*
X93600100Y-87789500D01*
X93550514Y-87796027D01*
X93550512Y-87796028D01*
X93441683Y-87846776D01*
X93356776Y-87931683D01*
X93306027Y-88040514D01*
X93299500Y-88090100D01*
X93299500Y-88509899D01*
X93306027Y-88559485D01*
X93306028Y-88559487D01*
X93356776Y-88668316D01*
X93441684Y-88753224D01*
X93550513Y-88803972D01*
X93600099Y-88810500D01*
X93870231Y-88810499D01*
X93922557Y-88832173D01*
X94059041Y-88968657D01*
X94059040Y-88968657D01*
X94088699Y-88980941D01*
X94088701Y-88980942D01*
X94152244Y-89007263D01*
X94160300Y-89010600D01*
X94417495Y-89010600D01*
X94469821Y-89032274D01*
X94476198Y-89039545D01*
X94478396Y-89042409D01*
X94478398Y-89042411D01*
X94478400Y-89042414D01*
X94571586Y-89135600D01*
X94685714Y-89201492D01*
X94813005Y-89235599D01*
X94813006Y-89235600D01*
X94813008Y-89235600D01*
X94944794Y-89235600D01*
X94944794Y-89235599D01*
X95072086Y-89201492D01*
X95186214Y-89135600D01*
X95279400Y-89042414D01*
X95300360Y-89006109D01*
X95345293Y-88971631D01*
X95401445Y-88979023D01*
X95423985Y-88999165D01*
X95455903Y-89042413D01*
X95477850Y-89072150D01*
X95477853Y-89072153D01*
X95587116Y-89152792D01*
X95587118Y-89152793D01*
X95715295Y-89197644D01*
X95715301Y-89197646D01*
X95745734Y-89200500D01*
X95745741Y-89200500D01*
X96554258Y-89200500D01*
X96554266Y-89200500D01*
X96584699Y-89197646D01*
X96712882Y-89152793D01*
X96822150Y-89072150D01*
X96902793Y-88962882D01*
X96947646Y-88834699D01*
X96950500Y-88804266D01*
X96950500Y-87795734D01*
X96947646Y-87765301D01*
X96940889Y-87745990D01*
X96924426Y-87698941D01*
X96927601Y-87642393D01*
X96969832Y-87604653D01*
X96994273Y-87600500D01*
X99445500Y-87600500D01*
X99497826Y-87622174D01*
X99519500Y-87674500D01*
X99519500Y-88981998D01*
X99497826Y-89034324D01*
X99486449Y-89042295D01*
X99486987Y-89043063D01*
X99481683Y-89046776D01*
X99396776Y-89131683D01*
X99346027Y-89240514D01*
X99339500Y-89290099D01*
X99339500Y-89709899D01*
X99346027Y-89759485D01*
X99346028Y-89759487D01*
X99396776Y-89868316D01*
X99481683Y-89953223D01*
X99486986Y-89956936D01*
X99484938Y-89959860D01*
X99485643Y-89960627D01*
X99497826Y-89965674D01*
X99504040Y-89980677D01*
X99515020Y-89992643D01*
X99519500Y-90018000D01*
X99519500Y-90125500D01*
X99497826Y-90177826D01*
X99445500Y-90199500D01*
X98724500Y-90199500D01*
X98672174Y-90177826D01*
X98650500Y-90125500D01*
X98650500Y-89995740D01*
X98650500Y-89995734D01*
X98647646Y-89965301D01*
X98602793Y-89837118D01*
X98545805Y-89759901D01*
X98522153Y-89727853D01*
X98522146Y-89727846D01*
X98412883Y-89647207D01*
X98412881Y-89647206D01*
X98284704Y-89602355D01*
X98284705Y-89602355D01*
X98284700Y-89602354D01*
X98284699Y-89602354D01*
X98254266Y-89599500D01*
X97445734Y-89599500D01*
X97415301Y-89602354D01*
X97415299Y-89602354D01*
X97415295Y-89602355D01*
X97287118Y-89647206D01*
X97287116Y-89647207D01*
X97177853Y-89727846D01*
X97177846Y-89727853D01*
X97097207Y-89837116D01*
X97097206Y-89837118D01*
X97052355Y-89965295D01*
X97052354Y-89965299D01*
X97052354Y-89965301D01*
X97049500Y-89995734D01*
X97049500Y-91004266D01*
X97052354Y-91034699D01*
X97052354Y-91034701D01*
X97052355Y-91034704D01*
X97097206Y-91162881D01*
X97097207Y-91162883D01*
X97177846Y-91272146D01*
X97177853Y-91272153D01*
X97287116Y-91352792D01*
X97287118Y-91352793D01*
X97415295Y-91397644D01*
X97415301Y-91397646D01*
X97445734Y-91400500D01*
X97445741Y-91400500D01*
X98254258Y-91400500D01*
X98254266Y-91400500D01*
X98284699Y-91397646D01*
X98412882Y-91352793D01*
X98522150Y-91272150D01*
X98602793Y-91162882D01*
X98647646Y-91034699D01*
X98650500Y-91004266D01*
X98650500Y-90874500D01*
X98672174Y-90822174D01*
X98724500Y-90800500D01*
X99859564Y-90800500D01*
X99859564Y-90800499D01*
X99935989Y-90780021D01*
X100004511Y-90740460D01*
X100060460Y-90684511D01*
X100100021Y-90615989D01*
X100120499Y-90539564D01*
X100120500Y-90539564D01*
X100120500Y-90018000D01*
X100142174Y-89965674D01*
X100153556Y-89957710D01*
X100153014Y-89956936D01*
X100158311Y-89953225D01*
X100158316Y-89953224D01*
X100217829Y-89893711D01*
X103149500Y-89893711D01*
X103149500Y-90106288D01*
X103182753Y-90316240D01*
X103182756Y-90316253D01*
X103248440Y-90518406D01*
X103344948Y-90707816D01*
X103397409Y-90780022D01*
X103469896Y-90879792D01*
X103620208Y-91030104D01*
X103703334Y-91090498D01*
X103792183Y-91155051D01*
X103821776Y-91170129D01*
X103981588Y-91251557D01*
X103981590Y-91251557D01*
X103981593Y-91251559D01*
X104183746Y-91317243D01*
X104183752Y-91317244D01*
X104183757Y-91317246D01*
X104288735Y-91333873D01*
X104393711Y-91350500D01*
X104393713Y-91350500D01*
X104606289Y-91350500D01*
X104690269Y-91337198D01*
X104816243Y-91317246D01*
X104816250Y-91317243D01*
X104816253Y-91317243D01*
X105018406Y-91251559D01*
X105018406Y-91251558D01*
X105018412Y-91251557D01*
X105207816Y-91155051D01*
X105379792Y-91030104D01*
X105530104Y-90879792D01*
X105655051Y-90707816D01*
X105751557Y-90518412D01*
X105805305Y-90352993D01*
X105817243Y-90316253D01*
X105817243Y-90316250D01*
X105817246Y-90316243D01*
X105850500Y-90106287D01*
X105850500Y-90056535D01*
X108149500Y-90056535D01*
X108149500Y-90263464D01*
X108189868Y-90466413D01*
X108189870Y-90466420D01*
X108269059Y-90657598D01*
X108364541Y-90800499D01*
X108384023Y-90829655D01*
X108530345Y-90975977D01*
X108702402Y-91090941D01*
X108893580Y-91170130D01*
X109096535Y-91210500D01*
X109096536Y-91210500D01*
X109303464Y-91210500D01*
X109303465Y-91210500D01*
X109506420Y-91170130D01*
X109697598Y-91090941D01*
X109869655Y-90975977D01*
X110015977Y-90829655D01*
X110130941Y-90657598D01*
X110210130Y-90466420D01*
X110250500Y-90263465D01*
X110250500Y-90056584D01*
X110690000Y-90056584D01*
X110690000Y-90263415D01*
X110730348Y-90466267D01*
X110730350Y-90466274D01*
X110809502Y-90657362D01*
X110912183Y-90811036D01*
X111309269Y-90413951D01*
X111339901Y-90467007D01*
X111432993Y-90560099D01*
X111486046Y-90590729D01*
X111088961Y-90987814D01*
X111242637Y-91090497D01*
X111433725Y-91169649D01*
X111433732Y-91169651D01*
X111636584Y-91210000D01*
X111843416Y-91210000D01*
X112046267Y-91169651D01*
X112046274Y-91169649D01*
X112237361Y-91090498D01*
X112391037Y-90987815D01*
X112391037Y-90987814D01*
X111993953Y-90590729D01*
X112047007Y-90560099D01*
X112140099Y-90467007D01*
X112170729Y-90413952D01*
X112567814Y-90811037D01*
X112567815Y-90811037D01*
X112670498Y-90657361D01*
X112749649Y-90466274D01*
X112749651Y-90466267D01*
X112790000Y-90263415D01*
X112790000Y-90056584D01*
X112749651Y-89853732D01*
X112749649Y-89853725D01*
X112670497Y-89662637D01*
X112567814Y-89508961D01*
X112170729Y-89906045D01*
X112140099Y-89852993D01*
X112047007Y-89759901D01*
X111993951Y-89729269D01*
X112391037Y-89332183D01*
X112237362Y-89229502D01*
X112046274Y-89150350D01*
X112046267Y-89150348D01*
X111843416Y-89110000D01*
X111636584Y-89110000D01*
X111433732Y-89150348D01*
X111433725Y-89150350D01*
X111242637Y-89229502D01*
X111088961Y-89332183D01*
X111486047Y-89729270D01*
X111432993Y-89759901D01*
X111339901Y-89852993D01*
X111309270Y-89906047D01*
X110912183Y-89508961D01*
X110809502Y-89662637D01*
X110730350Y-89853725D01*
X110730348Y-89853732D01*
X110690000Y-90056584D01*
X110250500Y-90056584D01*
X110250500Y-90056535D01*
X110210130Y-89853580D01*
X110130941Y-89662402D01*
X110015977Y-89490345D01*
X109869655Y-89344023D01*
X109851935Y-89332183D01*
X109697598Y-89229059D01*
X109506420Y-89149870D01*
X109506413Y-89149868D01*
X109353516Y-89119455D01*
X109303465Y-89109500D01*
X109096535Y-89109500D01*
X109056385Y-89117486D01*
X108893586Y-89149868D01*
X108893579Y-89149870D01*
X108702401Y-89229059D01*
X108530345Y-89344022D01*
X108530344Y-89344024D01*
X108384024Y-89490344D01*
X108384022Y-89490345D01*
X108269059Y-89662401D01*
X108189870Y-89853579D01*
X108189868Y-89853586D01*
X108149500Y-90056535D01*
X105850500Y-90056535D01*
X105850500Y-89893713D01*
X105846477Y-89868316D01*
X105829306Y-89759901D01*
X105817246Y-89683757D01*
X105817244Y-89683752D01*
X105817243Y-89683746D01*
X105751559Y-89481593D01*
X105751557Y-89481590D01*
X105751557Y-89481588D01*
X105681464Y-89344022D01*
X105655051Y-89292183D01*
X105599451Y-89215656D01*
X105530104Y-89120208D01*
X105379792Y-88969896D01*
X105313146Y-88921475D01*
X105207816Y-88844948D01*
X105018406Y-88748440D01*
X104816253Y-88682756D01*
X104816240Y-88682753D01*
X104606289Y-88649500D01*
X104606287Y-88649500D01*
X104393713Y-88649500D01*
X104393711Y-88649500D01*
X104183759Y-88682753D01*
X104183746Y-88682756D01*
X103981593Y-88748440D01*
X103792183Y-88844948D01*
X103621913Y-88968657D01*
X103620208Y-88969896D01*
X103469896Y-89120208D01*
X103469893Y-89120211D01*
X103469893Y-89120212D01*
X103344948Y-89292183D01*
X103248440Y-89481593D01*
X103182756Y-89683746D01*
X103182753Y-89683759D01*
X103149500Y-89893711D01*
X100217829Y-89893711D01*
X100243224Y-89868316D01*
X100293972Y-89759487D01*
X100300500Y-89709901D01*
X100300499Y-89290100D01*
X100293972Y-89240513D01*
X100243224Y-89131684D01*
X100158316Y-89046776D01*
X100153013Y-89043063D01*
X100155048Y-89040156D01*
X100124947Y-89007263D01*
X100120500Y-88981998D01*
X100120500Y-87516535D01*
X108149500Y-87516535D01*
X108149500Y-87723465D01*
X108157820Y-87765295D01*
X108189868Y-87926413D01*
X108189870Y-87926420D01*
X108269059Y-88117598D01*
X108370026Y-88268708D01*
X108384023Y-88289655D01*
X108530345Y-88435977D01*
X108702402Y-88550941D01*
X108893580Y-88630130D01*
X109096535Y-88670500D01*
X109096536Y-88670500D01*
X109303464Y-88670500D01*
X109303465Y-88670500D01*
X109506420Y-88630130D01*
X109697598Y-88550941D01*
X109869655Y-88435977D01*
X110015977Y-88289655D01*
X110130941Y-88117598D01*
X110210130Y-87926420D01*
X110250500Y-87723465D01*
X110250500Y-87516535D01*
X110210130Y-87313580D01*
X110130941Y-87122402D01*
X110015977Y-86950345D01*
X109869655Y-86804023D01*
X109728790Y-86709901D01*
X109697598Y-86689059D01*
X109506420Y-86609870D01*
X109506413Y-86609868D01*
X109353516Y-86579455D01*
X109303465Y-86569500D01*
X109096535Y-86569500D01*
X109056385Y-86577486D01*
X108893586Y-86609868D01*
X108893579Y-86609870D01*
X108702401Y-86689059D01*
X108530345Y-86804022D01*
X108530344Y-86804024D01*
X108384024Y-86950344D01*
X108384022Y-86950345D01*
X108269059Y-87122401D01*
X108189870Y-87313579D01*
X108189868Y-87313586D01*
X108149500Y-87516535D01*
X100120500Y-87516535D01*
X100120500Y-87260436D01*
X100120499Y-87260435D01*
X100100022Y-87184014D01*
X100100020Y-87184009D01*
X100064451Y-87122402D01*
X100060460Y-87115489D01*
X100004511Y-87059540D01*
X99999277Y-87056518D01*
X99935990Y-87019979D01*
X99935985Y-87019977D01*
X99859564Y-86999500D01*
X99859562Y-86999500D01*
X99590692Y-86999500D01*
X99538366Y-86977826D01*
X99516692Y-86925500D01*
X99538366Y-86873174D01*
X99539500Y-86872040D01*
X99543224Y-86868316D01*
X99593972Y-86759487D01*
X99600500Y-86709901D01*
X99600499Y-86510477D01*
X99622172Y-86458153D01*
X100560133Y-85520192D01*
X100612458Y-85498519D01*
X100664784Y-85520193D01*
X100744250Y-85599659D01*
X100784131Y-85619979D01*
X100862579Y-85659950D01*
X100862579Y-85659951D01*
X100960753Y-85675500D01*
X100960754Y-85675500D01*
X101464247Y-85675500D01*
X101562420Y-85659951D01*
X101680751Y-85599658D01*
X101774658Y-85505751D01*
X101834951Y-85387420D01*
X101850500Y-85289246D01*
X101850500Y-84832900D01*
X101872174Y-84780574D01*
X101924500Y-84758900D01*
X101949166Y-84758900D01*
X102001492Y-84780574D01*
X102127826Y-84906908D01*
X102149500Y-84959234D01*
X102149500Y-85289246D01*
X102165049Y-85387420D01*
X102225340Y-85505749D01*
X102319250Y-85599659D01*
X102359131Y-85619979D01*
X102437579Y-85659950D01*
X102437579Y-85659951D01*
X102535753Y-85675500D01*
X102535754Y-85675500D01*
X103039247Y-85675500D01*
X103137420Y-85659951D01*
X103255751Y-85599658D01*
X103349658Y-85505751D01*
X103409951Y-85387420D01*
X103425500Y-85289246D01*
X103425500Y-84710754D01*
X103409951Y-84612580D01*
X103358703Y-84512000D01*
X103349659Y-84494250D01*
X103255749Y-84400340D01*
X103137420Y-84340049D01*
X103137420Y-84340048D01*
X103039247Y-84324500D01*
X103039246Y-84324500D01*
X102567434Y-84324500D01*
X102515108Y-84302826D01*
X102497174Y-84284892D01*
X102475500Y-84232566D01*
X102475500Y-84192508D01*
X102456166Y-84120352D01*
X102463559Y-84064200D01*
X102508493Y-84029721D01*
X102527645Y-84027200D01*
X102966695Y-84027200D01*
X103019021Y-84048874D01*
X103025398Y-84056145D01*
X103027596Y-84059009D01*
X103027598Y-84059011D01*
X103027600Y-84059014D01*
X103120786Y-84152200D01*
X103234914Y-84218092D01*
X103362205Y-84252199D01*
X103362206Y-84252200D01*
X103362208Y-84252200D01*
X103493994Y-84252200D01*
X103493994Y-84252199D01*
X103621286Y-84218092D01*
X103735414Y-84152200D01*
X103828600Y-84059014D01*
X103894492Y-83944886D01*
X103928599Y-83817594D01*
X103928600Y-83817594D01*
X103928600Y-83685806D01*
X103928599Y-83685805D01*
X103920367Y-83655084D01*
X103894492Y-83558514D01*
X103828600Y-83444386D01*
X103735414Y-83351200D01*
X103717621Y-83340927D01*
X103621290Y-83285310D01*
X103621281Y-83285306D01*
X103493994Y-83251200D01*
X103493992Y-83251200D01*
X103362208Y-83251200D01*
X103362202Y-83251200D01*
X103358955Y-83251627D01*
X103357362Y-83251200D01*
X103357358Y-83251200D01*
X103357358Y-83251198D01*
X103304250Y-83236961D01*
X103275938Y-83187908D01*
X103290604Y-83133203D01*
X103296968Y-83125946D01*
X103512257Y-82910659D01*
X103536300Y-82852614D01*
X103554200Y-82809400D01*
X103554200Y-82532504D01*
X103575874Y-82480178D01*
X103583156Y-82473793D01*
X103586012Y-82471601D01*
X103586011Y-82471601D01*
X103586014Y-82471600D01*
X103679200Y-82378414D01*
X103745092Y-82264286D01*
X103762992Y-82197481D01*
X103797468Y-82152551D01*
X103853621Y-82145157D01*
X103886795Y-82164310D01*
X104202826Y-82480341D01*
X104224500Y-82532667D01*
X104224500Y-83050700D01*
X104259526Y-83135259D01*
X104260099Y-83136642D01*
X104266442Y-83151957D01*
X104266443Y-83151958D01*
X107407243Y-86292758D01*
X107484742Y-86370257D01*
X107586000Y-86412200D01*
X110111933Y-86412200D01*
X110164259Y-86433874D01*
X110786903Y-87056518D01*
X110808577Y-87108844D01*
X110802944Y-87137162D01*
X110729871Y-87313575D01*
X110729868Y-87313586D01*
X110689500Y-87516535D01*
X110689500Y-87723465D01*
X110697820Y-87765295D01*
X110729868Y-87926413D01*
X110729870Y-87926420D01*
X110809059Y-88117598D01*
X110910026Y-88268708D01*
X110924023Y-88289655D01*
X111070345Y-88435977D01*
X111242402Y-88550941D01*
X111433580Y-88630130D01*
X111636535Y-88670500D01*
X111636536Y-88670500D01*
X111843464Y-88670500D01*
X111843465Y-88670500D01*
X112046420Y-88630130D01*
X112237598Y-88550941D01*
X112409655Y-88435977D01*
X112555977Y-88289655D01*
X112670941Y-88117598D01*
X112750130Y-87926420D01*
X112790500Y-87723465D01*
X112790500Y-87516535D01*
X112750130Y-87313580D01*
X112670941Y-87122402D01*
X112555977Y-86950345D01*
X112409655Y-86804023D01*
X112268790Y-86709901D01*
X112237598Y-86689059D01*
X112046420Y-86609870D01*
X112046413Y-86609868D01*
X111893516Y-86579455D01*
X111843465Y-86569500D01*
X111636535Y-86569500D01*
X111596385Y-86577486D01*
X111433586Y-86609868D01*
X111433575Y-86609871D01*
X111257162Y-86682944D01*
X111200525Y-86682944D01*
X111176518Y-86666903D01*
X110799714Y-86290099D01*
X110412758Y-85903143D01*
X110395458Y-85895977D01*
X110311500Y-85861200D01*
X110311499Y-85861200D01*
X110079889Y-85861200D01*
X110027563Y-85839526D01*
X110005889Y-85787200D01*
X110018360Y-85746088D01*
X110130941Y-85577598D01*
X110210130Y-85386420D01*
X110250500Y-85183465D01*
X110250500Y-84976535D01*
X110689500Y-84976535D01*
X110689500Y-85183465D01*
X110690624Y-85189114D01*
X110729868Y-85386413D01*
X110729870Y-85386420D01*
X110809059Y-85577598D01*
X110921639Y-85746088D01*
X110924023Y-85749655D01*
X111070345Y-85895977D01*
X111242402Y-86010941D01*
X111433580Y-86090130D01*
X111636535Y-86130500D01*
X111636536Y-86130500D01*
X111843464Y-86130500D01*
X111843465Y-86130500D01*
X112046420Y-86090130D01*
X112237598Y-86010941D01*
X112409655Y-85895977D01*
X112555977Y-85749655D01*
X112670941Y-85577598D01*
X112750130Y-85386420D01*
X112790500Y-85183465D01*
X112790500Y-84976535D01*
X112750130Y-84773580D01*
X112670941Y-84582402D01*
X112555977Y-84410345D01*
X112409655Y-84264023D01*
X112408450Y-84263218D01*
X112237598Y-84149059D01*
X112046420Y-84069870D01*
X112046413Y-84069868D01*
X111864107Y-84033606D01*
X111843465Y-84029500D01*
X111636535Y-84029500D01*
X111615893Y-84033606D01*
X111433586Y-84069868D01*
X111433579Y-84069870D01*
X111242401Y-84149059D01*
X111070345Y-84264022D01*
X111070344Y-84264024D01*
X110924026Y-84410342D01*
X110924022Y-84410345D01*
X110809059Y-84582401D01*
X110729870Y-84773579D01*
X110729868Y-84773586D01*
X110699870Y-84924400D01*
X110689500Y-84976535D01*
X110250500Y-84976535D01*
X110210130Y-84773580D01*
X110130941Y-84582402D01*
X110015977Y-84410345D01*
X109869655Y-84264023D01*
X109868450Y-84263218D01*
X109697598Y-84149059D01*
X109506420Y-84069870D01*
X109506413Y-84069868D01*
X109324107Y-84033606D01*
X109303465Y-84029500D01*
X109096535Y-84029500D01*
X109075893Y-84033606D01*
X108893586Y-84069868D01*
X108893579Y-84069870D01*
X108702401Y-84149059D01*
X108530345Y-84264022D01*
X108530344Y-84264024D01*
X108384026Y-84410342D01*
X108384022Y-84410345D01*
X108269059Y-84582401D01*
X108189870Y-84773579D01*
X108189868Y-84773586D01*
X108159870Y-84924400D01*
X108149500Y-84976535D01*
X108149500Y-85183465D01*
X108150624Y-85189114D01*
X108189868Y-85386413D01*
X108189870Y-85386420D01*
X108269059Y-85577598D01*
X108379044Y-85742204D01*
X108381640Y-85746088D01*
X108392689Y-85801637D01*
X108361223Y-85848729D01*
X108320111Y-85861200D01*
X107785567Y-85861200D01*
X107733241Y-85839526D01*
X105222387Y-83328672D01*
X105200713Y-83276346D01*
X105222387Y-83224020D01*
X105243434Y-83209283D01*
X105340404Y-83164065D01*
X105424065Y-83080404D01*
X105474068Y-82973173D01*
X105480500Y-82924316D01*
X105480500Y-82475684D01*
X105475346Y-82436535D01*
X108149500Y-82436535D01*
X108149500Y-82643464D01*
X108189868Y-82846413D01*
X108189870Y-82846420D01*
X108269059Y-83037598D01*
X108383771Y-83209279D01*
X108384023Y-83209655D01*
X108530345Y-83355977D01*
X108702402Y-83470941D01*
X108893580Y-83550130D01*
X109096535Y-83590500D01*
X109096536Y-83590500D01*
X109303464Y-83590500D01*
X109303465Y-83590500D01*
X109506420Y-83550130D01*
X109697598Y-83470941D01*
X109869655Y-83355977D01*
X110015977Y-83209655D01*
X110130941Y-83037598D01*
X110210130Y-82846420D01*
X110250500Y-82643465D01*
X110250500Y-82436535D01*
X110689500Y-82436535D01*
X110689500Y-82643464D01*
X110729868Y-82846413D01*
X110729870Y-82846420D01*
X110809059Y-83037598D01*
X110923771Y-83209279D01*
X110924023Y-83209655D01*
X111070345Y-83355977D01*
X111242402Y-83470941D01*
X111433580Y-83550130D01*
X111636535Y-83590500D01*
X111636536Y-83590500D01*
X111843464Y-83590500D01*
X111843465Y-83590500D01*
X112046420Y-83550130D01*
X112237598Y-83470941D01*
X112409655Y-83355977D01*
X112555977Y-83209655D01*
X112670941Y-83037598D01*
X112750130Y-82846420D01*
X112790500Y-82643465D01*
X112790500Y-82436535D01*
X112750130Y-82233580D01*
X112670941Y-82042402D01*
X112555977Y-81870345D01*
X112409655Y-81724023D01*
X112378031Y-81702893D01*
X112237598Y-81609059D01*
X112046420Y-81529870D01*
X112046413Y-81529868D01*
X111893516Y-81499455D01*
X111843465Y-81489500D01*
X111636535Y-81489500D01*
X111596385Y-81497486D01*
X111433586Y-81529868D01*
X111433579Y-81529870D01*
X111242401Y-81609059D01*
X111070345Y-81724022D01*
X111070344Y-81724024D01*
X110924024Y-81870344D01*
X110924022Y-81870345D01*
X110809059Y-82042401D01*
X110729870Y-82233579D01*
X110729868Y-82233586D01*
X110689500Y-82436535D01*
X110250500Y-82436535D01*
X110210130Y-82233580D01*
X110130941Y-82042402D01*
X110015977Y-81870345D01*
X109869655Y-81724023D01*
X109838031Y-81702893D01*
X109697598Y-81609059D01*
X109506420Y-81529870D01*
X109506413Y-81529868D01*
X109353516Y-81499455D01*
X109303465Y-81489500D01*
X109096535Y-81489500D01*
X109056385Y-81497486D01*
X108893586Y-81529868D01*
X108893579Y-81529870D01*
X108702401Y-81609059D01*
X108530345Y-81724022D01*
X108530344Y-81724024D01*
X108384024Y-81870344D01*
X108384022Y-81870345D01*
X108269059Y-82042401D01*
X108189870Y-82233579D01*
X108189868Y-82233586D01*
X108149500Y-82436535D01*
X105475346Y-82436535D01*
X105474068Y-82426827D01*
X105424065Y-82319596D01*
X105340404Y-82235935D01*
X105340403Y-82235934D01*
X105328223Y-82230254D01*
X105289962Y-82188495D01*
X105285500Y-82163189D01*
X105285500Y-81742700D01*
X105269011Y-81702892D01*
X105243557Y-81641442D01*
X105197130Y-81595015D01*
X105175457Y-81542691D01*
X105175500Y-81541614D01*
X105175500Y-81035753D01*
X105169867Y-81000190D01*
X105159951Y-80937580D01*
X105129804Y-80878414D01*
X105099659Y-80819250D01*
X105005749Y-80725340D01*
X104887420Y-80665049D01*
X104887420Y-80665048D01*
X104789247Y-80649500D01*
X104789246Y-80649500D01*
X104210754Y-80649500D01*
X104210753Y-80649500D01*
X104112579Y-80665048D01*
X104112579Y-80665049D01*
X103994250Y-80725340D01*
X103900340Y-80819250D01*
X103840049Y-80937579D01*
X103840048Y-80937579D01*
X103824500Y-81035753D01*
X103824500Y-81318232D01*
X103802826Y-81370558D01*
X103750500Y-81392232D01*
X103698174Y-81370558D01*
X102497174Y-80169558D01*
X102475500Y-80117232D01*
X102475500Y-79567199D01*
X102445841Y-79495599D01*
X102445840Y-79495597D01*
X102433557Y-79465941D01*
X102111759Y-79144144D01*
X102111757Y-79144142D01*
X102089581Y-79134957D01*
X102010500Y-79102200D01*
X102010499Y-79102200D01*
X100874500Y-79102200D01*
X100822174Y-79080526D01*
X100800500Y-79028200D01*
X100800499Y-78847869D01*
X100800499Y-78847868D01*
X100784515Y-78767505D01*
X100777250Y-78756633D01*
X100750395Y-78716442D01*
X100723624Y-78676376D01*
X100632495Y-78615485D01*
X100552133Y-78599500D01*
X100552131Y-78599500D01*
X99172869Y-78599500D01*
X99092504Y-78615485D01*
X99001376Y-78676375D01*
X99001373Y-78676378D01*
X98985734Y-78699783D01*
X98975172Y-78710366D01*
X98976095Y-78711289D01*
X96957087Y-80730296D01*
X96923914Y-80749448D01*
X96846817Y-80770106D01*
X96846812Y-80770108D01*
X96732685Y-80836000D01*
X96639500Y-80929185D01*
X96573610Y-81043309D01*
X96573606Y-81043318D01*
X96539500Y-81170605D01*
X96539500Y-81302394D01*
X96573606Y-81429681D01*
X96573607Y-81429684D01*
X96573608Y-81429686D01*
X96639500Y-81543814D01*
X96732686Y-81637000D01*
X96846814Y-81702892D01*
X96974105Y-81736999D01*
X96974106Y-81737000D01*
X96974108Y-81737000D01*
X97105894Y-81737000D01*
X97105894Y-81736999D01*
X97233186Y-81702892D01*
X97347314Y-81637000D01*
X97440500Y-81543814D01*
X97506392Y-81429686D01*
X97540499Y-81302394D01*
X97540500Y-81302394D01*
X97540500Y-81170609D01*
X97540499Y-81170605D01*
X97506392Y-81043314D01*
X97504368Y-81039809D01*
X97501847Y-81020656D01*
X97494455Y-81002810D01*
X97498281Y-80993572D01*
X97496976Y-80983658D01*
X97516127Y-80950486D01*
X97565932Y-80900681D01*
X97618256Y-80879009D01*
X97670582Y-80900683D01*
X97689734Y-80933856D01*
X97707506Y-81000181D01*
X97707510Y-81000190D01*
X97732405Y-81043309D01*
X97773400Y-81114314D01*
X97866586Y-81207500D01*
X97980714Y-81273392D01*
X98108005Y-81307499D01*
X98108006Y-81307500D01*
X98108008Y-81307500D01*
X98117000Y-81307500D01*
X98169326Y-81329174D01*
X98191000Y-81381500D01*
X98191000Y-81515894D01*
X98225106Y-81643181D01*
X98225110Y-81643190D01*
X98259579Y-81702892D01*
X98291000Y-81757314D01*
X98384186Y-81850500D01*
X98431660Y-81877909D01*
X98440074Y-81882767D01*
X98474553Y-81927701D01*
X98467160Y-81983853D01*
X98440075Y-82010938D01*
X98373286Y-82049499D01*
X98280100Y-82142685D01*
X98214210Y-82256809D01*
X98214206Y-82256818D01*
X98180100Y-82384105D01*
X98180100Y-82515894D01*
X98214206Y-82643181D01*
X98214210Y-82643190D01*
X98280100Y-82757314D01*
X98344910Y-82822124D01*
X98354463Y-82845188D01*
X98366228Y-82867203D01*
X98365001Y-82870629D01*
X98366584Y-82874450D01*
X98349783Y-82921400D01*
X98347478Y-82924207D01*
X98286300Y-82985386D01*
X98260304Y-83030409D01*
X98256453Y-83035102D01*
X98245044Y-83041198D01*
X98227578Y-83056517D01*
X98221244Y-83059141D01*
X98221239Y-83059144D01*
X97373744Y-83906638D01*
X97345752Y-83924196D01*
X97340890Y-83925888D01*
X97267505Y-83940485D01*
X97233259Y-83963367D01*
X97224334Y-83966475D01*
X97204777Y-83965347D01*
X97185563Y-83969169D01*
X97171735Y-83963441D01*
X97167791Y-83963214D01*
X97165805Y-83960985D01*
X97158888Y-83958120D01*
X97132495Y-83940485D01*
X97052133Y-83924500D01*
X97052131Y-83924500D01*
X96847869Y-83924500D01*
X96767504Y-83940485D01*
X96767503Y-83940485D01*
X96676377Y-84001375D01*
X96676375Y-84001377D01*
X96615485Y-84092504D01*
X96612053Y-84109758D01*
X96599680Y-84171965D01*
X96599500Y-84172868D01*
X96599500Y-85552130D01*
X96615485Y-85632495D01*
X96618274Y-85639228D01*
X96615927Y-85640200D01*
X96624500Y-85668433D01*
X96624500Y-85689877D01*
X96602826Y-85742203D01*
X96602825Y-85742204D01*
X96577859Y-85767169D01*
X96525533Y-85788842D01*
X96473207Y-85767167D01*
X96461448Y-85751842D01*
X96460186Y-85749656D01*
X96440460Y-85715489D01*
X96384511Y-85659540D01*
X96349329Y-85639228D01*
X96335913Y-85631482D01*
X96301434Y-85586549D01*
X96300428Y-85555776D01*
X96300144Y-85555748D01*
X96300356Y-85553588D01*
X96300336Y-85552956D01*
X96300500Y-85552133D01*
X96300499Y-84172868D01*
X96284515Y-84092505D01*
X96262133Y-84059009D01*
X96245161Y-84033608D01*
X96223624Y-84001376D01*
X96220816Y-83999500D01*
X96192821Y-83980794D01*
X96181607Y-83971591D01*
X95886774Y-83676758D01*
X95865100Y-83624432D01*
X95865100Y-83601206D01*
X95865099Y-83601205D01*
X95851950Y-83552133D01*
X95830992Y-83473914D01*
X95765100Y-83359786D01*
X95671914Y-83266600D01*
X95645933Y-83251600D01*
X95557790Y-83200710D01*
X95557781Y-83200706D01*
X95430494Y-83166600D01*
X95430492Y-83166600D01*
X95298708Y-83166600D01*
X95298707Y-83166600D01*
X95297247Y-83166991D01*
X95296492Y-83166891D01*
X95293899Y-83167233D01*
X95293807Y-83166537D01*
X95241095Y-83159594D01*
X95206620Y-83114658D01*
X95204100Y-83095511D01*
X95204100Y-82979906D01*
X95204099Y-82979905D01*
X95175843Y-82874450D01*
X95169992Y-82852614D01*
X95104100Y-82738486D01*
X95010914Y-82645300D01*
X94943856Y-82606584D01*
X94896790Y-82579410D01*
X94896781Y-82579406D01*
X94769494Y-82545300D01*
X94769492Y-82545300D01*
X94637708Y-82545300D01*
X94637706Y-82545300D01*
X94510418Y-82579406D01*
X94510409Y-82579410D01*
X94396285Y-82645300D01*
X94303100Y-82738485D01*
X94237210Y-82852609D01*
X94237208Y-82852615D01*
X94203100Y-82979905D01*
X94203100Y-83082933D01*
X94181426Y-83135259D01*
X94148253Y-83154411D01*
X94071018Y-83175106D01*
X94071009Y-83175110D01*
X93956883Y-83241001D01*
X93953037Y-83243953D01*
X93952181Y-83242837D01*
X93904750Y-83262484D01*
X93852424Y-83240810D01*
X93839714Y-83228100D01*
X93725590Y-83162210D01*
X93725581Y-83162206D01*
X93598294Y-83128100D01*
X93598292Y-83128100D01*
X93466508Y-83128100D01*
X93466506Y-83128100D01*
X93339218Y-83162206D01*
X93339209Y-83162210D01*
X93225085Y-83228100D01*
X93131900Y-83321285D01*
X93066010Y-83435409D01*
X93066006Y-83435418D01*
X93031900Y-83562705D01*
X93031900Y-83694494D01*
X93066008Y-83821787D01*
X93066177Y-83822195D01*
X93066176Y-83822416D01*
X93067263Y-83826470D01*
X93066176Y-83826761D01*
X93066166Y-83878832D01*
X93026109Y-83918873D01*
X92997804Y-83924500D01*
X92847869Y-83924500D01*
X92767504Y-83940485D01*
X92767503Y-83940485D01*
X92676377Y-84001375D01*
X92676375Y-84001377D01*
X92615485Y-84092504D01*
X92612053Y-84109758D01*
X92599680Y-84171965D01*
X92599500Y-84172868D01*
X92599500Y-84438000D01*
X92577826Y-84490326D01*
X92525500Y-84512000D01*
X90574500Y-84512000D01*
X90522174Y-84490326D01*
X90500500Y-84438000D01*
X90500500Y-84434106D01*
X90500499Y-84434105D01*
X90500149Y-84432800D01*
X90466392Y-84306814D01*
X90400500Y-84192686D01*
X90307314Y-84099500D01*
X90295195Y-84092503D01*
X90193190Y-84033610D01*
X90193181Y-84033606D01*
X90065894Y-83999500D01*
X90065892Y-83999500D01*
X89934108Y-83999500D01*
X89934107Y-83999500D01*
X89921013Y-84003008D01*
X89911100Y-84001702D01*
X89901863Y-84005529D01*
X89884015Y-83998136D01*
X89864861Y-83995614D01*
X89849537Y-83983855D01*
X89832173Y-83966491D01*
X89810499Y-83914165D01*
X89810499Y-83910479D01*
X89832173Y-83858153D01*
X89893152Y-83797174D01*
X89945478Y-83775500D01*
X90731565Y-83775500D01*
X90759803Y-83784061D01*
X90760771Y-83781726D01*
X90767503Y-83784514D01*
X90767505Y-83784515D01*
X90847867Y-83800500D01*
X92227132Y-83800499D01*
X92307495Y-83784515D01*
X92398624Y-83723624D01*
X92459515Y-83632495D01*
X92475500Y-83552133D01*
X92475499Y-83347868D01*
X92459515Y-83267505D01*
X92458910Y-83266600D01*
X92420861Y-83209656D01*
X92398624Y-83176376D01*
X92307495Y-83115485D01*
X92227133Y-83099500D01*
X92227131Y-83099500D01*
X90847869Y-83099500D01*
X90767504Y-83115485D01*
X90760769Y-83118275D01*
X90759801Y-83115938D01*
X90731565Y-83124500D01*
X89827399Y-83124500D01*
X89827383Y-83124499D01*
X89822853Y-83124499D01*
X89737148Y-83124499D01*
X89737146Y-83124499D01*
X89654365Y-83146680D01*
X89654360Y-83146682D01*
X89580137Y-83189535D01*
X89519533Y-83250140D01*
X89341846Y-83427826D01*
X89289520Y-83449500D01*
X89090100Y-83449500D01*
X89040514Y-83456027D01*
X89040512Y-83456028D01*
X88931683Y-83506776D01*
X88846776Y-83591683D01*
X88796027Y-83700514D01*
X88789500Y-83750100D01*
X88048915Y-83750100D01*
X89051841Y-82747174D01*
X89104167Y-82725500D01*
X90656736Y-82725500D01*
X90697847Y-82737970D01*
X90767505Y-82784515D01*
X90847867Y-82800500D01*
X92227132Y-82800499D01*
X92307495Y-82784515D01*
X92398624Y-82723624D01*
X92459515Y-82632495D01*
X92475500Y-82552133D01*
X92475499Y-82347868D01*
X92459515Y-82267505D01*
X92441879Y-82241112D01*
X92430830Y-82185564D01*
X92441880Y-82158887D01*
X92459515Y-82132495D01*
X92475500Y-82052133D01*
X92475499Y-81847868D01*
X92459515Y-81767505D01*
X92441879Y-81741112D01*
X92430830Y-81685564D01*
X92436174Y-81669088D01*
X92438622Y-81663762D01*
X92459515Y-81632495D01*
X92464483Y-81607514D01*
X92468125Y-81599594D01*
X92474982Y-81593241D01*
X92483031Y-81578182D01*
X92976958Y-81084258D01*
X93018900Y-80983000D01*
X93018900Y-80982994D01*
X93019182Y-80982314D01*
X93059230Y-80942265D01*
X93115868Y-80942264D01*
X93155917Y-80982312D01*
X93159028Y-80991477D01*
X93165407Y-81015284D01*
X93165410Y-81015290D01*
X93181587Y-81043309D01*
X93231300Y-81129414D01*
X93324486Y-81222600D01*
X93438614Y-81288492D01*
X93565905Y-81322599D01*
X93565906Y-81322600D01*
X93565908Y-81322600D01*
X93697694Y-81322600D01*
X93697694Y-81322599D01*
X93824986Y-81288492D01*
X93939114Y-81222600D01*
X94032300Y-81129414D01*
X94098192Y-81015286D01*
X94123645Y-80920287D01*
X94142796Y-80887117D01*
X97539112Y-77490802D01*
X97566009Y-77473636D01*
X97571384Y-77471669D01*
X97632495Y-77459515D01*
X97666253Y-77436957D01*
X97674573Y-77433914D01*
X97694689Y-77434757D01*
X97714436Y-77430830D01*
X97727212Y-77436122D01*
X97731160Y-77436288D01*
X97733341Y-77438661D01*
X97741112Y-77441879D01*
X97767505Y-77459515D01*
X97847867Y-77475500D01*
X98052132Y-77475499D01*
X98086066Y-77468749D01*
X98141612Y-77479798D01*
X98173078Y-77526890D01*
X98174500Y-77541327D01*
X98174500Y-77882532D01*
X98152826Y-77934858D01*
X98046054Y-78041629D01*
X97993728Y-78063303D01*
X97984078Y-78062671D01*
X97980497Y-78062200D01*
X97980492Y-78062200D01*
X97848708Y-78062200D01*
X97848706Y-78062200D01*
X97721418Y-78096306D01*
X97721409Y-78096310D01*
X97607285Y-78162200D01*
X97514100Y-78255385D01*
X97448210Y-78369509D01*
X97448206Y-78369518D01*
X97414100Y-78496805D01*
X97414100Y-78628594D01*
X97448206Y-78755881D01*
X97448210Y-78755890D01*
X97503949Y-78852432D01*
X97514100Y-78870014D01*
X97607286Y-78963200D01*
X97721414Y-79029092D01*
X97848705Y-79063199D01*
X97848706Y-79063200D01*
X97848708Y-79063200D01*
X97980494Y-79063200D01*
X97980494Y-79063199D01*
X98107786Y-79029092D01*
X98221914Y-78963200D01*
X98315100Y-78870014D01*
X98380992Y-78755886D01*
X98415099Y-78628594D01*
X98415100Y-78628594D01*
X98415100Y-78496805D01*
X98414629Y-78493227D01*
X98429289Y-78438520D01*
X98435670Y-78431244D01*
X98518987Y-78347927D01*
X98683557Y-78183358D01*
X98695907Y-78153542D01*
X98725500Y-78082100D01*
X98725500Y-77418263D01*
X98737972Y-77377150D01*
X98751747Y-77356535D01*
X98784515Y-77307495D01*
X98800500Y-77227133D01*
X98800499Y-75847868D01*
X98784515Y-75767505D01*
X98780015Y-75760771D01*
X98760500Y-75731565D01*
X98723624Y-75676376D01*
X98632495Y-75615485D01*
X98552133Y-75599500D01*
X98552131Y-75599500D01*
X98348376Y-75599500D01*
X98296050Y-75577826D01*
X98274376Y-75525500D01*
X98276898Y-75506347D01*
X98289573Y-75459043D01*
X98296499Y-75433194D01*
X98296500Y-75433194D01*
X98296500Y-75301406D01*
X98296499Y-75301405D01*
X98286658Y-75264679D01*
X98262392Y-75174114D01*
X98196500Y-75059986D01*
X98103314Y-74966800D01*
X98013293Y-74914826D01*
X97989190Y-74900910D01*
X97989181Y-74900906D01*
X97861894Y-74866800D01*
X97861892Y-74866800D01*
X97730108Y-74866800D01*
X97730106Y-74866800D01*
X97602818Y-74900906D01*
X97602809Y-74900910D01*
X97488685Y-74966800D01*
X97458074Y-74997411D01*
X97448835Y-75001237D01*
X97442749Y-75009170D01*
X97423595Y-75011691D01*
X97405748Y-75019084D01*
X97396510Y-75015257D01*
X97386597Y-75016563D01*
X97371269Y-75004802D01*
X97353422Y-74997409D01*
X97341663Y-74982084D01*
X97320528Y-74945477D01*
X97301913Y-74913236D01*
X97294521Y-74857085D01*
X97329000Y-74812151D01*
X97345304Y-74805190D01*
X97349478Y-74803973D01*
X97349487Y-74803972D01*
X97458316Y-74753224D01*
X97543224Y-74668316D01*
X97593972Y-74559487D01*
X97600500Y-74509901D01*
X97600499Y-74090100D01*
X97593972Y-74040513D01*
X97543224Y-73931684D01*
X97458316Y-73846776D01*
X97349487Y-73796028D01*
X97349485Y-73796027D01*
X97312955Y-73791218D01*
X97299901Y-73789500D01*
X97299899Y-73789500D01*
X97135834Y-73789500D01*
X97083508Y-73767826D01*
X96505578Y-73189896D01*
X96483904Y-73137570D01*
X96486426Y-73118417D01*
X96495833Y-73083308D01*
X96500499Y-73065894D01*
X96500500Y-73065894D01*
X96500500Y-72934106D01*
X96500499Y-72934105D01*
X96497336Y-72922302D01*
X96466392Y-72806814D01*
X96400500Y-72692686D01*
X96372174Y-72664360D01*
X96350500Y-72612034D01*
X96350500Y-71871690D01*
X96372174Y-71819364D01*
X96390904Y-71805756D01*
X96420017Y-71790922D01*
X96503220Y-71748528D01*
X96598528Y-71653220D01*
X96659719Y-71533126D01*
X96675500Y-71433488D01*
X96675500Y-71025833D01*
X96697173Y-70973508D01*
X97824626Y-69846054D01*
X97876951Y-69824381D01*
X97901392Y-69828534D01*
X97970294Y-69852644D01*
X97970298Y-69852645D01*
X97970301Y-69852646D01*
X98000734Y-69855500D01*
X98000741Y-69855500D01*
X98999258Y-69855500D01*
X98999266Y-69855500D01*
X99029699Y-69852646D01*
X99157882Y-69807793D01*
X99267150Y-69727150D01*
X99347793Y-69617882D01*
X99392646Y-69489699D01*
X99395500Y-69459266D01*
X99395500Y-69422000D01*
X99417174Y-69369674D01*
X99469500Y-69348000D01*
X103025500Y-69348000D01*
X103077826Y-69369674D01*
X103099500Y-69422000D01*
X103099500Y-72782994D01*
X103077826Y-72835320D01*
X103035160Y-72856361D01*
X102974764Y-72864312D01*
X102834766Y-72922302D01*
X102714549Y-73014549D01*
X102622302Y-73134766D01*
X102564312Y-73274764D01*
X102564312Y-73274765D01*
X102555411Y-73342381D01*
X102549678Y-73385932D01*
X102549500Y-73387281D01*
X102549500Y-74238566D01*
X102527826Y-74290892D01*
X101634130Y-75184587D01*
X101596138Y-75250392D01*
X101587987Y-75264509D01*
X101587984Y-75264516D01*
X101564100Y-75353653D01*
X101564100Y-77230745D01*
X101581263Y-77294798D01*
X101581263Y-77294799D01*
X101587984Y-77319883D01*
X101587986Y-77319888D01*
X101634130Y-77399812D01*
X101667826Y-77433508D01*
X101689500Y-77485834D01*
X101689500Y-77489520D01*
X101667826Y-77541846D01*
X101667824Y-77541846D01*
X101606847Y-77602825D01*
X101554522Y-77624500D01*
X100668435Y-77624500D01*
X100640196Y-77615938D01*
X100639229Y-77618274D01*
X100632496Y-77615485D01*
X100594242Y-77607876D01*
X100552133Y-77599500D01*
X100552131Y-77599500D01*
X99172869Y-77599500D01*
X99092504Y-77615485D01*
X99092503Y-77615485D01*
X99001377Y-77676375D01*
X99001375Y-77676377D01*
X98940485Y-77767504D01*
X98924500Y-77847868D01*
X98924500Y-78052130D01*
X98940485Y-78132495D01*
X98940485Y-78132496D01*
X98954548Y-78153542D01*
X99001376Y-78223624D01*
X99092505Y-78284515D01*
X99172867Y-78300500D01*
X100552132Y-78300499D01*
X100632495Y-78284515D01*
X100632498Y-78284512D01*
X100639231Y-78281725D01*
X100640198Y-78284061D01*
X100668435Y-78275500D01*
X101762851Y-78275500D01*
X101762853Y-78275500D01*
X101845639Y-78253318D01*
X101919862Y-78210465D01*
X102158152Y-77972172D01*
X102210478Y-77950499D01*
X102211665Y-77950499D01*
X102263991Y-77972173D01*
X103802826Y-79511008D01*
X103824500Y-79563334D01*
X103824500Y-79964246D01*
X103840049Y-80062420D01*
X103900340Y-80180749D01*
X103994250Y-80274659D01*
X104038460Y-80297185D01*
X104112579Y-80334950D01*
X104112579Y-80334951D01*
X104210753Y-80350500D01*
X104210754Y-80350500D01*
X104789247Y-80350500D01*
X104887420Y-80334951D01*
X105005751Y-80274658D01*
X105099658Y-80180751D01*
X105121648Y-80137591D01*
X105164713Y-80100810D01*
X105221175Y-80105253D01*
X105224582Y-80107103D01*
X105263010Y-80129290D01*
X105263011Y-80129290D01*
X105263014Y-80129292D01*
X105390308Y-80163400D01*
X105390309Y-80163400D01*
X105522094Y-80163400D01*
X105522094Y-80163399D01*
X105649386Y-80129292D01*
X105763514Y-80063400D01*
X105856700Y-79970214D01*
X105899239Y-79896535D01*
X108149500Y-79896535D01*
X108149500Y-80103465D01*
X108155274Y-80132495D01*
X108189868Y-80306413D01*
X108189870Y-80306420D01*
X108269059Y-80497598D01*
X108380944Y-80665048D01*
X108384023Y-80669655D01*
X108530345Y-80815977D01*
X108702402Y-80930941D01*
X108893580Y-81010130D01*
X109096535Y-81050500D01*
X109096536Y-81050500D01*
X109303464Y-81050500D01*
X109303465Y-81050500D01*
X109506420Y-81010130D01*
X109697598Y-80930941D01*
X109869655Y-80815977D01*
X110015977Y-80669655D01*
X110130941Y-80497598D01*
X110210130Y-80306420D01*
X110250500Y-80103465D01*
X110250500Y-79896535D01*
X110689500Y-79896535D01*
X110689500Y-80103465D01*
X110695274Y-80132495D01*
X110729868Y-80306413D01*
X110729870Y-80306420D01*
X110809059Y-80497598D01*
X110920944Y-80665048D01*
X110924023Y-80669655D01*
X111070345Y-80815977D01*
X111242402Y-80930941D01*
X111433580Y-81010130D01*
X111636535Y-81050500D01*
X111636536Y-81050500D01*
X111843464Y-81050500D01*
X111843465Y-81050500D01*
X112046420Y-81010130D01*
X112237598Y-80930941D01*
X112409655Y-80815977D01*
X112555977Y-80669655D01*
X112670941Y-80497598D01*
X112750130Y-80306420D01*
X112790500Y-80103465D01*
X112790500Y-79896535D01*
X112750130Y-79693580D01*
X112670941Y-79502402D01*
X112555977Y-79330345D01*
X112409655Y-79184023D01*
X112391987Y-79172218D01*
X112237598Y-79069059D01*
X112046420Y-78989870D01*
X112046413Y-78989868D01*
X111893516Y-78959455D01*
X111843465Y-78949500D01*
X111636535Y-78949500D01*
X111596385Y-78957486D01*
X111433586Y-78989868D01*
X111433579Y-78989870D01*
X111242401Y-79069059D01*
X111070345Y-79184022D01*
X111070344Y-79184024D01*
X110924024Y-79330344D01*
X110924022Y-79330345D01*
X110809059Y-79502401D01*
X110729870Y-79693579D01*
X110729868Y-79693586D01*
X110699180Y-79847868D01*
X110689500Y-79896535D01*
X110250500Y-79896535D01*
X110210130Y-79693580D01*
X110130941Y-79502402D01*
X110015977Y-79330345D01*
X109869655Y-79184023D01*
X109851987Y-79172218D01*
X109697598Y-79069059D01*
X109506420Y-78989870D01*
X109506413Y-78989868D01*
X109353516Y-78959455D01*
X109303465Y-78949500D01*
X109096535Y-78949500D01*
X109056385Y-78957486D01*
X108893586Y-78989868D01*
X108893579Y-78989870D01*
X108702401Y-79069059D01*
X108530345Y-79184022D01*
X108530344Y-79184024D01*
X108384024Y-79330344D01*
X108384022Y-79330345D01*
X108269059Y-79502401D01*
X108189870Y-79693579D01*
X108189868Y-79693586D01*
X108159180Y-79847868D01*
X108149500Y-79896535D01*
X105899239Y-79896535D01*
X105922592Y-79856086D01*
X105956699Y-79728794D01*
X105956700Y-79728794D01*
X105956700Y-79597006D01*
X105956699Y-79597005D01*
X105953901Y-79586564D01*
X105922592Y-79469714D01*
X105856700Y-79355586D01*
X105763514Y-79262400D01*
X105734040Y-79245383D01*
X105649390Y-79196510D01*
X105649381Y-79196506D01*
X105522094Y-79162400D01*
X105522092Y-79162400D01*
X105390308Y-79162400D01*
X105390306Y-79162400D01*
X105263018Y-79196506D01*
X105263005Y-79196511D01*
X105178357Y-79245383D01*
X105122205Y-79252775D01*
X105089032Y-79233623D01*
X105005749Y-79150340D01*
X104887420Y-79090049D01*
X104887420Y-79090048D01*
X104789247Y-79074500D01*
X104789246Y-79074500D01*
X104388334Y-79074500D01*
X104336008Y-79052826D01*
X102732173Y-77448991D01*
X102710499Y-77396665D01*
X102710499Y-77290100D01*
X102703972Y-77240514D01*
X102703972Y-77240513D01*
X102653224Y-77131684D01*
X102568316Y-77046776D01*
X102459487Y-76996028D01*
X102459485Y-76996027D01*
X102422955Y-76991218D01*
X102409901Y-76989500D01*
X102409899Y-76989500D01*
X102339100Y-76989500D01*
X102286774Y-76967826D01*
X102265100Y-76915500D01*
X102265100Y-76193344D01*
X102267548Y-76187432D01*
X102266103Y-76181199D01*
X102278099Y-76161960D01*
X102286774Y-76141018D01*
X102292685Y-76138569D01*
X102296071Y-76133140D01*
X102313361Y-76130005D01*
X102339100Y-76119344D01*
X102351245Y-76120347D01*
X102354774Y-76120934D01*
X102430408Y-76141200D01*
X102476582Y-76141200D01*
X102482611Y-76142203D01*
X102501849Y-76154199D01*
X102522792Y-76162874D01*
X103640387Y-77280469D01*
X103640389Y-77280470D01*
X103640390Y-77280471D01*
X103708653Y-77319883D01*
X103708662Y-77319888D01*
X103720312Y-77326614D01*
X103720316Y-77326615D01*
X103794653Y-77346534D01*
X103839586Y-77381012D01*
X103849500Y-77418012D01*
X103849500Y-77529266D01*
X103852354Y-77559699D01*
X103852354Y-77559701D01*
X103852355Y-77559704D01*
X103897206Y-77687881D01*
X103897207Y-77687883D01*
X103977846Y-77797146D01*
X103977853Y-77797153D01*
X104087116Y-77877792D01*
X104087118Y-77877793D01*
X104215295Y-77922644D01*
X104215301Y-77922646D01*
X104245734Y-77925500D01*
X104245741Y-77925500D01*
X104854258Y-77925500D01*
X104854266Y-77925500D01*
X104884699Y-77922646D01*
X105012882Y-77877793D01*
X105122150Y-77797150D01*
X105202793Y-77687882D01*
X105247646Y-77559699D01*
X105250500Y-77529266D01*
X105250500Y-77356535D01*
X108149500Y-77356535D01*
X108149500Y-77563464D01*
X108189868Y-77766413D01*
X108189870Y-77766420D01*
X108269059Y-77957598D01*
X108376899Y-78118994D01*
X108384023Y-78129655D01*
X108530345Y-78275977D01*
X108702402Y-78390941D01*
X108893580Y-78470130D01*
X109096535Y-78510500D01*
X109096536Y-78510500D01*
X109303464Y-78510500D01*
X109303465Y-78510500D01*
X109506420Y-78470130D01*
X109697598Y-78390941D01*
X109869655Y-78275977D01*
X110015977Y-78129655D01*
X110130941Y-77957598D01*
X110210130Y-77766420D01*
X110250500Y-77563465D01*
X110250500Y-77356535D01*
X110689500Y-77356535D01*
X110689500Y-77563464D01*
X110729868Y-77766413D01*
X110729870Y-77766420D01*
X110809059Y-77957598D01*
X110916899Y-78118994D01*
X110924023Y-78129655D01*
X111070345Y-78275977D01*
X111242402Y-78390941D01*
X111433580Y-78470130D01*
X111636535Y-78510500D01*
X111636536Y-78510500D01*
X111843464Y-78510500D01*
X111843465Y-78510500D01*
X112046420Y-78470130D01*
X112237598Y-78390941D01*
X112409655Y-78275977D01*
X112555977Y-78129655D01*
X112670941Y-77957598D01*
X112750130Y-77766420D01*
X112790500Y-77563465D01*
X112790500Y-77356535D01*
X112750130Y-77153580D01*
X112670941Y-76962402D01*
X112555977Y-76790345D01*
X112409655Y-76644023D01*
X112319012Y-76583458D01*
X112237598Y-76529059D01*
X112046420Y-76449870D01*
X112046413Y-76449868D01*
X111893516Y-76419455D01*
X111843465Y-76409500D01*
X111636535Y-76409500D01*
X111596385Y-76417486D01*
X111433586Y-76449868D01*
X111433579Y-76449870D01*
X111242401Y-76529059D01*
X111070345Y-76644022D01*
X111070344Y-76644024D01*
X110924024Y-76790344D01*
X110924022Y-76790345D01*
X110809059Y-76962401D01*
X110729870Y-77153579D01*
X110729868Y-77153586D01*
X110689500Y-77356535D01*
X110250500Y-77356535D01*
X110210130Y-77153580D01*
X110130941Y-76962402D01*
X110015977Y-76790345D01*
X109869655Y-76644023D01*
X109779012Y-76583458D01*
X109697598Y-76529059D01*
X109506420Y-76449870D01*
X109506413Y-76449868D01*
X109353516Y-76419455D01*
X109303465Y-76409500D01*
X109096535Y-76409500D01*
X109056385Y-76417486D01*
X108893586Y-76449868D01*
X108893579Y-76449870D01*
X108702401Y-76529059D01*
X108530345Y-76644022D01*
X108530344Y-76644024D01*
X108384024Y-76790344D01*
X108384022Y-76790345D01*
X108269059Y-76962401D01*
X108189870Y-77153579D01*
X108189868Y-77153586D01*
X108149500Y-77356535D01*
X105250500Y-77356535D01*
X105250500Y-76896544D01*
X105272173Y-76844219D01*
X106120480Y-75995913D01*
X106173207Y-75904588D01*
X106200500Y-75802727D01*
X106200500Y-75697273D01*
X106200500Y-75317005D01*
X106222174Y-75264679D01*
X106264840Y-75243638D01*
X106325236Y-75235687D01*
X106465233Y-75177698D01*
X106585451Y-75085451D01*
X106677698Y-74965233D01*
X106735687Y-74825236D01*
X106736832Y-74816535D01*
X108149500Y-74816535D01*
X108149500Y-75023464D01*
X108189868Y-75226413D01*
X108189870Y-75226420D01*
X108269059Y-75417598D01*
X108380912Y-75585000D01*
X108384023Y-75589655D01*
X108530345Y-75735977D01*
X108702402Y-75850941D01*
X108893580Y-75930130D01*
X109096535Y-75970500D01*
X109096536Y-75970500D01*
X109303464Y-75970500D01*
X109303465Y-75970500D01*
X109506420Y-75930130D01*
X109697598Y-75850941D01*
X109869655Y-75735977D01*
X110015977Y-75589655D01*
X110130941Y-75417598D01*
X110210130Y-75226420D01*
X110250500Y-75023465D01*
X110250500Y-74816535D01*
X110689500Y-74816535D01*
X110689500Y-75023464D01*
X110729868Y-75226413D01*
X110729870Y-75226420D01*
X110809059Y-75417598D01*
X110920912Y-75585000D01*
X110924023Y-75589655D01*
X111070345Y-75735977D01*
X111242402Y-75850941D01*
X111433580Y-75930130D01*
X111636535Y-75970500D01*
X111636536Y-75970500D01*
X111843464Y-75970500D01*
X111843465Y-75970500D01*
X112046420Y-75930130D01*
X112237598Y-75850941D01*
X112409655Y-75735977D01*
X112555977Y-75589655D01*
X112670941Y-75417598D01*
X112750130Y-75226420D01*
X112790500Y-75023465D01*
X112790500Y-74816535D01*
X112750130Y-74613580D01*
X112670941Y-74422402D01*
X112555977Y-74250345D01*
X112409655Y-74104023D01*
X112408320Y-74103131D01*
X112237598Y-73989059D01*
X112046420Y-73909870D01*
X112046413Y-73909868D01*
X111893516Y-73879455D01*
X111843465Y-73869500D01*
X111636535Y-73869500D01*
X111596385Y-73877486D01*
X111433586Y-73909868D01*
X111433579Y-73909870D01*
X111242401Y-73989059D01*
X111070345Y-74104022D01*
X111070344Y-74104024D01*
X110924024Y-74250344D01*
X110924022Y-74250345D01*
X110809059Y-74422401D01*
X110729870Y-74613579D01*
X110729868Y-74613586D01*
X110689500Y-74816535D01*
X110250500Y-74816535D01*
X110210130Y-74613580D01*
X110130941Y-74422402D01*
X110015977Y-74250345D01*
X109869655Y-74104023D01*
X109868320Y-74103131D01*
X109697598Y-73989059D01*
X109506420Y-73909870D01*
X109506413Y-73909868D01*
X109353516Y-73879455D01*
X109303465Y-73869500D01*
X109096535Y-73869500D01*
X109056385Y-73877486D01*
X108893586Y-73909868D01*
X108893579Y-73909870D01*
X108702401Y-73989059D01*
X108530345Y-74104022D01*
X108530344Y-74104024D01*
X108384024Y-74250344D01*
X108384022Y-74250345D01*
X108269059Y-74422401D01*
X108189870Y-74613579D01*
X108189868Y-74613586D01*
X108149500Y-74816535D01*
X106736832Y-74816535D01*
X106738326Y-74805190D01*
X106738583Y-74803241D01*
X106748572Y-74727365D01*
X106750500Y-74712720D01*
X106750500Y-73387280D01*
X106735687Y-73274764D01*
X106677698Y-73134767D01*
X106585451Y-73014549D01*
X106465233Y-72922302D01*
X106420590Y-72903810D01*
X106325235Y-72864312D01*
X106238897Y-72852946D01*
X106212720Y-72849500D01*
X105387280Y-72849500D01*
X105361102Y-72852946D01*
X105274765Y-72864312D01*
X105274764Y-72864312D01*
X105134766Y-72922302D01*
X105014549Y-73014549D01*
X104922302Y-73134766D01*
X104864312Y-73274764D01*
X104864312Y-73274765D01*
X104855411Y-73342381D01*
X104849500Y-73387280D01*
X104849500Y-74712720D01*
X104851428Y-74727365D01*
X104864312Y-74825234D01*
X104864312Y-74825235D01*
X104914119Y-74945477D01*
X104922302Y-74965233D01*
X105014549Y-75085451D01*
X105134767Y-75177698D01*
X105274764Y-75235687D01*
X105335159Y-75243638D01*
X105384208Y-75271956D01*
X105399500Y-75317005D01*
X105399500Y-75553454D01*
X105377826Y-75605780D01*
X104929002Y-76054603D01*
X104876676Y-76076277D01*
X104869773Y-76075954D01*
X104854266Y-76074500D01*
X104245734Y-76074500D01*
X104215301Y-76077354D01*
X104215299Y-76077354D01*
X104215295Y-76077355D01*
X104087118Y-76122206D01*
X104087116Y-76122207D01*
X103977853Y-76202846D01*
X103977846Y-76202853D01*
X103897207Y-76312116D01*
X103875497Y-76374158D01*
X103837756Y-76416388D01*
X103781208Y-76419563D01*
X103753324Y-76402042D01*
X103018474Y-75667192D01*
X102996800Y-75614866D01*
X102996800Y-75574806D01*
X102996799Y-75574805D01*
X102992912Y-75560300D01*
X102962692Y-75447514D01*
X102904367Y-75346493D01*
X102896975Y-75290343D01*
X102931454Y-75245409D01*
X102978113Y-75236128D01*
X103007315Y-75239972D01*
X103087280Y-75250500D01*
X103087282Y-75250500D01*
X103912718Y-75250500D01*
X103912720Y-75250500D01*
X104025236Y-75235687D01*
X104165233Y-75177698D01*
X104285451Y-75085451D01*
X104377698Y-74965233D01*
X104435687Y-74825236D01*
X104450500Y-74712720D01*
X104450500Y-73387280D01*
X104435687Y-73274764D01*
X104377698Y-73134767D01*
X104285451Y-73014549D01*
X104165233Y-72922302D01*
X104120590Y-72903810D01*
X104025235Y-72864312D01*
X103964840Y-72856361D01*
X103915791Y-72828042D01*
X103900500Y-72782994D01*
X103900500Y-72276535D01*
X108149500Y-72276535D01*
X108149500Y-72483464D01*
X108189868Y-72686413D01*
X108189870Y-72686420D01*
X108269059Y-72877598D01*
X108321454Y-72956014D01*
X108384023Y-73049655D01*
X108530345Y-73195977D01*
X108702402Y-73310941D01*
X108893580Y-73390130D01*
X109096535Y-73430500D01*
X109096536Y-73430500D01*
X109303464Y-73430500D01*
X109303465Y-73430500D01*
X109506420Y-73390130D01*
X109697598Y-73310941D01*
X109869655Y-73195977D01*
X110015977Y-73049655D01*
X110130941Y-72877598D01*
X110210130Y-72686420D01*
X110250500Y-72483465D01*
X110250500Y-72276535D01*
X110689500Y-72276535D01*
X110689500Y-72483464D01*
X110729868Y-72686413D01*
X110729870Y-72686420D01*
X110809059Y-72877598D01*
X110861454Y-72956014D01*
X110924023Y-73049655D01*
X111070345Y-73195977D01*
X111242402Y-73310941D01*
X111433580Y-73390130D01*
X111636535Y-73430500D01*
X111636536Y-73430500D01*
X111843464Y-73430500D01*
X111843465Y-73430500D01*
X112046420Y-73390130D01*
X112237598Y-73310941D01*
X112409655Y-73195977D01*
X112555977Y-73049655D01*
X112670941Y-72877598D01*
X112750130Y-72686420D01*
X112790500Y-72483465D01*
X112790500Y-72276535D01*
X112750130Y-72073580D01*
X112670941Y-71882402D01*
X112555977Y-71710345D01*
X112409655Y-71564023D01*
X112398930Y-71556857D01*
X112237598Y-71449059D01*
X112046420Y-71369870D01*
X112046413Y-71369868D01*
X111893516Y-71339455D01*
X111843465Y-71329500D01*
X111636535Y-71329500D01*
X111596385Y-71337486D01*
X111433586Y-71369868D01*
X111433579Y-71369870D01*
X111242401Y-71449059D01*
X111070345Y-71564022D01*
X111070344Y-71564024D01*
X110924024Y-71710344D01*
X110924022Y-71710345D01*
X110809059Y-71882401D01*
X110729870Y-72073579D01*
X110729868Y-72073586D01*
X110689500Y-72276535D01*
X110250500Y-72276535D01*
X110210130Y-72073580D01*
X110130941Y-71882402D01*
X110015977Y-71710345D01*
X109869655Y-71564023D01*
X109858930Y-71556857D01*
X109697598Y-71449059D01*
X109506420Y-71369870D01*
X109506413Y-71369868D01*
X109353516Y-71339455D01*
X109303465Y-71329500D01*
X109096535Y-71329500D01*
X109056385Y-71337486D01*
X108893586Y-71369868D01*
X108893579Y-71369870D01*
X108702401Y-71449059D01*
X108530345Y-71564022D01*
X108530344Y-71564024D01*
X108384024Y-71710344D01*
X108384022Y-71710345D01*
X108269059Y-71882401D01*
X108189870Y-72073579D01*
X108189868Y-72073586D01*
X108149500Y-72276535D01*
X103900500Y-72276535D01*
X103900500Y-69736535D01*
X108149500Y-69736535D01*
X108149500Y-69943464D01*
X108189868Y-70146413D01*
X108189870Y-70146420D01*
X108269059Y-70337598D01*
X108327821Y-70425543D01*
X108384023Y-70509655D01*
X108530345Y-70655977D01*
X108702402Y-70770941D01*
X108893580Y-70850130D01*
X109096535Y-70890500D01*
X109096536Y-70890500D01*
X109303464Y-70890500D01*
X109303465Y-70890500D01*
X109506420Y-70850130D01*
X109697598Y-70770941D01*
X109869655Y-70655977D01*
X110015977Y-70509655D01*
X110130941Y-70337598D01*
X110210130Y-70146420D01*
X110250500Y-69943465D01*
X110250500Y-69736535D01*
X110689500Y-69736535D01*
X110689500Y-69943464D01*
X110729868Y-70146413D01*
X110729870Y-70146420D01*
X110809059Y-70337598D01*
X110867821Y-70425543D01*
X110924023Y-70509655D01*
X111070345Y-70655977D01*
X111242402Y-70770941D01*
X111433580Y-70850130D01*
X111636535Y-70890500D01*
X111636536Y-70890500D01*
X111843464Y-70890500D01*
X111843465Y-70890500D01*
X112046420Y-70850130D01*
X112237598Y-70770941D01*
X112409655Y-70655977D01*
X112555977Y-70509655D01*
X112670941Y-70337598D01*
X112750130Y-70146420D01*
X112790500Y-69943465D01*
X112790500Y-69736535D01*
X112750130Y-69533580D01*
X112670941Y-69342402D01*
X112555977Y-69170345D01*
X112409655Y-69024023D01*
X112403484Y-69019900D01*
X112237598Y-68909059D01*
X112046420Y-68829870D01*
X112046413Y-68829868D01*
X111893516Y-68799455D01*
X111843465Y-68789500D01*
X111636535Y-68789500D01*
X111596385Y-68797486D01*
X111433586Y-68829868D01*
X111433579Y-68829870D01*
X111242401Y-68909059D01*
X111070345Y-69024022D01*
X111070344Y-69024024D01*
X110924024Y-69170344D01*
X110924022Y-69170345D01*
X110809059Y-69342401D01*
X110729870Y-69533579D01*
X110729868Y-69533586D01*
X110689500Y-69736535D01*
X110250500Y-69736535D01*
X110210130Y-69533580D01*
X110130941Y-69342402D01*
X110015977Y-69170345D01*
X109869655Y-69024023D01*
X109863484Y-69019900D01*
X109697598Y-68909059D01*
X109506420Y-68829870D01*
X109506413Y-68829868D01*
X109353516Y-68799455D01*
X109303465Y-68789500D01*
X109096535Y-68789500D01*
X109056385Y-68797486D01*
X108893586Y-68829868D01*
X108893579Y-68829870D01*
X108702401Y-68909059D01*
X108530345Y-69024022D01*
X108530344Y-69024024D01*
X108384024Y-69170344D01*
X108384022Y-69170345D01*
X108269059Y-69342401D01*
X108189870Y-69533579D01*
X108189868Y-69533586D01*
X108149500Y-69736535D01*
X103900500Y-69736535D01*
X103900500Y-69024500D01*
X103922174Y-68972174D01*
X103974500Y-68950500D01*
X104956614Y-68950500D01*
X104956616Y-68950500D01*
X105027196Y-68944086D01*
X105189606Y-68893478D01*
X105335185Y-68805472D01*
X105455472Y-68685185D01*
X105543478Y-68539606D01*
X105594086Y-68377196D01*
X105600500Y-68306616D01*
X105600500Y-68174500D01*
X105622174Y-68122174D01*
X105674500Y-68100500D01*
X107664446Y-68100500D01*
X107664446Y-68100499D01*
X107753588Y-68076614D01*
X107772159Y-68065892D01*
X107833512Y-68030470D01*
X108023174Y-67840808D01*
X108075500Y-67819134D01*
X108127826Y-67840808D01*
X108149500Y-67893134D01*
X108149500Y-68169748D01*
X108154161Y-68193181D01*
X108161133Y-68228232D01*
X108190608Y-68272343D01*
X108205448Y-68294552D01*
X108228042Y-68309649D01*
X108271767Y-68338866D01*
X108271768Y-68338866D01*
X108271769Y-68338867D01*
X108330252Y-68350500D01*
X108330254Y-68350500D01*
X110069746Y-68350500D01*
X110069748Y-68350500D01*
X110128231Y-68338867D01*
X110194552Y-68294552D01*
X110238867Y-68228231D01*
X110250500Y-68169748D01*
X110250500Y-67196584D01*
X110690000Y-67196584D01*
X110690000Y-67403415D01*
X110730348Y-67606267D01*
X110730350Y-67606274D01*
X110809502Y-67797362D01*
X110912183Y-67951036D01*
X111309269Y-67553951D01*
X111339901Y-67607007D01*
X111432993Y-67700099D01*
X111486046Y-67730729D01*
X111088961Y-68127814D01*
X111242637Y-68230497D01*
X111433725Y-68309649D01*
X111433732Y-68309651D01*
X111636584Y-68350000D01*
X111843416Y-68350000D01*
X112046267Y-68309651D01*
X112046274Y-68309649D01*
X112237361Y-68230498D01*
X112391037Y-68127815D01*
X112391037Y-68127814D01*
X111993953Y-67730729D01*
X112047007Y-67700099D01*
X112140099Y-67607007D01*
X112170729Y-67553952D01*
X112567814Y-67951037D01*
X112567815Y-67951037D01*
X112670498Y-67797361D01*
X112749649Y-67606274D01*
X112749651Y-67606267D01*
X112790000Y-67403415D01*
X112790000Y-67196584D01*
X112749651Y-66993732D01*
X112749649Y-66993725D01*
X112670497Y-66802637D01*
X112567814Y-66648961D01*
X112170729Y-67046045D01*
X112140099Y-66992993D01*
X112047007Y-66899901D01*
X111993951Y-66869269D01*
X112391037Y-66472183D01*
X112237362Y-66369502D01*
X112046274Y-66290350D01*
X112046267Y-66290348D01*
X111843416Y-66250000D01*
X111636584Y-66250000D01*
X111433732Y-66290348D01*
X111433725Y-66290350D01*
X111242637Y-66369502D01*
X111088961Y-66472183D01*
X111486047Y-66869270D01*
X111432993Y-66899901D01*
X111339901Y-66992993D01*
X111309270Y-67046047D01*
X110912183Y-66648961D01*
X110809502Y-66802637D01*
X110730350Y-66993725D01*
X110730348Y-66993732D01*
X110690000Y-67196584D01*
X110250500Y-67196584D01*
X110250500Y-66430252D01*
X110238867Y-66371769D01*
X110237352Y-66369502D01*
X110219092Y-66342174D01*
X110194552Y-66305448D01*
X110166919Y-66286984D01*
X110128232Y-66261133D01*
X110128233Y-66261133D01*
X110098989Y-66255316D01*
X110069748Y-66249500D01*
X108330252Y-66249500D01*
X108301010Y-66255316D01*
X108271767Y-66261133D01*
X108205449Y-66305447D01*
X108205447Y-66305449D01*
X108161133Y-66371767D01*
X108149500Y-66430253D01*
X108149500Y-66875500D01*
X108127826Y-66927826D01*
X108075500Y-66949500D01*
X108022154Y-66949500D01*
X107933015Y-66973384D01*
X107933010Y-66973386D01*
X107853087Y-67019530D01*
X107494792Y-67377826D01*
X107442466Y-67399500D01*
X105674500Y-67399500D01*
X105622174Y-67377826D01*
X105600500Y-67325500D01*
X105600500Y-67193386D01*
X105600499Y-67193376D01*
X105594086Y-67122804D01*
X105543478Y-66960394D01*
X105455472Y-66814815D01*
X105335185Y-66694528D01*
X105189606Y-66606522D01*
X105027196Y-66555914D01*
X105027193Y-66555913D01*
X105027191Y-66555913D01*
X104956623Y-66549500D01*
X104956616Y-66549500D01*
X102825834Y-66549500D01*
X102773508Y-66527826D01*
X102122174Y-65876492D01*
X102100500Y-65824166D01*
X102100500Y-65245058D01*
X102122174Y-65192732D01*
X102160063Y-65172480D01*
X102178231Y-65168867D01*
X102244552Y-65124552D01*
X102288867Y-65058231D01*
X102300500Y-64999748D01*
X102300500Y-63460253D01*
X102699500Y-63460253D01*
X102699500Y-64999746D01*
X102711133Y-65058232D01*
X102740309Y-65101895D01*
X102755447Y-65124551D01*
X102759497Y-65130611D01*
X102758008Y-65131605D01*
X102776505Y-65176260D01*
X102766592Y-65213258D01*
X102747509Y-65246311D01*
X102747506Y-65246318D01*
X102713400Y-65373605D01*
X102713400Y-65505394D01*
X102747506Y-65632681D01*
X102747510Y-65632690D01*
X102783774Y-65695500D01*
X102813400Y-65746814D01*
X102906586Y-65840000D01*
X103020714Y-65905892D01*
X103148005Y-65939999D01*
X103148006Y-65940000D01*
X103148008Y-65940000D01*
X103279794Y-65940000D01*
X103279794Y-65939999D01*
X103407086Y-65905892D01*
X103521214Y-65840000D01*
X103614400Y-65746814D01*
X103680292Y-65632686D01*
X103714399Y-65505394D01*
X103714400Y-65505394D01*
X103714400Y-65373609D01*
X103707398Y-65347477D01*
X103680292Y-65246314D01*
X103680290Y-65246310D01*
X103678435Y-65241831D01*
X103680970Y-65240780D01*
X103674705Y-65193332D01*
X103705077Y-65150928D01*
X103744552Y-65124552D01*
X103788867Y-65058231D01*
X103800500Y-64999748D01*
X103800500Y-63460252D01*
X103788867Y-63401769D01*
X103744552Y-63335448D01*
X103719047Y-63318406D01*
X103678232Y-63291133D01*
X103678233Y-63291133D01*
X103648989Y-63285316D01*
X103619748Y-63279500D01*
X102880252Y-63279500D01*
X102851010Y-63285316D01*
X102821767Y-63291133D01*
X102755449Y-63335447D01*
X102755447Y-63335449D01*
X102711133Y-63401767D01*
X102699500Y-63460253D01*
X102300500Y-63460253D01*
X102300500Y-63460252D01*
X102288867Y-63401769D01*
X102244552Y-63335448D01*
X102219047Y-63318406D01*
X102178232Y-63291133D01*
X102178233Y-63291133D01*
X102148989Y-63285316D01*
X102119748Y-63279500D01*
X101380252Y-63279500D01*
X101351010Y-63285316D01*
X101321767Y-63291133D01*
X101255449Y-63335447D01*
X101255447Y-63335449D01*
X101211133Y-63401767D01*
X101199500Y-63460253D01*
X101199500Y-64999746D01*
X101211133Y-65058232D01*
X101240608Y-65102343D01*
X101255448Y-65124552D01*
X101294919Y-65150926D01*
X101321767Y-65168866D01*
X101321769Y-65168867D01*
X101339935Y-65172480D01*
X101387028Y-65203944D01*
X101399500Y-65245058D01*
X101399500Y-66046146D01*
X101423384Y-66135284D01*
X101423386Y-66135289D01*
X101469530Y-66215212D01*
X101775044Y-66520726D01*
X101796718Y-66573052D01*
X101775044Y-66625378D01*
X101761002Y-66636379D01*
X101664815Y-66694527D01*
X101544528Y-66814814D01*
X101456523Y-66960392D01*
X101456522Y-66960394D01*
X101407292Y-67118381D01*
X101405913Y-67122808D01*
X101405913Y-67122809D01*
X101399500Y-67193376D01*
X101399500Y-68306623D01*
X101405913Y-68377190D01*
X101405915Y-68377200D01*
X101428907Y-68450985D01*
X101423782Y-68507390D01*
X101380273Y-68543649D01*
X101358258Y-68547000D01*
X99469500Y-68547000D01*
X99417174Y-68525326D01*
X99395500Y-68473000D01*
X99395500Y-68435740D01*
X99395500Y-68435734D01*
X99392646Y-68405301D01*
X99369399Y-68338866D01*
X99347793Y-68277118D01*
X99347792Y-68277116D01*
X99267153Y-68167853D01*
X99267146Y-68167846D01*
X99157883Y-68087207D01*
X99157881Y-68087206D01*
X99029704Y-68042355D01*
X99029705Y-68042355D01*
X99029700Y-68042354D01*
X99029699Y-68042354D01*
X98999266Y-68039500D01*
X98000734Y-68039500D01*
X97970301Y-68042354D01*
X97970299Y-68042354D01*
X97970295Y-68042355D01*
X97842118Y-68087206D01*
X97842116Y-68087207D01*
X97732853Y-68167846D01*
X97732846Y-68167853D01*
X97652207Y-68277116D01*
X97652206Y-68277118D01*
X97607355Y-68405295D01*
X97607354Y-68405299D01*
X97607354Y-68405301D01*
X97604500Y-68435734D01*
X97604500Y-68435740D01*
X97604500Y-69044166D01*
X97582826Y-69096492D01*
X96176492Y-70502826D01*
X96124166Y-70524500D01*
X95716511Y-70524500D01*
X95616874Y-70540280D01*
X95616873Y-70540281D01*
X95496780Y-70601471D01*
X95401473Y-70696778D01*
X95401472Y-70696780D01*
X95395901Y-70707715D01*
X95390434Y-70718444D01*
X95347367Y-70755226D01*
X95290904Y-70750782D01*
X95254122Y-70707715D01*
X95250500Y-70684848D01*
X95250500Y-68572119D01*
X95255791Y-68544641D01*
X95266595Y-68517630D01*
X95306149Y-68477098D01*
X95316139Y-68473638D01*
X95343186Y-68466392D01*
X95457314Y-68400500D01*
X95550500Y-68307314D01*
X95616392Y-68193186D01*
X95650500Y-68065892D01*
X95650500Y-67934108D01*
X95650500Y-67934106D01*
X95650499Y-67934105D01*
X95625500Y-67840808D01*
X95616392Y-67806814D01*
X95550500Y-67692686D01*
X95457314Y-67599500D01*
X95392421Y-67562034D01*
X95343190Y-67533610D01*
X95343181Y-67533606D01*
X95215894Y-67499500D01*
X95215892Y-67499500D01*
X95084108Y-67499500D01*
X95018651Y-67517038D01*
X94962500Y-67509646D01*
X94928021Y-67464713D01*
X94925500Y-67445560D01*
X94925500Y-67129892D01*
X94947174Y-67077566D01*
X94949249Y-67075571D01*
X94955329Y-67069946D01*
X94963015Y-67065509D01*
X94998681Y-67029842D01*
X94999749Y-67028855D01*
X95025058Y-67019506D01*
X95050000Y-67009176D01*
X95051428Y-67009767D01*
X95052878Y-67009232D01*
X95077385Y-67020519D01*
X95102326Y-67030850D01*
X95136985Y-67065509D01*
X95228562Y-67118381D01*
X95241813Y-67126032D01*
X95262515Y-67137984D01*
X95262516Y-67137984D01*
X95262518Y-67137985D01*
X95332520Y-67156742D01*
X95402522Y-67175499D01*
X95402523Y-67175500D01*
X95402525Y-67175500D01*
X95547477Y-67175500D01*
X95547477Y-67175499D01*
X95687485Y-67137984D01*
X95813015Y-67065509D01*
X95847674Y-67030850D01*
X95900000Y-67009176D01*
X95952326Y-67030850D01*
X95986985Y-67065509D01*
X96078562Y-67118381D01*
X96091813Y-67126032D01*
X96112515Y-67137984D01*
X96112516Y-67137984D01*
X96112518Y-67137985D01*
X96182520Y-67156742D01*
X96252522Y-67175499D01*
X96252523Y-67175500D01*
X96252525Y-67175500D01*
X96397477Y-67175500D01*
X96397477Y-67175499D01*
X96537485Y-67137984D01*
X96663015Y-67065509D01*
X96765509Y-66963015D01*
X96837984Y-66837485D01*
X96875499Y-66697477D01*
X96875500Y-66697477D01*
X96875500Y-66552523D01*
X96875499Y-66552522D01*
X96837985Y-66412518D01*
X96837983Y-66412513D01*
X96776169Y-66305449D01*
X96765509Y-66286985D01*
X96663015Y-66184491D01*
X96606523Y-66151875D01*
X96537486Y-66112016D01*
X96537481Y-66112014D01*
X96397477Y-66074500D01*
X96397475Y-66074500D01*
X96252525Y-66074500D01*
X96252523Y-66074500D01*
X96112518Y-66112014D01*
X96112513Y-66112016D01*
X95986984Y-66184491D01*
X95952326Y-66219150D01*
X95900000Y-66240824D01*
X95847674Y-66219150D01*
X95813015Y-66184491D01*
X95687486Y-66112016D01*
X95687481Y-66112014D01*
X95547477Y-66074500D01*
X95547475Y-66074500D01*
X95402525Y-66074500D01*
X95402523Y-66074500D01*
X95262518Y-66112014D01*
X95262513Y-66112016D01*
X95136984Y-66184491D01*
X95102326Y-66219150D01*
X95050000Y-66240824D01*
X94997674Y-66219150D01*
X94963015Y-66184491D01*
X94837486Y-66112016D01*
X94837481Y-66112014D01*
X94697477Y-66074500D01*
X94697475Y-66074500D01*
X94630123Y-66074500D01*
X94577797Y-66052826D01*
X94471797Y-65946826D01*
X94450123Y-65894500D01*
X94471797Y-65842174D01*
X94524123Y-65820500D01*
X94543276Y-65823021D01*
X94552525Y-65825500D01*
X94697477Y-65825500D01*
X94697477Y-65825499D01*
X94837485Y-65787984D01*
X94963015Y-65715509D01*
X94997674Y-65680850D01*
X95050000Y-65659176D01*
X95102326Y-65680850D01*
X95136985Y-65715509D01*
X95167741Y-65733266D01*
X95232945Y-65770912D01*
X95262515Y-65787984D01*
X95262516Y-65787984D01*
X95262518Y-65787985D01*
X95332520Y-65806742D01*
X95402522Y-65825499D01*
X95402523Y-65825500D01*
X95402525Y-65825500D01*
X95547477Y-65825500D01*
X95547477Y-65825499D01*
X95687485Y-65787984D01*
X95813015Y-65715509D01*
X95847674Y-65680850D01*
X95900000Y-65659176D01*
X95952326Y-65680850D01*
X95986985Y-65715509D01*
X96017741Y-65733266D01*
X96082945Y-65770912D01*
X96112515Y-65787984D01*
X96112516Y-65787984D01*
X96112518Y-65787985D01*
X96182520Y-65806742D01*
X96252522Y-65825499D01*
X96252523Y-65825500D01*
X96252525Y-65825500D01*
X96397477Y-65825500D01*
X96397477Y-65825499D01*
X96537485Y-65787984D01*
X96663015Y-65715509D01*
X96765509Y-65613015D01*
X96837984Y-65487485D01*
X96875499Y-65347477D01*
X96875500Y-65347477D01*
X96875500Y-65202523D01*
X96875499Y-65202522D01*
X96837985Y-65062518D01*
X96837983Y-65062513D01*
X96765508Y-64936984D01*
X96663015Y-64834491D01*
X96537486Y-64762016D01*
X96537481Y-64762014D01*
X96397477Y-64724500D01*
X96392668Y-64723867D01*
X96392902Y-64722084D01*
X96346408Y-64702826D01*
X95936812Y-64293230D01*
X95856889Y-64247086D01*
X95856884Y-64247084D01*
X95767746Y-64223200D01*
X95767744Y-64223200D01*
X92594856Y-64223200D01*
X92594854Y-64223200D01*
X92505715Y-64247084D01*
X92505710Y-64247086D01*
X92425787Y-64293230D01*
X92005606Y-64713410D01*
X91972433Y-64732562D01*
X91862518Y-64762014D01*
X91862513Y-64762016D01*
X91736984Y-64834491D01*
X91634491Y-64936984D01*
X91562016Y-65062513D01*
X91562014Y-65062518D01*
X91524500Y-65202522D01*
X91524500Y-65347477D01*
X91562014Y-65487481D01*
X91562016Y-65487486D01*
X91634491Y-65613015D01*
X91664650Y-65643174D01*
X91686324Y-65695500D01*
X91664650Y-65747826D01*
X91612324Y-65769500D01*
X90938000Y-65769500D01*
X90886122Y-65790989D01*
X90886121Y-65790989D01*
X90836743Y-65811441D01*
X90836740Y-65811443D01*
X90500342Y-66147843D01*
X90422842Y-66225343D01*
X90389661Y-66305449D01*
X90380900Y-66326600D01*
X90380900Y-66947300D01*
X90421286Y-67044799D01*
X90422843Y-67048558D01*
X91048643Y-67674358D01*
X91126142Y-67751857D01*
X91227400Y-67793800D01*
X91383533Y-67793800D01*
X91435859Y-67815474D01*
X91655428Y-68035043D01*
X91677102Y-68087369D01*
X91655428Y-68139695D01*
X91640103Y-68151455D01*
X91523284Y-68218901D01*
X91430100Y-68312085D01*
X91364210Y-68426209D01*
X91364206Y-68426218D01*
X91330100Y-68553505D01*
X91330100Y-68559632D01*
X91308426Y-68611958D01*
X91162559Y-68757826D01*
X91110233Y-68779500D01*
X90835684Y-68779500D01*
X90824318Y-68780996D01*
X90786828Y-68785931D01*
X90679595Y-68835935D01*
X90595935Y-68919595D01*
X90545931Y-69026828D01*
X90543649Y-69044166D01*
X90539500Y-69075684D01*
X90539500Y-69524316D01*
X90540720Y-69533580D01*
X90545931Y-69573171D01*
X90545932Y-69573173D01*
X90595935Y-69680404D01*
X90679596Y-69764065D01*
X90786827Y-69814068D01*
X90835684Y-69820500D01*
X90835686Y-69820500D01*
X91184314Y-69820500D01*
X91184316Y-69820500D01*
X91233173Y-69814068D01*
X91340404Y-69764065D01*
X91424065Y-69680404D01*
X91474068Y-69573173D01*
X91480500Y-69524316D01*
X91480500Y-69249767D01*
X91502174Y-69197441D01*
X91530303Y-69169312D01*
X91588599Y-69111015D01*
X91640924Y-69089342D01*
X91660073Y-69091863D01*
X91764705Y-69119899D01*
X91764706Y-69119900D01*
X91764708Y-69119900D01*
X91896494Y-69119900D01*
X91896494Y-69119899D01*
X92023786Y-69085792D01*
X92137914Y-69019900D01*
X92231100Y-68926714D01*
X92296992Y-68812586D01*
X92296992Y-68812584D01*
X92298544Y-68809897D01*
X92343477Y-68775419D01*
X92399630Y-68782811D01*
X92414956Y-68794571D01*
X92817826Y-69197441D01*
X92839500Y-69249767D01*
X92839500Y-69524316D01*
X92840720Y-69533580D01*
X92845931Y-69573171D01*
X92845932Y-69573173D01*
X92895935Y-69680404D01*
X92979596Y-69764065D01*
X93086827Y-69814068D01*
X93135684Y-69820500D01*
X93135686Y-69820500D01*
X93484314Y-69820500D01*
X93484316Y-69820500D01*
X93533173Y-69814068D01*
X93640404Y-69764065D01*
X93724065Y-69680404D01*
X93774068Y-69573173D01*
X93780500Y-69524316D01*
X93780500Y-69075684D01*
X93774068Y-69026827D01*
X93724065Y-68919596D01*
X93640404Y-68835935D01*
X93533173Y-68785932D01*
X93533171Y-68785931D01*
X93497178Y-68781193D01*
X93484316Y-68779500D01*
X93484314Y-68779500D01*
X93209768Y-68779500D01*
X93157442Y-68757826D01*
X91684359Y-67284744D01*
X91684357Y-67284742D01*
X91609791Y-67253856D01*
X91583100Y-67242800D01*
X91583099Y-67242800D01*
X91426967Y-67242800D01*
X91374641Y-67221126D01*
X90953574Y-66800059D01*
X90931900Y-66747733D01*
X90931900Y-66526167D01*
X90953574Y-66473841D01*
X91085242Y-66342174D01*
X91137568Y-66320500D01*
X91490233Y-66320500D01*
X91542559Y-66342174D01*
X91564233Y-66394500D01*
X91561711Y-66413653D01*
X91524500Y-66552522D01*
X91524500Y-66697477D01*
X91562014Y-66837481D01*
X91562016Y-66837486D01*
X91625417Y-66947299D01*
X91634491Y-66963015D01*
X91736985Y-67065509D01*
X91828562Y-67118381D01*
X91841813Y-67126032D01*
X91862515Y-67137984D01*
X91862516Y-67137984D01*
X91862518Y-67137985D01*
X91932520Y-67156742D01*
X92002522Y-67175499D01*
X92002523Y-67175500D01*
X92002525Y-67175500D01*
X92147477Y-67175500D01*
X92147477Y-67175499D01*
X92287485Y-67137984D01*
X92413015Y-67065509D01*
X92447674Y-67030850D01*
X92500000Y-67009176D01*
X92552326Y-67030850D01*
X92586985Y-67065509D01*
X92678562Y-67118381D01*
X92691813Y-67126032D01*
X92712515Y-67137984D01*
X92712516Y-67137984D01*
X92712518Y-67137985D01*
X92782520Y-67156742D01*
X92852522Y-67175499D01*
X92852523Y-67175500D01*
X92852525Y-67175500D01*
X92997477Y-67175500D01*
X92997477Y-67175499D01*
X93137485Y-67137984D01*
X93263015Y-67065509D01*
X93297674Y-67030850D01*
X93322614Y-67020519D01*
X93347122Y-67009232D01*
X93348531Y-67009784D01*
X93350000Y-67009176D01*
X93400251Y-67028855D01*
X93401318Y-67029842D01*
X93436985Y-67065509D01*
X93444670Y-67069946D01*
X93450751Y-67075571D01*
X93459395Y-67094340D01*
X93471978Y-67110737D01*
X93473991Y-67126032D01*
X93474444Y-67127014D01*
X93474205Y-67127658D01*
X93474500Y-67129892D01*
X93474500Y-67562034D01*
X93452826Y-67614360D01*
X93374500Y-67692685D01*
X93308610Y-67806809D01*
X93308606Y-67806818D01*
X93274500Y-67934105D01*
X93274500Y-68065894D01*
X93308606Y-68193181D01*
X93308610Y-68193190D01*
X93330150Y-68230498D01*
X93374500Y-68307314D01*
X93467686Y-68400500D01*
X93581814Y-68466392D01*
X93709105Y-68500499D01*
X93709106Y-68500500D01*
X93709108Y-68500500D01*
X93840894Y-68500500D01*
X93840894Y-68500499D01*
X93968186Y-68466392D01*
X94038500Y-68425795D01*
X94094652Y-68418403D01*
X94139586Y-68452882D01*
X94149500Y-68489882D01*
X94149500Y-72425500D01*
X94127826Y-72477826D01*
X94075500Y-72499500D01*
X93508468Y-72499500D01*
X93456142Y-72477826D01*
X93441401Y-72456773D01*
X93424066Y-72419597D01*
X93340404Y-72335935D01*
X93266781Y-72301604D01*
X93233173Y-72285932D01*
X93233171Y-72285931D01*
X93197178Y-72281193D01*
X93184316Y-72279500D01*
X92835684Y-72279500D01*
X92811255Y-72282716D01*
X92786825Y-72285932D01*
X92758507Y-72299136D01*
X92701924Y-72301604D01*
X92674910Y-72284394D01*
X92464095Y-72073579D01*
X91765158Y-71374643D01*
X91746494Y-71366912D01*
X91663900Y-71332700D01*
X91663899Y-71332700D01*
X91577205Y-71332700D01*
X91524879Y-71311026D01*
X91518502Y-71303755D01*
X91516303Y-71300890D01*
X91516301Y-71300888D01*
X91516300Y-71300886D01*
X91423114Y-71207700D01*
X91363308Y-71173171D01*
X91308990Y-71141810D01*
X91308981Y-71141806D01*
X91181694Y-71107700D01*
X91181692Y-71107700D01*
X91049908Y-71107700D01*
X91049906Y-71107700D01*
X90922618Y-71141806D01*
X90922609Y-71141810D01*
X90808485Y-71207700D01*
X90715300Y-71300885D01*
X90649410Y-71415009D01*
X90649406Y-71415018D01*
X90615300Y-71542305D01*
X90615300Y-71580966D01*
X90593626Y-71633292D01*
X90541300Y-71654966D01*
X90488974Y-71633292D01*
X90234374Y-71378692D01*
X90212700Y-71326366D01*
X90212700Y-70417054D01*
X90212699Y-70417053D01*
X90188815Y-70327916D01*
X90188814Y-70327912D01*
X90176221Y-70306100D01*
X90142670Y-70247988D01*
X88045912Y-68151230D01*
X88005356Y-68127815D01*
X87965989Y-68105086D01*
X87965984Y-68105084D01*
X87876846Y-68081200D01*
X87876844Y-68081200D01*
X86419288Y-68081200D01*
X86366962Y-68059526D01*
X86345288Y-68007200D01*
X86357759Y-67966088D01*
X86470499Y-67797358D01*
X86549649Y-67606274D01*
X86549651Y-67606267D01*
X86590000Y-67403415D01*
X86590000Y-67196584D01*
X86549651Y-66993732D01*
X86549649Y-66993725D01*
X86470497Y-66802637D01*
X86367814Y-66648961D01*
X85970729Y-67046046D01*
X85940099Y-66992993D01*
X85847007Y-66899901D01*
X85793951Y-66869269D01*
X86191037Y-66472183D01*
X86037362Y-66369502D01*
X85846274Y-66290350D01*
X85846267Y-66290348D01*
X85643416Y-66250000D01*
X85436584Y-66250000D01*
X85233732Y-66290348D01*
X85233725Y-66290350D01*
X85042637Y-66369502D01*
X84888961Y-66472183D01*
X85286047Y-66869270D01*
X85232993Y-66899901D01*
X85139901Y-66992993D01*
X85109270Y-67046047D01*
X84712183Y-66648961D01*
X84609502Y-66802637D01*
X84530350Y-66993725D01*
X84530348Y-66993731D01*
X84522643Y-67032470D01*
X84491177Y-67079562D01*
X84435628Y-67090611D01*
X84397741Y-67070360D01*
X84346912Y-67019531D01*
X84346909Y-67019529D01*
X84346908Y-67019528D01*
X84266989Y-66973386D01*
X84266984Y-66973384D01*
X84177846Y-66949500D01*
X84177844Y-66949500D01*
X84124500Y-66949500D01*
X84072174Y-66927826D01*
X84050500Y-66875500D01*
X84050500Y-66430253D01*
X84043388Y-66394500D01*
X84038867Y-66371769D01*
X84037352Y-66369502D01*
X84019092Y-66342174D01*
X83994552Y-66305448D01*
X83966919Y-66286984D01*
X83928232Y-66261133D01*
X83928233Y-66261133D01*
X83898989Y-66255316D01*
X83869748Y-66249500D01*
X82130252Y-66249500D01*
X82101010Y-66255316D01*
X82071767Y-66261133D01*
X82005449Y-66305447D01*
X82005447Y-66305449D01*
X81961133Y-66371767D01*
X81953377Y-66410757D01*
X81949500Y-66430252D01*
X81949500Y-68169748D01*
X81954161Y-68193181D01*
X81961133Y-68228232D01*
X81990608Y-68272343D01*
X82005448Y-68294552D01*
X82028042Y-68309649D01*
X82071767Y-68338866D01*
X82071768Y-68338866D01*
X82071769Y-68338867D01*
X82130252Y-68350500D01*
X82130254Y-68350500D01*
X83869746Y-68350500D01*
X83869748Y-68350500D01*
X83928231Y-68338867D01*
X83994552Y-68294552D01*
X84038867Y-68228231D01*
X84050500Y-68169748D01*
X84050500Y-68105434D01*
X84072174Y-68053108D01*
X84124500Y-68031434D01*
X84176826Y-68053108D01*
X84500592Y-68376874D01*
X84522266Y-68429200D01*
X84500592Y-68481526D01*
X84448266Y-68503200D01*
X82444500Y-68503200D01*
X82343244Y-68545140D01*
X82343241Y-68545142D01*
X80540342Y-70348043D01*
X80462842Y-70425543D01*
X80420900Y-70526800D01*
X80200500Y-70526800D01*
X80200500Y-62693711D01*
X81649500Y-62693711D01*
X81649500Y-62906288D01*
X81682753Y-63116240D01*
X81682756Y-63116253D01*
X81748440Y-63318406D01*
X81844948Y-63507816D01*
X81921475Y-63613146D01*
X81969896Y-63679792D01*
X82120208Y-63830104D01*
X82215656Y-63899451D01*
X82292183Y-63955051D01*
X82379903Y-63999746D01*
X82481588Y-64051557D01*
X82481590Y-64051557D01*
X82481593Y-64051559D01*
X82683746Y-64117243D01*
X82683752Y-64117244D01*
X82683757Y-64117246D01*
X82788735Y-64133873D01*
X82893711Y-64150500D01*
X82893713Y-64150500D01*
X83106289Y-64150500D01*
X83190269Y-64137198D01*
X83316243Y-64117246D01*
X83316250Y-64117243D01*
X83316253Y-64117243D01*
X83518406Y-64051559D01*
X83518406Y-64051558D01*
X83518412Y-64051557D01*
X83707816Y-63955051D01*
X83879792Y-63830104D01*
X84030104Y-63679792D01*
X84155051Y-63507816D01*
X84251557Y-63318412D01*
X84299617Y-63170500D01*
X84302947Y-63160253D01*
X99649500Y-63160253D01*
X99649500Y-63999746D01*
X99661133Y-64058232D01*
X99690608Y-64102343D01*
X99705448Y-64124552D01*
X99744281Y-64150500D01*
X99771767Y-64168866D01*
X99771768Y-64168866D01*
X99771769Y-64168867D01*
X99830252Y-64180500D01*
X99830254Y-64180500D01*
X100869746Y-64180500D01*
X100869748Y-64180500D01*
X100928231Y-64168867D01*
X100994552Y-64124552D01*
X101038867Y-64058231D01*
X101050500Y-63999748D01*
X101050500Y-63160252D01*
X101038867Y-63101769D01*
X100994552Y-63035448D01*
X100962624Y-63014114D01*
X100928232Y-62991133D01*
X100928233Y-62991133D01*
X100898989Y-62985316D01*
X100869748Y-62979500D01*
X99830252Y-62979500D01*
X99801010Y-62985316D01*
X99771767Y-62991133D01*
X99705449Y-63035447D01*
X99705447Y-63035449D01*
X99661133Y-63101767D01*
X99649500Y-63160253D01*
X84302947Y-63160253D01*
X84311558Y-63133750D01*
X84311558Y-63133749D01*
X84317244Y-63116249D01*
X84317243Y-63116249D01*
X84317246Y-63116243D01*
X84348876Y-62916542D01*
X84350500Y-62906288D01*
X84350500Y-62693711D01*
X84333873Y-62588735D01*
X84317246Y-62483757D01*
X84317242Y-62483746D01*
X84296608Y-62420240D01*
X84296608Y-62420239D01*
X84290359Y-62401008D01*
X101799500Y-62401008D01*
X101799500Y-62538991D01*
X101826418Y-62674322D01*
X101826421Y-62674332D01*
X101879223Y-62801808D01*
X101879224Y-62801810D01*
X101879225Y-62801811D01*
X101955886Y-62916542D01*
X102053458Y-63014114D01*
X102168189Y-63090775D01*
X102168190Y-63090775D01*
X102168191Y-63090776D01*
X102271938Y-63133749D01*
X102295672Y-63143580D01*
X102431007Y-63170500D01*
X102431009Y-63170500D01*
X102568991Y-63170500D01*
X102568993Y-63170500D01*
X102704328Y-63143580D01*
X102831811Y-63090775D01*
X102946542Y-63014114D01*
X103044114Y-62916542D01*
X103120775Y-62801811D01*
X103173580Y-62674328D01*
X103200500Y-62538993D01*
X103200500Y-62401008D01*
X104799500Y-62401008D01*
X104799500Y-62538991D01*
X104826418Y-62674322D01*
X104826421Y-62674332D01*
X104879223Y-62801808D01*
X104879224Y-62801810D01*
X104879225Y-62801811D01*
X104955886Y-62916542D01*
X105053458Y-63014114D01*
X105168189Y-63090775D01*
X105168190Y-63090775D01*
X105168191Y-63090776D01*
X105271938Y-63133749D01*
X105295672Y-63143580D01*
X105431007Y-63170500D01*
X105431009Y-63170500D01*
X105568991Y-63170500D01*
X105568993Y-63170500D01*
X105620508Y-63160253D01*
X106949500Y-63160253D01*
X106949500Y-63999746D01*
X106961133Y-64058232D01*
X106990608Y-64102343D01*
X107005448Y-64124552D01*
X107044281Y-64150500D01*
X107071767Y-64168866D01*
X107071768Y-64168866D01*
X107071769Y-64168867D01*
X107130252Y-64180500D01*
X107130254Y-64180500D01*
X108169746Y-64180500D01*
X108169748Y-64180500D01*
X108228231Y-64168867D01*
X108294552Y-64124552D01*
X108338867Y-64058231D01*
X108350500Y-63999748D01*
X108350500Y-63160252D01*
X108338867Y-63101769D01*
X108294552Y-63035448D01*
X108262624Y-63014114D01*
X108228232Y-62991133D01*
X108228233Y-62991133D01*
X108198989Y-62985316D01*
X108169748Y-62979500D01*
X107130252Y-62979500D01*
X107101010Y-62985316D01*
X107071767Y-62991133D01*
X107005449Y-63035447D01*
X107005447Y-63035449D01*
X106961133Y-63101767D01*
X106949500Y-63160253D01*
X105620508Y-63160253D01*
X105704328Y-63143580D01*
X105831811Y-63090775D01*
X105946542Y-63014114D01*
X106044114Y-62916542D01*
X106120775Y-62801811D01*
X106165551Y-62693711D01*
X109649500Y-62693711D01*
X109649500Y-62906288D01*
X109682753Y-63116240D01*
X109682756Y-63116253D01*
X109748440Y-63318406D01*
X109844948Y-63507816D01*
X109921475Y-63613146D01*
X109969896Y-63679792D01*
X110120208Y-63830104D01*
X110215656Y-63899451D01*
X110292183Y-63955051D01*
X110379903Y-63999746D01*
X110481588Y-64051557D01*
X110481590Y-64051557D01*
X110481593Y-64051559D01*
X110683746Y-64117243D01*
X110683752Y-64117244D01*
X110683757Y-64117246D01*
X110788735Y-64133873D01*
X110893711Y-64150500D01*
X110893713Y-64150500D01*
X111106289Y-64150500D01*
X111190269Y-64137198D01*
X111316243Y-64117246D01*
X111316250Y-64117243D01*
X111316253Y-64117243D01*
X111518406Y-64051559D01*
X111518406Y-64051558D01*
X111518412Y-64051557D01*
X111707816Y-63955051D01*
X111879792Y-63830104D01*
X112030104Y-63679792D01*
X112155051Y-63507816D01*
X112251557Y-63318412D01*
X112302947Y-63160252D01*
X112317243Y-63116253D01*
X112317244Y-63116249D01*
X112317246Y-63116243D01*
X112348876Y-62916542D01*
X112350500Y-62906288D01*
X112350500Y-62693711D01*
X112333873Y-62588735D01*
X112317246Y-62483757D01*
X112317244Y-62483750D01*
X112317243Y-62483746D01*
X112251559Y-62281593D01*
X112251557Y-62281590D01*
X112251557Y-62281588D01*
X112178492Y-62138189D01*
X112155051Y-62092183D01*
X112058190Y-61958866D01*
X112030104Y-61920208D01*
X111879792Y-61769896D01*
X111813146Y-61721475D01*
X111707816Y-61644948D01*
X111518406Y-61548440D01*
X111316253Y-61482756D01*
X111316240Y-61482753D01*
X111106289Y-61449500D01*
X111106287Y-61449500D01*
X110893713Y-61449500D01*
X110893711Y-61449500D01*
X110683759Y-61482753D01*
X110683746Y-61482756D01*
X110481593Y-61548440D01*
X110292183Y-61644948D01*
X110120753Y-61769500D01*
X110120208Y-61769896D01*
X109969896Y-61920208D01*
X109969893Y-61920211D01*
X109969893Y-61920212D01*
X109844948Y-62092183D01*
X109748440Y-62281593D01*
X109682756Y-62483746D01*
X109682753Y-62483759D01*
X109649500Y-62693711D01*
X106165551Y-62693711D01*
X106173580Y-62674328D01*
X106200500Y-62538993D01*
X106200500Y-62401007D01*
X106173580Y-62265672D01*
X106120775Y-62138189D01*
X106044114Y-62023458D01*
X105946542Y-61925886D01*
X105938050Y-61920212D01*
X105831808Y-61849223D01*
X105704332Y-61796421D01*
X105704322Y-61796418D01*
X105613694Y-61778391D01*
X105568993Y-61769500D01*
X105431007Y-61769500D01*
X105392642Y-61777131D01*
X105295677Y-61796418D01*
X105295667Y-61796421D01*
X105168191Y-61849223D01*
X105053461Y-61925883D01*
X104955883Y-62023461D01*
X104879223Y-62138191D01*
X104826421Y-62265667D01*
X104826418Y-62265677D01*
X104799500Y-62401008D01*
X103200500Y-62401008D01*
X103200500Y-62401007D01*
X103173580Y-62265672D01*
X103120775Y-62138189D01*
X103044114Y-62023458D01*
X102946542Y-61925886D01*
X102938050Y-61920212D01*
X102831808Y-61849223D01*
X102704332Y-61796421D01*
X102704322Y-61796418D01*
X102613694Y-61778391D01*
X102568993Y-61769500D01*
X102431007Y-61769500D01*
X102392642Y-61777131D01*
X102295677Y-61796418D01*
X102295667Y-61796421D01*
X102168191Y-61849223D01*
X102053461Y-61925883D01*
X101955883Y-62023461D01*
X101879223Y-62138191D01*
X101826421Y-62265667D01*
X101826418Y-62265677D01*
X101799500Y-62401008D01*
X84290359Y-62401008D01*
X84251559Y-62281593D01*
X84251557Y-62281590D01*
X84251557Y-62281588D01*
X84178492Y-62138189D01*
X84155051Y-62092183D01*
X84058190Y-61958866D01*
X84030104Y-61920208D01*
X83879792Y-61769896D01*
X83813146Y-61721475D01*
X83707816Y-61644948D01*
X83518406Y-61548440D01*
X83316253Y-61482756D01*
X83316240Y-61482753D01*
X83106289Y-61449500D01*
X83106287Y-61449500D01*
X82893713Y-61449500D01*
X82893711Y-61449500D01*
X82683759Y-61482753D01*
X82683746Y-61482756D01*
X82481593Y-61548440D01*
X82292183Y-61644948D01*
X82120753Y-61769500D01*
X82120208Y-61769896D01*
X81969896Y-61920208D01*
X81969893Y-61920211D01*
X81969893Y-61920212D01*
X81844948Y-62092183D01*
X81748440Y-62281593D01*
X81682756Y-62483746D01*
X81682753Y-62483759D01*
X81649500Y-62693711D01*
X80200500Y-62693711D01*
X80200500Y-61502908D01*
X80200728Y-61497102D01*
X80216042Y-61302515D01*
X80217855Y-61291062D01*
X80262745Y-61104077D01*
X80266324Y-61093064D01*
X80325479Y-60950252D01*
X99649500Y-60950252D01*
X99649500Y-61789748D01*
X99657255Y-61828736D01*
X99661133Y-61848232D01*
X99661797Y-61849225D01*
X99705448Y-61914552D01*
X99749560Y-61944027D01*
X99771767Y-61958866D01*
X99771768Y-61958866D01*
X99771769Y-61958867D01*
X99830252Y-61970500D01*
X99830254Y-61970500D01*
X100869746Y-61970500D01*
X100869748Y-61970500D01*
X100928231Y-61958867D01*
X100994552Y-61914552D01*
X101038867Y-61848231D01*
X101050500Y-61789748D01*
X101050500Y-60950252D01*
X106949500Y-60950252D01*
X106949500Y-61789748D01*
X106957255Y-61828736D01*
X106961133Y-61848232D01*
X106961797Y-61849225D01*
X107005448Y-61914552D01*
X107049560Y-61944027D01*
X107071767Y-61958866D01*
X107071768Y-61958866D01*
X107071769Y-61958867D01*
X107130252Y-61970500D01*
X107130254Y-61970500D01*
X108169746Y-61970500D01*
X108169748Y-61970500D01*
X108228231Y-61958867D01*
X108294552Y-61914552D01*
X108338867Y-61848231D01*
X108350500Y-61789748D01*
X108350500Y-60950252D01*
X108338867Y-60891769D01*
X108294552Y-60825448D01*
X108272343Y-60810608D01*
X108228232Y-60781133D01*
X108228233Y-60781133D01*
X108198989Y-60775316D01*
X108169748Y-60769500D01*
X107130252Y-60769500D01*
X107101010Y-60775316D01*
X107071767Y-60781133D01*
X107005449Y-60825447D01*
X107005447Y-60825449D01*
X106961133Y-60891767D01*
X106955856Y-60918298D01*
X106949500Y-60950252D01*
X101050500Y-60950252D01*
X101038867Y-60891769D01*
X100994552Y-60825448D01*
X100972343Y-60810608D01*
X100928232Y-60781133D01*
X100928233Y-60781133D01*
X100898989Y-60775316D01*
X100869748Y-60769500D01*
X99830252Y-60769500D01*
X99801010Y-60775316D01*
X99771767Y-60781133D01*
X99705449Y-60825447D01*
X99705447Y-60825449D01*
X99661133Y-60891767D01*
X99655856Y-60918298D01*
X99649500Y-60950252D01*
X80325479Y-60950252D01*
X80339905Y-60915424D01*
X80345180Y-60905071D01*
X80345703Y-60904218D01*
X80445643Y-60741130D01*
X80452458Y-60731750D01*
X80577338Y-60585534D01*
X80585534Y-60577338D01*
X80731750Y-60452458D01*
X80741130Y-60445643D01*
X80905074Y-60345178D01*
X80915413Y-60339909D01*
X81093064Y-60266324D01*
X81104077Y-60262745D01*
X81291062Y-60217855D01*
X81302510Y-60216042D01*
X81497103Y-60200728D01*
X81502909Y-60200500D01*
X81539882Y-60200500D01*
X112460118Y-60200500D01*
X112497091Y-60200500D01*
X112502897Y-60200728D01*
G37*
%TD.AperFunction*%
%TD*%
M02*
