%TF.GenerationSoftware,KiCad,Pcbnew,10.0.6*%
%TF.CreationDate,2026-10-01T22:49:05+00:00*%
%TF.ProjectId,nicklink,6e69636b-6c69-46e6-9b2e-6b696361645f,rev?*%
%TF.SameCoordinates,Original*%
%TF.FileFunction,Copper,L2,Bot*%
%TF.FilePolarity,Positive*%
%FSLAX46Y46*%
G04 Gerber Fmt 4.6, Leading zero omitted, Abs format (unit mm)*
G04 Created by KiCad (PCBNEW 10.0.6) date 2026-10-01 22:49:05*
%MOMM*%
%LPD*%
G01*
G04 APERTURE LIST*
%TA.AperFunction,ComponentPad*%
%ADD10C,0.700000*%
%TD*%
%TA.AperFunction,ComponentPad*%
%ADD11O,0.900000X2.400000*%
%TD*%
%TA.AperFunction,ComponentPad*%
%ADD12O,0.900000X1.700000*%
%TD*%
%TA.AperFunction,ComponentPad*%
%ADD13R,1.700000X1.700000*%
%TD*%
%TA.AperFunction,ComponentPad*%
%ADD14C,1.700000*%
%TD*%
%TA.AperFunction,ViaPad*%
%ADD15C,0.600000*%
%TD*%
%TA.AperFunction,Conductor*%
%ADD16C,0.250000*%
%TD*%
%TA.AperFunction,Conductor*%
%ADD17C,0.300000*%
%TD*%
%TA.AperFunction,Conductor*%
%ADD18C,0.150000*%
%TD*%
G04 APERTURE END LIST*
D10*
%TO.P,J2,A1*%
%TO.N,GND*%
X119570000Y-106625000D03*
%TO.P,J2,A4*%
%TO.N,VBUS*%
X118720000Y-106625000D03*
%TO.P,J2,A5*%
%TO.N,/USB_CC1*%
X117870000Y-106625000D03*
%TO.P,J2,A6*%
%TO.N,/USB_D+*%
X117020000Y-106625000D03*
%TO.P,J2,A7*%
%TO.N,/USB_D-*%
X116170000Y-106625000D03*
%TO.P,J2,A8*%
%TO.N,unconnected-(J2-SBU1-PadA8)*%
X115320000Y-106625000D03*
%TO.P,J2,A9*%
%TO.N,VBUS*%
X114470000Y-106625000D03*
%TO.P,J2,A12*%
%TO.N,GND*%
X113620000Y-106625000D03*
%TO.P,J2,B1*%
X113620000Y-105275000D03*
%TO.P,J2,B4*%
%TO.N,VBUS*%
X114470000Y-105275000D03*
%TO.P,J2,B5*%
%TO.N,/USB_CC2*%
X115320000Y-105275000D03*
%TO.P,J2,B6*%
%TO.N,/USB_D+*%
X116170000Y-105275000D03*
%TO.P,J2,B7*%
%TO.N,/USB_D-*%
X117020000Y-105275000D03*
%TO.P,J2,B8*%
%TO.N,unconnected-(J2-SBU2-PadB8)*%
X117870000Y-105275000D03*
%TO.P,J2,B9*%
%TO.N,VBUS*%
X118720000Y-105275000D03*
%TO.P,J2,B12*%
%TO.N,GND*%
X119570000Y-105275000D03*
D11*
%TO.P,J2,SH*%
X120920000Y-105645000D03*
D12*
X120920000Y-102265000D03*
D11*
X112270000Y-105645000D03*
D12*
X112270000Y-102265000D03*
%TD*%
D13*
%TO.P,J3,1*%
%TO.N,+3.3V*%
X102470000Y-102970000D03*
D14*
%TO.P,J3,2*%
%TO.N,GND*%
X105010000Y-102970000D03*
%TO.P,J3,3*%
%TO.N,/PA9*%
X102470000Y-105510000D03*
%TO.P,J3,4*%
%TO.N,/PA10*%
X105010000Y-105510000D03*
%TO.P,J3,5*%
%TO.N,/PA8*%
X102470000Y-108050000D03*
%TO.P,J3,6*%
%TO.N,/PA15*%
X105010000Y-108050000D03*
%TO.P,J3,7*%
%TO.N,/PA13*%
X102470000Y-110590000D03*
%TO.P,J3,8*%
%TO.N,/PA14*%
X105010000Y-110590000D03*
%TO.P,J3,9*%
%TO.N,/PB3*%
X102470000Y-113130000D03*
%TO.P,J3,10*%
%TO.N,/NRST*%
X105010000Y-113130000D03*
%TO.P,J3,11*%
%TO.N,/PB4*%
X102470000Y-115670000D03*
%TO.P,J3,12*%
%TO.N,/PB5*%
X105010000Y-115670000D03*
%TO.P,J3,13*%
%TO.N,/PB6*%
X102470000Y-118210000D03*
%TO.P,J3,14*%
%TO.N,/PB7*%
X105010000Y-118210000D03*
%TO.P,J3,15*%
%TO.N,/PB8*%
X102470000Y-120750000D03*
%TO.P,J3,16*%
%TO.N,/PB9*%
X105010000Y-120750000D03*
%TO.P,J3,17*%
%TO.N,/PC13*%
X102470000Y-123290000D03*
%TO.P,J3,18*%
%TO.N,/PC14*%
X105010000Y-123290000D03*
%TO.P,J3,19*%
%TO.N,/PC15*%
X102470000Y-125830000D03*
%TO.P,J3,20*%
%TO.N,GND*%
X105010000Y-125830000D03*
%TD*%
D13*
%TO.P,J1,1*%
%TO.N,+5V*%
X128180000Y-102970000D03*
D14*
%TO.P,J1,2*%
%TO.N,GND*%
X130720000Y-102970000D03*
%TO.P,J1,3*%
%TO.N,/PB15*%
X128180000Y-105510000D03*
%TO.P,J1,4*%
%TO.N,/PB14*%
X130720000Y-105510000D03*
%TO.P,J1,5*%
%TO.N,/PB13*%
X128180000Y-108050000D03*
%TO.P,J1,6*%
%TO.N,/PB12*%
X130720000Y-108050000D03*
%TO.P,J1,7*%
%TO.N,/PB11*%
X128180000Y-110590000D03*
%TO.P,J1,8*%
%TO.N,/PB10*%
X130720000Y-110590000D03*
%TO.P,J1,9*%
%TO.N,/PB2*%
X128180000Y-113130000D03*
%TO.P,J1,10*%
%TO.N,/PB1*%
X130720000Y-113130000D03*
%TO.P,J1,11*%
%TO.N,/PB0*%
X128180000Y-115670000D03*
%TO.P,J1,12*%
%TO.N,/PA7*%
X130720000Y-115670000D03*
%TO.P,J1,13*%
%TO.N,/PA6*%
X128180000Y-118210000D03*
%TO.P,J1,14*%
%TO.N,/PA5*%
X130720000Y-118210000D03*
%TO.P,J1,15*%
%TO.N,/PA4*%
X128180000Y-120750000D03*
%TO.P,J1,16*%
%TO.N,/PA3*%
X130720000Y-120750000D03*
%TO.P,J1,17*%
%TO.N,/PA2*%
X128180000Y-123290000D03*
%TO.P,J1,18*%
%TO.N,/PA1*%
X130720000Y-123290000D03*
%TO.P,J1,19*%
%TO.N,/PA0*%
X128180000Y-125830000D03*
%TO.P,J1,20*%
%TO.N,+3.3V*%
X130720000Y-125830000D03*
%TD*%
D15*
%TO.N,GND*%
X112204999Y-100774999D03*
X104584999Y-100774999D03*
X124904999Y-103314999D03*
X103314999Y-127444999D03*
X107124999Y-100774999D03*
X114744999Y-100774999D03*
X113474999Y-103314999D03*
X118554999Y-100774999D03*
X121094999Y-124904999D03*
X124904999Y-121094999D03*
X127444999Y-100774999D03*
X117284999Y-103314999D03*
X112885200Y-111297900D03*
X100774999Y-100774999D03*
X129984999Y-100774999D03*
X112204999Y-107124999D03*
X126174999Y-127444999D03*
X119824999Y-100774999D03*
X118554999Y-103314999D03*
X126174999Y-100774999D03*
X122364999Y-123634999D03*
X102044999Y-100774999D03*
X128714999Y-127444999D03*
X110934999Y-103314999D03*
X124904999Y-100774999D03*
X103314999Y-100774999D03*
X114744999Y-103314999D03*
X100774999Y-127444999D03*
X117284999Y-100774999D03*
X107124999Y-127444999D03*
X116014999Y-103314999D03*
X121094999Y-100774999D03*
X131254999Y-100774999D03*
X113474999Y-100774999D03*
X122364999Y-100774999D03*
X110999600Y-122832500D03*
X104584999Y-127444999D03*
X116014999Y-100774999D03*
X128714999Y-100774999D03*
X105854999Y-100774999D03*
X105854999Y-127444999D03*
X127444999Y-127444999D03*
X114744999Y-122364999D03*
X109664999Y-124904999D03*
X119824999Y-103314999D03*
X122364999Y-103314999D03*
X110934999Y-100774999D03*
%TO.N,+3.3V*%
X114376400Y-125502500D03*
X123214400Y-106087200D03*
X115820100Y-113988700D03*
X121163200Y-108068300D03*
X125338500Y-119412600D03*
X112350500Y-121835900D03*
%TO.N,/PC13*%
X113783400Y-119190800D03*
X109350900Y-106011100D03*
%TO.N,/PC14*%
X114836200Y-119187200D03*
%TO.N,/PC15*%
X115920600Y-119126100D03*
%TO.N,/NRST*%
X123596000Y-114487800D03*
X119615000Y-123800000D03*
X116845100Y-119191100D03*
%TO.N,+3.3VA*%
X117845000Y-119188800D03*
X119952800Y-119711900D03*
X119186000Y-124426700D03*
%TO.N,/PA0*%
X119415600Y-119114800D03*
X126455400Y-118614300D03*
%TO.N,/PA1*%
X121539100Y-121424500D03*
%TO.N,/PA2*%
X122064200Y-120362500D03*
%TO.N,/PA3*%
X122843800Y-118950000D03*
%TO.N,/PA4*%
X127123300Y-119159000D03*
X119514600Y-118282400D03*
%TO.N,/PA5*%
X121939500Y-117256400D03*
%TO.N,/PA6*%
X119579000Y-117450000D03*
%TO.N,/PA7*%
X124855200Y-116369400D03*
%TO.N,/PB0*%
X119572600Y-116594500D03*
%TO.N,/PB1*%
X118996300Y-115808000D03*
%TO.N,/PB2*%
X121939000Y-115305500D03*
%TO.N,/PB10*%
X119574700Y-114950000D03*
%TO.N,/PB11*%
X119244100Y-114222600D03*
%TO.N,/PB12*%
X120123200Y-112463800D03*
%TO.N,/PB13*%
X120187800Y-110889100D03*
%TO.N,/PB14*%
X118345000Y-113208900D03*
%TO.N,/PB15*%
X118295300Y-110867100D03*
%TO.N,/PA8*%
X117345000Y-113230100D03*
%TO.N,/PA9*%
X114153600Y-113733500D03*
%TO.N,/PA10*%
X113619400Y-113221200D03*
%TO.N,/USB_D-*%
X116440900Y-110810100D03*
%TO.N,/PA13*%
X112778100Y-110563200D03*
%TO.N,/PA14*%
X111840100Y-112860400D03*
%TO.N,/PB3*%
X110494700Y-113388400D03*
%TO.N,/PB4*%
X110894900Y-114698000D03*
%TO.N,/PB5*%
X113615500Y-115677600D03*
%TO.N,/PB6*%
X114780900Y-126175200D03*
X108431500Y-119716300D03*
X110660000Y-116598200D03*
%TO.N,/PB7*%
X113611800Y-116450000D03*
%TO.N,/PB8*%
X113603800Y-117433700D03*
%TO.N,/PB9*%
X110384700Y-117756400D03*
%TO.N,VBUS*%
X115442700Y-109416700D03*
X125260800Y-105660800D03*
%TD*%
%TO.N,GND*%
D16*
X113620000Y-106625000D02*
X113620000Y-105275000D01*
X105010000Y-125830000D02*
X108002100Y-125830000D01*
X119570000Y-106625000D02*
X119570000Y-105275000D01*
X113620000Y-110563100D02*
X112885200Y-111297900D01*
X113620000Y-106625000D02*
X113620000Y-110563100D01*
X108002100Y-125830000D02*
X110999600Y-122832500D01*
X112270000Y-102265000D02*
X112270000Y-105645000D01*
%TO.N,+3.3V*%
D17*
X115820100Y-112442800D02*
X120194600Y-108068300D01*
X125338500Y-119573000D02*
X122017700Y-119573000D01*
X120194600Y-108068300D02*
X121163200Y-108068300D01*
X127821300Y-122055800D02*
X125338500Y-119573000D01*
X120711700Y-124156800D02*
X118078600Y-126789900D01*
X115820100Y-113988700D02*
X115820100Y-112442800D01*
X114157900Y-126392900D02*
X114157900Y-125721000D01*
X121233300Y-108068300D02*
X121163200Y-108068300D01*
X114554900Y-126789900D02*
X114157900Y-126392900D01*
X114376400Y-125502500D02*
X114376400Y-123861800D01*
X130720000Y-125830000D02*
X129468700Y-124578700D01*
X114157900Y-125721000D02*
X114376400Y-125502500D01*
X129468700Y-124578700D02*
X129468700Y-122977500D01*
X118078600Y-126789900D02*
X114554900Y-126789900D01*
X123214400Y-106087200D02*
X121233300Y-108068300D01*
X122017700Y-119573000D02*
X120711700Y-120879000D01*
X120711700Y-120879000D02*
X120711700Y-124156800D01*
X114376400Y-123861800D02*
X112350500Y-121835900D01*
X128547000Y-122055800D02*
X127821300Y-122055800D01*
X129468700Y-122977500D02*
X128547000Y-122055800D01*
X125338500Y-119573000D02*
X125338500Y-119412600D01*
%TO.N,/PC13*%
D18*
X101885400Y-104138400D02*
X101077200Y-104946600D01*
X108621400Y-124352800D02*
X103532800Y-124352800D01*
X109350900Y-106011100D02*
X107478200Y-104138400D01*
X103532800Y-124352800D02*
X102470000Y-123290000D01*
X107478200Y-104138400D02*
X101885400Y-104138400D01*
X103532800Y-126270900D02*
X103532800Y-124352800D01*
X113783400Y-119190800D02*
X108621400Y-124352800D01*
X102901500Y-126902200D02*
X103532800Y-126270900D01*
X101077200Y-104946600D02*
X101077200Y-126002100D01*
X101977300Y-126902200D02*
X102901500Y-126902200D01*
X101077200Y-126002100D02*
X101977300Y-126902200D01*
%TO.N,/PC14*%
X114331000Y-118682000D02*
X112552700Y-118682000D01*
X107944700Y-123290000D02*
X105010000Y-123290000D01*
X114836200Y-119187200D02*
X114331000Y-118682000D01*
X112552700Y-118682000D02*
X107944700Y-123290000D01*
%TO.N,/PC15*%
X110865800Y-116049900D02*
X112926200Y-118110300D01*
X102470000Y-125830000D02*
X101386900Y-124746900D01*
X102211200Y-122020000D02*
X102726800Y-122020000D01*
X102726800Y-122020000D02*
X103740000Y-121006800D01*
X101386900Y-124746900D02*
X101386900Y-122844300D01*
X110220300Y-116049900D02*
X110865800Y-116049900D01*
X106621300Y-119648900D02*
X110220300Y-116049900D01*
X112926200Y-118110300D02*
X115002000Y-118110300D01*
X101386900Y-122844300D02*
X102211200Y-122020000D01*
X115920600Y-119028900D02*
X115920600Y-119126100D01*
X103740000Y-121006800D02*
X103740000Y-120490000D01*
X103740000Y-120490000D02*
X104581100Y-119648900D01*
X115002000Y-118110300D02*
X115920600Y-119028900D01*
X104581100Y-119648900D02*
X106621300Y-119648900D01*
%TO.N,/NRST*%
X116845100Y-117216700D02*
X118775900Y-115285900D01*
X105010000Y-113130000D02*
X105937200Y-114057200D01*
X119385400Y-115477600D02*
X119876100Y-115477600D01*
X116845100Y-119191100D02*
X116845100Y-117216700D01*
X122262500Y-115821300D02*
X123596000Y-114487800D01*
X115871400Y-117216700D02*
X116845100Y-117216700D01*
X105937200Y-114057200D02*
X112711900Y-114057200D01*
X120219800Y-115821300D02*
X122262500Y-115821300D01*
X119876100Y-115477600D02*
X120219800Y-115821300D01*
X118775900Y-115285900D02*
X119193700Y-115285900D01*
X119615000Y-121961000D02*
X119615000Y-123800000D01*
X119193700Y-115285900D02*
X119385400Y-115477600D01*
X112711900Y-114057200D02*
X115871400Y-117216700D01*
X116845100Y-119191100D02*
X119615000Y-121961000D01*
%TO.N,+3.3VA*%
D17*
X120210400Y-124047600D02*
X119831300Y-124426700D01*
X117845000Y-119188800D02*
X118368100Y-119711900D01*
X119831300Y-124426700D02*
X119186000Y-124426700D01*
X119952800Y-119711900D02*
X120210400Y-119969500D01*
X118368100Y-119711900D02*
X119952800Y-119711900D01*
X120210400Y-119969500D02*
X120210400Y-124047600D01*
%TO.N,/PA0*%
D18*
X119415600Y-119114800D02*
X120101600Y-118428800D01*
X126269900Y-118428800D02*
X126455400Y-118614300D01*
X120101600Y-118428800D02*
X126269900Y-118428800D01*
%TO.N,/PA1*%
X129629200Y-125757000D02*
X129629200Y-126242800D01*
X131831600Y-126272600D02*
X131831600Y-124401600D01*
X121539100Y-121424500D02*
X124752900Y-124638300D01*
X124752900Y-124638300D02*
X128510500Y-124638300D01*
X128510500Y-124638300D02*
X129629200Y-125757000D01*
X130291700Y-126905300D02*
X131198900Y-126905300D01*
X129629200Y-126242800D02*
X130291700Y-126905300D01*
X131198900Y-126905300D02*
X131831600Y-126272600D01*
X131831600Y-124401600D02*
X130720000Y-123290000D01*
%TO.N,/PA2*%
X128180000Y-123290000D02*
X124991700Y-123290000D01*
X124991700Y-123290000D02*
X122064200Y-120362500D01*
%TO.N,/PA3*%
X129635700Y-119665700D02*
X130720000Y-120750000D01*
X126790100Y-119665700D02*
X129635700Y-119665700D01*
X122894100Y-118899700D02*
X126024100Y-118899700D01*
X126024100Y-118899700D02*
X126790100Y-119665700D01*
X122843800Y-118950000D02*
X122894100Y-118899700D01*
%TO.N,/PA4*%
X119514600Y-118282400D02*
X119711200Y-118085800D01*
X127123300Y-118528200D02*
X127123300Y-119159000D01*
X126680900Y-118085800D02*
X127123300Y-118528200D01*
X119711200Y-118085800D02*
X126680900Y-118085800D01*
%TO.N,/PA5*%
X130720000Y-118210000D02*
X129612300Y-117102300D01*
X129612300Y-117102300D02*
X122093600Y-117102300D01*
X122093600Y-117102300D02*
X121939500Y-117256400D01*
%TO.N,/PA6*%
X127733300Y-117763300D02*
X119892300Y-117763300D01*
X128180000Y-118210000D02*
X127733300Y-117763300D01*
X119892300Y-117763300D02*
X119579000Y-117450000D01*
%TO.N,/PA7*%
X130720000Y-115670000D02*
X129616400Y-116773600D01*
X129616400Y-116773600D02*
X125259400Y-116773600D01*
X125259400Y-116773600D02*
X124855200Y-116369400D01*
%TO.N,/PB0*%
X124428100Y-115670000D02*
X123503600Y-116594500D01*
X123503600Y-116594500D02*
X119572600Y-116594500D01*
X128180000Y-115670000D02*
X124428100Y-115670000D01*
%TO.N,/PB1*%
X119668100Y-115808000D02*
X119963100Y-116103000D01*
X118996300Y-115808000D02*
X119668100Y-115808000D01*
X123456800Y-116103000D02*
X125159800Y-114400000D01*
X125159800Y-114400000D02*
X129450000Y-114400000D01*
X129450000Y-114400000D02*
X130720000Y-113130000D01*
X119963100Y-116103000D02*
X123456800Y-116103000D01*
%TO.N,/PB2*%
X121939000Y-115305500D02*
X124114500Y-113130000D01*
X124114500Y-113130000D02*
X128180000Y-113130000D01*
%TO.N,/PB10*%
X122647100Y-111877600D02*
X119574700Y-114950000D01*
X130720000Y-110590000D02*
X129432500Y-111877500D01*
X129432500Y-111877500D02*
X129432500Y-111877600D01*
X129432500Y-111877600D02*
X122647100Y-111877600D01*
%TO.N,/PB11*%
X119244100Y-114222600D02*
X122876700Y-110590000D01*
X122876700Y-110590000D02*
X128180000Y-110590000D01*
%TO.N,/PB12*%
X123364700Y-109222300D02*
X129547700Y-109222300D01*
X129547700Y-109222300D02*
X130720000Y-108050000D01*
X120123200Y-112463800D02*
X123364700Y-109222300D01*
%TO.N,/PB13*%
X120187800Y-110889100D02*
X120586300Y-110889100D01*
X127898300Y-108331700D02*
X128180000Y-108050000D01*
X120586300Y-110889100D02*
X123143700Y-108331700D01*
X123143700Y-108331700D02*
X127898300Y-108331700D01*
%TO.N,/PB14*%
X122828800Y-108050000D02*
X120911100Y-109967700D01*
X129450000Y-106780000D02*
X127780800Y-106780000D01*
X120320200Y-109967700D02*
X118345000Y-111942900D01*
X120911100Y-109967700D02*
X120320200Y-109967700D01*
X126510800Y-108050000D02*
X122828800Y-108050000D01*
X118345000Y-111942900D02*
X118345000Y-113208900D01*
X127780800Y-106780000D02*
X126510800Y-108050000D01*
X130720000Y-105510000D02*
X129450000Y-106780000D01*
%TO.N,/PB15*%
X118295300Y-110867100D02*
X120425000Y-108737400D01*
X120425000Y-108737400D02*
X121716100Y-108737400D01*
X125978400Y-107711600D02*
X128180000Y-105510000D01*
X121716100Y-108737400D02*
X122741900Y-107711600D01*
X122741900Y-107711600D02*
X125978400Y-107711600D01*
%TO.N,/PA8*%
X112503600Y-112779400D02*
X112503600Y-113339700D01*
X116079700Y-114495400D02*
X117345000Y-113230100D01*
X109044200Y-109320000D02*
X112503600Y-112779400D01*
X102470000Y-108050000D02*
X103740000Y-109320000D01*
X112503600Y-113339700D02*
X113659300Y-114495400D01*
X113659300Y-114495400D02*
X116079700Y-114495400D01*
X103740000Y-109320000D02*
X109044200Y-109320000D01*
%TO.N,/PA9*%
X103740000Y-106780000D02*
X102470000Y-105510000D01*
X113351400Y-113733500D02*
X112884200Y-113266300D01*
X112884200Y-113266300D02*
X112884200Y-112761500D01*
X114153600Y-113733500D02*
X113351400Y-113733500D01*
X106902700Y-106780000D02*
X103740000Y-106780000D01*
X112884200Y-112761500D02*
X106902700Y-106780000D01*
%TO.N,/PA10*%
X113619400Y-113221200D02*
X113619400Y-113098200D01*
X106031200Y-105510000D02*
X105010000Y-105510000D01*
X113619400Y-113098200D02*
X106031200Y-105510000D01*
%TO.N,/USB_D-*%
X116170000Y-110539200D02*
X116440900Y-110810100D01*
X116170000Y-106625000D02*
X116170000Y-110539200D01*
%TO.N,/USB_D+*%
X117020000Y-106125000D02*
X116170000Y-105275000D01*
X117020000Y-106625000D02*
X117020000Y-106125000D01*
%TO.N,/PA13*%
X102470000Y-110590000D02*
X101364700Y-109484700D01*
X106638900Y-104424000D02*
X112778100Y-110563200D01*
X101364700Y-109484700D02*
X101364700Y-105058300D01*
X101999000Y-104424000D02*
X106638900Y-104424000D01*
X101364700Y-105058300D02*
X101999000Y-104424000D01*
%TO.N,/PA14*%
X105010000Y-110590000D02*
X109569700Y-110590000D01*
X109569700Y-110590000D02*
X111840100Y-112860400D01*
%TO.N,/PB3*%
X103550600Y-112049400D02*
X109155700Y-112049400D01*
X109155700Y-112049400D02*
X110494700Y-113388400D01*
X102470000Y-113130000D02*
X103550600Y-112049400D01*
%TO.N,/PB4*%
X110800400Y-114603500D02*
X110894900Y-114698000D01*
X103536500Y-114603500D02*
X110800400Y-114603500D01*
X102470000Y-115670000D02*
X103536500Y-114603500D01*
%TO.N,/PB5*%
X110575600Y-115204800D02*
X110456500Y-115085700D01*
X110456500Y-115085700D02*
X105594300Y-115085700D01*
X113142700Y-115204800D02*
X110575600Y-115204800D01*
X105594300Y-115085700D02*
X105010000Y-115670000D01*
X113615500Y-115677600D02*
X113142700Y-115204800D01*
%TO.N,/PB6*%
X108431500Y-118826700D02*
X108431500Y-119716300D01*
X115402300Y-125553800D02*
X114780900Y-126175200D01*
X115402300Y-118989700D02*
X115402300Y-125553800D01*
X112453800Y-118392000D02*
X114804600Y-118392000D01*
X110660000Y-116598200D02*
X112453800Y-118392000D01*
X110660000Y-116598200D02*
X108431500Y-118826700D01*
X114804600Y-118392000D02*
X115402300Y-118989700D01*
%TO.N,/PB7*%
X106362100Y-118210000D02*
X105010000Y-118210000D01*
X109085600Y-115486500D02*
X106362100Y-118210000D01*
X112648300Y-115486500D02*
X109085600Y-115486500D01*
X113611800Y-116450000D02*
X112648300Y-115486500D01*
%TO.N,/PB8*%
X106395600Y-119336200D02*
X109963600Y-115768200D01*
X111938300Y-115768200D02*
X113603800Y-117433700D01*
X103883800Y-119336200D02*
X106395600Y-119336200D01*
X109963600Y-115768200D02*
X111938300Y-115768200D01*
X102470000Y-120750000D02*
X103883800Y-119336200D01*
%TO.N,/PB9*%
X105010000Y-120750000D02*
X108142100Y-120750000D01*
X110384700Y-118507400D02*
X110384700Y-117756400D01*
X108142100Y-120750000D02*
X110384700Y-118507400D01*
%TO.N,VBUS*%
D17*
X123735200Y-104135200D02*
X119779000Y-104135200D01*
X114470000Y-108444000D02*
X114470000Y-106625000D01*
X118720000Y-105275000D02*
X118720000Y-106625000D01*
X118720000Y-105194200D02*
X118720000Y-105275000D01*
X125260800Y-105660800D02*
X123735200Y-104135200D01*
X119779000Y-104135200D02*
X118720000Y-105194200D01*
X115442700Y-109416700D02*
X114470000Y-108444000D01*
X114470000Y-105275000D02*
X114470000Y-106625000D01*
%TD*%
%TA.AperFunction,Conductor*%
%TO.N,GND*%
G36*
X114384410Y-119410005D02*
G01*
X114396575Y-119426749D01*
X114435696Y-119494509D01*
X114435698Y-119494511D01*
X114435700Y-119494514D01*
X114528886Y-119587700D01*
X114528888Y-119587701D01*
X114528890Y-119587703D01*
X114643010Y-119653590D01*
X114643008Y-119653590D01*
X114643012Y-119653591D01*
X114643014Y-119653592D01*
X114770308Y-119687700D01*
X114770310Y-119687700D01*
X114902090Y-119687700D01*
X114902092Y-119687700D01*
X115002178Y-119660882D01*
X115063279Y-119664085D01*
X115110828Y-119702590D01*
X115126800Y-119756509D01*
X115126800Y-125398676D01*
X115107893Y-125456867D01*
X115097804Y-125468680D01*
X115045904Y-125520580D01*
X114991387Y-125548357D01*
X114930955Y-125538786D01*
X114887690Y-125495521D01*
X114876900Y-125450576D01*
X114876900Y-125436609D01*
X114848978Y-125332402D01*
X114842792Y-125309314D01*
X114842790Y-125309311D01*
X114842790Y-125309309D01*
X114776903Y-125195190D01*
X114776898Y-125195184D01*
X114755895Y-125174180D01*
X114728119Y-125119663D01*
X114726900Y-125104178D01*
X114726900Y-123815657D01*
X114725592Y-123810775D01*
X114703014Y-123726512D01*
X114656869Y-123646588D01*
X114636895Y-123626614D01*
X114591612Y-123581330D01*
X114591612Y-123581331D01*
X112879996Y-121869714D01*
X112852219Y-121815197D01*
X112851000Y-121799710D01*
X112851000Y-121770009D01*
X112850999Y-121770005D01*
X112816892Y-121642714D01*
X112816890Y-121642711D01*
X112816890Y-121642709D01*
X112751003Y-121528590D01*
X112751001Y-121528588D01*
X112751000Y-121528586D01*
X112657814Y-121435400D01*
X112657811Y-121435398D01*
X112657809Y-121435396D01*
X112543689Y-121369509D01*
X112543691Y-121369509D01*
X112494299Y-121356275D01*
X112416392Y-121335400D01*
X112284608Y-121335400D01*
X112284606Y-121335400D01*
X112278716Y-121336175D01*
X112218556Y-121325021D01*
X112176441Y-121280636D01*
X112168459Y-121219973D01*
X112195794Y-121168020D01*
X113643519Y-119720296D01*
X113698036Y-119692519D01*
X113713523Y-119691300D01*
X113849290Y-119691300D01*
X113849292Y-119691300D01*
X113976586Y-119657192D01*
X113976588Y-119657190D01*
X113976590Y-119657190D01*
X114090709Y-119591303D01*
X114090709Y-119591302D01*
X114090714Y-119591300D01*
X114183900Y-119498114D01*
X114225103Y-119426747D01*
X114270572Y-119385808D01*
X114331422Y-119379412D01*
X114384410Y-119410005D01*
G37*
%TD.AperFunction*%
%TA.AperFunction,Conductor*%
G36*
X125210501Y-119942407D02*
G01*
X125222314Y-119952496D01*
X127540831Y-122271012D01*
X127540830Y-122271012D01*
X127565015Y-122295196D01*
X127592794Y-122349712D01*
X127583224Y-122410144D01*
X127550016Y-122447515D01*
X127510345Y-122474023D01*
X127510341Y-122474026D01*
X127510336Y-122474030D01*
X127364022Y-122620345D01*
X127249058Y-122792402D01*
X127182377Y-122953386D01*
X127142640Y-122999911D01*
X127090913Y-123014500D01*
X125146824Y-123014500D01*
X125088633Y-122995593D01*
X125076820Y-122985504D01*
X122593696Y-120502380D01*
X122565919Y-120447863D01*
X122564700Y-120432376D01*
X122564700Y-120296609D01*
X122564700Y-120296608D01*
X122530592Y-120169314D01*
X122530590Y-120169311D01*
X122530590Y-120169309D01*
X122474408Y-120072000D01*
X122461686Y-120012152D01*
X122486572Y-119956256D01*
X122539560Y-119925663D01*
X122560144Y-119923500D01*
X125152310Y-119923500D01*
X125210501Y-119942407D01*
G37*
%TD.AperFunction*%
%TA.AperFunction,Conductor*%
G36*
X132697696Y-100201719D02*
G01*
X132767064Y-100212706D01*
X132796521Y-100222277D01*
X132852068Y-100250579D01*
X132877128Y-100268785D01*
X132921214Y-100312871D01*
X132939420Y-100337931D01*
X132967722Y-100393478D01*
X132977293Y-100422933D01*
X132988281Y-100492301D01*
X132989500Y-100507790D01*
X132989500Y-128292208D01*
X132988281Y-128307696D01*
X132977294Y-128377062D01*
X132967722Y-128406520D01*
X132939418Y-128462069D01*
X132921213Y-128487127D01*
X132877127Y-128531213D01*
X132852069Y-128549418D01*
X132796520Y-128577722D01*
X132767062Y-128587294D01*
X132731842Y-128592872D01*
X132697694Y-128598281D01*
X132682208Y-128599500D01*
X100507791Y-128599500D01*
X100492304Y-128598281D01*
X100481777Y-128596613D01*
X100422934Y-128587293D01*
X100393478Y-128577722D01*
X100337931Y-128549420D01*
X100312871Y-128531214D01*
X100268785Y-128487128D01*
X100250579Y-128462068D01*
X100222277Y-128406521D01*
X100212706Y-128377064D01*
X100201719Y-128307696D01*
X100200500Y-128292209D01*
X100200500Y-104891800D01*
X100801700Y-104891800D01*
X100801700Y-126056900D01*
X100828003Y-126120400D01*
X100828003Y-126120401D01*
X100843641Y-126158155D01*
X100843642Y-126158156D01*
X100843643Y-126158158D01*
X101821242Y-127135758D01*
X101821243Y-127135758D01*
X101821244Y-127135759D01*
X101922498Y-127177700D01*
X101922500Y-127177700D01*
X102956299Y-127177700D01*
X102956300Y-127177700D01*
X103057558Y-127135757D01*
X103096309Y-127097005D01*
X103135058Y-127058258D01*
X103432374Y-126760941D01*
X103549606Y-126643709D01*
X108179500Y-126643709D01*
X108179500Y-126856290D01*
X108212752Y-127066238D01*
X108278443Y-127268412D01*
X108374948Y-127457815D01*
X108374950Y-127457819D01*
X108499891Y-127629786D01*
X108499893Y-127629788D01*
X108499896Y-127629792D01*
X108650208Y-127780104D01*
X108650211Y-127780106D01*
X108650213Y-127780108D01*
X108822180Y-127905049D01*
X108822184Y-127905051D01*
X109011588Y-128001557D01*
X109213757Y-128067246D01*
X109213758Y-128067246D01*
X109213761Y-128067247D01*
X109423710Y-128100500D01*
X109423713Y-128100500D01*
X109636290Y-128100500D01*
X109846238Y-128067247D01*
X109846239Y-128067246D01*
X109846243Y-128067246D01*
X110048412Y-128001557D01*
X110237816Y-127905051D01*
X110409792Y-127780104D01*
X110560104Y-127629792D01*
X110685051Y-127457816D01*
X110781557Y-127268412D01*
X110847246Y-127066243D01*
X110876665Y-126880500D01*
X110880500Y-126856290D01*
X110880500Y-126643709D01*
X110847247Y-126433761D01*
X110839122Y-126408754D01*
X110781557Y-126231588D01*
X110685051Y-126042184D01*
X110685049Y-126042180D01*
X110560108Y-125870213D01*
X110560106Y-125870211D01*
X110560104Y-125870208D01*
X110409792Y-125719896D01*
X110409788Y-125719893D01*
X110409786Y-125719891D01*
X110237819Y-125594950D01*
X110237815Y-125594948D01*
X110048412Y-125498443D01*
X109846238Y-125432752D01*
X109636290Y-125399500D01*
X109636287Y-125399500D01*
X109423713Y-125399500D01*
X109423710Y-125399500D01*
X109213761Y-125432752D01*
X109011587Y-125498443D01*
X108822184Y-125594948D01*
X108822180Y-125594950D01*
X108650213Y-125719891D01*
X108499891Y-125870213D01*
X108374950Y-126042180D01*
X108374948Y-126042184D01*
X108278443Y-126231587D01*
X108212752Y-126433761D01*
X108179500Y-126643709D01*
X103549606Y-126643709D01*
X103766357Y-126426958D01*
X103773896Y-126408757D01*
X103808300Y-126325700D01*
X103808300Y-124727300D01*
X103827207Y-124669109D01*
X103876707Y-124633145D01*
X103907300Y-124628300D01*
X108676199Y-124628300D01*
X108676200Y-124628300D01*
X108777458Y-124586357D01*
X108854957Y-124508858D01*
X108854956Y-124508858D01*
X111682620Y-121681194D01*
X111737134Y-121653419D01*
X111797566Y-121662990D01*
X111840831Y-121706255D01*
X111850775Y-121764116D01*
X111850000Y-121770005D01*
X111850000Y-121770008D01*
X111850000Y-121901792D01*
X111853671Y-121915491D01*
X111884109Y-122029090D01*
X111949996Y-122143209D01*
X111949998Y-122143211D01*
X111950000Y-122143214D01*
X112043186Y-122236400D01*
X112043188Y-122236401D01*
X112043190Y-122236403D01*
X112157310Y-122302290D01*
X112157308Y-122302290D01*
X112157312Y-122302291D01*
X112157314Y-122302292D01*
X112284608Y-122336400D01*
X112314310Y-122336400D01*
X112372501Y-122355307D01*
X112384314Y-122365396D01*
X113996904Y-123977985D01*
X114024681Y-124032502D01*
X114025900Y-124047989D01*
X114025900Y-125104178D01*
X114006993Y-125162369D01*
X113996905Y-125174180D01*
X113975901Y-125195184D01*
X113975896Y-125195190D01*
X113910009Y-125309309D01*
X113875900Y-125436609D01*
X113875900Y-125481910D01*
X113862638Y-125531408D01*
X113841286Y-125568392D01*
X113836286Y-125577052D01*
X113831286Y-125585711D01*
X113825153Y-125608599D01*
X113807400Y-125674856D01*
X113807400Y-126439044D01*
X113813981Y-126463607D01*
X113823640Y-126499655D01*
X113825383Y-126506157D01*
X113831286Y-126528188D01*
X113877430Y-126608112D01*
X114339688Y-127070370D01*
X114419612Y-127116514D01*
X114508756Y-127140400D01*
X114508758Y-127140400D01*
X118124742Y-127140400D01*
X118124744Y-127140400D01*
X118213888Y-127116514D01*
X118293812Y-127070370D01*
X118720473Y-126643709D01*
X122309500Y-126643709D01*
X122309500Y-126856290D01*
X122342752Y-127066238D01*
X122408443Y-127268412D01*
X122504948Y-127457815D01*
X122504950Y-127457819D01*
X122629891Y-127629786D01*
X122629893Y-127629788D01*
X122629896Y-127629792D01*
X122780208Y-127780104D01*
X122780211Y-127780106D01*
X122780213Y-127780108D01*
X122952180Y-127905049D01*
X122952184Y-127905051D01*
X123141588Y-128001557D01*
X123343757Y-128067246D01*
X123343758Y-128067246D01*
X123343761Y-128067247D01*
X123553710Y-128100500D01*
X123553713Y-128100500D01*
X123766290Y-128100500D01*
X123976238Y-128067247D01*
X123976239Y-128067246D01*
X123976243Y-128067246D01*
X124178412Y-128001557D01*
X124367816Y-127905051D01*
X124539792Y-127780104D01*
X124690104Y-127629792D01*
X124815051Y-127457816D01*
X124911557Y-127268412D01*
X124977246Y-127066243D01*
X125006665Y-126880500D01*
X125010500Y-126856290D01*
X125010500Y-126643709D01*
X124977247Y-126433761D01*
X124969122Y-126408754D01*
X124911557Y-126231588D01*
X124815051Y-126042184D01*
X124815049Y-126042180D01*
X124690108Y-125870213D01*
X124690106Y-125870211D01*
X124690104Y-125870208D01*
X124539792Y-125719896D01*
X124539788Y-125719893D01*
X124539786Y-125719891D01*
X124367819Y-125594950D01*
X124367815Y-125594948D01*
X124178412Y-125498443D01*
X123976238Y-125432752D01*
X123766290Y-125399500D01*
X123766287Y-125399500D01*
X123553713Y-125399500D01*
X123553710Y-125399500D01*
X123343761Y-125432752D01*
X123141587Y-125498443D01*
X122952184Y-125594948D01*
X122952180Y-125594950D01*
X122780213Y-125719891D01*
X122629891Y-125870213D01*
X122504950Y-126042180D01*
X122504948Y-126042184D01*
X122408443Y-126231587D01*
X122342752Y-126433761D01*
X122309500Y-126643709D01*
X118720473Y-126643709D01*
X120992170Y-124372012D01*
X121038314Y-124292088D01*
X121059693Y-124212299D01*
X121059694Y-124212299D01*
X121059694Y-124212293D01*
X121062200Y-124202944D01*
X121062200Y-121894421D01*
X121081107Y-121836230D01*
X121130607Y-121800266D01*
X121191793Y-121800266D01*
X121226342Y-121821438D01*
X121226640Y-121821051D01*
X121230322Y-121823876D01*
X121231201Y-121824415D01*
X121231786Y-121825000D01*
X121231788Y-121825001D01*
X121231790Y-121825003D01*
X121345910Y-121890890D01*
X121345908Y-121890890D01*
X121345912Y-121890891D01*
X121345914Y-121890892D01*
X121473208Y-121925000D01*
X121473210Y-121925000D01*
X121608977Y-121925000D01*
X121667168Y-121943907D01*
X121678980Y-121953995D01*
X124596842Y-124871858D01*
X124596843Y-124871858D01*
X124596844Y-124871859D01*
X124698098Y-124913800D01*
X124698100Y-124913800D01*
X127371561Y-124913800D01*
X127429752Y-124932707D01*
X127465716Y-124982207D01*
X127465716Y-125043393D01*
X127441566Y-125082801D01*
X127392700Y-125131668D01*
X127364020Y-125160348D01*
X127249058Y-125332402D01*
X127169869Y-125523581D01*
X127129500Y-125726532D01*
X127129500Y-125933467D01*
X127169869Y-126136418D01*
X127249058Y-126327597D01*
X127323524Y-126439044D01*
X127364023Y-126499655D01*
X127510345Y-126645977D01*
X127682402Y-126760941D01*
X127873580Y-126840130D01*
X128076535Y-126880500D01*
X128076536Y-126880500D01*
X128283464Y-126880500D01*
X128283465Y-126880500D01*
X128486420Y-126840130D01*
X128677598Y-126760941D01*
X128849655Y-126645977D01*
X128995977Y-126499655D01*
X129110941Y-126327598D01*
X129163236Y-126201346D01*
X129202972Y-126154821D01*
X129262467Y-126140537D01*
X129318995Y-126163952D01*
X129350965Y-126216121D01*
X129353700Y-126239232D01*
X129353700Y-126297600D01*
X129366126Y-126327598D01*
X129383021Y-126368386D01*
X129383021Y-126368387D01*
X129395641Y-126398855D01*
X129395642Y-126398856D01*
X129395643Y-126398858D01*
X130135641Y-127138857D01*
X130165295Y-127151139D01*
X130165297Y-127151141D01*
X130165298Y-127151141D01*
X130201099Y-127165970D01*
X130236900Y-127180800D01*
X130236901Y-127180800D01*
X131253699Y-127180800D01*
X131253700Y-127180800D01*
X131354958Y-127138857D01*
X131432457Y-127061358D01*
X132065157Y-126428658D01*
X132073400Y-126408757D01*
X132107100Y-126327400D01*
X132107100Y-124346800D01*
X132104490Y-124340500D01*
X132087922Y-124300500D01*
X132087922Y-124300499D01*
X132065158Y-124245542D01*
X131684908Y-123865291D01*
X131657131Y-123810775D01*
X131663447Y-123757404D01*
X131730130Y-123596420D01*
X131770500Y-123393465D01*
X131770500Y-123186535D01*
X131730130Y-122983580D01*
X131650941Y-122792402D01*
X131535977Y-122620345D01*
X131389655Y-122474023D01*
X131389651Y-122474020D01*
X131217597Y-122359058D01*
X131026418Y-122279869D01*
X130823467Y-122239500D01*
X130823465Y-122239500D01*
X130616535Y-122239500D01*
X130616532Y-122239500D01*
X130413581Y-122279869D01*
X130222402Y-122359058D01*
X130050348Y-122474020D01*
X129904020Y-122620348D01*
X129852163Y-122697959D01*
X129804113Y-122735839D01*
X129742975Y-122738241D01*
X129699845Y-122712963D01*
X128762212Y-121775330D01*
X128762209Y-121775328D01*
X128757623Y-121770742D01*
X128759731Y-121768633D01*
X128732037Y-121728382D01*
X128733608Y-121667217D01*
X128770830Y-121618656D01*
X128771864Y-121617954D01*
X128849655Y-121565977D01*
X128995977Y-121419655D01*
X129110941Y-121247598D01*
X129190130Y-121056420D01*
X129230500Y-120853465D01*
X129230500Y-120646535D01*
X129190130Y-120443580D01*
X129110941Y-120252402D01*
X129005902Y-120095199D01*
X128989295Y-120036313D01*
X129010473Y-119978910D01*
X129061347Y-119944917D01*
X129088219Y-119941200D01*
X129480578Y-119941200D01*
X129538769Y-119960107D01*
X129550582Y-119970197D01*
X129755091Y-120174707D01*
X129782868Y-120229223D01*
X129776551Y-120282595D01*
X129709870Y-120443578D01*
X129709870Y-120443580D01*
X129669500Y-120646532D01*
X129669500Y-120853467D01*
X129709869Y-121056418D01*
X129789058Y-121247597D01*
X129904020Y-121419651D01*
X129904023Y-121419655D01*
X130050345Y-121565977D01*
X130222402Y-121680941D01*
X130413580Y-121760130D01*
X130616535Y-121800500D01*
X130616536Y-121800500D01*
X130823464Y-121800500D01*
X130823465Y-121800500D01*
X131026420Y-121760130D01*
X131217598Y-121680941D01*
X131389655Y-121565977D01*
X131535977Y-121419655D01*
X131650941Y-121247598D01*
X131730130Y-121056420D01*
X131770500Y-120853465D01*
X131770500Y-120646535D01*
X131730130Y-120443580D01*
X131650941Y-120252402D01*
X131535977Y-120080345D01*
X131389655Y-119934023D01*
X131380816Y-119928117D01*
X131217597Y-119819058D01*
X131026418Y-119739869D01*
X130823467Y-119699500D01*
X130823465Y-119699500D01*
X130616535Y-119699500D01*
X130616532Y-119699500D01*
X130413580Y-119739870D01*
X130413578Y-119739870D01*
X130252595Y-119806551D01*
X130191598Y-119811351D01*
X130144707Y-119785091D01*
X129791757Y-119432141D01*
X129767547Y-119422114D01*
X129767546Y-119422114D01*
X129690500Y-119390200D01*
X129690499Y-119390200D01*
X128573540Y-119390200D01*
X128515349Y-119371293D01*
X128479385Y-119321793D01*
X128479385Y-119260607D01*
X128515349Y-119211107D01*
X128535650Y-119199737D01*
X128677598Y-119140941D01*
X128849655Y-119025977D01*
X128995977Y-118879655D01*
X129110941Y-118707598D01*
X129190130Y-118516420D01*
X129230500Y-118313465D01*
X129230500Y-118106535D01*
X129190130Y-117903580D01*
X129110941Y-117712402D01*
X128995977Y-117540345D01*
X128995976Y-117540344D01*
X128995972Y-117540338D01*
X128995370Y-117539604D01*
X128995211Y-117539199D01*
X128993275Y-117536301D01*
X128993910Y-117535876D01*
X128973070Y-117482627D01*
X128988519Y-117423425D01*
X129035816Y-117384609D01*
X129071898Y-117377800D01*
X129457178Y-117377800D01*
X129515369Y-117396707D01*
X129527182Y-117406797D01*
X129755091Y-117634707D01*
X129782868Y-117689223D01*
X129776551Y-117742595D01*
X129709870Y-117903578D01*
X129709870Y-117903580D01*
X129669500Y-118106532D01*
X129669500Y-118313467D01*
X129709869Y-118516418D01*
X129789058Y-118707597D01*
X129855804Y-118807490D01*
X129904023Y-118879655D01*
X130050345Y-119025977D01*
X130222402Y-119140941D01*
X130413580Y-119220130D01*
X130616535Y-119260500D01*
X130616536Y-119260500D01*
X130823464Y-119260500D01*
X130823465Y-119260500D01*
X131026420Y-119220130D01*
X131217598Y-119140941D01*
X131389655Y-119025977D01*
X131535977Y-118879655D01*
X131650941Y-118707598D01*
X131730130Y-118516420D01*
X131770500Y-118313465D01*
X131770500Y-118106535D01*
X131730130Y-117903580D01*
X131650941Y-117712402D01*
X131535977Y-117540345D01*
X131389655Y-117394023D01*
X131389651Y-117394020D01*
X131217597Y-117279058D01*
X131026418Y-117199869D01*
X130823467Y-117159500D01*
X130823465Y-117159500D01*
X130616535Y-117159500D01*
X130616532Y-117159500D01*
X130413580Y-117199870D01*
X130413578Y-117199870D01*
X130252596Y-117266551D01*
X130191600Y-117271352D01*
X130144707Y-117245091D01*
X129909618Y-117010002D01*
X129881841Y-116955485D01*
X129891412Y-116895053D01*
X129909615Y-116869998D01*
X130144708Y-116634906D01*
X130199223Y-116607130D01*
X130252593Y-116613446D01*
X130413580Y-116680130D01*
X130616535Y-116720500D01*
X130616536Y-116720500D01*
X130823464Y-116720500D01*
X130823465Y-116720500D01*
X131026420Y-116680130D01*
X131217598Y-116600941D01*
X131389655Y-116485977D01*
X131535977Y-116339655D01*
X131650941Y-116167598D01*
X131730130Y-115976420D01*
X131770500Y-115773465D01*
X131770500Y-115566535D01*
X131730130Y-115363580D01*
X131650941Y-115172402D01*
X131535977Y-115000345D01*
X131389655Y-114854023D01*
X131389651Y-114854020D01*
X131217597Y-114739058D01*
X131026418Y-114659869D01*
X130823467Y-114619500D01*
X130823465Y-114619500D01*
X130616535Y-114619500D01*
X130616532Y-114619500D01*
X130413581Y-114659869D01*
X130222402Y-114739058D01*
X130050348Y-114854020D01*
X129904020Y-115000348D01*
X129789058Y-115172402D01*
X129709869Y-115363581D01*
X129669500Y-115566532D01*
X129669500Y-115773467D01*
X129680248Y-115827500D01*
X129707480Y-115964407D01*
X129709870Y-115976419D01*
X129709870Y-115976421D01*
X129776551Y-116137403D01*
X129781352Y-116198399D01*
X129755091Y-116245291D01*
X129531282Y-116469103D01*
X129476766Y-116496881D01*
X129461278Y-116498100D01*
X129075263Y-116498100D01*
X129017072Y-116479193D01*
X128981108Y-116429693D01*
X128981108Y-116368507D01*
X128994301Y-116344384D01*
X128993275Y-116343699D01*
X129033290Y-116283812D01*
X129110941Y-116167598D01*
X129190130Y-115976420D01*
X129230500Y-115773465D01*
X129230500Y-115566535D01*
X129190130Y-115363580D01*
X129110941Y-115172402D01*
X128995977Y-115000345D01*
X128849655Y-114854023D01*
X128849651Y-114854020D01*
X128849646Y-114854015D01*
X128846004Y-114851026D01*
X128813018Y-114799493D01*
X128816622Y-114738414D01*
X128855439Y-114691119D01*
X128908811Y-114675500D01*
X129504799Y-114675500D01*
X129504800Y-114675500D01*
X129606058Y-114633557D01*
X129683557Y-114556058D01*
X129683556Y-114556058D01*
X130144707Y-114094907D01*
X130199223Y-114067131D01*
X130252596Y-114073448D01*
X130413580Y-114140130D01*
X130616535Y-114180500D01*
X130616536Y-114180500D01*
X130823464Y-114180500D01*
X130823465Y-114180500D01*
X131026420Y-114140130D01*
X131217598Y-114060941D01*
X131389655Y-113945977D01*
X131535977Y-113799655D01*
X131650941Y-113627598D01*
X131730130Y-113436420D01*
X131770500Y-113233465D01*
X131770500Y-113026535D01*
X131730130Y-112823580D01*
X131650941Y-112632402D01*
X131535977Y-112460345D01*
X131389655Y-112314023D01*
X131379908Y-112307510D01*
X131217597Y-112199058D01*
X131026418Y-112119869D01*
X130823467Y-112079500D01*
X130823465Y-112079500D01*
X130616535Y-112079500D01*
X130616532Y-112079500D01*
X130413581Y-112119869D01*
X130222402Y-112199058D01*
X130050348Y-112314020D01*
X129904020Y-112460348D01*
X129789058Y-112632402D01*
X129709869Y-112823581D01*
X129669500Y-113026532D01*
X129669500Y-113233467D01*
X129686419Y-113318523D01*
X129707834Y-113426186D01*
X129709870Y-113436419D01*
X129709870Y-113436421D01*
X129776551Y-113597403D01*
X129781352Y-113658399D01*
X129755091Y-113705291D01*
X129364882Y-114095503D01*
X129310365Y-114123281D01*
X129294878Y-114124500D01*
X128908811Y-114124500D01*
X128850620Y-114105593D01*
X128814656Y-114056093D01*
X128814656Y-113994907D01*
X128846004Y-113948974D01*
X128849646Y-113945984D01*
X128849648Y-113945981D01*
X128849655Y-113945977D01*
X128995977Y-113799655D01*
X129110941Y-113627598D01*
X129190130Y-113436420D01*
X129230500Y-113233465D01*
X129230500Y-113026535D01*
X129190130Y-112823580D01*
X129110941Y-112632402D01*
X128995977Y-112460345D01*
X128857733Y-112322101D01*
X128829958Y-112267587D01*
X128839529Y-112207155D01*
X128882794Y-112163890D01*
X128927739Y-112153100D01*
X129487299Y-112153100D01*
X129487300Y-112153100D01*
X129588558Y-112111157D01*
X129666057Y-112033658D01*
X129666058Y-112033654D01*
X129672771Y-112026942D01*
X129673218Y-112026395D01*
X130144708Y-111554905D01*
X130199223Y-111527130D01*
X130252593Y-111533446D01*
X130413580Y-111600130D01*
X130616535Y-111640500D01*
X130616536Y-111640500D01*
X130823464Y-111640500D01*
X130823465Y-111640500D01*
X131026420Y-111600130D01*
X131217598Y-111520941D01*
X131389655Y-111405977D01*
X131535977Y-111259655D01*
X131650941Y-111087598D01*
X131730130Y-110896420D01*
X131770500Y-110693465D01*
X131770500Y-110486535D01*
X131730130Y-110283580D01*
X131650941Y-110092402D01*
X131535977Y-109920345D01*
X131389655Y-109774023D01*
X131389651Y-109774020D01*
X131217597Y-109659058D01*
X131026418Y-109579869D01*
X130823467Y-109539500D01*
X130823465Y-109539500D01*
X130616535Y-109539500D01*
X130616532Y-109539500D01*
X130413581Y-109579869D01*
X130222402Y-109659058D01*
X130050348Y-109774020D01*
X129904020Y-109920348D01*
X129789058Y-110092402D01*
X129709869Y-110283581D01*
X129669500Y-110486532D01*
X129669500Y-110693467D01*
X129682016Y-110756390D01*
X129707480Y-110884407D01*
X129709870Y-110896419D01*
X129709870Y-110896421D01*
X129776551Y-111057404D01*
X129781352Y-111118400D01*
X129755091Y-111165292D01*
X129347282Y-111573103D01*
X129292765Y-111600881D01*
X129277278Y-111602100D01*
X128882496Y-111602100D01*
X128824305Y-111583193D01*
X128788341Y-111533693D01*
X128788341Y-111472507D01*
X128824305Y-111423007D01*
X128827494Y-111420785D01*
X128841604Y-111411356D01*
X128849655Y-111405977D01*
X128995977Y-111259655D01*
X129110941Y-111087598D01*
X129190130Y-110896420D01*
X129230500Y-110693465D01*
X129230500Y-110486535D01*
X129190130Y-110283580D01*
X129110941Y-110092402D01*
X128995977Y-109920345D01*
X128849655Y-109774023D01*
X128849643Y-109774015D01*
X128707616Y-109679116D01*
X128669736Y-109631066D01*
X128667334Y-109569928D01*
X128701327Y-109519054D01*
X128758730Y-109497876D01*
X128762617Y-109497800D01*
X129602499Y-109497800D01*
X129602500Y-109497800D01*
X129703758Y-109455857D01*
X129781257Y-109378358D01*
X129781256Y-109378358D01*
X130144708Y-109014906D01*
X130199223Y-108987130D01*
X130252593Y-108993446D01*
X130413580Y-109060130D01*
X130616535Y-109100500D01*
X130616536Y-109100500D01*
X130823464Y-109100500D01*
X130823465Y-109100500D01*
X131026420Y-109060130D01*
X131217598Y-108980941D01*
X131389655Y-108865977D01*
X131535977Y-108719655D01*
X131650941Y-108547598D01*
X131730130Y-108356420D01*
X131770500Y-108153465D01*
X131770500Y-107946535D01*
X131730130Y-107743580D01*
X131650941Y-107552402D01*
X131535977Y-107380345D01*
X131389655Y-107234023D01*
X131389651Y-107234020D01*
X131217597Y-107119058D01*
X131026418Y-107039869D01*
X130823467Y-106999500D01*
X130823465Y-106999500D01*
X130616535Y-106999500D01*
X130616532Y-106999500D01*
X130413581Y-107039869D01*
X130222402Y-107119058D01*
X130050348Y-107234020D01*
X129904020Y-107380348D01*
X129789058Y-107552402D01*
X129709869Y-107743581D01*
X129669500Y-107946532D01*
X129669500Y-108153467D01*
X129709870Y-108356419D01*
X129709870Y-108356421D01*
X129776551Y-108517403D01*
X129781352Y-108578399D01*
X129755091Y-108625291D01*
X129462582Y-108917803D01*
X129408066Y-108945581D01*
X129392578Y-108946800D01*
X129007839Y-108946800D01*
X128949648Y-108927893D01*
X128913684Y-108878393D01*
X128913684Y-108817207D01*
X128937833Y-108777798D01*
X128995977Y-108719655D01*
X129110941Y-108547598D01*
X129190130Y-108356420D01*
X129230500Y-108153465D01*
X129230500Y-107946535D01*
X129190130Y-107743580D01*
X129110941Y-107552402D01*
X128995977Y-107380345D01*
X128849655Y-107234023D01*
X128849651Y-107234020D01*
X128849646Y-107234015D01*
X128846004Y-107231026D01*
X128813018Y-107179493D01*
X128816622Y-107118414D01*
X128855439Y-107071119D01*
X128908811Y-107055500D01*
X129504799Y-107055500D01*
X129504800Y-107055500D01*
X129606058Y-107013557D01*
X129683557Y-106936058D01*
X129683556Y-106936058D01*
X130144707Y-106474907D01*
X130199223Y-106447131D01*
X130252596Y-106453448D01*
X130413580Y-106520130D01*
X130616535Y-106560500D01*
X130616536Y-106560500D01*
X130823464Y-106560500D01*
X130823465Y-106560500D01*
X131026420Y-106520130D01*
X131217598Y-106440941D01*
X131389655Y-106325977D01*
X131535977Y-106179655D01*
X131650941Y-106007598D01*
X131730130Y-105816420D01*
X131770500Y-105613465D01*
X131770500Y-105406535D01*
X131730130Y-105203580D01*
X131650941Y-105012402D01*
X131535977Y-104840345D01*
X131389655Y-104694023D01*
X131389651Y-104694020D01*
X131217597Y-104579058D01*
X131026418Y-104499869D01*
X130823467Y-104459500D01*
X130823465Y-104459500D01*
X130616535Y-104459500D01*
X130616532Y-104459500D01*
X130413581Y-104499869D01*
X130222402Y-104579058D01*
X130050348Y-104694020D01*
X129904020Y-104840348D01*
X129789058Y-105012402D01*
X129709869Y-105203581D01*
X129669500Y-105406532D01*
X129669500Y-105613467D01*
X129709870Y-105816419D01*
X129709870Y-105816421D01*
X129776551Y-105977403D01*
X129781352Y-106038399D01*
X129755091Y-106085291D01*
X129364882Y-106475503D01*
X129310365Y-106503281D01*
X129294878Y-106504500D01*
X128908811Y-106504500D01*
X128850620Y-106485593D01*
X128814656Y-106436093D01*
X128814656Y-106374907D01*
X128846004Y-106328974D01*
X128849646Y-106325984D01*
X128849648Y-106325981D01*
X128849655Y-106325977D01*
X128995977Y-106179655D01*
X129110941Y-106007598D01*
X129190130Y-105816420D01*
X129230500Y-105613465D01*
X129230500Y-105406535D01*
X129190130Y-105203580D01*
X129110941Y-105012402D01*
X128995977Y-104840345D01*
X128849655Y-104694023D01*
X128849651Y-104694020D01*
X128677597Y-104579058D01*
X128486418Y-104499869D01*
X128283467Y-104459500D01*
X128283465Y-104459500D01*
X128076535Y-104459500D01*
X128076532Y-104459500D01*
X127873581Y-104499869D01*
X127682402Y-104579058D01*
X127510348Y-104694020D01*
X127364020Y-104840348D01*
X127249058Y-105012402D01*
X127169869Y-105203581D01*
X127129500Y-105406532D01*
X127129500Y-105613467D01*
X127169869Y-105816418D01*
X127169870Y-105816420D01*
X127233047Y-105968943D01*
X127236551Y-105977401D01*
X127241352Y-106038398D01*
X127215091Y-106085290D01*
X125893281Y-107407103D01*
X125838764Y-107434881D01*
X125823277Y-107436100D01*
X122687099Y-107436100D01*
X122615499Y-107465758D01*
X122615498Y-107465758D01*
X122590544Y-107476094D01*
X122529547Y-107480894D01*
X122477378Y-107448925D01*
X122453964Y-107392396D01*
X122468248Y-107332902D01*
X122482651Y-107314630D01*
X123180586Y-106616696D01*
X123235103Y-106588919D01*
X123250590Y-106587700D01*
X123280290Y-106587700D01*
X123280292Y-106587700D01*
X123407586Y-106553592D01*
X123407588Y-106553590D01*
X123407590Y-106553590D01*
X123521709Y-106487703D01*
X123521709Y-106487702D01*
X123521714Y-106487700D01*
X123614900Y-106394514D01*
X123654470Y-106325977D01*
X123680790Y-106280390D01*
X123680790Y-106280388D01*
X123680792Y-106280386D01*
X123714900Y-106153092D01*
X123714900Y-106021308D01*
X123680792Y-105894014D01*
X123680790Y-105894011D01*
X123680790Y-105894009D01*
X123614903Y-105779890D01*
X123614901Y-105779888D01*
X123614900Y-105779886D01*
X123521714Y-105686700D01*
X123521711Y-105686698D01*
X123521709Y-105686696D01*
X123407589Y-105620809D01*
X123407591Y-105620809D01*
X123358199Y-105607575D01*
X123280292Y-105586700D01*
X123148508Y-105586700D01*
X123070600Y-105607575D01*
X123021209Y-105620809D01*
X122907090Y-105686696D01*
X122813896Y-105779890D01*
X122748009Y-105894009D01*
X122734749Y-105943497D01*
X122725665Y-105977402D01*
X122713900Y-106021309D01*
X122713900Y-106051009D01*
X122694993Y-106109200D01*
X122684904Y-106121013D01*
X121267113Y-107538804D01*
X121212596Y-107566581D01*
X121197109Y-107567800D01*
X121097308Y-107567800D01*
X121019400Y-107588675D01*
X120970009Y-107601909D01*
X120855890Y-107667796D01*
X120855889Y-107667797D01*
X120855886Y-107667799D01*
X120855886Y-107667800D01*
X120834880Y-107688805D01*
X120780366Y-107716581D01*
X120764879Y-107717800D01*
X120148456Y-107717800D01*
X120059312Y-107741686D01*
X119979388Y-107787830D01*
X117079896Y-110687321D01*
X117025379Y-110715098D01*
X116964947Y-110705527D01*
X116921682Y-110662262D01*
X116914266Y-110642944D01*
X116907292Y-110616914D01*
X116907290Y-110616911D01*
X116907290Y-110616909D01*
X116841403Y-110502790D01*
X116841401Y-110502788D01*
X116841400Y-110502786D01*
X116748214Y-110409600D01*
X116748211Y-110409598D01*
X116748209Y-110409596D01*
X116634089Y-110343709D01*
X116634090Y-110343709D01*
X116518877Y-110312838D01*
X116467562Y-110279514D01*
X116445636Y-110222392D01*
X116445500Y-110217211D01*
X116445500Y-107158759D01*
X116464407Y-107100568D01*
X116494999Y-107073023D01*
X116508015Y-107065509D01*
X116524998Y-107048525D01*
X116579513Y-107020750D01*
X116639945Y-107030321D01*
X116665000Y-107048524D01*
X116681985Y-107065509D01*
X116681987Y-107065510D01*
X116681989Y-107065512D01*
X116807511Y-107137982D01*
X116807512Y-107137982D01*
X116807515Y-107137984D01*
X116947525Y-107175500D01*
X116947526Y-107175500D01*
X117092474Y-107175500D01*
X117092475Y-107175500D01*
X117232485Y-107137984D01*
X117232487Y-107137982D01*
X117232489Y-107137982D01*
X117358010Y-107065512D01*
X117358010Y-107065511D01*
X117358015Y-107065509D01*
X117374998Y-107048525D01*
X117429513Y-107020750D01*
X117489945Y-107030321D01*
X117515000Y-107048524D01*
X117531985Y-107065509D01*
X117531987Y-107065510D01*
X117531989Y-107065512D01*
X117657511Y-107137982D01*
X117657512Y-107137982D01*
X117657515Y-107137984D01*
X117797525Y-107175500D01*
X117797526Y-107175500D01*
X117942474Y-107175500D01*
X117942475Y-107175500D01*
X118082485Y-107137984D01*
X118082487Y-107137982D01*
X118082489Y-107137982D01*
X118208010Y-107065512D01*
X118208010Y-107065511D01*
X118208015Y-107065509D01*
X118224998Y-107048525D01*
X118279513Y-107020750D01*
X118339945Y-107030321D01*
X118365000Y-107048524D01*
X118381985Y-107065509D01*
X118381987Y-107065510D01*
X118381989Y-107065512D01*
X118507511Y-107137982D01*
X118507512Y-107137982D01*
X118507515Y-107137984D01*
X118647525Y-107175500D01*
X118647526Y-107175500D01*
X118792474Y-107175500D01*
X118792475Y-107175500D01*
X118932485Y-107137984D01*
X118932487Y-107137982D01*
X118932489Y-107137982D01*
X119058010Y-107065512D01*
X119058010Y-107065511D01*
X119058015Y-107065509D01*
X119160509Y-106963015D01*
X119232984Y-106837485D01*
X119270500Y-106697475D01*
X119270500Y-106552525D01*
X119232984Y-106412515D01*
X119232982Y-106412512D01*
X119232982Y-106412510D01*
X119160512Y-106286989D01*
X119160508Y-106286984D01*
X119099496Y-106225971D01*
X119071719Y-106171454D01*
X119070500Y-106155968D01*
X119070500Y-105744031D01*
X119089407Y-105685840D01*
X119099490Y-105674033D01*
X119160509Y-105613015D01*
X119232984Y-105487485D01*
X119270500Y-105347475D01*
X119270500Y-105202525D01*
X119270500Y-105202524D01*
X119269653Y-105196091D01*
X119272597Y-105195703D01*
X119275137Y-105146871D01*
X119297573Y-105112308D01*
X119895187Y-104514696D01*
X119949703Y-104486919D01*
X119965190Y-104485700D01*
X123549010Y-104485700D01*
X123607201Y-104504607D01*
X123619014Y-104514696D01*
X124731304Y-105626986D01*
X124759081Y-105681503D01*
X124760300Y-105696990D01*
X124760300Y-105726692D01*
X124776723Y-105787984D01*
X124794409Y-105853990D01*
X124860296Y-105968109D01*
X124860298Y-105968111D01*
X124860300Y-105968114D01*
X124953486Y-106061300D01*
X124953488Y-106061301D01*
X124953490Y-106061303D01*
X125067610Y-106127190D01*
X125067608Y-106127190D01*
X125067612Y-106127191D01*
X125067614Y-106127192D01*
X125194908Y-106161300D01*
X125194910Y-106161300D01*
X125326690Y-106161300D01*
X125326692Y-106161300D01*
X125453986Y-106127192D01*
X125453988Y-106127190D01*
X125453990Y-106127190D01*
X125568109Y-106061303D01*
X125568109Y-106061302D01*
X125568114Y-106061300D01*
X125661300Y-105968114D01*
X125710313Y-105883221D01*
X125727190Y-105853990D01*
X125727190Y-105853988D01*
X125727192Y-105853986D01*
X125761300Y-105726692D01*
X125761300Y-105594908D01*
X125727192Y-105467614D01*
X125727190Y-105467611D01*
X125727190Y-105467609D01*
X125661303Y-105353490D01*
X125661301Y-105353488D01*
X125661300Y-105353486D01*
X125568114Y-105260300D01*
X125568111Y-105260298D01*
X125568109Y-105260296D01*
X125453989Y-105194409D01*
X125453991Y-105194409D01*
X125378228Y-105174109D01*
X125326692Y-105160300D01*
X125326690Y-105160300D01*
X125296990Y-105160300D01*
X125238799Y-105141393D01*
X125226986Y-105131304D01*
X124595551Y-104499869D01*
X123950412Y-103854730D01*
X123870488Y-103808586D01*
X123781344Y-103784700D01*
X119732856Y-103784700D01*
X119643712Y-103808586D01*
X119563788Y-103854730D01*
X118723014Y-104695504D01*
X118668497Y-104723281D01*
X118653010Y-104724500D01*
X118647525Y-104724500D01*
X118600095Y-104737209D01*
X118507510Y-104762017D01*
X118381989Y-104834487D01*
X118381983Y-104834492D01*
X118365002Y-104851473D01*
X118310485Y-104879250D01*
X118250053Y-104869677D01*
X118224998Y-104851473D01*
X118208016Y-104834492D01*
X118208010Y-104834487D01*
X118082488Y-104762017D01*
X118082489Y-104762017D01*
X117989905Y-104737209D01*
X117942475Y-104724500D01*
X117797525Y-104724500D01*
X117750095Y-104737209D01*
X117657510Y-104762017D01*
X117531989Y-104834487D01*
X117531983Y-104834492D01*
X117515002Y-104851473D01*
X117460485Y-104879250D01*
X117400053Y-104869677D01*
X117374998Y-104851473D01*
X117358016Y-104834492D01*
X117358010Y-104834487D01*
X117232488Y-104762017D01*
X117232489Y-104762017D01*
X117139905Y-104737209D01*
X117092475Y-104724500D01*
X116947525Y-104724500D01*
X116900095Y-104737209D01*
X116807510Y-104762017D01*
X116681989Y-104834487D01*
X116681983Y-104834492D01*
X116665002Y-104851473D01*
X116610485Y-104879250D01*
X116550053Y-104869677D01*
X116524998Y-104851473D01*
X116508016Y-104834492D01*
X116508010Y-104834487D01*
X116382488Y-104762017D01*
X116382489Y-104762017D01*
X116289905Y-104737209D01*
X116242475Y-104724500D01*
X116097525Y-104724500D01*
X116050095Y-104737209D01*
X115957510Y-104762017D01*
X115831989Y-104834487D01*
X115831983Y-104834492D01*
X115815002Y-104851473D01*
X115760485Y-104879250D01*
X115700053Y-104869677D01*
X115674998Y-104851473D01*
X115658016Y-104834492D01*
X115658010Y-104834487D01*
X115532488Y-104762017D01*
X115532489Y-104762017D01*
X115439905Y-104737209D01*
X115392475Y-104724500D01*
X115247525Y-104724500D01*
X115200095Y-104737209D01*
X115107510Y-104762017D01*
X114981989Y-104834487D01*
X114981983Y-104834492D01*
X114965002Y-104851473D01*
X114910485Y-104879250D01*
X114850053Y-104869677D01*
X114824998Y-104851473D01*
X114808016Y-104834492D01*
X114808010Y-104834487D01*
X114682488Y-104762017D01*
X114682489Y-104762017D01*
X114589905Y-104737209D01*
X114542475Y-104724500D01*
X114397525Y-104724500D01*
X114350095Y-104737209D01*
X114257510Y-104762017D01*
X114131989Y-104834487D01*
X114029487Y-104936989D01*
X113957017Y-105062510D01*
X113932844Y-105152725D01*
X113919500Y-105202525D01*
X113919500Y-105347475D01*
X113935325Y-105406535D01*
X113957017Y-105487489D01*
X114029487Y-105613010D01*
X114029489Y-105613012D01*
X114029491Y-105613015D01*
X114090505Y-105674029D01*
X114118281Y-105728544D01*
X114119500Y-105744031D01*
X114119500Y-106155968D01*
X114100593Y-106214159D01*
X114090504Y-106225971D01*
X114029491Y-106286984D01*
X114029487Y-106286989D01*
X113957017Y-106412510D01*
X113919500Y-106552525D01*
X113919500Y-106697474D01*
X113957017Y-106837489D01*
X114029487Y-106963010D01*
X114029489Y-106963012D01*
X114029491Y-106963015D01*
X114090505Y-107024029D01*
X114118281Y-107078544D01*
X114119500Y-107094031D01*
X114119500Y-108490144D01*
X114126804Y-108517402D01*
X114140576Y-108568800D01*
X114140575Y-108568800D01*
X114140576Y-108568802D01*
X114143383Y-108579280D01*
X114143384Y-108579283D01*
X114143386Y-108579288D01*
X114189530Y-108659212D01*
X114913205Y-109382887D01*
X114940981Y-109437402D01*
X114942200Y-109452889D01*
X114942200Y-109482592D01*
X114968265Y-109579869D01*
X114976309Y-109609890D01*
X115042196Y-109724009D01*
X115042198Y-109724011D01*
X115042200Y-109724014D01*
X115135386Y-109817200D01*
X115135388Y-109817201D01*
X115135390Y-109817203D01*
X115249510Y-109883090D01*
X115249508Y-109883090D01*
X115249512Y-109883091D01*
X115249514Y-109883092D01*
X115376808Y-109917200D01*
X115376810Y-109917200D01*
X115508590Y-109917200D01*
X115508592Y-109917200D01*
X115635886Y-109883092D01*
X115635888Y-109883090D01*
X115635890Y-109883090D01*
X115746000Y-109819518D01*
X115805848Y-109806796D01*
X115861744Y-109831682D01*
X115892337Y-109884670D01*
X115894500Y-109905254D01*
X115894500Y-110594000D01*
X115909035Y-110629090D01*
X115927602Y-110673914D01*
X115927603Y-110673916D01*
X115934185Y-110689807D01*
X115940873Y-110740611D01*
X115940400Y-110744204D01*
X115940400Y-110744208D01*
X115940400Y-110875992D01*
X115945874Y-110896420D01*
X115974509Y-111003290D01*
X116040396Y-111117409D01*
X116040398Y-111117411D01*
X116040400Y-111117414D01*
X116133586Y-111210600D01*
X116133588Y-111210601D01*
X116133590Y-111210603D01*
X116247710Y-111276490D01*
X116247708Y-111276490D01*
X116247712Y-111276491D01*
X116247714Y-111276492D01*
X116273741Y-111283465D01*
X116325054Y-111316789D01*
X116346981Y-111373910D01*
X116331146Y-111433011D01*
X116318121Y-111449095D01*
X115539630Y-112227587D01*
X115514788Y-112270615D01*
X115493486Y-112307510D01*
X115491742Y-112314020D01*
X115470498Y-112393307D01*
X115469600Y-112396657D01*
X115469600Y-113590378D01*
X115450693Y-113648569D01*
X115440605Y-113660380D01*
X115419601Y-113681384D01*
X115419596Y-113681390D01*
X115353709Y-113795509D01*
X115352598Y-113799655D01*
X115319600Y-113922808D01*
X115319600Y-114054592D01*
X115330501Y-114095278D01*
X115327299Y-114156378D01*
X115288794Y-114203928D01*
X115234875Y-114219900D01*
X114614021Y-114219900D01*
X114555830Y-114200993D01*
X114519866Y-114151493D01*
X114519866Y-114090307D01*
X114544015Y-114050898D01*
X114554100Y-114040814D01*
X114577371Y-114000507D01*
X114619990Y-113926690D01*
X114619990Y-113926688D01*
X114619992Y-113926686D01*
X114654100Y-113799392D01*
X114654100Y-113667608D01*
X114619992Y-113540314D01*
X114619990Y-113540311D01*
X114619990Y-113540309D01*
X114554103Y-113426190D01*
X114554101Y-113426188D01*
X114554100Y-113426186D01*
X114460914Y-113333000D01*
X114460911Y-113332998D01*
X114460909Y-113332996D01*
X114346789Y-113267109D01*
X114346791Y-113267109D01*
X114277410Y-113248519D01*
X114219492Y-113233000D01*
X114219490Y-113233000D01*
X114216683Y-113233000D01*
X114214769Y-113232378D01*
X114213058Y-113232153D01*
X114213099Y-113231835D01*
X114158492Y-113214093D01*
X114122528Y-113164593D01*
X114121056Y-113159623D01*
X114119900Y-113155308D01*
X114085792Y-113028014D01*
X114085790Y-113028011D01*
X114085790Y-113028009D01*
X114019903Y-112913890D01*
X114019901Y-112913888D01*
X114019900Y-112913886D01*
X113926714Y-112820700D01*
X113926711Y-112820698D01*
X113926709Y-112820696D01*
X113812589Y-112754809D01*
X113812591Y-112754809D01*
X113763199Y-112741575D01*
X113685292Y-112720700D01*
X113685290Y-112720700D01*
X113672524Y-112720700D01*
X113614333Y-112701793D01*
X113602520Y-112691704D01*
X111774293Y-110863477D01*
X106187258Y-105276443D01*
X106187256Y-105276442D01*
X106086000Y-105234500D01*
X106085999Y-105234500D01*
X106085997Y-105234499D01*
X106080068Y-105233320D01*
X106026685Y-105203421D01*
X106007923Y-105174111D01*
X105940941Y-105012402D01*
X105890552Y-104936989D01*
X105834768Y-104853501D01*
X105818160Y-104794613D01*
X105839338Y-104737209D01*
X105890212Y-104703217D01*
X105917084Y-104699500D01*
X106483777Y-104699500D01*
X106541968Y-104718407D01*
X106553781Y-104728496D01*
X112248604Y-110423319D01*
X112276381Y-110477836D01*
X112277600Y-110493323D01*
X112277600Y-110497308D01*
X112277600Y-110629092D01*
X112294848Y-110693463D01*
X112311709Y-110756390D01*
X112377596Y-110870509D01*
X112377598Y-110870511D01*
X112377600Y-110870514D01*
X112470786Y-110963700D01*
X112470788Y-110963701D01*
X112470790Y-110963703D01*
X112584910Y-111029590D01*
X112584908Y-111029590D01*
X112584912Y-111029591D01*
X112584914Y-111029592D01*
X112712208Y-111063700D01*
X112712210Y-111063700D01*
X112843990Y-111063700D01*
X112843992Y-111063700D01*
X112971286Y-111029592D01*
X112971288Y-111029590D01*
X112971290Y-111029590D01*
X113085409Y-110963703D01*
X113085409Y-110963702D01*
X113085414Y-110963700D01*
X113178600Y-110870514D01*
X113182663Y-110863477D01*
X113244490Y-110756390D01*
X113244490Y-110756388D01*
X113244492Y-110756386D01*
X113278600Y-110629092D01*
X113278600Y-110497308D01*
X113244492Y-110370014D01*
X113244490Y-110370011D01*
X113244490Y-110370009D01*
X113178603Y-110255890D01*
X113178601Y-110255888D01*
X113178600Y-110255886D01*
X113085414Y-110162700D01*
X113085411Y-110162698D01*
X113085409Y-110162696D01*
X112971289Y-110096809D01*
X112971291Y-110096809D01*
X112921899Y-110083575D01*
X112843992Y-110062700D01*
X112712208Y-110062700D01*
X112708223Y-110062700D01*
X112650032Y-110043793D01*
X112638219Y-110033704D01*
X109285119Y-106680604D01*
X109257342Y-106626087D01*
X109266913Y-106565655D01*
X109310178Y-106522390D01*
X109355123Y-106511600D01*
X109416790Y-106511600D01*
X109416792Y-106511600D01*
X109544086Y-106477492D01*
X109544088Y-106477490D01*
X109544090Y-106477490D01*
X109658209Y-106411603D01*
X109658209Y-106411602D01*
X109658214Y-106411600D01*
X109751400Y-106318414D01*
X109817292Y-106204286D01*
X109851400Y-106076992D01*
X109851400Y-105945208D01*
X109817292Y-105817914D01*
X109817290Y-105817911D01*
X109817290Y-105817909D01*
X109751403Y-105703790D01*
X109751401Y-105703788D01*
X109751400Y-105703786D01*
X109658214Y-105610600D01*
X109658211Y-105610598D01*
X109658209Y-105610596D01*
X109544089Y-105544709D01*
X109544091Y-105544709D01*
X109494699Y-105531475D01*
X109416792Y-105510600D01*
X109285008Y-105510600D01*
X109281024Y-105510600D01*
X109222833Y-105491693D01*
X109211020Y-105481604D01*
X108841724Y-105112308D01*
X107634258Y-103904843D01*
X107634256Y-103904842D01*
X107634255Y-103904841D01*
X107618297Y-103898232D01*
X107618295Y-103898230D01*
X107618295Y-103898231D01*
X107533000Y-103862900D01*
X107532999Y-103862900D01*
X103619500Y-103862900D01*
X103561309Y-103843993D01*
X103525345Y-103794493D01*
X103520500Y-103763900D01*
X103520500Y-102100253D01*
X103520498Y-102100241D01*
X103517711Y-102086231D01*
X103508867Y-102041769D01*
X103464552Y-101975448D01*
X103417058Y-101943713D01*
X103417052Y-101943709D01*
X108179500Y-101943709D01*
X108179500Y-102156290D01*
X108212752Y-102366238D01*
X108278443Y-102568412D01*
X108374948Y-102757815D01*
X108374950Y-102757819D01*
X108499891Y-102929786D01*
X108499893Y-102929788D01*
X108499896Y-102929792D01*
X108650208Y-103080104D01*
X108650211Y-103080106D01*
X108650213Y-103080108D01*
X108822180Y-103205049D01*
X108822184Y-103205051D01*
X109011588Y-103301557D01*
X109213757Y-103367246D01*
X109213758Y-103367246D01*
X109213761Y-103367247D01*
X109423710Y-103400500D01*
X109423713Y-103400500D01*
X109636290Y-103400500D01*
X109846238Y-103367247D01*
X109846239Y-103367246D01*
X109846243Y-103367246D01*
X110048412Y-103301557D01*
X110237816Y-103205051D01*
X110409792Y-103080104D01*
X110560104Y-102929792D01*
X110685051Y-102757816D01*
X110781557Y-102568412D01*
X110847246Y-102366243D01*
X110880500Y-102156287D01*
X110880500Y-101943713D01*
X110880500Y-101943709D01*
X122309500Y-101943709D01*
X122309500Y-102156290D01*
X122342752Y-102366238D01*
X122408443Y-102568412D01*
X122504948Y-102757815D01*
X122504950Y-102757819D01*
X122629891Y-102929786D01*
X122629893Y-102929788D01*
X122629896Y-102929792D01*
X122780208Y-103080104D01*
X122780211Y-103080106D01*
X122780213Y-103080108D01*
X122952180Y-103205049D01*
X122952184Y-103205051D01*
X123141588Y-103301557D01*
X123343757Y-103367246D01*
X123343758Y-103367246D01*
X123343761Y-103367247D01*
X123553710Y-103400500D01*
X123553713Y-103400500D01*
X123766290Y-103400500D01*
X123976238Y-103367247D01*
X123976239Y-103367246D01*
X123976243Y-103367246D01*
X124178412Y-103301557D01*
X124367816Y-103205051D01*
X124539792Y-103080104D01*
X124690104Y-102929792D01*
X124815051Y-102757816D01*
X124911557Y-102568412D01*
X124977246Y-102366243D01*
X125010500Y-102156287D01*
X125010500Y-102100253D01*
X127129500Y-102100253D01*
X127129500Y-103839746D01*
X127129501Y-103839758D01*
X127134105Y-103862900D01*
X127141133Y-103898231D01*
X127185448Y-103964552D01*
X127251769Y-104008867D01*
X127296231Y-104017711D01*
X127310241Y-104020498D01*
X127310246Y-104020498D01*
X127310252Y-104020500D01*
X127310253Y-104020500D01*
X129049747Y-104020500D01*
X129049748Y-104020500D01*
X129108231Y-104008867D01*
X129174552Y-103964552D01*
X129218867Y-103898231D01*
X129230500Y-103839748D01*
X129230500Y-102100252D01*
X129218867Y-102041769D01*
X129174552Y-101975448D01*
X129127058Y-101943713D01*
X129108233Y-101931134D01*
X129108231Y-101931133D01*
X129108228Y-101931132D01*
X129108227Y-101931132D01*
X129049758Y-101919501D01*
X129049748Y-101919500D01*
X127310252Y-101919500D01*
X127310251Y-101919500D01*
X127310241Y-101919501D01*
X127251772Y-101931132D01*
X127251766Y-101931134D01*
X127185451Y-101975445D01*
X127185445Y-101975451D01*
X127141134Y-102041766D01*
X127141132Y-102041772D01*
X127129501Y-102100241D01*
X127129500Y-102100253D01*
X125010500Y-102100253D01*
X125010500Y-101943713D01*
X125010500Y-101943709D01*
X124977247Y-101733761D01*
X124977246Y-101733757D01*
X124911557Y-101531588D01*
X124815051Y-101342184D01*
X124815049Y-101342180D01*
X124690108Y-101170213D01*
X124690106Y-101170211D01*
X124690104Y-101170208D01*
X124539792Y-101019896D01*
X124539788Y-101019893D01*
X124539786Y-101019891D01*
X124367819Y-100894950D01*
X124367815Y-100894948D01*
X124178412Y-100798443D01*
X123976238Y-100732752D01*
X123766290Y-100699500D01*
X123766287Y-100699500D01*
X123553713Y-100699500D01*
X123553710Y-100699500D01*
X123343761Y-100732752D01*
X123141587Y-100798443D01*
X122952184Y-100894948D01*
X122952180Y-100894950D01*
X122780213Y-101019891D01*
X122629891Y-101170213D01*
X122504950Y-101342180D01*
X122504948Y-101342184D01*
X122408443Y-101531587D01*
X122342752Y-101733761D01*
X122309500Y-101943709D01*
X110880500Y-101943709D01*
X110847247Y-101733761D01*
X110847246Y-101733757D01*
X110781557Y-101531588D01*
X110685051Y-101342184D01*
X110685049Y-101342180D01*
X110560108Y-101170213D01*
X110560106Y-101170211D01*
X110560104Y-101170208D01*
X110409792Y-101019896D01*
X110409788Y-101019893D01*
X110409786Y-101019891D01*
X110237819Y-100894950D01*
X110237815Y-100894948D01*
X110048412Y-100798443D01*
X109846238Y-100732752D01*
X109636290Y-100699500D01*
X109636287Y-100699500D01*
X109423713Y-100699500D01*
X109423710Y-100699500D01*
X109213761Y-100732752D01*
X109011587Y-100798443D01*
X108822184Y-100894948D01*
X108822180Y-100894950D01*
X108650213Y-101019891D01*
X108499891Y-101170213D01*
X108374950Y-101342180D01*
X108374948Y-101342184D01*
X108278443Y-101531587D01*
X108212752Y-101733761D01*
X108179500Y-101943709D01*
X103417052Y-101943709D01*
X103398233Y-101931134D01*
X103398231Y-101931133D01*
X103398228Y-101931132D01*
X103398227Y-101931132D01*
X103339758Y-101919501D01*
X103339748Y-101919500D01*
X101600252Y-101919500D01*
X101600251Y-101919500D01*
X101600241Y-101919501D01*
X101541772Y-101931132D01*
X101541766Y-101931134D01*
X101475451Y-101975445D01*
X101475445Y-101975451D01*
X101431134Y-102041766D01*
X101431132Y-102041772D01*
X101419501Y-102100241D01*
X101419500Y-102100253D01*
X101419500Y-103839746D01*
X101419501Y-103839758D01*
X101424105Y-103862900D01*
X101431133Y-103898231D01*
X101475448Y-103964552D01*
X101491549Y-103975311D01*
X101529429Y-104023359D01*
X101531833Y-104084497D01*
X101506553Y-104127629D01*
X100921142Y-104713042D01*
X100843646Y-104790538D01*
X100843644Y-104790540D01*
X100843643Y-104790542D01*
X100801700Y-104891800D01*
X100200500Y-104891800D01*
X100200500Y-100507789D01*
X100201719Y-100492304D01*
X100206816Y-100460118D01*
X100212706Y-100422933D01*
X100222274Y-100393481D01*
X100250581Y-100337927D01*
X100268782Y-100312874D01*
X100312874Y-100268782D01*
X100337927Y-100250581D01*
X100393481Y-100222274D01*
X100422934Y-100212705D01*
X100473018Y-100204773D01*
X100492304Y-100201719D01*
X100507789Y-100200500D01*
X100539881Y-100200500D01*
X132650118Y-100200500D01*
X132682209Y-100200500D01*
X132697696Y-100201719D01*
G37*
%TD.AperFunction*%
%TD*%
M02*
