%TF.GenerationSoftware,KiCad,Pcbnew,10.0.6*%
%TF.CreationDate,2026-10-02T18:23:24+00:00*%
%TF.ProjectId,nicklink,6e69636b-6c69-46e6-9b2e-6b696361645f,rev?*%
%TF.SameCoordinates,Original*%
%TF.FileFunction,Copper,L1,Top*%
%TF.FilePolarity,Positive*%
%FSLAX46Y46*%
G04 Gerber Fmt 4.6, Leading zero omitted, Abs format (unit mm)*
G04 Created by KiCad (PCBNEW 10.0.6) date 2026-10-02 18:23:24*
%MOMM*%
%LPD*%
G01*
G04 APERTURE LIST*
G04 Aperture macros list*
%AMRoundRect*
0 Rectangle with rounded corners*
0 $1 Rounding radius*
0 $2 $3 $4 $5 $6 $7 $8 $9 X,Y pos of 4 corners*
0 Add a 4 corners polygon primitive as box body*
4,1,4,$2,$3,$4,$5,$6,$7,$8,$9,$2,$3,0*
0 Add four circle primitives for the rounded corners*
1,1,$1+$1,$2,$3*
1,1,$1+$1,$4,$5*
1,1,$1+$1,$6,$7*
1,1,$1+$1,$8,$9*
0 Add four rect primitives between the rounded corners*
20,1,$1+$1,$2,$3,$4,$5,0*
20,1,$1+$1,$4,$5,$6,$7,0*
20,1,$1+$1,$6,$7,$8,$9,0*
20,1,$1+$1,$8,$9,$2,$3,0*%
G04 Aperture macros list end*
%TA.AperFunction,SMDPad,CuDef*%
%ADD10RoundRect,0.087500X-0.225000X-0.087500X0.225000X-0.087500X0.225000X0.087500X-0.225000X0.087500X0*%
%TD*%
%TA.AperFunction,SMDPad,CuDef*%
%ADD11RoundRect,0.087500X-0.087500X-0.225000X0.087500X-0.225000X0.087500X0.225000X-0.087500X0.225000X0*%
%TD*%
%TA.AperFunction,SMDPad,CuDef*%
%ADD12RoundRect,0.135000X-0.135000X-0.185000X0.135000X-0.185000X0.135000X0.185000X-0.135000X0.185000X0*%
%TD*%
%TA.AperFunction,SMDPad,CuDef*%
%ADD13RoundRect,0.140000X0.170000X-0.140000X0.170000X0.140000X-0.170000X0.140000X-0.170000X-0.140000X0*%
%TD*%
%TA.AperFunction,ComponentPad*%
%ADD14R,1.700000X1.700000*%
%TD*%
%TA.AperFunction,ComponentPad*%
%ADD15C,1.700000*%
%TD*%
%TA.AperFunction,SMDPad,CuDef*%
%ADD16RoundRect,0.140000X-0.170000X0.140000X-0.170000X-0.140000X0.170000X-0.140000X0.170000X0.140000X0*%
%TD*%
%TA.AperFunction,SMDPad,CuDef*%
%ADD17RoundRect,0.250000X-0.450000X-0.350000X0.450000X-0.350000X0.450000X0.350000X-0.450000X0.350000X0*%
%TD*%
%TA.AperFunction,SMDPad,CuDef*%
%ADD18RoundRect,0.135000X-0.185000X0.135000X-0.185000X-0.135000X0.185000X-0.135000X0.185000X0.135000X0*%
%TD*%
%TA.AperFunction,SMDPad,CuDef*%
%ADD19R,1.700000X0.900000*%
%TD*%
%TA.AperFunction,SMDPad,CuDef*%
%ADD20RoundRect,0.075000X0.075000X-0.662500X0.075000X0.662500X-0.075000X0.662500X-0.075000X-0.662500X0*%
%TD*%
%TA.AperFunction,SMDPad,CuDef*%
%ADD21RoundRect,0.075000X0.662500X-0.075000X0.662500X0.075000X-0.662500X0.075000X-0.662500X-0.075000X0*%
%TD*%
%TA.AperFunction,SMDPad,CuDef*%
%ADD22RoundRect,0.250000X0.262500X0.450000X-0.262500X0.450000X-0.262500X-0.450000X0.262500X-0.450000X0*%
%TD*%
%TA.AperFunction,SMDPad,CuDef*%
%ADD23RoundRect,0.140000X-0.140000X-0.170000X0.140000X-0.170000X0.140000X0.170000X-0.140000X0.170000X0*%
%TD*%
%TA.AperFunction,SMDPad,CuDef*%
%ADD24RoundRect,0.147500X-0.147500X-0.172500X0.147500X-0.172500X0.147500X0.172500X-0.147500X0.172500X0*%
%TD*%
%TA.AperFunction,SMDPad,CuDef*%
%ADD25RoundRect,0.135000X0.185000X-0.135000X0.185000X0.135000X-0.185000X0.135000X-0.185000X-0.135000X0*%
%TD*%
%TA.AperFunction,SMDPad,CuDef*%
%ADD26RoundRect,0.093750X-0.093750X-0.106250X0.093750X-0.106250X0.093750X0.106250X-0.093750X0.106250X0*%
%TD*%
%TA.AperFunction,ComponentPad*%
%ADD27C,0.660000*%
%TD*%
%TA.AperFunction,HeatsinkPad*%
%ADD28R,1.000000X1.600000*%
%TD*%
%TA.AperFunction,SMDPad,CuDef*%
%ADD29RoundRect,0.243750X-0.243750X-0.456250X0.243750X-0.456250X0.243750X0.456250X-0.243750X0.456250X0*%
%TD*%
%TA.AperFunction,SMDPad,CuDef*%
%ADD30RoundRect,0.112500X0.112500X-0.350000X0.112500X0.350000X-0.112500X0.350000X-0.112500X-0.350000X0*%
%TD*%
%TA.AperFunction,ComponentPad*%
%ADD31C,0.740000*%
%TD*%
%TA.AperFunction,ComponentPad*%
%ADD32O,0.960000X2.460000*%
%TD*%
%TA.AperFunction,ComponentPad*%
%ADD33O,0.960000X1.760000*%
%TD*%
%TA.AperFunction,SMDPad,CuDef*%
%ADD34RoundRect,0.112500X0.112500X-0.187500X0.112500X0.187500X-0.112500X0.187500X-0.112500X-0.187500X0*%
%TD*%
%TA.AperFunction,SMDPad,CuDef*%
%ADD35RoundRect,0.093750X-0.093750X0.156250X-0.093750X-0.156250X0.093750X-0.156250X0.093750X0.156250X0*%
%TD*%
%TA.AperFunction,SMDPad,CuDef*%
%ADD36RoundRect,0.075000X-0.075000X0.250000X-0.075000X-0.250000X0.075000X-0.250000X0.075000X0.250000X0*%
%TD*%
%TA.AperFunction,SMDPad,CuDef*%
%ADD37RoundRect,0.147500X0.172500X-0.147500X0.172500X0.147500X-0.172500X0.147500X-0.172500X-0.147500X0*%
%TD*%
%TA.AperFunction,ViaPad*%
%ADD38C,0.600000*%
%TD*%
%TA.AperFunction,Conductor*%
%ADD39C,0.200000*%
%TD*%
%TA.AperFunction,Conductor*%
%ADD40C,0.250000*%
%TD*%
%TA.AperFunction,Conductor*%
%ADD41C,0.150000*%
%TD*%
%TA.AperFunction,Conductor*%
%ADD42C,0.127000*%
%TD*%
%TA.AperFunction,Conductor*%
%ADD43C,0.300000*%
%TD*%
%TA.AperFunction,Conductor*%
%ADD44C,0.120000*%
%TD*%
%TA.AperFunction,Conductor*%
%ADD45C,0.100000*%
%TD*%
G04 APERTURE END LIST*
D10*
%TO.P,U4,1*%
%TO.N,GND*%
X123037500Y-116960000D03*
%TO.P,U4,2*%
X123037500Y-117460000D03*
%TO.P,U4,3*%
X123037500Y-117960000D03*
%TO.P,U4,4*%
%TO.N,/IMU_INT1*%
X123037500Y-118460000D03*
D11*
%TO.P,U4,5*%
%TO.N,+3.3V*%
X123700000Y-118622500D03*
%TO.P,U4,6*%
%TO.N,GND*%
X124200000Y-118622500D03*
%TO.P,U4,7*%
X124700000Y-118622500D03*
D10*
%TO.P,U4,8*%
%TO.N,+3.3V*%
X125362500Y-118460000D03*
%TO.P,U4,9*%
%TO.N,unconnected-(U4-INT2-Pad9)*%
X125362500Y-117960000D03*
%TO.P,U4,10*%
%TO.N,+3.3V*%
X125362500Y-117460000D03*
%TO.P,U4,11*%
X125362500Y-116960000D03*
D11*
%TO.P,U4,12*%
X124700000Y-116797500D03*
%TO.P,U4,13*%
%TO.N,/PB6*%
X124200000Y-116797500D03*
%TO.P,U4,14*%
%TO.N,/PB7*%
X123700000Y-116797500D03*
%TD*%
D12*
%TO.P,R7,1*%
%TO.N,+3.3V*%
X108493000Y-118957000D03*
%TO.P,R7,2*%
%TO.N,/PB6*%
X109513000Y-118957000D03*
%TD*%
D13*
%TO.P,C7,1*%
%TO.N,+3.3VA*%
X120145000Y-123080000D03*
%TO.P,C7,2*%
%TO.N,GND*%
X120145000Y-122120000D03*
%TD*%
%TO.P,C2,1*%
%TO.N,+3.3V*%
X121100000Y-112480000D03*
%TO.P,C2,2*%
%TO.N,GND*%
X121100000Y-111520000D03*
%TD*%
D14*
%TO.P,J1,1*%
%TO.N,+5V*%
X128780000Y-101320000D03*
D15*
%TO.P,J1,2*%
%TO.N,GND*%
X131320000Y-101320000D03*
%TO.P,J1,3*%
%TO.N,/PB15*%
X128780000Y-103860000D03*
%TO.P,J1,4*%
%TO.N,/PB14*%
X131320000Y-103860000D03*
%TO.P,J1,5*%
%TO.N,/PB13*%
X128780000Y-106400000D03*
%TO.P,J1,6*%
%TO.N,/PB12*%
X131320000Y-106400000D03*
%TO.P,J1,7*%
%TO.N,/PB11*%
X128780000Y-108940000D03*
%TO.P,J1,8*%
%TO.N,/PB10*%
X131320000Y-108940000D03*
%TO.P,J1,9*%
%TO.N,/PB2*%
X128780000Y-111480000D03*
%TO.P,J1,10*%
%TO.N,/PB1*%
X131320000Y-111480000D03*
%TO.P,J1,11*%
%TO.N,/PB0*%
X128780000Y-114020000D03*
%TO.P,J1,12*%
%TO.N,/PA7*%
X131320000Y-114020000D03*
%TO.P,J1,13*%
%TO.N,/PA6*%
X128780000Y-116560000D03*
%TO.P,J1,14*%
%TO.N,/PA5*%
X131320000Y-116560000D03*
%TO.P,J1,15*%
%TO.N,/PA4*%
X128780000Y-119100000D03*
%TO.P,J1,16*%
%TO.N,/PA3*%
X131320000Y-119100000D03*
%TO.P,J1,17*%
%TO.N,/PA2*%
X128780000Y-121640000D03*
%TO.P,J1,18*%
%TO.N,/PA1*%
X131320000Y-121640000D03*
%TO.P,J1,19*%
%TO.N,/PA0*%
X128780000Y-124180000D03*
%TO.P,J1,20*%
%TO.N,+3.3V*%
X131320000Y-124180000D03*
%TD*%
D13*
%TO.P,C6,1*%
%TO.N,+3.3VA*%
X119045000Y-123080000D03*
%TO.P,C6,2*%
%TO.N,GND*%
X119045000Y-122120000D03*
%TD*%
D16*
%TO.P,C13,1*%
%TO.N,VBUS*%
X118058000Y-109374000D03*
%TO.P,C13,2*%
%TO.N,GND*%
X118058000Y-110334000D03*
%TD*%
D12*
%TO.P,R3,1*%
%TO.N,GND*%
X108600000Y-105170000D03*
%TO.P,R3,2*%
%TO.N,/PWR_LED_K*%
X109620000Y-105170000D03*
%TD*%
D13*
%TO.P,C10,1*%
%TO.N,/HSE_IN*%
X112545000Y-123880000D03*
%TO.P,C10,2*%
%TO.N,GND*%
X112545000Y-122920000D03*
%TD*%
D17*
%TO.P,Y1,1*%
%TO.N,/HSE_IN*%
X114145000Y-124050000D03*
%TO.P,Y1,2*%
%TO.N,GND*%
X116345000Y-124050000D03*
%TO.P,Y1,3*%
%TO.N,/HSE_OUT*%
X116345000Y-122350000D03*
%TO.P,Y1,4*%
%TO.N,GND*%
X114145000Y-122350000D03*
%TD*%
D12*
%TO.P,R9,1*%
%TO.N,+3.3V*%
X108518000Y-120270000D03*
%TO.P,R9,2*%
%TO.N,/PB7*%
X109538000Y-120270000D03*
%TD*%
D18*
%TO.P,R10,1*%
%TO.N,/IMU_INT1*%
X121250000Y-119890000D03*
%TO.P,R10,2*%
%TO.N,/PA0*%
X121250000Y-120910000D03*
%TD*%
D12*
%TO.P,R11,1*%
%TO.N,GND*%
X113090000Y-110585000D03*
%TO.P,R11,2*%
%TO.N,/USB_D+*%
X114110000Y-110585000D03*
%TD*%
D19*
%TO.P,SW1,1*%
%TO.N,/NRST*%
X124450000Y-115460000D03*
%TO.P,SW1,2*%
%TO.N,GND*%
X124450000Y-112060000D03*
%TD*%
D12*
%TO.P,R2,1*%
%TO.N,VBUS*%
X113132000Y-109650000D03*
%TO.P,R2,2*%
%TO.N,/USB_D+*%
X114152000Y-109650000D03*
%TD*%
D20*
%TO.P,U1,1*%
%TO.N,+3.3V*%
X113995000Y-120362500D03*
%TO.P,U1,2*%
%TO.N,/PC13*%
X114495000Y-120362500D03*
%TO.P,U1,3*%
%TO.N,/PC14*%
X114995000Y-120362500D03*
%TO.P,U1,4*%
%TO.N,/PC15*%
X115495000Y-120362500D03*
%TO.P,U1,5*%
%TO.N,/HSE_IN*%
X115995000Y-120362500D03*
%TO.P,U1,6*%
%TO.N,/HSE_OUT*%
X116495000Y-120362500D03*
%TO.P,U1,7*%
%TO.N,/NRST*%
X116995000Y-120362500D03*
%TO.P,U1,8*%
%TO.N,GND*%
X117495000Y-120362500D03*
%TO.P,U1,9*%
%TO.N,+3.3VA*%
X117995000Y-120362500D03*
%TO.P,U1,10*%
%TO.N,/PA0*%
X118495000Y-120362500D03*
%TO.P,U1,11*%
%TO.N,/PA1*%
X118995000Y-120362500D03*
%TO.P,U1,12*%
%TO.N,/PA2*%
X119495000Y-120362500D03*
D21*
%TO.P,U1,13*%
%TO.N,/PA3*%
X120907500Y-118950000D03*
%TO.P,U1,14*%
%TO.N,/PA4*%
X120907500Y-118450000D03*
%TO.P,U1,15*%
%TO.N,/PA5*%
X120907500Y-117950000D03*
%TO.P,U1,16*%
%TO.N,/PA6*%
X120907500Y-117450000D03*
%TO.P,U1,17*%
%TO.N,/PA7*%
X120907500Y-116950000D03*
%TO.P,U1,18*%
%TO.N,/PB0*%
X120907500Y-116450000D03*
%TO.P,U1,19*%
%TO.N,/PB1*%
X120907500Y-115950000D03*
%TO.P,U1,20*%
%TO.N,/PB2*%
X120907500Y-115450000D03*
%TO.P,U1,21*%
%TO.N,/PB10*%
X120907500Y-114950000D03*
%TO.P,U1,22*%
%TO.N,/PB11*%
X120907500Y-114450000D03*
%TO.P,U1,23*%
%TO.N,GND*%
X120907500Y-113950000D03*
%TO.P,U1,24*%
%TO.N,+3.3V*%
X120907500Y-113450000D03*
D20*
%TO.P,U1,25*%
%TO.N,/PB12*%
X119495000Y-112037500D03*
%TO.P,U1,26*%
%TO.N,/PB13*%
X118995000Y-112037500D03*
%TO.P,U1,27*%
%TO.N,/PB14*%
X118495000Y-112037500D03*
%TO.P,U1,28*%
%TO.N,/PB15*%
X117995000Y-112037500D03*
%TO.P,U1,29*%
%TO.N,/PA8*%
X117495000Y-112037500D03*
%TO.P,U1,30*%
%TO.N,/PA9*%
X116995000Y-112037500D03*
%TO.P,U1,31*%
%TO.N,/PA10*%
X116495000Y-112037500D03*
%TO.P,U1,32*%
%TO.N,/USB_D-*%
X115995000Y-112037500D03*
%TO.P,U1,33*%
%TO.N,/USB_D+*%
X115495000Y-112037500D03*
%TO.P,U1,34*%
%TO.N,/PA13*%
X114995000Y-112037500D03*
%TO.P,U1,35*%
%TO.N,GND*%
X114495000Y-112037500D03*
%TO.P,U1,36*%
%TO.N,+3.3V*%
X113995000Y-112037500D03*
D21*
%TO.P,U1,37*%
%TO.N,/PA14*%
X112582500Y-113450000D03*
%TO.P,U1,38*%
%TO.N,/PA15*%
X112582500Y-113950000D03*
%TO.P,U1,39*%
%TO.N,/PB3*%
X112582500Y-114450000D03*
%TO.P,U1,40*%
%TO.N,/PB4*%
X112582500Y-114950000D03*
%TO.P,U1,41*%
%TO.N,/PB5*%
X112582500Y-115450000D03*
%TO.P,U1,42*%
%TO.N,/PB6*%
X112582500Y-115950000D03*
%TO.P,U1,43*%
%TO.N,/PB7*%
X112582500Y-116450000D03*
%TO.P,U1,44*%
%TO.N,/BOOT0*%
X112582500Y-116950000D03*
%TO.P,U1,45*%
%TO.N,/PB8*%
X112582500Y-117450000D03*
%TO.P,U1,46*%
%TO.N,/PB9*%
X112582500Y-117950000D03*
%TO.P,U1,47*%
%TO.N,GND*%
X112582500Y-118450000D03*
%TO.P,U1,48*%
%TO.N,+3.3V*%
X112582500Y-118950000D03*
%TD*%
D16*
%TO.P,C8,1*%
%TO.N,+3.3V*%
X119263000Y-108730000D03*
%TO.P,C8,2*%
%TO.N,GND*%
X119263000Y-109690000D03*
%TD*%
D22*
%TO.P,R12,1*%
%TO.N,VBUS*%
X110792500Y-106700000D03*
%TO.P,R12,2*%
%TO.N,/VBUS_D*%
X108967500Y-106700000D03*
%TD*%
D19*
%TO.P,SW2,1*%
%TO.N,+3.3V*%
X109580000Y-115600000D03*
%TO.P,SW2,2*%
%TO.N,/BOOT0*%
X109580000Y-112200000D03*
%TD*%
D23*
%TO.P,C12,1*%
%TO.N,/VSYS*%
X122920000Y-109830000D03*
%TO.P,C12,2*%
%TO.N,GND*%
X123880000Y-109830000D03*
%TD*%
D13*
%TO.P,C4,1*%
%TO.N,+3.3V*%
X110730000Y-119430000D03*
%TO.P,C4,2*%
%TO.N,GND*%
X110730000Y-118470000D03*
%TD*%
%TO.P,C1,1*%
%TO.N,+3.3V*%
X112450000Y-121080000D03*
%TO.P,C1,2*%
%TO.N,GND*%
X112450000Y-120120000D03*
%TD*%
%TO.P,C3,1*%
%TO.N,+3.3V*%
X112049000Y-111904000D03*
%TO.P,C3,2*%
%TO.N,GND*%
X112049000Y-110944000D03*
%TD*%
D24*
%TO.P,D3,1*%
%TO.N,/USER_LED_K*%
X111008000Y-109620000D03*
%TO.P,D3,2*%
%TO.N,+3.3V*%
X111978000Y-109620000D03*
%TD*%
D12*
%TO.P,R6,1*%
%TO.N,/PC13*%
X110513000Y-105198000D03*
%TO.P,R6,2*%
%TO.N,/USER_LED_K*%
X111533000Y-105198000D03*
%TD*%
D25*
%TO.P,R4,1*%
%TO.N,GND*%
X125600000Y-110910000D03*
%TO.P,R4,2*%
%TO.N,/USB_CC1*%
X125600000Y-109890000D03*
%TD*%
D26*
%TO.P,U2,1*%
%TO.N,+3.3V*%
X120207500Y-108650000D03*
%TO.P,U2,2*%
X120207500Y-109300000D03*
%TO.P,U2,3*%
%TO.N,GND*%
X120207500Y-109950000D03*
%TO.P,U2,4*%
%TO.N,/VSYS*%
X121982500Y-109950000D03*
%TO.P,U2,5*%
%TO.N,GND*%
X121982500Y-109300000D03*
%TO.P,U2,6*%
%TO.N,/VSYS*%
X121982500Y-108650000D03*
D27*
%TO.P,U2,7*%
%TO.N,GND*%
X121095000Y-108700000D03*
D28*
X121095000Y-109300000D03*
D27*
X121095000Y-109900000D03*
%TD*%
D16*
%TO.P,C14,1*%
%TO.N,+3.3V*%
X123720000Y-119970000D03*
%TO.P,C14,2*%
%TO.N,GND*%
X123720000Y-120930000D03*
%TD*%
D24*
%TO.P,D1,1*%
%TO.N,/PWR_LED_K*%
X110870000Y-108163000D03*
%TO.P,D1,2*%
%TO.N,+3.3V*%
X111840000Y-108163000D03*
%TD*%
D12*
%TO.P,R5,1*%
%TO.N,GND*%
X113218000Y-108662000D03*
%TO.P,R5,2*%
%TO.N,/USB_CC2*%
X114238000Y-108662000D03*
%TD*%
%TO.P,R8,1*%
%TO.N,/PB2*%
X122890000Y-110800000D03*
%TO.P,R8,2*%
%TO.N,GND*%
X123910000Y-110800000D03*
%TD*%
D29*
%TO.P,F1,1*%
%TO.N,/VSYS*%
X123337500Y-108405000D03*
%TO.P,F1,2*%
%TO.N,/5V_F*%
X125212500Y-108405000D03*
%TD*%
D30*
%TO.P,Q1,1*%
%TO.N,GND*%
X124380000Y-106592500D03*
%TO.P,Q1,2*%
%TO.N,/5V_F*%
X125680000Y-106592500D03*
%TO.P,Q1,3*%
%TO.N,+5V*%
X125030000Y-104817500D03*
%TD*%
D13*
%TO.P,C11,1*%
%TO.N,/HSE_OUT*%
X117945000Y-123680000D03*
%TO.P,C11,2*%
%TO.N,GND*%
X117945000Y-122720000D03*
%TD*%
D14*
%TO.P,J3,1*%
%TO.N,+3.3V*%
X102670000Y-101320000D03*
D15*
%TO.P,J3,2*%
%TO.N,GND*%
X105210000Y-101320000D03*
%TO.P,J3,3*%
%TO.N,/PA9*%
X102670000Y-103860000D03*
%TO.P,J3,4*%
%TO.N,/PA10*%
X105210000Y-103860000D03*
%TO.P,J3,5*%
%TO.N,/PA8*%
X102670000Y-106400000D03*
%TO.P,J3,6*%
%TO.N,/PA15*%
X105210000Y-106400000D03*
%TO.P,J3,7*%
%TO.N,/PA13*%
X102670000Y-108940000D03*
%TO.P,J3,8*%
%TO.N,/PA14*%
X105210000Y-108940000D03*
%TO.P,J3,9*%
%TO.N,/PB3*%
X102670000Y-111480000D03*
%TO.P,J3,10*%
%TO.N,/NRST*%
X105210000Y-111480000D03*
%TO.P,J3,11*%
%TO.N,/PB4*%
X102670000Y-114020000D03*
%TO.P,J3,12*%
%TO.N,/PB5*%
X105210000Y-114020000D03*
%TO.P,J3,13*%
%TO.N,/PB6*%
X102670000Y-116560000D03*
%TO.P,J3,14*%
%TO.N,/PB7*%
X105210000Y-116560000D03*
%TO.P,J3,15*%
%TO.N,/PB8*%
X102670000Y-119100000D03*
%TO.P,J3,16*%
%TO.N,/PB9*%
X105210000Y-119100000D03*
%TO.P,J3,17*%
%TO.N,/PC13*%
X102670000Y-121640000D03*
%TO.P,J3,18*%
%TO.N,/PC14*%
X105210000Y-121640000D03*
%TO.P,J3,19*%
%TO.N,/PC15*%
X102670000Y-124180000D03*
%TO.P,J3,20*%
%TO.N,GND*%
X105210000Y-124180000D03*
%TD*%
D31*
%TO.P,J2,A1*%
%TO.N,GND*%
X119970000Y-106625000D03*
%TO.P,J2,A4*%
%TO.N,VBUS*%
X119120000Y-106625000D03*
%TO.P,J2,A5*%
%TO.N,/USB_CC1*%
X118270000Y-106625000D03*
%TO.P,J2,A6*%
%TO.N,/USB_D+*%
X117420000Y-106625000D03*
%TO.P,J2,A7*%
%TO.N,/USB_D-*%
X116570000Y-106625000D03*
%TO.P,J2,A8*%
%TO.N,unconnected-(J2-SBU1-PadA8)*%
X115720000Y-106625000D03*
%TO.P,J2,A9*%
%TO.N,VBUS*%
X114870000Y-106625000D03*
%TO.P,J2,A12*%
%TO.N,GND*%
X114020000Y-106625000D03*
%TO.P,J2,B1*%
X114020000Y-105275000D03*
%TO.P,J2,B4*%
%TO.N,VBUS*%
X114870000Y-105275000D03*
%TO.P,J2,B5*%
%TO.N,/USB_CC2*%
X115720000Y-105275000D03*
%TO.P,J2,B6*%
%TO.N,/USB_D+*%
X116570000Y-105275000D03*
%TO.P,J2,B7*%
%TO.N,/USB_D-*%
X117420000Y-105275000D03*
%TO.P,J2,B8*%
%TO.N,unconnected-(J2-SBU2-PadB8)*%
X118270000Y-105275000D03*
%TO.P,J2,B9*%
%TO.N,VBUS*%
X119120000Y-105275000D03*
%TO.P,J2,B12*%
%TO.N,GND*%
X119970000Y-105275000D03*
D32*
%TO.P,J2,SH*%
X121320000Y-105645000D03*
D33*
X121320000Y-102265000D03*
D32*
X112670000Y-105645000D03*
D33*
X112670000Y-102265000D03*
%TD*%
D16*
%TO.P,C15,1*%
%TO.N,+3.3V*%
X125220000Y-119970000D03*
%TO.P,C15,2*%
%TO.N,GND*%
X125220000Y-120930000D03*
%TD*%
D13*
%TO.P,C9,1*%
%TO.N,/NRST*%
X121245000Y-123080000D03*
%TO.P,C9,2*%
%TO.N,GND*%
X121245000Y-122120000D03*
%TD*%
D25*
%TO.P,R1,1*%
%TO.N,/BOOT0*%
X109280000Y-117910000D03*
%TO.P,R1,2*%
%TO.N,GND*%
X109280000Y-116890000D03*
%TD*%
D34*
%TO.P,D2,1*%
%TO.N,/VSYS*%
X122975000Y-106895000D03*
%TO.P,D2,2*%
%TO.N,/VBUS_D*%
X122975000Y-104795000D03*
%TD*%
D35*
%TO.P,U3,1*%
%TO.N,/USB_D-*%
X116932500Y-108420000D03*
D36*
%TO.P,U3,2*%
%TO.N,GND*%
X116395000Y-108345000D03*
D35*
%TO.P,U3,3*%
%TO.N,/USB_D+*%
X115857500Y-108420000D03*
%TO.P,U3,4*%
X115857500Y-110120000D03*
D36*
%TO.P,U3,5*%
%TO.N,VBUS*%
X116395000Y-110195000D03*
D35*
%TO.P,U3,6*%
%TO.N,/USB_D-*%
X116932500Y-110120000D03*
%TD*%
D37*
%TO.P,FB1,1*%
%TO.N,+3.3VA*%
X122620000Y-120935000D03*
%TO.P,FB1,2*%
%TO.N,+3.3V*%
X122620000Y-119965000D03*
%TD*%
D38*
%TO.N,GND*%
X119824999Y-100774999D03*
X116014999Y-102044999D03*
X122600000Y-116110000D03*
X113474999Y-100774999D03*
X116014999Y-100774999D03*
X117284999Y-100774999D03*
X116150000Y-107550000D03*
X118245000Y-116110000D03*
X124470000Y-120930000D03*
X117284999Y-102044999D03*
X108394999Y-100774999D03*
X112204999Y-100774999D03*
X114495000Y-113500000D03*
X122364999Y-100774999D03*
X124650000Y-110350000D03*
X114744999Y-102044999D03*
X124450000Y-119400000D03*
X114744999Y-100774999D03*
X118554999Y-102044999D03*
X118554999Y-100774999D03*
X123850000Y-107250000D03*
X108600000Y-104350000D03*
%TO.N,+3.3V*%
X113403800Y-112037500D03*
X114918700Y-117929900D03*
X126105300Y-115381200D03*
X110250500Y-108780600D03*
X120350000Y-112800000D03*
X110638300Y-120139900D03*
X108497700Y-116430900D03*
X119507100Y-108020100D03*
%TO.N,/PB6*%
X108527300Y-117971300D03*
X118378100Y-114851500D03*
X125151800Y-114573200D03*
%TO.N,/PB7*%
X116705300Y-115820000D03*
X122313200Y-115370700D03*
X108781800Y-121023000D03*
%TO.N,+3.3VA*%
X121988000Y-123199600D03*
X118180200Y-121544700D03*
%TO.N,/PB15*%
X119779700Y-110473300D03*
%TO.N,/PB14*%
X118342400Y-113210100D03*
%TO.N,/PB13*%
X120414400Y-111076800D03*
%TO.N,/PB12*%
X119694500Y-113211500D03*
%TO.N,/PB2*%
X119717500Y-115111100D03*
X123148900Y-111559900D03*
%TO.N,/PB1*%
X122202000Y-116747100D03*
%TO.N,/PB0*%
X118910800Y-116698800D03*
%TO.N,/PA7*%
X119740600Y-116950000D03*
%TO.N,/PA6*%
X119223200Y-117464900D03*
%TO.N,/PA5*%
X118660300Y-117959300D03*
%TO.N,/PA4*%
X119740400Y-118453200D03*
%TO.N,/PA3*%
X118527500Y-118950000D03*
%TO.N,/PA2*%
X120320700Y-120586000D03*
%TO.N,/PA1*%
X120637400Y-121475600D03*
%TO.N,/PA0*%
X121854300Y-121513900D03*
%TO.N,/NRST*%
X116205700Y-118008300D03*
X123358900Y-114310300D03*
X116995000Y-118744900D03*
X121984600Y-122340400D03*
%TO.N,/PC13*%
X111748000Y-106256400D03*
X107248100Y-107867500D03*
X114246000Y-119046600D03*
%TO.N,/PC14*%
X116225900Y-118926300D03*
%TO.N,/PC15*%
X115495000Y-119195800D03*
%TO.N,/PA8*%
X116318200Y-114313600D03*
%TO.N,/PA9*%
X114587200Y-114609800D03*
%TO.N,/USB_D-*%
X115826400Y-110870900D03*
%TO.N,/PA13*%
X114814400Y-110297200D03*
X108761600Y-110210000D03*
%TO.N,/PA15*%
X115013700Y-115231500D03*
X104078400Y-107531600D03*
%TO.N,/BOOT0*%
X110719000Y-112979100D03*
X114532000Y-116797300D03*
%TO.N,/PB8*%
X111415700Y-117450000D03*
%TO.N,/PB9*%
X107673600Y-117289300D03*
X110673700Y-117728100D03*
%TO.N,/VBUS_D*%
X120595000Y-103650000D03*
X113395000Y-103650000D03*
%TO.N,/USB_CC1*%
X126193500Y-105866600D03*
%TO.N,/USB_CC2*%
X114951600Y-108782000D03*
%TD*%
%TO.N,GND*%
D39*
X113642000Y-109086000D02*
X113642000Y-109972900D01*
X107977000Y-117733600D02*
X108820600Y-116890000D01*
D40*
X124470000Y-120930000D02*
X125220000Y-120930000D01*
D39*
X130165800Y-102474200D02*
X128576000Y-102474200D01*
X124076900Y-109633100D02*
X124076900Y-107476900D01*
X109380400Y-121609800D02*
X109850400Y-121139800D01*
D40*
X123037000Y-116960000D02*
X122600000Y-116110000D01*
D39*
X117692000Y-118795600D02*
X117692000Y-116663000D01*
X114645000Y-122350000D02*
X116345000Y-124050000D01*
D40*
X123880000Y-109830000D02*
X124650000Y-110350000D01*
D41*
X118598500Y-123503300D02*
X118439300Y-123344100D01*
D39*
X114019900Y-105275000D02*
X114020000Y-105275000D01*
X112670000Y-104186300D02*
X112963500Y-104186300D01*
D40*
X114495000Y-112700000D02*
X114495000Y-113500000D01*
X118608000Y-110334000D02*
X119263000Y-109690000D01*
D39*
X113040000Y-105645000D02*
X114020000Y-106625000D01*
X117495000Y-120362500D02*
X117495000Y-118992600D01*
D40*
X121100000Y-111520000D02*
X121750000Y-111520000D01*
D39*
X124450000Y-111340000D02*
X124450000Y-111381300D01*
X121320000Y-104186300D02*
X121026500Y-104186300D01*
X120676300Y-109900000D02*
X120257500Y-109900000D01*
X111860700Y-120709300D02*
X111860700Y-121139800D01*
X112670000Y-105645000D02*
X113040000Y-105645000D01*
X108820600Y-116890000D02*
X109280000Y-116890000D01*
X107977000Y-121609800D02*
X109380400Y-121609800D01*
D40*
X123720000Y-120930000D02*
X124470000Y-120930000D01*
D39*
X118282400Y-124213300D02*
X118598500Y-123897200D01*
D40*
X123037000Y-117960000D02*
X123037000Y-116960000D01*
D39*
X112408000Y-110585000D02*
X112049000Y-110944000D01*
X112562500Y-118470000D02*
X111576200Y-118470000D01*
X124076900Y-107476900D02*
X123850000Y-107250000D01*
X123037500Y-116960000D02*
X123037000Y-116960000D01*
X113598200Y-110140300D02*
X113153500Y-110585000D01*
D40*
X123910000Y-110800000D02*
X124650000Y-110350000D01*
D39*
X114495000Y-112700000D02*
X114495000Y-112037500D01*
X128576000Y-102474200D02*
X124695000Y-106355200D01*
X116345000Y-124050000D02*
X116508300Y-124213300D01*
X111576200Y-118470000D02*
X111576200Y-119246200D01*
X111860700Y-121139800D02*
X111860700Y-122235700D01*
X117495000Y-121900300D02*
X117495000Y-120362500D01*
X119970100Y-105242700D02*
X119970100Y-105275000D01*
X123910000Y-110800000D02*
X124450000Y-111340000D01*
X121395000Y-109300000D02*
X121095000Y-109300000D01*
X118379900Y-122785100D02*
X118010100Y-122785100D01*
X125600000Y-110910000D02*
X125128700Y-111381300D01*
X107977000Y-121609800D02*
X107977000Y-117733600D01*
D41*
X117945000Y-122492300D02*
X117667800Y-122215100D01*
D39*
X118598500Y-123897200D02*
X118598500Y-123503300D01*
X114145000Y-122350000D02*
X114645000Y-122350000D01*
X117692000Y-116663000D02*
X118245000Y-116110000D01*
X122722800Y-106355200D02*
X121974300Y-107103700D01*
X118010100Y-122785100D02*
X117945000Y-122720000D01*
X117945000Y-122720000D02*
X117945000Y-122492300D01*
D41*
X117667800Y-122215100D02*
X117667800Y-122073100D01*
D40*
X124380000Y-106592000D02*
X123850000Y-107250000D01*
D39*
X118439300Y-122844500D02*
X118379900Y-122785100D01*
X119045000Y-122120000D02*
X118379900Y-122785100D01*
X124380000Y-106355200D02*
X122722800Y-106355200D01*
X123880000Y-109830000D02*
X124076900Y-109633100D01*
X121095000Y-109900000D02*
X121750000Y-110555000D01*
X120676300Y-109900000D02*
X119950600Y-109900000D01*
X112582500Y-118450000D02*
X112562500Y-118470000D01*
X113153500Y-110585000D02*
X113090000Y-110585000D01*
X111951300Y-124714800D02*
X112114700Y-124878200D01*
X117667800Y-122073100D02*
X117495000Y-121900300D01*
X121500000Y-113950000D02*
X120907500Y-113950000D01*
X119950600Y-109900000D02*
X119740600Y-109690000D01*
X113090000Y-110585000D02*
X112408000Y-110585000D01*
X107780200Y-121609800D02*
X107977000Y-121609800D01*
X124380000Y-106592000D02*
X124380000Y-106592500D01*
X117495000Y-118992600D02*
X117692000Y-118795600D01*
X112545000Y-122920000D02*
X111951300Y-123513700D01*
D40*
X124450000Y-119400000D02*
X124700000Y-118622000D01*
D39*
X105210000Y-124180000D02*
X107780200Y-121609800D01*
D40*
X121750000Y-111520000D02*
X121920000Y-111690000D01*
D39*
X121026500Y-104186300D02*
X119970100Y-105242700D01*
X121320000Y-105645000D02*
X121320000Y-104186300D01*
X124380000Y-106355200D02*
X124380000Y-106592000D01*
X121320000Y-107103700D02*
X121320000Y-108475000D01*
D40*
X108600000Y-105170000D02*
X108600000Y-104350000D01*
D39*
X111860700Y-122235700D02*
X112545000Y-122920000D01*
D40*
X118058000Y-110334000D02*
X118608000Y-110334000D01*
D39*
X121750000Y-110555000D02*
X121750000Y-111520000D01*
X121320000Y-105645000D02*
X121320000Y-107103700D01*
X112963500Y-104186300D02*
X114019900Y-105242700D01*
D41*
X109850400Y-121139800D02*
X111860700Y-121139800D01*
D39*
X116508300Y-124213300D02*
X118282400Y-124213300D01*
D41*
X118439300Y-123344100D02*
X118439300Y-123324300D01*
D39*
X131320000Y-101320000D02*
X130165800Y-102474200D01*
D41*
X113642000Y-109972900D02*
X113598200Y-110016700D01*
D39*
X119970100Y-105275000D02*
X119970000Y-105275000D01*
X111576200Y-119246200D02*
X112450000Y-120120000D01*
X121095000Y-108700000D02*
X121095000Y-109300000D01*
X121974300Y-107103700D02*
X121320000Y-107103700D01*
D40*
X121920000Y-113950000D02*
X121500000Y-113950000D01*
D39*
X121095000Y-109900000D02*
X120676300Y-109900000D01*
D40*
X124200000Y-118622000D02*
X124450000Y-119400000D01*
D39*
X115511000Y-124884000D02*
X116345000Y-124050000D01*
X111951300Y-123513700D02*
X111951300Y-124714800D01*
D40*
X116395000Y-108345000D02*
X116150000Y-107550000D01*
D39*
X118010100Y-122785100D02*
X117945000Y-122720000D01*
D41*
X113598200Y-110016700D02*
X113598200Y-110140300D01*
X114549800Y-124878200D02*
X114555600Y-124884000D01*
X112114700Y-124878200D02*
X114549800Y-124878200D01*
D39*
X119045000Y-122120000D02*
X120145000Y-122120000D01*
X120257500Y-109900000D02*
X120207500Y-109950000D01*
X113218000Y-108662000D02*
X113642000Y-109086000D01*
X119740600Y-109690000D02*
X119263000Y-109690000D01*
D40*
X121920000Y-111690000D02*
X121920000Y-113950000D01*
D39*
X124695000Y-106355200D02*
X124380000Y-106355200D01*
X112670000Y-105645000D02*
X112670000Y-104186300D01*
X124200000Y-118622500D02*
X124700000Y-118622500D01*
X114555600Y-124884000D02*
X115511000Y-124884000D01*
X112450000Y-120120000D02*
X111860700Y-120709300D01*
X118439300Y-123324300D02*
X118439300Y-122844500D01*
X110730000Y-118470000D02*
X111576200Y-118470000D01*
X123037500Y-117960000D02*
X123037500Y-117460000D01*
X121245000Y-122120000D02*
X120145000Y-122120000D01*
X124450000Y-112060000D02*
X124450000Y-111381300D01*
X121320000Y-108475000D02*
X121095000Y-108700000D01*
D40*
X121983000Y-109300000D02*
X121395000Y-109300000D01*
D39*
X114019900Y-105242700D02*
X114019900Y-105275000D01*
X125128700Y-111381300D02*
X124450000Y-111381300D01*
%TO.N,/IMU_INT1*%
X123037000Y-118460000D02*
X121250000Y-119920000D01*
D42*
X123037500Y-118460000D02*
X123037000Y-118460000D01*
%TO.N,+3.3V*%
D39*
X125952800Y-120402800D02*
X125550000Y-120000000D01*
D40*
X125363000Y-117460000D02*
X125950000Y-117460000D01*
D39*
X108518000Y-119521700D02*
X108493000Y-119496700D01*
X112450000Y-121080000D02*
X113167500Y-120362500D01*
X111840000Y-108829500D02*
X111840000Y-109482000D01*
D43*
X120670000Y-112480000D02*
X121100000Y-112480000D01*
D39*
X120207000Y-108650000D02*
X119577100Y-108020100D01*
D41*
X110811500Y-109072200D02*
X111054200Y-108829500D01*
D40*
X125550000Y-118650000D02*
X125550000Y-120000000D01*
D39*
X114918700Y-117929900D02*
X115350100Y-117929900D01*
D44*
X110639100Y-109102100D02*
X110781600Y-109102100D01*
D39*
X113995000Y-112037500D02*
X113403800Y-112037500D01*
X111054200Y-108829500D02*
X111840000Y-108829500D01*
X120207500Y-109300000D02*
X120207000Y-109300000D01*
X110638300Y-119521700D02*
X110638300Y-120139900D01*
X109580000Y-115600000D02*
X109580000Y-116278700D01*
X130050000Y-122910000D02*
X130050000Y-121384000D01*
X110317600Y-108780600D02*
X110250500Y-108780600D01*
X110639100Y-109102100D02*
X110317600Y-108780600D01*
X114023200Y-120362500D02*
X113995000Y-120362500D01*
D40*
X125363000Y-118460000D02*
X125550000Y-118650000D01*
D39*
X108493000Y-119496700D02*
X108493000Y-118957000D01*
D43*
X121100000Y-112480000D02*
X121100000Y-113257000D01*
D39*
X110730000Y-119430000D02*
X110638300Y-119521700D01*
X115350100Y-117929900D02*
X117899800Y-115380200D01*
X125362500Y-116960000D02*
X125363000Y-116960000D01*
X111978000Y-109620000D02*
X111469400Y-110128600D01*
X120907000Y-113450000D02*
X120907500Y-113450000D01*
X118597100Y-115380200D02*
X118906800Y-115070500D01*
D40*
X123700000Y-118622000D02*
X123700000Y-120000000D01*
D39*
X126105300Y-116217200D02*
X125362500Y-116960000D01*
X113717300Y-118827700D02*
X114615100Y-117929900D01*
X119577100Y-108020100D02*
X119507100Y-108020100D01*
X112182500Y-112037500D02*
X112049000Y-111904000D01*
X125363000Y-117460000D02*
X125362500Y-117460000D01*
X113522500Y-119381200D02*
X113522500Y-119744800D01*
X120207000Y-109300000D02*
X120207000Y-108650000D01*
X111840000Y-108163000D02*
X111840000Y-108829500D01*
X120207500Y-108650000D02*
X120207000Y-108650000D01*
X111469400Y-110128600D02*
X111469400Y-111324400D01*
X118906800Y-115070500D02*
X118906800Y-114783500D01*
D40*
X125950000Y-117460000D02*
X125950000Y-118460000D01*
D43*
X121100000Y-113257000D02*
X120907000Y-113450000D01*
D40*
X125950000Y-118460000D02*
X125363000Y-118460000D01*
D39*
X113717300Y-119186400D02*
X113717300Y-118827700D01*
D41*
X114023200Y-120245500D02*
X114023200Y-120362500D01*
D44*
X110781600Y-109102100D02*
X110811500Y-109072200D01*
D39*
X124700000Y-116797500D02*
X124700000Y-116798000D01*
D40*
X125363000Y-116960000D02*
X125363000Y-117460000D01*
D39*
X113522500Y-119744800D02*
X114023200Y-120245500D01*
X120240300Y-113450000D02*
X120907000Y-113450000D01*
X120127000Y-108730000D02*
X120207000Y-108650000D01*
X131320000Y-124180000D02*
X130050000Y-122910000D01*
X108649900Y-116278700D02*
X108497700Y-116430900D01*
X110638300Y-119521700D02*
X108518000Y-119521700D01*
X126105300Y-115381200D02*
X126105300Y-116217200D01*
D43*
X120350000Y-112800000D02*
X120670000Y-112480000D01*
D39*
X113167500Y-120362500D02*
X113995000Y-120362500D01*
X119263000Y-108730000D02*
X120127000Y-108730000D01*
X112582500Y-118950000D02*
X113013700Y-119381200D01*
X125362500Y-118460000D02*
X125363000Y-118460000D01*
X114615100Y-117929900D02*
X114918700Y-117929900D01*
X108518000Y-120270000D02*
X108518000Y-119521700D01*
X118906800Y-114783500D02*
X120240300Y-113450000D01*
X113403800Y-112037500D02*
X112182500Y-112037500D01*
X109580000Y-116278700D02*
X108649900Y-116278700D01*
X130050000Y-121384000D02*
X129068800Y-120402800D01*
D40*
X124700000Y-116798000D02*
X125363000Y-116960000D01*
D39*
X117899800Y-115380200D02*
X118597100Y-115380200D01*
X111840000Y-109482000D02*
X111978000Y-109620000D01*
X113013700Y-119381200D02*
X113522500Y-119381200D01*
X111469400Y-111324400D02*
X112049000Y-111904000D01*
D40*
X122620000Y-120000000D02*
X125550000Y-120000000D01*
D39*
X113522500Y-119381200D02*
X113717300Y-119186400D01*
X129068800Y-120402800D02*
X125952800Y-120402800D01*
%TO.N,/PB6*%
D42*
X115501400Y-115950000D02*
X116599900Y-114851500D01*
X125197200Y-116285900D02*
X124461000Y-116285900D01*
X124200000Y-116546900D02*
X124200000Y-116797500D01*
X125151800Y-114573200D02*
X125508100Y-114929500D01*
X108560400Y-114677800D02*
X107948200Y-115290000D01*
X110628800Y-114677800D02*
X108560400Y-114677800D01*
X109513000Y-118957000D02*
X108527300Y-117971300D01*
X107948200Y-115290000D02*
X103940000Y-115290000D01*
X124461000Y-116285900D02*
X124200000Y-116546900D01*
X103940000Y-115290000D02*
X102670000Y-116560000D01*
X111901000Y-115950000D02*
X110628800Y-114677800D01*
X125508100Y-115975000D02*
X125197200Y-116285900D01*
X112582500Y-115950000D02*
X115501400Y-115950000D01*
X112582500Y-115950000D02*
X111901000Y-115950000D01*
X125508100Y-114929500D02*
X125508100Y-115975000D01*
X116599900Y-114851500D02*
X118378100Y-114851500D01*
%TO.N,/PB7*%
X112727500Y-116305000D02*
X116220300Y-116305000D01*
X110522900Y-114933500D02*
X108666400Y-114933500D01*
X112582500Y-116450000D02*
X111935200Y-116450000D01*
X111935200Y-116450000D02*
X111623200Y-116138000D01*
X108666400Y-114933500D02*
X107039900Y-116560000D01*
X116220300Y-116305000D02*
X116705300Y-115820000D01*
X112582500Y-116450000D02*
X112727500Y-116305000D01*
X107039900Y-116560000D02*
X105210000Y-116560000D01*
X109538000Y-120270000D02*
X108785000Y-121023000D01*
X123700000Y-116797500D02*
X123700000Y-116509900D01*
X111623200Y-116138000D02*
X111623200Y-116033800D01*
X111623200Y-116033800D02*
X110522900Y-114933500D01*
X123700000Y-116509900D02*
X122560800Y-115370700D01*
X122560800Y-115370700D02*
X122313200Y-115370700D01*
X108785000Y-121023000D02*
X108781800Y-121023000D01*
%TO.N,+3.3VA*%
D39*
X117995000Y-121359500D02*
X117995000Y-120362500D01*
X122620000Y-122567600D02*
X121988000Y-123199600D01*
X121579600Y-123608000D02*
X120673000Y-123608000D01*
X122620000Y-120935000D02*
X122620000Y-122567600D01*
X119045000Y-123080000D02*
X120145000Y-123080000D01*
X118180200Y-121544700D02*
X117995000Y-121359500D01*
X121988000Y-123199600D02*
X121579600Y-123608000D01*
X120673000Y-123608000D02*
X120145000Y-123080000D01*
%TO.N,+5V*%
D43*
X125030000Y-104150000D02*
X127860000Y-101320000D01*
X127860000Y-101320000D02*
X128780000Y-101320000D01*
X125030000Y-104818000D02*
X125030000Y-104150000D01*
%TO.N,/PB15*%
D42*
X117995000Y-111408800D02*
X118930500Y-110473300D01*
X118930500Y-110473300D02*
X119779700Y-110473300D01*
X117995000Y-112037500D02*
X117995000Y-111408800D01*
%TO.N,/PB14*%
X118342400Y-112190100D02*
X118342400Y-113210100D01*
X118495000Y-112037500D02*
X118342400Y-112190100D01*
%TO.N,/PB13*%
X119298900Y-111076800D02*
X120414400Y-111076800D01*
X118995000Y-111380700D02*
X119298900Y-111076800D01*
X118995000Y-112037500D02*
X118995000Y-111380700D01*
%TO.N,/PB12*%
X119495000Y-113012000D02*
X119694500Y-113211500D01*
X119495000Y-112037500D02*
X119495000Y-113012000D01*
%TO.N,/PB11*%
X123908500Y-112703100D02*
X122161600Y-114450000D01*
X125425800Y-112703100D02*
X123908500Y-112703100D01*
X128780000Y-109348900D02*
X125425800Y-112703100D01*
X122161600Y-114450000D02*
X120907500Y-114450000D01*
X128780000Y-108940000D02*
X128780000Y-109348900D01*
%TO.N,/PB10*%
X130050000Y-110210000D02*
X128301200Y-110210000D01*
X122023200Y-114950000D02*
X120907500Y-114950000D01*
X131320000Y-108940000D02*
X130050000Y-110210000D01*
X128301200Y-110210000D02*
X124693100Y-113818100D01*
X124693100Y-113818100D02*
X123155100Y-113818100D01*
X123155100Y-113818100D02*
X122023200Y-114950000D01*
%TO.N,/PB2*%
X120056400Y-115450000D02*
X119717500Y-115111100D01*
X122890000Y-110800000D02*
X122890000Y-111301000D01*
X120907500Y-115450000D02*
X120056400Y-115450000D01*
X122890000Y-111301000D02*
X123148900Y-111559900D01*
%TO.N,/PB1*%
X121598900Y-115950000D02*
X120907500Y-115950000D01*
X122202000Y-116747100D02*
X122202000Y-116553100D01*
X122202000Y-116553100D02*
X121598900Y-115950000D01*
%TO.N,/PB0*%
X119159600Y-116450000D02*
X118910800Y-116698800D01*
X120907500Y-116450000D02*
X119159600Y-116450000D01*
%TO.N,/PA7*%
X120907500Y-116950000D02*
X119740600Y-116950000D01*
%TO.N,/PA6*%
X120907500Y-117450000D02*
X119238100Y-117450000D01*
X119238100Y-117450000D02*
X119223200Y-117464900D01*
%TO.N,/PA5*%
X119607100Y-117959300D02*
X118660300Y-117959300D01*
D45*
X120748500Y-117791000D02*
X120907500Y-117950000D01*
D42*
X119775400Y-117791000D02*
X119607100Y-117959300D01*
D45*
X119775400Y-117791000D02*
X120748500Y-117791000D01*
%TO.N,/PA4*%
D42*
X119743600Y-118450000D02*
X119740400Y-118453200D01*
X120907500Y-118450000D02*
X119743600Y-118450000D01*
%TO.N,/PA3*%
X120907500Y-118950000D02*
X118527500Y-118950000D01*
%TO.N,/PA2*%
X119495000Y-120362500D02*
X119718500Y-120586000D01*
X119718500Y-120586000D02*
X120320700Y-120586000D01*
%TO.N,/PA1*%
X118995000Y-121011400D02*
X118995000Y-120362500D01*
X119459200Y-121475600D02*
X118995000Y-121011400D01*
X120637400Y-121475600D02*
X119459200Y-121475600D01*
%TO.N,/PA0*%
X121250000Y-120910000D02*
X121853900Y-121513900D01*
X119817100Y-119384700D02*
X118808600Y-119384700D01*
X121250000Y-120910000D02*
X121250000Y-120817600D01*
X118808600Y-119384700D02*
X118495000Y-119698300D01*
X118495000Y-119698300D02*
X118495000Y-120362500D01*
X121853900Y-121513900D02*
X121854300Y-121513900D01*
X121250000Y-120817600D02*
X119817100Y-119384700D01*
%TO.N,VBUS*%
D43*
X111030000Y-107400000D02*
X110793000Y-106700000D01*
D39*
X112580000Y-107400000D02*
X112580000Y-109650000D01*
D43*
X119120000Y-107544000D02*
X119120000Y-106625000D01*
X116395000Y-110195000D02*
X116395000Y-109801999D01*
X119120000Y-105275000D02*
X119120000Y-106625000D01*
X116612000Y-109585000D02*
X117309000Y-109585000D01*
X116395000Y-109801999D02*
X116612000Y-109585000D01*
X110792500Y-106700000D02*
X110793000Y-106700000D01*
X118058000Y-109374000D02*
X118058000Y-108604000D01*
X118058000Y-108604000D02*
X119120000Y-107544000D01*
X117309000Y-109585000D02*
X118058000Y-109374000D01*
X114870000Y-107400000D02*
X111030000Y-107400000D01*
X114870000Y-106625000D02*
X114870000Y-107400000D01*
D39*
X112580000Y-109650000D02*
X113132000Y-109650000D01*
D43*
X114870000Y-105275000D02*
X114870000Y-106625000D01*
%TO.N,/PWR_LED_K*%
D42*
X109620000Y-105170000D02*
X109952600Y-105502600D01*
X109952600Y-105502600D02*
X110036300Y-105502600D01*
X110062300Y-107126900D02*
X110062300Y-107355300D01*
X110062300Y-107355300D02*
X110870000Y-108163000D01*
D45*
X110062300Y-105528600D02*
X110062300Y-107126900D01*
X110036300Y-105502600D02*
X110062300Y-105528600D01*
%TO.N,/HSE_IN*%
D42*
X115995000Y-120600000D02*
X115995000Y-120362500D01*
D39*
X113150000Y-123880000D02*
X112545000Y-123880000D01*
X113150000Y-124050000D02*
X114145000Y-124050000D01*
X115995000Y-121350000D02*
X113150000Y-121350000D01*
X113150000Y-121350000D02*
X113150000Y-124050000D01*
X115995000Y-120600000D02*
X115995000Y-121350000D01*
%TO.N,/HSE_OUT*%
X116495000Y-120600000D02*
X116495000Y-122350000D01*
X116345000Y-122350000D02*
X117340000Y-122350000D01*
D42*
X116495000Y-120600000D02*
X116495000Y-120362500D01*
D39*
X116495000Y-122350000D02*
X116345000Y-122350000D01*
X117340000Y-122350000D02*
X117340000Y-123680000D01*
X117340000Y-123680000D02*
X117945000Y-123680000D01*
%TO.N,/USB_D+*%
D42*
X115857500Y-108890000D02*
X117174000Y-108890000D01*
X117174000Y-108890000D02*
X117420000Y-108644000D01*
X114110000Y-109692000D02*
X114152000Y-109650000D01*
X115857500Y-110120000D02*
X115311400Y-110666100D01*
X115387500Y-109650000D02*
X115387500Y-109360000D01*
X115495000Y-111235500D02*
X115495000Y-112037500D01*
X115311400Y-111051900D02*
X115495000Y-111235500D01*
X115311400Y-110666100D02*
X115311400Y-111051900D01*
X117420000Y-108644000D02*
X117420000Y-106625000D01*
X115387500Y-109650000D02*
X115857500Y-110120000D01*
X114110000Y-110585000D02*
X114110000Y-109692000D01*
X115387500Y-109360000D02*
X115857500Y-108890000D01*
X115387500Y-109650000D02*
X114152000Y-109650000D01*
X115857500Y-108890000D02*
X115857500Y-108420000D01*
%TO.N,/NRST*%
X123942500Y-114310300D02*
X123358900Y-114310300D01*
X116995000Y-118744900D02*
X116258400Y-118008300D01*
X124450000Y-114817800D02*
X123942500Y-114310300D01*
X121984600Y-122340400D02*
X121245000Y-123080000D01*
X116258400Y-118008300D02*
X116205700Y-118008300D01*
X116995000Y-120362500D02*
X116995000Y-118744900D01*
X124450000Y-115460000D02*
X124450000Y-114817800D01*
%TO.N,/PC13*%
X104271500Y-108092500D02*
X104496500Y-107867500D01*
X110689600Y-105198000D02*
X110513000Y-105198000D01*
X114495000Y-119295600D02*
X114246000Y-119046600D01*
X102670000Y-121640000D02*
X101569300Y-120539300D01*
X103452700Y-107897800D02*
X103647400Y-108092500D01*
X102237900Y-107897800D02*
X103452700Y-107897800D01*
X103647400Y-108092500D02*
X104271500Y-108092500D01*
X111748000Y-106256400D02*
X110689600Y-105198000D01*
X101569300Y-108566400D02*
X102237900Y-107897800D01*
X104496500Y-107867500D02*
X107248100Y-107867500D01*
X114495000Y-120362500D02*
X114495000Y-119295600D01*
X101569300Y-120539300D02*
X101569300Y-108566400D01*
%TO.N,/PC14*%
X114995000Y-120362500D02*
X114995000Y-118999200D01*
X116001500Y-118701900D02*
X116225900Y-118926300D01*
X114995000Y-118999200D02*
X115292300Y-118701900D01*
X115292300Y-118701900D02*
X116001500Y-118701900D01*
%TO.N,/PC15*%
X115495000Y-120362500D02*
X115495000Y-119195800D01*
%TO.N,/PA8*%
X117495000Y-112037500D02*
X117495000Y-113136800D01*
X117495000Y-113136800D02*
X116318200Y-114313600D01*
%TO.N,/PA9*%
X115105200Y-114609800D02*
X114587200Y-114609800D01*
X116995000Y-112720000D02*
X115105200Y-114609800D01*
X116995000Y-112037500D02*
X116995000Y-112720000D01*
%TO.N,/PA10*%
X116495000Y-112707100D02*
X115165500Y-114036600D01*
X107359700Y-106009700D02*
X105210000Y-103860000D01*
X108055900Y-107979300D02*
X107359700Y-107283100D01*
X115165500Y-114036600D02*
X114274000Y-114036600D01*
X113054500Y-112678500D02*
X112029000Y-112678500D01*
X114274000Y-114036600D02*
X113571400Y-113334000D01*
X108055900Y-108434200D02*
X108055900Y-107979300D01*
X116495000Y-112037500D02*
X116495000Y-112707100D01*
X107359700Y-107283100D02*
X107359700Y-106009700D01*
X113571400Y-113334000D02*
X113571400Y-113195400D01*
X111299200Y-111948700D02*
X111299200Y-111677500D01*
X111299200Y-111677500D02*
X108055900Y-108434200D01*
X113571400Y-113195400D02*
X113054500Y-112678500D01*
X112029000Y-112678500D02*
X111299200Y-111948700D01*
%TO.N,/USB_D-*%
D39*
X116570000Y-106625000D02*
X117420000Y-105275000D01*
D45*
X116168900Y-111224900D02*
X116168900Y-111281600D01*
D42*
X115995000Y-111455500D02*
X115995000Y-112037500D01*
X116127700Y-111172100D02*
X116168900Y-111213400D01*
X116932500Y-108420000D02*
X116932500Y-106987500D01*
X116932500Y-106987500D02*
X116570000Y-106625000D01*
X116932500Y-110120000D02*
X116932500Y-110367300D01*
X115826400Y-110870900D02*
X116127700Y-111172100D01*
D45*
X116168900Y-111281600D02*
X116154000Y-111296500D01*
D42*
X116932500Y-110367300D02*
X116127700Y-111172100D01*
X116168900Y-111213400D02*
X116168900Y-111224900D01*
D45*
X116154000Y-111296500D02*
X115995000Y-111455500D01*
%TO.N,/PA13*%
D42*
X114995000Y-112037500D02*
X114995000Y-110477800D01*
X103940000Y-110210000D02*
X108761600Y-110210000D01*
X102670000Y-108940000D02*
X103940000Y-110210000D01*
X114995000Y-110477800D02*
X114814400Y-110297200D01*
%TO.N,/PA14*%
X110953600Y-112092500D02*
X112311100Y-113450000D01*
X112311100Y-113450000D02*
X112582500Y-113450000D01*
X108200100Y-108940000D02*
X110953600Y-111693500D01*
X105210000Y-108940000D02*
X108200100Y-108940000D01*
X110953600Y-111693500D02*
X110953600Y-112092500D01*
%TO.N,/PA15*%
X104078400Y-107531600D02*
X105210000Y-106400000D01*
X112582500Y-113950000D02*
X113224700Y-113950000D01*
X113224700Y-113950000D02*
X114506200Y-115231500D01*
X114506200Y-115231500D02*
X115013700Y-115231500D01*
%TO.N,/PB3*%
X111427500Y-113910700D02*
X109357300Y-113910700D01*
X109357300Y-113910700D02*
X108074700Y-112628100D01*
X108074700Y-112628100D02*
X103818100Y-112628100D01*
X111966800Y-114450000D02*
X111427500Y-113910700D01*
X112582500Y-114450000D02*
X111966800Y-114450000D01*
X103818100Y-112628100D02*
X102670000Y-111480000D01*
%TO.N,/PB4*%
X111131100Y-114166400D02*
X109251400Y-114166400D01*
X108014400Y-112929400D02*
X103760600Y-112929400D01*
X111914700Y-114950000D02*
X111131100Y-114166400D01*
X103760600Y-112929400D02*
X102670000Y-114020000D01*
X109251400Y-114166400D02*
X108014400Y-112929400D01*
X112582500Y-114950000D02*
X111914700Y-114950000D01*
%TO.N,/PB5*%
X105612100Y-114422100D02*
X105210000Y-114020000D01*
X111762600Y-115450000D02*
X110734700Y-114422100D01*
X110734700Y-114422100D02*
X105612100Y-114422100D01*
X112582500Y-115450000D02*
X111762600Y-115450000D01*
%TO.N,/BOOT0*%
X109580000Y-112200000D02*
X109580000Y-112842200D01*
X110240000Y-116950000D02*
X109280000Y-117910000D01*
X109580000Y-112842200D02*
X110582100Y-112842200D01*
X112582500Y-116950000D02*
X110240000Y-116950000D01*
X114379300Y-116950000D02*
X114532000Y-116797300D01*
X110582100Y-112842200D02*
X110719000Y-112979100D01*
X112582500Y-116950000D02*
X114379300Y-116950000D01*
%TO.N,/PB8*%
X112582500Y-117450000D02*
X111415700Y-117450000D01*
%TO.N,/PB9*%
X105210000Y-119100000D02*
X107020700Y-117289300D01*
X110895600Y-117950000D02*
X112582500Y-117950000D01*
X107020700Y-117289300D02*
X107673600Y-117289300D01*
X110673700Y-117728100D02*
X110895600Y-117950000D01*
%TO.N,/VBUS_D*%
D40*
X122975000Y-103650000D02*
X122975000Y-104795000D01*
X120595000Y-103650000D02*
X122975000Y-103650000D01*
X108968000Y-106700000D02*
X108000000Y-106700000D01*
X108000000Y-106700000D02*
X108000000Y-103650000D01*
X108000000Y-103650000D02*
X113395000Y-103650000D01*
%TO.N,/VSYS*%
D43*
X122460000Y-108650000D02*
X121983000Y-108650000D01*
X122460000Y-107858000D02*
X122460000Y-109950000D01*
X121983000Y-108650000D02*
X121982500Y-108650000D01*
X122975000Y-107343000D02*
X122460000Y-107858000D01*
X121983000Y-109950000D02*
X121982500Y-109950000D01*
X122975000Y-106895000D02*
X122975000Y-107343000D01*
X123337500Y-108405000D02*
X123337000Y-108405000D01*
X122975000Y-107343000D02*
X123337000Y-107705000D01*
X123337000Y-107705000D02*
X123337000Y-108405000D01*
X122460000Y-109950000D02*
X121983000Y-109950000D01*
X122460000Y-109830000D02*
X122920000Y-109830000D01*
%TO.N,/USER_LED_K*%
D45*
X109158800Y-105549800D02*
X109158800Y-104786000D01*
D42*
X110986900Y-104903700D02*
X111281200Y-105198000D01*
X109561700Y-104510300D02*
X109651700Y-104420300D01*
D45*
X109286000Y-104658800D02*
X109413200Y-104658800D01*
D42*
X109417300Y-105808300D02*
X109719800Y-106110800D01*
X109651700Y-104420300D02*
X110503500Y-104420300D01*
D45*
X109413200Y-104658800D02*
X109561700Y-104510300D01*
D42*
X110393300Y-109620000D02*
X111008000Y-109620000D01*
D45*
X109417300Y-105808300D02*
X109158800Y-105549800D01*
D42*
X109719800Y-108946500D02*
X110393300Y-109620000D01*
X109158800Y-104786000D02*
X109286000Y-104658800D01*
D45*
X110503500Y-104420300D02*
X110986900Y-104903700D01*
D42*
X109719800Y-106110800D02*
X109719800Y-108946500D01*
X111281200Y-105198000D02*
X111533000Y-105198000D01*
%TO.N,/USB_CC1*%
X126193500Y-109296500D02*
X126193500Y-105866600D01*
X125600000Y-109890000D02*
X126193500Y-109296500D01*
%TO.N,/USB_CC2*%
X114951600Y-108782000D02*
X114358000Y-108782000D01*
X114358000Y-108782000D02*
X114238000Y-108662000D01*
%TO.N,/5V_F*%
D43*
X125213000Y-107510000D02*
X125680000Y-107058000D01*
X125212500Y-108405000D02*
X125213000Y-108405000D01*
X125680000Y-107058000D02*
X125680000Y-106592000D01*
X125213000Y-108405000D02*
X125213000Y-107510000D01*
%TD*%
%TA.AperFunction,Conductor*%
%TO.N,GND*%
G36*
X101586847Y-100319407D02*
G01*
X101622811Y-100368907D01*
X101625753Y-100418816D01*
X101619500Y-100450244D01*
X101619500Y-102189746D01*
X101619501Y-102189758D01*
X101631132Y-102248227D01*
X101631133Y-102248231D01*
X101675448Y-102314552D01*
X101741769Y-102358867D01*
X101778851Y-102366243D01*
X101800241Y-102370498D01*
X101800246Y-102370498D01*
X101800252Y-102370500D01*
X101800253Y-102370500D01*
X103539747Y-102370500D01*
X103539748Y-102370500D01*
X103598231Y-102358867D01*
X103664552Y-102314552D01*
X103708867Y-102248231D01*
X103720500Y-102189748D01*
X103720500Y-100450252D01*
X103720499Y-100450250D01*
X103720499Y-100450244D01*
X103714247Y-100418816D01*
X103721437Y-100358055D01*
X103762969Y-100313124D01*
X103811344Y-100300500D01*
X127638656Y-100300500D01*
X127696847Y-100319407D01*
X127732811Y-100368907D01*
X127735753Y-100418816D01*
X127729500Y-100450244D01*
X127729500Y-100933464D01*
X127710593Y-100991655D01*
X127680001Y-101019200D01*
X127644790Y-101039529D01*
X124749529Y-103934789D01*
X124726024Y-103975501D01*
X124703386Y-104014710D01*
X124679500Y-104103857D01*
X124679500Y-104222067D01*
X124661597Y-104278850D01*
X124657151Y-104285199D01*
X124657150Y-104285200D01*
X124657150Y-104285201D01*
X124610501Y-104385240D01*
X124609243Y-104394800D01*
X124604500Y-104430822D01*
X124604500Y-105204174D01*
X124604501Y-105204184D01*
X124610500Y-105249759D01*
X124610500Y-105249761D01*
X124657148Y-105349796D01*
X124657149Y-105349797D01*
X124657150Y-105349799D01*
X124735201Y-105427850D01*
X124835240Y-105474499D01*
X124880821Y-105480500D01*
X125179178Y-105480499D01*
X125224760Y-105474499D01*
X125224761Y-105474499D01*
X125278673Y-105449358D01*
X125324799Y-105427850D01*
X125402850Y-105349799D01*
X125449499Y-105249760D01*
X125455500Y-105204179D01*
X125455499Y-104430822D01*
X125449499Y-104385240D01*
X125428211Y-104339589D01*
X125420756Y-104278861D01*
X125447931Y-104227749D01*
X125919148Y-103756532D01*
X127729500Y-103756532D01*
X127729500Y-103963467D01*
X127769869Y-104166418D01*
X127849058Y-104357597D01*
X127964020Y-104529651D01*
X127964023Y-104529655D01*
X128110345Y-104675977D01*
X128282402Y-104790941D01*
X128473580Y-104870130D01*
X128676535Y-104910500D01*
X128676536Y-104910500D01*
X128883464Y-104910500D01*
X128883465Y-104910500D01*
X129086420Y-104870130D01*
X129277598Y-104790941D01*
X129449655Y-104675977D01*
X129595977Y-104529655D01*
X129710941Y-104357598D01*
X129790130Y-104166420D01*
X129830500Y-103963465D01*
X129830500Y-103756535D01*
X129830499Y-103756532D01*
X130269500Y-103756532D01*
X130269500Y-103963467D01*
X130309869Y-104166418D01*
X130389058Y-104357597D01*
X130504020Y-104529651D01*
X130504023Y-104529655D01*
X130650345Y-104675977D01*
X130822402Y-104790941D01*
X131013580Y-104870130D01*
X131216535Y-104910500D01*
X131216536Y-104910500D01*
X131423464Y-104910500D01*
X131423465Y-104910500D01*
X131626420Y-104870130D01*
X131817598Y-104790941D01*
X131989655Y-104675977D01*
X132135977Y-104529655D01*
X132250941Y-104357598D01*
X132330130Y-104166420D01*
X132370500Y-103963465D01*
X132370500Y-103756535D01*
X132330130Y-103553580D01*
X132250941Y-103362402D01*
X132135977Y-103190345D01*
X131989655Y-103044023D01*
X131871388Y-102965000D01*
X131817597Y-102929058D01*
X131626418Y-102849869D01*
X131423467Y-102809500D01*
X131423465Y-102809500D01*
X131216535Y-102809500D01*
X131216532Y-102809500D01*
X131013581Y-102849869D01*
X130822402Y-102929058D01*
X130650348Y-103044020D01*
X130504020Y-103190348D01*
X130389058Y-103362402D01*
X130309869Y-103553581D01*
X130269500Y-103756532D01*
X129830499Y-103756532D01*
X129790130Y-103553580D01*
X129710941Y-103362402D01*
X129595977Y-103190345D01*
X129449655Y-103044023D01*
X129331388Y-102965000D01*
X129277597Y-102929058D01*
X129086418Y-102849869D01*
X128883467Y-102809500D01*
X128883465Y-102809500D01*
X128676535Y-102809500D01*
X128676532Y-102809500D01*
X128473581Y-102849869D01*
X128282402Y-102929058D01*
X128110348Y-103044020D01*
X127964020Y-103190348D01*
X127849058Y-103362402D01*
X127769869Y-103553581D01*
X127729500Y-103756532D01*
X125919148Y-103756532D01*
X127560496Y-102115185D01*
X127615013Y-102087408D01*
X127675445Y-102096979D01*
X127718710Y-102140244D01*
X127729500Y-102185189D01*
X127729500Y-102189746D01*
X127729501Y-102189758D01*
X127741132Y-102248227D01*
X127741133Y-102248231D01*
X127785448Y-102314552D01*
X127851769Y-102358867D01*
X127888851Y-102366243D01*
X127910241Y-102370498D01*
X127910246Y-102370498D01*
X127910252Y-102370500D01*
X127910253Y-102370500D01*
X129649747Y-102370500D01*
X129649748Y-102370500D01*
X129708231Y-102358867D01*
X129774552Y-102314552D01*
X129818867Y-102248231D01*
X129830500Y-102189748D01*
X129830500Y-100450252D01*
X129830499Y-100450250D01*
X129830499Y-100450244D01*
X129824247Y-100418816D01*
X129831437Y-100358055D01*
X129872969Y-100313124D01*
X129921344Y-100300500D01*
X133442406Y-100300500D01*
X133482210Y-100300500D01*
X133497696Y-100301719D01*
X133512753Y-100304103D01*
X133536162Y-100307811D01*
X133565614Y-100317379D01*
X133593294Y-100331483D01*
X133618347Y-100349685D01*
X133640314Y-100371652D01*
X133658517Y-100396707D01*
X133672618Y-100424381D01*
X133682188Y-100453835D01*
X133688281Y-100492301D01*
X133689500Y-100507789D01*
X133689500Y-124992208D01*
X133688281Y-125007697D01*
X133682188Y-125046161D01*
X133672618Y-125075614D01*
X133658519Y-125103287D01*
X133640312Y-125128349D01*
X133618349Y-125150312D01*
X133593287Y-125168519D01*
X133565614Y-125182618D01*
X133536162Y-125192188D01*
X133514537Y-125195613D01*
X133497692Y-125198281D01*
X133482209Y-125199500D01*
X132011421Y-125199500D01*
X131953230Y-125180593D01*
X131917266Y-125131093D01*
X131917266Y-125069907D01*
X131953230Y-125020407D01*
X131956420Y-125018184D01*
X131965152Y-125012348D01*
X131989655Y-124995977D01*
X132135977Y-124849655D01*
X132250941Y-124677598D01*
X132330130Y-124486420D01*
X132370500Y-124283465D01*
X132370500Y-124076535D01*
X132330130Y-123873580D01*
X132250941Y-123682402D01*
X132135977Y-123510345D01*
X131989655Y-123364023D01*
X131989651Y-123364020D01*
X131817597Y-123249058D01*
X131626418Y-123169869D01*
X131423467Y-123129500D01*
X131423465Y-123129500D01*
X131216535Y-123129500D01*
X131216532Y-123129500D01*
X131013580Y-123169870D01*
X131013578Y-123169870D01*
X130877596Y-123226196D01*
X130816600Y-123230997D01*
X130769707Y-123204736D01*
X130379496Y-122814525D01*
X130351719Y-122760008D01*
X130350500Y-122744521D01*
X130350500Y-122395139D01*
X130369407Y-122336948D01*
X130418907Y-122300984D01*
X130480093Y-122300984D01*
X130519501Y-122325133D01*
X130650345Y-122455977D01*
X130822402Y-122570941D01*
X131013580Y-122650130D01*
X131216535Y-122690500D01*
X131216536Y-122690500D01*
X131423464Y-122690500D01*
X131423465Y-122690500D01*
X131626420Y-122650130D01*
X131817598Y-122570941D01*
X131989655Y-122455977D01*
X132135977Y-122309655D01*
X132250941Y-122137598D01*
X132330130Y-121946420D01*
X132370500Y-121743465D01*
X132370500Y-121536535D01*
X132330130Y-121333580D01*
X132250941Y-121142402D01*
X132135977Y-120970345D01*
X131989655Y-120824023D01*
X131989651Y-120824020D01*
X131817597Y-120709058D01*
X131626418Y-120629869D01*
X131423467Y-120589500D01*
X131423465Y-120589500D01*
X131216535Y-120589500D01*
X131216532Y-120589500D01*
X131013581Y-120629869D01*
X130822402Y-120709058D01*
X130650348Y-120824020D01*
X130504020Y-120970348D01*
X130393720Y-121135426D01*
X130345670Y-121173306D01*
X130284532Y-121175708D01*
X130241400Y-121150429D01*
X130234511Y-121143540D01*
X129753971Y-120663000D01*
X129269568Y-120178597D01*
X129241793Y-120124083D01*
X129251364Y-120063651D01*
X129284571Y-120026281D01*
X129449655Y-119915977D01*
X129595977Y-119769655D01*
X129710941Y-119597598D01*
X129790130Y-119406420D01*
X129830500Y-119203465D01*
X129830500Y-118996535D01*
X129830499Y-118996532D01*
X130269500Y-118996532D01*
X130269500Y-119203467D01*
X130309869Y-119406418D01*
X130389058Y-119597597D01*
X130503128Y-119768316D01*
X130504023Y-119769655D01*
X130650345Y-119915977D01*
X130822402Y-120030941D01*
X131013580Y-120110130D01*
X131216535Y-120150500D01*
X131216536Y-120150500D01*
X131423464Y-120150500D01*
X131423465Y-120150500D01*
X131626420Y-120110130D01*
X131817598Y-120030941D01*
X131989655Y-119915977D01*
X132135977Y-119769655D01*
X132250941Y-119597598D01*
X132330130Y-119406420D01*
X132370500Y-119203465D01*
X132370500Y-118996535D01*
X132330130Y-118793580D01*
X132250941Y-118602402D01*
X132135977Y-118430345D01*
X131989655Y-118284023D01*
X131988940Y-118283545D01*
X131817597Y-118169058D01*
X131626418Y-118089869D01*
X131423467Y-118049500D01*
X131423465Y-118049500D01*
X131216535Y-118049500D01*
X131216532Y-118049500D01*
X131013581Y-118089869D01*
X130822402Y-118169058D01*
X130650348Y-118284020D01*
X130504020Y-118430348D01*
X130389058Y-118602402D01*
X130309869Y-118793581D01*
X130269500Y-118996532D01*
X129830499Y-118996532D01*
X129790130Y-118793580D01*
X129710941Y-118602402D01*
X129595977Y-118430345D01*
X129449655Y-118284023D01*
X129448940Y-118283545D01*
X129277597Y-118169058D01*
X129086418Y-118089869D01*
X128883467Y-118049500D01*
X128883465Y-118049500D01*
X128676535Y-118049500D01*
X128676532Y-118049500D01*
X128473581Y-118089869D01*
X128282402Y-118169058D01*
X128110348Y-118284020D01*
X127964020Y-118430348D01*
X127849058Y-118602402D01*
X127769869Y-118793581D01*
X127729500Y-118996532D01*
X127729500Y-119203467D01*
X127769869Y-119406418D01*
X127849058Y-119597597D01*
X127963128Y-119768316D01*
X127964023Y-119769655D01*
X128110345Y-119915977D01*
X128110348Y-119915979D01*
X128117840Y-119920985D01*
X128155718Y-119969036D01*
X128158120Y-120030174D01*
X128124126Y-120081047D01*
X128066722Y-120102224D01*
X128062837Y-120102300D01*
X126118279Y-120102300D01*
X126060088Y-120083393D01*
X126048275Y-120073304D01*
X125904496Y-119929525D01*
X125876719Y-119875008D01*
X125875500Y-119859521D01*
X125875500Y-119309000D01*
X125894407Y-119250809D01*
X125943907Y-119214845D01*
X125945388Y-119214610D01*
X125949999Y-119210000D01*
X125950000Y-119210000D01*
X125950000Y-118872947D01*
X125968907Y-118814756D01*
X126018407Y-118778792D01*
X126023345Y-118777329D01*
X126075638Y-118763318D01*
X126149862Y-118720465D01*
X126210465Y-118659862D01*
X126253318Y-118585638D01*
X126275500Y-118502853D01*
X126275500Y-117417147D01*
X126253318Y-117334362D01*
X126210465Y-117260138D01*
X126149862Y-117199535D01*
X126075638Y-117156682D01*
X126023376Y-117142678D01*
X125972062Y-117109354D01*
X125950136Y-117052233D01*
X125950000Y-117047052D01*
X125950000Y-116838477D01*
X125968907Y-116780286D01*
X125978997Y-116768473D01*
X126143356Y-116604114D01*
X126290939Y-116456532D01*
X127729500Y-116456532D01*
X127729500Y-116663467D01*
X127769869Y-116866418D01*
X127849058Y-117057597D01*
X127961997Y-117226623D01*
X127964023Y-117229655D01*
X128110345Y-117375977D01*
X128282402Y-117490941D01*
X128473580Y-117570130D01*
X128676535Y-117610500D01*
X128676536Y-117610500D01*
X128883464Y-117610500D01*
X128883465Y-117610500D01*
X129086420Y-117570130D01*
X129277598Y-117490941D01*
X129449655Y-117375977D01*
X129595977Y-117229655D01*
X129710941Y-117057598D01*
X129790130Y-116866420D01*
X129830500Y-116663465D01*
X129830500Y-116456535D01*
X129830499Y-116456532D01*
X130269500Y-116456532D01*
X130269500Y-116663467D01*
X130309869Y-116866418D01*
X130389058Y-117057597D01*
X130501997Y-117226623D01*
X130504023Y-117229655D01*
X130650345Y-117375977D01*
X130822402Y-117490941D01*
X131013580Y-117570130D01*
X131216535Y-117610500D01*
X131216536Y-117610500D01*
X131423464Y-117610500D01*
X131423465Y-117610500D01*
X131626420Y-117570130D01*
X131817598Y-117490941D01*
X131989655Y-117375977D01*
X132135977Y-117229655D01*
X132250941Y-117057598D01*
X132330130Y-116866420D01*
X132370500Y-116663465D01*
X132370500Y-116456535D01*
X132330130Y-116253580D01*
X132250941Y-116062402D01*
X132135977Y-115890345D01*
X131989655Y-115744023D01*
X131949175Y-115716975D01*
X131817597Y-115629058D01*
X131626418Y-115549869D01*
X131423467Y-115509500D01*
X131423465Y-115509500D01*
X131216535Y-115509500D01*
X131216532Y-115509500D01*
X131013581Y-115549869D01*
X130822402Y-115629058D01*
X130650348Y-115744020D01*
X130504020Y-115890348D01*
X130389058Y-116062402D01*
X130309869Y-116253581D01*
X130269500Y-116456532D01*
X129830499Y-116456532D01*
X129790130Y-116253580D01*
X129710941Y-116062402D01*
X129595977Y-115890345D01*
X129449655Y-115744023D01*
X129409175Y-115716975D01*
X129277597Y-115629058D01*
X129086418Y-115549869D01*
X128883467Y-115509500D01*
X128883465Y-115509500D01*
X128676535Y-115509500D01*
X128676532Y-115509500D01*
X128473581Y-115549869D01*
X128282402Y-115629058D01*
X128110348Y-115744020D01*
X127964020Y-115890348D01*
X127849058Y-116062402D01*
X127769869Y-116253581D01*
X127729500Y-116456532D01*
X126290939Y-116456532D01*
X126345760Y-116401711D01*
X126359265Y-116378320D01*
X126385321Y-116333189D01*
X126405800Y-116256762D01*
X126405800Y-115829521D01*
X126424707Y-115771330D01*
X126434790Y-115759523D01*
X126505800Y-115688514D01*
X126506521Y-115687266D01*
X126571690Y-115574390D01*
X126571690Y-115574388D01*
X126571692Y-115574386D01*
X126605800Y-115447092D01*
X126605800Y-115315308D01*
X126571692Y-115188014D01*
X126571690Y-115188011D01*
X126571690Y-115188009D01*
X126505803Y-115073890D01*
X126505801Y-115073888D01*
X126505800Y-115073886D01*
X126412614Y-114980700D01*
X126412611Y-114980698D01*
X126412609Y-114980696D01*
X126298489Y-114914809D01*
X126298491Y-114914809D01*
X126242736Y-114899870D01*
X126171192Y-114880700D01*
X126039408Y-114880700D01*
X125967864Y-114899870D01*
X125912109Y-114914809D01*
X125909521Y-114916304D01*
X125907427Y-114916748D01*
X125906116Y-114917292D01*
X125906015Y-114917048D01*
X125849672Y-114929021D01*
X125793778Y-114904131D01*
X125768563Y-114868449D01*
X125758719Y-114844684D01*
X125731908Y-114779956D01*
X125706176Y-114754224D01*
X125679695Y-114727742D01*
X125651918Y-114673225D01*
X125651546Y-114644814D01*
X125652298Y-114639095D01*
X125652300Y-114639092D01*
X125652300Y-114507308D01*
X125618192Y-114380014D01*
X125618190Y-114380011D01*
X125618190Y-114380009D01*
X125552303Y-114265890D01*
X125552301Y-114265888D01*
X125552300Y-114265886D01*
X125459114Y-114172700D01*
X125459111Y-114172698D01*
X125459109Y-114172696D01*
X125344989Y-114106809D01*
X125344991Y-114106809D01*
X125281111Y-114089693D01*
X125217692Y-114072700D01*
X125085908Y-114072700D01*
X125085905Y-114072700D01*
X125068421Y-114077385D01*
X125007319Y-114074182D01*
X124959770Y-114035675D01*
X124943936Y-113976574D01*
X124965864Y-113919453D01*
X124968494Y-113916532D01*
X127729500Y-113916532D01*
X127729500Y-114123467D01*
X127769869Y-114326418D01*
X127849058Y-114517597D01*
X127962462Y-114687319D01*
X127964023Y-114689655D01*
X128110345Y-114835977D01*
X128282402Y-114950941D01*
X128473580Y-115030130D01*
X128676535Y-115070500D01*
X128676536Y-115070500D01*
X128883464Y-115070500D01*
X128883465Y-115070500D01*
X129086420Y-115030130D01*
X129277598Y-114950941D01*
X129449655Y-114835977D01*
X129595977Y-114689655D01*
X129710941Y-114517598D01*
X129790130Y-114326420D01*
X129830500Y-114123465D01*
X129830500Y-113916535D01*
X129830499Y-113916532D01*
X130269500Y-113916532D01*
X130269500Y-114123467D01*
X130309869Y-114326418D01*
X130389058Y-114517597D01*
X130502462Y-114687319D01*
X130504023Y-114689655D01*
X130650345Y-114835977D01*
X130822402Y-114950941D01*
X131013580Y-115030130D01*
X131216535Y-115070500D01*
X131216536Y-115070500D01*
X131423464Y-115070500D01*
X131423465Y-115070500D01*
X131626420Y-115030130D01*
X131817598Y-114950941D01*
X131989655Y-114835977D01*
X132135977Y-114689655D01*
X132250941Y-114517598D01*
X132330130Y-114326420D01*
X132370500Y-114123465D01*
X132370500Y-113916535D01*
X132330130Y-113713580D01*
X132250941Y-113522402D01*
X132135977Y-113350345D01*
X131989655Y-113204023D01*
X131982328Y-113199127D01*
X131817597Y-113089058D01*
X131626418Y-113009869D01*
X131423467Y-112969500D01*
X131423465Y-112969500D01*
X131216535Y-112969500D01*
X131216532Y-112969500D01*
X131013581Y-113009869D01*
X130822402Y-113089058D01*
X130650348Y-113204020D01*
X130504020Y-113350348D01*
X130389058Y-113522402D01*
X130309869Y-113713581D01*
X130269500Y-113916532D01*
X129830499Y-113916532D01*
X129790130Y-113713580D01*
X129710941Y-113522402D01*
X129595977Y-113350345D01*
X129449655Y-113204023D01*
X129442328Y-113199127D01*
X129277597Y-113089058D01*
X129086418Y-113009869D01*
X128883467Y-112969500D01*
X128883465Y-112969500D01*
X128676535Y-112969500D01*
X128676532Y-112969500D01*
X128473581Y-113009869D01*
X128282402Y-113089058D01*
X128110348Y-113204020D01*
X127964020Y-113350348D01*
X127849058Y-113522402D01*
X127769869Y-113713581D01*
X127729500Y-113916532D01*
X124968494Y-113916532D01*
X124972777Y-113911774D01*
X127560498Y-111324053D01*
X127615013Y-111296278D01*
X127675445Y-111305849D01*
X127718710Y-111349114D01*
X127729500Y-111394059D01*
X127729500Y-111583467D01*
X127769869Y-111786418D01*
X127849058Y-111977597D01*
X127949990Y-112128653D01*
X127964023Y-112149655D01*
X128110345Y-112295977D01*
X128282402Y-112410941D01*
X128473580Y-112490130D01*
X128676535Y-112530500D01*
X128676536Y-112530500D01*
X128883464Y-112530500D01*
X128883465Y-112530500D01*
X129086420Y-112490130D01*
X129277598Y-112410941D01*
X129449655Y-112295977D01*
X129595977Y-112149655D01*
X129710941Y-111977598D01*
X129790130Y-111786420D01*
X129830500Y-111583465D01*
X129830500Y-111376535D01*
X129830499Y-111376532D01*
X130269500Y-111376532D01*
X130269500Y-111583467D01*
X130309869Y-111786418D01*
X130389058Y-111977597D01*
X130489990Y-112128653D01*
X130504023Y-112149655D01*
X130650345Y-112295977D01*
X130822402Y-112410941D01*
X131013580Y-112490130D01*
X131216535Y-112530500D01*
X131216536Y-112530500D01*
X131423464Y-112530500D01*
X131423465Y-112530500D01*
X131626420Y-112490130D01*
X131817598Y-112410941D01*
X131989655Y-112295977D01*
X132135977Y-112149655D01*
X132250941Y-111977598D01*
X132330130Y-111786420D01*
X132370500Y-111583465D01*
X132370500Y-111376535D01*
X132330130Y-111173580D01*
X132250941Y-110982402D01*
X132135977Y-110810345D01*
X131989655Y-110664023D01*
X131949175Y-110636975D01*
X131817597Y-110549058D01*
X131626418Y-110469869D01*
X131423467Y-110429500D01*
X131423465Y-110429500D01*
X131216535Y-110429500D01*
X131216532Y-110429500D01*
X131013581Y-110469869D01*
X130822402Y-110549058D01*
X130650348Y-110664020D01*
X130504020Y-110810348D01*
X130389058Y-110982402D01*
X130309869Y-111173581D01*
X130269500Y-111376532D01*
X129830499Y-111376532D01*
X129790130Y-111173580D01*
X129710941Y-110982402D01*
X129595977Y-110810345D01*
X129449655Y-110664023D01*
X129436624Y-110655316D01*
X129398744Y-110607266D01*
X129396342Y-110546128D01*
X129430334Y-110495254D01*
X129487738Y-110474076D01*
X129491625Y-110474000D01*
X130102512Y-110474000D01*
X130102513Y-110474000D01*
X130199544Y-110433808D01*
X130733208Y-109900142D01*
X130787723Y-109872367D01*
X130841094Y-109878683D01*
X131013580Y-109950130D01*
X131216535Y-109990500D01*
X131216536Y-109990500D01*
X131423464Y-109990500D01*
X131423465Y-109990500D01*
X131626420Y-109950130D01*
X131817598Y-109870941D01*
X131989655Y-109755977D01*
X132135977Y-109609655D01*
X132250941Y-109437598D01*
X132330130Y-109246420D01*
X132370500Y-109043465D01*
X132370500Y-108836535D01*
X132330130Y-108633580D01*
X132250941Y-108442402D01*
X132135977Y-108270345D01*
X131989655Y-108124023D01*
X131989651Y-108124020D01*
X131817597Y-108009058D01*
X131626418Y-107929869D01*
X131423467Y-107889500D01*
X131423465Y-107889500D01*
X131216535Y-107889500D01*
X131216532Y-107889500D01*
X131013581Y-107929869D01*
X130822402Y-108009058D01*
X130650348Y-108124020D01*
X130504020Y-108270348D01*
X130389058Y-108442402D01*
X130309869Y-108633581D01*
X130269500Y-108836532D01*
X130269500Y-109043467D01*
X130309869Y-109246418D01*
X130340141Y-109319500D01*
X130362465Y-109373396D01*
X130381315Y-109418902D01*
X130386116Y-109479899D01*
X130359855Y-109526791D01*
X129969645Y-109917003D01*
X129915128Y-109944781D01*
X129899641Y-109946000D01*
X129491625Y-109946000D01*
X129433434Y-109927093D01*
X129397470Y-109877593D01*
X129397470Y-109816407D01*
X129433434Y-109766907D01*
X129436624Y-109764684D01*
X129437102Y-109764364D01*
X129449655Y-109755977D01*
X129595977Y-109609655D01*
X129710941Y-109437598D01*
X129790130Y-109246420D01*
X129830500Y-109043465D01*
X129830500Y-108836535D01*
X129790130Y-108633580D01*
X129710941Y-108442402D01*
X129595977Y-108270345D01*
X129449655Y-108124023D01*
X129449651Y-108124020D01*
X129277597Y-108009058D01*
X129086418Y-107929869D01*
X128883467Y-107889500D01*
X128883465Y-107889500D01*
X128676535Y-107889500D01*
X128676532Y-107889500D01*
X128473581Y-107929869D01*
X128282402Y-108009058D01*
X128110348Y-108124020D01*
X127964020Y-108270348D01*
X127849058Y-108442402D01*
X127769869Y-108633581D01*
X127729500Y-108836532D01*
X127729500Y-109043467D01*
X127769869Y-109246418D01*
X127849058Y-109437597D01*
X127959902Y-109603488D01*
X127964023Y-109609655D01*
X127984955Y-109630587D01*
X128012731Y-109685102D01*
X128003160Y-109745534D01*
X127984954Y-109770593D01*
X125345444Y-112410104D01*
X125290927Y-112437881D01*
X125275440Y-112439100D01*
X123855987Y-112439100D01*
X123827563Y-112450872D01*
X123827562Y-112450871D01*
X123758960Y-112479289D01*
X123758956Y-112479291D01*
X122915255Y-113322993D01*
X122081244Y-114157004D01*
X122026727Y-114184781D01*
X122011240Y-114186000D01*
X121813059Y-114186000D01*
X121758057Y-114169315D01*
X121677498Y-114115487D01*
X121677496Y-114115486D01*
X121677495Y-114115485D01*
X121597133Y-114099500D01*
X120254777Y-114099500D01*
X120196586Y-114080593D01*
X120160622Y-114031093D01*
X120160622Y-113969907D01*
X120184774Y-113930496D01*
X120285776Y-113829495D01*
X120340292Y-113801718D01*
X120355779Y-113800499D01*
X121597130Y-113800499D01*
X121597132Y-113800499D01*
X121677495Y-113784515D01*
X121768624Y-113723624D01*
X121829515Y-113632495D01*
X121845500Y-113552133D01*
X121845499Y-113347868D01*
X121840551Y-113322993D01*
X121829515Y-113267505D01*
X121829514Y-113267503D01*
X121768626Y-113176379D01*
X121768624Y-113176376D01*
X121768620Y-113176373D01*
X121677497Y-113115486D01*
X121677496Y-113115485D01*
X121677495Y-113115485D01*
X121597133Y-113099500D01*
X121549500Y-113099500D01*
X121491309Y-113080593D01*
X121455345Y-113031093D01*
X121450500Y-113000500D01*
X121450500Y-112962047D01*
X121469407Y-112903856D01*
X121479490Y-112892049D01*
X121553224Y-112818316D01*
X121603972Y-112709487D01*
X121610500Y-112659901D01*
X121610499Y-112300100D01*
X121609550Y-112292894D01*
X121603972Y-112250513D01*
X121603972Y-112250511D01*
X121553225Y-112141686D01*
X121553224Y-112141685D01*
X121553224Y-112141684D01*
X121468316Y-112056776D01*
X121468314Y-112056775D01*
X121468313Y-112056774D01*
X121359489Y-112006029D01*
X121359488Y-112006028D01*
X121342958Y-112003852D01*
X121309901Y-111999500D01*
X121309899Y-111999500D01*
X120890103Y-111999500D01*
X120890092Y-111999501D01*
X120840513Y-112006027D01*
X120840511Y-112006027D01*
X120731686Y-112056774D01*
X120731683Y-112056776D01*
X120687955Y-112100504D01*
X120633438Y-112128281D01*
X120630273Y-112128530D01*
X120630290Y-112128653D01*
X120623858Y-112129499D01*
X120561194Y-112146290D01*
X120534712Y-112153386D01*
X120534711Y-112153386D01*
X120534709Y-112153387D01*
X120454789Y-112199529D01*
X120383814Y-112270504D01*
X120329297Y-112298281D01*
X120313811Y-112299500D01*
X120284108Y-112299500D01*
X120206200Y-112320375D01*
X120156809Y-112333609D01*
X120042690Y-112399496D01*
X120014502Y-112427684D01*
X119959985Y-112455460D01*
X119899553Y-112445888D01*
X119856289Y-112402623D01*
X119845499Y-112357682D01*
X119845499Y-111454719D01*
X119864406Y-111396529D01*
X119913906Y-111360565D01*
X119975092Y-111360565D01*
X120014500Y-111384714D01*
X120107086Y-111477300D01*
X120107088Y-111477301D01*
X120107090Y-111477303D01*
X120221210Y-111543190D01*
X120221208Y-111543190D01*
X120221212Y-111543191D01*
X120221214Y-111543192D01*
X120348508Y-111577300D01*
X120348510Y-111577300D01*
X120480290Y-111577300D01*
X120480292Y-111577300D01*
X120607586Y-111543192D01*
X120607588Y-111543190D01*
X120607590Y-111543190D01*
X120721709Y-111477303D01*
X120721709Y-111477302D01*
X120721714Y-111477300D01*
X120814900Y-111384114D01*
X120819276Y-111376535D01*
X120880790Y-111269990D01*
X120880790Y-111269988D01*
X120880792Y-111269986D01*
X120914900Y-111142692D01*
X120914900Y-111010908D01*
X120880792Y-110883614D01*
X120880790Y-110883611D01*
X120880790Y-110883609D01*
X120814903Y-110769490D01*
X120814901Y-110769488D01*
X120814900Y-110769486D01*
X120721714Y-110676300D01*
X120721711Y-110676298D01*
X120721709Y-110676296D01*
X120607589Y-110610409D01*
X120607591Y-110610409D01*
X120558199Y-110597175D01*
X120480292Y-110576300D01*
X120379200Y-110576300D01*
X120321009Y-110557393D01*
X120285045Y-110507893D01*
X120280200Y-110477300D01*
X120280200Y-110407409D01*
X120280200Y-110407408D01*
X120246092Y-110280114D01*
X120246090Y-110280111D01*
X120246090Y-110280109D01*
X120180203Y-110165990D01*
X120180201Y-110165988D01*
X120180200Y-110165986D01*
X120087014Y-110072800D01*
X120087011Y-110072798D01*
X120087009Y-110072796D01*
X119972889Y-110006909D01*
X119972891Y-110006909D01*
X119896792Y-109986519D01*
X119845592Y-109972800D01*
X119713808Y-109972800D01*
X119662608Y-109986519D01*
X119586509Y-110006909D01*
X119472390Y-110072796D01*
X119379197Y-110165989D01*
X119375686Y-110170566D01*
X119325263Y-110205223D01*
X119297143Y-110209300D01*
X118877987Y-110209300D01*
X118857573Y-110217756D01*
X118857571Y-110217757D01*
X118857571Y-110217756D01*
X118780956Y-110249490D01*
X117959941Y-111070504D01*
X117905425Y-111098281D01*
X117897691Y-111098891D01*
X117897705Y-111099024D01*
X117892872Y-111099499D01*
X117812505Y-111115484D01*
X117812501Y-111115486D01*
X117799999Y-111123840D01*
X117741111Y-111140447D01*
X117690001Y-111123840D01*
X117677496Y-111115485D01*
X117677495Y-111115484D01*
X117597134Y-111099500D01*
X117392870Y-111099500D01*
X117392862Y-111099501D01*
X117312505Y-111115484D01*
X117312501Y-111115486D01*
X117299999Y-111123840D01*
X117241111Y-111140447D01*
X117190001Y-111123840D01*
X117177496Y-111115485D01*
X117177495Y-111115484D01*
X117097134Y-111099500D01*
X116892870Y-111099500D01*
X116892860Y-111099501D01*
X116814476Y-111115092D01*
X116753715Y-111107899D01*
X116708786Y-111066366D01*
X116696850Y-111006356D01*
X116722467Y-110950791D01*
X116725135Y-110948015D01*
X117100898Y-110572252D01*
X117130910Y-110551695D01*
X117195422Y-110523211D01*
X117273211Y-110445422D01*
X117317646Y-110344786D01*
X117320500Y-110320185D01*
X117320499Y-110020866D01*
X117339406Y-109962677D01*
X117388906Y-109926713D01*
X117392651Y-109925577D01*
X117398512Y-109923925D01*
X117401323Y-109923133D01*
X117402500Y-109922810D01*
X117444288Y-109911614D01*
X117444289Y-109911613D01*
X117445156Y-109911381D01*
X117454326Y-109908201D01*
X117714035Y-109835040D01*
X117775171Y-109837460D01*
X117782717Y-109840607D01*
X117798504Y-109847968D01*
X117798513Y-109847972D01*
X117848099Y-109854500D01*
X118267900Y-109854499D01*
X118317487Y-109847972D01*
X118317488Y-109847972D01*
X118399990Y-109809500D01*
X118426316Y-109797224D01*
X118511224Y-109712316D01*
X118561972Y-109603487D01*
X118568500Y-109553901D01*
X118568499Y-109194100D01*
X118567038Y-109183004D01*
X118561972Y-109144513D01*
X118561972Y-109144511D01*
X118511225Y-109035686D01*
X118511224Y-109035685D01*
X118511224Y-109035684D01*
X118437494Y-108961954D01*
X118409719Y-108907440D01*
X118408500Y-108891953D01*
X118408500Y-108790437D01*
X118427407Y-108732246D01*
X118437557Y-108720372D01*
X118583563Y-108574641D01*
X118638105Y-108546916D01*
X118698528Y-108556545D01*
X118741752Y-108599850D01*
X118752500Y-108644712D01*
X118752500Y-108909895D01*
X118752501Y-108909907D01*
X118759027Y-108959486D01*
X118759027Y-108959488D01*
X118809774Y-109068313D01*
X118809775Y-109068314D01*
X118809776Y-109068316D01*
X118894684Y-109153224D01*
X119003513Y-109203972D01*
X119053099Y-109210500D01*
X119472900Y-109210499D01*
X119522487Y-109203972D01*
X119522488Y-109203972D01*
X119616004Y-109160364D01*
X119631316Y-109153224D01*
X119650497Y-109134042D01*
X119705011Y-109106265D01*
X119765443Y-109115835D01*
X119808709Y-109159099D01*
X119819500Y-109204046D01*
X119819500Y-109450180D01*
X119819500Y-109450182D01*
X119819501Y-109450184D01*
X119822354Y-109474786D01*
X119866789Y-109575422D01*
X119944578Y-109653211D01*
X120045214Y-109697646D01*
X120069815Y-109700500D01*
X120345184Y-109700499D01*
X120369786Y-109697646D01*
X120470422Y-109653211D01*
X120548211Y-109575422D01*
X120592646Y-109474786D01*
X120595500Y-109450185D01*
X120595499Y-109149816D01*
X120592646Y-109125214D01*
X120548211Y-109024578D01*
X120548209Y-109024576D01*
X120544505Y-109016186D01*
X120547799Y-109014731D01*
X120535286Y-108972276D01*
X120547371Y-108935079D01*
X120544505Y-108933814D01*
X120548209Y-108925423D01*
X120548211Y-108925422D01*
X120592646Y-108824786D01*
X120595500Y-108800185D01*
X120595499Y-108499816D01*
X120595498Y-108499808D01*
X121594500Y-108499808D01*
X121594500Y-108800180D01*
X121594500Y-108800182D01*
X121594501Y-108800184D01*
X121597354Y-108824786D01*
X121641789Y-108925422D01*
X121719578Y-109003211D01*
X121820214Y-109047646D01*
X121844815Y-109050500D01*
X122010500Y-109050499D01*
X122068690Y-109069406D01*
X122104654Y-109118906D01*
X122109500Y-109149499D01*
X122109500Y-109450500D01*
X122090593Y-109508691D01*
X122041093Y-109544655D01*
X122010501Y-109549500D01*
X121844819Y-109549500D01*
X121844816Y-109549501D01*
X121820214Y-109552354D01*
X121719578Y-109596789D01*
X121641789Y-109674578D01*
X121597353Y-109775216D01*
X121594500Y-109799808D01*
X121594500Y-110100180D01*
X121594500Y-110100182D01*
X121594501Y-110100184D01*
X121597354Y-110124786D01*
X121641789Y-110225422D01*
X121719578Y-110303211D01*
X121820214Y-110347646D01*
X121844815Y-110350500D01*
X122120184Y-110350499D01*
X122144786Y-110347646D01*
X122232459Y-110308934D01*
X122272445Y-110300500D01*
X122376072Y-110300500D01*
X122434263Y-110319407D01*
X122470227Y-110368907D01*
X122470227Y-110430093D01*
X122465798Y-110441333D01*
X122449027Y-110477300D01*
X122425933Y-110526825D01*
X122425932Y-110526827D01*
X122419500Y-110575684D01*
X122419500Y-111024316D01*
X122420116Y-111028994D01*
X122425932Y-111073174D01*
X122425932Y-111073175D01*
X122475933Y-111180401D01*
X122475934Y-111180402D01*
X122475935Y-111180404D01*
X122559596Y-111264065D01*
X122568839Y-111268375D01*
X122613586Y-111310100D01*
X122622426Y-111344280D01*
X122624097Y-111343948D01*
X122625999Y-111353513D01*
X122649599Y-111410487D01*
X122654400Y-111471483D01*
X122653763Y-111473992D01*
X122648400Y-111494008D01*
X122648400Y-111625792D01*
X122673132Y-111718093D01*
X122682509Y-111753090D01*
X122748396Y-111867209D01*
X122748398Y-111867211D01*
X122748400Y-111867214D01*
X122841586Y-111960400D01*
X122841588Y-111960401D01*
X122841590Y-111960403D01*
X122955710Y-112026290D01*
X122955708Y-112026290D01*
X122955712Y-112026291D01*
X122955714Y-112026292D01*
X123083008Y-112060400D01*
X123083010Y-112060400D01*
X123214790Y-112060400D01*
X123214792Y-112060400D01*
X123342086Y-112026292D01*
X123342088Y-112026290D01*
X123342090Y-112026290D01*
X123456209Y-111960403D01*
X123456209Y-111960402D01*
X123456214Y-111960400D01*
X123549400Y-111867214D01*
X123615292Y-111753086D01*
X123649400Y-111625792D01*
X123649400Y-111494008D01*
X123615292Y-111366714D01*
X123615290Y-111366711D01*
X123615290Y-111366709D01*
X123549403Y-111252590D01*
X123549401Y-111252588D01*
X123549400Y-111252586D01*
X123456214Y-111159400D01*
X123455384Y-111158921D01*
X123408020Y-111131575D01*
X123367079Y-111086106D01*
X123359368Y-111032912D01*
X123359884Y-111028994D01*
X123360500Y-111024316D01*
X123360500Y-110575684D01*
X123354068Y-110526827D01*
X123347496Y-110512734D01*
X123304066Y-110419598D01*
X123304065Y-110419597D01*
X123304065Y-110419596D01*
X123283005Y-110398536D01*
X123255230Y-110344022D01*
X123264801Y-110283590D01*
X123283005Y-110258534D01*
X123343224Y-110198316D01*
X123393972Y-110089487D01*
X123400500Y-110039901D01*
X123400499Y-109620100D01*
X123393972Y-109570513D01*
X123393972Y-109570511D01*
X123343225Y-109461685D01*
X123342944Y-109461284D01*
X123342764Y-109460698D01*
X123339564Y-109453834D01*
X123340528Y-109453384D01*
X123325055Y-109402772D01*
X123344975Y-109344920D01*
X123395096Y-109309826D01*
X123424040Y-109305500D01*
X123634770Y-109305500D01*
X123634772Y-109305499D01*
X123664774Y-109302686D01*
X123791179Y-109258455D01*
X123898930Y-109178930D01*
X123978455Y-109071179D01*
X124022686Y-108944774D01*
X124025499Y-108914772D01*
X124025500Y-108914770D01*
X124025500Y-107895230D01*
X124025499Y-107895226D01*
X124524500Y-107895226D01*
X124524500Y-108914773D01*
X124527313Y-108944768D01*
X124527315Y-108944777D01*
X124571543Y-109071175D01*
X124571544Y-109071176D01*
X124571545Y-109071179D01*
X124651070Y-109178930D01*
X124758821Y-109258455D01*
X124885226Y-109302686D01*
X124915226Y-109305499D01*
X124915230Y-109305500D01*
X125151024Y-109305500D01*
X125209215Y-109324407D01*
X125245179Y-109373907D01*
X125245179Y-109435093D01*
X125221028Y-109474504D01*
X125219597Y-109475934D01*
X125219596Y-109475935D01*
X125175044Y-109520487D01*
X125135933Y-109559598D01*
X125085932Y-109666824D01*
X125085932Y-109666825D01*
X125083642Y-109684222D01*
X125079500Y-109715684D01*
X125079500Y-110064316D01*
X125080617Y-110072800D01*
X125085932Y-110113174D01*
X125085932Y-110113175D01*
X125135933Y-110220401D01*
X125135934Y-110220402D01*
X125135935Y-110220404D01*
X125219596Y-110304065D01*
X125219597Y-110304065D01*
X125219598Y-110304066D01*
X125326824Y-110354067D01*
X125326825Y-110354067D01*
X125326827Y-110354068D01*
X125375684Y-110360500D01*
X125375685Y-110360500D01*
X125824314Y-110360500D01*
X125824316Y-110360500D01*
X125873173Y-110354068D01*
X125980404Y-110304065D01*
X126064065Y-110220404D01*
X126114068Y-110113173D01*
X126120500Y-110064316D01*
X126120500Y-109783859D01*
X126139407Y-109725668D01*
X126149497Y-109713855D01*
X126266563Y-109596789D01*
X126417309Y-109446044D01*
X126447401Y-109373394D01*
X126457500Y-109349013D01*
X126457500Y-106349156D01*
X126460264Y-106340646D01*
X126459036Y-106331783D01*
X126467857Y-106317276D01*
X126474598Y-106296532D01*
X127729500Y-106296532D01*
X127729500Y-106503467D01*
X127769869Y-106706418D01*
X127849058Y-106897597D01*
X127961052Y-107065209D01*
X127964023Y-107069655D01*
X128110345Y-107215977D01*
X128282402Y-107330941D01*
X128473580Y-107410130D01*
X128676535Y-107450500D01*
X128676536Y-107450500D01*
X128883464Y-107450500D01*
X128883465Y-107450500D01*
X129086420Y-107410130D01*
X129277598Y-107330941D01*
X129449655Y-107215977D01*
X129595977Y-107069655D01*
X129710941Y-106897598D01*
X129790130Y-106706420D01*
X129830500Y-106503465D01*
X129830500Y-106296535D01*
X129830499Y-106296532D01*
X130269500Y-106296532D01*
X130269500Y-106503467D01*
X130309869Y-106706418D01*
X130389058Y-106897597D01*
X130501052Y-107065209D01*
X130504023Y-107069655D01*
X130650345Y-107215977D01*
X130822402Y-107330941D01*
X131013580Y-107410130D01*
X131216535Y-107450500D01*
X131216536Y-107450500D01*
X131423464Y-107450500D01*
X131423465Y-107450500D01*
X131626420Y-107410130D01*
X131817598Y-107330941D01*
X131989655Y-107215977D01*
X132135977Y-107069655D01*
X132250941Y-106897598D01*
X132330130Y-106706420D01*
X132370500Y-106503465D01*
X132370500Y-106296535D01*
X132330130Y-106093580D01*
X132250941Y-105902402D01*
X132135977Y-105730345D01*
X131989655Y-105584023D01*
X131981246Y-105578404D01*
X131817597Y-105469058D01*
X131626418Y-105389869D01*
X131423467Y-105349500D01*
X131423465Y-105349500D01*
X131216535Y-105349500D01*
X131216532Y-105349500D01*
X131013581Y-105389869D01*
X130822402Y-105469058D01*
X130650348Y-105584020D01*
X130504020Y-105730348D01*
X130389058Y-105902402D01*
X130309869Y-106093581D01*
X130269500Y-106296532D01*
X129830499Y-106296532D01*
X129790130Y-106093580D01*
X129710941Y-105902402D01*
X129595977Y-105730345D01*
X129449655Y-105584023D01*
X129441246Y-105578404D01*
X129277597Y-105469058D01*
X129086418Y-105389869D01*
X128883467Y-105349500D01*
X128883465Y-105349500D01*
X128676535Y-105349500D01*
X128676532Y-105349500D01*
X128473581Y-105389869D01*
X128282402Y-105469058D01*
X128110348Y-105584020D01*
X127964020Y-105730348D01*
X127849058Y-105902402D01*
X127769869Y-106093581D01*
X127729500Y-106296532D01*
X126474598Y-106296532D01*
X126476407Y-106290965D01*
X126487862Y-106277813D01*
X126496270Y-106269723D01*
X126500814Y-106267100D01*
X126594000Y-106173914D01*
X126594418Y-106173190D01*
X126659890Y-106059790D01*
X126659890Y-106059788D01*
X126659892Y-106059786D01*
X126694000Y-105932492D01*
X126694000Y-105800708D01*
X126659892Y-105673414D01*
X126659890Y-105673411D01*
X126659890Y-105673409D01*
X126594003Y-105559290D01*
X126594001Y-105559288D01*
X126594000Y-105559286D01*
X126500814Y-105466100D01*
X126500811Y-105466098D01*
X126500809Y-105466096D01*
X126386689Y-105400209D01*
X126386691Y-105400209D01*
X126315246Y-105381066D01*
X126259392Y-105366100D01*
X126127608Y-105366100D01*
X126071754Y-105381066D01*
X126000309Y-105400209D01*
X125886190Y-105466096D01*
X125792996Y-105559290D01*
X125727109Y-105673409D01*
X125711853Y-105730348D01*
X125693406Y-105799195D01*
X125693000Y-105800709D01*
X125693000Y-105830500D01*
X125674093Y-105888691D01*
X125624593Y-105924655D01*
X125594001Y-105929500D01*
X125530826Y-105929500D01*
X125530814Y-105929501D01*
X125485240Y-105935500D01*
X125485238Y-105935500D01*
X125385203Y-105982148D01*
X125385201Y-105982150D01*
X125307150Y-106060201D01*
X125260501Y-106160240D01*
X125258702Y-106173909D01*
X125254500Y-106205822D01*
X125254500Y-106940087D01*
X125235593Y-106998278D01*
X125224352Y-107011224D01*
X125006757Y-107221830D01*
X124998187Y-107229224D01*
X124997794Y-107229525D01*
X124967801Y-107259517D01*
X124966653Y-107260645D01*
X124936080Y-107290238D01*
X124935746Y-107290659D01*
X124935404Y-107291042D01*
X124934805Y-107291824D01*
X124933809Y-107293100D01*
X124933152Y-107293927D01*
X124932851Y-107294370D01*
X124932535Y-107294781D01*
X124911325Y-107331516D01*
X124910509Y-107332903D01*
X124888630Y-107369411D01*
X124888414Y-107369910D01*
X124888181Y-107370374D01*
X124887804Y-107371285D01*
X124887176Y-107372767D01*
X124886767Y-107373708D01*
X124886593Y-107374209D01*
X124886388Y-107374702D01*
X124875391Y-107415742D01*
X124874962Y-107417293D01*
X124863299Y-107458144D01*
X124863223Y-107458661D01*
X124860911Y-107469790D01*
X124860831Y-107470088D01*
X124827482Y-107521387D01*
X124797916Y-107537864D01*
X124758823Y-107551544D01*
X124758822Y-107551544D01*
X124758821Y-107551545D01*
X124700815Y-107594356D01*
X124651071Y-107631069D01*
X124651069Y-107631071D01*
X124571543Y-107738824D01*
X124527315Y-107865222D01*
X124527313Y-107865231D01*
X124524500Y-107895226D01*
X124025499Y-107895226D01*
X124022686Y-107865231D01*
X124022686Y-107865226D01*
X123978455Y-107738821D01*
X123898930Y-107631070D01*
X123791179Y-107551545D01*
X123791176Y-107551544D01*
X123791175Y-107551543D01*
X123664777Y-107507315D01*
X123664776Y-107507314D01*
X123664774Y-107507314D01*
X123664771Y-107507313D01*
X123658889Y-107506029D01*
X123659318Y-107504061D01*
X123611252Y-107483290D01*
X123606681Y-107479000D01*
X123552212Y-107424531D01*
X123552212Y-107424530D01*
X123552211Y-107424530D01*
X123411059Y-107283377D01*
X123383282Y-107228861D01*
X123391340Y-107171533D01*
X123394499Y-107164760D01*
X123400500Y-107119179D01*
X123400499Y-106670822D01*
X123394499Y-106625240D01*
X123394499Y-106625238D01*
X123347851Y-106525203D01*
X123347850Y-106525202D01*
X123347850Y-106525201D01*
X123269799Y-106447150D01*
X123169760Y-106400501D01*
X123124179Y-106394500D01*
X123124177Y-106394500D01*
X122825826Y-106394500D01*
X122825814Y-106394501D01*
X122780240Y-106400500D01*
X122780238Y-106400500D01*
X122680203Y-106447148D01*
X122602150Y-106525201D01*
X122555501Y-106625240D01*
X122555501Y-106625241D01*
X122549500Y-106670822D01*
X122549500Y-107119173D01*
X122549501Y-107119185D01*
X122555500Y-107164758D01*
X122558661Y-107171537D01*
X122566116Y-107232267D01*
X122538939Y-107283377D01*
X122179530Y-107642787D01*
X122175278Y-107650152D01*
X122137665Y-107715300D01*
X122137664Y-107715300D01*
X122133388Y-107722707D01*
X122133386Y-107722711D01*
X122109500Y-107811857D01*
X122109500Y-108150500D01*
X122090593Y-108208691D01*
X122041093Y-108244655D01*
X122010501Y-108249500D01*
X121844819Y-108249500D01*
X121844816Y-108249501D01*
X121820214Y-108252354D01*
X121719578Y-108296789D01*
X121641789Y-108374578D01*
X121597353Y-108475216D01*
X121594500Y-108499808D01*
X120595498Y-108499808D01*
X120592646Y-108475214D01*
X120548211Y-108374578D01*
X120470422Y-108296789D01*
X120369786Y-108252354D01*
X120369785Y-108252353D01*
X120369783Y-108252353D01*
X120345191Y-108249500D01*
X120345185Y-108249500D01*
X120272479Y-108249500D01*
X120214288Y-108230593D01*
X120202475Y-108220504D01*
X120036596Y-108054625D01*
X120008819Y-108000108D01*
X120007600Y-107984621D01*
X120007600Y-107954209D01*
X120007600Y-107954208D01*
X119973492Y-107826914D01*
X119973490Y-107826911D01*
X119973490Y-107826909D01*
X119907603Y-107712790D01*
X119907601Y-107712788D01*
X119907600Y-107712786D01*
X119814414Y-107619600D01*
X119814411Y-107619598D01*
X119814409Y-107619596D01*
X119700289Y-107553709D01*
X119700291Y-107553709D01*
X119631548Y-107535290D01*
X119572992Y-107519600D01*
X119572990Y-107519600D01*
X119569500Y-107519600D01*
X119567121Y-107518827D01*
X119566558Y-107518753D01*
X119566571Y-107518648D01*
X119511309Y-107500693D01*
X119475345Y-107451193D01*
X119470500Y-107420600D01*
X119470500Y-107222128D01*
X119489407Y-107163937D01*
X119538907Y-107127973D01*
X119600093Y-107127973D01*
X119624502Y-107139813D01*
X119676321Y-107174437D01*
X119789152Y-107221173D01*
X119908932Y-107244999D01*
X119908936Y-107245000D01*
X120031064Y-107245000D01*
X120031067Y-107244999D01*
X120150846Y-107221173D01*
X120150848Y-107221173D01*
X120263677Y-107174438D01*
X120289830Y-107156962D01*
X119947868Y-106815000D01*
X120007793Y-106815000D01*
X120077626Y-106786074D01*
X120131074Y-106732626D01*
X120160000Y-106662793D01*
X120160000Y-106587207D01*
X120131074Y-106517374D01*
X120077626Y-106463926D01*
X120007793Y-106435000D01*
X119947866Y-106435000D01*
X120289830Y-106093035D01*
X120263680Y-106075562D01*
X120181358Y-106041464D01*
X120134832Y-106001728D01*
X120120548Y-105942233D01*
X120143963Y-105885705D01*
X120181358Y-105858536D01*
X120263677Y-105824438D01*
X120289830Y-105806962D01*
X119947868Y-105465000D01*
X120007793Y-105465000D01*
X120077626Y-105436074D01*
X120131074Y-105382626D01*
X120160000Y-105312793D01*
X120160000Y-105237207D01*
X120131074Y-105167374D01*
X120077626Y-105113926D01*
X120007793Y-105085000D01*
X119932207Y-105085000D01*
X119862374Y-105113926D01*
X119808926Y-105167374D01*
X119780000Y-105237207D01*
X119780000Y-105297132D01*
X119712089Y-105229221D01*
X119686467Y-105184840D01*
X119651622Y-105054795D01*
X119651619Y-105054790D01*
X119603727Y-104971838D01*
X119591005Y-104911990D01*
X119615891Y-104856094D01*
X119668879Y-104825501D01*
X119729729Y-104831897D01*
X119759467Y-104852334D01*
X119970000Y-105062867D01*
X120289830Y-104743036D01*
X120289830Y-104743035D01*
X120263680Y-104725562D01*
X120150847Y-104678826D01*
X120031067Y-104655000D01*
X119908932Y-104655000D01*
X119789154Y-104678825D01*
X119676319Y-104725563D01*
X119676312Y-104725567D01*
X119650167Y-104743035D01*
X119647791Y-104767158D01*
X119623270Y-104823215D01*
X119570482Y-104854152D01*
X119509592Y-104848154D01*
X119479267Y-104827458D01*
X119470295Y-104818486D01*
X119470292Y-104818484D01*
X119470290Y-104818482D01*
X119340208Y-104743379D01*
X119340210Y-104743379D01*
X119273717Y-104725563D01*
X119195108Y-104704500D01*
X119044892Y-104704500D01*
X118966283Y-104725563D01*
X118899790Y-104743379D01*
X118769709Y-104818482D01*
X118769702Y-104818488D01*
X118765000Y-104823190D01*
X118710482Y-104850965D01*
X118650050Y-104841390D01*
X118625000Y-104823190D01*
X118620297Y-104818488D01*
X118620290Y-104818482D01*
X118490208Y-104743379D01*
X118490210Y-104743379D01*
X118423717Y-104725563D01*
X118345108Y-104704500D01*
X118194892Y-104704500D01*
X118116283Y-104725563D01*
X118049790Y-104743379D01*
X117919709Y-104818482D01*
X117919702Y-104818488D01*
X117915000Y-104823190D01*
X117860482Y-104850965D01*
X117800050Y-104841390D01*
X117775000Y-104823190D01*
X117770297Y-104818488D01*
X117770290Y-104818482D01*
X117640208Y-104743379D01*
X117640210Y-104743379D01*
X117573717Y-104725563D01*
X117495108Y-104704500D01*
X117344892Y-104704500D01*
X117266283Y-104725563D01*
X117199790Y-104743379D01*
X117069709Y-104818482D01*
X117069702Y-104818488D01*
X117065000Y-104823190D01*
X117010482Y-104850965D01*
X116950050Y-104841390D01*
X116925000Y-104823190D01*
X116920297Y-104818488D01*
X116920290Y-104818482D01*
X116790208Y-104743379D01*
X116790210Y-104743379D01*
X116723717Y-104725563D01*
X116645108Y-104704500D01*
X116494892Y-104704500D01*
X116416283Y-104725563D01*
X116349790Y-104743379D01*
X116219709Y-104818482D01*
X116219702Y-104818488D01*
X116215000Y-104823190D01*
X116160482Y-104850965D01*
X116100050Y-104841390D01*
X116075000Y-104823190D01*
X116070297Y-104818488D01*
X116070290Y-104818482D01*
X115940208Y-104743379D01*
X115940210Y-104743379D01*
X115873717Y-104725563D01*
X115795108Y-104704500D01*
X115644892Y-104704500D01*
X115566283Y-104725563D01*
X115499790Y-104743379D01*
X115369709Y-104818482D01*
X115369702Y-104818488D01*
X115365000Y-104823190D01*
X115310482Y-104850965D01*
X115250050Y-104841390D01*
X115225000Y-104823190D01*
X115220297Y-104818488D01*
X115220290Y-104818482D01*
X115090208Y-104743379D01*
X115090210Y-104743379D01*
X115023717Y-104725563D01*
X114945108Y-104704500D01*
X114794892Y-104704500D01*
X114716283Y-104725563D01*
X114649790Y-104743379D01*
X114519709Y-104818482D01*
X114519702Y-104818487D01*
X114510731Y-104827459D01*
X114456213Y-104855235D01*
X114395782Y-104845661D01*
X114352519Y-104802395D01*
X114342207Y-104767158D01*
X114339830Y-104743035D01*
X114313680Y-104725562D01*
X114200847Y-104678826D01*
X114081067Y-104655000D01*
X113958932Y-104655000D01*
X113839154Y-104678825D01*
X113726319Y-104725563D01*
X113726312Y-104725567D01*
X113700168Y-104743035D01*
X114020000Y-105062867D01*
X114230533Y-104852334D01*
X114285050Y-104824556D01*
X114345482Y-104834127D01*
X114388747Y-104877392D01*
X114398318Y-104937824D01*
X114386273Y-104971837D01*
X114338379Y-105054790D01*
X114303533Y-105184840D01*
X114277910Y-105229220D01*
X114210000Y-105297130D01*
X114210000Y-105237207D01*
X114181074Y-105167374D01*
X114127626Y-105113926D01*
X114057793Y-105085000D01*
X113982207Y-105085000D01*
X113912374Y-105113926D01*
X113858926Y-105167374D01*
X113830000Y-105237207D01*
X113830000Y-105312793D01*
X113858926Y-105382626D01*
X113912374Y-105436074D01*
X113982207Y-105465000D01*
X114042132Y-105465000D01*
X113700168Y-105806963D01*
X113726322Y-105824438D01*
X113808642Y-105858536D01*
X113855168Y-105898272D01*
X113869452Y-105957767D01*
X113846037Y-106014295D01*
X113808643Y-106041464D01*
X113726319Y-106075563D01*
X113726312Y-106075567D01*
X113700168Y-106093035D01*
X114042133Y-106435000D01*
X113982207Y-106435000D01*
X113912374Y-106463926D01*
X113858926Y-106517374D01*
X113830000Y-106587207D01*
X113830000Y-106647133D01*
X113479617Y-106296750D01*
X113448940Y-106290020D01*
X113408298Y-106244284D01*
X113400000Y-106204609D01*
X113400000Y-105695389D01*
X113418907Y-105637198D01*
X113468407Y-105601234D01*
X113483240Y-105599626D01*
X113807867Y-105275000D01*
X113479617Y-104946750D01*
X113448940Y-104940020D01*
X113408298Y-104894284D01*
X113400000Y-104854609D01*
X113400000Y-104823102D01*
X113399999Y-104823100D01*
X113371945Y-104682065D01*
X113316918Y-104549217D01*
X113237030Y-104429655D01*
X113135344Y-104327969D01*
X113056070Y-104275000D01*
X114320000Y-104275000D01*
X114320001Y-104275000D01*
X119669999Y-104275000D01*
X119670000Y-104275000D01*
X119670000Y-103584108D01*
X120094500Y-103584108D01*
X120094500Y-103715892D01*
X120124579Y-103828151D01*
X120128609Y-103843190D01*
X120194496Y-103957309D01*
X120194498Y-103957311D01*
X120194500Y-103957314D01*
X120287686Y-104050500D01*
X120287688Y-104050501D01*
X120287690Y-104050503D01*
X120401810Y-104116390D01*
X120401808Y-104116390D01*
X120401812Y-104116391D01*
X120401814Y-104116392D01*
X120529108Y-104150500D01*
X120529110Y-104150500D01*
X120660890Y-104150500D01*
X120660892Y-104150500D01*
X120788186Y-104116392D01*
X120788188Y-104116390D01*
X120788190Y-104116390D01*
X120902309Y-104050503D01*
X120902310Y-104050502D01*
X120902314Y-104050500D01*
X120908907Y-104043907D01*
X120948319Y-104004496D01*
X121002836Y-103976719D01*
X121018322Y-103975500D01*
X121195617Y-103975500D01*
X121253808Y-103994407D01*
X121289772Y-104043907D01*
X121289772Y-104105093D01*
X121253808Y-104154593D01*
X121214932Y-104171598D01*
X121107065Y-104193054D01*
X120974217Y-104248081D01*
X120854655Y-104327969D01*
X120752969Y-104429655D01*
X120673081Y-104549217D01*
X120618054Y-104682065D01*
X120590000Y-104823100D01*
X120590000Y-104854608D01*
X120571093Y-104912799D01*
X120521593Y-104948763D01*
X120506759Y-104950371D01*
X120182132Y-105274999D01*
X120182132Y-105275000D01*
X120510377Y-105603246D01*
X120541057Y-105609977D01*
X120581701Y-105655712D01*
X120590000Y-105695389D01*
X120590000Y-106204608D01*
X120571093Y-106262799D01*
X120521593Y-106298763D01*
X120506759Y-106300371D01*
X120182132Y-106624999D01*
X120182132Y-106625000D01*
X120501962Y-106944831D01*
X120519438Y-106918677D01*
X120552843Y-106838030D01*
X120592579Y-106791504D01*
X120652074Y-106777220D01*
X120708602Y-106800634D01*
X120726623Y-106820914D01*
X120752969Y-106860344D01*
X120854655Y-106962030D01*
X120974217Y-107041918D01*
X121107065Y-107096945D01*
X121107068Y-107096946D01*
X121169999Y-107109463D01*
X121170000Y-107109463D01*
X121170000Y-106654808D01*
X121204204Y-106674556D01*
X121280504Y-106695000D01*
X121359496Y-106695000D01*
X121435796Y-106674556D01*
X121470000Y-106654808D01*
X121470000Y-107109463D01*
X121532931Y-107096946D01*
X121532934Y-107096945D01*
X121665782Y-107041918D01*
X121785344Y-106962030D01*
X121887030Y-106860344D01*
X121966918Y-106740782D01*
X122021945Y-106607934D01*
X122049999Y-106466899D01*
X122050000Y-106466897D01*
X122050000Y-105795001D01*
X122049999Y-105795000D01*
X121620000Y-105795000D01*
X121620000Y-105495000D01*
X122049999Y-105495000D01*
X122050000Y-105494999D01*
X122050000Y-104823102D01*
X122049999Y-104823100D01*
X122021945Y-104682065D01*
X121966918Y-104549217D01*
X121887030Y-104429655D01*
X121785344Y-104327969D01*
X121665782Y-104248081D01*
X121532934Y-104193054D01*
X121425068Y-104171598D01*
X121371685Y-104141701D01*
X121346069Y-104086136D01*
X121358006Y-104026126D01*
X121402936Y-103984594D01*
X121444383Y-103975500D01*
X122550500Y-103975500D01*
X122608691Y-103994407D01*
X122644655Y-104043907D01*
X122649500Y-104074500D01*
X122649500Y-104336843D01*
X122630593Y-104395034D01*
X122620505Y-104406845D01*
X122602151Y-104425199D01*
X122602150Y-104425200D01*
X122602150Y-104425201D01*
X122597586Y-104434989D01*
X122555501Y-104525240D01*
X122555501Y-104525241D01*
X122549500Y-104570822D01*
X122549500Y-105019173D01*
X122549501Y-105019185D01*
X122555500Y-105064759D01*
X122555500Y-105064761D01*
X122602148Y-105164796D01*
X122602149Y-105164797D01*
X122602150Y-105164799D01*
X122680201Y-105242850D01*
X122780240Y-105289499D01*
X122825821Y-105295500D01*
X123124178Y-105295499D01*
X123169760Y-105289499D01*
X123169761Y-105289499D01*
X123254980Y-105249760D01*
X123269799Y-105242850D01*
X123347850Y-105164799D01*
X123394499Y-105064760D01*
X123400500Y-105019179D01*
X123400499Y-104570822D01*
X123394499Y-104525240D01*
X123394499Y-104525238D01*
X123347851Y-104425203D01*
X123347849Y-104425200D01*
X123329495Y-104406845D01*
X123301719Y-104352328D01*
X123300500Y-104336843D01*
X123300500Y-103607148D01*
X123294327Y-103584109D01*
X123278318Y-103524362D01*
X123235465Y-103450138D01*
X123174862Y-103389535D01*
X123100638Y-103346682D01*
X123017853Y-103324500D01*
X123017851Y-103324500D01*
X121931883Y-103324500D01*
X121873692Y-103305593D01*
X121837728Y-103256093D01*
X121837728Y-103194907D01*
X121861879Y-103155496D01*
X121887030Y-103130344D01*
X121966918Y-103010782D01*
X122021945Y-102877934D01*
X122049999Y-102736899D01*
X122050000Y-102736897D01*
X122050000Y-102415001D01*
X122049999Y-102415000D01*
X121620000Y-102415000D01*
X121620000Y-102115000D01*
X122049999Y-102115000D01*
X122050000Y-102114999D01*
X122050000Y-101943709D01*
X122709500Y-101943709D01*
X122709500Y-102156290D01*
X122742752Y-102366238D01*
X122808443Y-102568412D01*
X122904948Y-102757815D01*
X122904950Y-102757819D01*
X123029891Y-102929786D01*
X123029893Y-102929788D01*
X123029896Y-102929792D01*
X123180208Y-103080104D01*
X123180211Y-103080106D01*
X123180213Y-103080108D01*
X123352180Y-103205049D01*
X123352184Y-103205051D01*
X123541588Y-103301557D01*
X123743757Y-103367246D01*
X123743758Y-103367246D01*
X123743761Y-103367247D01*
X123953710Y-103400500D01*
X123953713Y-103400500D01*
X124166290Y-103400500D01*
X124376238Y-103367247D01*
X124376239Y-103367246D01*
X124376243Y-103367246D01*
X124578412Y-103301557D01*
X124767816Y-103205051D01*
X124939792Y-103080104D01*
X125090104Y-102929792D01*
X125215051Y-102757816D01*
X125311557Y-102568412D01*
X125377246Y-102366243D01*
X125395937Y-102248233D01*
X125410500Y-102156290D01*
X125410500Y-101943709D01*
X125377247Y-101733761D01*
X125377246Y-101733757D01*
X125311557Y-101531588D01*
X125215051Y-101342184D01*
X125215049Y-101342180D01*
X125090108Y-101170213D01*
X125090106Y-101170211D01*
X125090104Y-101170208D01*
X124939792Y-101019896D01*
X124939788Y-101019893D01*
X124939786Y-101019891D01*
X124767819Y-100894950D01*
X124767815Y-100894948D01*
X124578412Y-100798443D01*
X124376238Y-100732752D01*
X124166290Y-100699500D01*
X124166287Y-100699500D01*
X123953713Y-100699500D01*
X123953710Y-100699500D01*
X123743761Y-100732752D01*
X123541587Y-100798443D01*
X123352184Y-100894948D01*
X123352180Y-100894950D01*
X123180213Y-101019891D01*
X123029891Y-101170213D01*
X122904950Y-101342180D01*
X122904948Y-101342184D01*
X122808443Y-101531587D01*
X122742752Y-101733761D01*
X122709500Y-101943709D01*
X122050000Y-101943709D01*
X122050000Y-101793102D01*
X122049999Y-101793100D01*
X122021945Y-101652065D01*
X121966918Y-101519217D01*
X121887030Y-101399655D01*
X121785344Y-101297969D01*
X121665784Y-101218082D01*
X121532933Y-101163054D01*
X121470000Y-101150535D01*
X121470000Y-101605191D01*
X121435796Y-101585444D01*
X121359496Y-101565000D01*
X121280504Y-101565000D01*
X121204204Y-101585444D01*
X121170000Y-101605191D01*
X121170000Y-101150535D01*
X121107066Y-101163054D01*
X120974215Y-101218082D01*
X120854655Y-101297969D01*
X120752969Y-101399655D01*
X120673081Y-101519217D01*
X120618054Y-101652065D01*
X120590000Y-101793100D01*
X120590000Y-102114999D01*
X120590001Y-102115000D01*
X121020000Y-102115000D01*
X121020000Y-102415000D01*
X120590001Y-102415000D01*
X120590000Y-102415001D01*
X120590000Y-102736899D01*
X120618054Y-102877932D01*
X120673841Y-103012614D01*
X120678642Y-103073611D01*
X120646672Y-103125780D01*
X120590144Y-103149195D01*
X120582377Y-103149500D01*
X120529108Y-103149500D01*
X120451200Y-103170375D01*
X120401809Y-103183609D01*
X120287690Y-103249496D01*
X120194496Y-103342690D01*
X120128609Y-103456809D01*
X120128608Y-103456814D01*
X120094500Y-103584108D01*
X119670000Y-103584108D01*
X119670000Y-103275000D01*
X114320000Y-103275000D01*
X114320000Y-104275000D01*
X113056070Y-104275000D01*
X113015782Y-104248081D01*
X112882934Y-104193054D01*
X112775068Y-104171598D01*
X112721685Y-104141701D01*
X112696069Y-104086136D01*
X112708006Y-104026126D01*
X112752936Y-103984594D01*
X112794383Y-103975500D01*
X112971678Y-103975500D01*
X113029869Y-103994407D01*
X113041681Y-104004496D01*
X113087684Y-104050499D01*
X113087690Y-104050503D01*
X113201810Y-104116390D01*
X113201808Y-104116390D01*
X113201812Y-104116391D01*
X113201814Y-104116392D01*
X113329108Y-104150500D01*
X113329110Y-104150500D01*
X113460890Y-104150500D01*
X113460892Y-104150500D01*
X113588186Y-104116392D01*
X113588188Y-104116390D01*
X113588190Y-104116390D01*
X113702309Y-104050503D01*
X113702309Y-104050502D01*
X113702314Y-104050500D01*
X113795500Y-103957314D01*
X113808505Y-103934789D01*
X113861390Y-103843190D01*
X113861390Y-103843188D01*
X113861392Y-103843186D01*
X113895500Y-103715892D01*
X113895500Y-103584108D01*
X113861392Y-103456814D01*
X113861390Y-103456811D01*
X113861390Y-103456809D01*
X113795503Y-103342690D01*
X113795501Y-103342688D01*
X113795500Y-103342686D01*
X113702314Y-103249500D01*
X113702311Y-103249498D01*
X113702309Y-103249496D01*
X113588189Y-103183609D01*
X113588191Y-103183609D01*
X113538799Y-103170375D01*
X113460892Y-103149500D01*
X113407623Y-103149500D01*
X113349432Y-103130593D01*
X113313468Y-103081093D01*
X113313468Y-103019907D01*
X113316159Y-103012614D01*
X113371945Y-102877932D01*
X113399999Y-102736899D01*
X113400000Y-102736897D01*
X113400000Y-102415001D01*
X113399999Y-102415000D01*
X112970000Y-102415000D01*
X112970000Y-102115000D01*
X113399999Y-102115000D01*
X113400000Y-102114999D01*
X113400000Y-101793102D01*
X113399999Y-101793100D01*
X113371945Y-101652065D01*
X113316918Y-101519217D01*
X113237030Y-101399655D01*
X113135344Y-101297969D01*
X113015784Y-101218082D01*
X112882933Y-101163054D01*
X112820000Y-101150535D01*
X112820000Y-101605191D01*
X112785796Y-101585444D01*
X112709496Y-101565000D01*
X112630504Y-101565000D01*
X112554204Y-101585444D01*
X112520000Y-101605191D01*
X112520000Y-101150535D01*
X112457066Y-101163054D01*
X112324215Y-101218082D01*
X112204655Y-101297969D01*
X112102969Y-101399655D01*
X112023081Y-101519217D01*
X111968054Y-101652065D01*
X111940000Y-101793100D01*
X111940000Y-102114999D01*
X111940001Y-102115000D01*
X112370000Y-102115000D01*
X112370000Y-102415000D01*
X111940001Y-102415000D01*
X111940000Y-102415001D01*
X111940000Y-102736899D01*
X111968054Y-102877934D01*
X112023081Y-103010782D01*
X112102969Y-103130344D01*
X112128121Y-103155496D01*
X112155898Y-103210013D01*
X112146327Y-103270445D01*
X112103062Y-103313710D01*
X112058117Y-103324500D01*
X110778100Y-103324500D01*
X110719909Y-103305593D01*
X110683945Y-103256093D01*
X110683945Y-103194907D01*
X110719909Y-103145407D01*
X110719910Y-103145407D01*
X110765099Y-103112574D01*
X110809792Y-103080104D01*
X110960104Y-102929792D01*
X111085051Y-102757816D01*
X111181557Y-102568412D01*
X111247246Y-102366243D01*
X111265937Y-102248233D01*
X111280500Y-102156290D01*
X111280500Y-101943709D01*
X111258328Y-101803724D01*
X111247247Y-101733761D01*
X111247246Y-101733757D01*
X111181557Y-101531588D01*
X111085051Y-101342184D01*
X111085049Y-101342180D01*
X110960108Y-101170213D01*
X110960106Y-101170211D01*
X110960104Y-101170208D01*
X110809792Y-101019896D01*
X110809788Y-101019893D01*
X110809786Y-101019891D01*
X110637819Y-100894950D01*
X110637815Y-100894948D01*
X110448412Y-100798443D01*
X110246238Y-100732752D01*
X110036290Y-100699500D01*
X110036287Y-100699500D01*
X109823713Y-100699500D01*
X109823710Y-100699500D01*
X109613761Y-100732752D01*
X109411587Y-100798443D01*
X109222184Y-100894948D01*
X109222180Y-100894950D01*
X109050213Y-101019891D01*
X108899891Y-101170213D01*
X108774950Y-101342180D01*
X108774948Y-101342184D01*
X108678443Y-101531587D01*
X108612752Y-101733761D01*
X108579500Y-101943709D01*
X108579500Y-102156290D01*
X108612752Y-102366238D01*
X108678443Y-102568412D01*
X108774948Y-102757815D01*
X108774950Y-102757819D01*
X108899891Y-102929786D01*
X108899893Y-102929788D01*
X108899896Y-102929792D01*
X109050208Y-103080104D01*
X109050211Y-103080106D01*
X109050213Y-103080108D01*
X109140090Y-103145407D01*
X109176054Y-103194907D01*
X109176055Y-103256092D01*
X109140091Y-103305592D01*
X109081900Y-103324500D01*
X108042853Y-103324500D01*
X107957147Y-103324500D01*
X107874362Y-103346682D01*
X107800138Y-103389535D01*
X107739535Y-103450138D01*
X107696682Y-103524362D01*
X107674500Y-103607148D01*
X107674500Y-105712139D01*
X107655593Y-105770330D01*
X107606093Y-105806294D01*
X107544907Y-105806294D01*
X107505496Y-105782143D01*
X106170145Y-104446792D01*
X106142368Y-104392275D01*
X106148685Y-104338902D01*
X106153214Y-104327969D01*
X106220130Y-104166420D01*
X106260500Y-103963465D01*
X106260500Y-103756535D01*
X106220130Y-103553580D01*
X106140941Y-103362402D01*
X106025977Y-103190345D01*
X105879655Y-103044023D01*
X105761388Y-102965000D01*
X105707597Y-102929058D01*
X105516418Y-102849869D01*
X105313467Y-102809500D01*
X105313465Y-102809500D01*
X105106535Y-102809500D01*
X105106532Y-102809500D01*
X104903581Y-102849869D01*
X104712402Y-102929058D01*
X104540348Y-103044020D01*
X104394020Y-103190348D01*
X104279058Y-103362402D01*
X104199869Y-103553581D01*
X104159500Y-103756532D01*
X104159500Y-103963467D01*
X104199869Y-104166418D01*
X104279058Y-104357597D01*
X104394020Y-104529651D01*
X104394023Y-104529655D01*
X104540345Y-104675977D01*
X104712402Y-104790941D01*
X104903580Y-104870130D01*
X105106535Y-104910500D01*
X105106536Y-104910500D01*
X105313464Y-104910500D01*
X105313465Y-104910500D01*
X105516420Y-104870130D01*
X105688902Y-104798684D01*
X105749899Y-104793884D01*
X105796792Y-104820145D01*
X107066704Y-106090056D01*
X107094481Y-106144573D01*
X107095700Y-106160060D01*
X107095700Y-107320402D01*
X107076793Y-107378593D01*
X107046200Y-107406138D01*
X106940790Y-107466996D01*
X106847597Y-107560189D01*
X106844086Y-107564766D01*
X106793663Y-107599423D01*
X106765543Y-107603500D01*
X105546368Y-107603500D01*
X105488177Y-107584593D01*
X105452213Y-107535093D01*
X105452213Y-107473907D01*
X105488177Y-107424407D01*
X105512134Y-107412494D01*
X105511926Y-107411991D01*
X105516417Y-107410130D01*
X105516420Y-107410130D01*
X105707598Y-107330941D01*
X105879655Y-107215977D01*
X106025977Y-107069655D01*
X106140941Y-106897598D01*
X106220130Y-106706420D01*
X106260500Y-106503465D01*
X106260500Y-106296535D01*
X106220130Y-106093580D01*
X106140941Y-105902402D01*
X106025977Y-105730345D01*
X105879655Y-105584023D01*
X105871246Y-105578404D01*
X105707597Y-105469058D01*
X105516418Y-105389869D01*
X105313467Y-105349500D01*
X105313465Y-105349500D01*
X105106535Y-105349500D01*
X105106532Y-105349500D01*
X104903581Y-105389869D01*
X104712402Y-105469058D01*
X104540348Y-105584020D01*
X104394020Y-105730348D01*
X104279058Y-105902402D01*
X104199869Y-106093581D01*
X104159500Y-106296532D01*
X104159500Y-106503467D01*
X104176157Y-106587207D01*
X104198614Y-106700108D01*
X104199870Y-106706419D01*
X104199870Y-106706421D01*
X104271314Y-106878903D01*
X104276115Y-106939899D01*
X104249854Y-106986792D01*
X104232942Y-107003704D01*
X104178425Y-107031481D01*
X104150021Y-107031854D01*
X104144292Y-107031100D01*
X104012508Y-107031100D01*
X103945573Y-107049035D01*
X103885209Y-107065209D01*
X103771090Y-107131096D01*
X103677896Y-107224290D01*
X103612009Y-107338409D01*
X103603705Y-107369400D01*
X103579928Y-107458142D01*
X103577900Y-107465709D01*
X103577900Y-107534800D01*
X103558993Y-107592991D01*
X103509493Y-107628955D01*
X103478900Y-107633800D01*
X102857120Y-107633800D01*
X102798929Y-107614893D01*
X102762965Y-107565393D01*
X102762965Y-107504207D01*
X102798929Y-107454707D01*
X102837806Y-107437702D01*
X102888436Y-107427631D01*
X102976420Y-107410130D01*
X103167598Y-107330941D01*
X103339655Y-107215977D01*
X103485977Y-107069655D01*
X103600941Y-106897598D01*
X103680130Y-106706420D01*
X103720500Y-106503465D01*
X103720500Y-106296535D01*
X103680130Y-106093580D01*
X103600941Y-105902402D01*
X103485977Y-105730345D01*
X103339655Y-105584023D01*
X103331246Y-105578404D01*
X103167597Y-105469058D01*
X102976418Y-105389869D01*
X102773467Y-105349500D01*
X102773465Y-105349500D01*
X102566535Y-105349500D01*
X102566532Y-105349500D01*
X102363581Y-105389869D01*
X102172402Y-105469058D01*
X102000348Y-105584020D01*
X101854020Y-105730348D01*
X101739058Y-105902402D01*
X101659869Y-106093581D01*
X101619500Y-106296532D01*
X101619500Y-106503467D01*
X101659869Y-106706418D01*
X101739058Y-106897597D01*
X101851052Y-107065209D01*
X101854023Y-107069655D01*
X102000345Y-107215977D01*
X102172402Y-107330941D01*
X102363580Y-107410130D01*
X102400109Y-107417396D01*
X102502194Y-107437702D01*
X102555578Y-107467599D01*
X102581194Y-107523164D01*
X102569257Y-107583174D01*
X102524327Y-107624706D01*
X102482880Y-107633800D01*
X102290412Y-107633800D01*
X102185387Y-107633800D01*
X102164384Y-107642500D01*
X102088358Y-107673990D01*
X101419756Y-108342592D01*
X101419755Y-108342591D01*
X101345491Y-108416856D01*
X101316556Y-108486713D01*
X101305300Y-108513887D01*
X101305300Y-120486787D01*
X101305300Y-120591813D01*
X101321064Y-120629870D01*
X101345491Y-120688843D01*
X101709855Y-121053208D01*
X101737632Y-121107724D01*
X101731315Y-121161097D01*
X101659869Y-121333581D01*
X101619500Y-121536532D01*
X101619500Y-121743467D01*
X101659869Y-121946418D01*
X101739058Y-122137597D01*
X101854020Y-122309651D01*
X101854023Y-122309655D01*
X102000345Y-122455977D01*
X102172402Y-122570941D01*
X102363580Y-122650130D01*
X102566535Y-122690500D01*
X102566536Y-122690500D01*
X102773464Y-122690500D01*
X102773465Y-122690500D01*
X102976420Y-122650130D01*
X103167598Y-122570941D01*
X103339655Y-122455977D01*
X103485977Y-122309655D01*
X103600941Y-122137598D01*
X103680130Y-121946420D01*
X103720500Y-121743465D01*
X103720500Y-121536535D01*
X103720499Y-121536532D01*
X104159500Y-121536532D01*
X104159500Y-121743467D01*
X104199869Y-121946418D01*
X104279058Y-122137597D01*
X104394020Y-122309651D01*
X104394023Y-122309655D01*
X104540345Y-122455977D01*
X104712402Y-122570941D01*
X104903580Y-122650130D01*
X105106535Y-122690500D01*
X105106536Y-122690500D01*
X105313464Y-122690500D01*
X105313465Y-122690500D01*
X105516420Y-122650130D01*
X105707598Y-122570941D01*
X105879655Y-122455977D01*
X106025977Y-122309655D01*
X106140941Y-122137598D01*
X106220130Y-121946420D01*
X106260500Y-121743465D01*
X106260500Y-121536535D01*
X106220130Y-121333580D01*
X106140941Y-121142402D01*
X106025977Y-120970345D01*
X105879655Y-120824023D01*
X105879651Y-120824020D01*
X105707597Y-120709058D01*
X105516418Y-120629869D01*
X105313467Y-120589500D01*
X105313465Y-120589500D01*
X105106535Y-120589500D01*
X105106532Y-120589500D01*
X104903581Y-120629869D01*
X104712402Y-120709058D01*
X104540348Y-120824020D01*
X104394020Y-120970348D01*
X104279058Y-121142402D01*
X104199869Y-121333581D01*
X104159500Y-121536532D01*
X103720499Y-121536532D01*
X103680130Y-121333580D01*
X103600941Y-121142402D01*
X103485977Y-120970345D01*
X103339655Y-120824023D01*
X103339651Y-120824020D01*
X103167597Y-120709058D01*
X102976418Y-120629869D01*
X102773467Y-120589500D01*
X102773465Y-120589500D01*
X102566535Y-120589500D01*
X102566532Y-120589500D01*
X102363580Y-120629870D01*
X102363578Y-120629870D01*
X102191096Y-120701314D01*
X102130099Y-120706114D01*
X102083207Y-120679854D01*
X101862296Y-120458943D01*
X101834519Y-120404426D01*
X101833300Y-120388939D01*
X101833300Y-119987939D01*
X101852207Y-119929748D01*
X101901707Y-119893784D01*
X101962893Y-119893784D01*
X101995747Y-119913917D01*
X101996588Y-119912894D01*
X102000342Y-119915975D01*
X102000345Y-119915977D01*
X102172402Y-120030941D01*
X102363580Y-120110130D01*
X102566535Y-120150500D01*
X102566536Y-120150500D01*
X102773464Y-120150500D01*
X102773465Y-120150500D01*
X102976420Y-120110130D01*
X103167598Y-120030941D01*
X103339655Y-119915977D01*
X103485977Y-119769655D01*
X103600941Y-119597598D01*
X103680130Y-119406420D01*
X103720500Y-119203465D01*
X103720500Y-118996535D01*
X103680130Y-118793580D01*
X103600941Y-118602402D01*
X103485977Y-118430345D01*
X103339655Y-118284023D01*
X103338940Y-118283545D01*
X103167597Y-118169058D01*
X102976418Y-118089869D01*
X102773467Y-118049500D01*
X102773465Y-118049500D01*
X102566535Y-118049500D01*
X102566532Y-118049500D01*
X102363581Y-118089869D01*
X102172402Y-118169058D01*
X102000342Y-118284024D01*
X101996588Y-118287106D01*
X101995360Y-118285609D01*
X101947754Y-118309846D01*
X101887325Y-118300254D01*
X101844075Y-118256975D01*
X101833300Y-118212060D01*
X101833300Y-117447939D01*
X101852207Y-117389748D01*
X101901707Y-117353784D01*
X101962893Y-117353784D01*
X101995747Y-117373917D01*
X101996588Y-117372894D01*
X102000342Y-117375975D01*
X102000345Y-117375977D01*
X102172402Y-117490941D01*
X102363580Y-117570130D01*
X102566535Y-117610500D01*
X102566536Y-117610500D01*
X102773464Y-117610500D01*
X102773465Y-117610500D01*
X102976420Y-117570130D01*
X103167598Y-117490941D01*
X103339655Y-117375977D01*
X103485977Y-117229655D01*
X103600941Y-117057598D01*
X103680130Y-116866420D01*
X103720500Y-116663465D01*
X103720500Y-116456535D01*
X103680130Y-116253580D01*
X103608684Y-116081095D01*
X103603883Y-116020098D01*
X103630143Y-115973207D01*
X104020356Y-115582996D01*
X104074872Y-115555219D01*
X104090359Y-115554000D01*
X104498375Y-115554000D01*
X104556566Y-115572907D01*
X104592530Y-115622407D01*
X104592530Y-115683593D01*
X104556566Y-115733093D01*
X104553376Y-115735316D01*
X104540348Y-115744020D01*
X104394020Y-115890348D01*
X104279058Y-116062402D01*
X104199869Y-116253581D01*
X104159500Y-116456532D01*
X104159500Y-116663467D01*
X104199869Y-116866418D01*
X104279058Y-117057597D01*
X104391997Y-117226623D01*
X104394023Y-117229655D01*
X104540345Y-117375977D01*
X104712402Y-117490941D01*
X104903580Y-117570130D01*
X105106535Y-117610500D01*
X105106536Y-117610500D01*
X105313464Y-117610500D01*
X105313465Y-117610500D01*
X105516420Y-117570130D01*
X105707598Y-117490941D01*
X105879655Y-117375977D01*
X106025977Y-117229655D01*
X106140941Y-117057598D01*
X106193214Y-116931400D01*
X106212387Y-116885114D01*
X106252124Y-116838588D01*
X106303851Y-116824000D01*
X107092412Y-116824000D01*
X107092413Y-116824000D01*
X107189444Y-116783808D01*
X107903609Y-116069642D01*
X107958122Y-116041868D01*
X108018554Y-116051439D01*
X108061819Y-116094704D01*
X108071390Y-116155136D01*
X108059346Y-116189148D01*
X108031309Y-116237710D01*
X108026204Y-116256762D01*
X107997200Y-116365008D01*
X107997200Y-116496792D01*
X108013793Y-116558719D01*
X108031309Y-116624090D01*
X108093517Y-116731837D01*
X108093519Y-116731839D01*
X108097200Y-116738214D01*
X108190386Y-116831400D01*
X108215039Y-116845633D01*
X108215041Y-116845635D01*
X108304510Y-116897290D01*
X108304508Y-116897290D01*
X108304512Y-116897291D01*
X108304514Y-116897292D01*
X108431808Y-116931400D01*
X108431810Y-116931400D01*
X108563590Y-116931400D01*
X108563592Y-116931400D01*
X108690886Y-116897292D01*
X108690888Y-116897290D01*
X108690890Y-116897290D01*
X108805009Y-116831403D01*
X108805009Y-116831402D01*
X108805014Y-116831400D01*
X108898200Y-116738214D01*
X108902129Y-116731409D01*
X108961429Y-116628700D01*
X109006898Y-116587759D01*
X109047165Y-116579200D01*
X109619563Y-116579200D01*
X109619563Y-116579199D01*
X109695989Y-116558721D01*
X109764511Y-116519160D01*
X109820460Y-116463211D01*
X109860021Y-116394689D01*
X109878996Y-116323874D01*
X109912320Y-116272562D01*
X109969441Y-116250636D01*
X109974622Y-116250500D01*
X110449747Y-116250500D01*
X110449748Y-116250500D01*
X110508231Y-116238867D01*
X110574552Y-116194552D01*
X110618867Y-116128231D01*
X110630500Y-116069748D01*
X110630500Y-115653460D01*
X110649407Y-115595269D01*
X110698907Y-115559305D01*
X110760093Y-115559305D01*
X110799504Y-115583456D01*
X111330204Y-116114156D01*
X111357981Y-116168673D01*
X111359200Y-116184160D01*
X111359200Y-116190513D01*
X111363885Y-116201823D01*
X111399391Y-116287543D01*
X111618429Y-116506582D01*
X111645522Y-116557268D01*
X111647594Y-116567683D01*
X111640404Y-116628445D01*
X111598873Y-116673376D01*
X111550497Y-116686000D01*
X110292513Y-116686000D01*
X110187487Y-116686000D01*
X110169084Y-116693623D01*
X110090458Y-116726190D01*
X109406144Y-117410504D01*
X109351627Y-117438281D01*
X109336140Y-117439500D01*
X109055684Y-117439500D01*
X109040196Y-117441539D01*
X109006825Y-117445932D01*
X109006824Y-117445932D01*
X108899598Y-117495933D01*
X108899595Y-117495935D01*
X108882062Y-117513468D01*
X108827545Y-117541244D01*
X108767113Y-117531672D01*
X108762578Y-117529209D01*
X108720486Y-117504908D01*
X108593192Y-117470800D01*
X108461408Y-117470800D01*
X108367602Y-117495935D01*
X108334110Y-117504909D01*
X108304342Y-117522096D01*
X108244494Y-117534817D01*
X108188598Y-117509930D01*
X108158006Y-117456941D01*
X108159217Y-117410735D01*
X108159279Y-117410504D01*
X108174100Y-117355192D01*
X108174100Y-117223408D01*
X108139992Y-117096114D01*
X108139990Y-117096111D01*
X108139990Y-117096109D01*
X108077782Y-116988362D01*
X108077780Y-116988360D01*
X108074100Y-116981986D01*
X107980914Y-116888800D01*
X107936556Y-116863190D01*
X107866787Y-116822908D01*
X107824354Y-116811538D01*
X107739492Y-116788800D01*
X107607708Y-116788800D01*
X107529800Y-116809675D01*
X107480409Y-116822909D01*
X107366290Y-116888796D01*
X107273097Y-116981989D01*
X107269586Y-116986566D01*
X107219163Y-117021223D01*
X107191043Y-117025300D01*
X106968187Y-117025300D01*
X106925419Y-117043015D01*
X106873792Y-117064399D01*
X106873792Y-117064400D01*
X106872474Y-117064946D01*
X106871155Y-117065492D01*
X105796792Y-118139854D01*
X105742275Y-118167631D01*
X105688903Y-118161314D01*
X105516420Y-118089870D01*
X105313467Y-118049500D01*
X105313465Y-118049500D01*
X105106535Y-118049500D01*
X105106532Y-118049500D01*
X104903581Y-118089869D01*
X104712402Y-118169058D01*
X104540348Y-118284020D01*
X104394020Y-118430348D01*
X104279058Y-118602402D01*
X104199869Y-118793581D01*
X104159500Y-118996532D01*
X104159500Y-119203467D01*
X104199869Y-119406418D01*
X104279058Y-119597597D01*
X104393128Y-119768316D01*
X104394023Y-119769655D01*
X104540345Y-119915977D01*
X104712402Y-120030941D01*
X104903580Y-120110130D01*
X105106535Y-120150500D01*
X105106536Y-120150500D01*
X105313464Y-120150500D01*
X105313465Y-120150500D01*
X105516420Y-120110130D01*
X105707598Y-120030941D01*
X105879655Y-119915977D01*
X106025977Y-119769655D01*
X106140941Y-119597598D01*
X106220130Y-119406420D01*
X106260500Y-119203465D01*
X106260500Y-118996535D01*
X106220130Y-118793580D01*
X106148683Y-118621094D01*
X106143883Y-118560099D01*
X106170145Y-118513206D01*
X107101057Y-117582296D01*
X107155573Y-117554519D01*
X107171060Y-117553300D01*
X107191043Y-117553300D01*
X107249234Y-117572207D01*
X107269586Y-117592034D01*
X107273097Y-117596610D01*
X107273098Y-117596611D01*
X107273100Y-117596614D01*
X107366286Y-117689800D01*
X107366288Y-117689801D01*
X107366290Y-117689803D01*
X107480410Y-117755690D01*
X107480408Y-117755690D01*
X107480412Y-117755691D01*
X107480414Y-117755692D01*
X107607708Y-117789800D01*
X107607710Y-117789800D01*
X107739490Y-117789800D01*
X107739492Y-117789800D01*
X107866786Y-117755692D01*
X107896555Y-117738504D01*
X107956402Y-117725782D01*
X108012298Y-117750667D01*
X108042892Y-117803654D01*
X108041683Y-117849862D01*
X108026800Y-117905408D01*
X108026800Y-118037192D01*
X108051293Y-118128603D01*
X108060909Y-118164490D01*
X108126796Y-118278609D01*
X108126798Y-118278611D01*
X108126800Y-118278614D01*
X108184373Y-118336187D01*
X108212149Y-118390702D01*
X108202578Y-118451134D01*
X108168065Y-118485646D01*
X108169691Y-118487967D01*
X108162599Y-118492932D01*
X108078933Y-118576598D01*
X108028932Y-118683824D01*
X108028932Y-118683825D01*
X108022500Y-118732685D01*
X108022500Y-119181314D01*
X108028932Y-119230174D01*
X108028932Y-119230175D01*
X108078933Y-119337401D01*
X108078934Y-119337402D01*
X108078935Y-119337404D01*
X108162596Y-119421065D01*
X108162597Y-119421065D01*
X108163504Y-119421972D01*
X108191281Y-119476489D01*
X108192500Y-119491976D01*
X108192500Y-119536264D01*
X108214126Y-119616971D01*
X108217500Y-119642595D01*
X108217500Y-119735024D01*
X108198593Y-119793215D01*
X108188504Y-119805028D01*
X108187597Y-119805934D01*
X108187596Y-119805935D01*
X108140455Y-119853076D01*
X108103933Y-119889598D01*
X108053932Y-119996824D01*
X108053932Y-119996825D01*
X108047500Y-120045685D01*
X108047500Y-120494314D01*
X108053932Y-120543174D01*
X108053932Y-120543175D01*
X108103933Y-120650401D01*
X108103934Y-120650402D01*
X108103935Y-120650404D01*
X108187596Y-120734065D01*
X108187597Y-120734065D01*
X108187598Y-120734066D01*
X108248730Y-120762573D01*
X108293478Y-120804301D01*
X108305153Y-120864362D01*
X108302518Y-120877919D01*
X108292743Y-120914400D01*
X108281300Y-120957108D01*
X108281300Y-121088892D01*
X108306562Y-121183171D01*
X108315409Y-121216190D01*
X108381296Y-121330309D01*
X108381298Y-121330311D01*
X108381300Y-121330314D01*
X108474486Y-121423500D01*
X108474488Y-121423501D01*
X108474490Y-121423503D01*
X108588610Y-121489390D01*
X108588608Y-121489390D01*
X108588612Y-121489391D01*
X108588614Y-121489392D01*
X108715908Y-121523500D01*
X108715910Y-121523500D01*
X108847690Y-121523500D01*
X108847692Y-121523500D01*
X108974986Y-121489392D01*
X108974988Y-121489390D01*
X108974990Y-121489390D01*
X109089109Y-121423503D01*
X109089109Y-121423502D01*
X109089114Y-121423500D01*
X109182300Y-121330314D01*
X109194325Y-121309486D01*
X109248190Y-121216190D01*
X109248190Y-121216188D01*
X109248192Y-121216186D01*
X109282300Y-121088892D01*
X109282300Y-120957108D01*
X109282300Y-120957105D01*
X109281919Y-120954213D01*
X109282300Y-120952156D01*
X109282300Y-120950619D01*
X109282585Y-120950619D01*
X109293066Y-120894052D01*
X109310067Y-120871284D01*
X109348459Y-120832893D01*
X109361858Y-120819495D01*
X109416375Y-120791719D01*
X109431860Y-120790500D01*
X109712314Y-120790500D01*
X109712316Y-120790500D01*
X109761173Y-120784068D01*
X109868404Y-120734065D01*
X109952065Y-120650404D01*
X110002068Y-120543173D01*
X110008500Y-120494316D01*
X110008500Y-120419528D01*
X110027407Y-120361337D01*
X110076907Y-120325373D01*
X110138093Y-120325373D01*
X110187593Y-120361337D01*
X110193232Y-120370021D01*
X110237800Y-120447214D01*
X110330986Y-120540400D01*
X110330988Y-120540401D01*
X110330990Y-120540403D01*
X110445110Y-120606290D01*
X110445108Y-120606290D01*
X110445112Y-120606291D01*
X110445114Y-120606292D01*
X110572408Y-120640400D01*
X110572410Y-120640400D01*
X110704190Y-120640400D01*
X110704192Y-120640400D01*
X110831486Y-120606292D01*
X110831488Y-120606290D01*
X110831490Y-120606290D01*
X110945609Y-120540403D01*
X110945609Y-120540402D01*
X110945614Y-120540400D01*
X111038800Y-120447214D01*
X111043254Y-120439500D01*
X111104690Y-120333090D01*
X111104690Y-120333088D01*
X111104692Y-120333086D01*
X111138800Y-120205792D01*
X111138800Y-120074008D01*
X111104692Y-119946714D01*
X111104691Y-119946712D01*
X111104690Y-119946708D01*
X111102208Y-119940716D01*
X111104152Y-119939910D01*
X111093397Y-119889360D01*
X111118273Y-119833459D01*
X111121835Y-119829704D01*
X111183224Y-119768316D01*
X111233972Y-119659487D01*
X111240500Y-119609901D01*
X111240499Y-119250100D01*
X111233972Y-119200513D01*
X111233972Y-119200511D01*
X111183225Y-119091686D01*
X111183224Y-119091685D01*
X111183224Y-119091684D01*
X111098316Y-119006776D01*
X111098314Y-119006775D01*
X111098313Y-119006774D01*
X110989489Y-118956029D01*
X110989488Y-118956028D01*
X110972958Y-118953852D01*
X110939901Y-118949500D01*
X110939899Y-118949500D01*
X110520103Y-118949500D01*
X110520092Y-118949501D01*
X110470513Y-118956027D01*
X110470511Y-118956027D01*
X110361686Y-119006774D01*
X110276774Y-119091686D01*
X110243035Y-119164040D01*
X110201306Y-119208788D01*
X110153311Y-119221200D01*
X110082500Y-119221200D01*
X110024309Y-119202293D01*
X109988345Y-119152793D01*
X109983500Y-119122200D01*
X109983500Y-118732685D01*
X109979197Y-118700000D01*
X109977068Y-118683827D01*
X109974821Y-118679009D01*
X109927066Y-118576598D01*
X109927065Y-118576597D01*
X109927065Y-118576596D01*
X109843404Y-118492935D01*
X109736173Y-118442932D01*
X109736169Y-118442931D01*
X109731573Y-118440788D01*
X109686825Y-118399059D01*
X109675150Y-118338998D01*
X109701008Y-118283545D01*
X109703380Y-118281088D01*
X109744065Y-118240404D01*
X109794068Y-118133173D01*
X109800500Y-118084316D01*
X109800500Y-117803860D01*
X109819407Y-117745669D01*
X109829496Y-117733857D01*
X110011521Y-117551831D01*
X110066038Y-117524053D01*
X110126470Y-117533624D01*
X110169735Y-117576889D01*
X110179306Y-117637321D01*
X110177153Y-117647453D01*
X110173200Y-117662207D01*
X110173200Y-117662208D01*
X110173200Y-117793992D01*
X110203054Y-117905408D01*
X110207309Y-117921290D01*
X110273196Y-118035409D01*
X110273198Y-118035411D01*
X110273200Y-118035414D01*
X110366386Y-118128600D01*
X110366388Y-118128601D01*
X110366390Y-118128603D01*
X110480510Y-118194490D01*
X110480508Y-118194490D01*
X110480512Y-118194491D01*
X110480514Y-118194492D01*
X110607808Y-118228600D01*
X110607810Y-118228600D01*
X110739591Y-118228600D01*
X110739592Y-118228600D01*
X110792664Y-118214378D01*
X110837606Y-118212909D01*
X110843085Y-118213999D01*
X110843087Y-118214000D01*
X110948113Y-118214000D01*
X111676941Y-118214000D01*
X111731943Y-118230685D01*
X111768336Y-118255002D01*
X111812505Y-118284515D01*
X111892867Y-118300500D01*
X113272132Y-118300499D01*
X113352495Y-118284515D01*
X113443624Y-118223624D01*
X113504515Y-118132495D01*
X113520500Y-118052133D01*
X113520499Y-117847868D01*
X113504515Y-117767505D01*
X113496159Y-117755000D01*
X113479551Y-117696114D01*
X113496159Y-117644999D01*
X113504515Y-117632495D01*
X113520500Y-117552133D01*
X113520499Y-117347868D01*
X113517405Y-117332312D01*
X113524597Y-117271553D01*
X113566129Y-117226623D01*
X113614503Y-117214000D01*
X114226219Y-117214000D01*
X114275717Y-117227263D01*
X114338814Y-117263692D01*
X114466108Y-117297800D01*
X114466110Y-117297800D01*
X114597890Y-117297800D01*
X114597892Y-117297800D01*
X114725186Y-117263692D01*
X114839314Y-117197800D01*
X114932500Y-117104614D01*
X114935568Y-117099300D01*
X114998390Y-116990490D01*
X114998390Y-116990488D01*
X114998392Y-116990486D01*
X115032500Y-116863192D01*
X115032500Y-116731408D01*
X115022375Y-116693621D01*
X115025578Y-116632522D01*
X115064083Y-116584972D01*
X115118002Y-116569000D01*
X116047020Y-116569000D01*
X116105211Y-116587907D01*
X116141175Y-116637407D01*
X116141175Y-116698593D01*
X116117024Y-116738004D01*
X115342882Y-117512145D01*
X115288365Y-117539922D01*
X115227933Y-117530351D01*
X115223378Y-117527878D01*
X115111887Y-117463508D01*
X115053781Y-117447939D01*
X114984592Y-117429400D01*
X114852808Y-117429400D01*
X114852805Y-117429400D01*
X114807498Y-117441539D01*
X114807462Y-117441550D01*
X114725514Y-117463508D01*
X114710965Y-117471907D01*
X114710961Y-117471909D01*
X114611390Y-117529396D01*
X114611385Y-117529400D01*
X114518199Y-117622585D01*
X114517364Y-117624032D01*
X114516185Y-117625210D01*
X114514253Y-117627729D01*
X114513921Y-117627474D01*
X114481136Y-117660256D01*
X114453217Y-117676376D01*
X114445674Y-117680730D01*
X114430591Y-117689438D01*
X113501092Y-118618937D01*
X113446575Y-118646714D01*
X113386143Y-118637143D01*
X113376086Y-118631248D01*
X113352497Y-118615486D01*
X113352496Y-118615485D01*
X113352495Y-118615485D01*
X113272133Y-118599500D01*
X113272132Y-118599500D01*
X111892870Y-118599500D01*
X111892863Y-118599501D01*
X111812505Y-118615484D01*
X111812503Y-118615485D01*
X111721379Y-118676373D01*
X111721373Y-118676379D01*
X111660486Y-118767501D01*
X111660486Y-118767503D01*
X111660485Y-118767505D01*
X111649077Y-118824856D01*
X111644500Y-118847867D01*
X111644500Y-119052129D01*
X111644501Y-119052137D01*
X111660484Y-119132494D01*
X111660485Y-119132496D01*
X111712379Y-119210159D01*
X111721376Y-119223624D01*
X111812505Y-119284515D01*
X111892867Y-119300500D01*
X112467020Y-119300499D01*
X112525211Y-119319406D01*
X112537024Y-119329495D01*
X112773240Y-119565711D01*
X112773239Y-119565711D01*
X112829189Y-119621660D01*
X112897707Y-119661219D01*
X112897711Y-119661221D01*
X112974135Y-119681699D01*
X112974137Y-119681700D01*
X112974138Y-119681700D01*
X113123000Y-119681700D01*
X113181191Y-119700607D01*
X113217155Y-119750107D01*
X113222000Y-119780700D01*
X113222000Y-119784364D01*
X113242478Y-119860788D01*
X113255887Y-119884012D01*
X113255888Y-119884014D01*
X113272912Y-119913501D01*
X113285633Y-119973349D01*
X113260746Y-120029245D01*
X113207757Y-120059837D01*
X113187175Y-120062000D01*
X113127935Y-120062000D01*
X113051514Y-120082477D01*
X113051510Y-120082479D01*
X112987199Y-120119609D01*
X112982991Y-120122038D01*
X112982988Y-120122040D01*
X112534523Y-120570504D01*
X112480007Y-120598281D01*
X112464520Y-120599500D01*
X112240104Y-120599500D01*
X112240092Y-120599501D01*
X112190513Y-120606027D01*
X112190511Y-120606027D01*
X112081686Y-120656774D01*
X111996774Y-120741686D01*
X111946029Y-120850510D01*
X111946028Y-120850511D01*
X111939500Y-120900100D01*
X111939500Y-121259895D01*
X111939501Y-121259907D01*
X111946027Y-121309486D01*
X111946027Y-121309488D01*
X111996774Y-121418313D01*
X111996775Y-121418314D01*
X111996776Y-121418316D01*
X112081684Y-121503224D01*
X112190513Y-121553972D01*
X112240099Y-121560500D01*
X112659900Y-121560499D01*
X112709487Y-121553972D01*
X112709488Y-121553971D01*
X112716759Y-121551853D01*
X112717184Y-121553312D01*
X112769377Y-121546897D01*
X112822895Y-121576554D01*
X112848760Y-121632003D01*
X112849500Y-121644081D01*
X112849500Y-123300500D01*
X112830593Y-123358691D01*
X112781093Y-123394655D01*
X112750500Y-123399500D01*
X112335103Y-123399500D01*
X112335092Y-123399501D01*
X112285513Y-123406027D01*
X112285511Y-123406027D01*
X112176686Y-123456774D01*
X112091774Y-123541686D01*
X112041029Y-123650510D01*
X112041028Y-123650511D01*
X112034500Y-123700100D01*
X112034500Y-124059895D01*
X112034501Y-124059907D01*
X112041027Y-124109486D01*
X112041027Y-124109488D01*
X112091774Y-124218313D01*
X112091775Y-124218314D01*
X112091776Y-124218316D01*
X112176684Y-124303224D01*
X112285513Y-124353972D01*
X112335099Y-124360500D01*
X112754900Y-124360499D01*
X112804487Y-124353972D01*
X112804488Y-124353972D01*
X112907701Y-124305843D01*
X112968430Y-124298386D01*
X112999040Y-124309830D01*
X113034011Y-124330021D01*
X113110435Y-124350499D01*
X113110437Y-124350500D01*
X113110438Y-124350500D01*
X113145500Y-124350500D01*
X113203691Y-124369407D01*
X113239655Y-124418907D01*
X113244500Y-124449500D01*
X113244500Y-124454274D01*
X113247353Y-124484694D01*
X113247355Y-124484703D01*
X113292207Y-124612883D01*
X113372845Y-124722144D01*
X113372847Y-124722146D01*
X113372850Y-124722150D01*
X113372853Y-124722152D01*
X113372855Y-124722154D01*
X113482116Y-124802792D01*
X113482117Y-124802792D01*
X113482118Y-124802793D01*
X113610301Y-124847646D01*
X113640725Y-124850499D01*
X113640727Y-124850500D01*
X113640734Y-124850500D01*
X114649273Y-124850500D01*
X114649273Y-124850499D01*
X114679699Y-124847646D01*
X114807882Y-124802793D01*
X114917150Y-124722150D01*
X114997793Y-124612882D01*
X115042646Y-124484699D01*
X115045499Y-124454273D01*
X115045500Y-124454273D01*
X115045500Y-123645727D01*
X115045499Y-123645725D01*
X115042646Y-123615305D01*
X115042646Y-123615301D01*
X114997793Y-123487118D01*
X114979886Y-123462855D01*
X114917154Y-123377855D01*
X114917152Y-123377853D01*
X114917150Y-123377850D01*
X114917146Y-123377847D01*
X114917144Y-123377845D01*
X114807883Y-123297207D01*
X114679703Y-123252355D01*
X114679694Y-123252353D01*
X114649274Y-123249500D01*
X114649266Y-123249500D01*
X113640734Y-123249500D01*
X113640725Y-123249500D01*
X113610305Y-123252353D01*
X113610301Y-123252354D01*
X113582197Y-123262188D01*
X113521027Y-123263560D01*
X113470733Y-123228716D01*
X113450525Y-123170964D01*
X113450500Y-123168743D01*
X113450500Y-121749500D01*
X113469407Y-121691309D01*
X113518907Y-121655345D01*
X113549500Y-121650500D01*
X115400484Y-121650500D01*
X115458675Y-121669407D01*
X115494639Y-121718907D01*
X115494639Y-121780093D01*
X115493929Y-121782197D01*
X115447354Y-121915301D01*
X115447353Y-121915305D01*
X115444500Y-121945725D01*
X115444500Y-122754274D01*
X115447353Y-122784694D01*
X115447355Y-122784703D01*
X115492207Y-122912883D01*
X115572845Y-123022144D01*
X115572847Y-123022146D01*
X115572850Y-123022150D01*
X115572853Y-123022152D01*
X115572855Y-123022154D01*
X115682116Y-123102792D01*
X115682117Y-123102792D01*
X115682118Y-123102793D01*
X115810301Y-123147646D01*
X115840725Y-123150499D01*
X115840727Y-123150500D01*
X115840734Y-123150500D01*
X116849273Y-123150500D01*
X116849273Y-123150499D01*
X116879699Y-123147646D01*
X116907803Y-123137811D01*
X116968971Y-123136438D01*
X117019266Y-123171281D01*
X117039475Y-123229033D01*
X117039500Y-123231256D01*
X117039500Y-123719564D01*
X117059978Y-123795988D01*
X117059980Y-123795992D01*
X117096877Y-123859899D01*
X117099540Y-123864511D01*
X117155489Y-123920460D01*
X117155491Y-123920461D01*
X117224007Y-123960019D01*
X117224011Y-123960021D01*
X117300435Y-123980499D01*
X117300437Y-123980500D01*
X117300438Y-123980500D01*
X117413761Y-123980500D01*
X117471952Y-123999407D01*
X117485078Y-124012764D01*
X117485652Y-124012191D01*
X117491775Y-124018314D01*
X117491776Y-124018316D01*
X117576684Y-124103224D01*
X117685513Y-124153972D01*
X117735099Y-124160500D01*
X118154900Y-124160499D01*
X118204487Y-124153972D01*
X118204488Y-124153972D01*
X118263137Y-124126622D01*
X118313316Y-124103224D01*
X118398224Y-124018316D01*
X118448972Y-123909487D01*
X118455500Y-123859901D01*
X118455499Y-123521045D01*
X118474406Y-123462855D01*
X118523906Y-123426891D01*
X118585091Y-123426891D01*
X118624500Y-123451040D01*
X118676684Y-123503224D01*
X118785513Y-123553972D01*
X118835099Y-123560500D01*
X119254900Y-123560499D01*
X119304487Y-123553972D01*
X119304488Y-123553972D01*
X119375097Y-123521046D01*
X119413316Y-123503224D01*
X119498224Y-123418316D01*
X119498224Y-123418314D01*
X119504348Y-123412191D01*
X119506394Y-123414237D01*
X119544006Y-123385894D01*
X119576239Y-123380500D01*
X119613761Y-123380500D01*
X119671952Y-123399407D01*
X119685078Y-123412764D01*
X119685652Y-123412191D01*
X119691775Y-123418314D01*
X119691776Y-123418316D01*
X119776684Y-123503224D01*
X119885513Y-123553972D01*
X119935099Y-123560500D01*
X120159520Y-123560499D01*
X120217710Y-123579406D01*
X120229523Y-123589495D01*
X120488488Y-123848459D01*
X120488493Y-123848463D01*
X120557008Y-123888020D01*
X120557006Y-123888020D01*
X120557010Y-123888021D01*
X120557012Y-123888022D01*
X120633438Y-123908500D01*
X120633440Y-123908500D01*
X121619163Y-123908500D01*
X121619163Y-123908499D01*
X121695589Y-123888021D01*
X121764111Y-123848460D01*
X121820060Y-123792511D01*
X121883473Y-123729096D01*
X121937989Y-123701319D01*
X121953477Y-123700100D01*
X122053890Y-123700100D01*
X122053892Y-123700100D01*
X122181186Y-123665992D01*
X122181188Y-123665990D01*
X122181190Y-123665990D01*
X122295309Y-123600103D01*
X122295309Y-123600102D01*
X122295314Y-123600100D01*
X122388500Y-123506914D01*
X122390630Y-123503225D01*
X122454390Y-123392790D01*
X122454390Y-123392788D01*
X122454392Y-123392786D01*
X122488500Y-123265492D01*
X122488500Y-123165077D01*
X122507407Y-123106886D01*
X122517496Y-123095074D01*
X122533113Y-123079457D01*
X122578205Y-123034364D01*
X122632719Y-123006588D01*
X122693151Y-123016159D01*
X122736416Y-123059423D01*
X122745988Y-123119855D01*
X122743565Y-123129953D01*
X122743661Y-123129976D01*
X122742753Y-123133754D01*
X122709500Y-123343709D01*
X122709500Y-123556290D01*
X122742752Y-123766238D01*
X122808443Y-123968412D01*
X122904948Y-124157815D01*
X122904950Y-124157819D01*
X123029891Y-124329786D01*
X123029893Y-124329788D01*
X123029896Y-124329792D01*
X123180208Y-124480104D01*
X123180211Y-124480106D01*
X123180213Y-124480108D01*
X123352180Y-124605049D01*
X123352184Y-124605051D01*
X123541588Y-124701557D01*
X123743757Y-124767246D01*
X123743758Y-124767246D01*
X123743761Y-124767247D01*
X123953710Y-124800500D01*
X123953713Y-124800500D01*
X124166290Y-124800500D01*
X124376238Y-124767247D01*
X124376239Y-124767246D01*
X124376243Y-124767246D01*
X124578412Y-124701557D01*
X124767816Y-124605051D01*
X124939792Y-124480104D01*
X125090104Y-124329792D01*
X125213102Y-124160499D01*
X125215049Y-124157819D01*
X125215051Y-124157816D01*
X125311557Y-123968412D01*
X125377246Y-123766243D01*
X125377247Y-123766238D01*
X125410500Y-123556290D01*
X125410500Y-123343709D01*
X125377247Y-123133761D01*
X125367185Y-123102793D01*
X125311557Y-122931588D01*
X125215051Y-122742184D01*
X125215049Y-122742180D01*
X125090108Y-122570213D01*
X125090106Y-122570211D01*
X125090104Y-122570208D01*
X124939792Y-122419896D01*
X124939788Y-122419893D01*
X124939786Y-122419891D01*
X124767819Y-122294950D01*
X124767815Y-122294948D01*
X124578412Y-122198443D01*
X124376238Y-122132752D01*
X124166290Y-122099500D01*
X124166287Y-122099500D01*
X123953713Y-122099500D01*
X123953710Y-122099500D01*
X123743761Y-122132752D01*
X123541587Y-122198443D01*
X123352184Y-122294948D01*
X123352180Y-122294950D01*
X123180213Y-122419891D01*
X123180208Y-122419895D01*
X123180208Y-122419896D01*
X123089501Y-122510602D01*
X123034987Y-122538378D01*
X122974555Y-122528807D01*
X122931290Y-122485542D01*
X122920500Y-122440597D01*
X122920500Y-121469083D01*
X122939407Y-121410892D01*
X122976020Y-121380142D01*
X122997511Y-121369636D01*
X123079636Y-121287511D01*
X123130645Y-121183170D01*
X123140500Y-121115528D01*
X123140500Y-120754472D01*
X123130645Y-120686830D01*
X123079636Y-120582489D01*
X123017148Y-120520001D01*
X122989373Y-120465487D01*
X122998944Y-120405055D01*
X123017152Y-120379995D01*
X123042653Y-120354495D01*
X123097170Y-120326719D01*
X123112655Y-120325500D01*
X123242952Y-120325500D01*
X123301143Y-120344407D01*
X123312955Y-120354496D01*
X123338455Y-120379995D01*
X123351684Y-120393224D01*
X123460513Y-120443972D01*
X123510099Y-120450500D01*
X123929900Y-120450499D01*
X123979487Y-120443972D01*
X123979488Y-120443972D01*
X124074565Y-120399636D01*
X124088316Y-120393224D01*
X124114393Y-120367147D01*
X124127045Y-120354496D01*
X124181562Y-120326719D01*
X124197048Y-120325500D01*
X124742952Y-120325500D01*
X124801143Y-120344407D01*
X124812955Y-120354496D01*
X124838455Y-120379995D01*
X124851684Y-120393224D01*
X124960513Y-120443972D01*
X125010099Y-120450500D01*
X125429900Y-120450499D01*
X125479487Y-120443972D01*
X125479488Y-120443971D01*
X125486759Y-120441853D01*
X125487276Y-120443627D01*
X125538431Y-120437344D01*
X125589551Y-120464522D01*
X125712340Y-120587311D01*
X125712339Y-120587311D01*
X125768289Y-120643260D01*
X125836807Y-120682819D01*
X125836811Y-120682821D01*
X125913235Y-120703299D01*
X125913237Y-120703300D01*
X125913238Y-120703300D01*
X127992061Y-120703300D01*
X128050252Y-120722207D01*
X128086216Y-120771707D01*
X128086216Y-120832893D01*
X128062066Y-120872301D01*
X128001942Y-120932426D01*
X127964020Y-120970348D01*
X127849058Y-121142402D01*
X127769869Y-121333581D01*
X127729500Y-121536532D01*
X127729500Y-121743467D01*
X127769869Y-121946418D01*
X127849058Y-122137597D01*
X127964020Y-122309651D01*
X127964023Y-122309655D01*
X128110345Y-122455977D01*
X128282402Y-122570941D01*
X128473580Y-122650130D01*
X128676535Y-122690500D01*
X128676536Y-122690500D01*
X128883464Y-122690500D01*
X128883465Y-122690500D01*
X129086420Y-122650130D01*
X129277598Y-122570941D01*
X129449655Y-122455977D01*
X129580498Y-122325133D01*
X129635013Y-122297358D01*
X129695445Y-122306929D01*
X129738710Y-122350194D01*
X129749500Y-122395139D01*
X129749500Y-122949564D01*
X129769978Y-123025988D01*
X129769980Y-123025992D01*
X129809538Y-123094508D01*
X129809540Y-123094511D01*
X130079049Y-123364020D01*
X130344736Y-123629707D01*
X130372513Y-123684224D01*
X130366196Y-123737596D01*
X130309870Y-123873578D01*
X130309870Y-123873580D01*
X130269500Y-124076532D01*
X130269500Y-124283467D01*
X130309869Y-124486418D01*
X130389058Y-124677597D01*
X130504020Y-124849651D01*
X130504023Y-124849655D01*
X130650345Y-124995977D01*
X130650348Y-124995979D01*
X130683580Y-125018184D01*
X130721460Y-125066234D01*
X130723862Y-125127373D01*
X130689869Y-125178246D01*
X130632466Y-125199424D01*
X130628579Y-125199500D01*
X129471421Y-125199500D01*
X129413230Y-125180593D01*
X129377266Y-125131093D01*
X129377266Y-125069907D01*
X129413230Y-125020407D01*
X129416420Y-125018184D01*
X129425152Y-125012348D01*
X129449655Y-124995977D01*
X129595977Y-124849655D01*
X129710941Y-124677598D01*
X129790130Y-124486420D01*
X129830500Y-124283465D01*
X129830500Y-124076535D01*
X129790130Y-123873580D01*
X129710941Y-123682402D01*
X129595977Y-123510345D01*
X129449655Y-123364023D01*
X129449651Y-123364020D01*
X129277597Y-123249058D01*
X129086418Y-123169869D01*
X128883467Y-123129500D01*
X128883465Y-123129500D01*
X128676535Y-123129500D01*
X128676532Y-123129500D01*
X128473581Y-123169869D01*
X128282402Y-123249058D01*
X128110348Y-123364020D01*
X127964020Y-123510348D01*
X127849058Y-123682402D01*
X127769869Y-123873581D01*
X127729500Y-124076532D01*
X127729500Y-124283467D01*
X127769869Y-124486418D01*
X127849058Y-124677597D01*
X127964020Y-124849651D01*
X127964023Y-124849655D01*
X128110345Y-124995977D01*
X128110348Y-124995979D01*
X128143580Y-125018184D01*
X128181460Y-125066234D01*
X128183862Y-125127373D01*
X128149869Y-125178246D01*
X128092466Y-125199424D01*
X128088579Y-125199500D01*
X103361421Y-125199500D01*
X103303230Y-125180593D01*
X103267266Y-125131093D01*
X103267266Y-125069907D01*
X103303230Y-125020407D01*
X103306420Y-125018184D01*
X103315152Y-125012348D01*
X103339655Y-124995977D01*
X103485977Y-124849655D01*
X103600941Y-124677598D01*
X103680130Y-124486420D01*
X103720500Y-124283465D01*
X103720500Y-124076535D01*
X103680130Y-123873580D01*
X103600941Y-123682402D01*
X103485977Y-123510345D01*
X103339655Y-123364023D01*
X103339651Y-123364020D01*
X103309253Y-123343709D01*
X108579500Y-123343709D01*
X108579500Y-123556290D01*
X108612752Y-123766238D01*
X108678443Y-123968412D01*
X108774948Y-124157815D01*
X108774950Y-124157819D01*
X108899891Y-124329786D01*
X108899893Y-124329788D01*
X108899896Y-124329792D01*
X109050208Y-124480104D01*
X109050211Y-124480106D01*
X109050213Y-124480108D01*
X109222180Y-124605049D01*
X109222184Y-124605051D01*
X109411588Y-124701557D01*
X109613757Y-124767246D01*
X109613758Y-124767246D01*
X109613761Y-124767247D01*
X109823710Y-124800500D01*
X109823713Y-124800500D01*
X110036290Y-124800500D01*
X110246238Y-124767247D01*
X110246239Y-124767246D01*
X110246243Y-124767246D01*
X110448412Y-124701557D01*
X110637816Y-124605051D01*
X110809792Y-124480104D01*
X110960104Y-124329792D01*
X111083102Y-124160499D01*
X111085049Y-124157819D01*
X111085051Y-124157816D01*
X111181557Y-123968412D01*
X111247246Y-123766243D01*
X111247247Y-123766238D01*
X111280500Y-123556290D01*
X111280500Y-123343709D01*
X111247247Y-123133761D01*
X111237185Y-123102793D01*
X111181557Y-122931588D01*
X111085051Y-122742184D01*
X111085049Y-122742180D01*
X110960108Y-122570213D01*
X110960106Y-122570211D01*
X110960104Y-122570208D01*
X110809792Y-122419896D01*
X110809788Y-122419893D01*
X110809786Y-122419891D01*
X110637819Y-122294950D01*
X110637815Y-122294948D01*
X110448412Y-122198443D01*
X110246238Y-122132752D01*
X110036290Y-122099500D01*
X110036287Y-122099500D01*
X109823713Y-122099500D01*
X109823710Y-122099500D01*
X109613761Y-122132752D01*
X109411587Y-122198443D01*
X109222184Y-122294948D01*
X109222180Y-122294950D01*
X109050213Y-122419891D01*
X108899891Y-122570213D01*
X108774950Y-122742180D01*
X108774948Y-122742184D01*
X108678443Y-122931587D01*
X108612752Y-123133761D01*
X108579500Y-123343709D01*
X103309253Y-123343709D01*
X103167597Y-123249058D01*
X102976418Y-123169869D01*
X102773467Y-123129500D01*
X102773465Y-123129500D01*
X102566535Y-123129500D01*
X102566532Y-123129500D01*
X102363581Y-123169869D01*
X102172402Y-123249058D01*
X102000348Y-123364020D01*
X101854020Y-123510348D01*
X101739058Y-123682402D01*
X101659869Y-123873581D01*
X101619500Y-124076532D01*
X101619500Y-124283467D01*
X101659869Y-124486418D01*
X101739058Y-124677597D01*
X101854020Y-124849651D01*
X101854023Y-124849655D01*
X102000345Y-124995977D01*
X102000348Y-124995979D01*
X102033580Y-125018184D01*
X102071460Y-125066234D01*
X102073862Y-125127373D01*
X102039869Y-125178246D01*
X101982466Y-125199424D01*
X101978579Y-125199500D01*
X100507790Y-125199500D01*
X100492304Y-125198281D01*
X100478090Y-125196029D01*
X100453835Y-125192188D01*
X100424381Y-125182618D01*
X100396707Y-125168517D01*
X100371652Y-125150314D01*
X100349685Y-125128347D01*
X100331483Y-125103294D01*
X100317379Y-125075614D01*
X100307811Y-125046162D01*
X100301719Y-125007695D01*
X100300500Y-124992209D01*
X100300500Y-103756532D01*
X101619500Y-103756532D01*
X101619500Y-103963467D01*
X101659869Y-104166418D01*
X101739058Y-104357597D01*
X101854020Y-104529651D01*
X101854023Y-104529655D01*
X102000345Y-104675977D01*
X102172402Y-104790941D01*
X102363580Y-104870130D01*
X102566535Y-104910500D01*
X102566536Y-104910500D01*
X102773464Y-104910500D01*
X102773465Y-104910500D01*
X102976420Y-104870130D01*
X103167598Y-104790941D01*
X103339655Y-104675977D01*
X103485977Y-104529655D01*
X103600941Y-104357598D01*
X103680130Y-104166420D01*
X103720500Y-103963465D01*
X103720500Y-103756535D01*
X103680130Y-103553580D01*
X103600941Y-103362402D01*
X103485977Y-103190345D01*
X103339655Y-103044023D01*
X103221388Y-102965000D01*
X103167597Y-102929058D01*
X102976418Y-102849869D01*
X102773467Y-102809500D01*
X102773465Y-102809500D01*
X102566535Y-102809500D01*
X102566532Y-102809500D01*
X102363581Y-102849869D01*
X102172402Y-102929058D01*
X102000348Y-103044020D01*
X101854020Y-103190348D01*
X101739058Y-103362402D01*
X101659869Y-103553581D01*
X101619500Y-103756532D01*
X100300500Y-103756532D01*
X100300500Y-100507789D01*
X100301719Y-100492303D01*
X100303210Y-100482882D01*
X100307811Y-100453834D01*
X100317379Y-100424386D01*
X100331485Y-100396701D01*
X100349682Y-100371654D01*
X100371654Y-100349682D01*
X100396701Y-100331485D01*
X100424386Y-100317379D01*
X100453834Y-100307811D01*
X100482882Y-100303210D01*
X100492303Y-100301719D01*
X100507789Y-100300500D01*
X100547593Y-100300500D01*
X101528656Y-100300500D01*
X101586847Y-100319407D01*
G37*
%TD.AperFunction*%
%TA.AperFunction,Conductor*%
G36*
X119218779Y-115280234D02*
G01*
X119259570Y-115318944D01*
X119316996Y-115418409D01*
X119316998Y-115418411D01*
X119317000Y-115418414D01*
X119410186Y-115511600D01*
X119410188Y-115511601D01*
X119410190Y-115511603D01*
X119524310Y-115577490D01*
X119524308Y-115577490D01*
X119524312Y-115577491D01*
X119524314Y-115577492D01*
X119651608Y-115611600D01*
X119651610Y-115611600D01*
X119783387Y-115611600D01*
X119783392Y-115611600D01*
X119783396Y-115611598D01*
X119789112Y-115610846D01*
X119849273Y-115621994D01*
X119872041Y-115638995D01*
X119893266Y-115660219D01*
X119906856Y-115673809D01*
X119921655Y-115679938D01*
X119968180Y-115719674D01*
X119982465Y-115779168D01*
X119980868Y-115790717D01*
X119969500Y-115847864D01*
X119969500Y-116052129D01*
X119969501Y-116052134D01*
X119972595Y-116067686D01*
X119965403Y-116128447D01*
X119923871Y-116173377D01*
X119875497Y-116186000D01*
X119107086Y-116186000D01*
X119068885Y-116201823D01*
X119007888Y-116206623D01*
X119005379Y-116205986D01*
X118976694Y-116198300D01*
X118976692Y-116198300D01*
X118844908Y-116198300D01*
X118767000Y-116219175D01*
X118717609Y-116232409D01*
X118603490Y-116298296D01*
X118510296Y-116391490D01*
X118444409Y-116505609D01*
X118440778Y-116519160D01*
X118410300Y-116632908D01*
X118410300Y-116764692D01*
X118436692Y-116863190D01*
X118444409Y-116891990D01*
X118510296Y-117006109D01*
X118510298Y-117006111D01*
X118510300Y-117006114D01*
X118603486Y-117099300D01*
X118603488Y-117099301D01*
X118603490Y-117099303D01*
X118710487Y-117161078D01*
X118751428Y-117206547D01*
X118757824Y-117267397D01*
X118756614Y-117272436D01*
X118743145Y-117322703D01*
X118726339Y-117385423D01*
X118693018Y-117436737D01*
X118635896Y-117458664D01*
X118630714Y-117458800D01*
X118594408Y-117458800D01*
X118516500Y-117479675D01*
X118467109Y-117492909D01*
X118352990Y-117558796D01*
X118259796Y-117651990D01*
X118193909Y-117766109D01*
X118187561Y-117789800D01*
X118159800Y-117893408D01*
X118159800Y-118025192D01*
X118188552Y-118132496D01*
X118193909Y-118152490D01*
X118259796Y-118266609D01*
X118259798Y-118266611D01*
X118259800Y-118266614D01*
X118333413Y-118340227D01*
X118361189Y-118394742D01*
X118351618Y-118455174D01*
X118312909Y-118495965D01*
X118220188Y-118549498D01*
X118126996Y-118642690D01*
X118061109Y-118756809D01*
X118051257Y-118793580D01*
X118027000Y-118884108D01*
X118027000Y-119015892D01*
X118047308Y-119091684D01*
X118061109Y-119143190D01*
X118126996Y-119257309D01*
X118130949Y-119262460D01*
X118129354Y-119263683D01*
X118152960Y-119310013D01*
X118143389Y-119370445D01*
X118100124Y-119413710D01*
X118055180Y-119424500D01*
X117892870Y-119424500D01*
X117892862Y-119424501D01*
X117812505Y-119440484D01*
X117812503Y-119440485D01*
X117721379Y-119501373D01*
X117721373Y-119501379D01*
X117660486Y-119592501D01*
X117660486Y-119592503D01*
X117660485Y-119592505D01*
X117648469Y-119652911D01*
X117644500Y-119672866D01*
X117644500Y-121052129D01*
X117644501Y-121052136D01*
X117660484Y-121132494D01*
X117660485Y-121132497D01*
X117677814Y-121158429D01*
X117694500Y-121213432D01*
X117694500Y-121405549D01*
X117693467Y-121405549D01*
X117691567Y-121434514D01*
X117679700Y-121478804D01*
X117679700Y-121478808D01*
X117679700Y-121610592D01*
X117705555Y-121707086D01*
X117713809Y-121737890D01*
X117779696Y-121852009D01*
X117779698Y-121852011D01*
X117779700Y-121852014D01*
X117872886Y-121945200D01*
X117872888Y-121945201D01*
X117872890Y-121945203D01*
X117987010Y-122011090D01*
X117987008Y-122011090D01*
X117987012Y-122011091D01*
X117987014Y-122011092D01*
X118114308Y-122045200D01*
X118114310Y-122045200D01*
X118246090Y-122045200D01*
X118246092Y-122045200D01*
X118373386Y-122011092D01*
X118373388Y-122011090D01*
X118373390Y-122011090D01*
X118487509Y-121945203D01*
X118487509Y-121945202D01*
X118487514Y-121945200D01*
X118580700Y-121852014D01*
X118580703Y-121852009D01*
X118646590Y-121737890D01*
X118646590Y-121737888D01*
X118646592Y-121737886D01*
X118680700Y-121610592D01*
X118680700Y-121478808D01*
X118656619Y-121388936D01*
X118659821Y-121327839D01*
X118698326Y-121280289D01*
X118757427Y-121264453D01*
X118807245Y-121281000D01*
X118812505Y-121284515D01*
X118885735Y-121299081D01*
X118936422Y-121326174D01*
X119133747Y-121523500D01*
X119309657Y-121699410D01*
X119406685Y-121739600D01*
X119406687Y-121739600D01*
X120154843Y-121739600D01*
X120213034Y-121758507D01*
X120233386Y-121778334D01*
X120236897Y-121782910D01*
X120236898Y-121782911D01*
X120236900Y-121782914D01*
X120330086Y-121876100D01*
X120330088Y-121876101D01*
X120330090Y-121876103D01*
X120444210Y-121941990D01*
X120444208Y-121941990D01*
X120444212Y-121941991D01*
X120444214Y-121941992D01*
X120571508Y-121976100D01*
X120571510Y-121976100D01*
X120703290Y-121976100D01*
X120703292Y-121976100D01*
X120830586Y-121941992D01*
X120830588Y-121941990D01*
X120830590Y-121941990D01*
X120944709Y-121876103D01*
X120944709Y-121876102D01*
X120944714Y-121876100D01*
X121037900Y-121782914D01*
X121040544Y-121778334D01*
X121103790Y-121668790D01*
X121103790Y-121668788D01*
X121103792Y-121668786D01*
X121137900Y-121541492D01*
X121137900Y-121479500D01*
X121156807Y-121421309D01*
X121206307Y-121385345D01*
X121236900Y-121380500D01*
X121254800Y-121380500D01*
X121312991Y-121399407D01*
X121348955Y-121448907D01*
X121353800Y-121479500D01*
X121353800Y-121579792D01*
X121362053Y-121610592D01*
X121387909Y-121707090D01*
X121453796Y-121821209D01*
X121453798Y-121821211D01*
X121453800Y-121821214D01*
X121546986Y-121914400D01*
X121546991Y-121914403D01*
X121551309Y-121917716D01*
X121585967Y-121968139D01*
X121584368Y-122029304D01*
X121576782Y-122045761D01*
X121518208Y-122147212D01*
X121484100Y-122274509D01*
X121484100Y-122406291D01*
X121484854Y-122412021D01*
X121473700Y-122472181D01*
X121456704Y-122494942D01*
X121381142Y-122570504D01*
X121326625Y-122598281D01*
X121311138Y-122599500D01*
X121035104Y-122599500D01*
X121035092Y-122599501D01*
X120985513Y-122606027D01*
X120985511Y-122606027D01*
X120876686Y-122656774D01*
X120791775Y-122741685D01*
X120784724Y-122756807D01*
X120742995Y-122801554D01*
X120682933Y-122813228D01*
X120627481Y-122787369D01*
X120605276Y-122756807D01*
X120600812Y-122747235D01*
X120598224Y-122741684D01*
X120513316Y-122656776D01*
X120513314Y-122656775D01*
X120513313Y-122656774D01*
X120404489Y-122606029D01*
X120404488Y-122606028D01*
X120387958Y-122603852D01*
X120354901Y-122599500D01*
X120354899Y-122599500D01*
X119935103Y-122599500D01*
X119935092Y-122599501D01*
X119885513Y-122606027D01*
X119885511Y-122606027D01*
X119776686Y-122656774D01*
X119776684Y-122656775D01*
X119776684Y-122656776D01*
X119691776Y-122741684D01*
X119691775Y-122741685D01*
X119685652Y-122747809D01*
X119683605Y-122745762D01*
X119645994Y-122774106D01*
X119613761Y-122779500D01*
X119576239Y-122779500D01*
X119518048Y-122760593D01*
X119504921Y-122747235D01*
X119504348Y-122747809D01*
X119498224Y-122741685D01*
X119498224Y-122741684D01*
X119413316Y-122656776D01*
X119413314Y-122656775D01*
X119413313Y-122656774D01*
X119304489Y-122606029D01*
X119304488Y-122606028D01*
X119287958Y-122603852D01*
X119254901Y-122599500D01*
X119254899Y-122599500D01*
X118835103Y-122599500D01*
X118835092Y-122599501D01*
X118785513Y-122606027D01*
X118785511Y-122606027D01*
X118676686Y-122656774D01*
X118591774Y-122741686D01*
X118541029Y-122850510D01*
X118541028Y-122850511D01*
X118534500Y-122900100D01*
X118534500Y-123238953D01*
X118515593Y-123297144D01*
X118466093Y-123333108D01*
X118404907Y-123333108D01*
X118365498Y-123308958D01*
X118313316Y-123256776D01*
X118313314Y-123256775D01*
X118313313Y-123256774D01*
X118204489Y-123206029D01*
X118204488Y-123206028D01*
X118179694Y-123202764D01*
X118154901Y-123199500D01*
X118154900Y-123199500D01*
X117739500Y-123199500D01*
X117681309Y-123180593D01*
X117645345Y-123131093D01*
X117640500Y-123100500D01*
X117640500Y-122310437D01*
X117640499Y-122310435D01*
X117636349Y-122294949D01*
X117620021Y-122234011D01*
X117580460Y-122165489D01*
X117524511Y-122109540D01*
X117524508Y-122109538D01*
X117455992Y-122069980D01*
X117455988Y-122069978D01*
X117379564Y-122049500D01*
X117379562Y-122049500D01*
X117344500Y-122049500D01*
X117286309Y-122030593D01*
X117250345Y-121981093D01*
X117245500Y-121950500D01*
X117245500Y-121945727D01*
X117245499Y-121945725D01*
X117242646Y-121915305D01*
X117242646Y-121915301D01*
X117197793Y-121787118D01*
X117194690Y-121782914D01*
X117117154Y-121677855D01*
X117117152Y-121677853D01*
X117117150Y-121677850D01*
X117117146Y-121677847D01*
X117117144Y-121677845D01*
X117007883Y-121597207D01*
X116879703Y-121552355D01*
X116879699Y-121552354D01*
X116879697Y-121552353D01*
X116873815Y-121551069D01*
X116874434Y-121548234D01*
X116828962Y-121528508D01*
X116797864Y-121475814D01*
X116795500Y-121454307D01*
X116795500Y-121399499D01*
X116814407Y-121341308D01*
X116863907Y-121305344D01*
X116894493Y-121300499D01*
X117097132Y-121300499D01*
X117177495Y-121284515D01*
X117268624Y-121223624D01*
X117329515Y-121132495D01*
X117345500Y-121052133D01*
X117345499Y-119672868D01*
X117329515Y-119592505D01*
X117291936Y-119536264D01*
X117275684Y-119511941D01*
X117259000Y-119456940D01*
X117259000Y-119227456D01*
X117277907Y-119169265D01*
X117297739Y-119148909D01*
X117302304Y-119145405D01*
X117302314Y-119145400D01*
X117395500Y-119052214D01*
X117395503Y-119052209D01*
X117461390Y-118938090D01*
X117461390Y-118938088D01*
X117461392Y-118938086D01*
X117495500Y-118810792D01*
X117495500Y-118679008D01*
X117461392Y-118551714D01*
X117461390Y-118551711D01*
X117461390Y-118551709D01*
X117395503Y-118437590D01*
X117395501Y-118437588D01*
X117395500Y-118437586D01*
X117302314Y-118344400D01*
X117302311Y-118344398D01*
X117302309Y-118344396D01*
X117188189Y-118278509D01*
X117188191Y-118278509D01*
X117138799Y-118265275D01*
X117060892Y-118244400D01*
X116929108Y-118244400D01*
X116929105Y-118244400D01*
X116923375Y-118245154D01*
X116863215Y-118233999D01*
X116840459Y-118217006D01*
X116735195Y-118111743D01*
X116707419Y-118057227D01*
X116706200Y-118041740D01*
X116706200Y-117942409D01*
X116706200Y-117942408D01*
X116672092Y-117815114D01*
X116672090Y-117815111D01*
X116672090Y-117815109D01*
X116606203Y-117700990D01*
X116606201Y-117700988D01*
X116606200Y-117700986D01*
X116513014Y-117607800D01*
X116513011Y-117607798D01*
X116513009Y-117607796D01*
X116398889Y-117541909D01*
X116398888Y-117541908D01*
X116378526Y-117536452D01*
X116327213Y-117503126D01*
X116305288Y-117446004D01*
X116321125Y-117386904D01*
X116334143Y-117370827D01*
X117995275Y-115709696D01*
X118049792Y-115681919D01*
X118065279Y-115680700D01*
X118636663Y-115680700D01*
X118636663Y-115680699D01*
X118713089Y-115660221D01*
X118781611Y-115620660D01*
X118819275Y-115582996D01*
X118837561Y-115564711D01*
X119103830Y-115298441D01*
X119158347Y-115270663D01*
X119218779Y-115280234D01*
G37*
%TD.AperFunction*%
%TA.AperFunction,Conductor*%
G36*
X125183691Y-119228907D02*
G01*
X125219655Y-119278407D01*
X125224500Y-119309000D01*
X125224500Y-119390500D01*
X125205593Y-119448691D01*
X125156093Y-119484655D01*
X125125501Y-119489500D01*
X125010104Y-119489500D01*
X125010092Y-119489501D01*
X124960513Y-119496027D01*
X124960511Y-119496027D01*
X124851686Y-119546774D01*
X124766771Y-119631689D01*
X124766351Y-119632290D01*
X124765620Y-119632840D01*
X124760652Y-119637809D01*
X124759953Y-119637110D01*
X124717483Y-119669109D01*
X124685259Y-119674500D01*
X124254741Y-119674500D01*
X124196550Y-119655593D01*
X124173649Y-119632290D01*
X124173228Y-119631689D01*
X124173224Y-119631685D01*
X124173224Y-119631684D01*
X124088316Y-119546776D01*
X124088314Y-119546775D01*
X124088313Y-119546774D01*
X124082658Y-119544137D01*
X124037911Y-119502407D01*
X124025500Y-119454414D01*
X124025500Y-119309000D01*
X124044407Y-119250809D01*
X124093907Y-119214845D01*
X124124500Y-119210000D01*
X125125500Y-119210000D01*
X125183691Y-119228907D01*
G37*
%TD.AperFunction*%
%TA.AperFunction,Conductor*%
G36*
X122649821Y-115833266D02*
G01*
X122653583Y-115836835D01*
X122857744Y-116040996D01*
X122885521Y-116095513D01*
X122875950Y-116155945D01*
X122832685Y-116199210D01*
X122787740Y-116210000D01*
X122449999Y-116210000D01*
X122423066Y-116236933D01*
X122368549Y-116264710D01*
X122327439Y-116262555D01*
X122294826Y-116253816D01*
X122250446Y-116228194D01*
X122025189Y-116002937D01*
X121997412Y-115948420D01*
X122006983Y-115887988D01*
X122050248Y-115844723D01*
X122110680Y-115835152D01*
X122120799Y-115837302D01*
X122247308Y-115871200D01*
X122247310Y-115871200D01*
X122379090Y-115871200D01*
X122379092Y-115871200D01*
X122506386Y-115837092D01*
X122534079Y-115821103D01*
X122593924Y-115808381D01*
X122649821Y-115833266D01*
G37*
%TD.AperFunction*%
%TA.AperFunction,Conductor*%
G36*
X114699518Y-110895786D02*
G01*
X114729181Y-110949300D01*
X114731000Y-110968190D01*
X114731000Y-111131940D01*
X114714316Y-111186941D01*
X114660486Y-111267502D01*
X114660486Y-111267503D01*
X114660485Y-111267505D01*
X114649237Y-111324055D01*
X114644500Y-111347866D01*
X114644500Y-112727129D01*
X114644501Y-112727136D01*
X114660484Y-112807494D01*
X114660485Y-112807496D01*
X114721373Y-112898620D01*
X114721376Y-112898624D01*
X114812505Y-112959515D01*
X114892867Y-112975500D01*
X115097132Y-112975499D01*
X115177495Y-112959515D01*
X115189996Y-112951161D01*
X115248883Y-112934551D01*
X115300000Y-112951159D01*
X115312505Y-112959515D01*
X115392867Y-112975500D01*
X115597132Y-112975499D01*
X115597134Y-112975498D01*
X115601974Y-112975022D01*
X115602090Y-112976209D01*
X115657502Y-112982761D01*
X115702437Y-113024288D01*
X115714381Y-113084296D01*
X115688772Y-113139864D01*
X115686070Y-113142675D01*
X115085145Y-113743603D01*
X115030628Y-113771381D01*
X115015141Y-113772600D01*
X114424360Y-113772600D01*
X114366169Y-113753693D01*
X114354356Y-113743604D01*
X113864396Y-113253644D01*
X113836619Y-113199127D01*
X113835400Y-113183640D01*
X113835400Y-113142887D01*
X113824050Y-113115486D01*
X113822764Y-113112383D01*
X113817964Y-113051389D01*
X113849933Y-112999219D01*
X113906461Y-112975804D01*
X113914206Y-112975499D01*
X114097132Y-112975499D01*
X114177495Y-112959515D01*
X114268624Y-112898624D01*
X114329515Y-112807495D01*
X114345500Y-112727133D01*
X114345499Y-111347868D01*
X114329515Y-111267505D01*
X114308688Y-111236335D01*
X114292080Y-111177447D01*
X114313258Y-111120044D01*
X114349162Y-111091612D01*
X114440404Y-111049065D01*
X114524065Y-110965404D01*
X114542276Y-110926349D01*
X114584004Y-110881603D01*
X114644065Y-110869928D01*
X114699518Y-110895786D01*
G37*
%TD.AperFunction*%
%TA.AperFunction,Conductor*%
G36*
X112526513Y-109946769D02*
G01*
X112534626Y-109948942D01*
X112540435Y-109950499D01*
X112540437Y-109950500D01*
X112540438Y-109950500D01*
X112617605Y-109950500D01*
X112675796Y-109969407D01*
X112707329Y-110007660D01*
X112717933Y-110030401D01*
X112717934Y-110030402D01*
X112717935Y-110030404D01*
X112801596Y-110114065D01*
X112801597Y-110114065D01*
X112801598Y-110114066D01*
X112908824Y-110164067D01*
X112908825Y-110164067D01*
X112908827Y-110164068D01*
X112957684Y-110170500D01*
X112957685Y-110170500D01*
X113306314Y-110170500D01*
X113306316Y-110170500D01*
X113355173Y-110164068D01*
X113462404Y-110114065D01*
X113546065Y-110030404D01*
X113552275Y-110017085D01*
X113594003Y-109972337D01*
X113654064Y-109960662D01*
X113709517Y-109986519D01*
X113731725Y-110017086D01*
X113737935Y-110030404D01*
X113742903Y-110037499D01*
X113740495Y-110039184D01*
X113761808Y-110081035D01*
X113752223Y-110141465D01*
X113734027Y-110166503D01*
X113695935Y-110204595D01*
X113695933Y-110204598D01*
X113645932Y-110311824D01*
X113645932Y-110311825D01*
X113644831Y-110320191D01*
X113639500Y-110360684D01*
X113639500Y-110809316D01*
X113639636Y-110810348D01*
X113645932Y-110858174D01*
X113645932Y-110858175D01*
X113695933Y-110965401D01*
X113695934Y-110965402D01*
X113695935Y-110965404D01*
X113747295Y-111016764D01*
X113775071Y-111071279D01*
X113765500Y-111131711D01*
X113732295Y-111169079D01*
X113721380Y-111176372D01*
X113721373Y-111176379D01*
X113660486Y-111267501D01*
X113660486Y-111267503D01*
X113660485Y-111267505D01*
X113649237Y-111324055D01*
X113644500Y-111347866D01*
X113644500Y-111454820D01*
X113625593Y-111513011D01*
X113576093Y-111548975D01*
X113519878Y-111550447D01*
X113492801Y-111543192D01*
X113469692Y-111537000D01*
X113337908Y-111537000D01*
X113287723Y-111550447D01*
X113210609Y-111571109D01*
X113096490Y-111636996D01*
X113096489Y-111636997D01*
X113096486Y-111636999D01*
X113096486Y-111637000D01*
X113025480Y-111708005D01*
X112970966Y-111735781D01*
X112955479Y-111737000D01*
X112645180Y-111737000D01*
X112586989Y-111718093D01*
X112555456Y-111679839D01*
X112502225Y-111565686D01*
X112502224Y-111565685D01*
X112502224Y-111565684D01*
X112417316Y-111480776D01*
X112417314Y-111480775D01*
X112417313Y-111480774D01*
X112308489Y-111430029D01*
X112308488Y-111430028D01*
X112283694Y-111426764D01*
X112258901Y-111423500D01*
X112258900Y-111423500D01*
X112034479Y-111423500D01*
X111976288Y-111404593D01*
X111964475Y-111394504D01*
X111798896Y-111228925D01*
X111771119Y-111174408D01*
X111769900Y-111158921D01*
X111769900Y-110294079D01*
X111788807Y-110235888D01*
X111798896Y-110224075D01*
X111853475Y-110169496D01*
X111907992Y-110141719D01*
X111923479Y-110140500D01*
X112158524Y-110140500D01*
X112158528Y-110140500D01*
X112226170Y-110130645D01*
X112330511Y-110079636D01*
X112412636Y-109997511D01*
X112412639Y-109997504D01*
X112417401Y-109990836D01*
X112418801Y-109991835D01*
X112454478Y-109954948D01*
X112514742Y-109944369D01*
X112526513Y-109946769D01*
G37*
%TD.AperFunction*%
%TA.AperFunction,Conductor*%
G36*
X116189945Y-107058606D02*
G01*
X116215000Y-107076809D01*
X116219705Y-107081514D01*
X116219707Y-107081515D01*
X116219709Y-107081517D01*
X116349791Y-107156620D01*
X116349789Y-107156620D01*
X116349793Y-107156621D01*
X116349795Y-107156622D01*
X116494892Y-107195500D01*
X116494894Y-107195500D01*
X116569500Y-107195500D01*
X116627691Y-107214407D01*
X116663655Y-107263907D01*
X116668500Y-107294500D01*
X116668500Y-107976859D01*
X116649593Y-108035050D01*
X116639504Y-108046862D01*
X116591790Y-108094576D01*
X116547353Y-108195216D01*
X116544500Y-108219808D01*
X116544500Y-108219814D01*
X116544500Y-108219815D01*
X116544500Y-108416856D01*
X116544501Y-108527000D01*
X116525594Y-108585190D01*
X116476094Y-108621154D01*
X116445501Y-108626000D01*
X116344500Y-108626000D01*
X116286309Y-108607093D01*
X116250345Y-108557593D01*
X116245500Y-108527000D01*
X116245499Y-108219819D01*
X116245499Y-108219816D01*
X116242646Y-108195214D01*
X116198211Y-108094578D01*
X116120422Y-108016789D01*
X116019786Y-107972354D01*
X116019785Y-107972353D01*
X116019783Y-107972353D01*
X115995188Y-107969500D01*
X115719819Y-107969500D01*
X115719816Y-107969501D01*
X115695214Y-107972354D01*
X115594578Y-108016789D01*
X115516789Y-108094578D01*
X115472353Y-108195216D01*
X115469500Y-108219808D01*
X115469500Y-108353079D01*
X115450593Y-108411270D01*
X115401093Y-108447234D01*
X115339907Y-108447234D01*
X115300498Y-108423084D01*
X115258914Y-108381500D01*
X115258911Y-108381498D01*
X115258909Y-108381496D01*
X115144789Y-108315609D01*
X115144791Y-108315609D01*
X115076500Y-108297311D01*
X115017492Y-108281500D01*
X114885708Y-108281500D01*
X114758414Y-108315608D01*
X114758413Y-108315608D01*
X114755877Y-108316288D01*
X114694775Y-108313085D01*
X114659998Y-108285911D01*
X114658189Y-108287721D01*
X114652065Y-108281597D01*
X114652065Y-108281596D01*
X114568404Y-108197935D01*
X114568402Y-108197934D01*
X114568401Y-108197933D01*
X114461175Y-108147932D01*
X114428601Y-108143644D01*
X114412316Y-108141500D01*
X114063684Y-108141500D01*
X114047398Y-108143644D01*
X114014825Y-108147932D01*
X114014824Y-108147932D01*
X113907598Y-108197933D01*
X113823933Y-108281598D01*
X113773932Y-108388824D01*
X113773932Y-108388825D01*
X113767500Y-108437685D01*
X113767500Y-108886314D01*
X113773932Y-108935174D01*
X113773932Y-108935175D01*
X113823933Y-109042401D01*
X113823934Y-109042402D01*
X113823935Y-109042404D01*
X113824529Y-109042998D01*
X113825004Y-109043931D01*
X113828903Y-109049499D01*
X113828120Y-109050046D01*
X113852305Y-109097513D01*
X113842734Y-109157945D01*
X113824528Y-109183004D01*
X113821597Y-109185934D01*
X113821596Y-109185935D01*
X113774535Y-109232996D01*
X113737933Y-109269598D01*
X113731724Y-109282915D01*
X113689995Y-109327663D01*
X113629934Y-109339337D01*
X113574482Y-109313478D01*
X113552276Y-109282915D01*
X113546066Y-109269598D01*
X113546065Y-109269597D01*
X113546065Y-109269596D01*
X113462404Y-109185935D01*
X113462402Y-109185934D01*
X113462401Y-109185933D01*
X113355175Y-109135932D01*
X113322601Y-109131644D01*
X113306316Y-109129500D01*
X112979500Y-109129500D01*
X112921309Y-109110593D01*
X112885345Y-109061093D01*
X112880500Y-109030500D01*
X112880500Y-107849500D01*
X112899407Y-107791309D01*
X112948907Y-107755345D01*
X112979500Y-107750500D01*
X114916142Y-107750500D01*
X114916144Y-107750500D01*
X115005288Y-107726614D01*
X115085212Y-107680469D01*
X115150469Y-107615212D01*
X115196614Y-107535288D01*
X115220500Y-107446144D01*
X115220500Y-107166843D01*
X115239407Y-107108652D01*
X115288907Y-107072688D01*
X115350093Y-107072688D01*
X115369001Y-107081107D01*
X115369703Y-107081512D01*
X115369705Y-107081514D01*
X115499795Y-107156622D01*
X115644892Y-107195500D01*
X115644894Y-107195500D01*
X115795106Y-107195500D01*
X115795108Y-107195500D01*
X115940205Y-107156622D01*
X115940207Y-107156620D01*
X115940209Y-107156620D01*
X116070290Y-107081517D01*
X116070290Y-107081516D01*
X116070295Y-107081514D01*
X116074998Y-107076810D01*
X116129513Y-107049035D01*
X116189945Y-107058606D01*
G37*
%TD.AperFunction*%
%TA.AperFunction,Conductor*%
G36*
X109596162Y-103994407D02*
G01*
X109632126Y-104043907D01*
X109632126Y-104105093D01*
X109596162Y-104154593D01*
X109575856Y-104165964D01*
X109502158Y-104196490D01*
X109502156Y-104196491D01*
X109502156Y-104196492D01*
X109337892Y-104360756D01*
X109337891Y-104360757D01*
X109332845Y-104365804D01*
X109278328Y-104393581D01*
X109262841Y-104394800D01*
X109233485Y-104394800D01*
X109136457Y-104434989D01*
X108934991Y-104636456D01*
X108894800Y-104733487D01*
X108894800Y-104838513D01*
X108900764Y-104852912D01*
X108908300Y-104890797D01*
X108908300Y-105599629D01*
X108934389Y-105662615D01*
X108939190Y-105723611D01*
X108907220Y-105775780D01*
X108850692Y-105799195D01*
X108842925Y-105799500D01*
X108650725Y-105799500D01*
X108620305Y-105802353D01*
X108620296Y-105802355D01*
X108492118Y-105847206D01*
X108483288Y-105853724D01*
X108425240Y-105873065D01*
X108366909Y-105854593D01*
X108330577Y-105805363D01*
X108325500Y-105774068D01*
X108325500Y-104074500D01*
X108344407Y-104016309D01*
X108393907Y-103980345D01*
X108424500Y-103975500D01*
X109537971Y-103975500D01*
X109596162Y-103994407D01*
G37*
%TD.AperFunction*%
%TA.AperFunction,Conductor*%
G36*
X112603808Y-103994407D02*
G01*
X112639772Y-104043907D01*
X112639772Y-104105093D01*
X112603808Y-104154593D01*
X112564932Y-104171598D01*
X112457065Y-104193054D01*
X112324217Y-104248081D01*
X112204655Y-104327969D01*
X112102969Y-104429655D01*
X112023082Y-104549215D01*
X111972682Y-104670893D01*
X111932945Y-104717418D01*
X111873450Y-104731702D01*
X111839379Y-104722732D01*
X111827983Y-104717418D01*
X111756173Y-104683932D01*
X111707316Y-104677500D01*
X111358684Y-104677500D01*
X111340530Y-104679890D01*
X111309827Y-104683932D01*
X111257163Y-104708490D01*
X111196433Y-104715946D01*
X111145322Y-104688770D01*
X111136444Y-104679892D01*
X111136442Y-104679891D01*
X111136441Y-104679890D01*
X111122039Y-104673924D01*
X111089925Y-104652465D01*
X110754731Y-104317270D01*
X110733270Y-104285150D01*
X110727309Y-104270758D01*
X110727308Y-104270757D01*
X110727308Y-104270756D01*
X110653044Y-104196492D01*
X110653042Y-104196491D01*
X110653041Y-104196490D01*
X110579344Y-104165964D01*
X110532818Y-104126228D01*
X110518534Y-104066733D01*
X110541949Y-104010205D01*
X110594118Y-103978235D01*
X110617229Y-103975500D01*
X112545617Y-103975500D01*
X112603808Y-103994407D01*
G37*
%TD.AperFunction*%
%TD*%
M02*
