%TF.GenerationSoftware,KiCad,Pcbnew,10.0.6*%
%TF.CreationDate,2026-10-01T22:49:05+00:00*%
%TF.ProjectId,nicklink,6e69636b-6c69-46e6-9b2e-6b696361645f,rev?*%
%TF.SameCoordinates,Original*%
%TF.FileFunction,Soldermask,Bot*%
%TF.FilePolarity,Negative*%
%FSLAX46Y46*%
G04 Gerber Fmt 4.6, Leading zero omitted, Abs format (unit mm)*
G04 Created by KiCad (PCBNEW 10.0.6) date 2026-10-01 22:49:05*
%MOMM*%
%LPD*%
G01*
G04 APERTURE LIST*
%ADD10C,0.700000*%
%ADD11O,0.900000X2.400000*%
%ADD12O,0.900000X1.700000*%
%ADD13R,1.700000X1.700000*%
%ADD14C,1.700000*%
%ADD15C,2.200000*%
G04 APERTURE END LIST*
D10*
%TO.C,J2*%
X119570000Y-106625000D03*
X118720000Y-106625000D03*
X117870000Y-106625000D03*
X117020000Y-106625000D03*
X116170000Y-106625000D03*
X115320000Y-106625000D03*
X114470000Y-106625000D03*
X113620000Y-106625000D03*
X113620000Y-105275000D03*
X114470000Y-105275000D03*
X115320000Y-105275000D03*
X116170000Y-105275000D03*
X117020000Y-105275000D03*
X117870000Y-105275000D03*
X118720000Y-105275000D03*
X119570000Y-105275000D03*
D11*
X120920000Y-105645000D03*
D12*
X120920000Y-102265000D03*
D11*
X112270000Y-105645000D03*
D12*
X112270000Y-102265000D03*
%TD*%
D13*
%TO.C,J3*%
X102470000Y-102970000D03*
D14*
X105010000Y-102970000D03*
X102470000Y-105510000D03*
X105010000Y-105510000D03*
X102470000Y-108050000D03*
X105010000Y-108050000D03*
X102470000Y-110590000D03*
X105010000Y-110590000D03*
X102470000Y-113130000D03*
X105010000Y-113130000D03*
X102470000Y-115670000D03*
X105010000Y-115670000D03*
X102470000Y-118210000D03*
X105010000Y-118210000D03*
X102470000Y-120750000D03*
X105010000Y-120750000D03*
X102470000Y-123290000D03*
X105010000Y-123290000D03*
X102470000Y-125830000D03*
X105010000Y-125830000D03*
%TD*%
D15*
%TO.C,H3*%
X109530000Y-126750000D03*
%TD*%
%TO.C,H4*%
X123660000Y-126750000D03*
%TD*%
D13*
%TO.C,J1*%
X128180000Y-102970000D03*
D14*
X130720000Y-102970000D03*
X128180000Y-105510000D03*
X130720000Y-105510000D03*
X128180000Y-108050000D03*
X130720000Y-108050000D03*
X128180000Y-110590000D03*
X130720000Y-110590000D03*
X128180000Y-113130000D03*
X130720000Y-113130000D03*
X128180000Y-115670000D03*
X130720000Y-115670000D03*
X128180000Y-118210000D03*
X130720000Y-118210000D03*
X128180000Y-120750000D03*
X130720000Y-120750000D03*
X128180000Y-123290000D03*
X130720000Y-123290000D03*
X128180000Y-125830000D03*
X130720000Y-125830000D03*
%TD*%
D15*
%TO.C,H2*%
X123660000Y-102050000D03*
%TD*%
%TO.C,H1*%
X109530000Y-102050000D03*
%TD*%
M02*
