M48
; DRILL file KiCad 10.0.6 date 2026-10-02T21:18:18
; FORMAT={-:-/ absolute / metric / decimal}
; #@! TF.CreationDate,2026-10-02T21:18:18+00:00
; #@! TF.GenerationSoftware,Kicad,Pcbnew,10.0.6
; #@! TF.FileFunction,Plated,1,2,PTH
FMAT,2
METRIC
; #@! TA.AperFunction,Plated,PTH,ViaDrill
T1C0.300
; #@! TA.AperFunction,Plated,PTH,ComponentDrill
T2C0.300
; #@! TA.AperFunction,Plated,PTH,ComponentDrill
T3C0.380
; #@! TA.AperFunction,Plated,PTH,ComponentDrill
T4C0.600
; #@! TA.AperFunction,Plated,PTH,ComponentDrill
T5C1.000
%
G90
G05
T1
X104.078Y-107.532
X107.248Y-107.867
X107.674Y-117.289
X108.395Y-100.775
X108.498Y-116.431
X108.527Y-117.971
X108.6Y-104.35
X108.762Y-110.21
X108.782Y-121.023
X110.25Y-108.781
X110.638Y-120.14
X110.674Y-117.728
X110.719Y-112.979
X111.416Y-117.45
X111.748Y-106.256
X112.205Y-100.775
X113.395Y-103.65
X113.404Y-112.037
X113.475Y-100.775
X114.246Y-119.047
X114.495Y-113.5
X114.532Y-116.797
X114.587Y-114.61
X114.745Y-100.775
X114.745Y-102.045
X114.814Y-110.297
X114.919Y-117.93
X114.952Y-108.782
X115.014Y-115.231
X115.495Y-119.196
X115.826Y-110.871
X116.015Y-100.775
X116.015Y-102.045
X116.15Y-107.55
X116.206Y-118.008
X116.226Y-118.926
X116.318Y-114.314
X116.705Y-115.82
X116.995Y-118.745
X117.285Y-100.775
X117.285Y-102.045
X118.18Y-121.545
X118.245Y-116.11
X118.342Y-113.21
X118.378Y-114.852
X118.527Y-118.95
X118.555Y-100.775
X118.555Y-102.045
X118.66Y-117.959
X118.911Y-116.699
X119.223Y-117.465
X119.507Y-108.02
X119.694Y-113.212
X119.718Y-115.111
X119.74Y-118.453
X119.741Y-116.95
X119.78Y-110.473
X119.825Y-100.775
X120.321Y-120.586
X120.35Y-112.8
X120.414Y-111.077
X120.595Y-103.65
X120.637Y-121.476
X121.854Y-121.514
X121.985Y-122.34
X121.988Y-123.2
X122.202Y-116.747
X122.313Y-115.371
X122.365Y-100.775
X122.6Y-116.11
X123.149Y-111.56
X123.359Y-114.31
X123.85Y-107.25
X124.45Y-119.4
X124.47Y-120.93
X124.65Y-110.35
X125.152Y-114.573
X126.105Y-115.381
X126.194Y-105.867
T2
X121.095Y-108.7
X121.095Y-109.9
T3
X114.02Y-105.275
X114.02Y-106.625
X114.87Y-105.275
X114.87Y-106.625
X115.72Y-105.275
X115.72Y-106.625
X116.57Y-105.275
X116.57Y-106.625
X117.42Y-105.275
X117.42Y-106.625
X118.27Y-105.275
X118.27Y-106.625
X119.12Y-105.275
X119.12Y-106.625
X119.97Y-105.275
X119.97Y-106.625
T5
X102.67Y-101.32
X102.67Y-103.86
X102.67Y-106.4
X102.67Y-108.94
X102.67Y-111.48
X102.67Y-114.02
X102.67Y-116.56
X102.67Y-119.1
X102.67Y-121.64
X102.67Y-124.18
X105.21Y-101.32
X105.21Y-103.86
X105.21Y-106.4
X105.21Y-108.94
X105.21Y-111.48
X105.21Y-114.02
X105.21Y-116.56
X105.21Y-119.1
X105.21Y-121.64
X105.21Y-124.18
X128.78Y-101.32
X128.78Y-103.86
X128.78Y-106.4
X128.78Y-108.94
X128.78Y-111.48
X128.78Y-114.02
X128.78Y-116.56
X128.78Y-119.1
X128.78Y-121.64
X128.78Y-124.18
X131.32Y-101.32
X131.32Y-103.86
X131.32Y-106.4
X131.32Y-108.94
X131.32Y-111.48
X131.32Y-114.02
X131.32Y-116.56
X131.32Y-119.1
X131.32Y-121.64
X131.32Y-124.18
T4
X112.67Y-102.665G85X112.67Y-101.865
G05
X112.67Y-106.395G85X112.67Y-104.895
G05
X121.32Y-102.665G85X121.32Y-101.865
G05
X121.32Y-106.395G85X121.32Y-104.895
G05
M30
