%TF.GenerationSoftware,KiCad,Pcbnew,10.0.6*%
%TF.CreationDate,2026-10-01T23:58:13+00:00*%
%TF.ProjectId,nicklink,6e69636b-6c69-46e6-9b2e-6b696361645f,rev?*%
%TF.SameCoordinates,Original*%
%TF.FileFunction,Paste,Top*%
%TF.FilePolarity,Positive*%
%FSLAX46Y46*%
G04 Gerber Fmt 4.6, Leading zero omitted, Abs format (unit mm)*
G04 Created by KiCad (PCBNEW 10.0.6) date 2026-10-01 23:58:13*
%MOMM*%
%LPD*%
G01*
G04 APERTURE LIST*
G04 Aperture macros list*
%AMRoundRect*
0 Rectangle with rounded corners*
0 $1 Rounding radius*
0 $2 $3 $4 $5 $6 $7 $8 $9 X,Y pos of 4 corners*
0 Add a 4 corners polygon primitive as box body*
4,1,4,$2,$3,$4,$5,$6,$7,$8,$9,$2,$3,0*
0 Add four circle primitives for the rounded corners*
1,1,$1+$1,$2,$3*
1,1,$1+$1,$4,$5*
1,1,$1+$1,$6,$7*
1,1,$1+$1,$8,$9*
0 Add four rect primitives between the rounded corners*
20,1,$1+$1,$2,$3,$4,$5,0*
20,1,$1+$1,$4,$5,$6,$7,0*
20,1,$1+$1,$6,$7,$8,$9,0*
20,1,$1+$1,$8,$9,$2,$3,0*%
G04 Aperture macros list end*
%ADD10RoundRect,0.147500X0.172500X-0.147500X0.172500X0.147500X-0.172500X0.147500X-0.172500X-0.147500X0*%
%ADD11RoundRect,0.140000X0.170000X-0.140000X0.170000X0.140000X-0.170000X0.140000X-0.170000X-0.140000X0*%
%ADD12RoundRect,0.135000X0.185000X-0.135000X0.185000X0.135000X-0.185000X0.135000X-0.185000X-0.135000X0*%
%ADD13RoundRect,0.147500X-0.147500X-0.172500X0.147500X-0.172500X0.147500X0.172500X-0.147500X0.172500X0*%
%ADD14RoundRect,0.112500X-0.187500X-0.112500X0.187500X-0.112500X0.187500X0.112500X-0.187500X0.112500X0*%
%ADD15RoundRect,0.140000X-0.140000X-0.170000X0.140000X-0.170000X0.140000X0.170000X-0.140000X0.170000X0*%
%ADD16RoundRect,0.250000X-0.450000X-0.350000X0.450000X-0.350000X0.450000X0.350000X-0.450000X0.350000X0*%
%ADD17RoundRect,0.135000X-0.135000X-0.185000X0.135000X-0.185000X0.135000X0.185000X-0.135000X0.185000X0*%
%ADD18RoundRect,0.093750X-0.093750X0.156250X-0.093750X-0.156250X0.093750X-0.156250X0.093750X0.156250X0*%
%ADD19RoundRect,0.075000X-0.075000X0.250000X-0.075000X-0.250000X0.075000X-0.250000X0.075000X0.250000X0*%
%ADD20RoundRect,0.075000X0.075000X-0.662500X0.075000X0.662500X-0.075000X0.662500X-0.075000X-0.662500X0*%
%ADD21RoundRect,0.075000X0.662500X-0.075000X0.662500X0.075000X-0.662500X0.075000X-0.662500X-0.075000X0*%
%ADD22RoundRect,0.160000X-0.245000X-0.160000X0.245000X-0.160000X0.245000X0.160000X-0.245000X0.160000X0*%
%ADD23RoundRect,0.093750X-0.093750X-0.106250X0.093750X-0.106250X0.093750X0.106250X-0.093750X0.106250X0*%
%ADD24RoundRect,0.087500X-0.225000X-0.087500X0.225000X-0.087500X0.225000X0.087500X-0.225000X0.087500X0*%
%ADD25RoundRect,0.087500X-0.087500X-0.225000X0.087500X-0.225000X0.087500X0.225000X-0.087500X0.225000X0*%
%ADD26RoundRect,0.225000X-0.225000X-0.250000X0.225000X-0.250000X0.225000X0.250000X-0.225000X0.250000X0*%
%ADD27R,1.700000X0.900000*%
G04 APERTURE END LIST*
D10*
%TO.C,FB1*%
X121565000Y-120934000D03*
X121565000Y-119964000D03*
%TD*%
D11*
%TO.C,C10*%
X112795000Y-123880000D03*
X112795000Y-122920000D03*
%TD*%
D12*
%TO.C,R1*%
X109280000Y-117910000D03*
X109280000Y-116890000D03*
%TD*%
D13*
%TO.C,D3*%
X111008000Y-109945000D03*
X111978000Y-109945000D03*
%TD*%
D14*
%TO.C,D2*%
X123000000Y-105100000D03*
X125100000Y-105100000D03*
%TD*%
D15*
%TO.C,C15*%
X124627000Y-120401000D03*
X125587000Y-120401000D03*
%TD*%
D16*
%TO.C,Y1*%
X114395000Y-124050000D03*
X116595000Y-124050000D03*
X116595000Y-122350000D03*
X114395000Y-122350000D03*
%TD*%
D11*
%TO.C,C3*%
X112389000Y-111887000D03*
X112389000Y-110927000D03*
%TD*%
%TO.C,C2*%
X121350000Y-112480000D03*
X121350000Y-111520000D03*
%TD*%
D17*
%TO.C,R3*%
X108600000Y-105170000D03*
X109620000Y-105170000D03*
%TD*%
D18*
%TO.C,U3*%
X116932500Y-108420000D03*
D19*
X116395000Y-108345000D03*
D18*
X115857500Y-108420000D03*
X115857500Y-110120000D03*
D19*
X116395000Y-110195000D03*
D18*
X116932500Y-110120000D03*
%TD*%
D11*
%TO.C,C1*%
X112700000Y-121080000D03*
X112700000Y-120120000D03*
%TD*%
D20*
%TO.C,U1*%
X114245000Y-120362500D03*
X114745000Y-120362500D03*
X115245000Y-120362500D03*
X115745000Y-120362500D03*
X116245000Y-120362500D03*
X116745000Y-120362500D03*
X117245000Y-120362500D03*
X117745000Y-120362500D03*
X118245000Y-120362500D03*
X118745000Y-120362500D03*
X119245000Y-120362500D03*
X119745000Y-120362500D03*
D21*
X121157500Y-118950000D03*
X121157500Y-118450000D03*
X121157500Y-117950000D03*
X121157500Y-117450000D03*
X121157500Y-116950000D03*
X121157500Y-116450000D03*
X121157500Y-115950000D03*
X121157500Y-115450000D03*
X121157500Y-114950000D03*
X121157500Y-114450000D03*
X121157500Y-113950000D03*
X121157500Y-113450000D03*
D20*
X119745000Y-112037500D03*
X119245000Y-112037500D03*
X118745000Y-112037500D03*
X118245000Y-112037500D03*
X117745000Y-112037500D03*
X117245000Y-112037500D03*
X116745000Y-112037500D03*
X116245000Y-112037500D03*
X115745000Y-112037500D03*
X115245000Y-112037500D03*
X114745000Y-112037500D03*
X114245000Y-112037500D03*
D21*
X112832500Y-113450000D03*
X112832500Y-113950000D03*
X112832500Y-114450000D03*
X112832500Y-114950000D03*
X112832500Y-115450000D03*
X112832500Y-115950000D03*
X112832500Y-116450000D03*
X112832500Y-116950000D03*
X112832500Y-117450000D03*
X112832500Y-117950000D03*
X112832500Y-118450000D03*
X112832500Y-118950000D03*
%TD*%
D11*
%TO.C,C11*%
X118195000Y-123680000D03*
X118195000Y-122720000D03*
%TD*%
D12*
%TO.C,R4*%
X119164000Y-109726000D03*
X119164000Y-108706000D03*
%TD*%
D22*
%TO.C,U2*%
X121095000Y-108900000D03*
X121095000Y-109700000D03*
D23*
X120207500Y-108650000D03*
X120207500Y-109300000D03*
X120207500Y-109950000D03*
X121982500Y-109950000D03*
X121982500Y-109300000D03*
X121982500Y-108650000D03*
%TD*%
D24*
%TO.C,U4*%
X123037500Y-117309000D03*
X123037500Y-117809000D03*
X123037500Y-118309000D03*
X123037500Y-118809000D03*
D25*
X123700000Y-118971500D03*
X124200000Y-118971500D03*
X124700000Y-118971500D03*
D24*
X125362500Y-118809000D03*
X125362500Y-118309000D03*
X125362500Y-117809000D03*
X125362500Y-117309000D03*
D25*
X124700000Y-117146500D03*
X124200000Y-117146500D03*
X123700000Y-117146500D03*
%TD*%
D11*
%TO.C,C9*%
X119295000Y-123080000D03*
X119295000Y-122120000D03*
%TD*%
%TO.C,C6*%
X120395000Y-123080000D03*
X120395000Y-122120000D03*
%TD*%
D17*
%TO.C,R5*%
X113301000Y-108601000D03*
X114321000Y-108601000D03*
%TD*%
D15*
%TO.C,C14*%
X122631000Y-120420000D03*
X123591000Y-120420000D03*
%TD*%
%TO.C,C12*%
X122520000Y-106850000D03*
X123480000Y-106850000D03*
%TD*%
D26*
%TO.C,C5*%
X109105000Y-106750000D03*
X110655000Y-106750000D03*
%TD*%
D17*
%TO.C,R9*%
X108632000Y-120211000D03*
X109652000Y-120211000D03*
%TD*%
D11*
%TO.C,C4*%
X110730000Y-119430000D03*
X110730000Y-118470000D03*
%TD*%
D27*
%TO.C,SW2*%
X109580000Y-115600000D03*
X109580000Y-112200000D03*
%TD*%
D11*
%TO.C,C13*%
X118106000Y-110387000D03*
X118106000Y-109427000D03*
%TD*%
D15*
%TO.C,C8*%
X124570000Y-106850000D03*
X125530000Y-106850000D03*
%TD*%
D13*
%TO.C,D1*%
X110845000Y-108526000D03*
X111815000Y-108526000D03*
%TD*%
D27*
%TO.C,SW1*%
X124423000Y-115386000D03*
X124423000Y-111986000D03*
%TD*%
D11*
%TO.C,C7*%
X121495000Y-123080000D03*
X121495000Y-122120000D03*
%TD*%
D12*
%TO.C,R8*%
X123400000Y-109810000D03*
X123400000Y-108790000D03*
%TD*%
D17*
%TO.C,R7*%
X108499000Y-119074000D03*
X109519000Y-119074000D03*
%TD*%
%TO.C,R2*%
X113184000Y-109658000D03*
X114204000Y-109658000D03*
%TD*%
%TO.C,R6*%
X110513000Y-105198000D03*
X111533000Y-105198000D03*
%TD*%
M02*
