M48
; DRILL file KiCad 10.0.6 date 2026-10-02T02:11:15
; FORMAT={-:-/ absolute / metric / decimal}
; #@! TF.CreationDate,2026-10-02T02:11:15+00:00
; #@! TF.GenerationSoftware,Kicad,Pcbnew,10.0.6
; #@! TF.FileFunction,Plated,1,2,PTH
FMAT,2
METRIC
; #@! TA.AperFunction,Plated,PTH,ViaDrill
T1C0.300
; #@! TA.AperFunction,Plated,PTH,ComponentDrill
T2C0.300
; #@! TA.AperFunction,Plated,PTH,ComponentDrill
T3C0.380
; #@! TA.AperFunction,Plated,PTH,ComponentDrill
T4C0.600
; #@! TA.AperFunction,Plated,PTH,ComponentDrill
T5C1.000
%
G90
G05
T1
X101.613Y-105.177
X106.573Y-114.466
X106.801Y-105.756
X106.866Y-122.16
X108.189Y-108.621
X108.24Y-116.31
X108.395Y-100.775
X108.395Y-104.585
X108.395Y-122.365
X108.517Y-117.907
X109.047Y-113.39
X110.043Y-118.001
X110.354Y-113.976
X110.695Y-120.167
X110.875Y-117.667
X110.905Y-113.492
X110.935Y-107.125
X111.023Y-104.554
X111.082Y-116.628
X111.099Y-115.379
X111.885Y-119.559
X112.205Y-100.775
X112.205Y-122.365
X113.27Y-120.09
X113.412Y-111.868
X113.475Y-100.775
X113.766Y-114.707
X113.768Y-117.45
X113.772Y-113.316
X113.877Y-118.2
X114.162Y-110.746
X114.381Y-116.3
X114.745Y-100.775
X114.745Y-103.315
X114.745Y-122.365
X114.781Y-113.786
X115.01Y-108.622
X115.323Y-118.441
X115.476Y-119.183
X115.983Y-118.059
X116.015Y-100.775
X116.015Y-103.315
X116.995Y-119.184
X117.159Y-110.817
X117.285Y-100.775
X117.285Y-103.315
X117.315Y-113.5
X117.568Y-115.791
X117.641Y-118.281
X117.731Y-121.879
X117.995Y-119.167
X118.291Y-108.469
X118.384Y-118.287
X118.394Y-113.218
X118.555Y-100.775
X118.555Y-103.315
X118.832Y-116.763
X118.912Y-123.825
X118.92Y-110.54
X118.995Y-119.193
X119.124Y-118.343
X119.197Y-113.209
X119.729Y-119.192
X119.738Y-114.45
X119.825Y-100.775
X119.825Y-103.315
X119.869Y-123.802
X120.492Y-120.819
X121.818Y-121.487
X121.886Y-112.948
X122.119Y-118.503
X122.185Y-117.487
X122.365Y-100.775
X122.6Y-116.11
X122.65Y-122.313
X122.833Y-108.156
X122.885Y-115.31
X123.15Y-111.973
X124.45Y-119.25
X124.905Y-112.205
X125.5Y-116.349
X125.931Y-120.37
X126.103Y-111.308
X126.209Y-119.438
X126.245Y-105.065
X126.451Y-114.269
X127.849Y-119.989
X127.929Y-110.002
T2
X121.095Y-108.7
X121.095Y-109.9
T3
X114.02Y-105.275
X114.02Y-106.625
X114.87Y-105.275
X114.87Y-106.625
X115.72Y-105.275
X115.72Y-106.625
X116.57Y-105.275
X116.57Y-106.625
X117.42Y-105.275
X117.42Y-106.625
X118.27Y-105.275
X118.27Y-106.625
X119.12Y-105.275
X119.12Y-106.625
X119.97Y-105.275
X119.97Y-106.625
T5
X102.67Y-101.32
X102.67Y-103.86
X102.67Y-106.4
X102.67Y-108.94
X102.67Y-111.48
X102.67Y-114.02
X102.67Y-116.56
X102.67Y-119.1
X102.67Y-121.64
X102.67Y-124.18
X105.21Y-101.32
X105.21Y-103.86
X105.21Y-106.4
X105.21Y-108.94
X105.21Y-111.48
X105.21Y-114.02
X105.21Y-116.56
X105.21Y-119.1
X105.21Y-121.64
X105.21Y-124.18
X128.78Y-101.32
X128.78Y-103.86
X128.78Y-106.4
X128.78Y-108.94
X128.78Y-111.48
X128.78Y-114.02
X128.78Y-116.56
X128.78Y-119.1
X128.78Y-121.64
X128.78Y-124.18
X131.32Y-101.32
X131.32Y-103.86
X131.32Y-106.4
X131.32Y-108.94
X131.32Y-111.48
X131.32Y-114.02
X131.32Y-116.56
X131.32Y-119.1
X131.32Y-121.64
X131.32Y-124.18
T4
X112.67Y-102.665G85X112.67Y-101.865
G05
X112.67Y-106.395G85X112.67Y-104.895
G05
X121.32Y-102.665G85X121.32Y-101.865
G05
X121.32Y-106.395G85X121.32Y-104.895
G05
M30
