%TF.GenerationSoftware,KiCad,Pcbnew,10.0.6*%
%TF.CreationDate,2026-10-01T22:49:05+00:00*%
%TF.ProjectId,nicklink,6e69636b-6c69-46e6-9b2e-6b696361645f,rev?*%
%TF.SameCoordinates,Original*%
%TF.FileFunction,Legend,Bot*%
%TF.FilePolarity,Positive*%
%FSLAX46Y46*%
G04 Gerber Fmt 4.6, Leading zero omitted, Abs format (unit mm)*
G04 Created by KiCad (PCBNEW 10.0.6) date 2026-10-01 22:49:05*
%MOMM*%
%LPD*%
G01*
G04 APERTURE LIST*
%ADD10C,0.150000*%
G04 APERTURE END LIST*
D10*
X121761667Y-108624200D02*
X121661667Y-108662295D01*
X121661667Y-108662295D02*
X121495001Y-108662295D01*
X121495001Y-108662295D02*
X121428334Y-108624200D01*
X121428334Y-108624200D02*
X121395001Y-108586104D01*
X121395001Y-108586104D02*
X121361667Y-108509914D01*
X121361667Y-108509914D02*
X121361667Y-108433723D01*
X121361667Y-108433723D02*
X121395001Y-108357533D01*
X121395001Y-108357533D02*
X121428334Y-108319438D01*
X121428334Y-108319438D02*
X121495001Y-108281342D01*
X121495001Y-108281342D02*
X121628334Y-108243247D01*
X121628334Y-108243247D02*
X121695001Y-108205152D01*
X121695001Y-108205152D02*
X121728334Y-108167057D01*
X121728334Y-108167057D02*
X121761667Y-108090866D01*
X121761667Y-108090866D02*
X121761667Y-108014676D01*
X121761667Y-108014676D02*
X121728334Y-107938485D01*
X121728334Y-107938485D02*
X121695001Y-107900390D01*
X121695001Y-107900390D02*
X121628334Y-107862295D01*
X121628334Y-107862295D02*
X121461667Y-107862295D01*
X121461667Y-107862295D02*
X121361667Y-107900390D01*
X121161667Y-107862295D02*
X120761667Y-107862295D01*
X120961667Y-108662295D02*
X120961667Y-107862295D01*
X120528334Y-108662295D02*
X120528334Y-107862295D01*
X120528334Y-107862295D02*
X120295001Y-108433723D01*
X120295001Y-108433723D02*
X120061667Y-107862295D01*
X120061667Y-107862295D02*
X120061667Y-108662295D01*
X119795001Y-107862295D02*
X119361667Y-107862295D01*
X119361667Y-107862295D02*
X119595001Y-108167057D01*
X119595001Y-108167057D02*
X119495001Y-108167057D01*
X119495001Y-108167057D02*
X119428334Y-108205152D01*
X119428334Y-108205152D02*
X119395001Y-108243247D01*
X119395001Y-108243247D02*
X119361667Y-108319438D01*
X119361667Y-108319438D02*
X119361667Y-108509914D01*
X119361667Y-108509914D02*
X119395001Y-108586104D01*
X119395001Y-108586104D02*
X119428334Y-108624200D01*
X119428334Y-108624200D02*
X119495001Y-108662295D01*
X119495001Y-108662295D02*
X119695001Y-108662295D01*
X119695001Y-108662295D02*
X119761667Y-108624200D01*
X119761667Y-108624200D02*
X119795001Y-108586104D01*
X119095000Y-107938485D02*
X119061667Y-107900390D01*
X119061667Y-107900390D02*
X118995000Y-107862295D01*
X118995000Y-107862295D02*
X118828334Y-107862295D01*
X118828334Y-107862295D02*
X118761667Y-107900390D01*
X118761667Y-107900390D02*
X118728334Y-107938485D01*
X118728334Y-107938485D02*
X118695000Y-108014676D01*
X118695000Y-108014676D02*
X118695000Y-108090866D01*
X118695000Y-108090866D02*
X118728334Y-108205152D01*
X118728334Y-108205152D02*
X119128334Y-108662295D01*
X119128334Y-108662295D02*
X118695000Y-108662295D01*
X118161667Y-108243247D02*
X118395000Y-108243247D01*
X118395000Y-108662295D02*
X118395000Y-107862295D01*
X118395000Y-107862295D02*
X118061667Y-107862295D01*
X117428333Y-108662295D02*
X117828333Y-108662295D01*
X117628333Y-108662295D02*
X117628333Y-107862295D01*
X117628333Y-107862295D02*
X117695000Y-107976580D01*
X117695000Y-107976580D02*
X117761667Y-108052771D01*
X117761667Y-108052771D02*
X117828333Y-108090866D01*
X116995000Y-107862295D02*
X116928333Y-107862295D01*
X116928333Y-107862295D02*
X116861666Y-107900390D01*
X116861666Y-107900390D02*
X116828333Y-107938485D01*
X116828333Y-107938485D02*
X116795000Y-108014676D01*
X116795000Y-108014676D02*
X116761666Y-108167057D01*
X116761666Y-108167057D02*
X116761666Y-108357533D01*
X116761666Y-108357533D02*
X116795000Y-108509914D01*
X116795000Y-108509914D02*
X116828333Y-108586104D01*
X116828333Y-108586104D02*
X116861666Y-108624200D01*
X116861666Y-108624200D02*
X116928333Y-108662295D01*
X116928333Y-108662295D02*
X116995000Y-108662295D01*
X116995000Y-108662295D02*
X117061666Y-108624200D01*
X117061666Y-108624200D02*
X117095000Y-108586104D01*
X117095000Y-108586104D02*
X117128333Y-108509914D01*
X117128333Y-108509914D02*
X117161666Y-108357533D01*
X117161666Y-108357533D02*
X117161666Y-108167057D01*
X117161666Y-108167057D02*
X117128333Y-108014676D01*
X117128333Y-108014676D02*
X117095000Y-107938485D01*
X117095000Y-107938485D02*
X117061666Y-107900390D01*
X117061666Y-107900390D02*
X116995000Y-107862295D01*
X116528333Y-107862295D02*
X116094999Y-107862295D01*
X116094999Y-107862295D02*
X116328333Y-108167057D01*
X116328333Y-108167057D02*
X116228333Y-108167057D01*
X116228333Y-108167057D02*
X116161666Y-108205152D01*
X116161666Y-108205152D02*
X116128333Y-108243247D01*
X116128333Y-108243247D02*
X116094999Y-108319438D01*
X116094999Y-108319438D02*
X116094999Y-108509914D01*
X116094999Y-108509914D02*
X116128333Y-108586104D01*
X116128333Y-108586104D02*
X116161666Y-108624200D01*
X116161666Y-108624200D02*
X116228333Y-108662295D01*
X116228333Y-108662295D02*
X116428333Y-108662295D01*
X116428333Y-108662295D02*
X116494999Y-108624200D01*
X116494999Y-108624200D02*
X116528333Y-108586104D01*
X115394999Y-108586104D02*
X115428332Y-108624200D01*
X115428332Y-108624200D02*
X115528332Y-108662295D01*
X115528332Y-108662295D02*
X115594999Y-108662295D01*
X115594999Y-108662295D02*
X115694999Y-108624200D01*
X115694999Y-108624200D02*
X115761666Y-108548009D01*
X115761666Y-108548009D02*
X115794999Y-108471819D01*
X115794999Y-108471819D02*
X115828332Y-108319438D01*
X115828332Y-108319438D02*
X115828332Y-108205152D01*
X115828332Y-108205152D02*
X115794999Y-108052771D01*
X115794999Y-108052771D02*
X115761666Y-107976580D01*
X115761666Y-107976580D02*
X115694999Y-107900390D01*
X115694999Y-107900390D02*
X115594999Y-107862295D01*
X115594999Y-107862295D02*
X115528332Y-107862295D01*
X115528332Y-107862295D02*
X115428332Y-107900390D01*
X115428332Y-107900390D02*
X115394999Y-107938485D01*
X114994999Y-108205152D02*
X115061666Y-108167057D01*
X115061666Y-108167057D02*
X115094999Y-108128961D01*
X115094999Y-108128961D02*
X115128332Y-108052771D01*
X115128332Y-108052771D02*
X115128332Y-108014676D01*
X115128332Y-108014676D02*
X115094999Y-107938485D01*
X115094999Y-107938485D02*
X115061666Y-107900390D01*
X115061666Y-107900390D02*
X114994999Y-107862295D01*
X114994999Y-107862295D02*
X114861666Y-107862295D01*
X114861666Y-107862295D02*
X114794999Y-107900390D01*
X114794999Y-107900390D02*
X114761666Y-107938485D01*
X114761666Y-107938485D02*
X114728332Y-108014676D01*
X114728332Y-108014676D02*
X114728332Y-108052771D01*
X114728332Y-108052771D02*
X114761666Y-108128961D01*
X114761666Y-108128961D02*
X114794999Y-108167057D01*
X114794999Y-108167057D02*
X114861666Y-108205152D01*
X114861666Y-108205152D02*
X114994999Y-108205152D01*
X114994999Y-108205152D02*
X115061666Y-108243247D01*
X115061666Y-108243247D02*
X115094999Y-108281342D01*
X115094999Y-108281342D02*
X115128332Y-108357533D01*
X115128332Y-108357533D02*
X115128332Y-108509914D01*
X115128332Y-108509914D02*
X115094999Y-108586104D01*
X115094999Y-108586104D02*
X115061666Y-108624200D01*
X115061666Y-108624200D02*
X114994999Y-108662295D01*
X114994999Y-108662295D02*
X114861666Y-108662295D01*
X114861666Y-108662295D02*
X114794999Y-108624200D01*
X114794999Y-108624200D02*
X114761666Y-108586104D01*
X114761666Y-108586104D02*
X114728332Y-108509914D01*
X114728332Y-108509914D02*
X114728332Y-108357533D01*
X114728332Y-108357533D02*
X114761666Y-108281342D01*
X114761666Y-108281342D02*
X114794999Y-108243247D01*
X114794999Y-108243247D02*
X114861666Y-108205152D01*
X113794999Y-108205152D02*
X113861666Y-108167057D01*
X113861666Y-108167057D02*
X113894999Y-108128961D01*
X113894999Y-108128961D02*
X113928332Y-108052771D01*
X113928332Y-108052771D02*
X113928332Y-108014676D01*
X113928332Y-108014676D02*
X113894999Y-107938485D01*
X113894999Y-107938485D02*
X113861666Y-107900390D01*
X113861666Y-107900390D02*
X113794999Y-107862295D01*
X113794999Y-107862295D02*
X113661666Y-107862295D01*
X113661666Y-107862295D02*
X113594999Y-107900390D01*
X113594999Y-107900390D02*
X113561666Y-107938485D01*
X113561666Y-107938485D02*
X113528332Y-108014676D01*
X113528332Y-108014676D02*
X113528332Y-108052771D01*
X113528332Y-108052771D02*
X113561666Y-108128961D01*
X113561666Y-108128961D02*
X113594999Y-108167057D01*
X113594999Y-108167057D02*
X113661666Y-108205152D01*
X113661666Y-108205152D02*
X113794999Y-108205152D01*
X113794999Y-108205152D02*
X113861666Y-108243247D01*
X113861666Y-108243247D02*
X113894999Y-108281342D01*
X113894999Y-108281342D02*
X113928332Y-108357533D01*
X113928332Y-108357533D02*
X113928332Y-108509914D01*
X113928332Y-108509914D02*
X113894999Y-108586104D01*
X113894999Y-108586104D02*
X113861666Y-108624200D01*
X113861666Y-108624200D02*
X113794999Y-108662295D01*
X113794999Y-108662295D02*
X113661666Y-108662295D01*
X113661666Y-108662295D02*
X113594999Y-108624200D01*
X113594999Y-108624200D02*
X113561666Y-108586104D01*
X113561666Y-108586104D02*
X113528332Y-108509914D01*
X113528332Y-108509914D02*
X113528332Y-108357533D01*
X113528332Y-108357533D02*
X113561666Y-108281342D01*
X113561666Y-108281342D02*
X113594999Y-108243247D01*
X113594999Y-108243247D02*
X113661666Y-108205152D01*
X113228332Y-108662295D02*
X113228332Y-107862295D01*
X113228332Y-107862295D02*
X112994999Y-108433723D01*
X112994999Y-108433723D02*
X112761665Y-107862295D01*
X112761665Y-107862295D02*
X112761665Y-108662295D01*
X112428332Y-108662295D02*
X112428332Y-107862295D01*
X112428332Y-108243247D02*
X112028332Y-108243247D01*
X112028332Y-108662295D02*
X112028332Y-107862295D01*
X111761666Y-108128961D02*
X111394999Y-108128961D01*
X111394999Y-108128961D02*
X111761666Y-108662295D01*
X111761666Y-108662295D02*
X111394999Y-108662295D01*
X121344999Y-109683723D02*
X121011666Y-109683723D01*
X121411666Y-109912295D02*
X121178333Y-109112295D01*
X121178333Y-109112295D02*
X120944999Y-109912295D01*
X120678333Y-109912295D02*
X120544999Y-109912295D01*
X120544999Y-109912295D02*
X120478333Y-109874200D01*
X120478333Y-109874200D02*
X120444999Y-109836104D01*
X120444999Y-109836104D02*
X120378333Y-109721819D01*
X120378333Y-109721819D02*
X120344999Y-109569438D01*
X120344999Y-109569438D02*
X120344999Y-109264676D01*
X120344999Y-109264676D02*
X120378333Y-109188485D01*
X120378333Y-109188485D02*
X120411666Y-109150390D01*
X120411666Y-109150390D02*
X120478333Y-109112295D01*
X120478333Y-109112295D02*
X120611666Y-109112295D01*
X120611666Y-109112295D02*
X120678333Y-109150390D01*
X120678333Y-109150390D02*
X120711666Y-109188485D01*
X120711666Y-109188485D02*
X120744999Y-109264676D01*
X120744999Y-109264676D02*
X120744999Y-109455152D01*
X120744999Y-109455152D02*
X120711666Y-109531342D01*
X120711666Y-109531342D02*
X120678333Y-109569438D01*
X120678333Y-109569438D02*
X120611666Y-109607533D01*
X120611666Y-109607533D02*
X120478333Y-109607533D01*
X120478333Y-109607533D02*
X120411666Y-109569438D01*
X120411666Y-109569438D02*
X120378333Y-109531342D01*
X120378333Y-109531342D02*
X120344999Y-109455152D01*
X119611666Y-109112295D02*
X119211666Y-109112295D01*
X119411666Y-109912295D02*
X119411666Y-109112295D01*
X119045000Y-109112295D02*
X118578333Y-109912295D01*
X118578333Y-109112295D02*
X119045000Y-109912295D01*
X117944999Y-109912295D02*
X118344999Y-109912295D01*
X118144999Y-109912295D02*
X118144999Y-109112295D01*
X118144999Y-109112295D02*
X118211666Y-109226580D01*
X118211666Y-109226580D02*
X118278333Y-109302771D01*
X118278333Y-109302771D02*
X118344999Y-109340866D01*
X116078333Y-109683723D02*
X115745000Y-109683723D01*
X116145000Y-109912295D02*
X115911667Y-109112295D01*
X115911667Y-109112295D02*
X115678333Y-109912295D01*
X115078333Y-109912295D02*
X115478333Y-109912295D01*
X115278333Y-109912295D02*
X115278333Y-109112295D01*
X115278333Y-109112295D02*
X115345000Y-109226580D01*
X115345000Y-109226580D02*
X115411667Y-109302771D01*
X115411667Y-109302771D02*
X115478333Y-109340866D01*
X114645000Y-109112295D02*
X114578333Y-109112295D01*
X114578333Y-109112295D02*
X114511666Y-109150390D01*
X114511666Y-109150390D02*
X114478333Y-109188485D01*
X114478333Y-109188485D02*
X114445000Y-109264676D01*
X114445000Y-109264676D02*
X114411666Y-109417057D01*
X114411666Y-109417057D02*
X114411666Y-109607533D01*
X114411666Y-109607533D02*
X114445000Y-109759914D01*
X114445000Y-109759914D02*
X114478333Y-109836104D01*
X114478333Y-109836104D02*
X114511666Y-109874200D01*
X114511666Y-109874200D02*
X114578333Y-109912295D01*
X114578333Y-109912295D02*
X114645000Y-109912295D01*
X114645000Y-109912295D02*
X114711666Y-109874200D01*
X114711666Y-109874200D02*
X114745000Y-109836104D01*
X114745000Y-109836104D02*
X114778333Y-109759914D01*
X114778333Y-109759914D02*
X114811666Y-109607533D01*
X114811666Y-109607533D02*
X114811666Y-109417057D01*
X114811666Y-109417057D02*
X114778333Y-109264676D01*
X114778333Y-109264676D02*
X114745000Y-109188485D01*
X114745000Y-109188485D02*
X114711666Y-109150390D01*
X114711666Y-109150390D02*
X114645000Y-109112295D01*
X113178333Y-109912295D02*
X113411666Y-109531342D01*
X113578333Y-109912295D02*
X113578333Y-109112295D01*
X113578333Y-109112295D02*
X113311666Y-109112295D01*
X113311666Y-109112295D02*
X113245000Y-109150390D01*
X113245000Y-109150390D02*
X113211666Y-109188485D01*
X113211666Y-109188485D02*
X113178333Y-109264676D01*
X113178333Y-109264676D02*
X113178333Y-109378961D01*
X113178333Y-109378961D02*
X113211666Y-109455152D01*
X113211666Y-109455152D02*
X113245000Y-109493247D01*
X113245000Y-109493247D02*
X113311666Y-109531342D01*
X113311666Y-109531342D02*
X113578333Y-109531342D01*
X112945000Y-109112295D02*
X112478333Y-109912295D01*
X112478333Y-109112295D02*
X112945000Y-109912295D01*
X111844999Y-109912295D02*
X112244999Y-109912295D01*
X112044999Y-109912295D02*
X112044999Y-109112295D01*
X112044999Y-109112295D02*
X112111666Y-109226580D01*
X112111666Y-109226580D02*
X112178333Y-109302771D01*
X112178333Y-109302771D02*
X112244999Y-109340866D01*
X122528333Y-110933723D02*
X122195000Y-110933723D01*
X122595000Y-111162295D02*
X122361667Y-110362295D01*
X122361667Y-110362295D02*
X122128333Y-111162295D01*
X121528333Y-111162295D02*
X121928333Y-111162295D01*
X121728333Y-111162295D02*
X121728333Y-110362295D01*
X121728333Y-110362295D02*
X121795000Y-110476580D01*
X121795000Y-110476580D02*
X121861667Y-110552771D01*
X121861667Y-110552771D02*
X121928333Y-110590866D01*
X121295000Y-110362295D02*
X120861666Y-110362295D01*
X120861666Y-110362295D02*
X121095000Y-110667057D01*
X121095000Y-110667057D02*
X120995000Y-110667057D01*
X120995000Y-110667057D02*
X120928333Y-110705152D01*
X120928333Y-110705152D02*
X120895000Y-110743247D01*
X120895000Y-110743247D02*
X120861666Y-110819438D01*
X120861666Y-110819438D02*
X120861666Y-111009914D01*
X120861666Y-111009914D02*
X120895000Y-111086104D01*
X120895000Y-111086104D02*
X120928333Y-111124200D01*
X120928333Y-111124200D02*
X120995000Y-111162295D01*
X120995000Y-111162295D02*
X121195000Y-111162295D01*
X121195000Y-111162295D02*
X121261666Y-111124200D01*
X121261666Y-111124200D02*
X121295000Y-111086104D01*
X120061666Y-111124200D02*
X119961666Y-111162295D01*
X119961666Y-111162295D02*
X119795000Y-111162295D01*
X119795000Y-111162295D02*
X119728333Y-111124200D01*
X119728333Y-111124200D02*
X119695000Y-111086104D01*
X119695000Y-111086104D02*
X119661666Y-111009914D01*
X119661666Y-111009914D02*
X119661666Y-110933723D01*
X119661666Y-110933723D02*
X119695000Y-110857533D01*
X119695000Y-110857533D02*
X119728333Y-110819438D01*
X119728333Y-110819438D02*
X119795000Y-110781342D01*
X119795000Y-110781342D02*
X119928333Y-110743247D01*
X119928333Y-110743247D02*
X119995000Y-110705152D01*
X119995000Y-110705152D02*
X120028333Y-110667057D01*
X120028333Y-110667057D02*
X120061666Y-110590866D01*
X120061666Y-110590866D02*
X120061666Y-110514676D01*
X120061666Y-110514676D02*
X120028333Y-110438485D01*
X120028333Y-110438485D02*
X119995000Y-110400390D01*
X119995000Y-110400390D02*
X119928333Y-110362295D01*
X119928333Y-110362295D02*
X119761666Y-110362295D01*
X119761666Y-110362295D02*
X119661666Y-110400390D01*
X119428333Y-110362295D02*
X119261666Y-111162295D01*
X119261666Y-111162295D02*
X119128333Y-110590866D01*
X119128333Y-110590866D02*
X118994999Y-111162295D01*
X118994999Y-111162295D02*
X118828333Y-110362295D01*
X118561666Y-111162295D02*
X118561666Y-110362295D01*
X118561666Y-110362295D02*
X118394999Y-110362295D01*
X118394999Y-110362295D02*
X118294999Y-110400390D01*
X118294999Y-110400390D02*
X118228333Y-110476580D01*
X118228333Y-110476580D02*
X118194999Y-110552771D01*
X118194999Y-110552771D02*
X118161666Y-110705152D01*
X118161666Y-110705152D02*
X118161666Y-110819438D01*
X118161666Y-110819438D02*
X118194999Y-110971819D01*
X118194999Y-110971819D02*
X118228333Y-111048009D01*
X118228333Y-111048009D02*
X118294999Y-111124200D01*
X118294999Y-111124200D02*
X118394999Y-111162295D01*
X118394999Y-111162295D02*
X118561666Y-111162295D01*
X117861666Y-111162295D02*
X117861666Y-110362295D01*
X117395000Y-110362295D02*
X117261666Y-110362295D01*
X117261666Y-110362295D02*
X117195000Y-110400390D01*
X117195000Y-110400390D02*
X117128333Y-110476580D01*
X117128333Y-110476580D02*
X117095000Y-110628961D01*
X117095000Y-110628961D02*
X117095000Y-110895628D01*
X117095000Y-110895628D02*
X117128333Y-111048009D01*
X117128333Y-111048009D02*
X117195000Y-111124200D01*
X117195000Y-111124200D02*
X117261666Y-111162295D01*
X117261666Y-111162295D02*
X117395000Y-111162295D01*
X117395000Y-111162295D02*
X117461666Y-111124200D01*
X117461666Y-111124200D02*
X117528333Y-111048009D01*
X117528333Y-111048009D02*
X117561666Y-110895628D01*
X117561666Y-110895628D02*
X117561666Y-110628961D01*
X117561666Y-110628961D02*
X117528333Y-110476580D01*
X117528333Y-110476580D02*
X117461666Y-110400390D01*
X117461666Y-110400390D02*
X117395000Y-110362295D01*
X116295000Y-110933723D02*
X115961667Y-110933723D01*
X116361667Y-111162295D02*
X116128334Y-110362295D01*
X116128334Y-110362295D02*
X115895000Y-111162295D01*
X115295000Y-111162295D02*
X115695000Y-111162295D01*
X115495000Y-111162295D02*
X115495000Y-110362295D01*
X115495000Y-110362295D02*
X115561667Y-110476580D01*
X115561667Y-110476580D02*
X115628334Y-110552771D01*
X115628334Y-110552771D02*
X115695000Y-110590866D01*
X114695000Y-110628961D02*
X114695000Y-111162295D01*
X114861667Y-110324200D02*
X115028333Y-110895628D01*
X115028333Y-110895628D02*
X114595000Y-110895628D01*
X113828333Y-111124200D02*
X113728333Y-111162295D01*
X113728333Y-111162295D02*
X113561667Y-111162295D01*
X113561667Y-111162295D02*
X113495000Y-111124200D01*
X113495000Y-111124200D02*
X113461667Y-111086104D01*
X113461667Y-111086104D02*
X113428333Y-111009914D01*
X113428333Y-111009914D02*
X113428333Y-110933723D01*
X113428333Y-110933723D02*
X113461667Y-110857533D01*
X113461667Y-110857533D02*
X113495000Y-110819438D01*
X113495000Y-110819438D02*
X113561667Y-110781342D01*
X113561667Y-110781342D02*
X113695000Y-110743247D01*
X113695000Y-110743247D02*
X113761667Y-110705152D01*
X113761667Y-110705152D02*
X113795000Y-110667057D01*
X113795000Y-110667057D02*
X113828333Y-110590866D01*
X113828333Y-110590866D02*
X113828333Y-110514676D01*
X113828333Y-110514676D02*
X113795000Y-110438485D01*
X113795000Y-110438485D02*
X113761667Y-110400390D01*
X113761667Y-110400390D02*
X113695000Y-110362295D01*
X113695000Y-110362295D02*
X113528333Y-110362295D01*
X113528333Y-110362295D02*
X113428333Y-110400390D01*
X113195000Y-110362295D02*
X113028333Y-111162295D01*
X113028333Y-111162295D02*
X112895000Y-110590866D01*
X112895000Y-110590866D02*
X112761666Y-111162295D01*
X112761666Y-111162295D02*
X112595000Y-110362295D01*
X111928333Y-111086104D02*
X111961666Y-111124200D01*
X111961666Y-111124200D02*
X112061666Y-111162295D01*
X112061666Y-111162295D02*
X112128333Y-111162295D01*
X112128333Y-111162295D02*
X112228333Y-111124200D01*
X112228333Y-111124200D02*
X112295000Y-111048009D01*
X112295000Y-111048009D02*
X112328333Y-110971819D01*
X112328333Y-110971819D02*
X112361666Y-110819438D01*
X112361666Y-110819438D02*
X112361666Y-110705152D01*
X112361666Y-110705152D02*
X112328333Y-110552771D01*
X112328333Y-110552771D02*
X112295000Y-110476580D01*
X112295000Y-110476580D02*
X112228333Y-110400390D01*
X112228333Y-110400390D02*
X112128333Y-110362295D01*
X112128333Y-110362295D02*
X112061666Y-110362295D01*
X112061666Y-110362295D02*
X111961666Y-110400390D01*
X111961666Y-110400390D02*
X111928333Y-110438485D01*
X111295000Y-111162295D02*
X111628333Y-111162295D01*
X111628333Y-111162295D02*
X111628333Y-110362295D01*
X111061666Y-111162295D02*
X111061666Y-110362295D01*
X110661666Y-111162295D02*
X110961666Y-110705152D01*
X110661666Y-110362295D02*
X111061666Y-110819438D01*
X121578332Y-111993247D02*
X121478332Y-112031342D01*
X121478332Y-112031342D02*
X121444998Y-112069438D01*
X121444998Y-112069438D02*
X121411665Y-112145628D01*
X121411665Y-112145628D02*
X121411665Y-112259914D01*
X121411665Y-112259914D02*
X121444998Y-112336104D01*
X121444998Y-112336104D02*
X121478332Y-112374200D01*
X121478332Y-112374200D02*
X121544998Y-112412295D01*
X121544998Y-112412295D02*
X121811665Y-112412295D01*
X121811665Y-112412295D02*
X121811665Y-111612295D01*
X121811665Y-111612295D02*
X121578332Y-111612295D01*
X121578332Y-111612295D02*
X121511665Y-111650390D01*
X121511665Y-111650390D02*
X121478332Y-111688485D01*
X121478332Y-111688485D02*
X121444998Y-111764676D01*
X121444998Y-111764676D02*
X121444998Y-111840866D01*
X121444998Y-111840866D02*
X121478332Y-111917057D01*
X121478332Y-111917057D02*
X121511665Y-111955152D01*
X121511665Y-111955152D02*
X121578332Y-111993247D01*
X121578332Y-111993247D02*
X121811665Y-111993247D01*
X121178332Y-111612295D02*
X120744998Y-111612295D01*
X120744998Y-111612295D02*
X120978332Y-111917057D01*
X120978332Y-111917057D02*
X120878332Y-111917057D01*
X120878332Y-111917057D02*
X120811665Y-111955152D01*
X120811665Y-111955152D02*
X120778332Y-111993247D01*
X120778332Y-111993247D02*
X120744998Y-112069438D01*
X120744998Y-112069438D02*
X120744998Y-112259914D01*
X120744998Y-112259914D02*
X120778332Y-112336104D01*
X120778332Y-112336104D02*
X120811665Y-112374200D01*
X120811665Y-112374200D02*
X120878332Y-112412295D01*
X120878332Y-112412295D02*
X121078332Y-112412295D01*
X121078332Y-112412295D02*
X121144998Y-112374200D01*
X121144998Y-112374200D02*
X121178332Y-112336104D01*
X119944998Y-112374200D02*
X119844998Y-112412295D01*
X119844998Y-112412295D02*
X119678332Y-112412295D01*
X119678332Y-112412295D02*
X119611665Y-112374200D01*
X119611665Y-112374200D02*
X119578332Y-112336104D01*
X119578332Y-112336104D02*
X119544998Y-112259914D01*
X119544998Y-112259914D02*
X119544998Y-112183723D01*
X119544998Y-112183723D02*
X119578332Y-112107533D01*
X119578332Y-112107533D02*
X119611665Y-112069438D01*
X119611665Y-112069438D02*
X119678332Y-112031342D01*
X119678332Y-112031342D02*
X119811665Y-111993247D01*
X119811665Y-111993247D02*
X119878332Y-111955152D01*
X119878332Y-111955152D02*
X119911665Y-111917057D01*
X119911665Y-111917057D02*
X119944998Y-111840866D01*
X119944998Y-111840866D02*
X119944998Y-111764676D01*
X119944998Y-111764676D02*
X119911665Y-111688485D01*
X119911665Y-111688485D02*
X119878332Y-111650390D01*
X119878332Y-111650390D02*
X119811665Y-111612295D01*
X119811665Y-111612295D02*
X119644998Y-111612295D01*
X119644998Y-111612295D02*
X119544998Y-111650390D01*
X119311665Y-111612295D02*
X119144998Y-112412295D01*
X119144998Y-112412295D02*
X119011665Y-111840866D01*
X119011665Y-111840866D02*
X118878331Y-112412295D01*
X118878331Y-112412295D02*
X118711665Y-111612295D01*
X118311665Y-111612295D02*
X118178331Y-111612295D01*
X118178331Y-111612295D02*
X118111665Y-111650390D01*
X118111665Y-111650390D02*
X118044998Y-111726580D01*
X118044998Y-111726580D02*
X118011665Y-111878961D01*
X118011665Y-111878961D02*
X118011665Y-112145628D01*
X118011665Y-112145628D02*
X118044998Y-112298009D01*
X118044998Y-112298009D02*
X118111665Y-112374200D01*
X118111665Y-112374200D02*
X118178331Y-112412295D01*
X118178331Y-112412295D02*
X118311665Y-112412295D01*
X118311665Y-112412295D02*
X118378331Y-112374200D01*
X118378331Y-112374200D02*
X118444998Y-112298009D01*
X118444998Y-112298009D02*
X118478331Y-112145628D01*
X118478331Y-112145628D02*
X118478331Y-111878961D01*
X118478331Y-111878961D02*
X118444998Y-111726580D01*
X118444998Y-111726580D02*
X118378331Y-111650390D01*
X118378331Y-111650390D02*
X118311665Y-111612295D01*
X115711666Y-112412295D02*
X115944999Y-112031342D01*
X116111666Y-112412295D02*
X116111666Y-111612295D01*
X116111666Y-111612295D02*
X115844999Y-111612295D01*
X115844999Y-111612295D02*
X115778333Y-111650390D01*
X115778333Y-111650390D02*
X115744999Y-111688485D01*
X115744999Y-111688485D02*
X115711666Y-111764676D01*
X115711666Y-111764676D02*
X115711666Y-111878961D01*
X115711666Y-111878961D02*
X115744999Y-111955152D01*
X115744999Y-111955152D02*
X115778333Y-111993247D01*
X115778333Y-111993247D02*
X115844999Y-112031342D01*
X115844999Y-112031342D02*
X116111666Y-112031342D01*
X115444999Y-112374200D02*
X115344999Y-112412295D01*
X115344999Y-112412295D02*
X115178333Y-112412295D01*
X115178333Y-112412295D02*
X115111666Y-112374200D01*
X115111666Y-112374200D02*
X115078333Y-112336104D01*
X115078333Y-112336104D02*
X115044999Y-112259914D01*
X115044999Y-112259914D02*
X115044999Y-112183723D01*
X115044999Y-112183723D02*
X115078333Y-112107533D01*
X115078333Y-112107533D02*
X115111666Y-112069438D01*
X115111666Y-112069438D02*
X115178333Y-112031342D01*
X115178333Y-112031342D02*
X115311666Y-111993247D01*
X115311666Y-111993247D02*
X115378333Y-111955152D01*
X115378333Y-111955152D02*
X115411666Y-111917057D01*
X115411666Y-111917057D02*
X115444999Y-111840866D01*
X115444999Y-111840866D02*
X115444999Y-111764676D01*
X115444999Y-111764676D02*
X115411666Y-111688485D01*
X115411666Y-111688485D02*
X115378333Y-111650390D01*
X115378333Y-111650390D02*
X115311666Y-111612295D01*
X115311666Y-111612295D02*
X115144999Y-111612295D01*
X115144999Y-111612295D02*
X115044999Y-111650390D01*
X114844999Y-111612295D02*
X114444999Y-111612295D01*
X114644999Y-112412295D02*
X114644999Y-111612295D01*
X113678333Y-112412295D02*
X113678333Y-111612295D01*
X113678333Y-111612295D02*
X113278333Y-112412295D01*
X113278333Y-112412295D02*
X113278333Y-111612295D01*
X112545000Y-112412295D02*
X112778333Y-112031342D01*
X112945000Y-112412295D02*
X112945000Y-111612295D01*
X112945000Y-111612295D02*
X112678333Y-111612295D01*
X112678333Y-111612295D02*
X112611667Y-111650390D01*
X112611667Y-111650390D02*
X112578333Y-111688485D01*
X112578333Y-111688485D02*
X112545000Y-111764676D01*
X112545000Y-111764676D02*
X112545000Y-111878961D01*
X112545000Y-111878961D02*
X112578333Y-111955152D01*
X112578333Y-111955152D02*
X112611667Y-111993247D01*
X112611667Y-111993247D02*
X112678333Y-112031342D01*
X112678333Y-112031342D02*
X112945000Y-112031342D01*
X112278333Y-112374200D02*
X112178333Y-112412295D01*
X112178333Y-112412295D02*
X112011667Y-112412295D01*
X112011667Y-112412295D02*
X111945000Y-112374200D01*
X111945000Y-112374200D02*
X111911667Y-112336104D01*
X111911667Y-112336104D02*
X111878333Y-112259914D01*
X111878333Y-112259914D02*
X111878333Y-112183723D01*
X111878333Y-112183723D02*
X111911667Y-112107533D01*
X111911667Y-112107533D02*
X111945000Y-112069438D01*
X111945000Y-112069438D02*
X112011667Y-112031342D01*
X112011667Y-112031342D02*
X112145000Y-111993247D01*
X112145000Y-111993247D02*
X112211667Y-111955152D01*
X112211667Y-111955152D02*
X112245000Y-111917057D01*
X112245000Y-111917057D02*
X112278333Y-111840866D01*
X112278333Y-111840866D02*
X112278333Y-111764676D01*
X112278333Y-111764676D02*
X112245000Y-111688485D01*
X112245000Y-111688485D02*
X112211667Y-111650390D01*
X112211667Y-111650390D02*
X112145000Y-111612295D01*
X112145000Y-111612295D02*
X111978333Y-111612295D01*
X111978333Y-111612295D02*
X111878333Y-111650390D01*
X111678333Y-111612295D02*
X111278333Y-111612295D01*
X111478333Y-112412295D02*
X111478333Y-111612295D01*
X121245000Y-113243247D02*
X121145000Y-113281342D01*
X121145000Y-113281342D02*
X121111666Y-113319438D01*
X121111666Y-113319438D02*
X121078333Y-113395628D01*
X121078333Y-113395628D02*
X121078333Y-113509914D01*
X121078333Y-113509914D02*
X121111666Y-113586104D01*
X121111666Y-113586104D02*
X121145000Y-113624200D01*
X121145000Y-113624200D02*
X121211666Y-113662295D01*
X121211666Y-113662295D02*
X121478333Y-113662295D01*
X121478333Y-113662295D02*
X121478333Y-112862295D01*
X121478333Y-112862295D02*
X121245000Y-112862295D01*
X121245000Y-112862295D02*
X121178333Y-112900390D01*
X121178333Y-112900390D02*
X121145000Y-112938485D01*
X121145000Y-112938485D02*
X121111666Y-113014676D01*
X121111666Y-113014676D02*
X121111666Y-113090866D01*
X121111666Y-113090866D02*
X121145000Y-113167057D01*
X121145000Y-113167057D02*
X121178333Y-113205152D01*
X121178333Y-113205152D02*
X121245000Y-113243247D01*
X121245000Y-113243247D02*
X121478333Y-113243247D01*
X120478333Y-112862295D02*
X120611666Y-112862295D01*
X120611666Y-112862295D02*
X120678333Y-112900390D01*
X120678333Y-112900390D02*
X120711666Y-112938485D01*
X120711666Y-112938485D02*
X120778333Y-113052771D01*
X120778333Y-113052771D02*
X120811666Y-113205152D01*
X120811666Y-113205152D02*
X120811666Y-113509914D01*
X120811666Y-113509914D02*
X120778333Y-113586104D01*
X120778333Y-113586104D02*
X120745000Y-113624200D01*
X120745000Y-113624200D02*
X120678333Y-113662295D01*
X120678333Y-113662295D02*
X120545000Y-113662295D01*
X120545000Y-113662295D02*
X120478333Y-113624200D01*
X120478333Y-113624200D02*
X120445000Y-113586104D01*
X120445000Y-113586104D02*
X120411666Y-113509914D01*
X120411666Y-113509914D02*
X120411666Y-113319438D01*
X120411666Y-113319438D02*
X120445000Y-113243247D01*
X120445000Y-113243247D02*
X120478333Y-113205152D01*
X120478333Y-113205152D02*
X120545000Y-113167057D01*
X120545000Y-113167057D02*
X120678333Y-113167057D01*
X120678333Y-113167057D02*
X120745000Y-113205152D01*
X120745000Y-113205152D02*
X120778333Y-113243247D01*
X120778333Y-113243247D02*
X120811666Y-113319438D01*
X119611666Y-113624200D02*
X119511666Y-113662295D01*
X119511666Y-113662295D02*
X119345000Y-113662295D01*
X119345000Y-113662295D02*
X119278333Y-113624200D01*
X119278333Y-113624200D02*
X119245000Y-113586104D01*
X119245000Y-113586104D02*
X119211666Y-113509914D01*
X119211666Y-113509914D02*
X119211666Y-113433723D01*
X119211666Y-113433723D02*
X119245000Y-113357533D01*
X119245000Y-113357533D02*
X119278333Y-113319438D01*
X119278333Y-113319438D02*
X119345000Y-113281342D01*
X119345000Y-113281342D02*
X119478333Y-113243247D01*
X119478333Y-113243247D02*
X119545000Y-113205152D01*
X119545000Y-113205152D02*
X119578333Y-113167057D01*
X119578333Y-113167057D02*
X119611666Y-113090866D01*
X119611666Y-113090866D02*
X119611666Y-113014676D01*
X119611666Y-113014676D02*
X119578333Y-112938485D01*
X119578333Y-112938485D02*
X119545000Y-112900390D01*
X119545000Y-112900390D02*
X119478333Y-112862295D01*
X119478333Y-112862295D02*
X119311666Y-112862295D01*
X119311666Y-112862295D02*
X119211666Y-112900390D01*
X118511666Y-113586104D02*
X118544999Y-113624200D01*
X118544999Y-113624200D02*
X118644999Y-113662295D01*
X118644999Y-113662295D02*
X118711666Y-113662295D01*
X118711666Y-113662295D02*
X118811666Y-113624200D01*
X118811666Y-113624200D02*
X118878333Y-113548009D01*
X118878333Y-113548009D02*
X118911666Y-113471819D01*
X118911666Y-113471819D02*
X118944999Y-113319438D01*
X118944999Y-113319438D02*
X118944999Y-113205152D01*
X118944999Y-113205152D02*
X118911666Y-113052771D01*
X118911666Y-113052771D02*
X118878333Y-112976580D01*
X118878333Y-112976580D02*
X118811666Y-112900390D01*
X118811666Y-112900390D02*
X118711666Y-112862295D01*
X118711666Y-112862295D02*
X118644999Y-112862295D01*
X118644999Y-112862295D02*
X118544999Y-112900390D01*
X118544999Y-112900390D02*
X118511666Y-112938485D01*
X117878333Y-113662295D02*
X118211666Y-113662295D01*
X118211666Y-113662295D02*
X118211666Y-112862295D01*
X117278332Y-113662295D02*
X117678332Y-113662295D01*
X117478332Y-113662295D02*
X117478332Y-112862295D01*
X117478332Y-112862295D02*
X117544999Y-112976580D01*
X117544999Y-112976580D02*
X117611666Y-113052771D01*
X117611666Y-113052771D02*
X117678332Y-113090866D01*
X115678333Y-113243247D02*
X115578333Y-113281342D01*
X115578333Y-113281342D02*
X115544999Y-113319438D01*
X115544999Y-113319438D02*
X115511666Y-113395628D01*
X115511666Y-113395628D02*
X115511666Y-113509914D01*
X115511666Y-113509914D02*
X115544999Y-113586104D01*
X115544999Y-113586104D02*
X115578333Y-113624200D01*
X115578333Y-113624200D02*
X115644999Y-113662295D01*
X115644999Y-113662295D02*
X115911666Y-113662295D01*
X115911666Y-113662295D02*
X115911666Y-112862295D01*
X115911666Y-112862295D02*
X115678333Y-112862295D01*
X115678333Y-112862295D02*
X115611666Y-112900390D01*
X115611666Y-112900390D02*
X115578333Y-112938485D01*
X115578333Y-112938485D02*
X115544999Y-113014676D01*
X115544999Y-113014676D02*
X115544999Y-113090866D01*
X115544999Y-113090866D02*
X115578333Y-113167057D01*
X115578333Y-113167057D02*
X115611666Y-113205152D01*
X115611666Y-113205152D02*
X115678333Y-113243247D01*
X115678333Y-113243247D02*
X115911666Y-113243247D01*
X115278333Y-112862295D02*
X114811666Y-112862295D01*
X114811666Y-112862295D02*
X115111666Y-113662295D01*
X114044999Y-113624200D02*
X113944999Y-113662295D01*
X113944999Y-113662295D02*
X113778333Y-113662295D01*
X113778333Y-113662295D02*
X113711666Y-113624200D01*
X113711666Y-113624200D02*
X113678333Y-113586104D01*
X113678333Y-113586104D02*
X113644999Y-113509914D01*
X113644999Y-113509914D02*
X113644999Y-113433723D01*
X113644999Y-113433723D02*
X113678333Y-113357533D01*
X113678333Y-113357533D02*
X113711666Y-113319438D01*
X113711666Y-113319438D02*
X113778333Y-113281342D01*
X113778333Y-113281342D02*
X113911666Y-113243247D01*
X113911666Y-113243247D02*
X113978333Y-113205152D01*
X113978333Y-113205152D02*
X114011666Y-113167057D01*
X114011666Y-113167057D02*
X114044999Y-113090866D01*
X114044999Y-113090866D02*
X114044999Y-113014676D01*
X114044999Y-113014676D02*
X114011666Y-112938485D01*
X114011666Y-112938485D02*
X113978333Y-112900390D01*
X113978333Y-112900390D02*
X113911666Y-112862295D01*
X113911666Y-112862295D02*
X113744999Y-112862295D01*
X113744999Y-112862295D02*
X113644999Y-112900390D01*
X113344999Y-113662295D02*
X113344999Y-112862295D01*
X113344999Y-112862295D02*
X113178332Y-112862295D01*
X113178332Y-112862295D02*
X113078332Y-112900390D01*
X113078332Y-112900390D02*
X113011666Y-112976580D01*
X113011666Y-112976580D02*
X112978332Y-113052771D01*
X112978332Y-113052771D02*
X112944999Y-113205152D01*
X112944999Y-113205152D02*
X112944999Y-113319438D01*
X112944999Y-113319438D02*
X112978332Y-113471819D01*
X112978332Y-113471819D02*
X113011666Y-113548009D01*
X113011666Y-113548009D02*
X113078332Y-113624200D01*
X113078332Y-113624200D02*
X113178332Y-113662295D01*
X113178332Y-113662295D02*
X113344999Y-113662295D01*
X112678332Y-113433723D02*
X112344999Y-113433723D01*
X112744999Y-113662295D02*
X112511666Y-112862295D01*
X112511666Y-112862295D02*
X112278332Y-113662295D01*
X111678332Y-113662295D02*
X112078332Y-113662295D01*
X111878332Y-113662295D02*
X111878332Y-112862295D01*
X111878332Y-112862295D02*
X111944999Y-112976580D01*
X111944999Y-112976580D02*
X112011666Y-113052771D01*
X112011666Y-113052771D02*
X112078332Y-113090866D01*
X121761666Y-114683723D02*
X121428333Y-114683723D01*
X121828333Y-114912295D02*
X121595000Y-114112295D01*
X121595000Y-114112295D02*
X121361666Y-114912295D01*
X120795000Y-114112295D02*
X121128333Y-114112295D01*
X121128333Y-114112295D02*
X121161666Y-114493247D01*
X121161666Y-114493247D02*
X121128333Y-114455152D01*
X121128333Y-114455152D02*
X121061666Y-114417057D01*
X121061666Y-114417057D02*
X120895000Y-114417057D01*
X120895000Y-114417057D02*
X120828333Y-114455152D01*
X120828333Y-114455152D02*
X120795000Y-114493247D01*
X120795000Y-114493247D02*
X120761666Y-114569438D01*
X120761666Y-114569438D02*
X120761666Y-114759914D01*
X120761666Y-114759914D02*
X120795000Y-114836104D01*
X120795000Y-114836104D02*
X120828333Y-114874200D01*
X120828333Y-114874200D02*
X120895000Y-114912295D01*
X120895000Y-114912295D02*
X121061666Y-114912295D01*
X121061666Y-114912295D02*
X121128333Y-114874200D01*
X121128333Y-114874200D02*
X121161666Y-114836104D01*
X119961666Y-114874200D02*
X119861666Y-114912295D01*
X119861666Y-114912295D02*
X119695000Y-114912295D01*
X119695000Y-114912295D02*
X119628333Y-114874200D01*
X119628333Y-114874200D02*
X119595000Y-114836104D01*
X119595000Y-114836104D02*
X119561666Y-114759914D01*
X119561666Y-114759914D02*
X119561666Y-114683723D01*
X119561666Y-114683723D02*
X119595000Y-114607533D01*
X119595000Y-114607533D02*
X119628333Y-114569438D01*
X119628333Y-114569438D02*
X119695000Y-114531342D01*
X119695000Y-114531342D02*
X119828333Y-114493247D01*
X119828333Y-114493247D02*
X119895000Y-114455152D01*
X119895000Y-114455152D02*
X119928333Y-114417057D01*
X119928333Y-114417057D02*
X119961666Y-114340866D01*
X119961666Y-114340866D02*
X119961666Y-114264676D01*
X119961666Y-114264676D02*
X119928333Y-114188485D01*
X119928333Y-114188485D02*
X119895000Y-114150390D01*
X119895000Y-114150390D02*
X119828333Y-114112295D01*
X119828333Y-114112295D02*
X119661666Y-114112295D01*
X119661666Y-114112295D02*
X119561666Y-114150390D01*
X118861666Y-114836104D02*
X118894999Y-114874200D01*
X118894999Y-114874200D02*
X118994999Y-114912295D01*
X118994999Y-114912295D02*
X119061666Y-114912295D01*
X119061666Y-114912295D02*
X119161666Y-114874200D01*
X119161666Y-114874200D02*
X119228333Y-114798009D01*
X119228333Y-114798009D02*
X119261666Y-114721819D01*
X119261666Y-114721819D02*
X119294999Y-114569438D01*
X119294999Y-114569438D02*
X119294999Y-114455152D01*
X119294999Y-114455152D02*
X119261666Y-114302771D01*
X119261666Y-114302771D02*
X119228333Y-114226580D01*
X119228333Y-114226580D02*
X119161666Y-114150390D01*
X119161666Y-114150390D02*
X119061666Y-114112295D01*
X119061666Y-114112295D02*
X118994999Y-114112295D01*
X118994999Y-114112295D02*
X118894999Y-114150390D01*
X118894999Y-114150390D02*
X118861666Y-114188485D01*
X118561666Y-114912295D02*
X118561666Y-114112295D01*
X118161666Y-114912295D02*
X118461666Y-114455152D01*
X118161666Y-114112295D02*
X118561666Y-114569438D01*
X117494999Y-114912295D02*
X117894999Y-114912295D01*
X117694999Y-114912295D02*
X117694999Y-114112295D01*
X117694999Y-114112295D02*
X117761666Y-114226580D01*
X117761666Y-114226580D02*
X117828333Y-114302771D01*
X117828333Y-114302771D02*
X117894999Y-114340866D01*
X116161666Y-114683723D02*
X115828333Y-114683723D01*
X116228333Y-114912295D02*
X115995000Y-114112295D01*
X115995000Y-114112295D02*
X115761666Y-114912295D01*
X115228333Y-114112295D02*
X115361666Y-114112295D01*
X115361666Y-114112295D02*
X115428333Y-114150390D01*
X115428333Y-114150390D02*
X115461666Y-114188485D01*
X115461666Y-114188485D02*
X115528333Y-114302771D01*
X115528333Y-114302771D02*
X115561666Y-114455152D01*
X115561666Y-114455152D02*
X115561666Y-114759914D01*
X115561666Y-114759914D02*
X115528333Y-114836104D01*
X115528333Y-114836104D02*
X115495000Y-114874200D01*
X115495000Y-114874200D02*
X115428333Y-114912295D01*
X115428333Y-114912295D02*
X115295000Y-114912295D01*
X115295000Y-114912295D02*
X115228333Y-114874200D01*
X115228333Y-114874200D02*
X115195000Y-114836104D01*
X115195000Y-114836104D02*
X115161666Y-114759914D01*
X115161666Y-114759914D02*
X115161666Y-114569438D01*
X115161666Y-114569438D02*
X115195000Y-114493247D01*
X115195000Y-114493247D02*
X115228333Y-114455152D01*
X115228333Y-114455152D02*
X115295000Y-114417057D01*
X115295000Y-114417057D02*
X115428333Y-114417057D01*
X115428333Y-114417057D02*
X115495000Y-114455152D01*
X115495000Y-114455152D02*
X115528333Y-114493247D01*
X115528333Y-114493247D02*
X115561666Y-114569438D01*
X114328333Y-114912295D02*
X114328333Y-114112295D01*
X114328333Y-114112295D02*
X114095000Y-114683723D01*
X114095000Y-114683723D02*
X113861666Y-114112295D01*
X113861666Y-114112295D02*
X113861666Y-114912295D01*
X113528333Y-114912295D02*
X113528333Y-114112295D01*
X113228333Y-114874200D02*
X113128333Y-114912295D01*
X113128333Y-114912295D02*
X112961667Y-114912295D01*
X112961667Y-114912295D02*
X112895000Y-114874200D01*
X112895000Y-114874200D02*
X112861667Y-114836104D01*
X112861667Y-114836104D02*
X112828333Y-114759914D01*
X112828333Y-114759914D02*
X112828333Y-114683723D01*
X112828333Y-114683723D02*
X112861667Y-114607533D01*
X112861667Y-114607533D02*
X112895000Y-114569438D01*
X112895000Y-114569438D02*
X112961667Y-114531342D01*
X112961667Y-114531342D02*
X113095000Y-114493247D01*
X113095000Y-114493247D02*
X113161667Y-114455152D01*
X113161667Y-114455152D02*
X113195000Y-114417057D01*
X113195000Y-114417057D02*
X113228333Y-114340866D01*
X113228333Y-114340866D02*
X113228333Y-114264676D01*
X113228333Y-114264676D02*
X113195000Y-114188485D01*
X113195000Y-114188485D02*
X113161667Y-114150390D01*
X113161667Y-114150390D02*
X113095000Y-114112295D01*
X113095000Y-114112295D02*
X112928333Y-114112295D01*
X112928333Y-114112295D02*
X112828333Y-114150390D01*
X112395000Y-114112295D02*
X112261666Y-114112295D01*
X112261666Y-114112295D02*
X112195000Y-114150390D01*
X112195000Y-114150390D02*
X112128333Y-114226580D01*
X112128333Y-114226580D02*
X112095000Y-114378961D01*
X112095000Y-114378961D02*
X112095000Y-114645628D01*
X112095000Y-114645628D02*
X112128333Y-114798009D01*
X112128333Y-114798009D02*
X112195000Y-114874200D01*
X112195000Y-114874200D02*
X112261666Y-114912295D01*
X112261666Y-114912295D02*
X112395000Y-114912295D01*
X112395000Y-114912295D02*
X112461666Y-114874200D01*
X112461666Y-114874200D02*
X112528333Y-114798009D01*
X112528333Y-114798009D02*
X112561666Y-114645628D01*
X112561666Y-114645628D02*
X112561666Y-114378961D01*
X112561666Y-114378961D02*
X112528333Y-114226580D01*
X112528333Y-114226580D02*
X112461666Y-114150390D01*
X112461666Y-114150390D02*
X112395000Y-114112295D01*
X111428333Y-114912295D02*
X111828333Y-114912295D01*
X111628333Y-114912295D02*
X111628333Y-114112295D01*
X111628333Y-114112295D02*
X111695000Y-114226580D01*
X111695000Y-114226580D02*
X111761667Y-114302771D01*
X111761667Y-114302771D02*
X111828333Y-114340866D01*
X121861665Y-115933723D02*
X121528332Y-115933723D01*
X121928332Y-116162295D02*
X121694999Y-115362295D01*
X121694999Y-115362295D02*
X121461665Y-116162295D01*
X121294999Y-115362295D02*
X120828332Y-115362295D01*
X120828332Y-115362295D02*
X121128332Y-116162295D01*
X120028332Y-116162295D02*
X120028332Y-115362295D01*
X120028332Y-115362295D02*
X119794999Y-115933723D01*
X119794999Y-115933723D02*
X119561665Y-115362295D01*
X119561665Y-115362295D02*
X119561665Y-116162295D01*
X119094999Y-115362295D02*
X118961665Y-115362295D01*
X118961665Y-115362295D02*
X118894999Y-115400390D01*
X118894999Y-115400390D02*
X118828332Y-115476580D01*
X118828332Y-115476580D02*
X118794999Y-115628961D01*
X118794999Y-115628961D02*
X118794999Y-115895628D01*
X118794999Y-115895628D02*
X118828332Y-116048009D01*
X118828332Y-116048009D02*
X118894999Y-116124200D01*
X118894999Y-116124200D02*
X118961665Y-116162295D01*
X118961665Y-116162295D02*
X119094999Y-116162295D01*
X119094999Y-116162295D02*
X119161665Y-116124200D01*
X119161665Y-116124200D02*
X119228332Y-116048009D01*
X119228332Y-116048009D02*
X119261665Y-115895628D01*
X119261665Y-115895628D02*
X119261665Y-115628961D01*
X119261665Y-115628961D02*
X119228332Y-115476580D01*
X119228332Y-115476580D02*
X119161665Y-115400390D01*
X119161665Y-115400390D02*
X119094999Y-115362295D01*
X118528332Y-116124200D02*
X118428332Y-116162295D01*
X118428332Y-116162295D02*
X118261666Y-116162295D01*
X118261666Y-116162295D02*
X118194999Y-116124200D01*
X118194999Y-116124200D02*
X118161666Y-116086104D01*
X118161666Y-116086104D02*
X118128332Y-116009914D01*
X118128332Y-116009914D02*
X118128332Y-115933723D01*
X118128332Y-115933723D02*
X118161666Y-115857533D01*
X118161666Y-115857533D02*
X118194999Y-115819438D01*
X118194999Y-115819438D02*
X118261666Y-115781342D01*
X118261666Y-115781342D02*
X118394999Y-115743247D01*
X118394999Y-115743247D02*
X118461666Y-115705152D01*
X118461666Y-115705152D02*
X118494999Y-115667057D01*
X118494999Y-115667057D02*
X118528332Y-115590866D01*
X118528332Y-115590866D02*
X118528332Y-115514676D01*
X118528332Y-115514676D02*
X118494999Y-115438485D01*
X118494999Y-115438485D02*
X118461666Y-115400390D01*
X118461666Y-115400390D02*
X118394999Y-115362295D01*
X118394999Y-115362295D02*
X118228332Y-115362295D01*
X118228332Y-115362295D02*
X118128332Y-115400390D01*
X117828332Y-116162295D02*
X117828332Y-115362295D01*
X117128332Y-116162295D02*
X117528332Y-116162295D01*
X117328332Y-116162295D02*
X117328332Y-115362295D01*
X117328332Y-115362295D02*
X117394999Y-115476580D01*
X117394999Y-115476580D02*
X117461666Y-115552771D01*
X117461666Y-115552771D02*
X117528332Y-115590866D01*
X116061666Y-115743247D02*
X115961666Y-115781342D01*
X115961666Y-115781342D02*
X115928332Y-115819438D01*
X115928332Y-115819438D02*
X115894999Y-115895628D01*
X115894999Y-115895628D02*
X115894999Y-116009914D01*
X115894999Y-116009914D02*
X115928332Y-116086104D01*
X115928332Y-116086104D02*
X115961666Y-116124200D01*
X115961666Y-116124200D02*
X116028332Y-116162295D01*
X116028332Y-116162295D02*
X116294999Y-116162295D01*
X116294999Y-116162295D02*
X116294999Y-115362295D01*
X116294999Y-115362295D02*
X116061666Y-115362295D01*
X116061666Y-115362295D02*
X115994999Y-115400390D01*
X115994999Y-115400390D02*
X115961666Y-115438485D01*
X115961666Y-115438485D02*
X115928332Y-115514676D01*
X115928332Y-115514676D02*
X115928332Y-115590866D01*
X115928332Y-115590866D02*
X115961666Y-115667057D01*
X115961666Y-115667057D02*
X115994999Y-115705152D01*
X115994999Y-115705152D02*
X116061666Y-115743247D01*
X116061666Y-115743247D02*
X116294999Y-115743247D01*
X115628332Y-115438485D02*
X115594999Y-115400390D01*
X115594999Y-115400390D02*
X115528332Y-115362295D01*
X115528332Y-115362295D02*
X115361666Y-115362295D01*
X115361666Y-115362295D02*
X115294999Y-115400390D01*
X115294999Y-115400390D02*
X115261666Y-115438485D01*
X115261666Y-115438485D02*
X115228332Y-115514676D01*
X115228332Y-115514676D02*
X115228332Y-115590866D01*
X115228332Y-115590866D02*
X115261666Y-115705152D01*
X115261666Y-115705152D02*
X115661666Y-116162295D01*
X115661666Y-116162295D02*
X115228332Y-116162295D01*
X114161666Y-115743247D02*
X114061666Y-115781342D01*
X114061666Y-115781342D02*
X114028332Y-115819438D01*
X114028332Y-115819438D02*
X113994999Y-115895628D01*
X113994999Y-115895628D02*
X113994999Y-116009914D01*
X113994999Y-116009914D02*
X114028332Y-116086104D01*
X114028332Y-116086104D02*
X114061666Y-116124200D01*
X114061666Y-116124200D02*
X114128332Y-116162295D01*
X114128332Y-116162295D02*
X114394999Y-116162295D01*
X114394999Y-116162295D02*
X114394999Y-115362295D01*
X114394999Y-115362295D02*
X114161666Y-115362295D01*
X114161666Y-115362295D02*
X114094999Y-115400390D01*
X114094999Y-115400390D02*
X114061666Y-115438485D01*
X114061666Y-115438485D02*
X114028332Y-115514676D01*
X114028332Y-115514676D02*
X114028332Y-115590866D01*
X114028332Y-115590866D02*
X114061666Y-115667057D01*
X114061666Y-115667057D02*
X114094999Y-115705152D01*
X114094999Y-115705152D02*
X114161666Y-115743247D01*
X114161666Y-115743247D02*
X114394999Y-115743247D01*
X113561666Y-115362295D02*
X113428332Y-115362295D01*
X113428332Y-115362295D02*
X113361666Y-115400390D01*
X113361666Y-115400390D02*
X113294999Y-115476580D01*
X113294999Y-115476580D02*
X113261666Y-115628961D01*
X113261666Y-115628961D02*
X113261666Y-115895628D01*
X113261666Y-115895628D02*
X113294999Y-116048009D01*
X113294999Y-116048009D02*
X113361666Y-116124200D01*
X113361666Y-116124200D02*
X113428332Y-116162295D01*
X113428332Y-116162295D02*
X113561666Y-116162295D01*
X113561666Y-116162295D02*
X113628332Y-116124200D01*
X113628332Y-116124200D02*
X113694999Y-116048009D01*
X113694999Y-116048009D02*
X113728332Y-115895628D01*
X113728332Y-115895628D02*
X113728332Y-115628961D01*
X113728332Y-115628961D02*
X113694999Y-115476580D01*
X113694999Y-115476580D02*
X113628332Y-115400390D01*
X113628332Y-115400390D02*
X113561666Y-115362295D01*
X112828333Y-115362295D02*
X112694999Y-115362295D01*
X112694999Y-115362295D02*
X112628333Y-115400390D01*
X112628333Y-115400390D02*
X112561666Y-115476580D01*
X112561666Y-115476580D02*
X112528333Y-115628961D01*
X112528333Y-115628961D02*
X112528333Y-115895628D01*
X112528333Y-115895628D02*
X112561666Y-116048009D01*
X112561666Y-116048009D02*
X112628333Y-116124200D01*
X112628333Y-116124200D02*
X112694999Y-116162295D01*
X112694999Y-116162295D02*
X112828333Y-116162295D01*
X112828333Y-116162295D02*
X112894999Y-116124200D01*
X112894999Y-116124200D02*
X112961666Y-116048009D01*
X112961666Y-116048009D02*
X112994999Y-115895628D01*
X112994999Y-115895628D02*
X112994999Y-115628961D01*
X112994999Y-115628961D02*
X112961666Y-115476580D01*
X112961666Y-115476580D02*
X112894999Y-115400390D01*
X112894999Y-115400390D02*
X112828333Y-115362295D01*
X112328333Y-115362295D02*
X111928333Y-115362295D01*
X112128333Y-116162295D02*
X112128333Y-115362295D01*
X111328333Y-116162295D02*
X111728333Y-116162295D01*
X111528333Y-116162295D02*
X111528333Y-115362295D01*
X111528333Y-115362295D02*
X111595000Y-115476580D01*
X111595000Y-115476580D02*
X111661667Y-115552771D01*
X111661667Y-115552771D02*
X111728333Y-115590866D01*
X121678333Y-116993247D02*
X121578333Y-117031342D01*
X121578333Y-117031342D02*
X121544999Y-117069438D01*
X121544999Y-117069438D02*
X121511666Y-117145628D01*
X121511666Y-117145628D02*
X121511666Y-117259914D01*
X121511666Y-117259914D02*
X121544999Y-117336104D01*
X121544999Y-117336104D02*
X121578333Y-117374200D01*
X121578333Y-117374200D02*
X121644999Y-117412295D01*
X121644999Y-117412295D02*
X121911666Y-117412295D01*
X121911666Y-117412295D02*
X121911666Y-116612295D01*
X121911666Y-116612295D02*
X121678333Y-116612295D01*
X121678333Y-116612295D02*
X121611666Y-116650390D01*
X121611666Y-116650390D02*
X121578333Y-116688485D01*
X121578333Y-116688485D02*
X121544999Y-116764676D01*
X121544999Y-116764676D02*
X121544999Y-116840866D01*
X121544999Y-116840866D02*
X121578333Y-116917057D01*
X121578333Y-116917057D02*
X121611666Y-116955152D01*
X121611666Y-116955152D02*
X121678333Y-116993247D01*
X121678333Y-116993247D02*
X121911666Y-116993247D01*
X121111666Y-116955152D02*
X121178333Y-116917057D01*
X121178333Y-116917057D02*
X121211666Y-116878961D01*
X121211666Y-116878961D02*
X121244999Y-116802771D01*
X121244999Y-116802771D02*
X121244999Y-116764676D01*
X121244999Y-116764676D02*
X121211666Y-116688485D01*
X121211666Y-116688485D02*
X121178333Y-116650390D01*
X121178333Y-116650390D02*
X121111666Y-116612295D01*
X121111666Y-116612295D02*
X120978333Y-116612295D01*
X120978333Y-116612295D02*
X120911666Y-116650390D01*
X120911666Y-116650390D02*
X120878333Y-116688485D01*
X120878333Y-116688485D02*
X120844999Y-116764676D01*
X120844999Y-116764676D02*
X120844999Y-116802771D01*
X120844999Y-116802771D02*
X120878333Y-116878961D01*
X120878333Y-116878961D02*
X120911666Y-116917057D01*
X120911666Y-116917057D02*
X120978333Y-116955152D01*
X120978333Y-116955152D02*
X121111666Y-116955152D01*
X121111666Y-116955152D02*
X121178333Y-116993247D01*
X121178333Y-116993247D02*
X121211666Y-117031342D01*
X121211666Y-117031342D02*
X121244999Y-117107533D01*
X121244999Y-117107533D02*
X121244999Y-117259914D01*
X121244999Y-117259914D02*
X121211666Y-117336104D01*
X121211666Y-117336104D02*
X121178333Y-117374200D01*
X121178333Y-117374200D02*
X121111666Y-117412295D01*
X121111666Y-117412295D02*
X120978333Y-117412295D01*
X120978333Y-117412295D02*
X120911666Y-117374200D01*
X120911666Y-117374200D02*
X120878333Y-117336104D01*
X120878333Y-117336104D02*
X120844999Y-117259914D01*
X120844999Y-117259914D02*
X120844999Y-117107533D01*
X120844999Y-117107533D02*
X120878333Y-117031342D01*
X120878333Y-117031342D02*
X120911666Y-116993247D01*
X120911666Y-116993247D02*
X120978333Y-116955152D01*
X119611666Y-117336104D02*
X119644999Y-117374200D01*
X119644999Y-117374200D02*
X119744999Y-117412295D01*
X119744999Y-117412295D02*
X119811666Y-117412295D01*
X119811666Y-117412295D02*
X119911666Y-117374200D01*
X119911666Y-117374200D02*
X119978333Y-117298009D01*
X119978333Y-117298009D02*
X120011666Y-117221819D01*
X120011666Y-117221819D02*
X120044999Y-117069438D01*
X120044999Y-117069438D02*
X120044999Y-116955152D01*
X120044999Y-116955152D02*
X120011666Y-116802771D01*
X120011666Y-116802771D02*
X119978333Y-116726580D01*
X119978333Y-116726580D02*
X119911666Y-116650390D01*
X119911666Y-116650390D02*
X119811666Y-116612295D01*
X119811666Y-116612295D02*
X119744999Y-116612295D01*
X119744999Y-116612295D02*
X119644999Y-116650390D01*
X119644999Y-116650390D02*
X119611666Y-116688485D01*
X119344999Y-117183723D02*
X119011666Y-117183723D01*
X119411666Y-117412295D02*
X119178333Y-116612295D01*
X119178333Y-116612295D02*
X118944999Y-117412295D01*
X118711666Y-117412295D02*
X118711666Y-116612295D01*
X118711666Y-116612295D02*
X118311666Y-117412295D01*
X118311666Y-117412295D02*
X118311666Y-116612295D01*
X117578333Y-117412295D02*
X117811666Y-117031342D01*
X117978333Y-117412295D02*
X117978333Y-116612295D01*
X117978333Y-116612295D02*
X117711666Y-116612295D01*
X117711666Y-116612295D02*
X117645000Y-116650390D01*
X117645000Y-116650390D02*
X117611666Y-116688485D01*
X117611666Y-116688485D02*
X117578333Y-116764676D01*
X117578333Y-116764676D02*
X117578333Y-116878961D01*
X117578333Y-116878961D02*
X117611666Y-116955152D01*
X117611666Y-116955152D02*
X117645000Y-116993247D01*
X117645000Y-116993247D02*
X117711666Y-117031342D01*
X117711666Y-117031342D02*
X117978333Y-117031342D01*
X117345000Y-116612295D02*
X116878333Y-117412295D01*
X116878333Y-116612295D02*
X117345000Y-117412295D01*
X115845000Y-116993247D02*
X115745000Y-117031342D01*
X115745000Y-117031342D02*
X115711666Y-117069438D01*
X115711666Y-117069438D02*
X115678333Y-117145628D01*
X115678333Y-117145628D02*
X115678333Y-117259914D01*
X115678333Y-117259914D02*
X115711666Y-117336104D01*
X115711666Y-117336104D02*
X115745000Y-117374200D01*
X115745000Y-117374200D02*
X115811666Y-117412295D01*
X115811666Y-117412295D02*
X116078333Y-117412295D01*
X116078333Y-117412295D02*
X116078333Y-116612295D01*
X116078333Y-116612295D02*
X115845000Y-116612295D01*
X115845000Y-116612295D02*
X115778333Y-116650390D01*
X115778333Y-116650390D02*
X115745000Y-116688485D01*
X115745000Y-116688485D02*
X115711666Y-116764676D01*
X115711666Y-116764676D02*
X115711666Y-116840866D01*
X115711666Y-116840866D02*
X115745000Y-116917057D01*
X115745000Y-116917057D02*
X115778333Y-116955152D01*
X115778333Y-116955152D02*
X115845000Y-116993247D01*
X115845000Y-116993247D02*
X116078333Y-116993247D01*
X115345000Y-117412295D02*
X115211666Y-117412295D01*
X115211666Y-117412295D02*
X115145000Y-117374200D01*
X115145000Y-117374200D02*
X115111666Y-117336104D01*
X115111666Y-117336104D02*
X115045000Y-117221819D01*
X115045000Y-117221819D02*
X115011666Y-117069438D01*
X115011666Y-117069438D02*
X115011666Y-116764676D01*
X115011666Y-116764676D02*
X115045000Y-116688485D01*
X115045000Y-116688485D02*
X115078333Y-116650390D01*
X115078333Y-116650390D02*
X115145000Y-116612295D01*
X115145000Y-116612295D02*
X115278333Y-116612295D01*
X115278333Y-116612295D02*
X115345000Y-116650390D01*
X115345000Y-116650390D02*
X115378333Y-116688485D01*
X115378333Y-116688485D02*
X115411666Y-116764676D01*
X115411666Y-116764676D02*
X115411666Y-116955152D01*
X115411666Y-116955152D02*
X115378333Y-117031342D01*
X115378333Y-117031342D02*
X115345000Y-117069438D01*
X115345000Y-117069438D02*
X115278333Y-117107533D01*
X115278333Y-117107533D02*
X115145000Y-117107533D01*
X115145000Y-117107533D02*
X115078333Y-117069438D01*
X115078333Y-117069438D02*
X115045000Y-117031342D01*
X115045000Y-117031342D02*
X115011666Y-116955152D01*
X113778333Y-117336104D02*
X113811666Y-117374200D01*
X113811666Y-117374200D02*
X113911666Y-117412295D01*
X113911666Y-117412295D02*
X113978333Y-117412295D01*
X113978333Y-117412295D02*
X114078333Y-117374200D01*
X114078333Y-117374200D02*
X114145000Y-117298009D01*
X114145000Y-117298009D02*
X114178333Y-117221819D01*
X114178333Y-117221819D02*
X114211666Y-117069438D01*
X114211666Y-117069438D02*
X114211666Y-116955152D01*
X114211666Y-116955152D02*
X114178333Y-116802771D01*
X114178333Y-116802771D02*
X114145000Y-116726580D01*
X114145000Y-116726580D02*
X114078333Y-116650390D01*
X114078333Y-116650390D02*
X113978333Y-116612295D01*
X113978333Y-116612295D02*
X113911666Y-116612295D01*
X113911666Y-116612295D02*
X113811666Y-116650390D01*
X113811666Y-116650390D02*
X113778333Y-116688485D01*
X113511666Y-117183723D02*
X113178333Y-117183723D01*
X113578333Y-117412295D02*
X113345000Y-116612295D01*
X113345000Y-116612295D02*
X113111666Y-117412295D01*
X112878333Y-117412295D02*
X112878333Y-116612295D01*
X112878333Y-116612295D02*
X112478333Y-117412295D01*
X112478333Y-117412295D02*
X112478333Y-116612295D01*
X112245000Y-116612295D02*
X111845000Y-116612295D01*
X112045000Y-117412295D02*
X112045000Y-116612295D01*
X111678334Y-116612295D02*
X111211667Y-117412295D01*
X111211667Y-116612295D02*
X111678334Y-117412295D01*
X120928333Y-118586104D02*
X120961666Y-118624200D01*
X120961666Y-118624200D02*
X121061666Y-118662295D01*
X121061666Y-118662295D02*
X121128333Y-118662295D01*
X121128333Y-118662295D02*
X121228333Y-118624200D01*
X121228333Y-118624200D02*
X121295000Y-118548009D01*
X121295000Y-118548009D02*
X121328333Y-118471819D01*
X121328333Y-118471819D02*
X121361666Y-118319438D01*
X121361666Y-118319438D02*
X121361666Y-118205152D01*
X121361666Y-118205152D02*
X121328333Y-118052771D01*
X121328333Y-118052771D02*
X121295000Y-117976580D01*
X121295000Y-117976580D02*
X121228333Y-117900390D01*
X121228333Y-117900390D02*
X121128333Y-117862295D01*
X121128333Y-117862295D02*
X121061666Y-117862295D01*
X121061666Y-117862295D02*
X120961666Y-117900390D01*
X120961666Y-117900390D02*
X120928333Y-117938485D01*
X120261666Y-118662295D02*
X120661666Y-118662295D01*
X120461666Y-118662295D02*
X120461666Y-117862295D01*
X120461666Y-117862295D02*
X120528333Y-117976580D01*
X120528333Y-117976580D02*
X120595000Y-118052771D01*
X120595000Y-118052771D02*
X120661666Y-118090866D01*
X120028333Y-117862295D02*
X119594999Y-117862295D01*
X119594999Y-117862295D02*
X119828333Y-118167057D01*
X119828333Y-118167057D02*
X119728333Y-118167057D01*
X119728333Y-118167057D02*
X119661666Y-118205152D01*
X119661666Y-118205152D02*
X119628333Y-118243247D01*
X119628333Y-118243247D02*
X119594999Y-118319438D01*
X119594999Y-118319438D02*
X119594999Y-118509914D01*
X119594999Y-118509914D02*
X119628333Y-118586104D01*
X119628333Y-118586104D02*
X119661666Y-118624200D01*
X119661666Y-118624200D02*
X119728333Y-118662295D01*
X119728333Y-118662295D02*
X119928333Y-118662295D01*
X119928333Y-118662295D02*
X119994999Y-118624200D01*
X119994999Y-118624200D02*
X120028333Y-118586104D01*
X118428333Y-118662295D02*
X118761666Y-118662295D01*
X118761666Y-118662295D02*
X118761666Y-117862295D01*
X118194999Y-118243247D02*
X117961666Y-118243247D01*
X117861666Y-118662295D02*
X118194999Y-118662295D01*
X118194999Y-118662295D02*
X118194999Y-117862295D01*
X118194999Y-117862295D02*
X117861666Y-117862295D01*
X117561666Y-118662295D02*
X117561666Y-117862295D01*
X117561666Y-117862295D02*
X117394999Y-117862295D01*
X117394999Y-117862295D02*
X117294999Y-117900390D01*
X117294999Y-117900390D02*
X117228333Y-117976580D01*
X117228333Y-117976580D02*
X117194999Y-118052771D01*
X117194999Y-118052771D02*
X117161666Y-118205152D01*
X117161666Y-118205152D02*
X117161666Y-118319438D01*
X117161666Y-118319438D02*
X117194999Y-118471819D01*
X117194999Y-118471819D02*
X117228333Y-118548009D01*
X117228333Y-118548009D02*
X117294999Y-118624200D01*
X117294999Y-118624200D02*
X117394999Y-118662295D01*
X117394999Y-118662295D02*
X117561666Y-118662295D01*
X116128333Y-118967057D02*
X116161666Y-118928961D01*
X116161666Y-118928961D02*
X116228333Y-118814676D01*
X116228333Y-118814676D02*
X116261666Y-118738485D01*
X116261666Y-118738485D02*
X116295000Y-118624200D01*
X116295000Y-118624200D02*
X116328333Y-118433723D01*
X116328333Y-118433723D02*
X116328333Y-118281342D01*
X116328333Y-118281342D02*
X116295000Y-118090866D01*
X116295000Y-118090866D02*
X116261666Y-117976580D01*
X116261666Y-117976580D02*
X116228333Y-117900390D01*
X116228333Y-117900390D02*
X116161666Y-117786104D01*
X116161666Y-117786104D02*
X116128333Y-117748009D01*
X115761666Y-118662295D02*
X115828333Y-118624200D01*
X115828333Y-118624200D02*
X115861666Y-118548009D01*
X115861666Y-118548009D02*
X115861666Y-117862295D01*
X115394999Y-118662295D02*
X115461666Y-118624200D01*
X115461666Y-118624200D02*
X115494999Y-118586104D01*
X115494999Y-118586104D02*
X115528332Y-118509914D01*
X115528332Y-118509914D02*
X115528332Y-118281342D01*
X115528332Y-118281342D02*
X115494999Y-118205152D01*
X115494999Y-118205152D02*
X115461666Y-118167057D01*
X115461666Y-118167057D02*
X115394999Y-118128961D01*
X115394999Y-118128961D02*
X115294999Y-118128961D01*
X115294999Y-118128961D02*
X115228332Y-118167057D01*
X115228332Y-118167057D02*
X115194999Y-118205152D01*
X115194999Y-118205152D02*
X115161666Y-118281342D01*
X115161666Y-118281342D02*
X115161666Y-118509914D01*
X115161666Y-118509914D02*
X115194999Y-118586104D01*
X115194999Y-118586104D02*
X115228332Y-118624200D01*
X115228332Y-118624200D02*
X115294999Y-118662295D01*
X115294999Y-118662295D02*
X115394999Y-118662295D01*
X114928333Y-118128961D02*
X114794999Y-118662295D01*
X114794999Y-118662295D02*
X114661666Y-118281342D01*
X114661666Y-118281342D02*
X114528333Y-118662295D01*
X114528333Y-118662295D02*
X114394999Y-118128961D01*
X114128333Y-118243247D02*
X113595000Y-118243247D01*
X113595000Y-118471819D02*
X114128333Y-118471819D01*
X113161666Y-118662295D02*
X113228333Y-118624200D01*
X113228333Y-118624200D02*
X113261666Y-118586104D01*
X113261666Y-118586104D02*
X113294999Y-118509914D01*
X113294999Y-118509914D02*
X113294999Y-118281342D01*
X113294999Y-118281342D02*
X113261666Y-118205152D01*
X113261666Y-118205152D02*
X113228333Y-118167057D01*
X113228333Y-118167057D02*
X113161666Y-118128961D01*
X113161666Y-118128961D02*
X113061666Y-118128961D01*
X113061666Y-118128961D02*
X112994999Y-118167057D01*
X112994999Y-118167057D02*
X112961666Y-118205152D01*
X112961666Y-118205152D02*
X112928333Y-118281342D01*
X112928333Y-118281342D02*
X112928333Y-118509914D01*
X112928333Y-118509914D02*
X112961666Y-118586104D01*
X112961666Y-118586104D02*
X112994999Y-118624200D01*
X112994999Y-118624200D02*
X113061666Y-118662295D01*
X113061666Y-118662295D02*
X113161666Y-118662295D01*
X112628333Y-118128961D02*
X112628333Y-118662295D01*
X112628333Y-118205152D02*
X112595000Y-118167057D01*
X112595000Y-118167057D02*
X112528333Y-118128961D01*
X112528333Y-118128961D02*
X112428333Y-118128961D01*
X112428333Y-118128961D02*
X112361666Y-118167057D01*
X112361666Y-118167057D02*
X112328333Y-118243247D01*
X112328333Y-118243247D02*
X112328333Y-118662295D01*
X112061667Y-118967057D02*
X112028333Y-118928961D01*
X112028333Y-118928961D02*
X111961667Y-118814676D01*
X111961667Y-118814676D02*
X111928333Y-118738485D01*
X111928333Y-118738485D02*
X111895000Y-118624200D01*
X111895000Y-118624200D02*
X111861667Y-118433723D01*
X111861667Y-118433723D02*
X111861667Y-118281342D01*
X111861667Y-118281342D02*
X111895000Y-118090866D01*
X111895000Y-118090866D02*
X111928333Y-117976580D01*
X111928333Y-117976580D02*
X111961667Y-117900390D01*
X111961667Y-117900390D02*
X112028333Y-117786104D01*
X112028333Y-117786104D02*
X112061667Y-117748009D01*
X122428332Y-119112295D02*
X122761665Y-119112295D01*
X122761665Y-119112295D02*
X122794998Y-119493247D01*
X122794998Y-119493247D02*
X122761665Y-119455152D01*
X122761665Y-119455152D02*
X122694998Y-119417057D01*
X122694998Y-119417057D02*
X122528332Y-119417057D01*
X122528332Y-119417057D02*
X122461665Y-119455152D01*
X122461665Y-119455152D02*
X122428332Y-119493247D01*
X122428332Y-119493247D02*
X122394998Y-119569438D01*
X122394998Y-119569438D02*
X122394998Y-119759914D01*
X122394998Y-119759914D02*
X122428332Y-119836104D01*
X122428332Y-119836104D02*
X122461665Y-119874200D01*
X122461665Y-119874200D02*
X122528332Y-119912295D01*
X122528332Y-119912295D02*
X122694998Y-119912295D01*
X122694998Y-119912295D02*
X122761665Y-119874200D01*
X122761665Y-119874200D02*
X122794998Y-119836104D01*
X122194998Y-119112295D02*
X121961665Y-119912295D01*
X121961665Y-119912295D02*
X121728331Y-119112295D01*
X121494998Y-119836104D02*
X121461665Y-119874200D01*
X121461665Y-119874200D02*
X121494998Y-119912295D01*
X121494998Y-119912295D02*
X121528331Y-119874200D01*
X121528331Y-119874200D02*
X121494998Y-119836104D01*
X121494998Y-119836104D02*
X121494998Y-119912295D01*
X121494998Y-119417057D02*
X121461665Y-119455152D01*
X121461665Y-119455152D02*
X121494998Y-119493247D01*
X121494998Y-119493247D02*
X121528331Y-119455152D01*
X121528331Y-119455152D02*
X121494998Y-119417057D01*
X121494998Y-119417057D02*
X121494998Y-119493247D01*
X120628332Y-119112295D02*
X120628332Y-119759914D01*
X120628332Y-119759914D02*
X120594999Y-119836104D01*
X120594999Y-119836104D02*
X120561665Y-119874200D01*
X120561665Y-119874200D02*
X120494999Y-119912295D01*
X120494999Y-119912295D02*
X120361665Y-119912295D01*
X120361665Y-119912295D02*
X120294999Y-119874200D01*
X120294999Y-119874200D02*
X120261665Y-119836104D01*
X120261665Y-119836104D02*
X120228332Y-119759914D01*
X120228332Y-119759914D02*
X120228332Y-119112295D01*
X119928332Y-119874200D02*
X119828332Y-119912295D01*
X119828332Y-119912295D02*
X119661666Y-119912295D01*
X119661666Y-119912295D02*
X119594999Y-119874200D01*
X119594999Y-119874200D02*
X119561666Y-119836104D01*
X119561666Y-119836104D02*
X119528332Y-119759914D01*
X119528332Y-119759914D02*
X119528332Y-119683723D01*
X119528332Y-119683723D02*
X119561666Y-119607533D01*
X119561666Y-119607533D02*
X119594999Y-119569438D01*
X119594999Y-119569438D02*
X119661666Y-119531342D01*
X119661666Y-119531342D02*
X119794999Y-119493247D01*
X119794999Y-119493247D02*
X119861666Y-119455152D01*
X119861666Y-119455152D02*
X119894999Y-119417057D01*
X119894999Y-119417057D02*
X119928332Y-119340866D01*
X119928332Y-119340866D02*
X119928332Y-119264676D01*
X119928332Y-119264676D02*
X119894999Y-119188485D01*
X119894999Y-119188485D02*
X119861666Y-119150390D01*
X119861666Y-119150390D02*
X119794999Y-119112295D01*
X119794999Y-119112295D02*
X119628332Y-119112295D01*
X119628332Y-119112295D02*
X119528332Y-119150390D01*
X118994999Y-119493247D02*
X118894999Y-119531342D01*
X118894999Y-119531342D02*
X118861665Y-119569438D01*
X118861665Y-119569438D02*
X118828332Y-119645628D01*
X118828332Y-119645628D02*
X118828332Y-119759914D01*
X118828332Y-119759914D02*
X118861665Y-119836104D01*
X118861665Y-119836104D02*
X118894999Y-119874200D01*
X118894999Y-119874200D02*
X118961665Y-119912295D01*
X118961665Y-119912295D02*
X119228332Y-119912295D01*
X119228332Y-119912295D02*
X119228332Y-119112295D01*
X119228332Y-119112295D02*
X118994999Y-119112295D01*
X118994999Y-119112295D02*
X118928332Y-119150390D01*
X118928332Y-119150390D02*
X118894999Y-119188485D01*
X118894999Y-119188485D02*
X118861665Y-119264676D01*
X118861665Y-119264676D02*
X118861665Y-119340866D01*
X118861665Y-119340866D02*
X118894999Y-119417057D01*
X118894999Y-119417057D02*
X118928332Y-119455152D01*
X118928332Y-119455152D02*
X118994999Y-119493247D01*
X118994999Y-119493247D02*
X119228332Y-119493247D01*
X117894999Y-119912295D02*
X117961666Y-119874200D01*
X117961666Y-119874200D02*
X117994999Y-119836104D01*
X117994999Y-119836104D02*
X118028332Y-119759914D01*
X118028332Y-119759914D02*
X118028332Y-119531342D01*
X118028332Y-119531342D02*
X117994999Y-119455152D01*
X117994999Y-119455152D02*
X117961666Y-119417057D01*
X117961666Y-119417057D02*
X117894999Y-119378961D01*
X117894999Y-119378961D02*
X117794999Y-119378961D01*
X117794999Y-119378961D02*
X117728332Y-119417057D01*
X117728332Y-119417057D02*
X117694999Y-119455152D01*
X117694999Y-119455152D02*
X117661666Y-119531342D01*
X117661666Y-119531342D02*
X117661666Y-119759914D01*
X117661666Y-119759914D02*
X117694999Y-119836104D01*
X117694999Y-119836104D02*
X117728332Y-119874200D01*
X117728332Y-119874200D02*
X117794999Y-119912295D01*
X117794999Y-119912295D02*
X117894999Y-119912295D01*
X117061666Y-119378961D02*
X117061666Y-119912295D01*
X117361666Y-119378961D02*
X117361666Y-119798009D01*
X117361666Y-119798009D02*
X117328333Y-119874200D01*
X117328333Y-119874200D02*
X117261666Y-119912295D01*
X117261666Y-119912295D02*
X117161666Y-119912295D01*
X117161666Y-119912295D02*
X117094999Y-119874200D01*
X117094999Y-119874200D02*
X117061666Y-119836104D01*
X116828333Y-119378961D02*
X116561666Y-119378961D01*
X116728333Y-119112295D02*
X116728333Y-119798009D01*
X116728333Y-119798009D02*
X116695000Y-119874200D01*
X116695000Y-119874200D02*
X116628333Y-119912295D01*
X116628333Y-119912295D02*
X116561666Y-119912295D01*
X115828333Y-119074200D02*
X116428333Y-120102771D01*
X115061667Y-119378961D02*
X115595000Y-119607533D01*
X115595000Y-119607533D02*
X115061667Y-119836104D01*
X114728333Y-119493247D02*
X114195000Y-119493247D01*
X114195000Y-119721819D02*
X114728333Y-119721819D01*
X113528333Y-119112295D02*
X113861666Y-119112295D01*
X113861666Y-119112295D02*
X113894999Y-119493247D01*
X113894999Y-119493247D02*
X113861666Y-119455152D01*
X113861666Y-119455152D02*
X113794999Y-119417057D01*
X113794999Y-119417057D02*
X113628333Y-119417057D01*
X113628333Y-119417057D02*
X113561666Y-119455152D01*
X113561666Y-119455152D02*
X113528333Y-119493247D01*
X113528333Y-119493247D02*
X113494999Y-119569438D01*
X113494999Y-119569438D02*
X113494999Y-119759914D01*
X113494999Y-119759914D02*
X113528333Y-119836104D01*
X113528333Y-119836104D02*
X113561666Y-119874200D01*
X113561666Y-119874200D02*
X113628333Y-119912295D01*
X113628333Y-119912295D02*
X113794999Y-119912295D01*
X113794999Y-119912295D02*
X113861666Y-119874200D01*
X113861666Y-119874200D02*
X113894999Y-119836104D01*
X113194999Y-119836104D02*
X113161666Y-119874200D01*
X113161666Y-119874200D02*
X113194999Y-119912295D01*
X113194999Y-119912295D02*
X113228332Y-119874200D01*
X113228332Y-119874200D02*
X113194999Y-119836104D01*
X113194999Y-119836104D02*
X113194999Y-119912295D01*
X112528333Y-119112295D02*
X112861666Y-119112295D01*
X112861666Y-119112295D02*
X112894999Y-119493247D01*
X112894999Y-119493247D02*
X112861666Y-119455152D01*
X112861666Y-119455152D02*
X112794999Y-119417057D01*
X112794999Y-119417057D02*
X112628333Y-119417057D01*
X112628333Y-119417057D02*
X112561666Y-119455152D01*
X112561666Y-119455152D02*
X112528333Y-119493247D01*
X112528333Y-119493247D02*
X112494999Y-119569438D01*
X112494999Y-119569438D02*
X112494999Y-119759914D01*
X112494999Y-119759914D02*
X112528333Y-119836104D01*
X112528333Y-119836104D02*
X112561666Y-119874200D01*
X112561666Y-119874200D02*
X112628333Y-119912295D01*
X112628333Y-119912295D02*
X112794999Y-119912295D01*
X112794999Y-119912295D02*
X112861666Y-119874200D01*
X112861666Y-119874200D02*
X112894999Y-119836104D01*
X112294999Y-119112295D02*
X112061666Y-119912295D01*
X112061666Y-119912295D02*
X111828332Y-119112295D01*
X111061666Y-119912295D02*
X111061666Y-119378961D01*
X111061666Y-119112295D02*
X111094999Y-119150390D01*
X111094999Y-119150390D02*
X111061666Y-119188485D01*
X111061666Y-119188485D02*
X111028333Y-119150390D01*
X111028333Y-119150390D02*
X111061666Y-119112295D01*
X111061666Y-119112295D02*
X111061666Y-119188485D01*
X110728333Y-119378961D02*
X110728333Y-119912295D01*
X110728333Y-119455152D02*
X110695000Y-119417057D01*
X110695000Y-119417057D02*
X110628333Y-119378961D01*
X110628333Y-119378961D02*
X110528333Y-119378961D01*
X110528333Y-119378961D02*
X110461666Y-119417057D01*
X110461666Y-119417057D02*
X110428333Y-119493247D01*
X110428333Y-119493247D02*
X110428333Y-119912295D01*
X122361666Y-120362295D02*
X121928332Y-120362295D01*
X121928332Y-120362295D02*
X122161666Y-120667057D01*
X122161666Y-120667057D02*
X122061666Y-120667057D01*
X122061666Y-120667057D02*
X121994999Y-120705152D01*
X121994999Y-120705152D02*
X121961666Y-120743247D01*
X121961666Y-120743247D02*
X121928332Y-120819438D01*
X121928332Y-120819438D02*
X121928332Y-121009914D01*
X121928332Y-121009914D02*
X121961666Y-121086104D01*
X121961666Y-121086104D02*
X121994999Y-121124200D01*
X121994999Y-121124200D02*
X122061666Y-121162295D01*
X122061666Y-121162295D02*
X122261666Y-121162295D01*
X122261666Y-121162295D02*
X122328332Y-121124200D01*
X122328332Y-121124200D02*
X122361666Y-121086104D01*
X121728332Y-120362295D02*
X121494999Y-121162295D01*
X121494999Y-121162295D02*
X121261665Y-120362295D01*
X121094999Y-120362295D02*
X120661665Y-120362295D01*
X120661665Y-120362295D02*
X120894999Y-120667057D01*
X120894999Y-120667057D02*
X120794999Y-120667057D01*
X120794999Y-120667057D02*
X120728332Y-120705152D01*
X120728332Y-120705152D02*
X120694999Y-120743247D01*
X120694999Y-120743247D02*
X120661665Y-120819438D01*
X120661665Y-120819438D02*
X120661665Y-121009914D01*
X120661665Y-121009914D02*
X120694999Y-121086104D01*
X120694999Y-121086104D02*
X120728332Y-121124200D01*
X120728332Y-121124200D02*
X120794999Y-121162295D01*
X120794999Y-121162295D02*
X120994999Y-121162295D01*
X120994999Y-121162295D02*
X121061665Y-121124200D01*
X121061665Y-121124200D02*
X121094999Y-121086104D01*
X119728332Y-121162295D02*
X119794999Y-121124200D01*
X119794999Y-121124200D02*
X119828332Y-121086104D01*
X119828332Y-121086104D02*
X119861665Y-121009914D01*
X119861665Y-121009914D02*
X119861665Y-120781342D01*
X119861665Y-120781342D02*
X119828332Y-120705152D01*
X119828332Y-120705152D02*
X119794999Y-120667057D01*
X119794999Y-120667057D02*
X119728332Y-120628961D01*
X119728332Y-120628961D02*
X119628332Y-120628961D01*
X119628332Y-120628961D02*
X119561665Y-120667057D01*
X119561665Y-120667057D02*
X119528332Y-120705152D01*
X119528332Y-120705152D02*
X119494999Y-120781342D01*
X119494999Y-120781342D02*
X119494999Y-121009914D01*
X119494999Y-121009914D02*
X119528332Y-121086104D01*
X119528332Y-121086104D02*
X119561665Y-121124200D01*
X119561665Y-121124200D02*
X119628332Y-121162295D01*
X119628332Y-121162295D02*
X119728332Y-121162295D01*
X118894999Y-120628961D02*
X118894999Y-121162295D01*
X119194999Y-120628961D02*
X119194999Y-121048009D01*
X119194999Y-121048009D02*
X119161666Y-121124200D01*
X119161666Y-121124200D02*
X119094999Y-121162295D01*
X119094999Y-121162295D02*
X118994999Y-121162295D01*
X118994999Y-121162295D02*
X118928332Y-121124200D01*
X118928332Y-121124200D02*
X118894999Y-121086104D01*
X118661666Y-120628961D02*
X118394999Y-120628961D01*
X118561666Y-120362295D02*
X118561666Y-121048009D01*
X118561666Y-121048009D02*
X118528333Y-121124200D01*
X118528333Y-121124200D02*
X118461666Y-121162295D01*
X118461666Y-121162295D02*
X118394999Y-121162295D01*
X118161666Y-121086104D02*
X118128333Y-121124200D01*
X118128333Y-121124200D02*
X118161666Y-121162295D01*
X118161666Y-121162295D02*
X118194999Y-121124200D01*
X118194999Y-121124200D02*
X118161666Y-121086104D01*
X118161666Y-121086104D02*
X118161666Y-121162295D01*
X118161666Y-120667057D02*
X118128333Y-120705152D01*
X118128333Y-120705152D02*
X118161666Y-120743247D01*
X118161666Y-120743247D02*
X118194999Y-120705152D01*
X118194999Y-120705152D02*
X118161666Y-120667057D01*
X118161666Y-120667057D02*
X118161666Y-120743247D01*
X117328333Y-120438485D02*
X117295000Y-120400390D01*
X117295000Y-120400390D02*
X117228333Y-120362295D01*
X117228333Y-120362295D02*
X117061667Y-120362295D01*
X117061667Y-120362295D02*
X116995000Y-120400390D01*
X116995000Y-120400390D02*
X116961667Y-120438485D01*
X116961667Y-120438485D02*
X116928333Y-120514676D01*
X116928333Y-120514676D02*
X116928333Y-120590866D01*
X116928333Y-120590866D02*
X116961667Y-120705152D01*
X116961667Y-120705152D02*
X117361667Y-121162295D01*
X117361667Y-121162295D02*
X116928333Y-121162295D01*
X116295000Y-120362295D02*
X116628333Y-120362295D01*
X116628333Y-120362295D02*
X116661666Y-120743247D01*
X116661666Y-120743247D02*
X116628333Y-120705152D01*
X116628333Y-120705152D02*
X116561666Y-120667057D01*
X116561666Y-120667057D02*
X116395000Y-120667057D01*
X116395000Y-120667057D02*
X116328333Y-120705152D01*
X116328333Y-120705152D02*
X116295000Y-120743247D01*
X116295000Y-120743247D02*
X116261666Y-120819438D01*
X116261666Y-120819438D02*
X116261666Y-121009914D01*
X116261666Y-121009914D02*
X116295000Y-121086104D01*
X116295000Y-121086104D02*
X116328333Y-121124200D01*
X116328333Y-121124200D02*
X116395000Y-121162295D01*
X116395000Y-121162295D02*
X116561666Y-121162295D01*
X116561666Y-121162295D02*
X116628333Y-121124200D01*
X116628333Y-121124200D02*
X116661666Y-121086104D01*
X115828333Y-120362295D02*
X115761666Y-120362295D01*
X115761666Y-120362295D02*
X115694999Y-120400390D01*
X115694999Y-120400390D02*
X115661666Y-120438485D01*
X115661666Y-120438485D02*
X115628333Y-120514676D01*
X115628333Y-120514676D02*
X115594999Y-120667057D01*
X115594999Y-120667057D02*
X115594999Y-120857533D01*
X115594999Y-120857533D02*
X115628333Y-121009914D01*
X115628333Y-121009914D02*
X115661666Y-121086104D01*
X115661666Y-121086104D02*
X115694999Y-121124200D01*
X115694999Y-121124200D02*
X115761666Y-121162295D01*
X115761666Y-121162295D02*
X115828333Y-121162295D01*
X115828333Y-121162295D02*
X115894999Y-121124200D01*
X115894999Y-121124200D02*
X115928333Y-121086104D01*
X115928333Y-121086104D02*
X115961666Y-121009914D01*
X115961666Y-121009914D02*
X115994999Y-120857533D01*
X115994999Y-120857533D02*
X115994999Y-120667057D01*
X115994999Y-120667057D02*
X115961666Y-120514676D01*
X115961666Y-120514676D02*
X115928333Y-120438485D01*
X115928333Y-120438485D02*
X115894999Y-120400390D01*
X115894999Y-120400390D02*
X115828333Y-120362295D01*
X114761666Y-121162295D02*
X114761666Y-120628961D01*
X114761666Y-120705152D02*
X114728333Y-120667057D01*
X114728333Y-120667057D02*
X114661666Y-120628961D01*
X114661666Y-120628961D02*
X114561666Y-120628961D01*
X114561666Y-120628961D02*
X114494999Y-120667057D01*
X114494999Y-120667057D02*
X114461666Y-120743247D01*
X114461666Y-120743247D02*
X114461666Y-121162295D01*
X114461666Y-120743247D02*
X114428333Y-120667057D01*
X114428333Y-120667057D02*
X114361666Y-120628961D01*
X114361666Y-120628961D02*
X114261666Y-120628961D01*
X114261666Y-120628961D02*
X114194999Y-120667057D01*
X114194999Y-120667057D02*
X114161666Y-120743247D01*
X114161666Y-120743247D02*
X114161666Y-121162295D01*
X113861666Y-120933723D02*
X113528333Y-120933723D01*
X113928333Y-121162295D02*
X113695000Y-120362295D01*
X113695000Y-120362295D02*
X113461666Y-121162295D01*
X112695000Y-121162295D02*
X112695000Y-120628961D01*
X112695000Y-120705152D02*
X112661667Y-120667057D01*
X112661667Y-120667057D02*
X112595000Y-120628961D01*
X112595000Y-120628961D02*
X112495000Y-120628961D01*
X112495000Y-120628961D02*
X112428333Y-120667057D01*
X112428333Y-120667057D02*
X112395000Y-120743247D01*
X112395000Y-120743247D02*
X112395000Y-121162295D01*
X112395000Y-120743247D02*
X112361667Y-120667057D01*
X112361667Y-120667057D02*
X112295000Y-120628961D01*
X112295000Y-120628961D02*
X112195000Y-120628961D01*
X112195000Y-120628961D02*
X112128333Y-120667057D01*
X112128333Y-120667057D02*
X112095000Y-120743247D01*
X112095000Y-120743247D02*
X112095000Y-121162295D01*
X111461667Y-121162295D02*
X111461667Y-120743247D01*
X111461667Y-120743247D02*
X111495000Y-120667057D01*
X111495000Y-120667057D02*
X111561667Y-120628961D01*
X111561667Y-120628961D02*
X111695000Y-120628961D01*
X111695000Y-120628961D02*
X111761667Y-120667057D01*
X111461667Y-121124200D02*
X111528334Y-121162295D01*
X111528334Y-121162295D02*
X111695000Y-121162295D01*
X111695000Y-121162295D02*
X111761667Y-121124200D01*
X111761667Y-121124200D02*
X111795000Y-121048009D01*
X111795000Y-121048009D02*
X111795000Y-120971819D01*
X111795000Y-120971819D02*
X111761667Y-120895628D01*
X111761667Y-120895628D02*
X111695000Y-120857533D01*
X111695000Y-120857533D02*
X111528334Y-120857533D01*
X111528334Y-120857533D02*
X111461667Y-120819438D01*
X111195001Y-121162295D02*
X110828334Y-120628961D01*
X111195001Y-120628961D02*
X110828334Y-121162295D01*
X122478334Y-122412295D02*
X122478334Y-121612295D01*
X122145001Y-122412295D02*
X122145001Y-121612295D01*
X122145001Y-121612295D02*
X121911668Y-122183723D01*
X121911668Y-122183723D02*
X121678334Y-121612295D01*
X121678334Y-121612295D02*
X121678334Y-122412295D01*
X121345001Y-121612295D02*
X121345001Y-122259914D01*
X121345001Y-122259914D02*
X121311668Y-122336104D01*
X121311668Y-122336104D02*
X121278334Y-122374200D01*
X121278334Y-122374200D02*
X121211668Y-122412295D01*
X121211668Y-122412295D02*
X121078334Y-122412295D01*
X121078334Y-122412295D02*
X121011668Y-122374200D01*
X121011668Y-122374200D02*
X120978334Y-122336104D01*
X120978334Y-122336104D02*
X120945001Y-122259914D01*
X120945001Y-122259914D02*
X120945001Y-121612295D01*
X119745002Y-122412295D02*
X120078335Y-122412295D01*
X120078335Y-122412295D02*
X120078335Y-121612295D01*
X119545001Y-122374200D02*
X119445001Y-122412295D01*
X119445001Y-122412295D02*
X119278335Y-122412295D01*
X119278335Y-122412295D02*
X119211668Y-122374200D01*
X119211668Y-122374200D02*
X119178335Y-122336104D01*
X119178335Y-122336104D02*
X119145001Y-122259914D01*
X119145001Y-122259914D02*
X119145001Y-122183723D01*
X119145001Y-122183723D02*
X119178335Y-122107533D01*
X119178335Y-122107533D02*
X119211668Y-122069438D01*
X119211668Y-122069438D02*
X119278335Y-122031342D01*
X119278335Y-122031342D02*
X119411668Y-121993247D01*
X119411668Y-121993247D02*
X119478335Y-121955152D01*
X119478335Y-121955152D02*
X119511668Y-121917057D01*
X119511668Y-121917057D02*
X119545001Y-121840866D01*
X119545001Y-121840866D02*
X119545001Y-121764676D01*
X119545001Y-121764676D02*
X119511668Y-121688485D01*
X119511668Y-121688485D02*
X119478335Y-121650390D01*
X119478335Y-121650390D02*
X119411668Y-121612295D01*
X119411668Y-121612295D02*
X119245001Y-121612295D01*
X119245001Y-121612295D02*
X119145001Y-121650390D01*
X118845001Y-122412295D02*
X118845001Y-121612295D01*
X118845001Y-121612295D02*
X118611668Y-122183723D01*
X118611668Y-122183723D02*
X118378334Y-121612295D01*
X118378334Y-121612295D02*
X118378334Y-122412295D01*
X117745001Y-121612295D02*
X117878334Y-121612295D01*
X117878334Y-121612295D02*
X117945001Y-121650390D01*
X117945001Y-121650390D02*
X117978334Y-121688485D01*
X117978334Y-121688485D02*
X118045001Y-121802771D01*
X118045001Y-121802771D02*
X118078334Y-121955152D01*
X118078334Y-121955152D02*
X118078334Y-122259914D01*
X118078334Y-122259914D02*
X118045001Y-122336104D01*
X118045001Y-122336104D02*
X118011668Y-122374200D01*
X118011668Y-122374200D02*
X117945001Y-122412295D01*
X117945001Y-122412295D02*
X117811668Y-122412295D01*
X117811668Y-122412295D02*
X117745001Y-122374200D01*
X117745001Y-122374200D02*
X117711668Y-122336104D01*
X117711668Y-122336104D02*
X117678334Y-122259914D01*
X117678334Y-122259914D02*
X117678334Y-122069438D01*
X117678334Y-122069438D02*
X117711668Y-121993247D01*
X117711668Y-121993247D02*
X117745001Y-121955152D01*
X117745001Y-121955152D02*
X117811668Y-121917057D01*
X117811668Y-121917057D02*
X117945001Y-121917057D01*
X117945001Y-121917057D02*
X118011668Y-121955152D01*
X118011668Y-121955152D02*
X118045001Y-121993247D01*
X118045001Y-121993247D02*
X118078334Y-122069438D01*
X117378334Y-122412295D02*
X117378334Y-121612295D01*
X117378334Y-121612295D02*
X117211667Y-121612295D01*
X117211667Y-121612295D02*
X117111667Y-121650390D01*
X117111667Y-121650390D02*
X117045001Y-121726580D01*
X117045001Y-121726580D02*
X117011667Y-121802771D01*
X117011667Y-121802771D02*
X116978334Y-121955152D01*
X116978334Y-121955152D02*
X116978334Y-122069438D01*
X116978334Y-122069438D02*
X117011667Y-122221819D01*
X117011667Y-122221819D02*
X117045001Y-122298009D01*
X117045001Y-122298009D02*
X117111667Y-122374200D01*
X117111667Y-122374200D02*
X117211667Y-122412295D01*
X117211667Y-122412295D02*
X117378334Y-122412295D01*
X116711667Y-122374200D02*
X116611667Y-122412295D01*
X116611667Y-122412295D02*
X116445001Y-122412295D01*
X116445001Y-122412295D02*
X116378334Y-122374200D01*
X116378334Y-122374200D02*
X116345001Y-122336104D01*
X116345001Y-122336104D02*
X116311667Y-122259914D01*
X116311667Y-122259914D02*
X116311667Y-122183723D01*
X116311667Y-122183723D02*
X116345001Y-122107533D01*
X116345001Y-122107533D02*
X116378334Y-122069438D01*
X116378334Y-122069438D02*
X116445001Y-122031342D01*
X116445001Y-122031342D02*
X116578334Y-121993247D01*
X116578334Y-121993247D02*
X116645001Y-121955152D01*
X116645001Y-121955152D02*
X116678334Y-121917057D01*
X116678334Y-121917057D02*
X116711667Y-121840866D01*
X116711667Y-121840866D02*
X116711667Y-121764676D01*
X116711667Y-121764676D02*
X116678334Y-121688485D01*
X116678334Y-121688485D02*
X116645001Y-121650390D01*
X116645001Y-121650390D02*
X116578334Y-121612295D01*
X116578334Y-121612295D02*
X116411667Y-121612295D01*
X116411667Y-121612295D02*
X116311667Y-121650390D01*
X116111667Y-121612295D02*
X115878334Y-122412295D01*
X115878334Y-122412295D02*
X115645000Y-121612295D01*
X115045000Y-122412295D02*
X115445000Y-122412295D01*
X115245000Y-122412295D02*
X115245000Y-121612295D01*
X115245000Y-121612295D02*
X115311667Y-121726580D01*
X115311667Y-121726580D02*
X115378334Y-121802771D01*
X115378334Y-121802771D02*
X115445000Y-121840866D01*
X114445000Y-121612295D02*
X114578333Y-121612295D01*
X114578333Y-121612295D02*
X114645000Y-121650390D01*
X114645000Y-121650390D02*
X114678333Y-121688485D01*
X114678333Y-121688485D02*
X114745000Y-121802771D01*
X114745000Y-121802771D02*
X114778333Y-121955152D01*
X114778333Y-121955152D02*
X114778333Y-122259914D01*
X114778333Y-122259914D02*
X114745000Y-122336104D01*
X114745000Y-122336104D02*
X114711667Y-122374200D01*
X114711667Y-122374200D02*
X114645000Y-122412295D01*
X114645000Y-122412295D02*
X114511667Y-122412295D01*
X114511667Y-122412295D02*
X114445000Y-122374200D01*
X114445000Y-122374200D02*
X114411667Y-122336104D01*
X114411667Y-122336104D02*
X114378333Y-122259914D01*
X114378333Y-122259914D02*
X114378333Y-122069438D01*
X114378333Y-122069438D02*
X114411667Y-121993247D01*
X114411667Y-121993247D02*
X114445000Y-121955152D01*
X114445000Y-121955152D02*
X114511667Y-121917057D01*
X114511667Y-121917057D02*
X114645000Y-121917057D01*
X114645000Y-121917057D02*
X114711667Y-121955152D01*
X114711667Y-121955152D02*
X114745000Y-121993247D01*
X114745000Y-121993247D02*
X114778333Y-122069438D01*
X114145000Y-121612295D02*
X113678333Y-122412295D01*
X113678333Y-121612295D02*
X114145000Y-122412295D01*
X112745000Y-121612295D02*
X112678333Y-121612295D01*
X112678333Y-121612295D02*
X112611666Y-121650390D01*
X112611666Y-121650390D02*
X112578333Y-121688485D01*
X112578333Y-121688485D02*
X112545000Y-121764676D01*
X112545000Y-121764676D02*
X112511666Y-121917057D01*
X112511666Y-121917057D02*
X112511666Y-122107533D01*
X112511666Y-122107533D02*
X112545000Y-122259914D01*
X112545000Y-122259914D02*
X112578333Y-122336104D01*
X112578333Y-122336104D02*
X112611666Y-122374200D01*
X112611666Y-122374200D02*
X112678333Y-122412295D01*
X112678333Y-122412295D02*
X112745000Y-122412295D01*
X112745000Y-122412295D02*
X112811666Y-122374200D01*
X112811666Y-122374200D02*
X112845000Y-122336104D01*
X112845000Y-122336104D02*
X112878333Y-122259914D01*
X112878333Y-122259914D02*
X112911666Y-122107533D01*
X112911666Y-122107533D02*
X112911666Y-121917057D01*
X112911666Y-121917057D02*
X112878333Y-121764676D01*
X112878333Y-121764676D02*
X112845000Y-121688485D01*
X112845000Y-121688485D02*
X112811666Y-121650390D01*
X112811666Y-121650390D02*
X112745000Y-121612295D01*
X112278333Y-122412295D02*
X111911666Y-121878961D01*
X112278333Y-121878961D02*
X111911666Y-122412295D01*
X111344999Y-121612295D02*
X111478332Y-121612295D01*
X111478332Y-121612295D02*
X111544999Y-121650390D01*
X111544999Y-121650390D02*
X111578332Y-121688485D01*
X111578332Y-121688485D02*
X111644999Y-121802771D01*
X111644999Y-121802771D02*
X111678332Y-121955152D01*
X111678332Y-121955152D02*
X111678332Y-122259914D01*
X111678332Y-122259914D02*
X111644999Y-122336104D01*
X111644999Y-122336104D02*
X111611666Y-122374200D01*
X111611666Y-122374200D02*
X111544999Y-122412295D01*
X111544999Y-122412295D02*
X111411666Y-122412295D01*
X111411666Y-122412295D02*
X111344999Y-122374200D01*
X111344999Y-122374200D02*
X111311666Y-122336104D01*
X111311666Y-122336104D02*
X111278332Y-122259914D01*
X111278332Y-122259914D02*
X111278332Y-122069438D01*
X111278332Y-122069438D02*
X111311666Y-121993247D01*
X111311666Y-121993247D02*
X111344999Y-121955152D01*
X111344999Y-121955152D02*
X111411666Y-121917057D01*
X111411666Y-121917057D02*
X111544999Y-121917057D01*
X111544999Y-121917057D02*
X111611666Y-121955152D01*
X111611666Y-121955152D02*
X111644999Y-121993247D01*
X111644999Y-121993247D02*
X111678332Y-122069438D01*
X111011665Y-122183723D02*
X110678332Y-122183723D01*
X111078332Y-122412295D02*
X110844999Y-121612295D01*
X110844999Y-121612295D02*
X110611665Y-122412295D01*
X122078332Y-123662295D02*
X122078332Y-122862295D01*
X121778332Y-122938485D02*
X121744999Y-122900390D01*
X121744999Y-122900390D02*
X121678332Y-122862295D01*
X121678332Y-122862295D02*
X121511666Y-122862295D01*
X121511666Y-122862295D02*
X121444999Y-122900390D01*
X121444999Y-122900390D02*
X121411666Y-122938485D01*
X121411666Y-122938485D02*
X121378332Y-123014676D01*
X121378332Y-123014676D02*
X121378332Y-123090866D01*
X121378332Y-123090866D02*
X121411666Y-123205152D01*
X121411666Y-123205152D02*
X121811666Y-123662295D01*
X121811666Y-123662295D02*
X121378332Y-123662295D01*
X120678332Y-123586104D02*
X120711665Y-123624200D01*
X120711665Y-123624200D02*
X120811665Y-123662295D01*
X120811665Y-123662295D02*
X120878332Y-123662295D01*
X120878332Y-123662295D02*
X120978332Y-123624200D01*
X120978332Y-123624200D02*
X121044999Y-123548009D01*
X121044999Y-123548009D02*
X121078332Y-123471819D01*
X121078332Y-123471819D02*
X121111665Y-123319438D01*
X121111665Y-123319438D02*
X121111665Y-123205152D01*
X121111665Y-123205152D02*
X121078332Y-123052771D01*
X121078332Y-123052771D02*
X121044999Y-122976580D01*
X121044999Y-122976580D02*
X120978332Y-122900390D01*
X120978332Y-122900390D02*
X120878332Y-122862295D01*
X120878332Y-122862295D02*
X120811665Y-122862295D01*
X120811665Y-122862295D02*
X120711665Y-122900390D01*
X120711665Y-122900390D02*
X120678332Y-122938485D01*
X120011665Y-123662295D02*
X120411665Y-123662295D01*
X120211665Y-123662295D02*
X120211665Y-122862295D01*
X120211665Y-122862295D02*
X120278332Y-122976580D01*
X120278332Y-122976580D02*
X120344999Y-123052771D01*
X120344999Y-123052771D02*
X120411665Y-123090866D01*
X118944999Y-123243247D02*
X118844999Y-123281342D01*
X118844999Y-123281342D02*
X118811665Y-123319438D01*
X118811665Y-123319438D02*
X118778332Y-123395628D01*
X118778332Y-123395628D02*
X118778332Y-123509914D01*
X118778332Y-123509914D02*
X118811665Y-123586104D01*
X118811665Y-123586104D02*
X118844999Y-123624200D01*
X118844999Y-123624200D02*
X118911665Y-123662295D01*
X118911665Y-123662295D02*
X119178332Y-123662295D01*
X119178332Y-123662295D02*
X119178332Y-122862295D01*
X119178332Y-122862295D02*
X118944999Y-122862295D01*
X118944999Y-122862295D02*
X118878332Y-122900390D01*
X118878332Y-122900390D02*
X118844999Y-122938485D01*
X118844999Y-122938485D02*
X118811665Y-123014676D01*
X118811665Y-123014676D02*
X118811665Y-123090866D01*
X118811665Y-123090866D02*
X118844999Y-123167057D01*
X118844999Y-123167057D02*
X118878332Y-123205152D01*
X118878332Y-123205152D02*
X118944999Y-123243247D01*
X118944999Y-123243247D02*
X119178332Y-123243247D01*
X118178332Y-122862295D02*
X118311665Y-122862295D01*
X118311665Y-122862295D02*
X118378332Y-122900390D01*
X118378332Y-122900390D02*
X118411665Y-122938485D01*
X118411665Y-122938485D02*
X118478332Y-123052771D01*
X118478332Y-123052771D02*
X118511665Y-123205152D01*
X118511665Y-123205152D02*
X118511665Y-123509914D01*
X118511665Y-123509914D02*
X118478332Y-123586104D01*
X118478332Y-123586104D02*
X118444999Y-123624200D01*
X118444999Y-123624200D02*
X118378332Y-123662295D01*
X118378332Y-123662295D02*
X118244999Y-123662295D01*
X118244999Y-123662295D02*
X118178332Y-123624200D01*
X118178332Y-123624200D02*
X118144999Y-123586104D01*
X118144999Y-123586104D02*
X118111665Y-123509914D01*
X118111665Y-123509914D02*
X118111665Y-123319438D01*
X118111665Y-123319438D02*
X118144999Y-123243247D01*
X118144999Y-123243247D02*
X118178332Y-123205152D01*
X118178332Y-123205152D02*
X118244999Y-123167057D01*
X118244999Y-123167057D02*
X118378332Y-123167057D01*
X118378332Y-123167057D02*
X118444999Y-123205152D01*
X118444999Y-123205152D02*
X118478332Y-123243247D01*
X118478332Y-123243247D02*
X118511665Y-123319438D01*
X117311665Y-122824200D02*
X117911665Y-123852771D01*
X116844999Y-123243247D02*
X116744999Y-123281342D01*
X116744999Y-123281342D02*
X116711665Y-123319438D01*
X116711665Y-123319438D02*
X116678332Y-123395628D01*
X116678332Y-123395628D02*
X116678332Y-123509914D01*
X116678332Y-123509914D02*
X116711665Y-123586104D01*
X116711665Y-123586104D02*
X116744999Y-123624200D01*
X116744999Y-123624200D02*
X116811665Y-123662295D01*
X116811665Y-123662295D02*
X117078332Y-123662295D01*
X117078332Y-123662295D02*
X117078332Y-122862295D01*
X117078332Y-122862295D02*
X116844999Y-122862295D01*
X116844999Y-122862295D02*
X116778332Y-122900390D01*
X116778332Y-122900390D02*
X116744999Y-122938485D01*
X116744999Y-122938485D02*
X116711665Y-123014676D01*
X116711665Y-123014676D02*
X116711665Y-123090866D01*
X116711665Y-123090866D02*
X116744999Y-123167057D01*
X116744999Y-123167057D02*
X116778332Y-123205152D01*
X116778332Y-123205152D02*
X116844999Y-123243247D01*
X116844999Y-123243247D02*
X117078332Y-123243247D01*
X116444999Y-122862295D02*
X115978332Y-122862295D01*
X115978332Y-122862295D02*
X116278332Y-123662295D01*
X115678332Y-123624200D02*
X115678332Y-123662295D01*
X115678332Y-123662295D02*
X115711665Y-123738485D01*
X115711665Y-123738485D02*
X115744998Y-123776580D01*
X114844999Y-123662295D02*
X114844999Y-122862295D01*
X114511666Y-123662295D02*
X114511666Y-122862295D01*
X114511666Y-122862295D02*
X114111666Y-123662295D01*
X114111666Y-123662295D02*
X114111666Y-122862295D01*
X113878333Y-122862295D02*
X113478333Y-122862295D01*
X113678333Y-123662295D02*
X113678333Y-122862295D01*
X112878333Y-123662295D02*
X113278333Y-123662295D01*
X113078333Y-123662295D02*
X113078333Y-122862295D01*
X113078333Y-122862295D02*
X113145000Y-122976580D01*
X113145000Y-122976580D02*
X113211667Y-123052771D01*
X113211667Y-123052771D02*
X113278333Y-123090866D01*
X112078333Y-123433723D02*
X111745000Y-123433723D01*
X112145000Y-123662295D02*
X111911667Y-122862295D01*
X111911667Y-122862295D02*
X111678333Y-123662295D01*
X111311667Y-122862295D02*
X111245000Y-122862295D01*
X111245000Y-122862295D02*
X111178333Y-122900390D01*
X111178333Y-122900390D02*
X111145000Y-122938485D01*
X111145000Y-122938485D02*
X111111667Y-123014676D01*
X111111667Y-123014676D02*
X111078333Y-123167057D01*
X111078333Y-123167057D02*
X111078333Y-123357533D01*
X111078333Y-123357533D02*
X111111667Y-123509914D01*
X111111667Y-123509914D02*
X111145000Y-123586104D01*
X111145000Y-123586104D02*
X111178333Y-123624200D01*
X111178333Y-123624200D02*
X111245000Y-123662295D01*
X111245000Y-123662295D02*
X111311667Y-123662295D01*
X111311667Y-123662295D02*
X111378333Y-123624200D01*
X111378333Y-123624200D02*
X111411667Y-123586104D01*
X111411667Y-123586104D02*
X111445000Y-123509914D01*
X111445000Y-123509914D02*
X111478333Y-123357533D01*
X111478333Y-123357533D02*
X111478333Y-123167057D01*
X111478333Y-123167057D02*
X111445000Y-123014676D01*
X111445000Y-123014676D02*
X111411667Y-122938485D01*
X111411667Y-122938485D02*
X111378333Y-122900390D01*
X111378333Y-122900390D02*
X111311667Y-122862295D01*
X120442618Y-127254819D02*
X120442618Y-126254819D01*
X120442618Y-126254819D02*
X119985475Y-127254819D01*
X119985475Y-127254819D02*
X119985475Y-126254819D01*
X119604523Y-127254819D02*
X119604523Y-126588152D01*
X119604523Y-126254819D02*
X119642619Y-126302438D01*
X119642619Y-126302438D02*
X119604523Y-126350057D01*
X119604523Y-126350057D02*
X119566428Y-126302438D01*
X119566428Y-126302438D02*
X119604523Y-126254819D01*
X119604523Y-126254819D02*
X119604523Y-126350057D01*
X118880714Y-127207200D02*
X118956905Y-127254819D01*
X118956905Y-127254819D02*
X119109286Y-127254819D01*
X119109286Y-127254819D02*
X119185476Y-127207200D01*
X119185476Y-127207200D02*
X119223571Y-127159580D01*
X119223571Y-127159580D02*
X119261667Y-127064342D01*
X119261667Y-127064342D02*
X119261667Y-126778628D01*
X119261667Y-126778628D02*
X119223571Y-126683390D01*
X119223571Y-126683390D02*
X119185476Y-126635771D01*
X119185476Y-126635771D02*
X119109286Y-126588152D01*
X119109286Y-126588152D02*
X118956905Y-126588152D01*
X118956905Y-126588152D02*
X118880714Y-126635771D01*
X118537857Y-127254819D02*
X118537857Y-126254819D01*
X118461667Y-126873866D02*
X118233095Y-127254819D01*
X118233095Y-126588152D02*
X118537857Y-126969104D01*
X117509286Y-127254819D02*
X117890238Y-127254819D01*
X117890238Y-127254819D02*
X117890238Y-126254819D01*
X117242619Y-127254819D02*
X117242619Y-126588152D01*
X117242619Y-126254819D02*
X117280715Y-126302438D01*
X117280715Y-126302438D02*
X117242619Y-126350057D01*
X117242619Y-126350057D02*
X117204524Y-126302438D01*
X117204524Y-126302438D02*
X117242619Y-126254819D01*
X117242619Y-126254819D02*
X117242619Y-126350057D01*
X116861667Y-126588152D02*
X116861667Y-127254819D01*
X116861667Y-126683390D02*
X116823572Y-126635771D01*
X116823572Y-126635771D02*
X116747382Y-126588152D01*
X116747382Y-126588152D02*
X116633096Y-126588152D01*
X116633096Y-126588152D02*
X116556905Y-126635771D01*
X116556905Y-126635771D02*
X116518810Y-126731009D01*
X116518810Y-126731009D02*
X116518810Y-127254819D01*
X116137857Y-127254819D02*
X116137857Y-126254819D01*
X116061667Y-126873866D02*
X115833095Y-127254819D01*
X115833095Y-126588152D02*
X116137857Y-126969104D01*
X114956905Y-126588152D02*
X114766429Y-127254819D01*
X114766429Y-127254819D02*
X114575952Y-126588152D01*
X113852143Y-127254819D02*
X114309286Y-127254819D01*
X114080714Y-127254819D02*
X114080714Y-126254819D01*
X114080714Y-126254819D02*
X114156905Y-126397676D01*
X114156905Y-126397676D02*
X114233095Y-126492914D01*
X114233095Y-126492914D02*
X114309286Y-126540533D01*
X113509285Y-127159580D02*
X113471190Y-127207200D01*
X113471190Y-127207200D02*
X113509285Y-127254819D01*
X113509285Y-127254819D02*
X113547381Y-127207200D01*
X113547381Y-127207200D02*
X113509285Y-127159580D01*
X113509285Y-127159580D02*
X113509285Y-127254819D01*
X113204524Y-126254819D02*
X112709286Y-126254819D01*
X112709286Y-126254819D02*
X112975952Y-126635771D01*
X112975952Y-126635771D02*
X112861667Y-126635771D01*
X112861667Y-126635771D02*
X112785476Y-126683390D01*
X112785476Y-126683390D02*
X112747381Y-126731009D01*
X112747381Y-126731009D02*
X112709286Y-126826247D01*
X112709286Y-126826247D02*
X112709286Y-127064342D01*
X112709286Y-127064342D02*
X112747381Y-127159580D01*
X112747381Y-127159580D02*
X112785476Y-127207200D01*
X112785476Y-127207200D02*
X112861667Y-127254819D01*
X112861667Y-127254819D02*
X113090238Y-127254819D01*
X113090238Y-127254819D02*
X113166429Y-127207200D01*
X113166429Y-127207200D02*
X113204524Y-127159580D01*
M02*
