%TF.GenerationSoftware,KiCad,Pcbnew,10.0.6*%
%TF.CreationDate,2026-10-02T02:11:14+00:00*%
%TF.ProjectId,nicklink,6e69636b-6c69-46e6-9b2e-6b696361645f,rev?*%
%TF.SameCoordinates,Original*%
%TF.FileFunction,Copper,L1,Top*%
%TF.FilePolarity,Positive*%
%FSLAX46Y46*%
G04 Gerber Fmt 4.6, Leading zero omitted, Abs format (unit mm)*
G04 Created by KiCad (PCBNEW 10.0.6) date 2026-10-02 02:11:14*
%MOMM*%
%LPD*%
G01*
G04 APERTURE LIST*
G04 Aperture macros list*
%AMRoundRect*
0 Rectangle with rounded corners*
0 $1 Rounding radius*
0 $2 $3 $4 $5 $6 $7 $8 $9 X,Y pos of 4 corners*
0 Add a 4 corners polygon primitive as box body*
4,1,4,$2,$3,$4,$5,$6,$7,$8,$9,$2,$3,0*
0 Add four circle primitives for the rounded corners*
1,1,$1+$1,$2,$3*
1,1,$1+$1,$4,$5*
1,1,$1+$1,$6,$7*
1,1,$1+$1,$8,$9*
0 Add four rect primitives between the rounded corners*
20,1,$1+$1,$2,$3,$4,$5,0*
20,1,$1+$1,$4,$5,$6,$7,0*
20,1,$1+$1,$6,$7,$8,$9,0*
20,1,$1+$1,$8,$9,$2,$3,0*%
G04 Aperture macros list end*
%TA.AperFunction,SMDPad,CuDef*%
%ADD10RoundRect,0.140000X0.170000X-0.140000X0.170000X0.140000X-0.170000X0.140000X-0.170000X-0.140000X0*%
%TD*%
%TA.AperFunction,SMDPad,CuDef*%
%ADD11RoundRect,0.075000X0.075000X-0.662500X0.075000X0.662500X-0.075000X0.662500X-0.075000X-0.662500X0*%
%TD*%
%TA.AperFunction,SMDPad,CuDef*%
%ADD12RoundRect,0.075000X0.662500X-0.075000X0.662500X0.075000X-0.662500X0.075000X-0.662500X-0.075000X0*%
%TD*%
%TA.AperFunction,SMDPad,CuDef*%
%ADD13RoundRect,0.250000X-0.450000X-0.350000X0.450000X-0.350000X0.450000X0.350000X-0.450000X0.350000X0*%
%TD*%
%TA.AperFunction,SMDPad,CuDef*%
%ADD14RoundRect,0.225000X-0.225000X-0.250000X0.225000X-0.250000X0.225000X0.250000X-0.225000X0.250000X0*%
%TD*%
%TA.AperFunction,ComponentPad*%
%ADD15C,0.740000*%
%TD*%
%TA.AperFunction,ComponentPad*%
%ADD16O,0.960000X2.460000*%
%TD*%
%TA.AperFunction,ComponentPad*%
%ADD17O,0.960000X1.760000*%
%TD*%
%TA.AperFunction,SMDPad,CuDef*%
%ADD18RoundRect,0.087500X-0.225000X-0.087500X0.225000X-0.087500X0.225000X0.087500X-0.225000X0.087500X0*%
%TD*%
%TA.AperFunction,SMDPad,CuDef*%
%ADD19RoundRect,0.087500X-0.087500X-0.225000X0.087500X-0.225000X0.087500X0.225000X-0.087500X0.225000X0*%
%TD*%
%TA.AperFunction,SMDPad,CuDef*%
%ADD20RoundRect,0.135000X-0.135000X-0.185000X0.135000X-0.185000X0.135000X0.185000X-0.135000X0.185000X0*%
%TD*%
%TA.AperFunction,SMDPad,CuDef*%
%ADD21RoundRect,0.147500X-0.147500X-0.172500X0.147500X-0.172500X0.147500X0.172500X-0.147500X0.172500X0*%
%TD*%
%TA.AperFunction,SMDPad,CuDef*%
%ADD22RoundRect,0.135000X0.185000X-0.135000X0.185000X0.135000X-0.185000X0.135000X-0.185000X-0.135000X0*%
%TD*%
%TA.AperFunction,SMDPad,CuDef*%
%ADD23RoundRect,0.112500X-0.187500X-0.112500X0.187500X-0.112500X0.187500X0.112500X-0.187500X0.112500X0*%
%TD*%
%TA.AperFunction,SMDPad,CuDef*%
%ADD24RoundRect,0.093750X-0.093750X-0.106250X0.093750X-0.106250X0.093750X0.106250X-0.093750X0.106250X0*%
%TD*%
%TA.AperFunction,ComponentPad*%
%ADD25C,0.660000*%
%TD*%
%TA.AperFunction,HeatsinkPad*%
%ADD26R,1.000000X1.600000*%
%TD*%
%TA.AperFunction,ComponentPad*%
%ADD27R,1.700000X1.700000*%
%TD*%
%TA.AperFunction,ComponentPad*%
%ADD28C,1.700000*%
%TD*%
%TA.AperFunction,SMDPad,CuDef*%
%ADD29R,1.700000X0.900000*%
%TD*%
%TA.AperFunction,SMDPad,CuDef*%
%ADD30RoundRect,0.093750X-0.093750X0.156250X-0.093750X-0.156250X0.093750X-0.156250X0.093750X0.156250X0*%
%TD*%
%TA.AperFunction,SMDPad,CuDef*%
%ADD31RoundRect,0.075000X-0.075000X0.250000X-0.075000X-0.250000X0.075000X-0.250000X0.075000X0.250000X0*%
%TD*%
%TA.AperFunction,SMDPad,CuDef*%
%ADD32RoundRect,0.140000X-0.170000X0.140000X-0.170000X-0.140000X0.170000X-0.140000X0.170000X0.140000X0*%
%TD*%
%TA.AperFunction,SMDPad,CuDef*%
%ADD33RoundRect,0.147500X0.172500X-0.147500X0.172500X0.147500X-0.172500X0.147500X-0.172500X-0.147500X0*%
%TD*%
%TA.AperFunction,SMDPad,CuDef*%
%ADD34RoundRect,0.135000X-0.185000X0.135000X-0.185000X-0.135000X0.185000X-0.135000X0.185000X0.135000X0*%
%TD*%
%TA.AperFunction,ViaPad*%
%ADD35C,0.600000*%
%TD*%
%TA.AperFunction,Conductor*%
%ADD36C,0.300000*%
%TD*%
%TA.AperFunction,Conductor*%
%ADD37C,0.225000*%
%TD*%
%TA.AperFunction,Conductor*%
%ADD38C,0.250000*%
%TD*%
%TA.AperFunction,Conductor*%
%ADD39C,0.187400*%
%TD*%
%TA.AperFunction,Conductor*%
%ADD40C,0.150000*%
%TD*%
%TA.AperFunction,Conductor*%
%ADD41C,0.200000*%
%TD*%
%TA.AperFunction,Conductor*%
%ADD42C,0.112400*%
%TD*%
%TA.AperFunction,Conductor*%
%ADD43C,0.180000*%
%TD*%
G04 APERTURE END LIST*
D10*
%TO.P,C1,1*%
%TO.N,+3.3V*%
X112450000Y-121080000D03*
%TO.P,C1,2*%
%TO.N,GND*%
X112450000Y-120120000D03*
%TD*%
D11*
%TO.P,U1,1*%
%TO.N,+3.3V*%
X113995000Y-120362500D03*
%TO.P,U1,2*%
%TO.N,/PC13*%
X114495000Y-120362500D03*
%TO.P,U1,3*%
%TO.N,/PC14*%
X114995000Y-120362500D03*
%TO.P,U1,4*%
%TO.N,/PC15*%
X115495000Y-120362500D03*
%TO.P,U1,5*%
%TO.N,/HSE_IN*%
X115995000Y-120362500D03*
%TO.P,U1,6*%
%TO.N,/HSE_OUT*%
X116495000Y-120362500D03*
%TO.P,U1,7*%
%TO.N,/NRST*%
X116995000Y-120362500D03*
%TO.P,U1,8*%
%TO.N,GND*%
X117495000Y-120362500D03*
%TO.P,U1,9*%
%TO.N,+3.3VA*%
X117995000Y-120362500D03*
%TO.P,U1,10*%
%TO.N,/PA0*%
X118495000Y-120362500D03*
%TO.P,U1,11*%
%TO.N,/PA1*%
X118995000Y-120362500D03*
%TO.P,U1,12*%
%TO.N,/PA2*%
X119495000Y-120362500D03*
D12*
%TO.P,U1,13*%
%TO.N,/PA3*%
X120907500Y-118950000D03*
%TO.P,U1,14*%
%TO.N,/PA4*%
X120907500Y-118450000D03*
%TO.P,U1,15*%
%TO.N,/PA5*%
X120907500Y-117950000D03*
%TO.P,U1,16*%
%TO.N,/PA6*%
X120907500Y-117450000D03*
%TO.P,U1,17*%
%TO.N,/PA7*%
X120907500Y-116950000D03*
%TO.P,U1,18*%
%TO.N,/PB0*%
X120907500Y-116450000D03*
%TO.P,U1,19*%
%TO.N,/PB1*%
X120907500Y-115950000D03*
%TO.P,U1,20*%
%TO.N,/PB2*%
X120907500Y-115450000D03*
%TO.P,U1,21*%
%TO.N,/PB10*%
X120907500Y-114950000D03*
%TO.P,U1,22*%
%TO.N,/PB11*%
X120907500Y-114450000D03*
%TO.P,U1,23*%
%TO.N,GND*%
X120907500Y-113950000D03*
%TO.P,U1,24*%
%TO.N,+3.3V*%
X120907500Y-113450000D03*
D11*
%TO.P,U1,25*%
%TO.N,/PB12*%
X119495000Y-112037500D03*
%TO.P,U1,26*%
%TO.N,/PB13*%
X118995000Y-112037500D03*
%TO.P,U1,27*%
%TO.N,/PB14*%
X118495000Y-112037500D03*
%TO.P,U1,28*%
%TO.N,/PB15*%
X117995000Y-112037500D03*
%TO.P,U1,29*%
%TO.N,/PA8*%
X117495000Y-112037500D03*
%TO.P,U1,30*%
%TO.N,/PA9*%
X116995000Y-112037500D03*
%TO.P,U1,31*%
%TO.N,/PA10*%
X116495000Y-112037500D03*
%TO.P,U1,32*%
%TO.N,/USB_D-*%
X115995000Y-112037500D03*
%TO.P,U1,33*%
%TO.N,/USB_D+*%
X115495000Y-112037500D03*
%TO.P,U1,34*%
%TO.N,/PA13*%
X114995000Y-112037500D03*
%TO.P,U1,35*%
%TO.N,GND*%
X114495000Y-112037500D03*
%TO.P,U1,36*%
%TO.N,+3.3V*%
X113995000Y-112037500D03*
D12*
%TO.P,U1,37*%
%TO.N,/PA14*%
X112582500Y-113450000D03*
%TO.P,U1,38*%
%TO.N,/PA15*%
X112582500Y-113950000D03*
%TO.P,U1,39*%
%TO.N,/PB3*%
X112582500Y-114450000D03*
%TO.P,U1,40*%
%TO.N,/PB4*%
X112582500Y-114950000D03*
%TO.P,U1,41*%
%TO.N,/PB5*%
X112582500Y-115450000D03*
%TO.P,U1,42*%
%TO.N,/PB6*%
X112582500Y-115950000D03*
%TO.P,U1,43*%
%TO.N,/PB7*%
X112582500Y-116450000D03*
%TO.P,U1,44*%
%TO.N,/BOOT0*%
X112582500Y-116950000D03*
%TO.P,U1,45*%
%TO.N,/PB8*%
X112582500Y-117450000D03*
%TO.P,U1,46*%
%TO.N,/PB9*%
X112582500Y-117950000D03*
%TO.P,U1,47*%
%TO.N,GND*%
X112582500Y-118450000D03*
%TO.P,U1,48*%
%TO.N,+3.3V*%
X112582500Y-118950000D03*
%TD*%
D13*
%TO.P,Y1,1*%
%TO.N,/HSE_IN*%
X114145000Y-124050000D03*
%TO.P,Y1,2*%
%TO.N,GND*%
X116345000Y-124050000D03*
%TO.P,Y1,3*%
%TO.N,/HSE_OUT*%
X116345000Y-122350000D03*
%TO.P,Y1,4*%
%TO.N,GND*%
X114145000Y-122350000D03*
%TD*%
D14*
%TO.P,C5,1*%
%TO.N,+3.3V*%
X109105000Y-106750000D03*
%TO.P,C5,2*%
%TO.N,GND*%
X110655000Y-106750000D03*
%TD*%
D15*
%TO.P,J2,A1*%
%TO.N,GND*%
X119970000Y-106625000D03*
%TO.P,J2,A4*%
%TO.N,VBUS*%
X119120000Y-106625000D03*
%TO.P,J2,A5*%
%TO.N,/USB_CC1*%
X118270000Y-106625000D03*
%TO.P,J2,A6*%
%TO.N,/USB_D+*%
X117420000Y-106625000D03*
%TO.P,J2,A7*%
%TO.N,/USB_D-*%
X116570000Y-106625000D03*
%TO.P,J2,A8*%
%TO.N,unconnected-(J2-SBU1-PadA8)*%
X115720000Y-106625000D03*
%TO.P,J2,A9*%
%TO.N,VBUS*%
X114870000Y-106625000D03*
%TO.P,J2,A12*%
%TO.N,GND*%
X114020000Y-106625000D03*
%TO.P,J2,B1*%
X114020000Y-105275000D03*
%TO.P,J2,B4*%
%TO.N,VBUS*%
X114870000Y-105275000D03*
%TO.P,J2,B5*%
%TO.N,/USB_CC2*%
X115720000Y-105275000D03*
%TO.P,J2,B6*%
%TO.N,/USB_D+*%
X116570000Y-105275000D03*
%TO.P,J2,B7*%
%TO.N,/USB_D-*%
X117420000Y-105275000D03*
%TO.P,J2,B8*%
%TO.N,unconnected-(J2-SBU2-PadB8)*%
X118270000Y-105275000D03*
%TO.P,J2,B9*%
%TO.N,VBUS*%
X119120000Y-105275000D03*
%TO.P,J2,B12*%
%TO.N,GND*%
X119970000Y-105275000D03*
D16*
%TO.P,J2,SH*%
X121320000Y-105645000D03*
D17*
X121320000Y-102265000D03*
D16*
X112670000Y-105645000D03*
D17*
X112670000Y-102265000D03*
%TD*%
D18*
%TO.P,U4,1*%
%TO.N,GND*%
X123037500Y-116960000D03*
%TO.P,U4,2*%
X123037500Y-117460000D03*
%TO.P,U4,3*%
X123037500Y-117960000D03*
%TO.P,U4,4*%
%TO.N,/IMU_INT1*%
X123037500Y-118460000D03*
D19*
%TO.P,U4,5*%
%TO.N,+3.3V*%
X123700000Y-118622500D03*
%TO.P,U4,6*%
%TO.N,GND*%
X124200000Y-118622500D03*
%TO.P,U4,7*%
X124700000Y-118622500D03*
D18*
%TO.P,U4,8*%
%TO.N,+3.3V*%
X125362500Y-118460000D03*
%TO.P,U4,9*%
%TO.N,unconnected-(U4-INT2-Pad9)*%
X125362500Y-117960000D03*
%TO.P,U4,10*%
%TO.N,+3.3V*%
X125362500Y-117460000D03*
%TO.P,U4,11*%
X125362500Y-116960000D03*
D19*
%TO.P,U4,12*%
X124700000Y-116797500D03*
%TO.P,U4,13*%
%TO.N,/PB6*%
X124200000Y-116797500D03*
%TO.P,U4,14*%
%TO.N,/PB7*%
X123700000Y-116797500D03*
%TD*%
D20*
%TO.P,R2,1*%
%TO.N,+3.3V*%
X113132000Y-109667000D03*
%TO.P,R2,2*%
%TO.N,/USB_D+*%
X114152000Y-109667000D03*
%TD*%
D10*
%TO.P,C4,1*%
%TO.N,+3.3V*%
X110730000Y-119430000D03*
%TO.P,C4,2*%
%TO.N,GND*%
X110730000Y-118470000D03*
%TD*%
D20*
%TO.P,R5,1*%
%TO.N,GND*%
X113275000Y-108622000D03*
%TO.P,R5,2*%
%TO.N,/USB_CC2*%
X114295000Y-108622000D03*
%TD*%
%TO.P,R3,1*%
%TO.N,GND*%
X108600000Y-105170000D03*
%TO.P,R3,2*%
%TO.N,/PWR_LED_K*%
X109620000Y-105170000D03*
%TD*%
D21*
%TO.P,D3,1*%
%TO.N,/USER_LED_K*%
X111008000Y-109620000D03*
%TO.P,D3,2*%
%TO.N,+3.3V*%
X111978000Y-109620000D03*
%TD*%
D20*
%TO.P,R9,1*%
%TO.N,+3.3V*%
X108660000Y-120141000D03*
%TO.P,R9,2*%
%TO.N,/PB7*%
X109680000Y-120141000D03*
%TD*%
D22*
%TO.P,R1,1*%
%TO.N,/BOOT0*%
X109280000Y-117910000D03*
%TO.P,R1,2*%
%TO.N,GND*%
X109280000Y-116890000D03*
%TD*%
D23*
%TO.P,D2,1*%
%TO.N,+5V*%
X123000000Y-105100000D03*
%TO.P,D2,2*%
%TO.N,VBUS*%
X125100000Y-105100000D03*
%TD*%
D24*
%TO.P,U2,1*%
%TO.N,+3.3V*%
X120207500Y-108650000D03*
%TO.P,U2,2*%
%TO.N,unconnected-(U2-NC-Pad2)*%
X120207500Y-109300000D03*
%TO.P,U2,3*%
%TO.N,GND*%
X120207500Y-109950000D03*
%TO.P,U2,4*%
%TO.N,+5V*%
X121982500Y-109950000D03*
%TO.P,U2,5*%
%TO.N,unconnected-(U2-NC-Pad5)*%
X121982500Y-109300000D03*
%TO.P,U2,6*%
%TO.N,+5V*%
X121982500Y-108650000D03*
D25*
%TO.P,U2,7*%
%TO.N,GND*%
X121095000Y-108700000D03*
D26*
X121095000Y-109300000D03*
D25*
X121095000Y-109900000D03*
%TD*%
D21*
%TO.P,D1,1*%
%TO.N,/PWR_LED_K*%
X110870000Y-108163000D03*
%TO.P,D1,2*%
%TO.N,+3.3V*%
X111840000Y-108163000D03*
%TD*%
D10*
%TO.P,C3,1*%
%TO.N,+3.3V*%
X112042000Y-111954000D03*
%TO.P,C3,2*%
%TO.N,GND*%
X112042000Y-110994000D03*
%TD*%
%TO.P,C9,1*%
%TO.N,/NRST*%
X121245000Y-123080000D03*
%TO.P,C9,2*%
%TO.N,GND*%
X121245000Y-122120000D03*
%TD*%
D27*
%TO.P,J3,1*%
%TO.N,+3.3V*%
X102670000Y-101320000D03*
D28*
%TO.P,J3,2*%
%TO.N,GND*%
X105210000Y-101320000D03*
%TO.P,J3,3*%
%TO.N,/PA9*%
X102670000Y-103860000D03*
%TO.P,J3,4*%
%TO.N,/PA10*%
X105210000Y-103860000D03*
%TO.P,J3,5*%
%TO.N,/PA8*%
X102670000Y-106400000D03*
%TO.P,J3,6*%
%TO.N,/PA15*%
X105210000Y-106400000D03*
%TO.P,J3,7*%
%TO.N,/PA13*%
X102670000Y-108940000D03*
%TO.P,J3,8*%
%TO.N,/PA14*%
X105210000Y-108940000D03*
%TO.P,J3,9*%
%TO.N,/PB3*%
X102670000Y-111480000D03*
%TO.P,J3,10*%
%TO.N,/NRST*%
X105210000Y-111480000D03*
%TO.P,J3,11*%
%TO.N,/PB4*%
X102670000Y-114020000D03*
%TO.P,J3,12*%
%TO.N,/PB5*%
X105210000Y-114020000D03*
%TO.P,J3,13*%
%TO.N,/PB6*%
X102670000Y-116560000D03*
%TO.P,J3,14*%
%TO.N,/PB7*%
X105210000Y-116560000D03*
%TO.P,J3,15*%
%TO.N,/PB8*%
X102670000Y-119100000D03*
%TO.P,J3,16*%
%TO.N,/PB9*%
X105210000Y-119100000D03*
%TO.P,J3,17*%
%TO.N,/PC13*%
X102670000Y-121640000D03*
%TO.P,J3,18*%
%TO.N,/PC14*%
X105210000Y-121640000D03*
%TO.P,J3,19*%
%TO.N,/PC15*%
X102670000Y-124180000D03*
%TO.P,J3,20*%
%TO.N,GND*%
X105210000Y-124180000D03*
%TD*%
D10*
%TO.P,C10,1*%
%TO.N,/HSE_IN*%
X112545000Y-123880000D03*
%TO.P,C10,2*%
%TO.N,GND*%
X112545000Y-122920000D03*
%TD*%
D20*
%TO.P,R6,1*%
%TO.N,/PC13*%
X110513000Y-105198000D03*
%TO.P,R6,2*%
%TO.N,/USER_LED_K*%
X111533000Y-105198000D03*
%TD*%
%TO.P,R4,1*%
%TO.N,GND*%
X124400000Y-110730000D03*
%TO.P,R4,2*%
%TO.N,/USB_CC1*%
X125420000Y-110730000D03*
%TD*%
D14*
%TO.P,C12,1*%
%TO.N,+5V*%
X123325000Y-106900000D03*
%TO.P,C12,2*%
%TO.N,GND*%
X124875000Y-106900000D03*
%TD*%
D27*
%TO.P,J1,1*%
%TO.N,+5V*%
X128780000Y-101320000D03*
D28*
%TO.P,J1,2*%
%TO.N,GND*%
X131320000Y-101320000D03*
%TO.P,J1,3*%
%TO.N,/PB15*%
X128780000Y-103860000D03*
%TO.P,J1,4*%
%TO.N,/PB14*%
X131320000Y-103860000D03*
%TO.P,J1,5*%
%TO.N,/PB13*%
X128780000Y-106400000D03*
%TO.P,J1,6*%
%TO.N,/PB12*%
X131320000Y-106400000D03*
%TO.P,J1,7*%
%TO.N,/PB11*%
X128780000Y-108940000D03*
%TO.P,J1,8*%
%TO.N,/PB10*%
X131320000Y-108940000D03*
%TO.P,J1,9*%
%TO.N,/PB2*%
X128780000Y-111480000D03*
%TO.P,J1,10*%
%TO.N,/PB1*%
X131320000Y-111480000D03*
%TO.P,J1,11*%
%TO.N,/PB0*%
X128780000Y-114020000D03*
%TO.P,J1,12*%
%TO.N,/PA7*%
X131320000Y-114020000D03*
%TO.P,J1,13*%
%TO.N,/PA6*%
X128780000Y-116560000D03*
%TO.P,J1,14*%
%TO.N,/PA5*%
X131320000Y-116560000D03*
%TO.P,J1,15*%
%TO.N,/PA4*%
X128780000Y-119100000D03*
%TO.P,J1,16*%
%TO.N,/PA3*%
X131320000Y-119100000D03*
%TO.P,J1,17*%
%TO.N,/PA2*%
X128780000Y-121640000D03*
%TO.P,J1,18*%
%TO.N,/PA1*%
X131320000Y-121640000D03*
%TO.P,J1,19*%
%TO.N,/PA0*%
X128780000Y-124180000D03*
%TO.P,J1,20*%
%TO.N,+3.3V*%
X131320000Y-124180000D03*
%TD*%
D29*
%TO.P,SW1,1*%
%TO.N,/NRST*%
X124450000Y-115460000D03*
%TO.P,SW1,2*%
%TO.N,GND*%
X124450000Y-112060000D03*
%TD*%
D10*
%TO.P,C7,1*%
%TO.N,+3.3VA*%
X120145000Y-123080000D03*
%TO.P,C7,2*%
%TO.N,GND*%
X120145000Y-122120000D03*
%TD*%
%TO.P,C11,1*%
%TO.N,/HSE_OUT*%
X117945000Y-123680000D03*
%TO.P,C11,2*%
%TO.N,GND*%
X117945000Y-122720000D03*
%TD*%
D30*
%TO.P,U3,1*%
%TO.N,/USB_D-*%
X116932500Y-108420000D03*
D31*
%TO.P,U3,2*%
%TO.N,GND*%
X116395000Y-108345000D03*
D30*
%TO.P,U3,3*%
%TO.N,/USB_D+*%
X115857500Y-108420000D03*
%TO.P,U3,4*%
X115857500Y-110120000D03*
D31*
%TO.P,U3,5*%
%TO.N,VBUS*%
X116395000Y-110195000D03*
D30*
%TO.P,U3,6*%
%TO.N,/USB_D-*%
X116932500Y-110120000D03*
%TD*%
D32*
%TO.P,C8,1*%
%TO.N,+3.3V*%
X119263000Y-108730000D03*
%TO.P,C8,2*%
%TO.N,GND*%
X119263000Y-109690000D03*
%TD*%
D10*
%TO.P,C2,1*%
%TO.N,+3.3V*%
X121100000Y-112480000D03*
%TO.P,C2,2*%
%TO.N,GND*%
X121100000Y-111520000D03*
%TD*%
%TO.P,C13,1*%
%TO.N,VBUS*%
X118058000Y-110334000D03*
%TO.P,C13,2*%
%TO.N,GND*%
X118058000Y-109374000D03*
%TD*%
D32*
%TO.P,C15,1*%
%TO.N,+3.3V*%
X124920000Y-119970000D03*
%TO.P,C15,2*%
%TO.N,GND*%
X124920000Y-120930000D03*
%TD*%
D22*
%TO.P,R8,1*%
%TO.N,/PB2*%
X123400000Y-109810000D03*
%TO.P,R8,2*%
%TO.N,GND*%
X123400000Y-108790000D03*
%TD*%
D33*
%TO.P,FB1,1*%
%TO.N,+3.3VA*%
X122620000Y-120935000D03*
%TO.P,FB1,2*%
%TO.N,+3.3V*%
X122620000Y-119965000D03*
%TD*%
D20*
%TO.P,R7,1*%
%TO.N,+3.3V*%
X108566000Y-119069000D03*
%TO.P,R7,2*%
%TO.N,/PB6*%
X109586000Y-119069000D03*
%TD*%
D10*
%TO.P,C6,1*%
%TO.N,+3.3VA*%
X119045000Y-123080000D03*
%TO.P,C6,2*%
%TO.N,GND*%
X119045000Y-122120000D03*
%TD*%
D29*
%TO.P,SW2,1*%
%TO.N,+3.3V*%
X109580000Y-115600000D03*
%TO.P,SW2,2*%
%TO.N,/BOOT0*%
X109580000Y-112200000D03*
%TD*%
D34*
%TO.P,R10,1*%
%TO.N,/IMU_INT1*%
X121250000Y-119890000D03*
%TO.P,R10,2*%
%TO.N,/PA0*%
X121250000Y-120910000D03*
%TD*%
D32*
%TO.P,C14,1*%
%TO.N,+3.3V*%
X123720000Y-119970000D03*
%TO.P,C14,2*%
%TO.N,GND*%
X123720000Y-120930000D03*
%TD*%
D35*
%TO.N,+3.3V*%
X108188600Y-108621000D03*
X111884600Y-119559300D03*
X111098700Y-115378600D03*
X113270000Y-120089700D03*
X118291000Y-108468600D03*
X121886300Y-112948000D03*
X113411600Y-111868400D03*
%TO.N,GND*%
X124450000Y-119250000D03*
X112204999Y-122364999D03*
X117284999Y-100774999D03*
X108394999Y-122364999D03*
X114744999Y-103314999D03*
X108394999Y-100774999D03*
X118554999Y-103314999D03*
X108394999Y-104584999D03*
X125931300Y-120370300D03*
X124904999Y-112204999D03*
X113474999Y-100774999D03*
X116014999Y-100774999D03*
X122364999Y-100774999D03*
X110934999Y-107124999D03*
X114161800Y-110746300D03*
X114744999Y-100774999D03*
X117731100Y-121879200D03*
X114744999Y-122364999D03*
X116014999Y-103314999D03*
X123150000Y-111973200D03*
X122600000Y-116110000D03*
X117284999Y-103314999D03*
X119824999Y-100774999D03*
X119824999Y-103314999D03*
X118554999Y-100774999D03*
X112204999Y-100774999D03*
%TO.N,/PC13*%
X106800700Y-105755700D03*
X114381000Y-116300500D03*
%TO.N,/PC14*%
X115323300Y-118440700D03*
%TO.N,/PC15*%
X115476200Y-119182800D03*
%TO.N,/NRST*%
X116995000Y-119184300D03*
X119868600Y-123802500D03*
X115982900Y-118058900D03*
X122649700Y-122313000D03*
X106865900Y-122160100D03*
X126208600Y-119438200D03*
X127849300Y-119988600D03*
%TO.N,+3.3VA*%
X117995000Y-119167500D03*
X121817900Y-121486600D03*
X118912100Y-123825400D03*
%TO.N,/PA0*%
X120491800Y-120819400D03*
%TO.N,/PA1*%
X118995000Y-119192700D03*
%TO.N,/PA2*%
X119729000Y-119191700D03*
%TO.N,/PA3*%
X122118800Y-118503300D03*
%TO.N,/PA4*%
X119123800Y-118343300D03*
%TO.N,/PA5*%
X118384300Y-118287100D03*
%TO.N,/PA6*%
X122185000Y-117487500D03*
%TO.N,/PA7*%
X118832300Y-116763400D03*
%TO.N,/PB2*%
X126451100Y-114269300D03*
%TO.N,/PB11*%
X119737700Y-114450000D03*
%TO.N,/PB13*%
X119197500Y-113208500D03*
%TO.N,/PB14*%
X118394500Y-113217800D03*
%TO.N,/PB15*%
X117315100Y-113500200D03*
%TO.N,/PA8*%
X113766000Y-114707200D03*
%TO.N,/PA9*%
X114781500Y-113786300D03*
%TO.N,/PA10*%
X113771800Y-113315900D03*
%TO.N,/USB_D-*%
X117159200Y-110816700D03*
%TO.N,/PA14*%
X110905200Y-113492300D03*
%TO.N,/PA15*%
X110353700Y-113975700D03*
%TO.N,/PB3*%
X106573500Y-114466300D03*
%TO.N,/PB5*%
X108240400Y-116309900D03*
%TO.N,/PB6*%
X117641400Y-118281500D03*
X110042900Y-118000900D03*
X125499800Y-116349000D03*
X111082000Y-116628300D03*
%TO.N,/PB7*%
X122885500Y-115310100D03*
X110695400Y-120167500D03*
X113877200Y-118199700D03*
X117568300Y-115790600D03*
%TO.N,/BOOT0*%
X109046800Y-113389900D03*
X108516600Y-117906900D03*
%TO.N,/PB8*%
X110874700Y-117666800D03*
%TO.N,/PB9*%
X113767700Y-117450000D03*
%TO.N,VBUS*%
X118919800Y-110540000D03*
X122833300Y-108155800D03*
%TO.N,/USB_CC1*%
X126103100Y-111308400D03*
X127929500Y-110001800D03*
X126245200Y-105064700D03*
%TO.N,/USB_CC2*%
X115009900Y-108622000D03*
%TO.N,/USER_LED_K*%
X101613300Y-105176800D03*
X111022700Y-104554100D03*
%TD*%
%TO.N,+3.3V*%
D36*
X111846100Y-119559300D02*
X111846100Y-119898000D01*
D37*
X124700000Y-116797500D02*
X124700000Y-116798000D01*
D36*
X110711700Y-115600000D02*
X110933100Y-115378600D01*
D38*
X125363000Y-117460000D02*
X125950000Y-117460000D01*
D36*
X131320000Y-124180000D02*
X130050000Y-122910000D01*
X121100000Y-112948000D02*
X121100000Y-112480000D01*
X125362500Y-118460000D02*
X125363000Y-118460000D01*
X119263000Y-108730000D02*
X120127500Y-108730000D01*
D38*
X124700000Y-116798000D02*
X125363000Y-116960000D01*
D36*
X113270000Y-120362500D02*
X113995000Y-120362500D01*
X113411600Y-111954000D02*
X113411600Y-111868400D01*
X110557400Y-108808300D02*
X109959900Y-108210800D01*
X111194700Y-108808300D02*
X110557400Y-108808300D01*
X128190500Y-120470100D02*
X128090300Y-120570300D01*
X125363000Y-117460000D02*
X125362500Y-117460000D01*
X120127500Y-108730000D02*
X120207500Y-108650000D01*
X103801700Y-106592100D02*
X104741300Y-107531700D01*
X111846100Y-119559300D02*
X111846100Y-119430000D01*
X121100000Y-113257500D02*
X121100000Y-112948000D01*
D38*
X122620000Y-119930000D02*
X125550000Y-119930000D01*
D36*
X126794800Y-119756700D02*
X126794800Y-119201700D01*
X110730000Y-119430000D02*
X111846100Y-119430000D01*
X109580000Y-115600000D02*
X110711700Y-115600000D01*
D38*
X125950000Y-117460000D02*
X125950000Y-118460000D01*
D36*
X111194700Y-108808300D02*
X111840000Y-108163000D01*
D38*
X125363000Y-118460000D02*
X125550000Y-118650000D01*
D36*
X109048500Y-107412400D02*
X109105000Y-107355900D01*
X103801700Y-103371100D02*
X103801700Y-106592100D01*
X125363000Y-116960000D02*
X125362500Y-116960000D01*
X118552400Y-108730000D02*
X118291000Y-108468600D01*
X108929200Y-107531700D02*
X109048500Y-107412400D01*
X113995000Y-112037500D02*
X113911500Y-111954000D01*
X113411600Y-111954000D02*
X112042000Y-111954000D01*
D37*
X109959900Y-108210800D02*
X109846900Y-108210800D01*
D36*
X111194700Y-108808300D02*
X111978000Y-109591600D01*
X109222900Y-107586700D02*
X109048500Y-107412400D01*
D38*
X125363000Y-116960000D02*
X125363000Y-117460000D01*
D36*
X128090300Y-120570300D02*
X127608400Y-120570300D01*
X111846100Y-119559300D02*
X111884600Y-119559300D01*
X104741300Y-107531700D02*
X108929200Y-107531700D01*
X113085000Y-109620000D02*
X113132000Y-109667000D01*
X110933100Y-115378600D02*
X111098700Y-115378600D01*
D38*
X125550000Y-118650000D02*
X125550000Y-119930000D01*
D36*
X112102500Y-119430000D02*
X112582500Y-118950000D01*
X110982700Y-120761400D02*
X109280400Y-120761400D01*
X126794800Y-119201700D02*
X126053100Y-118460000D01*
X111978000Y-109591600D02*
X111978000Y-109620000D01*
X111846100Y-119430000D02*
X112102500Y-119430000D01*
X122620000Y-119965000D02*
X122620000Y-119930000D01*
X109280400Y-120761400D02*
X108660000Y-120141000D01*
X112450000Y-121080000D02*
X113167500Y-120362500D01*
X109222900Y-107586700D02*
X108188600Y-108621000D01*
D38*
X123700000Y-118622000D02*
X123700000Y-119930000D01*
D36*
X126053100Y-118460000D02*
X125950000Y-118460000D01*
X120907500Y-113450000D02*
X121100000Y-113257500D01*
X102882300Y-102451700D02*
X103801700Y-103371100D01*
X129211400Y-120470100D02*
X128190500Y-120470100D01*
X109846900Y-108210800D02*
X109222900Y-107586700D01*
X102670000Y-101320000D02*
X102670000Y-102451700D01*
X119263000Y-108730000D02*
X118552400Y-108730000D01*
X108566000Y-120047000D02*
X108660000Y-120141000D01*
X111846100Y-119898000D02*
X110982700Y-120761400D01*
X113167500Y-120362500D02*
X113270000Y-120362500D01*
X130050000Y-121308700D02*
X129211400Y-120470100D01*
X113911500Y-111954000D02*
X113411600Y-111954000D01*
X130050000Y-122910000D02*
X130050000Y-121308700D01*
D38*
X125950000Y-118460000D02*
X125363000Y-118460000D01*
D36*
X109105000Y-107355900D02*
X109105000Y-106750000D01*
X111978000Y-109620000D02*
X113085000Y-109620000D01*
X121100000Y-112948000D02*
X121886300Y-112948000D01*
X102670000Y-102451700D02*
X102882300Y-102451700D01*
X108566000Y-119069000D02*
X108566000Y-120047000D01*
X127608400Y-120570300D02*
X126794800Y-119756700D01*
X113270000Y-120362500D02*
X113270000Y-120089700D01*
%TO.N,GND*%
D38*
X123343300Y-112060000D02*
X123343300Y-112007200D01*
X107622100Y-110994000D02*
X112042000Y-110994000D01*
X123720000Y-120930000D02*
X124920000Y-120930000D01*
X113486100Y-108157700D02*
X113486100Y-108410900D01*
X107732500Y-122080900D02*
X107732500Y-121844800D01*
X122893700Y-121756300D02*
X122419100Y-121756300D01*
X105210000Y-124180000D02*
X105633400Y-124180000D01*
X114495000Y-112037500D02*
X114495000Y-111327200D01*
X113650000Y-105645000D02*
X114020000Y-105275000D01*
X115902700Y-107688400D02*
X116395000Y-108180700D01*
X116707200Y-124412200D02*
X116345000Y-124050000D01*
X112670000Y-102265000D02*
X112670000Y-103401700D01*
X113560000Y-107165300D02*
X111070300Y-107165300D01*
X123037000Y-117960000D02*
X123037000Y-116960000D01*
X119045000Y-122120000D02*
X120145000Y-122120000D01*
X124450000Y-112060000D02*
X124450000Y-112766700D01*
X101511600Y-113510900D02*
X102282900Y-112739600D01*
X107800500Y-117723300D02*
X107800500Y-121128000D01*
X114020000Y-106705300D02*
X114479300Y-107164500D01*
X119263000Y-109690000D02*
X119523000Y-109950000D01*
X117731100Y-121906100D02*
X117731100Y-121879200D01*
X124200000Y-118622500D02*
X124700000Y-118622500D01*
X109280000Y-116890000D02*
X108633800Y-116890000D01*
X112042000Y-110994000D02*
X114161800Y-110994000D01*
X112582500Y-118450000D02*
X110750000Y-118450000D01*
X117945000Y-122720000D02*
X117945000Y-122120000D01*
X114479300Y-107164500D02*
X115003100Y-107688400D01*
X124450000Y-112766700D02*
X124371200Y-112766700D01*
X124371200Y-112766700D02*
X123282400Y-113855500D01*
X108194100Y-121485200D02*
X108157700Y-121485200D01*
X111149700Y-103401700D02*
X110397700Y-104153700D01*
X120257500Y-109900000D02*
X120207500Y-109950000D01*
X123309300Y-111852500D02*
X121432500Y-111852500D01*
X112582500Y-118450000D02*
X113339600Y-118450000D01*
D39*
X121002000Y-113855500D02*
X120907500Y-113950000D01*
D38*
X112670000Y-103401700D02*
X111149700Y-103401700D01*
X114645000Y-122350000D02*
X116345000Y-124050000D01*
X113588000Y-119175400D02*
X113230400Y-119533000D01*
D39*
X123282400Y-113855500D02*
X121002000Y-113855500D01*
D38*
X119523000Y-109950000D02*
X120207500Y-109950000D01*
X111362700Y-121737700D02*
X112545000Y-122920000D01*
X117731100Y-121879200D02*
X117495000Y-121643100D01*
X125479700Y-120370300D02*
X125931300Y-120370300D01*
X110397700Y-104153700D02*
X108600000Y-104153700D01*
X114145000Y-122350000D02*
X114645000Y-122350000D01*
X125688500Y-106086500D02*
X124875000Y-106900000D01*
X108600000Y-104153700D02*
X105766300Y-101320000D01*
X123309300Y-111852500D02*
X123581400Y-111580400D01*
X113037000Y-119533000D02*
X112450000Y-120120000D01*
X130184500Y-102455500D02*
X128067100Y-102455500D01*
X124875000Y-107315000D02*
X123400000Y-108790000D01*
X102188000Y-117723300D02*
X101511600Y-117046900D01*
X118058000Y-109374000D02*
X118947000Y-109374000D01*
X121095000Y-108700000D02*
X121095000Y-107750000D01*
X111362700Y-121207300D02*
X111362700Y-121485200D01*
X108633800Y-116890000D02*
X107800500Y-117723300D01*
X107800500Y-117723300D02*
X102188000Y-117723300D01*
X117945000Y-122120000D02*
X119045000Y-122120000D01*
X128067100Y-102455500D02*
X125688500Y-104834100D01*
X114020000Y-106625000D02*
X114020000Y-106705300D01*
D39*
X108194100Y-121485200D02*
X110235300Y-121485200D01*
D38*
X122419100Y-121756300D02*
X122093000Y-122082400D01*
X118947000Y-109374000D02*
X119263000Y-109690000D01*
X113588000Y-118698400D02*
X113588000Y-119175400D01*
D39*
X107732500Y-121844800D02*
X108026800Y-121844800D01*
D38*
X125688500Y-104834100D02*
X125688500Y-106086500D01*
X113486100Y-108410900D02*
X113275000Y-108622000D01*
X117945000Y-122120000D02*
X117731100Y-121906100D01*
X105876500Y-112739600D02*
X107622100Y-110994000D01*
X113339600Y-118450000D02*
X113588000Y-118698400D01*
X121320000Y-102265000D02*
X112670000Y-102265000D01*
X123037500Y-116960000D02*
X123037000Y-116960000D01*
X110750000Y-118450000D02*
X110730000Y-118470000D01*
X113230400Y-119533000D02*
X113037000Y-119533000D01*
X124920000Y-120930000D02*
X125479700Y-120370300D01*
X116395000Y-108180700D02*
X116395000Y-108345000D01*
X124875000Y-106900000D02*
X124875000Y-107315000D01*
X107800500Y-121128000D02*
X108157700Y-121485200D01*
X102282900Y-112739600D02*
X105876500Y-112739600D01*
X115003100Y-107688400D02*
X115902700Y-107688400D01*
X123581400Y-111580400D02*
X123899200Y-111580400D01*
X114161800Y-110994000D02*
X114161800Y-110746300D01*
X120854000Y-124412200D02*
X116707200Y-124412200D01*
X121095000Y-109900000D02*
X120257500Y-109900000D01*
X114020000Y-106705300D02*
X113560000Y-107165300D01*
X124450000Y-119250000D02*
X124700000Y-118622000D01*
X121095000Y-108700000D02*
X121095000Y-109300000D01*
X108157700Y-121485200D02*
X108026800Y-121616100D01*
X123309300Y-111973200D02*
X123150000Y-111973200D01*
X112670000Y-105645000D02*
X113650000Y-105645000D01*
X122093000Y-122082400D02*
X122093000Y-123173200D01*
X105766300Y-101320000D02*
X105210000Y-101320000D01*
X123309300Y-111973200D02*
X123309300Y-111852500D01*
X121095000Y-107750000D02*
X119970000Y-106625000D01*
X123037000Y-116960000D02*
X122600000Y-116110000D01*
X123720000Y-120930000D02*
X122893700Y-121756300D01*
X111070300Y-107165300D02*
X110655000Y-106750000D01*
X112450000Y-120120000D02*
X111362700Y-121207300D01*
X105633400Y-124180000D02*
X107732500Y-122080900D01*
X108026800Y-121616100D02*
X108026800Y-121844800D01*
X121432500Y-111852500D02*
X121100000Y-111520000D01*
X123899200Y-111580400D02*
X124400000Y-111079600D01*
X120145000Y-122120000D02*
X121245000Y-122120000D01*
X122093000Y-123173200D02*
X120854000Y-124412200D01*
X124450000Y-112060000D02*
X123343300Y-112060000D01*
X111362700Y-121485200D02*
X110235300Y-121485200D01*
X117495000Y-121643100D02*
X117495000Y-120362500D01*
X123343300Y-112007200D02*
X123309300Y-111973200D01*
X114495000Y-111327200D02*
X114161800Y-110994000D01*
X114479300Y-107164500D02*
X113486100Y-108157700D01*
X124200000Y-118622000D02*
X124450000Y-119250000D01*
X108600000Y-104153700D02*
X108600000Y-105170000D01*
X124400000Y-111079600D02*
X124400000Y-110730000D01*
X123037500Y-117960000D02*
X123037000Y-117960000D01*
X101511600Y-117046900D02*
X101511600Y-113510900D01*
X131320000Y-101320000D02*
X130184500Y-102455500D01*
X111362700Y-121485200D02*
X111362700Y-121737700D01*
%TO.N,/PC13*%
D40*
X106800700Y-105755700D02*
X108844400Y-105755700D01*
X114495000Y-120362500D02*
X114616600Y-120240900D01*
X109110000Y-105490100D02*
X109110000Y-104855800D01*
X114616600Y-116536100D02*
X114381000Y-116300500D01*
X109952100Y-104637100D02*
X110513000Y-105198000D01*
X109110000Y-104855800D02*
X109328700Y-104637100D01*
X109328700Y-104637100D02*
X109952100Y-104637100D01*
X114616600Y-120240900D02*
X114616600Y-116536100D01*
X108844400Y-105755700D02*
X109110000Y-105490100D01*
%TO.N,/PC14*%
X114995000Y-120362500D02*
X114936900Y-120304400D01*
X114936900Y-120304400D02*
X114936900Y-118827100D01*
X114936900Y-118827100D02*
X115323300Y-118440700D01*
%TO.N,/PC15*%
X115495000Y-120362500D02*
X115495000Y-119201600D01*
X115495000Y-119201600D02*
X115476200Y-119182800D01*
%TO.N,/HSE_IN*%
D41*
X115995000Y-121350000D02*
X113150000Y-121350000D01*
X113150000Y-121350000D02*
X113150000Y-124050000D01*
D40*
X115995000Y-120600000D02*
X115995000Y-120362500D01*
D41*
X115995000Y-120600000D02*
X115995000Y-121350000D01*
X113150000Y-124050000D02*
X114145000Y-124050000D01*
X113150000Y-123880000D02*
X112545000Y-123880000D01*
%TO.N,/HSE_OUT*%
X116345000Y-122350000D02*
X117340000Y-122350000D01*
X116495000Y-120600000D02*
X116495000Y-122350000D01*
X117340000Y-122350000D02*
X117340000Y-123680000D01*
X117340000Y-123680000D02*
X117945000Y-123680000D01*
X116495000Y-122350000D02*
X116345000Y-122350000D01*
D40*
X116495000Y-120600000D02*
X116495000Y-120362500D01*
%TO.N,/NRST*%
X127118900Y-118933300D02*
X127849300Y-119663700D01*
X116995000Y-120362500D02*
X116995000Y-119184300D01*
X105210000Y-111480000D02*
X104628200Y-111480000D01*
X126208600Y-119438200D02*
X126438100Y-119667700D01*
X102288600Y-120270800D02*
X105400200Y-120270800D01*
X104628200Y-111480000D02*
X103550700Y-110402500D01*
X127118900Y-117244800D02*
X127118900Y-118933300D01*
X121245000Y-123080000D02*
X120522500Y-123802500D01*
X103550700Y-110402500D02*
X102186300Y-110402500D01*
X101137400Y-111451400D02*
X101137400Y-119119600D01*
X127849300Y-119663700D02*
X127849300Y-119988600D01*
X124978400Y-115460000D02*
X125334100Y-115460000D01*
X126438100Y-120595100D02*
X125584200Y-121449000D01*
X115982900Y-118172200D02*
X115982900Y-118058900D01*
X101137400Y-119119600D02*
X102288600Y-120270800D01*
X125334100Y-115460000D02*
X127118900Y-117244800D01*
X123859500Y-121449000D02*
X122995500Y-122313000D01*
X120522500Y-123802500D02*
X119868600Y-123802500D01*
X102186300Y-110402500D02*
X101137400Y-111451400D01*
X126438100Y-119667700D02*
X126438100Y-120595100D01*
X122995500Y-122313000D02*
X122649700Y-122313000D01*
X106865900Y-121736500D02*
X106865900Y-122160100D01*
X116995000Y-119184300D02*
X115982900Y-118172200D01*
X124450000Y-115460000D02*
X124978400Y-115460000D01*
X105400200Y-120270800D02*
X106865900Y-121736500D01*
X125584200Y-121449000D02*
X123859500Y-121449000D01*
%TO.N,+3.3VA*%
D36*
X119045000Y-123080000D02*
X120145000Y-123080000D01*
X117995000Y-120362500D02*
X117995000Y-119167500D01*
X122068400Y-121486600D02*
X121817900Y-121486600D01*
X119045000Y-123080000D02*
X118912100Y-123212900D01*
X122620000Y-120935000D02*
X122068400Y-121486600D01*
X118912100Y-123212900D02*
X118912100Y-123825400D01*
%TO.N,/PA0*%
D40*
X120264900Y-121510500D02*
X120723900Y-121051500D01*
D42*
X120141100Y-121634300D02*
X120264900Y-121510500D01*
X118495000Y-121305500D02*
X119159000Y-121305500D01*
D40*
X119323400Y-121469900D02*
X119487800Y-121634300D01*
X118495000Y-120362500D02*
X118495000Y-121305500D01*
X120723900Y-121051500D02*
X120491800Y-120819400D01*
X119487800Y-121634300D02*
X119505400Y-121634300D01*
D42*
X119159000Y-121305500D02*
X119323400Y-121469900D01*
D40*
X120723900Y-121051500D02*
X120865400Y-120910000D01*
D42*
X119505400Y-121634300D02*
X120141100Y-121634300D01*
D40*
X120865400Y-120910000D02*
X121250000Y-120910000D01*
%TO.N,/PA1*%
X118995000Y-119192700D02*
X118995000Y-120362500D01*
%TO.N,/PA2*%
X119495000Y-119425700D02*
X119729000Y-119191700D01*
X119495000Y-120362500D02*
X119495000Y-119425700D01*
%TO.N,/PA3*%
X121672100Y-118950000D02*
X122118800Y-118503300D01*
X120907500Y-118950000D02*
X121672100Y-118950000D01*
%TO.N,/PA4*%
X120907500Y-118450000D02*
X120800800Y-118343300D01*
X120800800Y-118343300D02*
X119123800Y-118343300D01*
%TO.N,/PA5*%
X119773500Y-117950000D02*
X119629000Y-117805500D01*
X120907500Y-117950000D02*
X119773500Y-117950000D01*
X119629000Y-117805500D02*
X118865900Y-117805500D01*
X118865900Y-117805500D02*
X118384300Y-118287100D01*
%TO.N,/PA6*%
X120945000Y-117487500D02*
X122185000Y-117487500D01*
X120907500Y-117450000D02*
X120945000Y-117487500D01*
%TO.N,/PA7*%
X120907500Y-116950000D02*
X119018900Y-116950000D01*
X119018900Y-116950000D02*
X118832300Y-116763400D01*
%TO.N,/PB0*%
X121544700Y-116450000D02*
X122093300Y-115901400D01*
X128013700Y-114786300D02*
X128780000Y-114020000D01*
X122678200Y-114786300D02*
X128013700Y-114786300D01*
X122093300Y-115371200D02*
X122678200Y-114786300D01*
X122093300Y-115901400D02*
X122093300Y-115371200D01*
X120907500Y-116450000D02*
X121544700Y-116450000D01*
%TO.N,/PB1*%
X130221200Y-112578800D02*
X131320000Y-111480000D01*
X128092700Y-112578800D02*
X130221200Y-112578800D01*
X120907500Y-115950000D02*
X120266800Y-115950000D01*
X124178800Y-110147200D02*
X125661100Y-110147200D01*
X123442300Y-110883700D02*
X124178800Y-110147200D01*
X120932900Y-110883700D02*
X123442300Y-110883700D01*
X119735400Y-113626500D02*
X119735400Y-113249500D01*
X119964000Y-111852600D02*
X120932900Y-110883700D01*
X119229700Y-114912900D02*
X119229700Y-114132200D01*
X120266800Y-115950000D02*
X119229700Y-114912900D01*
X125661100Y-110147200D02*
X128092700Y-112578800D01*
X119735400Y-113249500D02*
X119964000Y-113020900D01*
X119229700Y-114132200D02*
X119735400Y-113626500D01*
X119964000Y-113020900D02*
X119964000Y-111852600D01*
%TO.N,/PB2*%
X121579900Y-115450000D02*
X122549200Y-114480700D01*
X120907500Y-115450000D02*
X121579900Y-115450000D01*
X127021100Y-109810000D02*
X128691100Y-111480000D01*
X128691100Y-111480000D02*
X128780000Y-111480000D01*
X122549200Y-114480700D02*
X126239700Y-114480700D01*
X126239700Y-114480700D02*
X126451100Y-114269300D01*
X123400000Y-109810000D02*
X127021100Y-109810000D01*
%TO.N,/PB10*%
X122432500Y-114198900D02*
X121681400Y-114950000D01*
X132397400Y-111905800D02*
X131399000Y-112904200D01*
X124806200Y-112904200D02*
X123511500Y-114198900D01*
X123511500Y-114198900D02*
X122432500Y-114198900D01*
X121681400Y-114950000D02*
X120907500Y-114950000D01*
X132397400Y-110017400D02*
X132397400Y-111905800D01*
X131399000Y-112904200D02*
X124806200Y-112904200D01*
X131320000Y-108940000D02*
X132397400Y-110017400D01*
%TO.N,/PB11*%
X120907500Y-114450000D02*
X119737700Y-114450000D01*
%TO.N,/PB12*%
X119495000Y-111838300D02*
X119495000Y-112037500D01*
X130084600Y-107635400D02*
X125435900Y-107635400D01*
X122338700Y-110465100D02*
X120868200Y-110465100D01*
X122845900Y-109957900D02*
X122338700Y-110465100D01*
X125435900Y-107635400D02*
X123771300Y-109300000D01*
X120868200Y-110465100D02*
X119495000Y-111838300D01*
X123771300Y-109300000D02*
X123036100Y-109300000D01*
X123036100Y-109300000D02*
X122845900Y-109490200D01*
X131320000Y-106400000D02*
X130084600Y-107635400D01*
X122845900Y-109490200D02*
X122845900Y-109957900D01*
%TO.N,/PB13*%
X118995000Y-113006000D02*
X119197500Y-113208500D01*
X118995000Y-112037500D02*
X118995000Y-113006000D01*
%TO.N,/PB14*%
X118495000Y-113117300D02*
X118394500Y-113217800D01*
X118495000Y-112037500D02*
X118495000Y-113117300D01*
%TO.N,/PB15*%
X117995000Y-112820300D02*
X117995000Y-112037500D01*
X117315100Y-113500200D02*
X117995000Y-112820300D01*
%TO.N,/PA8*%
X117495000Y-112037500D02*
X117495000Y-112693600D01*
X115391500Y-114707200D02*
X113766000Y-114707200D01*
X117495000Y-112693600D02*
X117195100Y-112993500D01*
X117105200Y-112993500D02*
X115391500Y-114707200D01*
X117195100Y-112993500D02*
X117105200Y-112993500D01*
%TO.N,/PA9*%
X114781500Y-113786300D02*
X115894800Y-113786300D01*
X116995000Y-112686100D02*
X116995000Y-112037500D01*
X115894800Y-113786300D02*
X116995000Y-112686100D01*
%TO.N,/PA10*%
X116495000Y-112037500D02*
X116495000Y-112693100D01*
X116495000Y-112693100D02*
X115923600Y-113264500D01*
X115923600Y-113264500D02*
X113823200Y-113264500D01*
X113823200Y-113264500D02*
X113771800Y-113315900D01*
%TO.N,/USB_D-*%
X116570000Y-106125000D02*
X117420000Y-105275000D01*
X116856100Y-110513600D02*
X117159200Y-110816700D01*
X116570000Y-106625000D02*
X116570000Y-106125000D01*
D42*
X116644200Y-110725500D02*
X116139500Y-110725500D01*
D40*
X116932500Y-110437200D02*
X116932500Y-110120000D01*
X116932500Y-106987500D02*
X116932500Y-108420000D01*
X115995000Y-112037500D02*
X115995000Y-110870000D01*
X115995000Y-110870000D02*
X116139500Y-110725500D01*
D42*
X116932500Y-110437200D02*
X116856100Y-110513600D01*
D40*
X116570000Y-106625000D02*
X116932500Y-106987500D01*
D42*
X116856100Y-110513600D02*
X116644200Y-110725500D01*
%TO.N,/USB_D+*%
D40*
X114018200Y-108094800D02*
X113817800Y-108295200D01*
X115313700Y-109576200D02*
X115290600Y-109576200D01*
X115191400Y-109316300D02*
X115290600Y-109415500D01*
X113817800Y-108948800D02*
X114018200Y-109149200D01*
X113817800Y-108295200D02*
X113817800Y-108948800D01*
X115857500Y-108420000D02*
X115532300Y-108094800D01*
X115290600Y-109415500D02*
X115493100Y-109213000D01*
X115290600Y-109415500D02*
X115290600Y-109576200D01*
X117420000Y-108630100D02*
X117420000Y-106625000D01*
X115532300Y-108094800D02*
X114018200Y-108094800D01*
X114423700Y-109149200D02*
X114590800Y-109316300D01*
X115857500Y-110120000D02*
X115313700Y-109576200D01*
X115495000Y-110482500D02*
X115495000Y-112037500D01*
X116837100Y-109213000D02*
X117420000Y-108630100D01*
X115857500Y-110120000D02*
X115495000Y-110482500D01*
X115493100Y-109213000D02*
X116837100Y-109213000D01*
X114590800Y-109316300D02*
X115191400Y-109316300D01*
X114242800Y-109576200D02*
X114152000Y-109667000D01*
X115290600Y-109576200D02*
X114242800Y-109576200D01*
X114018200Y-109149200D02*
X114423700Y-109149200D01*
%TO.N,/PA13*%
X104048400Y-110318400D02*
X102670000Y-108940000D01*
X114370200Y-110238000D02*
X112970300Y-110238000D01*
X112970300Y-110238000D02*
X112889900Y-110318400D01*
X112889900Y-110318400D02*
X104048400Y-110318400D01*
X114995000Y-110862800D02*
X114370200Y-110238000D01*
X114995000Y-112037500D02*
X114995000Y-110862800D01*
%TO.N,/PA14*%
X112582500Y-113450000D02*
X110947500Y-113450000D01*
X110947500Y-113450000D02*
X110905200Y-113492300D01*
%TO.N,/PA15*%
X112582500Y-113950000D02*
X112532100Y-114000400D01*
X110378400Y-114000400D02*
X110353700Y-113975700D01*
X112532100Y-114000400D02*
X110378400Y-114000400D01*
%TO.N,/PB3*%
X106589600Y-114482400D02*
X112550100Y-114482400D01*
X112550100Y-114482400D02*
X112582500Y-114450000D01*
X106573500Y-114466300D02*
X106589600Y-114482400D01*
%TO.N,/PB4*%
X103766600Y-115116600D02*
X102670000Y-114020000D01*
X106910400Y-114859600D02*
X106653400Y-115116600D01*
X106653400Y-115116600D02*
X103766600Y-115116600D01*
X112582500Y-114950000D02*
X112492100Y-114859600D01*
X112492100Y-114859600D02*
X106910400Y-114859600D01*
%TO.N,/PB5*%
X110683800Y-116309900D02*
X108240400Y-116309900D01*
X112582500Y-115450000D02*
X111783000Y-115450000D01*
X111111400Y-116121600D02*
X110872100Y-116121600D01*
X111783000Y-115450000D02*
X111111400Y-116121600D01*
X110872100Y-116121600D02*
X110683800Y-116309900D01*
%TO.N,/PB6*%
X124200000Y-116536100D02*
X124473100Y-116263000D01*
X113224500Y-115950000D02*
X113890700Y-115283800D01*
X117802600Y-115283800D02*
X118090700Y-115571900D01*
X118090700Y-115571900D02*
X118090700Y-117832200D01*
X109586000Y-119069000D02*
X109586000Y-118457800D01*
X113890700Y-115283800D02*
X117802600Y-115283800D01*
X111760300Y-115950000D02*
X111082000Y-116628300D01*
X124200000Y-116797500D02*
X124200000Y-116536100D01*
X109586000Y-118457800D02*
X110042900Y-118000900D01*
X112582500Y-115950000D02*
X111760300Y-115950000D01*
X118090700Y-117832200D02*
X117641400Y-118281500D01*
X125413800Y-116263000D02*
X125499800Y-116349000D01*
X112582500Y-115950000D02*
X113224500Y-115950000D01*
X124473100Y-116263000D02*
X125413800Y-116263000D01*
%TO.N,/PB7*%
X113488700Y-116450000D02*
X114285500Y-117246800D01*
X112582500Y-116450000D02*
X113488700Y-116450000D01*
X123367200Y-115791800D02*
X122885500Y-115310100D01*
X123367200Y-116464700D02*
X123367200Y-115791800D01*
X114285500Y-117246800D02*
X114285500Y-117791400D01*
X109680000Y-120141000D02*
X110668900Y-120141000D01*
X110668900Y-120141000D02*
X110695400Y-120167500D01*
X114148100Y-115790600D02*
X117568300Y-115790600D01*
X113488700Y-116450000D02*
X114148100Y-115790600D01*
X123700000Y-116797500D02*
X123367200Y-116464700D01*
X114285500Y-117791400D02*
X113877200Y-118199700D01*
%TO.N,/BOOT0*%
X109580000Y-112200000D02*
X109580000Y-112856700D01*
X111478600Y-116950000D02*
X111292000Y-117136600D01*
X109580000Y-112856700D02*
X109046800Y-113389900D01*
X111292000Y-117136600D02*
X110053400Y-117136600D01*
X109280000Y-117910000D02*
X108519700Y-117910000D01*
X110053400Y-117136600D02*
X109280000Y-117910000D01*
X108519700Y-117910000D02*
X108516600Y-117906900D01*
X112582500Y-116950000D02*
X111478600Y-116950000D01*
%TO.N,/PB8*%
X111091500Y-117450000D02*
X110874700Y-117666800D01*
X112582500Y-117450000D02*
X111091500Y-117450000D01*
%TO.N,/PB9*%
X113767700Y-117450000D02*
X113267700Y-117950000D01*
X113267700Y-117950000D02*
X112582500Y-117950000D01*
%TO.N,VBUS*%
D36*
X118058000Y-110334000D02*
X118264000Y-110540000D01*
D37*
X123176300Y-108239300D02*
X123740200Y-107675400D01*
D36*
X114870000Y-105275000D02*
X114870000Y-105193700D01*
D43*
X123139300Y-108276300D02*
X123176300Y-108239300D01*
D36*
X123740200Y-107675400D02*
X123840900Y-107675400D01*
X117308600Y-109584600D02*
X116612500Y-109584600D01*
X124100000Y-106100000D02*
X125100000Y-105100000D01*
X119120000Y-105193600D02*
X119120000Y-105275000D01*
X124100000Y-107416300D02*
X124100000Y-106100000D01*
X114870000Y-105193700D02*
X115479600Y-104584100D01*
X122953800Y-108276300D02*
X122833300Y-108155800D01*
X118058000Y-110334000D02*
X117308600Y-109584600D01*
X116612500Y-109584600D02*
X116395000Y-109802100D01*
X115479600Y-104584100D02*
X118510500Y-104584100D01*
X118510500Y-104584100D02*
X119120000Y-105193600D01*
X116395000Y-109802100D02*
X116395000Y-110195000D01*
X118264000Y-110540000D02*
X118919800Y-110540000D01*
D43*
X122953800Y-108276300D02*
X123139300Y-108276300D01*
D36*
X123840900Y-107675400D02*
X124100000Y-107416300D01*
%TO.N,/USB_CC1*%
D40*
X132411100Y-106837400D02*
X131438500Y-107810000D01*
X131481500Y-105064700D02*
X132411100Y-105994300D01*
X130944800Y-107810000D02*
X129868500Y-108886300D01*
X132411100Y-105994300D02*
X132411100Y-106837400D01*
X131438500Y-107810000D02*
X130944800Y-107810000D01*
X129868500Y-108886300D02*
X129868500Y-109350000D01*
X125420000Y-110730000D02*
X125998400Y-111308400D01*
X126245200Y-105064700D02*
X131481500Y-105064700D01*
X129216700Y-110001800D02*
X127929500Y-110001800D01*
X125998400Y-111308400D02*
X126103100Y-111308400D01*
X129868500Y-109350000D02*
X129216700Y-110001800D01*
%TO.N,/USB_CC2*%
X114295000Y-108622000D02*
X115009900Y-108622000D01*
%TO.N,/IMU_INT1*%
D41*
X123037000Y-118460000D02*
X121250000Y-119920000D01*
D40*
X123037500Y-118460000D02*
X123037000Y-118460000D01*
%TO.N,/PWR_LED_K*%
X109880000Y-107173000D02*
X110870000Y-108163000D01*
X109880000Y-105430000D02*
X109880000Y-107173000D01*
X109620000Y-105170000D02*
X109880000Y-105430000D01*
%TO.N,/USER_LED_K*%
X103940100Y-109188300D02*
X103940100Y-108640600D01*
X102341100Y-107606500D02*
X101613300Y-106878700D01*
X103940100Y-108640600D02*
X102906000Y-107606500D01*
X111008000Y-109620000D02*
X110599500Y-110028500D01*
X110599500Y-110028500D02*
X104780300Y-110028500D01*
X104780300Y-110028500D02*
X103940100Y-109188300D01*
X111533000Y-105198000D02*
X111533000Y-105064400D01*
X111533000Y-105064400D02*
X111022700Y-104554100D01*
X101613300Y-106878700D02*
X101613300Y-105176800D01*
X102906000Y-107606500D02*
X102341100Y-107606500D01*
%TO.N,+5V*%
D36*
X127648300Y-101320000D02*
X123868300Y-105100000D01*
X122474200Y-109010000D02*
X122474200Y-109780600D01*
X123252500Y-106900000D02*
X123325000Y-106900000D01*
X123868300Y-105100000D02*
X123000000Y-105100000D01*
X122114200Y-108038300D02*
X123252500Y-106900000D01*
X122114200Y-108650000D02*
X122114200Y-108038300D01*
X122114200Y-108650000D02*
X122474200Y-109010000D01*
X123000000Y-106575000D02*
X123325000Y-106900000D01*
X121982500Y-108650000D02*
X122114200Y-108650000D01*
X123000000Y-105100000D02*
X123000000Y-106575000D01*
X128780000Y-101320000D02*
X127648300Y-101320000D01*
D37*
X122151900Y-109780600D02*
X121982500Y-109950000D01*
X122474200Y-109780600D02*
X122151900Y-109780600D01*
%TD*%
%TA.AperFunction,Conductor*%
%TO.N,GND*%
G36*
X101586847Y-100319407D02*
G01*
X101622811Y-100368907D01*
X101625753Y-100418816D01*
X101619500Y-100450244D01*
X101619500Y-102189746D01*
X101619501Y-102189758D01*
X101631132Y-102248227D01*
X101631133Y-102248231D01*
X101675448Y-102314552D01*
X101741769Y-102358867D01*
X101778831Y-102366239D01*
X101800241Y-102370498D01*
X101800246Y-102370498D01*
X101800252Y-102370500D01*
X102220500Y-102370500D01*
X102278691Y-102389407D01*
X102314655Y-102438907D01*
X102319500Y-102469500D01*
X102319500Y-102497844D01*
X102343386Y-102586988D01*
X102389531Y-102666912D01*
X102407074Y-102684455D01*
X102434850Y-102738970D01*
X102425279Y-102799402D01*
X102382014Y-102842667D01*
X102365816Y-102849192D01*
X102363579Y-102849870D01*
X102172402Y-102929058D01*
X102000348Y-103044020D01*
X101854020Y-103190348D01*
X101739058Y-103362402D01*
X101659869Y-103553581D01*
X101619500Y-103756532D01*
X101619500Y-103963467D01*
X101659869Y-104166418D01*
X101739058Y-104357597D01*
X101854020Y-104529651D01*
X101854023Y-104529655D01*
X101857081Y-104532713D01*
X101884857Y-104587228D01*
X101875286Y-104647660D01*
X101832021Y-104690925D01*
X101771589Y-104700496D01*
X101761460Y-104698343D01*
X101679192Y-104676300D01*
X101547408Y-104676300D01*
X101469500Y-104697175D01*
X101420109Y-104710409D01*
X101305990Y-104776296D01*
X101212796Y-104869490D01*
X101146909Y-104983609D01*
X101146908Y-104983614D01*
X101112800Y-105110908D01*
X101112800Y-105242692D01*
X101138927Y-105340200D01*
X101146909Y-105369990D01*
X101212796Y-105484109D01*
X101212798Y-105484111D01*
X101212800Y-105484114D01*
X101305986Y-105577300D01*
X101305988Y-105577301D01*
X101308804Y-105580117D01*
X101336581Y-105634634D01*
X101337800Y-105650121D01*
X101337800Y-106933500D01*
X101355636Y-106976558D01*
X101367583Y-107005401D01*
X101367583Y-107005402D01*
X101379741Y-107034755D01*
X101379742Y-107034756D01*
X101379743Y-107034758D01*
X102185042Y-107840058D01*
X102185043Y-107840058D01*
X102191937Y-107846952D01*
X102190477Y-107848411D01*
X102220489Y-107886486D01*
X102222888Y-107947625D01*
X102188892Y-107998497D01*
X102174284Y-108008052D01*
X102172408Y-108009054D01*
X102000348Y-108124020D01*
X101854020Y-108270348D01*
X101739058Y-108442402D01*
X101659869Y-108633581D01*
X101619500Y-108836532D01*
X101619500Y-109043467D01*
X101659869Y-109246418D01*
X101739058Y-109437597D01*
X101848440Y-109601300D01*
X101854023Y-109609655D01*
X102000345Y-109755977D01*
X102172402Y-109870941D01*
X102330762Y-109936536D01*
X102377287Y-109976273D01*
X102391571Y-110035767D01*
X102368156Y-110092295D01*
X102315987Y-110124265D01*
X102292876Y-110127000D01*
X102131498Y-110127000D01*
X102030244Y-110168940D01*
X102030242Y-110168941D01*
X102030242Y-110168942D01*
X100981342Y-111217843D01*
X100981341Y-111217842D01*
X100903846Y-111295338D01*
X100903844Y-111295340D01*
X100903843Y-111295342D01*
X100861900Y-111396600D01*
X100861900Y-119174400D01*
X100879036Y-119215769D01*
X100894038Y-119251986D01*
X100894038Y-119251987D01*
X100903842Y-119275657D01*
X100903843Y-119275658D01*
X102132542Y-120504358D01*
X102178753Y-120523499D01*
X102225279Y-120563235D01*
X102239563Y-120622729D01*
X102216149Y-120679257D01*
X102178760Y-120706425D01*
X102172402Y-120709059D01*
X102000348Y-120824020D01*
X101854020Y-120970348D01*
X101739058Y-121142402D01*
X101659869Y-121333581D01*
X101619500Y-121536532D01*
X101619500Y-121743467D01*
X101659869Y-121946418D01*
X101739058Y-122137597D01*
X101854020Y-122309651D01*
X101854023Y-122309655D01*
X102000345Y-122455977D01*
X102172402Y-122570941D01*
X102363580Y-122650130D01*
X102566535Y-122690500D01*
X102566536Y-122690500D01*
X102773464Y-122690500D01*
X102773465Y-122690500D01*
X102976420Y-122650130D01*
X103167598Y-122570941D01*
X103339655Y-122455977D01*
X103485977Y-122309655D01*
X103600941Y-122137598D01*
X103680130Y-121946420D01*
X103720500Y-121743465D01*
X103720500Y-121536535D01*
X103680130Y-121333580D01*
X103600941Y-121142402D01*
X103485977Y-120970345D01*
X103339655Y-120824023D01*
X103321661Y-120812000D01*
X103195371Y-120727616D01*
X103157491Y-120679566D01*
X103155089Y-120618428D01*
X103189081Y-120567554D01*
X103246485Y-120546376D01*
X103250372Y-120546300D01*
X104629628Y-120546300D01*
X104687819Y-120565207D01*
X104723783Y-120614707D01*
X104723783Y-120675893D01*
X104687819Y-120725393D01*
X104684629Y-120727616D01*
X104540348Y-120824020D01*
X104394020Y-120970348D01*
X104279058Y-121142402D01*
X104199869Y-121333581D01*
X104159500Y-121536532D01*
X104159500Y-121743467D01*
X104199869Y-121946418D01*
X104279058Y-122137597D01*
X104394020Y-122309651D01*
X104394023Y-122309655D01*
X104540345Y-122455977D01*
X104712402Y-122570941D01*
X104903580Y-122650130D01*
X105106535Y-122690500D01*
X105106536Y-122690500D01*
X105313464Y-122690500D01*
X105313465Y-122690500D01*
X105516420Y-122650130D01*
X105707598Y-122570941D01*
X105879655Y-122455977D01*
X106025977Y-122309655D01*
X106140941Y-122137598D01*
X106174936Y-122055526D01*
X106214672Y-122009001D01*
X106274167Y-121994717D01*
X106330695Y-122018132D01*
X106362665Y-122070301D01*
X106365400Y-122093412D01*
X106365400Y-122094208D01*
X106365400Y-122225992D01*
X106383877Y-122294948D01*
X106399509Y-122353290D01*
X106465396Y-122467409D01*
X106465398Y-122467411D01*
X106465400Y-122467414D01*
X106558586Y-122560600D01*
X106558588Y-122560601D01*
X106558590Y-122560603D01*
X106672710Y-122626490D01*
X106672708Y-122626490D01*
X106672712Y-122626491D01*
X106672714Y-122626492D01*
X106800008Y-122660600D01*
X106800010Y-122660600D01*
X106931790Y-122660600D01*
X106931792Y-122660600D01*
X107059086Y-122626492D01*
X107059088Y-122626490D01*
X107059090Y-122626490D01*
X107173209Y-122560603D01*
X107173209Y-122560602D01*
X107173214Y-122560600D01*
X107266400Y-122467414D01*
X107293835Y-122419896D01*
X107332290Y-122353290D01*
X107332290Y-122353288D01*
X107332292Y-122353286D01*
X107366400Y-122225992D01*
X107366400Y-122094208D01*
X107332292Y-121966914D01*
X107332290Y-121966911D01*
X107332290Y-121966909D01*
X107266403Y-121852790D01*
X107266401Y-121852788D01*
X107266400Y-121852786D01*
X107173214Y-121759600D01*
X107173211Y-121759598D01*
X107170396Y-121756783D01*
X107142619Y-121702266D01*
X107141400Y-121686779D01*
X107141400Y-121681700D01*
X107125817Y-121644081D01*
X107099457Y-121580442D01*
X107065912Y-121546897D01*
X107021958Y-121502942D01*
X107021958Y-121502943D01*
X105698398Y-120179383D01*
X105670621Y-120124866D01*
X105680192Y-120064434D01*
X105713399Y-120027064D01*
X105879655Y-119915977D01*
X106025977Y-119769655D01*
X106140941Y-119597598D01*
X106220130Y-119406420D01*
X106260500Y-119203465D01*
X106260500Y-118996535D01*
X106220130Y-118793580D01*
X106140941Y-118602402D01*
X106025977Y-118430345D01*
X105879655Y-118284023D01*
X105855561Y-118267924D01*
X105707597Y-118169058D01*
X105516418Y-118089869D01*
X105313467Y-118049500D01*
X105313465Y-118049500D01*
X105106535Y-118049500D01*
X105106532Y-118049500D01*
X104903581Y-118089869D01*
X104712402Y-118169058D01*
X104540348Y-118284020D01*
X104394020Y-118430348D01*
X104279058Y-118602402D01*
X104199869Y-118793581D01*
X104159500Y-118996532D01*
X104159500Y-119203467D01*
X104199869Y-119406418D01*
X104279058Y-119597597D01*
X104382551Y-119752486D01*
X104394023Y-119769655D01*
X104450666Y-119826298D01*
X104478442Y-119880813D01*
X104468871Y-119941245D01*
X104425606Y-119984510D01*
X104380661Y-119995300D01*
X103499339Y-119995300D01*
X103441148Y-119976393D01*
X103405184Y-119926893D01*
X103405184Y-119865707D01*
X103429333Y-119826298D01*
X103485977Y-119769655D01*
X103600941Y-119597598D01*
X103680130Y-119406420D01*
X103720500Y-119203465D01*
X103720500Y-118996535D01*
X103680130Y-118793580D01*
X103600941Y-118602402D01*
X103485977Y-118430345D01*
X103339655Y-118284023D01*
X103315561Y-118267924D01*
X103167597Y-118169058D01*
X102976418Y-118089869D01*
X102773467Y-118049500D01*
X102773465Y-118049500D01*
X102566535Y-118049500D01*
X102566532Y-118049500D01*
X102363581Y-118089869D01*
X102172402Y-118169058D01*
X102000348Y-118284020D01*
X101854020Y-118430348D01*
X101739058Y-118602402D01*
X101659869Y-118793581D01*
X101619871Y-118994664D01*
X101589974Y-119048048D01*
X101534409Y-119073664D01*
X101474399Y-119061727D01*
X101452772Y-119045356D01*
X101441895Y-119034479D01*
X101414119Y-118979964D01*
X101412900Y-118964477D01*
X101412900Y-116456532D01*
X101619500Y-116456532D01*
X101619500Y-116663467D01*
X101659869Y-116866418D01*
X101739058Y-117057597D01*
X101851270Y-117225535D01*
X101854023Y-117229655D01*
X102000345Y-117375977D01*
X102172402Y-117490941D01*
X102363580Y-117570130D01*
X102566535Y-117610500D01*
X102566536Y-117610500D01*
X102773464Y-117610500D01*
X102773465Y-117610500D01*
X102976420Y-117570130D01*
X103167598Y-117490941D01*
X103339655Y-117375977D01*
X103485977Y-117229655D01*
X103600941Y-117057598D01*
X103680130Y-116866420D01*
X103720500Y-116663465D01*
X103720500Y-116456535D01*
X103680130Y-116253580D01*
X103600941Y-116062402D01*
X103485977Y-115890345D01*
X103339655Y-115744023D01*
X103333917Y-115740189D01*
X103167597Y-115629058D01*
X102976418Y-115549869D01*
X102773467Y-115509500D01*
X102773465Y-115509500D01*
X102566535Y-115509500D01*
X102566532Y-115509500D01*
X102363581Y-115549869D01*
X102172402Y-115629058D01*
X102000348Y-115744020D01*
X101854020Y-115890348D01*
X101739058Y-116062402D01*
X101659869Y-116253581D01*
X101619500Y-116456532D01*
X101412900Y-116456532D01*
X101412900Y-111606521D01*
X101431807Y-111548330D01*
X101441885Y-111536529D01*
X101451358Y-111527056D01*
X101505872Y-111499281D01*
X101566304Y-111508852D01*
X101609569Y-111552117D01*
X101617423Y-111578919D01*
X101618551Y-111578695D01*
X101659869Y-111786418D01*
X101739058Y-111977597D01*
X101848697Y-112141684D01*
X101854023Y-112149655D01*
X102000345Y-112295977D01*
X102172402Y-112410941D01*
X102363580Y-112490130D01*
X102566535Y-112530500D01*
X102566536Y-112530500D01*
X102773464Y-112530500D01*
X102773465Y-112530500D01*
X102976420Y-112490130D01*
X103167598Y-112410941D01*
X103339655Y-112295977D01*
X103485977Y-112149655D01*
X103600941Y-111977598D01*
X103680130Y-111786420D01*
X103720500Y-111583465D01*
X103720500Y-111376535D01*
X103681218Y-111179050D01*
X103688410Y-111118292D01*
X103729942Y-111073362D01*
X103789952Y-111061425D01*
X103845517Y-111087041D01*
X103848320Y-111089735D01*
X104130504Y-111371919D01*
X104158281Y-111426436D01*
X104159500Y-111441923D01*
X104159500Y-111583467D01*
X104199869Y-111786418D01*
X104279058Y-111977597D01*
X104388697Y-112141684D01*
X104394023Y-112149655D01*
X104540345Y-112295977D01*
X104712402Y-112410941D01*
X104903580Y-112490130D01*
X105106535Y-112530500D01*
X105106536Y-112530500D01*
X105313464Y-112530500D01*
X105313465Y-112530500D01*
X105516420Y-112490130D01*
X105707598Y-112410941D01*
X105879655Y-112295977D01*
X106025977Y-112149655D01*
X106140941Y-111977598D01*
X106220130Y-111786420D01*
X106231302Y-111730253D01*
X108529500Y-111730253D01*
X108529500Y-112669746D01*
X108529501Y-112669758D01*
X108541132Y-112728227D01*
X108541133Y-112728231D01*
X108585448Y-112794552D01*
X108651769Y-112838867D01*
X108662423Y-112840986D01*
X108668835Y-112842262D01*
X108722218Y-112872159D01*
X108747833Y-112927725D01*
X108735895Y-112987734D01*
X108719523Y-113009362D01*
X108646300Y-113082585D01*
X108646296Y-113082590D01*
X108580409Y-113196709D01*
X108577197Y-113208696D01*
X108546300Y-113324008D01*
X108546300Y-113455792D01*
X108564148Y-113522402D01*
X108580409Y-113583090D01*
X108646296Y-113697209D01*
X108646298Y-113697211D01*
X108646300Y-113697214D01*
X108739486Y-113790400D01*
X108739488Y-113790401D01*
X108739490Y-113790403D01*
X108853610Y-113856290D01*
X108853608Y-113856290D01*
X108853612Y-113856291D01*
X108853614Y-113856292D01*
X108980908Y-113890400D01*
X108980910Y-113890400D01*
X109112690Y-113890400D01*
X109112692Y-113890400D01*
X109239986Y-113856292D01*
X109239988Y-113856290D01*
X109239990Y-113856290D01*
X109354109Y-113790403D01*
X109354109Y-113790402D01*
X109354114Y-113790400D01*
X109447300Y-113697214D01*
X109449510Y-113693386D01*
X109513190Y-113583090D01*
X109513190Y-113583088D01*
X109513192Y-113583086D01*
X109547300Y-113455792D01*
X109547300Y-113324008D01*
X109547300Y-113320022D01*
X109566207Y-113261831D01*
X109576297Y-113250018D01*
X109670722Y-113155593D01*
X109813558Y-113012758D01*
X109815286Y-113008586D01*
X109855453Y-112911615D01*
X109895189Y-112865089D01*
X109946917Y-112850500D01*
X110449747Y-112850500D01*
X110449748Y-112850500D01*
X110508231Y-112838867D01*
X110574552Y-112794552D01*
X110618867Y-112728231D01*
X110630500Y-112669748D01*
X110630500Y-111730252D01*
X110629358Y-111724513D01*
X110620729Y-111681131D01*
X110618867Y-111671769D01*
X110574552Y-111605448D01*
X110565537Y-111599424D01*
X110508233Y-111561134D01*
X110508231Y-111561133D01*
X110508228Y-111561132D01*
X110508227Y-111561132D01*
X110449758Y-111549501D01*
X110449748Y-111549500D01*
X108710252Y-111549500D01*
X108710251Y-111549500D01*
X108710241Y-111549501D01*
X108651772Y-111561132D01*
X108651766Y-111561134D01*
X108585451Y-111605445D01*
X108585445Y-111605451D01*
X108541134Y-111671766D01*
X108541132Y-111671772D01*
X108529501Y-111730241D01*
X108529500Y-111730253D01*
X106231302Y-111730253D01*
X106236112Y-111706074D01*
X106255914Y-111606521D01*
X106260500Y-111583465D01*
X106260500Y-111376535D01*
X106220130Y-111173580D01*
X106140941Y-110982402D01*
X106025977Y-110810345D01*
X105978533Y-110762901D01*
X105950758Y-110708387D01*
X105960329Y-110647955D01*
X106003594Y-110604690D01*
X106048539Y-110593900D01*
X112944699Y-110593900D01*
X112944700Y-110593900D01*
X113045958Y-110551957D01*
X113055420Y-110542494D01*
X113109935Y-110514719D01*
X113125422Y-110513500D01*
X114215077Y-110513500D01*
X114273268Y-110532407D01*
X114285081Y-110542496D01*
X114690504Y-110947919D01*
X114718281Y-111002436D01*
X114719500Y-111017923D01*
X114719500Y-111149151D01*
X114702816Y-111204152D01*
X114660486Y-111267502D01*
X114660486Y-111267503D01*
X114660485Y-111267505D01*
X114660485Y-111267507D01*
X114644500Y-111347866D01*
X114644500Y-112727129D01*
X114644501Y-112727136D01*
X114660484Y-112807494D01*
X114660485Y-112807496D01*
X114678862Y-112834998D01*
X114695471Y-112893886D01*
X114674294Y-112951290D01*
X114623421Y-112985283D01*
X114596547Y-112989000D01*
X114393453Y-112989000D01*
X114335262Y-112970093D01*
X114299298Y-112920593D01*
X114299298Y-112859407D01*
X114311138Y-112834998D01*
X114329513Y-112807498D01*
X114329513Y-112807497D01*
X114329515Y-112807495D01*
X114345500Y-112727133D01*
X114345500Y-112043942D01*
X114345500Y-111991356D01*
X114345500Y-111979834D01*
X114345499Y-111979824D01*
X114345499Y-111347870D01*
X114345498Y-111347866D01*
X114329515Y-111267505D01*
X114329512Y-111267501D01*
X114268626Y-111176379D01*
X114268624Y-111176376D01*
X114268620Y-111176373D01*
X114177497Y-111115486D01*
X114177496Y-111115485D01*
X114177495Y-111115485D01*
X114097133Y-111099500D01*
X114097132Y-111099500D01*
X113892870Y-111099500D01*
X113892862Y-111099501D01*
X113812505Y-111115484D01*
X113812503Y-111115485D01*
X113721379Y-111176373D01*
X113721373Y-111176379D01*
X113660486Y-111267501D01*
X113660484Y-111267507D01*
X113652886Y-111305703D01*
X113622989Y-111359086D01*
X113567423Y-111384701D01*
X113530167Y-111382014D01*
X113509722Y-111376536D01*
X113477492Y-111367900D01*
X113345708Y-111367900D01*
X113267800Y-111388775D01*
X113218409Y-111402009D01*
X113104290Y-111467896D01*
X113011097Y-111561089D01*
X113008274Y-111564769D01*
X112957849Y-111599424D01*
X112929733Y-111603500D01*
X112524048Y-111603500D01*
X112465857Y-111584593D01*
X112454045Y-111574504D01*
X112410316Y-111530776D01*
X112410313Y-111530774D01*
X112301489Y-111480029D01*
X112301488Y-111480028D01*
X112284958Y-111477852D01*
X112251901Y-111473500D01*
X112251899Y-111473500D01*
X111832103Y-111473500D01*
X111832092Y-111473501D01*
X111782513Y-111480027D01*
X111782511Y-111480027D01*
X111673686Y-111530774D01*
X111588774Y-111615686D01*
X111538029Y-111724510D01*
X111538028Y-111724511D01*
X111531500Y-111774100D01*
X111531500Y-112133895D01*
X111531501Y-112133907D01*
X111538027Y-112183486D01*
X111538027Y-112183488D01*
X111588774Y-112292313D01*
X111588775Y-112292314D01*
X111588776Y-112292316D01*
X111673684Y-112377224D01*
X111782513Y-112427972D01*
X111832099Y-112434500D01*
X112251900Y-112434499D01*
X112301487Y-112427972D01*
X112301488Y-112427972D01*
X112375571Y-112393426D01*
X112410316Y-112377224D01*
X112432180Y-112355359D01*
X112454045Y-112333496D01*
X112508562Y-112305719D01*
X112524048Y-112304500D01*
X113139420Y-112304500D01*
X113188920Y-112317763D01*
X113218414Y-112334792D01*
X113345708Y-112368900D01*
X113345710Y-112368900D01*
X113477491Y-112368900D01*
X113477492Y-112368900D01*
X113519877Y-112357543D01*
X113580978Y-112360744D01*
X113628528Y-112399249D01*
X113644500Y-112453169D01*
X113644500Y-112727129D01*
X113644501Y-112727138D01*
X113646188Y-112735618D01*
X113638993Y-112796378D01*
X113597458Y-112841306D01*
X113584431Y-112846604D01*
X113584606Y-112847026D01*
X113578610Y-112849509D01*
X113464490Y-112915396D01*
X113371298Y-113008588D01*
X113347388Y-113050001D01*
X113301918Y-113090942D01*
X113261652Y-113099500D01*
X111892870Y-113099500D01*
X111892863Y-113099501D01*
X111812505Y-113115484D01*
X111812503Y-113115485D01*
X111749154Y-113157815D01*
X111694152Y-113174500D01*
X111336222Y-113174500D01*
X111278031Y-113155593D01*
X111266219Y-113145504D01*
X111212514Y-113091800D01*
X111212509Y-113091796D01*
X111098389Y-113025909D01*
X111098391Y-113025909D01*
X111033746Y-113008588D01*
X110971092Y-112991800D01*
X110839308Y-112991800D01*
X110776654Y-113008588D01*
X110712009Y-113025909D01*
X110597890Y-113091796D01*
X110504696Y-113184990D01*
X110438809Y-113299109D01*
X110433206Y-113320022D01*
X110411287Y-113401824D01*
X110377964Y-113453137D01*
X110320843Y-113475064D01*
X110315661Y-113475200D01*
X110287808Y-113475200D01*
X110220653Y-113493194D01*
X110160509Y-113509309D01*
X110046390Y-113575196D01*
X109953196Y-113668390D01*
X109887309Y-113782509D01*
X109871371Y-113841991D01*
X109853200Y-113909808D01*
X109853200Y-114041592D01*
X109864101Y-114082278D01*
X109860899Y-114143378D01*
X109822394Y-114190928D01*
X109768475Y-114206900D01*
X107058821Y-114206900D01*
X107000630Y-114187993D01*
X106978655Y-114163589D01*
X106977949Y-114164132D01*
X106974005Y-114158992D01*
X106974001Y-114158988D01*
X106974000Y-114158986D01*
X106880814Y-114065800D01*
X106880811Y-114065798D01*
X106880809Y-114065796D01*
X106766689Y-113999909D01*
X106766691Y-113999909D01*
X106690469Y-113979486D01*
X106639392Y-113965800D01*
X106507608Y-113965800D01*
X106479607Y-113973302D01*
X106384289Y-113998842D01*
X106323188Y-113995639D01*
X106275638Y-113957133D01*
X106262984Y-113920999D01*
X106261449Y-113921305D01*
X106240582Y-113816400D01*
X106220130Y-113713580D01*
X106140941Y-113522402D01*
X106025977Y-113350345D01*
X105879655Y-113204023D01*
X105879651Y-113204020D01*
X105707597Y-113089058D01*
X105516418Y-113009869D01*
X105313467Y-112969500D01*
X105313465Y-112969500D01*
X105106535Y-112969500D01*
X105106532Y-112969500D01*
X104903581Y-113009869D01*
X104712402Y-113089058D01*
X104540348Y-113204020D01*
X104394020Y-113350348D01*
X104279058Y-113522402D01*
X104199869Y-113713581D01*
X104159500Y-113916532D01*
X104159500Y-114123467D01*
X104199869Y-114326418D01*
X104279058Y-114517597D01*
X104392315Y-114687099D01*
X104408923Y-114745987D01*
X104387745Y-114803391D01*
X104336871Y-114837383D01*
X104309999Y-114841100D01*
X103921724Y-114841100D01*
X103863533Y-114822193D01*
X103851720Y-114812104D01*
X103634908Y-114595292D01*
X103607131Y-114540775D01*
X103613447Y-114487404D01*
X103680130Y-114326420D01*
X103720500Y-114123465D01*
X103720500Y-113916535D01*
X103680130Y-113713580D01*
X103600941Y-113522402D01*
X103485977Y-113350345D01*
X103339655Y-113204023D01*
X103339651Y-113204020D01*
X103167597Y-113089058D01*
X102976418Y-113009869D01*
X102773467Y-112969500D01*
X102773465Y-112969500D01*
X102566535Y-112969500D01*
X102566532Y-112969500D01*
X102363581Y-113009869D01*
X102172402Y-113089058D01*
X102000348Y-113204020D01*
X101854020Y-113350348D01*
X101739058Y-113522402D01*
X101659869Y-113713581D01*
X101619500Y-113916532D01*
X101619500Y-114123467D01*
X101659869Y-114326418D01*
X101739058Y-114517597D01*
X101739059Y-114517598D01*
X101854023Y-114689655D01*
X102000345Y-114835977D01*
X102172402Y-114950941D01*
X102363580Y-115030130D01*
X102566535Y-115070500D01*
X102566536Y-115070500D01*
X102773464Y-115070500D01*
X102773465Y-115070500D01*
X102976420Y-115030130D01*
X103137403Y-114963447D01*
X103198399Y-114958647D01*
X103245291Y-114984908D01*
X103610543Y-115350159D01*
X103711798Y-115392100D01*
X104786765Y-115392100D01*
X104844956Y-115411007D01*
X104880920Y-115460507D01*
X104880920Y-115521693D01*
X104844956Y-115571193D01*
X104824653Y-115582562D01*
X104796186Y-115594354D01*
X104712402Y-115629058D01*
X104540348Y-115744020D01*
X104394020Y-115890348D01*
X104279058Y-116062402D01*
X104199869Y-116253581D01*
X104159500Y-116456532D01*
X104159500Y-116663467D01*
X104199869Y-116866418D01*
X104279058Y-117057597D01*
X104391270Y-117225535D01*
X104394023Y-117229655D01*
X104540345Y-117375977D01*
X104712402Y-117490941D01*
X104903580Y-117570130D01*
X105106535Y-117610500D01*
X105106536Y-117610500D01*
X105313464Y-117610500D01*
X105313465Y-117610500D01*
X105516420Y-117570130D01*
X105707598Y-117490941D01*
X105879655Y-117375977D01*
X106025977Y-117229655D01*
X106140941Y-117057598D01*
X106220130Y-116866420D01*
X106260500Y-116663465D01*
X106260500Y-116456535D01*
X106220130Y-116253580D01*
X106140941Y-116062402D01*
X106025977Y-115890345D01*
X105879655Y-115744023D01*
X105873917Y-115740189D01*
X105707597Y-115629058D01*
X105636552Y-115599630D01*
X105595348Y-115582563D01*
X105548824Y-115542827D01*
X105534540Y-115483333D01*
X105557955Y-115426805D01*
X105610124Y-115394835D01*
X105633235Y-115392100D01*
X106708199Y-115392100D01*
X106708200Y-115392100D01*
X106809458Y-115350157D01*
X106886957Y-115272658D01*
X106995519Y-115164096D01*
X107050036Y-115136319D01*
X107065523Y-115135100D01*
X108430500Y-115135100D01*
X108488691Y-115154007D01*
X108524655Y-115203507D01*
X108529500Y-115234100D01*
X108529500Y-115740189D01*
X108510593Y-115798380D01*
X108461093Y-115834344D01*
X108404878Y-115835815D01*
X108306292Y-115809400D01*
X108174508Y-115809400D01*
X108099467Y-115829507D01*
X108047209Y-115843509D01*
X107933090Y-115909396D01*
X107839896Y-116002590D01*
X107774009Y-116116709D01*
X107754939Y-116187878D01*
X107739900Y-116244008D01*
X107739900Y-116375792D01*
X107743215Y-116388163D01*
X107774009Y-116503090D01*
X107839896Y-116617209D01*
X107839898Y-116617211D01*
X107839900Y-116617214D01*
X107933086Y-116710400D01*
X107933088Y-116710401D01*
X107933090Y-116710403D01*
X108047210Y-116776290D01*
X108047208Y-116776290D01*
X108047212Y-116776291D01*
X108047214Y-116776292D01*
X108174508Y-116810400D01*
X108174510Y-116810400D01*
X108306290Y-116810400D01*
X108306292Y-116810400D01*
X108433586Y-116776292D01*
X108433588Y-116776290D01*
X108433590Y-116776290D01*
X108547709Y-116710403D01*
X108547709Y-116710402D01*
X108547714Y-116710400D01*
X108640900Y-116617214D01*
X108640901Y-116617211D01*
X108643717Y-116614396D01*
X108698234Y-116586619D01*
X108713721Y-116585400D01*
X110482500Y-116585400D01*
X110540691Y-116604307D01*
X110576655Y-116653807D01*
X110581500Y-116684400D01*
X110581500Y-116694192D01*
X110592830Y-116736479D01*
X110589629Y-116797578D01*
X110551124Y-116845128D01*
X110497204Y-116861100D01*
X109998598Y-116861100D01*
X109897344Y-116903040D01*
X109897342Y-116903041D01*
X109897342Y-116903042D01*
X109636485Y-117163900D01*
X109389881Y-117410504D01*
X109335364Y-117438281D01*
X109319877Y-117439500D01*
X109055684Y-117439500D01*
X109006827Y-117445932D01*
X108899596Y-117495935D01*
X108899595Y-117495935D01*
X108894409Y-117498354D01*
X108833680Y-117505810D01*
X108803070Y-117494365D01*
X108709789Y-117440509D01*
X108709791Y-117440509D01*
X108660399Y-117427275D01*
X108582492Y-117406400D01*
X108450708Y-117406400D01*
X108372800Y-117427275D01*
X108323409Y-117440509D01*
X108209290Y-117506396D01*
X108116096Y-117599590D01*
X108050209Y-117713709D01*
X108041270Y-117747072D01*
X108016100Y-117841008D01*
X108016100Y-117972792D01*
X108024141Y-118002800D01*
X108050209Y-118100090D01*
X108116096Y-118214209D01*
X108116098Y-118214211D01*
X108116100Y-118214214D01*
X108209286Y-118307400D01*
X108209288Y-118307401D01*
X108209290Y-118307403D01*
X108323410Y-118373290D01*
X108323411Y-118373290D01*
X108323414Y-118373292D01*
X108323416Y-118373292D01*
X108329406Y-118375774D01*
X108328569Y-118377794D01*
X108371700Y-118405800D01*
X108393631Y-118462920D01*
X108377799Y-118522022D01*
X108336607Y-118557832D01*
X108235598Y-118604933D01*
X108151933Y-118688598D01*
X108101932Y-118795824D01*
X108101932Y-118795825D01*
X108095500Y-118844685D01*
X108095500Y-119293314D01*
X108101932Y-119342174D01*
X108101932Y-119342175D01*
X108151933Y-119449401D01*
X108151934Y-119449402D01*
X108151935Y-119449404D01*
X108186505Y-119483974D01*
X108214281Y-119538489D01*
X108215500Y-119553976D01*
X108215500Y-119803914D01*
X108206225Y-119845752D01*
X108195934Y-119867820D01*
X108195932Y-119867825D01*
X108195932Y-119867827D01*
X108191375Y-119902446D01*
X108189500Y-119916685D01*
X108189500Y-120365314D01*
X108195932Y-120414174D01*
X108195932Y-120414175D01*
X108245933Y-120521401D01*
X108245934Y-120521402D01*
X108245935Y-120521404D01*
X108329596Y-120605065D01*
X108329597Y-120605065D01*
X108329598Y-120605066D01*
X108436824Y-120655067D01*
X108436825Y-120655067D01*
X108436827Y-120655068D01*
X108485684Y-120661500D01*
X108643810Y-120661500D01*
X108702001Y-120680407D01*
X108713813Y-120690496D01*
X108903814Y-120880496D01*
X109065188Y-121041870D01*
X109082957Y-121052129D01*
X109114407Y-121070287D01*
X109114412Y-121070289D01*
X109145108Y-121088012D01*
X109145109Y-121088012D01*
X109145112Y-121088014D01*
X109234256Y-121111900D01*
X109234258Y-121111900D01*
X111028842Y-121111900D01*
X111028844Y-121111900D01*
X111117988Y-121088014D01*
X111148690Y-121070288D01*
X111197912Y-121041870D01*
X112126570Y-120113212D01*
X112172714Y-120033288D01*
X112178418Y-120012000D01*
X112185719Y-119984750D01*
X112211341Y-119940371D01*
X112285100Y-119866614D01*
X112350992Y-119752486D01*
X112371685Y-119675253D01*
X112397308Y-119630873D01*
X112698687Y-119329495D01*
X112753203Y-119301718D01*
X112768690Y-119300499D01*
X113272130Y-119300499D01*
X113272132Y-119300499D01*
X113352495Y-119284515D01*
X113443624Y-119223624D01*
X113504515Y-119132495D01*
X113520500Y-119052133D01*
X113520499Y-118847868D01*
X113512700Y-118808659D01*
X113504515Y-118767505D01*
X113504493Y-118767452D01*
X113504485Y-118767356D01*
X113502613Y-118757942D01*
X113503727Y-118757720D01*
X113499694Y-118706455D01*
X113531664Y-118654287D01*
X113588192Y-118630873D01*
X113645458Y-118643831D01*
X113684014Y-118666092D01*
X113811308Y-118700200D01*
X113811310Y-118700200D01*
X113943090Y-118700200D01*
X113943092Y-118700200D01*
X114070386Y-118666092D01*
X114070388Y-118666090D01*
X114070390Y-118666090D01*
X114190134Y-118596956D01*
X114191267Y-118598920D01*
X114239489Y-118581833D01*
X114298158Y-118599199D01*
X114335415Y-118647734D01*
X114341100Y-118680799D01*
X114341100Y-119364586D01*
X114322193Y-119422777D01*
X114272693Y-119458741D01*
X114211507Y-119458741D01*
X114187099Y-119446902D01*
X114177494Y-119440484D01*
X114177495Y-119440484D01*
X114097134Y-119424500D01*
X113892870Y-119424500D01*
X113892862Y-119424501D01*
X113812505Y-119440484D01*
X113812503Y-119440485D01*
X113721379Y-119501373D01*
X113721373Y-119501379D01*
X113660486Y-119592501D01*
X113656756Y-119601510D01*
X113654022Y-119600377D01*
X113631714Y-119640202D01*
X113576146Y-119665812D01*
X113516138Y-119653869D01*
X113515021Y-119653234D01*
X113463189Y-119623309D01*
X113463186Y-119623308D01*
X113335892Y-119589200D01*
X113204108Y-119589200D01*
X113126872Y-119609895D01*
X113076809Y-119623309D01*
X112962690Y-119689196D01*
X112869496Y-119782390D01*
X112803609Y-119896509D01*
X112784539Y-119967678D01*
X112772664Y-120012002D01*
X112769500Y-120023809D01*
X112769500Y-120155594D01*
X112777788Y-120186527D01*
X112774585Y-120247629D01*
X112752165Y-120282152D01*
X112463813Y-120570504D01*
X112409296Y-120598281D01*
X112393810Y-120599500D01*
X112240104Y-120599500D01*
X112240092Y-120599501D01*
X112190513Y-120606027D01*
X112190511Y-120606027D01*
X112081686Y-120656774D01*
X112081684Y-120656775D01*
X112081684Y-120656776D01*
X111996776Y-120741684D01*
X111996775Y-120741686D01*
X111996774Y-120741686D01*
X111946029Y-120850510D01*
X111946028Y-120850511D01*
X111946028Y-120850513D01*
X111939920Y-120896913D01*
X111939500Y-120900100D01*
X111939500Y-121259895D01*
X111939501Y-121259907D01*
X111946027Y-121309486D01*
X111946027Y-121309488D01*
X111996774Y-121418313D01*
X111996775Y-121418314D01*
X111996776Y-121418316D01*
X112081684Y-121503224D01*
X112190513Y-121553972D01*
X112240099Y-121560500D01*
X112659900Y-121560499D01*
X112709487Y-121553972D01*
X112709488Y-121553971D01*
X112716759Y-121551853D01*
X112717184Y-121553312D01*
X112769377Y-121546897D01*
X112822895Y-121576554D01*
X112848760Y-121632003D01*
X112849500Y-121644081D01*
X112849500Y-123300500D01*
X112830593Y-123358691D01*
X112781093Y-123394655D01*
X112750500Y-123399500D01*
X112335103Y-123399500D01*
X112335092Y-123399501D01*
X112285513Y-123406027D01*
X112285511Y-123406027D01*
X112176686Y-123456774D01*
X112091774Y-123541686D01*
X112041029Y-123650510D01*
X112041028Y-123650511D01*
X112034500Y-123700100D01*
X112034500Y-124059895D01*
X112034501Y-124059907D01*
X112041027Y-124109486D01*
X112041027Y-124109488D01*
X112091774Y-124218313D01*
X112091775Y-124218314D01*
X112091776Y-124218316D01*
X112176684Y-124303224D01*
X112285513Y-124353972D01*
X112335099Y-124360500D01*
X112754900Y-124360499D01*
X112804487Y-124353972D01*
X112804488Y-124353972D01*
X112907701Y-124305843D01*
X112968430Y-124298386D01*
X112999040Y-124309830D01*
X113034011Y-124330021D01*
X113110435Y-124350499D01*
X113110437Y-124350500D01*
X113110438Y-124350500D01*
X113145500Y-124350500D01*
X113203691Y-124369407D01*
X113239655Y-124418907D01*
X113244500Y-124449500D01*
X113244500Y-124454274D01*
X113247353Y-124484694D01*
X113247355Y-124484703D01*
X113292207Y-124612883D01*
X113372845Y-124722144D01*
X113372847Y-124722146D01*
X113372850Y-124722150D01*
X113372853Y-124722152D01*
X113372855Y-124722154D01*
X113482116Y-124802792D01*
X113482117Y-124802792D01*
X113482118Y-124802793D01*
X113610301Y-124847646D01*
X113640725Y-124850499D01*
X113640727Y-124850500D01*
X113640734Y-124850500D01*
X114649273Y-124850500D01*
X114649273Y-124850499D01*
X114679699Y-124847646D01*
X114807882Y-124802793D01*
X114917150Y-124722150D01*
X114997793Y-124612882D01*
X115042646Y-124484699D01*
X115045499Y-124454273D01*
X115045500Y-124454273D01*
X115045500Y-123645727D01*
X115045499Y-123645725D01*
X115042646Y-123615305D01*
X115042646Y-123615301D01*
X114997793Y-123487118D01*
X114975398Y-123456774D01*
X114917154Y-123377855D01*
X114917152Y-123377853D01*
X114917150Y-123377850D01*
X114917146Y-123377847D01*
X114917144Y-123377845D01*
X114807883Y-123297207D01*
X114679703Y-123252355D01*
X114679694Y-123252353D01*
X114649274Y-123249500D01*
X114649266Y-123249500D01*
X113640734Y-123249500D01*
X113640725Y-123249500D01*
X113610305Y-123252353D01*
X113610301Y-123252354D01*
X113582197Y-123262188D01*
X113521027Y-123263560D01*
X113470733Y-123228716D01*
X113450525Y-123170964D01*
X113450500Y-123168743D01*
X113450500Y-121749500D01*
X113469407Y-121691309D01*
X113518907Y-121655345D01*
X113549500Y-121650500D01*
X115400484Y-121650500D01*
X115458675Y-121669407D01*
X115494639Y-121718907D01*
X115494639Y-121780093D01*
X115493929Y-121782197D01*
X115492208Y-121787116D01*
X115492207Y-121787118D01*
X115483076Y-121813214D01*
X115447354Y-121915301D01*
X115447353Y-121915305D01*
X115444500Y-121945725D01*
X115444500Y-122754274D01*
X115447353Y-122784694D01*
X115447355Y-122784703D01*
X115492207Y-122912883D01*
X115572845Y-123022144D01*
X115572847Y-123022146D01*
X115572850Y-123022150D01*
X115572853Y-123022152D01*
X115572855Y-123022154D01*
X115682116Y-123102792D01*
X115682117Y-123102792D01*
X115682118Y-123102793D01*
X115810301Y-123147646D01*
X115840725Y-123150499D01*
X115840727Y-123150500D01*
X115840734Y-123150500D01*
X116849273Y-123150500D01*
X116849273Y-123150499D01*
X116879699Y-123147646D01*
X116907803Y-123137811D01*
X116968971Y-123136438D01*
X117019266Y-123171281D01*
X117039475Y-123229033D01*
X117039500Y-123231256D01*
X117039500Y-123719564D01*
X117059978Y-123795988D01*
X117059980Y-123795992D01*
X117099538Y-123864508D01*
X117099540Y-123864511D01*
X117155489Y-123920460D01*
X117155491Y-123920461D01*
X117224007Y-123960019D01*
X117224011Y-123960021D01*
X117300435Y-123980499D01*
X117300437Y-123980500D01*
X117300438Y-123980500D01*
X117413761Y-123980500D01*
X117471952Y-123999407D01*
X117485078Y-124012764D01*
X117485652Y-124012191D01*
X117491775Y-124018314D01*
X117491776Y-124018316D01*
X117576684Y-124103224D01*
X117685513Y-124153972D01*
X117735099Y-124160500D01*
X118154900Y-124160499D01*
X118204487Y-124153972D01*
X118204488Y-124153972D01*
X118296979Y-124110842D01*
X118313316Y-124103224D01*
X118336998Y-124079541D01*
X118391512Y-124051764D01*
X118451945Y-124061335D01*
X118492737Y-124100044D01*
X118508627Y-124127565D01*
X118511600Y-124132714D01*
X118604786Y-124225900D01*
X118604788Y-124225901D01*
X118604790Y-124225903D01*
X118718910Y-124291790D01*
X118718908Y-124291790D01*
X118718912Y-124291791D01*
X118718914Y-124291792D01*
X118846208Y-124325900D01*
X118846210Y-124325900D01*
X118977990Y-124325900D01*
X118977992Y-124325900D01*
X119105286Y-124291792D01*
X119105288Y-124291790D01*
X119105290Y-124291790D01*
X119219409Y-124225903D01*
X119219409Y-124225902D01*
X119219414Y-124225900D01*
X119312600Y-124132714D01*
X119313383Y-124131356D01*
X119314218Y-124130605D01*
X119316551Y-124127565D01*
X119317113Y-124127996D01*
X119358843Y-124090412D01*
X119419692Y-124084006D01*
X119469126Y-124110840D01*
X119561286Y-124203000D01*
X119561288Y-124203001D01*
X119561290Y-124203003D01*
X119675410Y-124268890D01*
X119675408Y-124268890D01*
X119675412Y-124268891D01*
X119675414Y-124268892D01*
X119802708Y-124303000D01*
X119802710Y-124303000D01*
X119934490Y-124303000D01*
X119934492Y-124303000D01*
X120061786Y-124268892D01*
X120061788Y-124268890D01*
X120061790Y-124268890D01*
X120175909Y-124203003D01*
X120175909Y-124203002D01*
X120175914Y-124203000D01*
X120269100Y-124109814D01*
X120269101Y-124109811D01*
X120271917Y-124106996D01*
X120326434Y-124079219D01*
X120341921Y-124078000D01*
X120577299Y-124078000D01*
X120577300Y-124078000D01*
X120678558Y-124036057D01*
X120756057Y-123958558D01*
X120756056Y-123958558D01*
X121125119Y-123589495D01*
X121179636Y-123561718D01*
X121195123Y-123560499D01*
X121454897Y-123560499D01*
X121454900Y-123560499D01*
X121504487Y-123553972D01*
X121504488Y-123553972D01*
X121581444Y-123518086D01*
X121613316Y-123503224D01*
X121698224Y-123418316D01*
X121748972Y-123309487D01*
X121755500Y-123259901D01*
X121755499Y-122900100D01*
X121748972Y-122850513D01*
X121748972Y-122850511D01*
X121698225Y-122741686D01*
X121698224Y-122741685D01*
X121698224Y-122741684D01*
X121613316Y-122656776D01*
X121613314Y-122656775D01*
X121613313Y-122656774D01*
X121504489Y-122606029D01*
X121504488Y-122606028D01*
X121487958Y-122603852D01*
X121454901Y-122599500D01*
X121454899Y-122599500D01*
X121035103Y-122599500D01*
X121035092Y-122599501D01*
X120985513Y-122606027D01*
X120985511Y-122606027D01*
X120876686Y-122656774D01*
X120791775Y-122741685D01*
X120784724Y-122756807D01*
X120742995Y-122801554D01*
X120682933Y-122813228D01*
X120627481Y-122787369D01*
X120605276Y-122756807D01*
X120598455Y-122742180D01*
X120598224Y-122741684D01*
X120513316Y-122656776D01*
X120513314Y-122656775D01*
X120513313Y-122656774D01*
X120404489Y-122606029D01*
X120404488Y-122606028D01*
X120387958Y-122603852D01*
X120354901Y-122599500D01*
X120354899Y-122599500D01*
X119935103Y-122599500D01*
X119935092Y-122599501D01*
X119885513Y-122606027D01*
X119885511Y-122606027D01*
X119776686Y-122656774D01*
X119776683Y-122656776D01*
X119732955Y-122700504D01*
X119678438Y-122728281D01*
X119662952Y-122729500D01*
X119527048Y-122729500D01*
X119468857Y-122710593D01*
X119457045Y-122700504D01*
X119413316Y-122656776D01*
X119413313Y-122656774D01*
X119304489Y-122606029D01*
X119304488Y-122606028D01*
X119287958Y-122603852D01*
X119254901Y-122599500D01*
X119254899Y-122599500D01*
X118835103Y-122599500D01*
X118835092Y-122599501D01*
X118785513Y-122606027D01*
X118785511Y-122606027D01*
X118676686Y-122656774D01*
X118591774Y-122741686D01*
X118541029Y-122850510D01*
X118541028Y-122850511D01*
X118534500Y-122900100D01*
X118534500Y-123238953D01*
X118515593Y-123297144D01*
X118466093Y-123333108D01*
X118404907Y-123333108D01*
X118365498Y-123308958D01*
X118313316Y-123256776D01*
X118313314Y-123256775D01*
X118313313Y-123256774D01*
X118204489Y-123206029D01*
X118204488Y-123206028D01*
X118165406Y-123200883D01*
X118154901Y-123199500D01*
X118154900Y-123199500D01*
X117739500Y-123199500D01*
X117681309Y-123180593D01*
X117645345Y-123131093D01*
X117640500Y-123100500D01*
X117640500Y-122310437D01*
X117640499Y-122310435D01*
X117636349Y-122294949D01*
X117620021Y-122234011D01*
X117615391Y-122225992D01*
X117580461Y-122165491D01*
X117580460Y-122165489D01*
X117524511Y-122109540D01*
X117523730Y-122109089D01*
X117455992Y-122069980D01*
X117455988Y-122069978D01*
X117379564Y-122049500D01*
X117379562Y-122049500D01*
X117344500Y-122049500D01*
X117286309Y-122030593D01*
X117250345Y-121981093D01*
X117245500Y-121950500D01*
X117245500Y-121945727D01*
X117245499Y-121945725D01*
X117244698Y-121937185D01*
X117242646Y-121915301D01*
X117197793Y-121787118D01*
X117194161Y-121782197D01*
X117117154Y-121677855D01*
X117117152Y-121677853D01*
X117117150Y-121677850D01*
X117117146Y-121677847D01*
X117117144Y-121677845D01*
X117007883Y-121597207D01*
X116879703Y-121552355D01*
X116879699Y-121552354D01*
X116879697Y-121552353D01*
X116873815Y-121551069D01*
X116874434Y-121548234D01*
X116828962Y-121528508D01*
X116797864Y-121475814D01*
X116795500Y-121454307D01*
X116795500Y-121399499D01*
X116814407Y-121341308D01*
X116863907Y-121305344D01*
X116894493Y-121300499D01*
X117097132Y-121300499D01*
X117177495Y-121284515D01*
X117268624Y-121223624D01*
X117329515Y-121132495D01*
X117345500Y-121052133D01*
X117345499Y-119672868D01*
X117334046Y-119615287D01*
X117341238Y-119554529D01*
X117361140Y-119525972D01*
X117395500Y-119491614D01*
X117414112Y-119459376D01*
X117459580Y-119418435D01*
X117520431Y-119412038D01*
X117573419Y-119442630D01*
X117585584Y-119459373D01*
X117594496Y-119474809D01*
X117594498Y-119474811D01*
X117594500Y-119474814D01*
X117615505Y-119495819D01*
X117643281Y-119550334D01*
X117644500Y-119565821D01*
X117644500Y-121052129D01*
X117644501Y-121052136D01*
X117660484Y-121132494D01*
X117660485Y-121132496D01*
X117721373Y-121223620D01*
X117721376Y-121223624D01*
X117812505Y-121284515D01*
X117892867Y-121300500D01*
X118097132Y-121300499D01*
X118107614Y-121298414D01*
X118168375Y-121305606D01*
X118213305Y-121347139D01*
X118218392Y-121357625D01*
X118219500Y-121360299D01*
X118219500Y-121360300D01*
X118261443Y-121461558D01*
X118338942Y-121539057D01*
X118440200Y-121581000D01*
X118440201Y-121581000D01*
X118549800Y-121581000D01*
X118576994Y-121569736D01*
X118614879Y-121562200D01*
X118997284Y-121562200D01*
X119055475Y-121581107D01*
X119088749Y-121623317D01*
X119089842Y-121625957D01*
X119331743Y-121867859D01*
X119432998Y-121909800D01*
X119433000Y-121909800D01*
X119560200Y-121909800D01*
X119587394Y-121898536D01*
X119625279Y-121891000D01*
X120192162Y-121891000D01*
X120239335Y-121871460D01*
X120286509Y-121851920D01*
X120361650Y-121776777D01*
X120393766Y-121755319D01*
X120420958Y-121744057D01*
X120801044Y-121363970D01*
X120855559Y-121336194D01*
X120912884Y-121344250D01*
X120976827Y-121374068D01*
X121025684Y-121380500D01*
X121218400Y-121380500D01*
X121276591Y-121399407D01*
X121312555Y-121448907D01*
X121317400Y-121479500D01*
X121317400Y-121552492D01*
X121337085Y-121625957D01*
X121351509Y-121679790D01*
X121417396Y-121793909D01*
X121417398Y-121793911D01*
X121417400Y-121793914D01*
X121510586Y-121887100D01*
X121510588Y-121887101D01*
X121510590Y-121887103D01*
X121624710Y-121952990D01*
X121624708Y-121952990D01*
X121624712Y-121952991D01*
X121624714Y-121952992D01*
X121752008Y-121987100D01*
X121752010Y-121987100D01*
X121883790Y-121987100D01*
X121883792Y-121987100D01*
X122011086Y-121952992D01*
X122093918Y-121905168D01*
X122153764Y-121892447D01*
X122209660Y-121917333D01*
X122240253Y-121970321D01*
X122233858Y-122031171D01*
X122229154Y-122040404D01*
X122183309Y-122119810D01*
X122183308Y-122119814D01*
X122149200Y-122247108D01*
X122149200Y-122378892D01*
X122151359Y-122386948D01*
X122183309Y-122506190D01*
X122249196Y-122620309D01*
X122249198Y-122620311D01*
X122249200Y-122620314D01*
X122342386Y-122713500D01*
X122342388Y-122713501D01*
X122342390Y-122713503D01*
X122456510Y-122779390D01*
X122456508Y-122779390D01*
X122456512Y-122779391D01*
X122456514Y-122779392D01*
X122583808Y-122813500D01*
X122583810Y-122813500D01*
X122710550Y-122813500D01*
X122768741Y-122832407D01*
X122804705Y-122881907D01*
X122804705Y-122943093D01*
X122742752Y-123133761D01*
X122709500Y-123343709D01*
X122709500Y-123556290D01*
X122742752Y-123766238D01*
X122808443Y-123968412D01*
X122904948Y-124157815D01*
X122904950Y-124157819D01*
X123029891Y-124329786D01*
X123029893Y-124329788D01*
X123029896Y-124329792D01*
X123180208Y-124480104D01*
X123180211Y-124480106D01*
X123180213Y-124480108D01*
X123352180Y-124605049D01*
X123352184Y-124605051D01*
X123541588Y-124701557D01*
X123743757Y-124767246D01*
X123743758Y-124767246D01*
X123743761Y-124767247D01*
X123953710Y-124800500D01*
X123953713Y-124800500D01*
X124166290Y-124800500D01*
X124376238Y-124767247D01*
X124376239Y-124767246D01*
X124376243Y-124767246D01*
X124578412Y-124701557D01*
X124767816Y-124605051D01*
X124939792Y-124480104D01*
X125090104Y-124329792D01*
X125213102Y-124160499D01*
X125215049Y-124157819D01*
X125215051Y-124157816D01*
X125311557Y-123968412D01*
X125377246Y-123766243D01*
X125377247Y-123766238D01*
X125410500Y-123556290D01*
X125410500Y-123343709D01*
X125377247Y-123133761D01*
X125375863Y-123129500D01*
X125311557Y-122931588D01*
X125215051Y-122742184D01*
X125215049Y-122742180D01*
X125090108Y-122570213D01*
X125090106Y-122570211D01*
X125090104Y-122570208D01*
X124939792Y-122419896D01*
X124939788Y-122419893D01*
X124939786Y-122419891D01*
X124767819Y-122294950D01*
X124767815Y-122294948D01*
X124578412Y-122198443D01*
X124376238Y-122132752D01*
X124166290Y-122099500D01*
X124166287Y-122099500D01*
X123953713Y-122099500D01*
X123953710Y-122099500D01*
X123832728Y-122118661D01*
X123772295Y-122109089D01*
X123729031Y-122065825D01*
X123719460Y-122005392D01*
X123747236Y-121950878D01*
X123944620Y-121753496D01*
X123999136Y-121725719D01*
X124014623Y-121724500D01*
X125638999Y-121724500D01*
X125639000Y-121724500D01*
X125740258Y-121682557D01*
X125817757Y-121605058D01*
X126671657Y-120751158D01*
X126675580Y-120741686D01*
X126675581Y-120741686D01*
X126675581Y-120741682D01*
X126713600Y-120649900D01*
X126713600Y-120410189D01*
X126732507Y-120351998D01*
X126782007Y-120316034D01*
X126843193Y-120316034D01*
X126882601Y-120340183D01*
X127393188Y-120850770D01*
X127440344Y-120877995D01*
X127452980Y-120885291D01*
X127458373Y-120888405D01*
X127473112Y-120896914D01*
X127562256Y-120920800D01*
X127811912Y-120920800D01*
X127870103Y-120939707D01*
X127906067Y-120989207D01*
X127906067Y-121050393D01*
X127894228Y-121074801D01*
X127849058Y-121142402D01*
X127769869Y-121333581D01*
X127729500Y-121536532D01*
X127729500Y-121743467D01*
X127769869Y-121946418D01*
X127849058Y-122137597D01*
X127964020Y-122309651D01*
X127964023Y-122309655D01*
X128110345Y-122455977D01*
X128282402Y-122570941D01*
X128473580Y-122650130D01*
X128676535Y-122690500D01*
X128676536Y-122690500D01*
X128883464Y-122690500D01*
X128883465Y-122690500D01*
X129086420Y-122650130D01*
X129277598Y-122570941D01*
X129449655Y-122455977D01*
X129530498Y-122375133D01*
X129585013Y-122347358D01*
X129645445Y-122356929D01*
X129688710Y-122400194D01*
X129699500Y-122445139D01*
X129699500Y-122956144D01*
X129720323Y-123033856D01*
X129720323Y-123033858D01*
X129723383Y-123045282D01*
X129723384Y-123045284D01*
X129723385Y-123045287D01*
X129723386Y-123045288D01*
X129769530Y-123125212D01*
X130050345Y-123406027D01*
X130324025Y-123679707D01*
X130351802Y-123734224D01*
X130345485Y-123787596D01*
X130309870Y-123873578D01*
X130309870Y-123873580D01*
X130269500Y-124076532D01*
X130269500Y-124283467D01*
X130309869Y-124486418D01*
X130389058Y-124677597D01*
X130504020Y-124849651D01*
X130504023Y-124849655D01*
X130650345Y-124995977D01*
X130650348Y-124995979D01*
X130683580Y-125018184D01*
X130721460Y-125066234D01*
X130723862Y-125127373D01*
X130689869Y-125178246D01*
X130632466Y-125199424D01*
X130628579Y-125199500D01*
X129471421Y-125199500D01*
X129413230Y-125180593D01*
X129377266Y-125131093D01*
X129377266Y-125069907D01*
X129413230Y-125020407D01*
X129416420Y-125018184D01*
X129425152Y-125012348D01*
X129449655Y-124995977D01*
X129595977Y-124849655D01*
X129710941Y-124677598D01*
X129790130Y-124486420D01*
X129830500Y-124283465D01*
X129830500Y-124076535D01*
X129790130Y-123873580D01*
X129710941Y-123682402D01*
X129595977Y-123510345D01*
X129449655Y-123364023D01*
X129449651Y-123364020D01*
X129277597Y-123249058D01*
X129086418Y-123169869D01*
X128883467Y-123129500D01*
X128883465Y-123129500D01*
X128676535Y-123129500D01*
X128676532Y-123129500D01*
X128473581Y-123169869D01*
X128282402Y-123249058D01*
X128110348Y-123364020D01*
X127964020Y-123510348D01*
X127849058Y-123682402D01*
X127769869Y-123873581D01*
X127729500Y-124076532D01*
X127729500Y-124283467D01*
X127769869Y-124486418D01*
X127849058Y-124677597D01*
X127964020Y-124849651D01*
X127964023Y-124849655D01*
X128110345Y-124995977D01*
X128110348Y-124995979D01*
X128143580Y-125018184D01*
X128181460Y-125066234D01*
X128183862Y-125127373D01*
X128149869Y-125178246D01*
X128092466Y-125199424D01*
X128088579Y-125199500D01*
X103361421Y-125199500D01*
X103303230Y-125180593D01*
X103267266Y-125131093D01*
X103267266Y-125069907D01*
X103303230Y-125020407D01*
X103306420Y-125018184D01*
X103315152Y-125012348D01*
X103339655Y-124995977D01*
X103485977Y-124849655D01*
X103600941Y-124677598D01*
X103680130Y-124486420D01*
X103720500Y-124283465D01*
X103720500Y-124076535D01*
X103680130Y-123873580D01*
X103600941Y-123682402D01*
X103485977Y-123510345D01*
X103339655Y-123364023D01*
X103339651Y-123364020D01*
X103309253Y-123343709D01*
X108579500Y-123343709D01*
X108579500Y-123556290D01*
X108612752Y-123766238D01*
X108678443Y-123968412D01*
X108774948Y-124157815D01*
X108774950Y-124157819D01*
X108899891Y-124329786D01*
X108899893Y-124329788D01*
X108899896Y-124329792D01*
X109050208Y-124480104D01*
X109050211Y-124480106D01*
X109050213Y-124480108D01*
X109222180Y-124605049D01*
X109222184Y-124605051D01*
X109411588Y-124701557D01*
X109613757Y-124767246D01*
X109613758Y-124767246D01*
X109613761Y-124767247D01*
X109823710Y-124800500D01*
X109823713Y-124800500D01*
X110036290Y-124800500D01*
X110246238Y-124767247D01*
X110246239Y-124767246D01*
X110246243Y-124767246D01*
X110448412Y-124701557D01*
X110637816Y-124605051D01*
X110809792Y-124480104D01*
X110960104Y-124329792D01*
X111083102Y-124160499D01*
X111085049Y-124157819D01*
X111085051Y-124157816D01*
X111181557Y-123968412D01*
X111247246Y-123766243D01*
X111247247Y-123766238D01*
X111280500Y-123556290D01*
X111280500Y-123343709D01*
X111247247Y-123133761D01*
X111245863Y-123129500D01*
X111181557Y-122931588D01*
X111085051Y-122742184D01*
X111085049Y-122742180D01*
X110960108Y-122570213D01*
X110960106Y-122570211D01*
X110960104Y-122570208D01*
X110809792Y-122419896D01*
X110809788Y-122419893D01*
X110809786Y-122419891D01*
X110637819Y-122294950D01*
X110637815Y-122294948D01*
X110448412Y-122198443D01*
X110246238Y-122132752D01*
X110036290Y-122099500D01*
X110036287Y-122099500D01*
X109823713Y-122099500D01*
X109823710Y-122099500D01*
X109613761Y-122132752D01*
X109411587Y-122198443D01*
X109222184Y-122294948D01*
X109222180Y-122294950D01*
X109050213Y-122419891D01*
X108899891Y-122570213D01*
X108774950Y-122742180D01*
X108774948Y-122742184D01*
X108678443Y-122931587D01*
X108612752Y-123133761D01*
X108579500Y-123343709D01*
X103309253Y-123343709D01*
X103167597Y-123249058D01*
X102976418Y-123169869D01*
X102773467Y-123129500D01*
X102773465Y-123129500D01*
X102566535Y-123129500D01*
X102566532Y-123129500D01*
X102363581Y-123169869D01*
X102172402Y-123249058D01*
X102000348Y-123364020D01*
X101854020Y-123510348D01*
X101739058Y-123682402D01*
X101659869Y-123873581D01*
X101619500Y-124076532D01*
X101619500Y-124283467D01*
X101659869Y-124486418D01*
X101739058Y-124677597D01*
X101854020Y-124849651D01*
X101854023Y-124849655D01*
X102000345Y-124995977D01*
X102000348Y-124995979D01*
X102033580Y-125018184D01*
X102071460Y-125066234D01*
X102073862Y-125127373D01*
X102039869Y-125178246D01*
X101982466Y-125199424D01*
X101978579Y-125199500D01*
X100507790Y-125199500D01*
X100492304Y-125198281D01*
X100478090Y-125196029D01*
X100453835Y-125192188D01*
X100424381Y-125182618D01*
X100396707Y-125168517D01*
X100371652Y-125150314D01*
X100349685Y-125128347D01*
X100331483Y-125103294D01*
X100317379Y-125075614D01*
X100307811Y-125046162D01*
X100301719Y-125007695D01*
X100300500Y-124992209D01*
X100300500Y-100507789D01*
X100301719Y-100492303D01*
X100303210Y-100482882D01*
X100307811Y-100453834D01*
X100317379Y-100424386D01*
X100331485Y-100396701D01*
X100349682Y-100371654D01*
X100371654Y-100349682D01*
X100396701Y-100331485D01*
X100424386Y-100317379D01*
X100453834Y-100307811D01*
X100482882Y-100303210D01*
X100492303Y-100301719D01*
X100507789Y-100300500D01*
X100547593Y-100300500D01*
X101528656Y-100300500D01*
X101586847Y-100319407D01*
G37*
%TD.AperFunction*%
%TA.AperFunction,Conductor*%
G36*
X133497696Y-100301719D02*
G01*
X133512753Y-100304103D01*
X133536162Y-100307811D01*
X133565614Y-100317379D01*
X133593294Y-100331483D01*
X133618347Y-100349685D01*
X133640314Y-100371652D01*
X133658517Y-100396707D01*
X133672618Y-100424381D01*
X133682188Y-100453835D01*
X133688281Y-100492301D01*
X133689500Y-100507789D01*
X133689500Y-124992208D01*
X133688281Y-125007697D01*
X133682188Y-125046161D01*
X133672618Y-125075614D01*
X133658519Y-125103287D01*
X133640312Y-125128349D01*
X133618349Y-125150312D01*
X133593287Y-125168519D01*
X133565614Y-125182618D01*
X133536162Y-125192188D01*
X133514537Y-125195613D01*
X133497692Y-125198281D01*
X133482209Y-125199500D01*
X132011421Y-125199500D01*
X131953230Y-125180593D01*
X131917266Y-125131093D01*
X131917266Y-125069907D01*
X131953230Y-125020407D01*
X131956420Y-125018184D01*
X131965152Y-125012348D01*
X131989655Y-124995977D01*
X132135977Y-124849655D01*
X132250941Y-124677598D01*
X132330130Y-124486420D01*
X132370500Y-124283465D01*
X132370500Y-124076535D01*
X132330130Y-123873580D01*
X132250941Y-123682402D01*
X132135977Y-123510345D01*
X131989655Y-123364023D01*
X131989651Y-123364020D01*
X131817597Y-123249058D01*
X131626418Y-123169869D01*
X131423467Y-123129500D01*
X131423465Y-123129500D01*
X131216535Y-123129500D01*
X131216532Y-123129500D01*
X131013580Y-123169870D01*
X131013578Y-123169870D01*
X130927596Y-123205485D01*
X130866599Y-123210285D01*
X130819707Y-123184025D01*
X130429496Y-122793814D01*
X130401719Y-122739297D01*
X130400500Y-122723810D01*
X130400500Y-122445139D01*
X130419407Y-122386948D01*
X130468907Y-122350984D01*
X130530093Y-122350984D01*
X130569501Y-122375133D01*
X130650345Y-122455977D01*
X130822402Y-122570941D01*
X131013580Y-122650130D01*
X131216535Y-122690500D01*
X131216536Y-122690500D01*
X131423464Y-122690500D01*
X131423465Y-122690500D01*
X131626420Y-122650130D01*
X131817598Y-122570941D01*
X131989655Y-122455977D01*
X132135977Y-122309655D01*
X132250941Y-122137598D01*
X132330130Y-121946420D01*
X132370500Y-121743465D01*
X132370500Y-121536535D01*
X132330130Y-121333580D01*
X132250941Y-121142402D01*
X132135977Y-120970345D01*
X131989655Y-120824023D01*
X131989651Y-120824020D01*
X131817597Y-120709058D01*
X131626418Y-120629869D01*
X131423467Y-120589500D01*
X131423465Y-120589500D01*
X131216535Y-120589500D01*
X131216532Y-120589500D01*
X131013581Y-120629869D01*
X130822402Y-120709058D01*
X130650348Y-120824020D01*
X130504020Y-120970348D01*
X130452203Y-121047899D01*
X130404153Y-121085779D01*
X130343014Y-121088181D01*
X130299885Y-121062903D01*
X129426612Y-120189630D01*
X129426609Y-120189628D01*
X129357140Y-120149520D01*
X129316199Y-120104051D01*
X129309803Y-120043201D01*
X129340396Y-119990213D01*
X129351632Y-119981473D01*
X129449655Y-119915977D01*
X129595977Y-119769655D01*
X129710941Y-119597598D01*
X129790130Y-119406420D01*
X129830500Y-119203465D01*
X129830500Y-118996535D01*
X129830499Y-118996532D01*
X130269500Y-118996532D01*
X130269500Y-119203467D01*
X130309869Y-119406418D01*
X130389058Y-119597597D01*
X130492551Y-119752486D01*
X130504023Y-119769655D01*
X130650345Y-119915977D01*
X130822402Y-120030941D01*
X131013580Y-120110130D01*
X131216535Y-120150500D01*
X131216536Y-120150500D01*
X131423464Y-120150500D01*
X131423465Y-120150500D01*
X131626420Y-120110130D01*
X131817598Y-120030941D01*
X131989655Y-119915977D01*
X132135977Y-119769655D01*
X132250941Y-119597598D01*
X132330130Y-119406420D01*
X132370500Y-119203465D01*
X132370500Y-118996535D01*
X132330130Y-118793580D01*
X132250941Y-118602402D01*
X132135977Y-118430345D01*
X131989655Y-118284023D01*
X131965561Y-118267924D01*
X131817597Y-118169058D01*
X131626418Y-118089869D01*
X131423467Y-118049500D01*
X131423465Y-118049500D01*
X131216535Y-118049500D01*
X131216532Y-118049500D01*
X131013581Y-118089869D01*
X130822402Y-118169058D01*
X130650348Y-118284020D01*
X130504020Y-118430348D01*
X130389058Y-118602402D01*
X130309869Y-118793581D01*
X130269500Y-118996532D01*
X129830499Y-118996532D01*
X129790130Y-118793580D01*
X129710941Y-118602402D01*
X129595977Y-118430345D01*
X129449655Y-118284023D01*
X129425561Y-118267924D01*
X129277597Y-118169058D01*
X129086418Y-118089869D01*
X128883467Y-118049500D01*
X128883465Y-118049500D01*
X128676535Y-118049500D01*
X128676532Y-118049500D01*
X128473581Y-118089869D01*
X128282402Y-118169058D01*
X128110348Y-118284020D01*
X127964020Y-118430348D01*
X127849058Y-118602402D01*
X127769869Y-118793581D01*
X127739461Y-118946453D01*
X127709564Y-118999837D01*
X127653999Y-119025453D01*
X127593989Y-119013516D01*
X127572359Y-118997143D01*
X127423396Y-118848180D01*
X127395619Y-118793663D01*
X127394400Y-118778176D01*
X127394400Y-117190000D01*
X127364741Y-117118398D01*
X127364741Y-117118397D01*
X127355240Y-117095460D01*
X127352457Y-117088741D01*
X126720248Y-116456532D01*
X127729500Y-116456532D01*
X127729500Y-116663467D01*
X127769869Y-116866418D01*
X127849058Y-117057597D01*
X127961270Y-117225535D01*
X127964023Y-117229655D01*
X128110345Y-117375977D01*
X128282402Y-117490941D01*
X128473580Y-117570130D01*
X128676535Y-117610500D01*
X128676536Y-117610500D01*
X128883464Y-117610500D01*
X128883465Y-117610500D01*
X129086420Y-117570130D01*
X129277598Y-117490941D01*
X129449655Y-117375977D01*
X129595977Y-117229655D01*
X129710941Y-117057598D01*
X129790130Y-116866420D01*
X129830500Y-116663465D01*
X129830500Y-116456535D01*
X129830499Y-116456532D01*
X130269500Y-116456532D01*
X130269500Y-116663467D01*
X130309869Y-116866418D01*
X130389058Y-117057597D01*
X130501270Y-117225535D01*
X130504023Y-117229655D01*
X130650345Y-117375977D01*
X130822402Y-117490941D01*
X131013580Y-117570130D01*
X131216535Y-117610500D01*
X131216536Y-117610500D01*
X131423464Y-117610500D01*
X131423465Y-117610500D01*
X131626420Y-117570130D01*
X131817598Y-117490941D01*
X131989655Y-117375977D01*
X132135977Y-117229655D01*
X132250941Y-117057598D01*
X132330130Y-116866420D01*
X132370500Y-116663465D01*
X132370500Y-116456535D01*
X132330130Y-116253580D01*
X132250941Y-116062402D01*
X132135977Y-115890345D01*
X131989655Y-115744023D01*
X131983917Y-115740189D01*
X131817597Y-115629058D01*
X131626418Y-115549869D01*
X131423467Y-115509500D01*
X131423465Y-115509500D01*
X131216535Y-115509500D01*
X131216532Y-115509500D01*
X131013581Y-115549869D01*
X130822402Y-115629058D01*
X130650348Y-115744020D01*
X130504020Y-115890348D01*
X130389058Y-116062402D01*
X130309869Y-116253581D01*
X130269500Y-116456532D01*
X129830499Y-116456532D01*
X129790130Y-116253580D01*
X129710941Y-116062402D01*
X129595977Y-115890345D01*
X129449655Y-115744023D01*
X129443917Y-115740189D01*
X129277597Y-115629058D01*
X129086418Y-115549869D01*
X128883467Y-115509500D01*
X128883465Y-115509500D01*
X128676535Y-115509500D01*
X128676532Y-115509500D01*
X128473581Y-115549869D01*
X128282402Y-115629058D01*
X128110348Y-115744020D01*
X127964020Y-115890348D01*
X127849058Y-116062402D01*
X127769869Y-116253581D01*
X127729500Y-116456532D01*
X126720248Y-116456532D01*
X125529496Y-115265780D01*
X125501719Y-115211263D01*
X125500500Y-115195776D01*
X125500500Y-115160800D01*
X125519407Y-115102609D01*
X125568907Y-115066645D01*
X125599500Y-115061800D01*
X128068499Y-115061800D01*
X128068500Y-115061800D01*
X128169758Y-115019857D01*
X128204708Y-114984906D01*
X128259223Y-114957131D01*
X128312596Y-114963448D01*
X128357444Y-114982024D01*
X128473580Y-115030130D01*
X128676535Y-115070500D01*
X128676536Y-115070500D01*
X128883464Y-115070500D01*
X128883465Y-115070500D01*
X129086420Y-115030130D01*
X129277598Y-114950941D01*
X129449655Y-114835977D01*
X129595977Y-114689655D01*
X129710941Y-114517598D01*
X129790130Y-114326420D01*
X129830500Y-114123465D01*
X129830500Y-113916535D01*
X129790130Y-113713580D01*
X129710941Y-113522402D01*
X129595977Y-113350345D01*
X129594333Y-113348701D01*
X129593850Y-113347754D01*
X129592894Y-113346588D01*
X129593149Y-113346377D01*
X129566558Y-113294187D01*
X129576129Y-113233755D01*
X129619394Y-113190490D01*
X129664339Y-113179700D01*
X130435661Y-113179700D01*
X130493852Y-113198607D01*
X130529816Y-113248107D01*
X130529816Y-113309293D01*
X130507009Y-113346509D01*
X130507106Y-113346588D01*
X130506536Y-113347282D01*
X130505666Y-113348701D01*
X130504023Y-113350345D01*
X130504020Y-113350348D01*
X130389058Y-113522402D01*
X130309869Y-113713581D01*
X130269500Y-113916532D01*
X130269500Y-114123467D01*
X130309869Y-114326418D01*
X130389058Y-114517597D01*
X130389059Y-114517598D01*
X130504023Y-114689655D01*
X130650345Y-114835977D01*
X130822402Y-114950941D01*
X131013580Y-115030130D01*
X131216535Y-115070500D01*
X131216536Y-115070500D01*
X131423464Y-115070500D01*
X131423465Y-115070500D01*
X131626420Y-115030130D01*
X131817598Y-114950941D01*
X131989655Y-114835977D01*
X132135977Y-114689655D01*
X132250941Y-114517598D01*
X132330130Y-114326420D01*
X132370500Y-114123465D01*
X132370500Y-113916535D01*
X132330130Y-113713580D01*
X132250941Y-113522402D01*
X132135977Y-113350345D01*
X131989655Y-113204023D01*
X131989651Y-113204020D01*
X131817597Y-113089058D01*
X131803271Y-113083124D01*
X131756747Y-113043386D01*
X131742465Y-112983890D01*
X131765882Y-112927363D01*
X131771142Y-112921671D01*
X132630957Y-112061858D01*
X132672900Y-111960600D01*
X132672900Y-111851000D01*
X132672900Y-109962600D01*
X132664408Y-109942099D01*
X132663610Y-109940173D01*
X132630958Y-109861342D01*
X132284908Y-109515291D01*
X132257131Y-109460775D01*
X132263447Y-109407404D01*
X132330130Y-109246420D01*
X132370500Y-109043465D01*
X132370500Y-108836535D01*
X132330130Y-108633580D01*
X132250941Y-108442402D01*
X132135977Y-108270345D01*
X131989655Y-108124023D01*
X131989646Y-108124017D01*
X131880673Y-108051204D01*
X131817598Y-108009059D01*
X131817596Y-108009058D01*
X131817593Y-108009056D01*
X131813309Y-108006766D01*
X131814381Y-108004759D01*
X131774609Y-107970751D01*
X131760359Y-107911248D01*
X131783805Y-107854733D01*
X131789030Y-107849083D01*
X132644657Y-106993459D01*
X132645443Y-106991562D01*
X132667031Y-106939444D01*
X132667031Y-106939443D01*
X132671705Y-106928159D01*
X132686600Y-106892200D01*
X132686600Y-105939500D01*
X132644657Y-105838242D01*
X132611243Y-105804828D01*
X132567158Y-105760742D01*
X132567158Y-105760743D01*
X131766631Y-104960216D01*
X131738854Y-104905699D01*
X131748425Y-104845267D01*
X131791690Y-104802002D01*
X131798737Y-104798753D01*
X131817598Y-104790941D01*
X131989655Y-104675977D01*
X132135977Y-104529655D01*
X132250941Y-104357598D01*
X132330130Y-104166420D01*
X132370500Y-103963465D01*
X132370500Y-103756535D01*
X132330130Y-103553580D01*
X132250941Y-103362402D01*
X132135977Y-103190345D01*
X131989655Y-103044023D01*
X131871388Y-102965000D01*
X131817597Y-102929058D01*
X131626418Y-102849869D01*
X131423467Y-102809500D01*
X131423465Y-102809500D01*
X131216535Y-102809500D01*
X131216532Y-102809500D01*
X131013581Y-102849869D01*
X130822402Y-102929058D01*
X130650348Y-103044020D01*
X130504020Y-103190348D01*
X130389058Y-103362402D01*
X130309869Y-103553581D01*
X130269500Y-103756532D01*
X130269500Y-103963467D01*
X130309869Y-104166418D01*
X130389058Y-104357597D01*
X130504020Y-104529651D01*
X130504023Y-104529655D01*
X130594566Y-104620198D01*
X130622342Y-104674713D01*
X130612771Y-104735145D01*
X130569506Y-104778410D01*
X130524561Y-104789200D01*
X129575439Y-104789200D01*
X129517248Y-104770293D01*
X129481284Y-104720793D01*
X129481284Y-104659607D01*
X129505433Y-104620198D01*
X129595977Y-104529655D01*
X129710941Y-104357598D01*
X129790130Y-104166420D01*
X129830500Y-103963465D01*
X129830500Y-103756535D01*
X129790130Y-103553580D01*
X129710941Y-103362402D01*
X129595977Y-103190345D01*
X129449655Y-103044023D01*
X129331388Y-102965000D01*
X129277597Y-102929058D01*
X129086418Y-102849869D01*
X128883467Y-102809500D01*
X128883465Y-102809500D01*
X128676535Y-102809500D01*
X128676532Y-102809500D01*
X128473581Y-102849869D01*
X128282402Y-102929058D01*
X128110348Y-103044020D01*
X127964020Y-103190348D01*
X127849058Y-103362402D01*
X127769869Y-103553581D01*
X127729500Y-103756532D01*
X127729500Y-103963467D01*
X127769869Y-104166418D01*
X127849058Y-104357597D01*
X127964020Y-104529651D01*
X127964023Y-104529655D01*
X128054566Y-104620198D01*
X128082342Y-104674713D01*
X128072771Y-104735145D01*
X128029506Y-104778410D01*
X127984561Y-104789200D01*
X126718521Y-104789200D01*
X126660330Y-104770293D01*
X126648517Y-104760204D01*
X126645701Y-104757388D01*
X126645700Y-104757386D01*
X126552514Y-104664200D01*
X126552511Y-104664198D01*
X126552509Y-104664196D01*
X126438389Y-104598309D01*
X126438391Y-104598309D01*
X126388999Y-104585075D01*
X126311092Y-104564200D01*
X126179308Y-104564200D01*
X126101400Y-104585075D01*
X126052009Y-104598309D01*
X125937890Y-104664196D01*
X125844696Y-104757390D01*
X125778809Y-104871510D01*
X125778808Y-104871513D01*
X125776208Y-104881216D01*
X125742883Y-104932530D01*
X125685761Y-104954455D01*
X125626661Y-104938618D01*
X125590858Y-104897430D01*
X125547851Y-104805203D01*
X125547850Y-104805202D01*
X125547850Y-104805201D01*
X125469799Y-104727150D01*
X125369760Y-104680501D01*
X125324179Y-104674500D01*
X125324178Y-104674500D01*
X125028488Y-104674500D01*
X124970297Y-104655593D01*
X124934333Y-104606093D01*
X124934333Y-104544907D01*
X124958482Y-104505498D01*
X127560496Y-101903485D01*
X127615013Y-101875708D01*
X127675445Y-101885279D01*
X127718710Y-101928544D01*
X127729500Y-101973489D01*
X127729500Y-102189746D01*
X127729501Y-102189758D01*
X127741132Y-102248227D01*
X127741133Y-102248231D01*
X127785448Y-102314552D01*
X127851769Y-102358867D01*
X127888831Y-102366239D01*
X127910241Y-102370498D01*
X127910246Y-102370498D01*
X127910252Y-102370500D01*
X127910253Y-102370500D01*
X129649747Y-102370500D01*
X129649748Y-102370500D01*
X129708231Y-102358867D01*
X129774552Y-102314552D01*
X129818867Y-102248231D01*
X129830500Y-102189748D01*
X129830500Y-100450252D01*
X129830499Y-100450250D01*
X129830499Y-100450244D01*
X129824247Y-100418816D01*
X129831437Y-100358055D01*
X129872969Y-100313124D01*
X129921344Y-100300500D01*
X133442406Y-100300500D01*
X133482210Y-100300500D01*
X133497696Y-100301719D01*
G37*
%TD.AperFunction*%
%TA.AperFunction,Conductor*%
G36*
X126010232Y-119902446D02*
G01*
X126015410Y-119904590D01*
X126015411Y-119904590D01*
X126015414Y-119904592D01*
X126089223Y-119924369D01*
X126140537Y-119957692D01*
X126162464Y-120014813D01*
X126162600Y-120019995D01*
X126162600Y-120439977D01*
X126143693Y-120498168D01*
X126133604Y-120509981D01*
X125499081Y-121144504D01*
X125444564Y-121172281D01*
X125429077Y-121173500D01*
X123804698Y-121173500D01*
X123703444Y-121215440D01*
X123042029Y-121876855D01*
X122987512Y-121904632D01*
X122927080Y-121895061D01*
X122922525Y-121892587D01*
X122842889Y-121846609D01*
X122842891Y-121846609D01*
X122793499Y-121833375D01*
X122715592Y-121812500D01*
X122583808Y-121812500D01*
X122536623Y-121825143D01*
X122468556Y-121843381D01*
X122407455Y-121840178D01*
X122359905Y-121801673D01*
X122344070Y-121742572D01*
X122365997Y-121685451D01*
X122372921Y-121677760D01*
X122533896Y-121516786D01*
X122591187Y-121459496D01*
X122645703Y-121431719D01*
X122661190Y-121430500D01*
X122825524Y-121430500D01*
X122825528Y-121430500D01*
X122893170Y-121420645D01*
X122997511Y-121369636D01*
X123079636Y-121287511D01*
X123130645Y-121183170D01*
X123140500Y-121115528D01*
X123140500Y-120754472D01*
X123130645Y-120686830D01*
X123079636Y-120582489D01*
X123017148Y-120520001D01*
X122989373Y-120465487D01*
X122998944Y-120405055D01*
X123017147Y-120379999D01*
X123079636Y-120317511D01*
X123082809Y-120311021D01*
X123125351Y-120267046D01*
X123171750Y-120255500D01*
X123179077Y-120255500D01*
X123237268Y-120274407D01*
X123260261Y-120302300D01*
X123261806Y-120301219D01*
X123266772Y-120308311D01*
X123266775Y-120308314D01*
X123266776Y-120308316D01*
X123351684Y-120393224D01*
X123460513Y-120443972D01*
X123510099Y-120450500D01*
X123929900Y-120450499D01*
X123979487Y-120443972D01*
X123979488Y-120443972D01*
X124043391Y-120414173D01*
X124088316Y-120393224D01*
X124173224Y-120308316D01*
X124173225Y-120308312D01*
X124173227Y-120308311D01*
X124178194Y-120301219D01*
X124180416Y-120302775D01*
X124212929Y-120267911D01*
X124260923Y-120255500D01*
X124379077Y-120255500D01*
X124437268Y-120274407D01*
X124460261Y-120302300D01*
X124461806Y-120301219D01*
X124466772Y-120308311D01*
X124466775Y-120308314D01*
X124466776Y-120308316D01*
X124551684Y-120393224D01*
X124660513Y-120443972D01*
X124710099Y-120450500D01*
X125129900Y-120450499D01*
X125179487Y-120443972D01*
X125179488Y-120443972D01*
X125243391Y-120414173D01*
X125288316Y-120393224D01*
X125373224Y-120308316D01*
X125373225Y-120308312D01*
X125373227Y-120308311D01*
X125378194Y-120301219D01*
X125380416Y-120302775D01*
X125412929Y-120267911D01*
X125460923Y-120255500D01*
X125592851Y-120255500D01*
X125592853Y-120255500D01*
X125675638Y-120233318D01*
X125749862Y-120190465D01*
X125810465Y-120129862D01*
X125853318Y-120055638D01*
X125875500Y-119972853D01*
X125875500Y-119972849D01*
X125876722Y-119968289D01*
X125910046Y-119916974D01*
X125967167Y-119895047D01*
X126010232Y-119902446D01*
G37*
%TD.AperFunction*%
%TA.AperFunction,Conductor*%
G36*
X125183691Y-118978907D02*
G01*
X125219655Y-119028407D01*
X125224500Y-119059000D01*
X125224500Y-119390500D01*
X125205593Y-119448691D01*
X125156093Y-119484655D01*
X125125500Y-119489500D01*
X124710103Y-119489500D01*
X124710092Y-119489501D01*
X124660513Y-119496027D01*
X124660511Y-119496027D01*
X124551686Y-119546774D01*
X124522955Y-119575505D01*
X124468438Y-119603281D01*
X124452952Y-119604500D01*
X124187048Y-119604500D01*
X124128857Y-119585593D01*
X124117045Y-119575505D01*
X124107361Y-119565821D01*
X124088316Y-119546776D01*
X124088314Y-119546775D01*
X124088313Y-119546774D01*
X124088314Y-119546774D01*
X124082658Y-119544137D01*
X124037911Y-119502407D01*
X124025500Y-119454414D01*
X124025500Y-119059000D01*
X124044407Y-119000809D01*
X124093907Y-118964845D01*
X124124500Y-118960000D01*
X125125500Y-118960000D01*
X125183691Y-118978907D01*
G37*
%TD.AperFunction*%
%TA.AperFunction,Conductor*%
G36*
X111606399Y-117744407D02*
G01*
X111642363Y-117793907D01*
X111645306Y-117843814D01*
X111644500Y-117847864D01*
X111644500Y-118052129D01*
X111644501Y-118052137D01*
X111660484Y-118132494D01*
X111660485Y-118132496D01*
X111721373Y-118223620D01*
X111721376Y-118223624D01*
X111812505Y-118284515D01*
X111892867Y-118300500D01*
X113272132Y-118300499D01*
X113289346Y-118297075D01*
X113350108Y-118304267D01*
X113395037Y-118345800D01*
X113404286Y-118368548D01*
X113410808Y-118392886D01*
X113410809Y-118392889D01*
X113454316Y-118468245D01*
X113467038Y-118528093D01*
X113442152Y-118583989D01*
X113389164Y-118614582D01*
X113349267Y-118614842D01*
X113299447Y-118604933D01*
X113272135Y-118599500D01*
X113272133Y-118599500D01*
X112628645Y-118599500D01*
X112628644Y-118599500D01*
X112536357Y-118599500D01*
X112536355Y-118599500D01*
X111892870Y-118599500D01*
X111892863Y-118599501D01*
X111812505Y-118615484D01*
X111812503Y-118615485D01*
X111721379Y-118676373D01*
X111721373Y-118676379D01*
X111660486Y-118767501D01*
X111660486Y-118767503D01*
X111660485Y-118767505D01*
X111644500Y-118847867D01*
X111644500Y-118949501D01*
X111644501Y-118980499D01*
X111625594Y-119038690D01*
X111576094Y-119074654D01*
X111545501Y-119079500D01*
X111212048Y-119079500D01*
X111153857Y-119060593D01*
X111142045Y-119050504D01*
X111098316Y-119006776D01*
X111098313Y-119006774D01*
X110989489Y-118956029D01*
X110989488Y-118956028D01*
X110972958Y-118953852D01*
X110939901Y-118949500D01*
X110939899Y-118949500D01*
X110520103Y-118949500D01*
X110520092Y-118949501D01*
X110470513Y-118956027D01*
X110470511Y-118956027D01*
X110361686Y-119006774D01*
X110276774Y-119091686D01*
X110245224Y-119159346D01*
X110203496Y-119204094D01*
X110143435Y-119215769D01*
X110087982Y-119189911D01*
X110058319Y-119136397D01*
X110056500Y-119117507D01*
X110056500Y-118844685D01*
X110056500Y-118844684D01*
X110050068Y-118795827D01*
X110049020Y-118793580D01*
X110000066Y-118688598D01*
X110000065Y-118688597D01*
X110000065Y-118688596D01*
X109981870Y-118670401D01*
X109954095Y-118615887D01*
X109963666Y-118555455D01*
X110006931Y-118512190D01*
X110051876Y-118501400D01*
X110108790Y-118501400D01*
X110108792Y-118501400D01*
X110236086Y-118467292D01*
X110236088Y-118467290D01*
X110236090Y-118467290D01*
X110350209Y-118401403D01*
X110350209Y-118401402D01*
X110350214Y-118401400D01*
X110443400Y-118308214D01*
X110457369Y-118284020D01*
X110509289Y-118194091D01*
X110509288Y-118194091D01*
X110509292Y-118194086D01*
X110513103Y-118179861D01*
X110546423Y-118128550D01*
X110603544Y-118106621D01*
X110658230Y-118119749D01*
X110681514Y-118133192D01*
X110808808Y-118167300D01*
X110808810Y-118167300D01*
X110940590Y-118167300D01*
X110940592Y-118167300D01*
X111067886Y-118133192D01*
X111067888Y-118133190D01*
X111067890Y-118133190D01*
X111182009Y-118067303D01*
X111182009Y-118067302D01*
X111182014Y-118067300D01*
X111275200Y-117974114D01*
X111275965Y-117972790D01*
X111324918Y-117888000D01*
X111341092Y-117859986D01*
X111357466Y-117798876D01*
X111390789Y-117747563D01*
X111447910Y-117725636D01*
X111453092Y-117725500D01*
X111548208Y-117725500D01*
X111606399Y-117744407D01*
G37*
%TD.AperFunction*%
%TA.AperFunction,Conductor*%
G36*
X122537801Y-115670215D02*
G01*
X122578186Y-115710600D01*
X122578188Y-115710601D01*
X122578190Y-115710603D01*
X122692310Y-115776490D01*
X122692308Y-115776490D01*
X122692312Y-115776491D01*
X122692314Y-115776492D01*
X122819608Y-115810600D01*
X122819610Y-115810600D01*
X122955377Y-115810600D01*
X123013568Y-115829507D01*
X123025375Y-115839591D01*
X123062704Y-115876919D01*
X123090481Y-115931434D01*
X123091700Y-115946922D01*
X123091700Y-116361000D01*
X123072793Y-116419191D01*
X123023293Y-116455155D01*
X122992700Y-116460000D01*
X122700000Y-116460000D01*
X122700000Y-116460001D01*
X122700000Y-117055679D01*
X122681093Y-117113870D01*
X122631593Y-117149834D01*
X122570407Y-117149834D01*
X122530998Y-117125684D01*
X122492314Y-117087000D01*
X122492311Y-117086998D01*
X122492309Y-117086996D01*
X122378189Y-117021109D01*
X122378191Y-117021109D01*
X122328038Y-117007671D01*
X122250892Y-116987000D01*
X122119108Y-116987000D01*
X122059454Y-117002983D01*
X121991808Y-117021109D01*
X121985816Y-117023592D01*
X121985052Y-117021749D01*
X121934137Y-117032565D01*
X121878245Y-117007671D01*
X121847660Y-116954679D01*
X121845499Y-116934109D01*
X121845499Y-116847870D01*
X121845498Y-116847862D01*
X121829515Y-116767506D01*
X121829515Y-116767505D01*
X121821159Y-116755000D01*
X121804551Y-116696114D01*
X121821159Y-116644999D01*
X121829515Y-116632495D01*
X121842948Y-116564959D01*
X121870043Y-116514271D01*
X121965123Y-116419191D01*
X122326858Y-116057458D01*
X122329064Y-116052132D01*
X122368800Y-115956201D01*
X122368800Y-115740221D01*
X122387707Y-115682030D01*
X122437207Y-115646066D01*
X122498393Y-115646066D01*
X122537801Y-115670215D01*
G37*
%TD.AperFunction*%
%TA.AperFunction,Conductor*%
G36*
X124908691Y-110441607D02*
G01*
X124944655Y-110491107D01*
X124949500Y-110521700D01*
X124949500Y-110954314D01*
X124955932Y-111003174D01*
X124955932Y-111003175D01*
X125005933Y-111110401D01*
X125005934Y-111110402D01*
X125005935Y-111110404D01*
X125089596Y-111194065D01*
X125089597Y-111194065D01*
X125089598Y-111194066D01*
X125196824Y-111244067D01*
X125196825Y-111244067D01*
X125196827Y-111244068D01*
X125245684Y-111250500D01*
X125503600Y-111250500D01*
X125561791Y-111269407D01*
X125597755Y-111318907D01*
X125602600Y-111349500D01*
X125602600Y-111374292D01*
X125629183Y-111473501D01*
X125636709Y-111501590D01*
X125702596Y-111615709D01*
X125702598Y-111615711D01*
X125702600Y-111615714D01*
X125795786Y-111708900D01*
X125795788Y-111708901D01*
X125795790Y-111708903D01*
X125909910Y-111774790D01*
X125909908Y-111774790D01*
X125909912Y-111774791D01*
X125909914Y-111774792D01*
X126037208Y-111808900D01*
X126037210Y-111808900D01*
X126168990Y-111808900D01*
X126168992Y-111808900D01*
X126296286Y-111774792D01*
X126296288Y-111774790D01*
X126296290Y-111774790D01*
X126410409Y-111708903D01*
X126410409Y-111708902D01*
X126410414Y-111708900D01*
X126503600Y-111615714D01*
X126525617Y-111577578D01*
X126571085Y-111536637D01*
X126631935Y-111530240D01*
X126681358Y-111557073D01*
X127583980Y-112459696D01*
X127611757Y-112514213D01*
X127602186Y-112574645D01*
X127558921Y-112617910D01*
X127513976Y-112628700D01*
X124751399Y-112628700D01*
X124679799Y-112658357D01*
X124679799Y-112658358D01*
X124650141Y-112670643D01*
X124026598Y-113294187D01*
X123426381Y-113894404D01*
X123371864Y-113922181D01*
X123356377Y-113923400D01*
X122377698Y-113923400D01*
X122276443Y-113965340D01*
X121972798Y-114268985D01*
X121918282Y-114296762D01*
X121857850Y-114287191D01*
X121820480Y-114253983D01*
X121768625Y-114176378D01*
X121768624Y-114176376D01*
X121750300Y-114164132D01*
X121677497Y-114115486D01*
X121677496Y-114115485D01*
X121677495Y-114115485D01*
X121597133Y-114099500D01*
X121597132Y-114099500D01*
X120217870Y-114099500D01*
X120217861Y-114099501D01*
X120167295Y-114109559D01*
X120138151Y-114106108D01*
X120108901Y-114103420D01*
X120107517Y-114102482D01*
X120106534Y-114102366D01*
X120104065Y-114100142D01*
X120077980Y-114082466D01*
X120067000Y-114071486D01*
X120045014Y-114049500D01*
X120045011Y-114049498D01*
X119939295Y-113988462D01*
X119898355Y-113942992D01*
X119891960Y-113882142D01*
X119918791Y-113832724D01*
X119968958Y-113782558D01*
X119968958Y-113782556D01*
X119972611Y-113778904D01*
X119972961Y-113778091D01*
X119974106Y-113777409D01*
X119975853Y-113775663D01*
X119976296Y-113776106D01*
X119993943Y-113765608D01*
X120013112Y-113750493D01*
X120019795Y-113750229D01*
X120025545Y-113746809D01*
X120049856Y-113749043D01*
X120074250Y-113748082D01*
X120082933Y-113752084D01*
X120086473Y-113752410D01*
X120089611Y-113755162D01*
X120102394Y-113761054D01*
X120137505Y-113784515D01*
X120217867Y-113800500D01*
X121597132Y-113800499D01*
X121677495Y-113784515D01*
X121768624Y-113723624D01*
X121829515Y-113632495D01*
X121845500Y-113552133D01*
X121845500Y-113547500D01*
X121864407Y-113489309D01*
X121913907Y-113453345D01*
X121944500Y-113448500D01*
X121952190Y-113448500D01*
X121952192Y-113448500D01*
X122079486Y-113414392D01*
X122079488Y-113414390D01*
X122079490Y-113414390D01*
X122193609Y-113348503D01*
X122193609Y-113348502D01*
X122193614Y-113348500D01*
X122286800Y-113255314D01*
X122352692Y-113141186D01*
X122386800Y-113013892D01*
X122386800Y-112882108D01*
X122352692Y-112754814D01*
X122352690Y-112754811D01*
X122352690Y-112754809D01*
X122286803Y-112640690D01*
X122286801Y-112640688D01*
X122286800Y-112640686D01*
X122193614Y-112547500D01*
X122193611Y-112547498D01*
X122193609Y-112547496D01*
X122079489Y-112481609D01*
X122079491Y-112481609D01*
X122025524Y-112467149D01*
X121952192Y-112447500D01*
X121820408Y-112447500D01*
X121799251Y-112453169D01*
X121735121Y-112470352D01*
X121674020Y-112467149D01*
X121626470Y-112428644D01*
X121610499Y-112374725D01*
X121610499Y-112300103D01*
X121610498Y-112300092D01*
X121603972Y-112250513D01*
X121603972Y-112250511D01*
X121553225Y-112141686D01*
X121553224Y-112141685D01*
X121553224Y-112141684D01*
X121468316Y-112056776D01*
X121468314Y-112056775D01*
X121468313Y-112056774D01*
X121359489Y-112006029D01*
X121359488Y-112006028D01*
X121342647Y-112003811D01*
X121309901Y-111999500D01*
X121309899Y-111999500D01*
X120890103Y-111999500D01*
X120890092Y-111999501D01*
X120840513Y-112006027D01*
X120840511Y-112006027D01*
X120731686Y-112056774D01*
X120646774Y-112141686D01*
X120596029Y-112250510D01*
X120596028Y-112250511D01*
X120589500Y-112300100D01*
X120589500Y-112659895D01*
X120589501Y-112659907D01*
X120596027Y-112709486D01*
X120596027Y-112709488D01*
X120646774Y-112818313D01*
X120646775Y-112818314D01*
X120646776Y-112818316D01*
X120720505Y-112892045D01*
X120748281Y-112946560D01*
X120749500Y-112962047D01*
X120749500Y-113000500D01*
X120730593Y-113058691D01*
X120681093Y-113094655D01*
X120650500Y-113099500D01*
X120338500Y-113099500D01*
X120280309Y-113080593D01*
X120244345Y-113031093D01*
X120239500Y-113000500D01*
X120239500Y-112007723D01*
X120258407Y-111949532D01*
X120268496Y-111937719D01*
X121018020Y-111188196D01*
X121072537Y-111160419D01*
X121088024Y-111159200D01*
X123497099Y-111159200D01*
X123497100Y-111159200D01*
X123598358Y-111117257D01*
X123675857Y-111039758D01*
X123675856Y-111039758D01*
X124263920Y-110451696D01*
X124318436Y-110423919D01*
X124333923Y-110422700D01*
X124850500Y-110422700D01*
X124908691Y-110441607D01*
G37*
%TD.AperFunction*%
%TA.AperFunction,Conductor*%
G36*
X127696847Y-100319407D02*
G01*
X127732811Y-100368907D01*
X127735753Y-100418816D01*
X127729500Y-100450244D01*
X127729500Y-100870500D01*
X127710593Y-100928691D01*
X127661093Y-100964655D01*
X127630500Y-100969500D01*
X127602156Y-100969500D01*
X127513012Y-100993386D01*
X127513011Y-100993386D01*
X127513009Y-100993387D01*
X127433090Y-101039529D01*
X123752114Y-104720504D01*
X123697597Y-104748281D01*
X123682110Y-104749500D01*
X123432933Y-104749500D01*
X123376150Y-104731597D01*
X123369800Y-104727151D01*
X123369799Y-104727150D01*
X123269760Y-104680501D01*
X123224179Y-104674500D01*
X123224177Y-104674500D01*
X122775826Y-104674500D01*
X122775814Y-104674501D01*
X122730240Y-104680500D01*
X122730238Y-104680500D01*
X122630203Y-104727148D01*
X122630201Y-104727150D01*
X122552150Y-104805201D01*
X122505501Y-104905240D01*
X122504809Y-104910500D01*
X122499500Y-104950822D01*
X122499500Y-105249173D01*
X122499501Y-105249181D01*
X122505500Y-105294759D01*
X122505500Y-105294761D01*
X122552148Y-105394796D01*
X122552149Y-105394797D01*
X122552150Y-105394799D01*
X122620505Y-105463154D01*
X122648281Y-105517669D01*
X122649500Y-105533156D01*
X122649500Y-106621144D01*
X122670658Y-106700108D01*
X122670658Y-106700109D01*
X122671124Y-106701847D01*
X122674500Y-106727478D01*
X122674500Y-106941310D01*
X122655593Y-106999501D01*
X122645504Y-107011314D01*
X121833726Y-107823092D01*
X121798455Y-107884183D01*
X121798456Y-107884184D01*
X121787586Y-107903011D01*
X121786819Y-107905874D01*
X121764718Y-107988359D01*
X121763700Y-107992157D01*
X121763700Y-108214380D01*
X121744793Y-108272571D01*
X121720656Y-108296050D01*
X121719582Y-108296785D01*
X121641789Y-108374578D01*
X121597353Y-108475216D01*
X121594500Y-108499808D01*
X121594500Y-108800180D01*
X121594500Y-108800182D01*
X121594501Y-108800184D01*
X121597354Y-108824786D01*
X121641789Y-108925422D01*
X121641790Y-108925423D01*
X121645495Y-108933814D01*
X121642205Y-108935266D01*
X121654711Y-108977780D01*
X121642641Y-109014925D01*
X121645495Y-109016186D01*
X121641790Y-109024576D01*
X121641789Y-109024578D01*
X121597354Y-109125214D01*
X121597354Y-109125215D01*
X121594500Y-109149808D01*
X121594500Y-109450180D01*
X121594500Y-109450182D01*
X121594501Y-109450184D01*
X121597354Y-109474786D01*
X121641789Y-109575422D01*
X121641790Y-109575423D01*
X121645495Y-109583814D01*
X121642205Y-109585266D01*
X121654711Y-109627780D01*
X121642641Y-109664925D01*
X121645495Y-109666186D01*
X121641789Y-109674577D01*
X121641789Y-109674578D01*
X121615511Y-109734093D01*
X121597353Y-109775216D01*
X121594500Y-109799808D01*
X121594500Y-109799814D01*
X121594501Y-110090600D01*
X121575594Y-110148790D01*
X121526094Y-110184754D01*
X121495501Y-110189600D01*
X120813400Y-110189600D01*
X120749830Y-110215932D01*
X120749829Y-110215932D01*
X120712141Y-110231542D01*
X119825284Y-111118398D01*
X119770768Y-111146175D01*
X119710336Y-111136604D01*
X119700284Y-111130712D01*
X119677495Y-111115485D01*
X119597133Y-111099500D01*
X119597132Y-111099500D01*
X119392870Y-111099500D01*
X119392860Y-111099501D01*
X119305812Y-111116815D01*
X119245051Y-111109622D01*
X119200122Y-111068089D01*
X119188186Y-111008079D01*
X119213804Y-110952514D01*
X119226243Y-110941167D01*
X119227103Y-110940506D01*
X119227114Y-110940500D01*
X119320300Y-110847314D01*
X119320303Y-110847309D01*
X119386190Y-110733190D01*
X119386190Y-110733188D01*
X119386192Y-110733186D01*
X119420300Y-110605892D01*
X119420300Y-110474108D01*
X119386192Y-110346814D01*
X119386190Y-110346811D01*
X119386190Y-110346809D01*
X119320303Y-110232690D01*
X119320301Y-110232688D01*
X119320300Y-110232686D01*
X119227114Y-110139500D01*
X119227111Y-110139498D01*
X119227109Y-110139496D01*
X119112989Y-110073609D01*
X119112991Y-110073609D01*
X119051522Y-110057139D01*
X118985692Y-110039500D01*
X118853908Y-110039500D01*
X118741648Y-110069579D01*
X118726610Y-110073609D01*
X118679104Y-110101037D01*
X118619256Y-110113758D01*
X118563361Y-110088871D01*
X118539882Y-110057142D01*
X118511224Y-109995684D01*
X118426316Y-109910776D01*
X118426314Y-109910775D01*
X118426313Y-109910774D01*
X118317489Y-109860029D01*
X118317488Y-109860028D01*
X118292694Y-109856764D01*
X118267901Y-109853500D01*
X118267900Y-109853500D01*
X118114190Y-109853500D01*
X118055999Y-109834593D01*
X118044186Y-109824504D01*
X117795103Y-109575421D01*
X117523812Y-109304130D01*
X117501417Y-109291200D01*
X117443891Y-109257987D01*
X117443888Y-109257986D01*
X117438876Y-109256643D01*
X117438872Y-109256641D01*
X117402761Y-109246966D01*
X117351446Y-109213642D01*
X117329519Y-109156521D01*
X117345354Y-109097420D01*
X117358380Y-109081335D01*
X117429246Y-109010469D01*
X117653557Y-108786159D01*
X117665930Y-108756288D01*
X117678183Y-108726704D01*
X117717918Y-108680181D01*
X117777413Y-108665896D01*
X117833941Y-108689310D01*
X117855383Y-108715091D01*
X117890496Y-108775909D01*
X117890498Y-108775911D01*
X117890500Y-108775914D01*
X117983686Y-108869100D01*
X117983688Y-108869101D01*
X117983690Y-108869103D01*
X118097810Y-108934990D01*
X118097808Y-108934990D01*
X118097812Y-108934991D01*
X118097814Y-108934992D01*
X118225108Y-108969100D01*
X118254812Y-108969100D01*
X118313003Y-108988007D01*
X118324809Y-108998090D01*
X118337188Y-109010469D01*
X118417112Y-109056614D01*
X118506256Y-109080500D01*
X118780952Y-109080500D01*
X118839143Y-109099407D01*
X118850955Y-109109496D01*
X118875503Y-109134043D01*
X118894684Y-109153224D01*
X119003513Y-109203972D01*
X119053099Y-109210500D01*
X119472900Y-109210499D01*
X119522487Y-109203972D01*
X119522488Y-109203972D01*
X119616004Y-109160364D01*
X119631316Y-109153224D01*
X119650498Y-109134041D01*
X119705013Y-109106266D01*
X119765445Y-109115837D01*
X119808710Y-109159102D01*
X119819500Y-109204047D01*
X119819500Y-109450180D01*
X119819500Y-109450182D01*
X119819501Y-109450184D01*
X119822354Y-109474786D01*
X119866789Y-109575422D01*
X119944578Y-109653211D01*
X120045214Y-109697646D01*
X120069815Y-109700500D01*
X120345184Y-109700499D01*
X120369786Y-109697646D01*
X120470422Y-109653211D01*
X120548211Y-109575422D01*
X120592646Y-109474786D01*
X120595500Y-109450185D01*
X120595499Y-109149816D01*
X120592646Y-109125214D01*
X120548211Y-109024578D01*
X120548209Y-109024576D01*
X120544505Y-109016186D01*
X120547799Y-109014731D01*
X120535286Y-108972276D01*
X120547371Y-108935079D01*
X120544505Y-108933814D01*
X120548209Y-108925423D01*
X120548211Y-108925422D01*
X120592646Y-108824786D01*
X120595500Y-108800185D01*
X120595499Y-108499816D01*
X120592646Y-108475214D01*
X120548211Y-108374578D01*
X120470422Y-108296789D01*
X120369786Y-108252354D01*
X120369785Y-108252353D01*
X120369783Y-108252353D01*
X120345188Y-108249500D01*
X120069819Y-108249500D01*
X120069816Y-108249501D01*
X120045214Y-108252354D01*
X119944578Y-108296789D01*
X119890861Y-108350505D01*
X119836347Y-108378281D01*
X119820860Y-108379500D01*
X119745048Y-108379500D01*
X119686857Y-108360593D01*
X119675045Y-108350504D01*
X119631316Y-108306776D01*
X119631313Y-108306774D01*
X119522489Y-108256029D01*
X119522488Y-108256028D01*
X119505958Y-108253852D01*
X119472901Y-108249500D01*
X119472899Y-108249500D01*
X119053103Y-108249500D01*
X119053092Y-108249501D01*
X119003513Y-108256027D01*
X119003511Y-108256027D01*
X118886834Y-108310436D01*
X118885737Y-108308083D01*
X118839779Y-108322125D01*
X118781931Y-108302193D01*
X118755791Y-108272641D01*
X118691500Y-108161286D01*
X118598314Y-108068100D01*
X118598311Y-108068098D01*
X118598309Y-108068096D01*
X118484189Y-108002209D01*
X118484191Y-108002209D01*
X118432500Y-107988359D01*
X118356892Y-107968100D01*
X118225108Y-107968100D01*
X118149500Y-107988359D01*
X118097809Y-108002209D01*
X117983690Y-108068096D01*
X117890498Y-108161288D01*
X117880236Y-108179063D01*
X117834766Y-108220003D01*
X117773916Y-108226398D01*
X117720928Y-108195805D01*
X117696042Y-108139909D01*
X117695500Y-108129562D01*
X117695500Y-107181854D01*
X117714407Y-107123663D01*
X117745002Y-107096117D01*
X117770290Y-107081517D01*
X117770290Y-107081516D01*
X117770295Y-107081514D01*
X117774998Y-107076810D01*
X117829513Y-107049035D01*
X117889945Y-107058606D01*
X117915000Y-107076809D01*
X117919705Y-107081514D01*
X117919707Y-107081515D01*
X117919709Y-107081517D01*
X118049791Y-107156620D01*
X118049789Y-107156620D01*
X118049793Y-107156621D01*
X118049795Y-107156622D01*
X118194892Y-107195500D01*
X118194894Y-107195500D01*
X118345106Y-107195500D01*
X118345108Y-107195500D01*
X118490205Y-107156622D01*
X118490207Y-107156620D01*
X118490209Y-107156620D01*
X118620290Y-107081517D01*
X118620290Y-107081516D01*
X118620295Y-107081514D01*
X118624998Y-107076810D01*
X118679513Y-107049035D01*
X118739945Y-107058606D01*
X118765000Y-107076809D01*
X118769705Y-107081514D01*
X118769707Y-107081515D01*
X118769709Y-107081517D01*
X118899791Y-107156620D01*
X118899789Y-107156620D01*
X118899793Y-107156621D01*
X118899795Y-107156622D01*
X119044892Y-107195500D01*
X119044894Y-107195500D01*
X119195106Y-107195500D01*
X119195108Y-107195500D01*
X119340205Y-107156622D01*
X119340207Y-107156620D01*
X119340209Y-107156620D01*
X119470290Y-107081517D01*
X119470290Y-107081516D01*
X119470295Y-107081514D01*
X119479264Y-107072544D01*
X119533777Y-107044766D01*
X119594210Y-107054336D01*
X119637476Y-107097599D01*
X119647791Y-107132842D01*
X119650166Y-107156962D01*
X119676322Y-107174438D01*
X119789152Y-107221173D01*
X119908932Y-107244999D01*
X119908936Y-107245000D01*
X120031064Y-107245000D01*
X120031067Y-107244999D01*
X120150846Y-107221173D01*
X120150848Y-107221173D01*
X120263677Y-107174438D01*
X120289831Y-107156962D01*
X119970000Y-106837132D01*
X119759467Y-107047664D01*
X119704951Y-107075441D01*
X119644519Y-107065870D01*
X119601254Y-107022605D01*
X119591683Y-106962173D01*
X119603728Y-106928159D01*
X119609200Y-106918682D01*
X119651622Y-106845205D01*
X119686467Y-106715157D01*
X119712089Y-106670778D01*
X119757868Y-106624999D01*
X119720076Y-106587207D01*
X119780000Y-106587207D01*
X119780000Y-106662793D01*
X119808926Y-106732626D01*
X119862374Y-106786074D01*
X119932207Y-106815000D01*
X120007793Y-106815000D01*
X120077626Y-106786074D01*
X120131074Y-106732626D01*
X120160000Y-106662793D01*
X120160000Y-106587207D01*
X120131074Y-106517374D01*
X120077626Y-106463926D01*
X120007793Y-106435000D01*
X119932207Y-106435000D01*
X119862374Y-106463926D01*
X119808926Y-106517374D01*
X119780000Y-106587207D01*
X119720076Y-106587207D01*
X119712089Y-106579220D01*
X119686467Y-106534840D01*
X119651622Y-106404795D01*
X119651619Y-106404790D01*
X119603727Y-106321838D01*
X119591005Y-106261990D01*
X119615891Y-106206094D01*
X119668879Y-106175501D01*
X119729729Y-106181897D01*
X119759467Y-106202334D01*
X119970000Y-106412867D01*
X120289830Y-106093036D01*
X120289830Y-106093035D01*
X120263680Y-106075562D01*
X120181358Y-106041464D01*
X120134832Y-106001728D01*
X120120548Y-105942233D01*
X120143963Y-105885705D01*
X120181358Y-105858536D01*
X120263677Y-105824438D01*
X120289831Y-105806962D01*
X119970000Y-105487132D01*
X119759467Y-105697664D01*
X119704951Y-105725441D01*
X119644519Y-105715870D01*
X119601254Y-105672605D01*
X119591683Y-105612173D01*
X119603728Y-105578159D01*
X119612764Y-105562509D01*
X119651622Y-105495205D01*
X119686469Y-105365151D01*
X119692735Y-105348166D01*
X119737393Y-105254525D01*
X119720076Y-105237207D01*
X119780000Y-105237207D01*
X119780000Y-105312793D01*
X119808926Y-105382626D01*
X119862374Y-105436074D01*
X119932207Y-105465000D01*
X120007793Y-105465000D01*
X120077626Y-105436074D01*
X120131074Y-105382626D01*
X120160000Y-105312793D01*
X120160000Y-105274999D01*
X120182132Y-105274999D01*
X120182132Y-105275000D01*
X120510377Y-105603246D01*
X120541057Y-105609977D01*
X120581701Y-105655712D01*
X120590000Y-105695389D01*
X120590000Y-106204608D01*
X120571093Y-106262799D01*
X120521593Y-106298763D01*
X120506759Y-106300371D01*
X120182132Y-106624999D01*
X120182132Y-106625000D01*
X120501962Y-106944831D01*
X120519438Y-106918677D01*
X120552843Y-106838030D01*
X120592579Y-106791504D01*
X120652074Y-106777220D01*
X120708602Y-106800634D01*
X120726623Y-106820914D01*
X120752969Y-106860344D01*
X120854655Y-106962030D01*
X120974217Y-107041918D01*
X121107065Y-107096945D01*
X121107068Y-107096946D01*
X121169999Y-107109463D01*
X121170000Y-107109463D01*
X121170000Y-106654808D01*
X121204204Y-106674556D01*
X121280504Y-106695000D01*
X121359496Y-106695000D01*
X121435796Y-106674556D01*
X121470000Y-106654808D01*
X121470000Y-107109463D01*
X121532931Y-107096946D01*
X121532934Y-107096945D01*
X121665782Y-107041918D01*
X121785344Y-106962030D01*
X121887030Y-106860344D01*
X121966918Y-106740782D01*
X122021945Y-106607934D01*
X122049999Y-106466899D01*
X122050000Y-106466897D01*
X122050000Y-105795001D01*
X122049999Y-105795000D01*
X121620000Y-105795000D01*
X121620000Y-105495000D01*
X122049999Y-105495000D01*
X122050000Y-105494999D01*
X122050000Y-104823102D01*
X122049999Y-104823100D01*
X122021945Y-104682065D01*
X121966918Y-104549217D01*
X121887030Y-104429655D01*
X121785344Y-104327969D01*
X121665784Y-104248082D01*
X121532933Y-104193054D01*
X121470000Y-104180535D01*
X121470000Y-104635191D01*
X121435796Y-104615444D01*
X121359496Y-104595000D01*
X121280504Y-104595000D01*
X121204204Y-104615444D01*
X121170000Y-104635191D01*
X121170000Y-104180535D01*
X121107066Y-104193054D01*
X120974215Y-104248082D01*
X120854655Y-104327969D01*
X120752969Y-104429655D01*
X120673081Y-104549217D01*
X120618054Y-104682065D01*
X120590000Y-104823100D01*
X120590000Y-104854608D01*
X120571093Y-104912799D01*
X120521593Y-104948763D01*
X120506759Y-104950371D01*
X120182132Y-105274999D01*
X120160000Y-105274999D01*
X120160000Y-105237207D01*
X120131074Y-105167374D01*
X120077626Y-105113926D01*
X120007793Y-105085000D01*
X119932207Y-105085000D01*
X119862374Y-105113926D01*
X119808926Y-105167374D01*
X119780000Y-105237207D01*
X119720076Y-105237207D01*
X119712089Y-105229220D01*
X119686467Y-105184840D01*
X119651622Y-105054795D01*
X119651619Y-105054790D01*
X119603727Y-104971838D01*
X119591005Y-104911990D01*
X119615891Y-104856094D01*
X119668879Y-104825501D01*
X119729729Y-104831897D01*
X119759467Y-104852334D01*
X119970000Y-105062867D01*
X120289830Y-104743036D01*
X120289830Y-104743035D01*
X120263680Y-104725562D01*
X120150847Y-104678826D01*
X120031067Y-104655000D01*
X119908932Y-104655000D01*
X119789154Y-104678825D01*
X119676319Y-104725563D01*
X119676312Y-104725567D01*
X119650167Y-104743035D01*
X119647791Y-104767158D01*
X119623270Y-104823215D01*
X119570482Y-104854152D01*
X119509592Y-104848154D01*
X119479267Y-104827458D01*
X119470295Y-104818486D01*
X119470292Y-104818484D01*
X119470290Y-104818482D01*
X119340208Y-104743379D01*
X119340210Y-104743379D01*
X119273717Y-104725563D01*
X119195108Y-104704500D01*
X119195106Y-104704500D01*
X119167590Y-104704500D01*
X119109399Y-104685593D01*
X119097587Y-104675504D01*
X118725714Y-104303632D01*
X118725712Y-104303630D01*
X118645788Y-104257486D01*
X118556644Y-104233600D01*
X115433456Y-104233600D01*
X115408850Y-104240193D01*
X115384244Y-104246786D01*
X115384243Y-104246785D01*
X115344315Y-104257484D01*
X115264385Y-104303632D01*
X114892513Y-104675504D01*
X114837997Y-104703281D01*
X114822510Y-104704500D01*
X114794892Y-104704500D01*
X114716283Y-104725563D01*
X114649790Y-104743379D01*
X114519709Y-104818482D01*
X114519702Y-104818487D01*
X114510731Y-104827459D01*
X114456213Y-104855235D01*
X114395782Y-104845661D01*
X114352519Y-104802395D01*
X114342207Y-104767158D01*
X114339830Y-104743035D01*
X114313680Y-104725562D01*
X114200847Y-104678826D01*
X114081067Y-104655000D01*
X113958932Y-104655000D01*
X113839154Y-104678825D01*
X113726319Y-104725563D01*
X113726312Y-104725567D01*
X113700168Y-104743035D01*
X114020000Y-105062867D01*
X114230533Y-104852334D01*
X114285050Y-104824556D01*
X114345482Y-104834127D01*
X114388747Y-104877392D01*
X114398318Y-104937824D01*
X114386273Y-104971837D01*
X114338379Y-105054790D01*
X114303533Y-105184840D01*
X114277911Y-105229220D01*
X114232132Y-105275000D01*
X114277910Y-105320779D01*
X114303532Y-105365158D01*
X114311475Y-105394799D01*
X114338378Y-105495206D01*
X114386272Y-105578160D01*
X114398993Y-105638009D01*
X114374106Y-105693904D01*
X114321118Y-105724497D01*
X114260268Y-105718101D01*
X114230531Y-105697664D01*
X114019999Y-105487132D01*
X113700168Y-105806962D01*
X113726322Y-105824438D01*
X113808642Y-105858536D01*
X113855168Y-105898272D01*
X113869452Y-105957767D01*
X113846037Y-106014295D01*
X113808643Y-106041464D01*
X113726319Y-106075563D01*
X113726312Y-106075567D01*
X113700168Y-106093035D01*
X114020000Y-106412867D01*
X114230533Y-106202334D01*
X114285050Y-106174556D01*
X114345482Y-106184127D01*
X114388747Y-106227392D01*
X114398318Y-106287824D01*
X114386273Y-106321837D01*
X114338379Y-106404790D01*
X114303533Y-106534840D01*
X114277911Y-106579220D01*
X114232132Y-106625000D01*
X114277910Y-106670779D01*
X114303533Y-106715159D01*
X114338378Y-106845206D01*
X114386272Y-106928160D01*
X114398993Y-106988009D01*
X114374106Y-107043904D01*
X114321118Y-107074497D01*
X114260268Y-107068101D01*
X114230531Y-107047664D01*
X114019999Y-106837132D01*
X113700168Y-107156962D01*
X113726322Y-107174438D01*
X113839152Y-107221173D01*
X113958932Y-107244999D01*
X113958936Y-107245000D01*
X114081064Y-107245000D01*
X114081067Y-107244999D01*
X114200846Y-107221173D01*
X114200848Y-107221173D01*
X114313677Y-107174438D01*
X114339831Y-107156962D01*
X114342207Y-107132842D01*
X114366727Y-107076785D01*
X114419513Y-107045846D01*
X114480404Y-107051843D01*
X114510730Y-107072539D01*
X114519705Y-107081514D01*
X114519707Y-107081515D01*
X114519709Y-107081517D01*
X114649791Y-107156620D01*
X114649789Y-107156620D01*
X114649793Y-107156621D01*
X114649795Y-107156622D01*
X114794892Y-107195500D01*
X114794894Y-107195500D01*
X114945106Y-107195500D01*
X114945108Y-107195500D01*
X115090205Y-107156622D01*
X115090207Y-107156620D01*
X115090209Y-107156620D01*
X115220290Y-107081517D01*
X115220290Y-107081516D01*
X115220295Y-107081514D01*
X115224998Y-107076810D01*
X115279513Y-107049035D01*
X115339945Y-107058606D01*
X115365000Y-107076809D01*
X115369705Y-107081514D01*
X115369707Y-107081515D01*
X115369709Y-107081517D01*
X115499791Y-107156620D01*
X115499789Y-107156620D01*
X115499793Y-107156621D01*
X115499795Y-107156622D01*
X115644892Y-107195500D01*
X115644894Y-107195500D01*
X115795106Y-107195500D01*
X115795108Y-107195500D01*
X115940205Y-107156622D01*
X115940207Y-107156620D01*
X115940209Y-107156620D01*
X116070290Y-107081517D01*
X116070290Y-107081516D01*
X116070295Y-107081514D01*
X116074998Y-107076810D01*
X116129513Y-107049035D01*
X116189945Y-107058606D01*
X116215000Y-107076809D01*
X116219705Y-107081514D01*
X116219707Y-107081515D01*
X116219709Y-107081517D01*
X116349791Y-107156620D01*
X116349789Y-107156620D01*
X116349793Y-107156621D01*
X116349795Y-107156622D01*
X116494892Y-107195500D01*
X116494894Y-107195500D01*
X116558000Y-107195500D01*
X116616191Y-107214407D01*
X116652155Y-107263907D01*
X116657000Y-107294500D01*
X116657000Y-107988359D01*
X116638093Y-108046550D01*
X116628004Y-108058362D01*
X116591790Y-108094576D01*
X116591789Y-108094577D01*
X116591789Y-108094578D01*
X116576342Y-108129562D01*
X116547353Y-108195216D01*
X116544500Y-108219808D01*
X116544500Y-108620180D01*
X116544500Y-108620182D01*
X116544501Y-108620184D01*
X116547354Y-108644786D01*
X116591789Y-108745422D01*
X116614865Y-108768498D01*
X116642641Y-108823013D01*
X116633070Y-108883445D01*
X116589805Y-108926710D01*
X116544860Y-108937500D01*
X116245140Y-108937500D01*
X116186949Y-108918593D01*
X116150985Y-108869093D01*
X116150985Y-108807907D01*
X116175134Y-108768498D01*
X116198211Y-108745422D01*
X116242646Y-108644786D01*
X116245500Y-108620185D01*
X116245499Y-108219816D01*
X116242646Y-108195214D01*
X116198211Y-108094578D01*
X116120422Y-108016789D01*
X116019786Y-107972354D01*
X116019785Y-107972353D01*
X116019783Y-107972353D01*
X115995191Y-107969500D01*
X115995185Y-107969500D01*
X115837623Y-107969500D01*
X115779432Y-107950593D01*
X115767620Y-107940504D01*
X115688357Y-107861242D01*
X115657561Y-107848486D01*
X115657560Y-107848486D01*
X115587100Y-107819300D01*
X113963400Y-107819300D01*
X113892940Y-107848486D01*
X113892939Y-107848486D01*
X113862143Y-107861241D01*
X113862142Y-107861242D01*
X113862141Y-107861242D01*
X113862141Y-107861243D01*
X113661742Y-108061643D01*
X113661741Y-108061642D01*
X113584246Y-108139138D01*
X113584244Y-108139140D01*
X113584243Y-108139142D01*
X113542300Y-108240400D01*
X113542300Y-109003600D01*
X113550990Y-109024578D01*
X113566337Y-109061629D01*
X113571138Y-109122626D01*
X113539169Y-109174795D01*
X113482641Y-109198210D01*
X113433034Y-109189239D01*
X113355175Y-109152932D01*
X113322601Y-109148644D01*
X113306316Y-109146500D01*
X112957684Y-109146500D01*
X112941398Y-109148644D01*
X112908825Y-109152932D01*
X112908824Y-109152932D01*
X112801598Y-109202933D01*
X112801595Y-109202935D01*
X112764026Y-109240504D01*
X112709509Y-109268281D01*
X112694023Y-109269500D01*
X112480654Y-109269500D01*
X112422463Y-109250593D01*
X112410656Y-109240509D01*
X112330511Y-109160364D01*
X112226170Y-109109355D01*
X112226171Y-109109355D01*
X112204968Y-109106266D01*
X112158528Y-109099500D01*
X112158525Y-109099500D01*
X112022590Y-109099500D01*
X111964399Y-109080593D01*
X111952586Y-109070504D01*
X111760386Y-108878304D01*
X111732609Y-108823787D01*
X111742180Y-108763355D01*
X111760386Y-108738296D01*
X111786186Y-108712496D01*
X111840703Y-108684719D01*
X111856190Y-108683500D01*
X112020524Y-108683500D01*
X112020528Y-108683500D01*
X112088170Y-108673645D01*
X112192511Y-108622636D01*
X112274636Y-108540511D01*
X112325645Y-108436170D01*
X112335500Y-108368528D01*
X112335500Y-107957472D01*
X112325645Y-107889830D01*
X112274636Y-107785489D01*
X112192511Y-107703364D01*
X112088170Y-107652355D01*
X112088171Y-107652355D01*
X112071259Y-107649891D01*
X112020528Y-107642500D01*
X111659472Y-107642500D01*
X111618886Y-107648413D01*
X111591828Y-107652355D01*
X111487489Y-107703364D01*
X111425001Y-107765851D01*
X111370487Y-107793627D01*
X111310055Y-107784056D01*
X111284999Y-107765852D01*
X111222511Y-107703364D01*
X111118170Y-107652355D01*
X111118171Y-107652355D01*
X111101259Y-107649891D01*
X111050528Y-107642500D01*
X111050525Y-107642500D01*
X110780124Y-107642500D01*
X110721933Y-107623593D01*
X110710120Y-107613504D01*
X110184496Y-107087880D01*
X110156719Y-107033363D01*
X110155500Y-107017876D01*
X110155500Y-105804828D01*
X110174407Y-105746637D01*
X110223907Y-105710673D01*
X110282343Y-105710673D01*
X110282554Y-105709948D01*
X110285041Y-105710673D01*
X110285093Y-105710673D01*
X110285237Y-105710730D01*
X110289824Y-105712066D01*
X110289827Y-105712068D01*
X110338684Y-105718500D01*
X110338685Y-105718500D01*
X110687314Y-105718500D01*
X110687316Y-105718500D01*
X110736173Y-105712068D01*
X110843404Y-105662065D01*
X110927065Y-105578404D01*
X110933275Y-105565085D01*
X110975003Y-105520337D01*
X111035064Y-105508662D01*
X111090517Y-105534519D01*
X111112724Y-105565084D01*
X111118935Y-105578404D01*
X111202596Y-105662065D01*
X111202597Y-105662065D01*
X111202598Y-105662066D01*
X111309824Y-105712067D01*
X111309825Y-105712067D01*
X111309827Y-105712068D01*
X111358684Y-105718500D01*
X111358685Y-105718500D01*
X111707314Y-105718500D01*
X111707316Y-105718500D01*
X111756173Y-105712068D01*
X111799161Y-105692021D01*
X111859889Y-105684565D01*
X111913403Y-105714227D01*
X111939262Y-105769680D01*
X111940000Y-105781746D01*
X111940000Y-106466899D01*
X111968054Y-106607934D01*
X112023081Y-106740782D01*
X112102969Y-106860344D01*
X112204655Y-106962030D01*
X112324217Y-107041918D01*
X112457065Y-107096945D01*
X112457068Y-107096946D01*
X112519999Y-107109463D01*
X112520000Y-107109463D01*
X112520000Y-106654808D01*
X112554204Y-106674556D01*
X112630504Y-106695000D01*
X112709496Y-106695000D01*
X112785796Y-106674556D01*
X112820000Y-106654808D01*
X112820000Y-107109463D01*
X112882931Y-107096946D01*
X112882934Y-107096945D01*
X113015782Y-107041918D01*
X113135344Y-106962030D01*
X113237032Y-106860342D01*
X113263376Y-106820915D01*
X113311425Y-106783035D01*
X113372563Y-106780631D01*
X113423437Y-106814623D01*
X113437156Y-106838029D01*
X113470563Y-106918682D01*
X113488035Y-106944830D01*
X113488036Y-106944830D01*
X113807867Y-106625000D01*
X113770074Y-106587207D01*
X113830000Y-106587207D01*
X113830000Y-106662793D01*
X113858926Y-106732626D01*
X113912374Y-106786074D01*
X113982207Y-106815000D01*
X114057793Y-106815000D01*
X114127626Y-106786074D01*
X114181074Y-106732626D01*
X114210000Y-106662793D01*
X114210000Y-106587207D01*
X114181074Y-106517374D01*
X114127626Y-106463926D01*
X114057793Y-106435000D01*
X113982207Y-106435000D01*
X113912374Y-106463926D01*
X113858926Y-106517374D01*
X113830000Y-106587207D01*
X113770074Y-106587207D01*
X113479617Y-106296750D01*
X113448940Y-106290020D01*
X113408298Y-106244284D01*
X113400000Y-106204609D01*
X113400000Y-105695389D01*
X113418907Y-105637198D01*
X113468407Y-105601234D01*
X113483240Y-105599626D01*
X113807867Y-105275000D01*
X113770074Y-105237207D01*
X113830000Y-105237207D01*
X113830000Y-105312793D01*
X113858926Y-105382626D01*
X113912374Y-105436074D01*
X113982207Y-105465000D01*
X114057793Y-105465000D01*
X114127626Y-105436074D01*
X114181074Y-105382626D01*
X114210000Y-105312793D01*
X114210000Y-105237207D01*
X114181074Y-105167374D01*
X114127626Y-105113926D01*
X114057793Y-105085000D01*
X113982207Y-105085000D01*
X113912374Y-105113926D01*
X113858926Y-105167374D01*
X113830000Y-105237207D01*
X113770074Y-105237207D01*
X113479617Y-104946750D01*
X113448940Y-104940020D01*
X113408298Y-104894284D01*
X113400000Y-104854609D01*
X113400000Y-104823102D01*
X113399999Y-104823100D01*
X113371945Y-104682065D01*
X113316918Y-104549217D01*
X113237030Y-104429655D01*
X113135344Y-104327969D01*
X113015784Y-104248082D01*
X112882933Y-104193054D01*
X112820000Y-104180535D01*
X112820000Y-104635191D01*
X112785796Y-104615444D01*
X112709496Y-104595000D01*
X112630504Y-104595000D01*
X112554204Y-104615444D01*
X112520000Y-104635191D01*
X112520000Y-104180535D01*
X112457066Y-104193054D01*
X112324215Y-104248082D01*
X112204655Y-104327969D01*
X112102969Y-104429655D01*
X112023082Y-104549215D01*
X111972682Y-104670893D01*
X111932945Y-104717418D01*
X111873450Y-104731702D01*
X111839379Y-104722732D01*
X111813780Y-104710795D01*
X111756173Y-104683932D01*
X111707316Y-104677500D01*
X111707315Y-104677500D01*
X111622200Y-104677500D01*
X111564009Y-104658593D01*
X111528045Y-104609093D01*
X111523200Y-104578500D01*
X111523200Y-104488209D01*
X111510041Y-104439099D01*
X111489092Y-104360914D01*
X111489090Y-104360911D01*
X111489090Y-104360909D01*
X111423203Y-104246790D01*
X111423201Y-104246788D01*
X111423200Y-104246786D01*
X111330014Y-104153600D01*
X111330011Y-104153598D01*
X111330009Y-104153596D01*
X111215889Y-104087709D01*
X111215891Y-104087709D01*
X111166499Y-104074475D01*
X111088592Y-104053600D01*
X110956808Y-104053600D01*
X110878900Y-104074475D01*
X110829509Y-104087709D01*
X110715390Y-104153596D01*
X110622196Y-104246790D01*
X110556309Y-104360909D01*
X110522200Y-104488209D01*
X110522200Y-104578500D01*
X110503293Y-104636691D01*
X110453793Y-104672655D01*
X110423200Y-104677500D01*
X110423123Y-104677500D01*
X110364932Y-104658593D01*
X110353120Y-104648504D01*
X110108158Y-104403543D01*
X110108157Y-104403542D01*
X110098429Y-104399513D01*
X110006900Y-104361600D01*
X109383500Y-104361600D01*
X109273900Y-104361600D01*
X109273898Y-104361600D01*
X109172644Y-104403540D01*
X109172642Y-104403541D01*
X109172642Y-104403542D01*
X108953942Y-104622243D01*
X108953941Y-104622242D01*
X108876446Y-104699738D01*
X108876444Y-104699740D01*
X108876443Y-104699742D01*
X108839388Y-104789200D01*
X108834500Y-104801000D01*
X108834500Y-105334977D01*
X108815593Y-105393168D01*
X108805504Y-105404980D01*
X108759282Y-105451203D01*
X108704766Y-105478981D01*
X108689278Y-105480200D01*
X107274021Y-105480200D01*
X107215830Y-105461293D01*
X107204017Y-105451204D01*
X107201201Y-105448388D01*
X107201200Y-105448386D01*
X107108014Y-105355200D01*
X107108011Y-105355198D01*
X107108009Y-105355196D01*
X106993889Y-105289309D01*
X106993891Y-105289309D01*
X106940487Y-105275000D01*
X106866592Y-105255200D01*
X106734808Y-105255200D01*
X106660913Y-105275000D01*
X106607509Y-105289309D01*
X106493390Y-105355196D01*
X106400196Y-105448390D01*
X106334309Y-105562509D01*
X106325425Y-105595667D01*
X106301739Y-105684067D01*
X106300200Y-105689809D01*
X106300200Y-105814390D01*
X106281293Y-105872581D01*
X106231793Y-105908545D01*
X106170607Y-105908545D01*
X106121107Y-105872581D01*
X106118884Y-105869391D01*
X106025979Y-105730348D01*
X106025977Y-105730345D01*
X105879655Y-105584023D01*
X105879462Y-105583894D01*
X105707597Y-105469058D01*
X105516418Y-105389869D01*
X105313467Y-105349500D01*
X105313465Y-105349500D01*
X105106535Y-105349500D01*
X105106532Y-105349500D01*
X104903581Y-105389869D01*
X104712402Y-105469058D01*
X104540348Y-105584020D01*
X104394020Y-105730348D01*
X104333516Y-105820900D01*
X104285466Y-105858780D01*
X104224327Y-105861182D01*
X104173454Y-105827189D01*
X104152276Y-105769786D01*
X104152200Y-105765899D01*
X104152200Y-104494100D01*
X104171107Y-104435909D01*
X104220607Y-104399945D01*
X104281793Y-104399945D01*
X104331293Y-104435909D01*
X104333516Y-104439099D01*
X104377880Y-104505496D01*
X104394023Y-104529655D01*
X104540345Y-104675977D01*
X104712402Y-104790941D01*
X104903580Y-104870130D01*
X105106535Y-104910500D01*
X105106536Y-104910500D01*
X105313464Y-104910500D01*
X105313465Y-104910500D01*
X105516420Y-104870130D01*
X105707598Y-104790941D01*
X105879655Y-104675977D01*
X106025977Y-104529655D01*
X106140941Y-104357598D01*
X106220130Y-104166420D01*
X106260500Y-103963465D01*
X106260500Y-103756535D01*
X106220130Y-103553580D01*
X106140941Y-103362402D01*
X106025977Y-103190345D01*
X105879655Y-103044023D01*
X105761388Y-102965000D01*
X105707597Y-102929058D01*
X105516418Y-102849869D01*
X105313467Y-102809500D01*
X105313465Y-102809500D01*
X105106535Y-102809500D01*
X105106532Y-102809500D01*
X104903581Y-102849869D01*
X104712402Y-102929058D01*
X104540348Y-103044020D01*
X104394019Y-103190349D01*
X104317062Y-103305524D01*
X104269012Y-103343403D01*
X104207874Y-103345805D01*
X104157000Y-103311812D01*
X104139121Y-103276147D01*
X104128314Y-103235812D01*
X104110554Y-103205051D01*
X104082170Y-103155888D01*
X103465786Y-102539504D01*
X103438009Y-102484987D01*
X103447580Y-102424555D01*
X103490845Y-102381290D01*
X103535790Y-102370500D01*
X103539747Y-102370500D01*
X103539748Y-102370500D01*
X103598231Y-102358867D01*
X103664552Y-102314552D01*
X103708867Y-102248231D01*
X103720500Y-102189748D01*
X103720500Y-101943709D01*
X108579500Y-101943709D01*
X108579500Y-102156290D01*
X108612752Y-102366238D01*
X108678443Y-102568412D01*
X108774948Y-102757815D01*
X108774950Y-102757819D01*
X108899891Y-102929786D01*
X108899893Y-102929788D01*
X108899896Y-102929792D01*
X109050208Y-103080104D01*
X109050211Y-103080106D01*
X109050213Y-103080108D01*
X109222180Y-103205049D01*
X109222184Y-103205051D01*
X109411588Y-103301557D01*
X109613757Y-103367246D01*
X109613758Y-103367246D01*
X109613761Y-103367247D01*
X109823710Y-103400500D01*
X109823713Y-103400500D01*
X110036290Y-103400500D01*
X110246238Y-103367247D01*
X110246239Y-103367246D01*
X110246243Y-103367246D01*
X110448412Y-103301557D01*
X110637816Y-103205051D01*
X110809792Y-103080104D01*
X110960104Y-102929792D01*
X111068355Y-102780796D01*
X111085049Y-102757819D01*
X111085051Y-102757816D01*
X111181557Y-102568412D01*
X111247246Y-102366243D01*
X111247988Y-102361554D01*
X111248472Y-102358505D01*
X111248472Y-102358504D01*
X111280500Y-102156290D01*
X111280500Y-101943709D01*
X111258328Y-101803724D01*
X111256645Y-101793100D01*
X111940000Y-101793100D01*
X111940000Y-102114999D01*
X111940001Y-102115000D01*
X112370000Y-102115000D01*
X112370000Y-102415000D01*
X111940001Y-102415000D01*
X111940000Y-102415001D01*
X111940000Y-102736899D01*
X111968054Y-102877934D01*
X112023081Y-103010782D01*
X112102969Y-103130344D01*
X112204655Y-103232030D01*
X112324217Y-103311918D01*
X112457065Y-103366945D01*
X112457068Y-103366946D01*
X112519999Y-103379463D01*
X112520000Y-103379463D01*
X112520000Y-102924808D01*
X112554204Y-102944556D01*
X112630504Y-102965000D01*
X112709496Y-102965000D01*
X112785796Y-102944556D01*
X112820000Y-102924808D01*
X112820000Y-103379463D01*
X112882931Y-103366946D01*
X112882934Y-103366945D01*
X113015782Y-103311918D01*
X113135344Y-103232030D01*
X113237030Y-103130344D01*
X113316918Y-103010782D01*
X113371945Y-102877934D01*
X113399999Y-102736899D01*
X113400000Y-102736897D01*
X113400000Y-102415001D01*
X113399999Y-102415000D01*
X112970000Y-102415000D01*
X112970000Y-102115000D01*
X113399999Y-102115000D01*
X113400000Y-102114999D01*
X113400000Y-101793102D01*
X113399999Y-101793100D01*
X120590000Y-101793100D01*
X120590000Y-102114999D01*
X120590001Y-102115000D01*
X121020000Y-102115000D01*
X121020000Y-102415000D01*
X120590001Y-102415000D01*
X120590000Y-102415001D01*
X120590000Y-102736899D01*
X120618054Y-102877934D01*
X120673081Y-103010782D01*
X120752969Y-103130344D01*
X120854655Y-103232030D01*
X120974217Y-103311918D01*
X121107065Y-103366945D01*
X121107068Y-103366946D01*
X121169999Y-103379463D01*
X121170000Y-103379463D01*
X121170000Y-102924808D01*
X121204204Y-102944556D01*
X121280504Y-102965000D01*
X121359496Y-102965000D01*
X121435796Y-102944556D01*
X121470000Y-102924808D01*
X121470000Y-103379463D01*
X121532931Y-103366946D01*
X121532934Y-103366945D01*
X121665782Y-103311918D01*
X121785344Y-103232030D01*
X121887030Y-103130344D01*
X121966918Y-103010782D01*
X122021945Y-102877934D01*
X122049999Y-102736899D01*
X122050000Y-102736897D01*
X122050000Y-102415001D01*
X122049999Y-102415000D01*
X121620000Y-102415000D01*
X121620000Y-102115000D01*
X122049999Y-102115000D01*
X122050000Y-102114999D01*
X122050000Y-101943709D01*
X122709500Y-101943709D01*
X122709500Y-102156290D01*
X122742752Y-102366238D01*
X122808443Y-102568412D01*
X122904948Y-102757815D01*
X122904950Y-102757819D01*
X123029891Y-102929786D01*
X123029893Y-102929788D01*
X123029896Y-102929792D01*
X123180208Y-103080104D01*
X123180211Y-103080106D01*
X123180213Y-103080108D01*
X123352180Y-103205049D01*
X123352184Y-103205051D01*
X123541588Y-103301557D01*
X123743757Y-103367246D01*
X123743758Y-103367246D01*
X123743761Y-103367247D01*
X123953710Y-103400500D01*
X123953713Y-103400500D01*
X124166290Y-103400500D01*
X124376238Y-103367247D01*
X124376239Y-103367246D01*
X124376243Y-103367246D01*
X124578412Y-103301557D01*
X124767816Y-103205051D01*
X124939792Y-103080104D01*
X125090104Y-102929792D01*
X125198355Y-102780796D01*
X125215049Y-102757819D01*
X125215051Y-102757816D01*
X125311557Y-102568412D01*
X125377246Y-102366243D01*
X125395937Y-102248233D01*
X125410500Y-102156290D01*
X125410500Y-101943709D01*
X125377247Y-101733761D01*
X125377246Y-101733757D01*
X125311557Y-101531588D01*
X125215051Y-101342184D01*
X125215049Y-101342180D01*
X125090108Y-101170213D01*
X125090106Y-101170211D01*
X125090104Y-101170208D01*
X124939792Y-101019896D01*
X124939788Y-101019893D01*
X124939786Y-101019891D01*
X124767819Y-100894950D01*
X124767815Y-100894948D01*
X124578412Y-100798443D01*
X124376238Y-100732752D01*
X124166290Y-100699500D01*
X124166287Y-100699500D01*
X123953713Y-100699500D01*
X123953710Y-100699500D01*
X123743761Y-100732752D01*
X123541587Y-100798443D01*
X123352184Y-100894948D01*
X123352180Y-100894950D01*
X123180213Y-101019891D01*
X123029891Y-101170213D01*
X122904950Y-101342180D01*
X122904948Y-101342184D01*
X122808443Y-101531587D01*
X122742752Y-101733761D01*
X122709500Y-101943709D01*
X122050000Y-101943709D01*
X122050000Y-101793102D01*
X122049999Y-101793100D01*
X122021945Y-101652065D01*
X121966918Y-101519217D01*
X121887030Y-101399655D01*
X121785344Y-101297969D01*
X121665784Y-101218082D01*
X121532933Y-101163054D01*
X121470000Y-101150535D01*
X121470000Y-101605191D01*
X121435796Y-101585444D01*
X121359496Y-101565000D01*
X121280504Y-101565000D01*
X121204204Y-101585444D01*
X121170000Y-101605191D01*
X121170000Y-101150535D01*
X121107066Y-101163054D01*
X120974215Y-101218082D01*
X120854655Y-101297969D01*
X120752969Y-101399655D01*
X120673081Y-101519217D01*
X120618054Y-101652065D01*
X120590000Y-101793100D01*
X113399999Y-101793100D01*
X113371945Y-101652065D01*
X113316918Y-101519217D01*
X113237030Y-101399655D01*
X113135344Y-101297969D01*
X113015784Y-101218082D01*
X112882933Y-101163054D01*
X112820000Y-101150535D01*
X112820000Y-101605191D01*
X112785796Y-101585444D01*
X112709496Y-101565000D01*
X112630504Y-101565000D01*
X112554204Y-101585444D01*
X112520000Y-101605191D01*
X112520000Y-101150535D01*
X112457066Y-101163054D01*
X112324215Y-101218082D01*
X112204655Y-101297969D01*
X112102969Y-101399655D01*
X112023081Y-101519217D01*
X111968054Y-101652065D01*
X111940000Y-101793100D01*
X111256645Y-101793100D01*
X111247247Y-101733761D01*
X111247246Y-101733757D01*
X111181557Y-101531588D01*
X111085051Y-101342184D01*
X111085049Y-101342180D01*
X110960108Y-101170213D01*
X110960106Y-101170211D01*
X110960104Y-101170208D01*
X110809792Y-101019896D01*
X110809788Y-101019893D01*
X110809786Y-101019891D01*
X110637819Y-100894950D01*
X110637815Y-100894948D01*
X110448412Y-100798443D01*
X110246238Y-100732752D01*
X110036290Y-100699500D01*
X110036287Y-100699500D01*
X109823713Y-100699500D01*
X109823710Y-100699500D01*
X109613761Y-100732752D01*
X109411587Y-100798443D01*
X109222184Y-100894948D01*
X109222180Y-100894950D01*
X109050213Y-101019891D01*
X108899891Y-101170213D01*
X108774950Y-101342180D01*
X108774948Y-101342184D01*
X108678443Y-101531587D01*
X108612752Y-101733761D01*
X108579500Y-101943709D01*
X103720500Y-101943709D01*
X103720500Y-100450252D01*
X103720499Y-100450250D01*
X103720499Y-100450244D01*
X103714247Y-100418816D01*
X103721437Y-100358055D01*
X103762969Y-100313124D01*
X103811344Y-100300500D01*
X127638656Y-100300500D01*
X127696847Y-100319407D01*
G37*
%TD.AperFunction*%
%TA.AperFunction,Conductor*%
G36*
X125735378Y-105217491D02*
G01*
X125778497Y-105257349D01*
X125844696Y-105372009D01*
X125844698Y-105372011D01*
X125844700Y-105372014D01*
X125937886Y-105465200D01*
X125937888Y-105465201D01*
X125937890Y-105465203D01*
X126052010Y-105531090D01*
X126052008Y-105531090D01*
X126052012Y-105531091D01*
X126052014Y-105531092D01*
X126179308Y-105565200D01*
X126179310Y-105565200D01*
X126311090Y-105565200D01*
X126311092Y-105565200D01*
X126438386Y-105531092D01*
X126438388Y-105531090D01*
X126438390Y-105531090D01*
X126552509Y-105465203D01*
X126552509Y-105465202D01*
X126552514Y-105465200D01*
X126645700Y-105372014D01*
X126645701Y-105372011D01*
X126648517Y-105369196D01*
X126703034Y-105341419D01*
X126718521Y-105340200D01*
X128148893Y-105340200D01*
X128207084Y-105359107D01*
X128243048Y-105408607D01*
X128243048Y-105469793D01*
X128207084Y-105519293D01*
X128203894Y-105521516D01*
X128110348Y-105584020D01*
X127964020Y-105730348D01*
X127849058Y-105902402D01*
X127769869Y-106093581D01*
X127729500Y-106296532D01*
X127729500Y-106503467D01*
X127769869Y-106706418D01*
X127849058Y-106897597D01*
X127964019Y-107069649D01*
X127964023Y-107069655D01*
X128085266Y-107190898D01*
X128113042Y-107245413D01*
X128103471Y-107305845D01*
X128060206Y-107349110D01*
X128015261Y-107359900D01*
X125381100Y-107359900D01*
X125279842Y-107401843D01*
X125279841Y-107401844D01*
X123686181Y-108995504D01*
X123631664Y-109023281D01*
X123616177Y-109024500D01*
X122981299Y-109024500D01*
X122959263Y-109033627D01*
X122898266Y-109038426D01*
X122846097Y-109006456D01*
X122825752Y-108967785D01*
X122824700Y-108963858D01*
X122824700Y-108963856D01*
X122800814Y-108874712D01*
X122789112Y-108854444D01*
X122778773Y-108836536D01*
X122760450Y-108804799D01*
X122747729Y-108744951D01*
X122772616Y-108689056D01*
X122825604Y-108658463D01*
X122846187Y-108656300D01*
X122899190Y-108656300D01*
X122899192Y-108656300D01*
X123026486Y-108622192D01*
X123026493Y-108622187D01*
X123032481Y-108619708D01*
X123032666Y-108620155D01*
X123047166Y-108614146D01*
X123089088Y-108602914D01*
X123128666Y-108580063D01*
X123171243Y-108568654D01*
X123171111Y-108567647D01*
X123177542Y-108566800D01*
X123177545Y-108566800D01*
X123251429Y-108547003D01*
X123252394Y-108546445D01*
X123276277Y-108536552D01*
X123297113Y-108530970D01*
X123368487Y-108489762D01*
X123679186Y-108179063D01*
X123803354Y-108054896D01*
X123857870Y-108027119D01*
X123873357Y-108025900D01*
X123887042Y-108025900D01*
X123887044Y-108025900D01*
X123976188Y-108002014D01*
X123987315Y-107995589D01*
X123987317Y-107995589D01*
X124009073Y-107983028D01*
X124056112Y-107955870D01*
X124380470Y-107631512D01*
X124426614Y-107551588D01*
X124429570Y-107540556D01*
X124450500Y-107462444D01*
X124450500Y-106286189D01*
X124469407Y-106227998D01*
X124479490Y-106216191D01*
X125141186Y-105554494D01*
X125195703Y-105526718D01*
X125211190Y-105525499D01*
X125324175Y-105525499D01*
X125324178Y-105525499D01*
X125369760Y-105519499D01*
X125369761Y-105519499D01*
X125425978Y-105493284D01*
X125469799Y-105472850D01*
X125547850Y-105394799D01*
X125594499Y-105294760D01*
X125594608Y-105293927D01*
X125594949Y-105293213D01*
X125596618Y-105287488D01*
X125597550Y-105287759D01*
X125620946Y-105238705D01*
X125674715Y-105209508D01*
X125735378Y-105217491D01*
G37*
%TD.AperFunction*%
%TD*%
M02*
