%TF.GenerationSoftware,KiCad,Pcbnew,10.0.6*%
%TF.CreationDate,2026-10-01T22:49:05+00:00*%
%TF.ProjectId,nicklink,6e69636b-6c69-46e6-9b2e-6b696361645f,rev?*%
%TF.SameCoordinates,Original*%
%TF.FileFunction,Copper,L1,Top*%
%TF.FilePolarity,Positive*%
%FSLAX46Y46*%
G04 Gerber Fmt 4.6, Leading zero omitted, Abs format (unit mm)*
G04 Created by KiCad (PCBNEW 10.0.6) date 2026-10-01 22:49:05*
%MOMM*%
%LPD*%
G01*
G04 APERTURE LIST*
G04 Aperture macros list*
%AMRoundRect*
0 Rectangle with rounded corners*
0 $1 Rounding radius*
0 $2 $3 $4 $5 $6 $7 $8 $9 X,Y pos of 4 corners*
0 Add a 4 corners polygon primitive as box body*
4,1,4,$2,$3,$4,$5,$6,$7,$8,$9,$2,$3,0*
0 Add four circle primitives for the rounded corners*
1,1,$1+$1,$2,$3*
1,1,$1+$1,$4,$5*
1,1,$1+$1,$6,$7*
1,1,$1+$1,$8,$9*
0 Add four rect primitives between the rounded corners*
20,1,$1+$1,$2,$3,$4,$5,0*
20,1,$1+$1,$4,$5,$6,$7,0*
20,1,$1+$1,$6,$7,$8,$9,0*
20,1,$1+$1,$8,$9,$2,$3,0*%
G04 Aperture macros list end*
%TA.AperFunction,SMDPad,CuDef*%
%ADD10RoundRect,0.140000X-0.140000X-0.170000X0.140000X-0.170000X0.140000X0.170000X-0.140000X0.170000X0*%
%TD*%
%TA.AperFunction,SMDPad,CuDef*%
%ADD11RoundRect,0.075000X0.075000X-0.662500X0.075000X0.662500X-0.075000X0.662500X-0.075000X-0.662500X0*%
%TD*%
%TA.AperFunction,SMDPad,CuDef*%
%ADD12RoundRect,0.075000X0.662500X-0.075000X0.662500X0.075000X-0.662500X0.075000X-0.662500X-0.075000X0*%
%TD*%
%TA.AperFunction,SMDPad,CuDef*%
%ADD13RoundRect,0.140000X0.170000X-0.140000X0.170000X0.140000X-0.170000X0.140000X-0.170000X-0.140000X0*%
%TD*%
%TA.AperFunction,SMDPad,CuDef*%
%ADD14RoundRect,0.135000X-0.135000X-0.185000X0.135000X-0.185000X0.135000X0.185000X-0.135000X0.185000X0*%
%TD*%
%TA.AperFunction,SMDPad,CuDef*%
%ADD15RoundRect,0.087500X0.087500X-0.225000X0.087500X0.225000X-0.087500X0.225000X-0.087500X-0.225000X0*%
%TD*%
%TA.AperFunction,SMDPad,CuDef*%
%ADD16RoundRect,0.087500X0.225000X-0.087500X0.225000X0.087500X-0.225000X0.087500X-0.225000X-0.087500X0*%
%TD*%
%TA.AperFunction,ComponentPad*%
%ADD17C,0.700000*%
%TD*%
%TA.AperFunction,ComponentPad*%
%ADD18O,0.900000X2.400000*%
%TD*%
%TA.AperFunction,ComponentPad*%
%ADD19O,0.900000X1.700000*%
%TD*%
%TA.AperFunction,ComponentPad*%
%ADD20R,1.700000X1.700000*%
%TD*%
%TA.AperFunction,ComponentPad*%
%ADD21C,1.700000*%
%TD*%
%TA.AperFunction,SMDPad,CuDef*%
%ADD22RoundRect,0.147500X-0.147500X-0.172500X0.147500X-0.172500X0.147500X0.172500X-0.147500X0.172500X0*%
%TD*%
%TA.AperFunction,SMDPad,CuDef*%
%ADD23RoundRect,0.093750X-0.093750X0.156250X-0.093750X-0.156250X0.093750X-0.156250X0.093750X0.156250X0*%
%TD*%
%TA.AperFunction,SMDPad,CuDef*%
%ADD24RoundRect,0.075000X-0.075000X0.250000X-0.075000X-0.250000X0.075000X-0.250000X0.075000X0.250000X0*%
%TD*%
%TA.AperFunction,SMDPad,CuDef*%
%ADD25RoundRect,0.147500X0.172500X-0.147500X0.172500X0.147500X-0.172500X0.147500X-0.172500X-0.147500X0*%
%TD*%
%TA.AperFunction,SMDPad,CuDef*%
%ADD26RoundRect,0.135000X0.185000X-0.135000X0.185000X0.135000X-0.185000X0.135000X-0.185000X-0.135000X0*%
%TD*%
%TA.AperFunction,SMDPad,CuDef*%
%ADD27R,1.700000X0.900000*%
%TD*%
%TA.AperFunction,SMDPad,CuDef*%
%ADD28RoundRect,0.093750X-0.093750X-0.106250X0.093750X-0.106250X0.093750X0.106250X-0.093750X0.106250X0*%
%TD*%
%TA.AperFunction,HeatsinkPad*%
%ADD29R,1.000000X1.600000*%
%TD*%
%TA.AperFunction,SMDPad,CuDef*%
%ADD30RoundRect,0.112500X-0.187500X-0.112500X0.187500X-0.112500X0.187500X0.112500X-0.187500X0.112500X0*%
%TD*%
%TA.AperFunction,SMDPad,CuDef*%
%ADD31RoundRect,0.250000X-0.450000X-0.350000X0.450000X-0.350000X0.450000X0.350000X-0.450000X0.350000X0*%
%TD*%
%TA.AperFunction,SMDPad,CuDef*%
%ADD32RoundRect,0.225000X0.250000X-0.225000X0.250000X0.225000X-0.250000X0.225000X-0.250000X-0.225000X0*%
%TD*%
%TA.AperFunction,ViaPad*%
%ADD33C,0.600000*%
%TD*%
%TA.AperFunction,Conductor*%
%ADD34C,0.300000*%
%TD*%
%TA.AperFunction,Conductor*%
%ADD35C,0.225000*%
%TD*%
%TA.AperFunction,Conductor*%
%ADD36C,0.250000*%
%TD*%
%TA.AperFunction,Conductor*%
%ADD37C,0.125000*%
%TD*%
%TA.AperFunction,Conductor*%
%ADD38C,0.187400*%
%TD*%
%TA.AperFunction,Conductor*%
%ADD39C,0.150000*%
%TD*%
%TA.AperFunction,Conductor*%
%ADD40C,0.200000*%
%TD*%
%TA.AperFunction,Conductor*%
%ADD41C,0.112400*%
%TD*%
G04 APERTURE END LIST*
D10*
%TO.P,C12,1*%
%TO.N,+5V*%
X122120000Y-106850000D03*
%TO.P,C12,2*%
%TO.N,GND*%
X123080000Y-106850000D03*
%TD*%
D11*
%TO.P,U1,1*%
%TO.N,+3.3V*%
X113845000Y-120362500D03*
%TO.P,U1,2*%
%TO.N,/PC13*%
X114345000Y-120362500D03*
%TO.P,U1,3*%
%TO.N,/PC14*%
X114845000Y-120362500D03*
%TO.P,U1,4*%
%TO.N,/PC15*%
X115345000Y-120362500D03*
%TO.P,U1,5*%
%TO.N,/HSE_IN*%
X115845000Y-120362500D03*
%TO.P,U1,6*%
%TO.N,/HSE_OUT*%
X116345000Y-120362500D03*
%TO.P,U1,7*%
%TO.N,/NRST*%
X116845000Y-120362500D03*
%TO.P,U1,8*%
%TO.N,GND*%
X117345000Y-120362500D03*
%TO.P,U1,9*%
%TO.N,+3.3VA*%
X117845000Y-120362500D03*
%TO.P,U1,10*%
%TO.N,/PA0*%
X118345000Y-120362500D03*
%TO.P,U1,11*%
%TO.N,/PA1*%
X118845000Y-120362500D03*
%TO.P,U1,12*%
%TO.N,/PA2*%
X119345000Y-120362500D03*
D12*
%TO.P,U1,13*%
%TO.N,/PA3*%
X120757500Y-118950000D03*
%TO.P,U1,14*%
%TO.N,/PA4*%
X120757500Y-118450000D03*
%TO.P,U1,15*%
%TO.N,/PA5*%
X120757500Y-117950000D03*
%TO.P,U1,16*%
%TO.N,/PA6*%
X120757500Y-117450000D03*
%TO.P,U1,17*%
%TO.N,/PA7*%
X120757500Y-116950000D03*
%TO.P,U1,18*%
%TO.N,/PB0*%
X120757500Y-116450000D03*
%TO.P,U1,19*%
%TO.N,/PB1*%
X120757500Y-115950000D03*
%TO.P,U1,20*%
%TO.N,/PB2*%
X120757500Y-115450000D03*
%TO.P,U1,21*%
%TO.N,/PB10*%
X120757500Y-114950000D03*
%TO.P,U1,22*%
%TO.N,/PB11*%
X120757500Y-114450000D03*
%TO.P,U1,23*%
%TO.N,GND*%
X120757500Y-113950000D03*
%TO.P,U1,24*%
%TO.N,+3.3V*%
X120757500Y-113450000D03*
D11*
%TO.P,U1,25*%
%TO.N,/PB12*%
X119345000Y-112037500D03*
%TO.P,U1,26*%
%TO.N,/PB13*%
X118845000Y-112037500D03*
%TO.P,U1,27*%
%TO.N,/PB14*%
X118345000Y-112037500D03*
%TO.P,U1,28*%
%TO.N,/PB15*%
X117845000Y-112037500D03*
%TO.P,U1,29*%
%TO.N,/PA8*%
X117345000Y-112037500D03*
%TO.P,U1,30*%
%TO.N,/PA9*%
X116845000Y-112037500D03*
%TO.P,U1,31*%
%TO.N,/PA10*%
X116345000Y-112037500D03*
%TO.P,U1,32*%
%TO.N,/USB_D-*%
X115845000Y-112037500D03*
%TO.P,U1,33*%
%TO.N,/USB_D+*%
X115345000Y-112037500D03*
%TO.P,U1,34*%
%TO.N,/PA13*%
X114845000Y-112037500D03*
%TO.P,U1,35*%
%TO.N,GND*%
X114345000Y-112037500D03*
%TO.P,U1,36*%
%TO.N,+3.3V*%
X113845000Y-112037500D03*
D12*
%TO.P,U1,37*%
%TO.N,/PA14*%
X112432500Y-113450000D03*
%TO.P,U1,38*%
%TO.N,/PA15*%
X112432500Y-113950000D03*
%TO.P,U1,39*%
%TO.N,/PB3*%
X112432500Y-114450000D03*
%TO.P,U1,40*%
%TO.N,/PB4*%
X112432500Y-114950000D03*
%TO.P,U1,41*%
%TO.N,/PB5*%
X112432500Y-115450000D03*
%TO.P,U1,42*%
%TO.N,/PB6*%
X112432500Y-115950000D03*
%TO.P,U1,43*%
%TO.N,/PB7*%
X112432500Y-116450000D03*
%TO.P,U1,44*%
%TO.N,/BOOT0*%
X112432500Y-116950000D03*
%TO.P,U1,45*%
%TO.N,/PB8*%
X112432500Y-117450000D03*
%TO.P,U1,46*%
%TO.N,/PB9*%
X112432500Y-117950000D03*
%TO.P,U1,47*%
%TO.N,GND*%
X112432500Y-118450000D03*
%TO.P,U1,48*%
%TO.N,+3.3V*%
X112432500Y-118950000D03*
%TD*%
D13*
%TO.P,C10,1*%
%TO.N,/HSE_IN*%
X112395000Y-123880000D03*
%TO.P,C10,2*%
%TO.N,GND*%
X112395000Y-122920000D03*
%TD*%
%TO.P,C2,1*%
%TO.N,+3.3V*%
X120950000Y-112480000D03*
%TO.P,C2,2*%
%TO.N,GND*%
X120950000Y-111520000D03*
%TD*%
D14*
%TO.P,R5,1*%
%TO.N,GND*%
X112864000Y-108531000D03*
%TO.P,R5,2*%
%TO.N,/USB_CC2*%
X113884000Y-108531000D03*
%TD*%
D13*
%TO.P,C15,1*%
%TO.N,+3.3V*%
X119795000Y-127230000D03*
%TO.P,C15,2*%
%TO.N,GND*%
X119795000Y-126270000D03*
%TD*%
%TO.P,C3,1*%
%TO.N,+3.3V*%
X112030000Y-111901000D03*
%TO.P,C3,2*%
%TO.N,GND*%
X112030000Y-110941000D03*
%TD*%
%TO.P,C13,1*%
%TO.N,VBUS*%
X117638000Y-110365000D03*
%TO.P,C13,2*%
%TO.N,GND*%
X117638000Y-109405000D03*
%TD*%
D15*
%TO.P,U4,1*%
%TO.N,GND*%
X115845000Y-127912500D03*
%TO.P,U4,2*%
X116345000Y-127912500D03*
%TO.P,U4,3*%
X116845000Y-127912500D03*
%TO.P,U4,4*%
%TO.N,/PA0*%
X117345000Y-127912500D03*
D16*
%TO.P,U4,5*%
%TO.N,+3.3V*%
X117507500Y-127250000D03*
%TO.P,U4,6*%
%TO.N,GND*%
X117507500Y-126750000D03*
%TO.P,U4,7*%
X117507500Y-126250000D03*
D15*
%TO.P,U4,8*%
%TO.N,+3.3V*%
X117345000Y-125587500D03*
%TO.P,U4,9*%
%TO.N,unconnected-(U4-INT2-Pad9)*%
X116845000Y-125587500D03*
%TO.P,U4,10*%
%TO.N,unconnected-(U4-OCS_Aux-Pad10)*%
X116345000Y-125587500D03*
%TO.P,U4,11*%
%TO.N,unconnected-(U4-SDO_Aux-Pad11)*%
X115845000Y-125587500D03*
D16*
%TO.P,U4,12*%
%TO.N,+3.3V*%
X115682500Y-126250000D03*
%TO.P,U4,13*%
%TO.N,/PB6*%
X115682500Y-126750000D03*
%TO.P,U4,14*%
%TO.N,/PB7*%
X115682500Y-127250000D03*
%TD*%
D10*
%TO.P,C8,1*%
%TO.N,+3.3V*%
X124170000Y-106850000D03*
%TO.P,C8,2*%
%TO.N,GND*%
X125130000Y-106850000D03*
%TD*%
D17*
%TO.P,J2,A1*%
%TO.N,GND*%
X119570000Y-106625000D03*
%TO.P,J2,A4*%
%TO.N,VBUS*%
X118720000Y-106625000D03*
%TO.P,J2,A5*%
%TO.N,/USB_CC1*%
X117870000Y-106625000D03*
%TO.P,J2,A6*%
%TO.N,/USB_D+*%
X117020000Y-106625000D03*
%TO.P,J2,A7*%
%TO.N,/USB_D-*%
X116170000Y-106625000D03*
%TO.P,J2,A8*%
%TO.N,unconnected-(J2-SBU1-PadA8)*%
X115320000Y-106625000D03*
%TO.P,J2,A9*%
%TO.N,VBUS*%
X114470000Y-106625000D03*
%TO.P,J2,A12*%
%TO.N,GND*%
X113620000Y-106625000D03*
%TO.P,J2,B1*%
X113620000Y-105275000D03*
%TO.P,J2,B4*%
%TO.N,VBUS*%
X114470000Y-105275000D03*
%TO.P,J2,B5*%
%TO.N,/USB_CC2*%
X115320000Y-105275000D03*
%TO.P,J2,B6*%
%TO.N,/USB_D+*%
X116170000Y-105275000D03*
%TO.P,J2,B7*%
%TO.N,/USB_D-*%
X117020000Y-105275000D03*
%TO.P,J2,B8*%
%TO.N,unconnected-(J2-SBU2-PadB8)*%
X117870000Y-105275000D03*
%TO.P,J2,B9*%
%TO.N,VBUS*%
X118720000Y-105275000D03*
%TO.P,J2,B12*%
%TO.N,GND*%
X119570000Y-105275000D03*
D18*
%TO.P,J2,SH*%
X120920000Y-105645000D03*
D19*
X120920000Y-102265000D03*
D18*
X112270000Y-105645000D03*
D19*
X112270000Y-102265000D03*
%TD*%
D20*
%TO.P,J3,1*%
%TO.N,+3.3V*%
X102470000Y-102970000D03*
D21*
%TO.P,J3,2*%
%TO.N,GND*%
X105010000Y-102970000D03*
%TO.P,J3,3*%
%TO.N,/PA9*%
X102470000Y-105510000D03*
%TO.P,J3,4*%
%TO.N,/PA10*%
X105010000Y-105510000D03*
%TO.P,J3,5*%
%TO.N,/PA8*%
X102470000Y-108050000D03*
%TO.P,J3,6*%
%TO.N,/PA15*%
X105010000Y-108050000D03*
%TO.P,J3,7*%
%TO.N,/PA13*%
X102470000Y-110590000D03*
%TO.P,J3,8*%
%TO.N,/PA14*%
X105010000Y-110590000D03*
%TO.P,J3,9*%
%TO.N,/PB3*%
X102470000Y-113130000D03*
%TO.P,J3,10*%
%TO.N,/NRST*%
X105010000Y-113130000D03*
%TO.P,J3,11*%
%TO.N,/PB4*%
X102470000Y-115670000D03*
%TO.P,J3,12*%
%TO.N,/PB5*%
X105010000Y-115670000D03*
%TO.P,J3,13*%
%TO.N,/PB6*%
X102470000Y-118210000D03*
%TO.P,J3,14*%
%TO.N,/PB7*%
X105010000Y-118210000D03*
%TO.P,J3,15*%
%TO.N,/PB8*%
X102470000Y-120750000D03*
%TO.P,J3,16*%
%TO.N,/PB9*%
X105010000Y-120750000D03*
%TO.P,J3,17*%
%TO.N,/PC13*%
X102470000Y-123290000D03*
%TO.P,J3,18*%
%TO.N,/PC14*%
X105010000Y-123290000D03*
%TO.P,J3,19*%
%TO.N,/PC15*%
X102470000Y-125830000D03*
%TO.P,J3,20*%
%TO.N,GND*%
X105010000Y-125830000D03*
%TD*%
D22*
%TO.P,D1,1*%
%TO.N,/PWR_LED_K*%
X110508000Y-108580000D03*
%TO.P,D1,2*%
%TO.N,+3.3V*%
X111478000Y-108580000D03*
%TD*%
D14*
%TO.P,R6,1*%
%TO.N,/PC13*%
X110107000Y-105255000D03*
%TO.P,R6,2*%
%TO.N,/USER_LED_K*%
X111127000Y-105255000D03*
%TD*%
D13*
%TO.P,C1,1*%
%TO.N,+3.3V*%
X112300000Y-121080000D03*
%TO.P,C1,2*%
%TO.N,GND*%
X112300000Y-120120000D03*
%TD*%
%TO.P,C9,1*%
%TO.N,/NRST*%
X118895000Y-123080000D03*
%TO.P,C9,2*%
%TO.N,GND*%
X118895000Y-122120000D03*
%TD*%
D23*
%TO.P,U3,1*%
%TO.N,/USB_D-*%
X116532500Y-108420000D03*
D24*
%TO.P,U3,2*%
%TO.N,GND*%
X115995000Y-108345000D03*
D23*
%TO.P,U3,3*%
%TO.N,/USB_D+*%
X115457500Y-108420000D03*
%TO.P,U3,4*%
X115457500Y-110120000D03*
D24*
%TO.P,U3,5*%
%TO.N,VBUS*%
X115995000Y-110195000D03*
D23*
%TO.P,U3,6*%
%TO.N,/USB_D-*%
X116532500Y-110120000D03*
%TD*%
D13*
%TO.P,C6,1*%
%TO.N,+3.3VA*%
X119995000Y-123080000D03*
%TO.P,C6,2*%
%TO.N,GND*%
X119995000Y-122120000D03*
%TD*%
D25*
%TO.P,FB1,1*%
%TO.N,+3.3VA*%
X122810000Y-118085000D03*
%TO.P,FB1,2*%
%TO.N,+3.3V*%
X122810000Y-117115000D03*
%TD*%
D26*
%TO.P,R7,1*%
%TO.N,+3.3V*%
X108480000Y-121910000D03*
%TO.P,R7,2*%
%TO.N,/PB6*%
X108480000Y-120890000D03*
%TD*%
D13*
%TO.P,C4,1*%
%TO.N,+3.3V*%
X110330000Y-119430000D03*
%TO.P,C4,2*%
%TO.N,GND*%
X110330000Y-118470000D03*
%TD*%
D26*
%TO.P,R4,1*%
%TO.N,GND*%
X118861000Y-109771000D03*
%TO.P,R4,2*%
%TO.N,/USB_CC1*%
X118861000Y-108751000D03*
%TD*%
%TO.P,R8,1*%
%TO.N,/PB2*%
X123000000Y-109810000D03*
%TO.P,R8,2*%
%TO.N,GND*%
X123000000Y-108790000D03*
%TD*%
D27*
%TO.P,SW2,1*%
%TO.N,+3.3V*%
X109240000Y-115600000D03*
%TO.P,SW2,2*%
%TO.N,/BOOT0*%
X109240000Y-112200000D03*
%TD*%
D26*
%TO.P,R1,1*%
%TO.N,/BOOT0*%
X108880000Y-117910000D03*
%TO.P,R1,2*%
%TO.N,GND*%
X108880000Y-116890000D03*
%TD*%
D28*
%TO.P,U2,1*%
%TO.N,+3.3V*%
X119807500Y-108650000D03*
%TO.P,U2,2*%
%TO.N,unconnected-(U2-NC-Pad2)*%
X119807500Y-109300000D03*
%TO.P,U2,3*%
%TO.N,GND*%
X119807500Y-109950000D03*
%TO.P,U2,4*%
%TO.N,+5V*%
X121582500Y-109950000D03*
%TO.P,U2,5*%
%TO.N,unconnected-(U2-NC-Pad5)*%
X121582500Y-109300000D03*
%TO.P,U2,6*%
%TO.N,+5V*%
X121582500Y-108650000D03*
D29*
%TO.P,U2,7*%
%TO.N,GND*%
X120695000Y-109300000D03*
%TD*%
D14*
%TO.P,R2,1*%
%TO.N,+3.3V*%
X112832000Y-109621000D03*
%TO.P,R2,2*%
%TO.N,/USB_D+*%
X113852000Y-109621000D03*
%TD*%
D26*
%TO.P,R9,1*%
%TO.N,+3.3V*%
X109580000Y-121910000D03*
%TO.P,R9,2*%
%TO.N,/PB7*%
X109580000Y-120890000D03*
%TD*%
D30*
%TO.P,D2,1*%
%TO.N,+5V*%
X122600000Y-105100000D03*
%TO.P,D2,2*%
%TO.N,VBUS*%
X124700000Y-105100000D03*
%TD*%
D20*
%TO.P,J1,1*%
%TO.N,+5V*%
X128180000Y-102970000D03*
D21*
%TO.P,J1,2*%
%TO.N,GND*%
X130720000Y-102970000D03*
%TO.P,J1,3*%
%TO.N,/PB15*%
X128180000Y-105510000D03*
%TO.P,J1,4*%
%TO.N,/PB14*%
X130720000Y-105510000D03*
%TO.P,J1,5*%
%TO.N,/PB13*%
X128180000Y-108050000D03*
%TO.P,J1,6*%
%TO.N,/PB12*%
X130720000Y-108050000D03*
%TO.P,J1,7*%
%TO.N,/PB11*%
X128180000Y-110590000D03*
%TO.P,J1,8*%
%TO.N,/PB10*%
X130720000Y-110590000D03*
%TO.P,J1,9*%
%TO.N,/PB2*%
X128180000Y-113130000D03*
%TO.P,J1,10*%
%TO.N,/PB1*%
X130720000Y-113130000D03*
%TO.P,J1,11*%
%TO.N,/PB0*%
X128180000Y-115670000D03*
%TO.P,J1,12*%
%TO.N,/PA7*%
X130720000Y-115670000D03*
%TO.P,J1,13*%
%TO.N,/PA6*%
X128180000Y-118210000D03*
%TO.P,J1,14*%
%TO.N,/PA5*%
X130720000Y-118210000D03*
%TO.P,J1,15*%
%TO.N,/PA4*%
X128180000Y-120750000D03*
%TO.P,J1,16*%
%TO.N,/PA3*%
X130720000Y-120750000D03*
%TO.P,J1,17*%
%TO.N,/PA2*%
X128180000Y-123290000D03*
%TO.P,J1,18*%
%TO.N,/PA1*%
X130720000Y-123290000D03*
%TO.P,J1,19*%
%TO.N,/PA0*%
X128180000Y-125830000D03*
%TO.P,J1,20*%
%TO.N,+3.3V*%
X130720000Y-125830000D03*
%TD*%
D13*
%TO.P,C14,1*%
%TO.N,+3.3V*%
X118695000Y-127230000D03*
%TO.P,C14,2*%
%TO.N,GND*%
X118695000Y-126270000D03*
%TD*%
D27*
%TO.P,SW1,1*%
%TO.N,/NRST*%
X123950000Y-115400000D03*
%TO.P,SW1,2*%
%TO.N,GND*%
X123950000Y-112000000D03*
%TD*%
D13*
%TO.P,C11,1*%
%TO.N,/HSE_OUT*%
X117795000Y-123680000D03*
%TO.P,C11,2*%
%TO.N,GND*%
X117795000Y-122720000D03*
%TD*%
D31*
%TO.P,Y1,1*%
%TO.N,/HSE_IN*%
X113995000Y-124050000D03*
%TO.P,Y1,2*%
%TO.N,GND*%
X116195000Y-124050000D03*
%TO.P,Y1,3*%
%TO.N,/HSE_OUT*%
X116195000Y-122350000D03*
%TO.P,Y1,4*%
%TO.N,GND*%
X113995000Y-122350000D03*
%TD*%
D32*
%TO.P,C5,1*%
%TO.N,+3.3V*%
X124410000Y-119175000D03*
%TO.P,C5,2*%
%TO.N,GND*%
X124410000Y-117625000D03*
%TD*%
D14*
%TO.P,R3,1*%
%TO.N,GND*%
X108153000Y-105244000D03*
%TO.P,R3,2*%
%TO.N,/PWR_LED_K*%
X109173000Y-105244000D03*
%TD*%
D22*
%TO.P,D3,1*%
%TO.N,/USER_LED_K*%
X110679000Y-109860000D03*
%TO.P,D3,2*%
%TO.N,+3.3V*%
X111649000Y-109860000D03*
%TD*%
D13*
%TO.P,C7,1*%
%TO.N,+3.3VA*%
X121095000Y-123080000D03*
%TO.P,C7,2*%
%TO.N,GND*%
X121095000Y-122120000D03*
%TD*%
D33*
%TO.N,GND*%
X112204999Y-100774999D03*
X104584999Y-100774999D03*
X124904999Y-103314999D03*
X103314999Y-127444999D03*
X107124999Y-100774999D03*
X114744999Y-100774999D03*
X113474999Y-103314999D03*
X118554999Y-100774999D03*
X121094999Y-124904999D03*
X124904999Y-121094999D03*
X127444999Y-100774999D03*
X117284999Y-103314999D03*
X112885200Y-111297900D03*
X100774999Y-100774999D03*
X129984999Y-100774999D03*
X112204999Y-107124999D03*
X126174999Y-127444999D03*
X119824999Y-100774999D03*
X118554999Y-103314999D03*
X126174999Y-100774999D03*
X122364999Y-123634999D03*
X102044999Y-100774999D03*
X128714999Y-127444999D03*
X110934999Y-103314999D03*
X124904999Y-100774999D03*
X103314999Y-100774999D03*
X114744999Y-103314999D03*
X100774999Y-127444999D03*
X117284999Y-100774999D03*
X107124999Y-127444999D03*
X116014999Y-103314999D03*
X121094999Y-100774999D03*
X131254999Y-100774999D03*
X113474999Y-100774999D03*
X122364999Y-100774999D03*
X110999600Y-122832500D03*
X104584999Y-127444999D03*
X116014999Y-100774999D03*
X128714999Y-100774999D03*
X105854999Y-100774999D03*
X105854999Y-127444999D03*
X127444999Y-127444999D03*
X114744999Y-122364999D03*
X109664999Y-124904999D03*
X119824999Y-103314999D03*
X122364999Y-103314999D03*
X110934999Y-100774999D03*
%TO.N,+3.3V*%
X114376400Y-125502500D03*
X123214400Y-106087200D03*
X115820100Y-113988700D03*
X121163200Y-108068300D03*
X125338500Y-119412600D03*
X112350500Y-121835900D03*
%TO.N,/PC13*%
X113783400Y-119190800D03*
X109350900Y-106011100D03*
%TO.N,/PC14*%
X114836200Y-119187200D03*
%TO.N,/PC15*%
X115920600Y-119126100D03*
%TO.N,/NRST*%
X123596000Y-114487800D03*
X119615000Y-123800000D03*
X116845100Y-119191100D03*
%TO.N,+3.3VA*%
X117845000Y-119188800D03*
X119952800Y-119711900D03*
X119186000Y-124426700D03*
%TO.N,/PA0*%
X119415600Y-119114800D03*
X126455400Y-118614300D03*
%TO.N,/PA1*%
X121539100Y-121424500D03*
%TO.N,/PA2*%
X122064200Y-120362500D03*
%TO.N,/PA3*%
X122843800Y-118950000D03*
%TO.N,/PA4*%
X127123300Y-119159000D03*
X119514600Y-118282400D03*
%TO.N,/PA5*%
X121939500Y-117256400D03*
%TO.N,/PA6*%
X119579000Y-117450000D03*
%TO.N,/PA7*%
X124855200Y-116369400D03*
%TO.N,/PB0*%
X119572600Y-116594500D03*
%TO.N,/PB1*%
X118996300Y-115808000D03*
%TO.N,/PB2*%
X121939000Y-115305500D03*
%TO.N,/PB10*%
X119574700Y-114950000D03*
%TO.N,/PB11*%
X119244100Y-114222600D03*
%TO.N,/PB12*%
X120123200Y-112463800D03*
%TO.N,/PB13*%
X120187800Y-110889100D03*
%TO.N,/PB14*%
X118345000Y-113208900D03*
%TO.N,/PB15*%
X118295300Y-110867100D03*
%TO.N,/PA8*%
X117345000Y-113230100D03*
%TO.N,/PA9*%
X114153600Y-113733500D03*
%TO.N,/PA10*%
X113619400Y-113221200D03*
%TO.N,/USB_D-*%
X116440900Y-110810100D03*
%TO.N,/PA13*%
X112778100Y-110563200D03*
%TO.N,/PA14*%
X111840100Y-112860400D03*
%TO.N,/PB3*%
X110494700Y-113388400D03*
%TO.N,/PB4*%
X110894900Y-114698000D03*
%TO.N,/PB5*%
X113615500Y-115677600D03*
%TO.N,/PB6*%
X114780900Y-126175200D03*
X108431500Y-119716300D03*
X110660000Y-116598200D03*
%TO.N,/PB7*%
X113611800Y-116450000D03*
%TO.N,/PB8*%
X113603800Y-117433700D03*
%TO.N,/PB9*%
X110384700Y-117756400D03*
%TO.N,VBUS*%
X115442700Y-109416700D03*
X125260800Y-105660800D03*
%TD*%
%TO.N,+5V*%
D34*
X121707000Y-108650000D02*
X122072700Y-109015700D01*
X122071200Y-109554300D02*
X122072700Y-109555800D01*
X121582500Y-108650000D02*
X121707000Y-108650000D01*
X122072700Y-109015700D02*
X122072700Y-109142100D01*
X122120000Y-106850000D02*
X122120000Y-108237000D01*
X122120000Y-108237000D02*
X121707000Y-108650000D01*
D35*
X122072700Y-109780600D02*
X121751900Y-109780600D01*
D34*
X122600000Y-105100000D02*
X123598300Y-104101700D01*
X125916600Y-104101700D02*
X127048300Y-102970000D01*
X123598300Y-104101700D02*
X125916600Y-104101700D01*
X122072700Y-109555800D02*
X122072700Y-109780600D01*
D35*
X121751900Y-109780600D02*
X121582500Y-109950000D01*
D34*
X122600000Y-105100000D02*
X122120000Y-105580000D01*
X122120000Y-105580000D02*
X122120000Y-106850000D01*
X122072700Y-109142100D02*
X122071200Y-109143600D01*
X122071200Y-109143600D02*
X122071200Y-109554300D01*
X128180000Y-102970000D02*
X127048300Y-102970000D01*
%TO.N,GND*%
D36*
X130720000Y-102970000D02*
X129584500Y-104105500D01*
X120929000Y-111498900D02*
X120929000Y-111499000D01*
X110999600Y-122832500D02*
X111695300Y-122832500D01*
X118695000Y-126270000D02*
X119795000Y-126270000D01*
X129313400Y-113586900D02*
X129313400Y-112673100D01*
X112270000Y-103371700D02*
X111474500Y-104167200D01*
X114345000Y-111273100D02*
X114345000Y-112037500D01*
X121671000Y-122120000D02*
X123450800Y-122120000D01*
X117527000Y-124525000D02*
X117607500Y-124525000D01*
X114157000Y-107238000D02*
X115055000Y-107238000D01*
X128337000Y-111696700D02*
X127675600Y-111696700D01*
X108258100Y-117511900D02*
X108880000Y-116890000D01*
X112270000Y-102265000D02*
X112270000Y-103371700D01*
X116195000Y-124050000D02*
X116543900Y-123701100D01*
X117795000Y-122120000D02*
X117795000Y-121520800D01*
X123950000Y-112000000D02*
X123950000Y-112706700D01*
X112412500Y-118470000D02*
X112432500Y-118450000D01*
X116345000Y-127912500D02*
X115845000Y-127912500D01*
X127874500Y-104105500D02*
X125130000Y-106850000D01*
X115111600Y-124050000D02*
X115111600Y-124557600D01*
X115995000Y-108178000D02*
X115995000Y-108345000D01*
X119570000Y-105275000D02*
X119570000Y-104721700D01*
X120695000Y-110356700D02*
X121383100Y-111044800D01*
X121430000Y-112000000D02*
X120950000Y-111520000D01*
X121671000Y-122120000D02*
X121671000Y-123454800D01*
X129584500Y-104105500D02*
X127874500Y-104105500D01*
X112270000Y-105645000D02*
X113250000Y-105645000D01*
X112552000Y-124936800D02*
X111782800Y-124167600D01*
X120014400Y-125111400D02*
X117954300Y-125111400D01*
X126139800Y-114400000D02*
X128500300Y-114400000D01*
D37*
X117527000Y-124444500D02*
X117527000Y-124525000D01*
D36*
X117607500Y-124525000D02*
X117691500Y-124609000D01*
X125951300Y-119619500D02*
X125951300Y-119166300D01*
X124410000Y-117625000D02*
X125411900Y-116623100D01*
X117507500Y-126750000D02*
X117507500Y-126270000D01*
X125411900Y-115127900D02*
X124193700Y-113909700D01*
X108565100Y-118470000D02*
X108258100Y-118163000D01*
D38*
X117439500Y-121165300D02*
X117345000Y-121165300D01*
D36*
X123950000Y-112706700D02*
X123950000Y-113909700D01*
X115111600Y-124557600D02*
X114732400Y-124936800D01*
X114732400Y-124936800D02*
X112552000Y-124936800D01*
X113008800Y-111119900D02*
X113098300Y-111030400D01*
X113098300Y-111030400D02*
X114102300Y-111030400D01*
X125951300Y-119166300D02*
X124410000Y-117625000D01*
D37*
X116783600Y-123701100D02*
X117527000Y-124444500D01*
D36*
X117507500Y-126270000D02*
X117507500Y-126250000D01*
X124768900Y-108790000D02*
X123000000Y-108790000D01*
X108258100Y-118163000D02*
X108258100Y-117511900D01*
X117795000Y-121520800D02*
X117439500Y-121165300D01*
X120920000Y-102818300D02*
X112823300Y-102818300D01*
X129613300Y-101863300D02*
X126445800Y-101863300D01*
X117345000Y-121165300D02*
X117345000Y-120362500D01*
X130720000Y-102970000D02*
X129613300Y-101863300D01*
X123000000Y-107495300D02*
X123080000Y-107415300D01*
X119988700Y-110332400D02*
X119807500Y-110151200D01*
X118895000Y-122120000D02*
X117795000Y-122120000D01*
X116845000Y-127912500D02*
X116345000Y-127912500D01*
X111782800Y-122920000D02*
X112395000Y-122920000D01*
X105788900Y-125051100D02*
X105010000Y-125830000D01*
X120442800Y-110356700D02*
X120418500Y-110332400D01*
X129313400Y-112673100D02*
X128337000Y-111696700D01*
X114102300Y-111030400D02*
X114345000Y-111273100D01*
X120797800Y-113909700D02*
X120757500Y-113950000D01*
X120920000Y-102265000D02*
X120920000Y-102818300D01*
X111414100Y-119234100D02*
X112300000Y-120120000D01*
X110330000Y-118470000D02*
X108565100Y-118470000D01*
X121095000Y-122120000D02*
X121671000Y-122120000D01*
X117795000Y-122720000D02*
X117795000Y-122120000D01*
X119995000Y-122120000D02*
X121095000Y-122120000D01*
X120695000Y-109300000D02*
X120695000Y-110356700D01*
X111782800Y-124167600D02*
X111782800Y-122920000D01*
X105879000Y-102970000D02*
X108153000Y-105244000D01*
X127675600Y-111696700D02*
X124768900Y-108790000D01*
X119807500Y-110151200D02*
X119807500Y-109950000D01*
X120695000Y-110356700D02*
X120442800Y-110356700D01*
X111695300Y-122832500D02*
X111782800Y-122920000D01*
X117822900Y-124980000D02*
X117954300Y-125111400D01*
X123450800Y-122120000D02*
X125951300Y-119619500D01*
X118695000Y-126270000D02*
X117954300Y-126270000D01*
X123080000Y-107415300D02*
X123385100Y-107415300D01*
X111414100Y-118470000D02*
X112412500Y-118470000D01*
X115845000Y-127912500D02*
X113170800Y-127912500D01*
D38*
X123385100Y-107415300D02*
X123880000Y-107415300D01*
D36*
X120929000Y-111499000D02*
X120950000Y-111520000D01*
X112885200Y-111119900D02*
X113008800Y-111119900D01*
X121778200Y-103676500D02*
X120920000Y-102818300D01*
X120418500Y-110332400D02*
X119988700Y-110332400D01*
X114157000Y-107238000D02*
X112864000Y-108531000D01*
X111474500Y-104167200D02*
X109229800Y-104167200D01*
X121671000Y-123454800D02*
X120014400Y-125111400D01*
X113620000Y-106701000D02*
X114157000Y-107238000D01*
X112885200Y-111119900D02*
X112885200Y-111297900D01*
X125411900Y-115127900D02*
X126139800Y-114400000D01*
X124193700Y-113909700D02*
X123950000Y-113909700D01*
X119807500Y-109950000D02*
X119040000Y-109950000D01*
D37*
X117691500Y-124609000D02*
X117822900Y-124740400D01*
D36*
X112300000Y-120120000D02*
X111695300Y-120724700D01*
X115111600Y-124050000D02*
X115111600Y-123466600D01*
X119570000Y-104721700D02*
X120920000Y-103371700D01*
X123080000Y-107415300D02*
X123080000Y-106850000D01*
X123950000Y-112000000D02*
X121430000Y-112000000D01*
X118495000Y-109405000D02*
X117638000Y-109405000D01*
X111695300Y-120724700D02*
X111695300Y-122832500D01*
X105010000Y-102970000D02*
X105879000Y-102970000D01*
X118861000Y-109771000D02*
X118495000Y-109405000D01*
X111414100Y-118470000D02*
X111414100Y-119234100D01*
X126445800Y-101863300D02*
X124632600Y-103676500D01*
D38*
X120929000Y-111498900D02*
X121383100Y-111044800D01*
D36*
X119040000Y-109950000D02*
X118861000Y-109771000D01*
X112208900Y-111119900D02*
X112885200Y-111119900D01*
X123000000Y-108790000D02*
X123000000Y-107495300D01*
X117954300Y-126270000D02*
X117507500Y-126270000D01*
X120920000Y-105645000D02*
X119940000Y-105645000D01*
X128500300Y-114400000D02*
X129313400Y-113586900D01*
X125411900Y-116623100D02*
X125411900Y-115127900D01*
X110330000Y-118470000D02*
X111414100Y-118470000D01*
X117822900Y-124740400D02*
X117822900Y-124980000D01*
X110309400Y-125051100D02*
X105788900Y-125051100D01*
X115055000Y-107238000D02*
X115995000Y-108178000D01*
X116543900Y-123701100D02*
X116783600Y-123701100D01*
X124430400Y-107549600D02*
X125130000Y-106850000D01*
X113620000Y-106625000D02*
X113620000Y-106701000D01*
X117954300Y-125111400D02*
X117954300Y-126270000D01*
X116195000Y-124050000D02*
X115111600Y-124050000D01*
X123950000Y-113909700D02*
X120797800Y-113909700D01*
X119940000Y-105645000D02*
X119570000Y-105275000D01*
X113170800Y-127912500D02*
X110309400Y-125051100D01*
X119995000Y-122120000D02*
X118895000Y-122120000D01*
X124632600Y-103676500D02*
X121778200Y-103676500D01*
D38*
X123880000Y-107415300D02*
X124014300Y-107549600D01*
D36*
X124014300Y-107549600D02*
X124430400Y-107549600D01*
X109229800Y-104167200D02*
X108153000Y-105244000D01*
X113250000Y-105645000D02*
X113620000Y-105275000D01*
X112030000Y-110941000D02*
X112208900Y-111119900D01*
X120920000Y-102818300D02*
X120920000Y-103371700D01*
X112823300Y-102818300D02*
X112270000Y-102265000D01*
X115111600Y-123466600D02*
X113995000Y-122350000D01*
%TO.N,+3.3V*%
D34*
X111768500Y-108870500D02*
X111768500Y-109621000D01*
X120725900Y-113481600D02*
X120131200Y-113481600D01*
X103862800Y-113584000D02*
X104678800Y-114400000D01*
X124410000Y-119175000D02*
X124410000Y-118925600D01*
X118936300Y-113519500D02*
X117845000Y-114610800D01*
X108617900Y-119134600D02*
X107819100Y-118335800D01*
X104521100Y-104101700D02*
X105272500Y-104101700D01*
X119807500Y-108650000D02*
X119807500Y-108483200D01*
X109580000Y-121910000D02*
X108480000Y-121910000D01*
X120950000Y-113257500D02*
X120950000Y-112480000D01*
X111410400Y-111281400D02*
X111410400Y-110795400D01*
X111410400Y-110646700D02*
X111410400Y-110462300D01*
X112300000Y-121080000D02*
X113017500Y-120362500D01*
X124170000Y-106850000D02*
X123407200Y-106087200D01*
X113201700Y-118949900D02*
X113201700Y-119275700D01*
X103601700Y-103182300D02*
X104521100Y-104101700D01*
X123407200Y-106087200D02*
X123214400Y-106087200D01*
X124410000Y-118925600D02*
X123653900Y-118169500D01*
X103862800Y-107554900D02*
X103862800Y-113584000D01*
X116442200Y-114610800D02*
X116442200Y-115686300D01*
X116442200Y-115686300D02*
X113426700Y-118701800D01*
D35*
X120093300Y-113519500D02*
X120131200Y-113481600D01*
D34*
X110034600Y-119134600D02*
X108617900Y-119134600D01*
X120757500Y-113450000D02*
X120725900Y-113481600D01*
X116442200Y-114610800D02*
X115820100Y-113988700D01*
X115374600Y-125347900D02*
X114376400Y-125347900D01*
D35*
X123653900Y-117958900D02*
X123204200Y-117509200D01*
D34*
X112942400Y-119459900D02*
X113017500Y-119459900D01*
X112030000Y-111901000D02*
X111410400Y-111281400D01*
X124647600Y-119412600D02*
X125338500Y-119412600D01*
X115374600Y-126060800D02*
X115374600Y-125347900D01*
X112300000Y-121785400D02*
X112350500Y-121835900D01*
X112300000Y-121080000D02*
X112300000Y-121785400D01*
X113017500Y-119459900D02*
X113017500Y-120362500D01*
X113017500Y-120362500D02*
X113845000Y-120362500D01*
X115682500Y-126250000D02*
X115563800Y-126250000D01*
X114376400Y-125347900D02*
X114376400Y-125502500D01*
D39*
X116528900Y-124962800D02*
X116621500Y-124870200D01*
D34*
X109580000Y-122556900D02*
X109580000Y-121910000D01*
X106153000Y-106908600D02*
X104509100Y-106908600D01*
X130720000Y-125830000D02*
X129543500Y-124653500D01*
X115374600Y-125193900D02*
X115605700Y-124962800D01*
X109706700Y-110462300D02*
X106153000Y-106908600D01*
X118695000Y-127230000D02*
X118675000Y-127250000D01*
X113708500Y-111901000D02*
X113845000Y-112037500D01*
X111649000Y-109860000D02*
X111768500Y-109740500D01*
X129543500Y-124653500D02*
X122371500Y-124653500D01*
X113426700Y-118701800D02*
X113426700Y-118724900D01*
X105272500Y-104101700D02*
X106153000Y-104982200D01*
X106750800Y-114400000D02*
X107950800Y-115600000D01*
D39*
X116621500Y-124870200D02*
X116978400Y-124870200D01*
D34*
X106153000Y-104982200D02*
X106153000Y-106908600D01*
X114376400Y-125347900D02*
X112371000Y-125347900D01*
X107950800Y-115600000D02*
X109240000Y-115600000D01*
X113426700Y-118724900D02*
X113201700Y-118949900D01*
X111478000Y-108580000D02*
X111768500Y-108870500D01*
X111410400Y-110462300D02*
X111410400Y-110098600D01*
X122371500Y-124653500D02*
X119795000Y-127230000D01*
X111768500Y-109740500D02*
X111768500Y-109621000D01*
X102470000Y-102970000D02*
X103601700Y-102970000D01*
X112371000Y-125347900D02*
X109580000Y-122556900D01*
X119619800Y-113519500D02*
X118936300Y-113519500D01*
X104678800Y-114400000D02*
X106750800Y-114400000D01*
X117345000Y-125236800D02*
X117345000Y-125587500D01*
X107819100Y-118335800D02*
X107819100Y-115731700D01*
X111410400Y-110462300D02*
X109706700Y-110462300D01*
X124410000Y-119175000D02*
X124647600Y-119412600D01*
X103601700Y-102970000D02*
X103601700Y-103182300D01*
D35*
X111410400Y-110795400D02*
X111410400Y-110646700D01*
D34*
X110330000Y-119430000D02*
X110034600Y-119134600D01*
X116978400Y-124870200D02*
X117345000Y-125236800D01*
D35*
X119619800Y-113519500D02*
X120093300Y-113519500D01*
D34*
X123204200Y-117509200D02*
X122810000Y-117115000D01*
X117845000Y-114610800D02*
X116442200Y-114610800D01*
X120757500Y-113450000D02*
X120950000Y-113257500D01*
X118695000Y-127230000D02*
X119795000Y-127230000D01*
X115563800Y-126250000D02*
X115374600Y-126060800D01*
X107819100Y-115731700D02*
X107950800Y-115600000D01*
X120222400Y-108068300D02*
X121163200Y-108068300D01*
X110330000Y-119430000D02*
X110330000Y-121160000D01*
X110330000Y-121160000D02*
X109580000Y-121910000D01*
D35*
X123653900Y-118169500D02*
X123653900Y-117958900D01*
D34*
X115374600Y-125347900D02*
X115374600Y-125193900D01*
X118675000Y-127250000D02*
X117507500Y-127250000D01*
X104509100Y-106908600D02*
X103862800Y-107554900D01*
X112432500Y-118950000D02*
X112942400Y-119459900D01*
X111410400Y-110098600D02*
X111649000Y-109860000D01*
X111768500Y-109621000D02*
X112832000Y-109621000D01*
X112030000Y-111901000D02*
X113708500Y-111901000D01*
X115605700Y-124962800D02*
X116528900Y-124962800D01*
X113201700Y-119275700D02*
X113017500Y-119459900D01*
X119807500Y-108483200D02*
X120222400Y-108068300D01*
%TO.N,/PC13*%
D39*
X114345000Y-120362500D02*
X114345000Y-119645400D01*
X110107000Y-105255000D02*
X109350900Y-106011100D01*
X114345000Y-119645400D02*
X113890400Y-119190800D01*
X113890400Y-119190800D02*
X113783400Y-119190800D01*
%TO.N,/PC14*%
X114845000Y-119196000D02*
X114836200Y-119187200D01*
X114845000Y-120362500D02*
X114845000Y-119196000D01*
%TO.N,/PC15*%
X115345000Y-119701700D02*
X115345000Y-120362500D01*
X115920600Y-119126100D02*
X115345000Y-119701700D01*
%TO.N,/HSE_IN*%
D40*
X115845000Y-120600000D02*
X115845000Y-121350000D01*
X113000000Y-123880000D02*
X112395000Y-123880000D01*
X113000000Y-124050000D02*
X113995000Y-124050000D01*
X115845000Y-121350000D02*
X113000000Y-121350000D01*
X113000000Y-121350000D02*
X113000000Y-124050000D01*
D39*
X115845000Y-120600000D02*
X115845000Y-120362500D01*
%TO.N,/HSE_OUT*%
X116345000Y-120600000D02*
X116345000Y-120362500D01*
D40*
X117190000Y-122350000D02*
X117190000Y-123680000D01*
X116195000Y-122350000D02*
X117190000Y-122350000D01*
X116345000Y-120600000D02*
X116345000Y-122350000D01*
X116345000Y-122350000D02*
X116195000Y-122350000D01*
X117190000Y-123680000D02*
X117795000Y-123680000D01*
%TO.N,/NRST*%
D39*
X123851500Y-114743300D02*
X123596000Y-114487800D01*
X123950000Y-114743300D02*
X123851500Y-114743300D01*
X116845100Y-120362500D02*
X116845100Y-119191100D01*
X116845000Y-120362500D02*
X116845100Y-120362500D01*
X123950000Y-115400000D02*
X123950000Y-114743300D01*
X118895000Y-123080000D02*
X119615000Y-123800000D01*
%TO.N,+3.3VA*%
D34*
X121095000Y-123080000D02*
X120215800Y-123080000D01*
X122959200Y-119711900D02*
X119952800Y-119711900D01*
X119186000Y-124426700D02*
X119811100Y-124426700D01*
X117845000Y-120362500D02*
X117845000Y-119188800D01*
X123456500Y-119214600D02*
X122959200Y-119711900D01*
X120215800Y-124022000D02*
X120215800Y-123080000D01*
X122810000Y-118085000D02*
X123456500Y-118731500D01*
X119811100Y-124426700D02*
X120215800Y-124022000D01*
X120215800Y-123080000D02*
X119995000Y-123080000D01*
X123456500Y-118731500D02*
X123456500Y-119214600D01*
%TO.N,/PA0*%
D39*
X123011600Y-125102500D02*
X120201600Y-127912500D01*
X118345000Y-120362500D02*
X118345000Y-119670900D01*
X131823900Y-125376700D02*
X130885700Y-124438500D01*
X129450100Y-123556700D02*
X129450100Y-123033200D01*
X131823900Y-126280300D02*
X131823900Y-125376700D01*
X126455400Y-120553500D02*
X126455400Y-118614300D01*
X120201600Y-127912500D02*
X117345000Y-127912500D01*
X128180000Y-125830000D02*
X129255300Y-126905300D01*
X127452500Y-125102500D02*
X123011600Y-125102500D01*
X128180000Y-125830000D02*
X127452500Y-125102500D01*
X129450100Y-123033200D02*
X128416500Y-121999600D01*
X127901500Y-121999600D02*
X126455400Y-120553500D01*
X118901100Y-119114800D02*
X119415600Y-119114800D01*
X130331900Y-124438500D02*
X129450100Y-123556700D01*
X131198900Y-126905300D02*
X131823900Y-126280300D01*
X128416500Y-121999600D02*
X127901500Y-121999600D01*
X130885700Y-124438500D02*
X130331900Y-124438500D01*
X129255300Y-126905300D02*
X131198900Y-126905300D01*
X118345000Y-119670900D02*
X118901100Y-119114800D01*
%TO.N,/PA1*%
X119243200Y-121424500D02*
X118845000Y-121026300D01*
X121539100Y-121424500D02*
X119243200Y-121424500D01*
X118845000Y-121026300D02*
X118845000Y-120362500D01*
%TO.N,/PA2*%
X119345000Y-120362500D02*
X122064200Y-120362500D01*
%TO.N,/PA3*%
X120757500Y-118950000D02*
X122843800Y-118950000D01*
%TO.N,/PA4*%
X128180000Y-120750000D02*
X127123300Y-119693300D01*
X119682200Y-118450000D02*
X120757500Y-118450000D01*
X127123300Y-119693300D02*
X127123300Y-119159000D01*
X119514600Y-118282400D02*
X119682200Y-118450000D01*
%TO.N,/PA5*%
D41*
X120757500Y-117950000D02*
X121386700Y-117950000D01*
X121939500Y-117397200D02*
X121939500Y-117256400D01*
X121386700Y-117950000D02*
X121939500Y-117397200D01*
%TO.N,/PA6*%
D39*
X120757500Y-117450000D02*
X119579000Y-117450000D01*
%TO.N,/PA7*%
X122050800Y-116369400D02*
X121470200Y-116950000D01*
X124855200Y-116369400D02*
X122050800Y-116369400D01*
X121470200Y-116950000D02*
X120757500Y-116950000D01*
%TO.N,/PB0*%
X119788500Y-116594500D02*
X119572600Y-116594500D01*
D41*
X119788500Y-116594500D02*
X120613000Y-116594500D01*
X120613000Y-116594500D02*
X120757500Y-116450000D01*
%TO.N,/PB1*%
X120615500Y-115808000D02*
X118996300Y-115808000D01*
X120757500Y-115950000D02*
X120615500Y-115808000D01*
%TO.N,/PB2*%
X120902000Y-115305500D02*
X120757500Y-115450000D01*
D39*
X124187800Y-109811500D02*
X124861500Y-109811500D01*
X123000000Y-109810000D02*
X124186300Y-109810000D01*
X124186300Y-109810000D02*
X124187800Y-109811500D01*
D41*
X121939000Y-115305500D02*
X120902000Y-115305500D01*
D39*
X124861500Y-109811500D02*
X128180000Y-113130000D01*
%TO.N,/PB10*%
X119574700Y-114950000D02*
X120757500Y-114950000D01*
%TO.N,/PB11*%
D41*
X120757500Y-114450000D02*
X119471500Y-114450000D01*
X119471500Y-114450000D02*
X119244100Y-114222600D01*
%TO.N,/PB12*%
D39*
X119771300Y-112463800D02*
X120123200Y-112463800D01*
X119345000Y-112037500D02*
X119771300Y-112463800D01*
%TO.N,/PB13*%
X118845000Y-111378100D02*
X118845000Y-112037500D01*
X120187800Y-110889100D02*
X119334000Y-110889100D01*
X119334000Y-110889100D02*
X118845000Y-111378100D01*
%TO.N,/PB14*%
X118345000Y-112037500D02*
X118345000Y-113208900D01*
%TO.N,/PB15*%
X117845000Y-112037500D02*
X117845000Y-111317400D01*
X117845000Y-111317400D02*
X118295300Y-110867100D01*
%TO.N,/PA8*%
X117345000Y-112037500D02*
X117345000Y-113230100D01*
%TO.N,/PA9*%
X116845000Y-112708500D02*
X116071500Y-113482000D01*
X116845000Y-112037500D02*
X116845000Y-112708500D01*
X114405100Y-113482000D02*
X114153600Y-113733500D01*
X116071500Y-113482000D02*
X114405100Y-113482000D01*
%TO.N,/PA10*%
X116345000Y-112703400D02*
X115848100Y-113200300D01*
X115848100Y-113200300D02*
X113640300Y-113200300D01*
X113640300Y-113200300D02*
X113619400Y-113221200D01*
X116345000Y-112037500D02*
X116345000Y-112703400D01*
%TO.N,/USB_D-*%
X116170000Y-106625000D02*
X116170000Y-106125000D01*
D41*
X116440900Y-110810100D02*
X116105100Y-110810100D01*
D39*
X116522900Y-110725500D02*
X116522900Y-110129600D01*
D41*
X116522900Y-110725500D02*
X116440900Y-110725500D01*
D39*
X116522900Y-110129600D02*
X116532500Y-110120000D01*
X116170000Y-106125000D02*
X117020000Y-105275000D01*
X116089600Y-110825600D02*
X115845000Y-111070200D01*
X116170000Y-106625000D02*
X116532500Y-106987500D01*
D41*
X116105100Y-110810100D02*
X116089600Y-110825600D01*
D39*
X116532500Y-106987500D02*
X116532500Y-108420000D01*
X116440900Y-110725500D02*
X116440900Y-110810100D01*
X115845000Y-111070200D02*
X115845000Y-112037500D01*
%TO.N,/USB_D+*%
X115457500Y-108579100D02*
X114631900Y-109404700D01*
X114526100Y-109409300D02*
X114530700Y-109404700D01*
X114530700Y-109404700D02*
X114631800Y-109404700D01*
X115457500Y-108579100D02*
X115457500Y-108420000D01*
X115345000Y-110232500D02*
X115457500Y-110120000D01*
X114631900Y-109404700D02*
X115347100Y-110120000D01*
X116761600Y-108879900D02*
X115758300Y-108879900D01*
X117020000Y-106625000D02*
X117020000Y-108621500D01*
X115758300Y-108879900D02*
X115457500Y-108579100D01*
X114063700Y-109409300D02*
X114526100Y-109409300D01*
X115347100Y-110120000D02*
X115457500Y-110120000D01*
X115345000Y-112037500D02*
X115345000Y-110232500D01*
X114631800Y-109404700D02*
X114631900Y-109404700D01*
X113852000Y-109621000D02*
X114063700Y-109409300D01*
X117020000Y-108621500D02*
X116761600Y-108879900D01*
%TO.N,/PA13*%
X114108200Y-110563200D02*
X112778100Y-110563200D01*
X114845000Y-111300000D02*
X114108200Y-110563200D01*
X114845000Y-112037500D02*
X114845000Y-111300000D01*
%TO.N,/PA14*%
X111842900Y-112860400D02*
X111840100Y-112860400D01*
X112432500Y-113450000D02*
X111842900Y-112860400D01*
%TO.N,/PA15*%
X112432500Y-113950000D02*
X111716200Y-113950000D01*
X111716200Y-113950000D02*
X111015800Y-113249600D01*
X111015800Y-112376900D02*
X106688900Y-108050000D01*
X106688900Y-108050000D02*
X105010000Y-108050000D01*
X111015800Y-113249600D02*
X111015800Y-112376900D01*
%TO.N,/PB3*%
X110494700Y-113388400D02*
X111556300Y-114450000D01*
X111556300Y-114450000D02*
X112432500Y-114450000D01*
%TO.N,/PB4*%
D41*
X112432500Y-114950000D02*
X111146900Y-114950000D01*
X111146900Y-114950000D02*
X110894900Y-114698000D01*
%TO.N,/PB5*%
X113387900Y-115450000D02*
X113615500Y-115677600D01*
X112432500Y-115450000D02*
X113387900Y-115450000D01*
%TO.N,/PB6*%
D39*
X103544700Y-117135300D02*
X105850500Y-117135300D01*
X102470000Y-118210000D02*
X103544700Y-117135300D01*
X105850500Y-117135300D02*
X108431500Y-119716300D01*
X111308200Y-115950000D02*
X110660000Y-116598200D01*
X108480000Y-119764800D02*
X108431500Y-119716300D01*
X108480000Y-120890000D02*
X108480000Y-119764800D01*
X115682500Y-126750000D02*
X115355700Y-126750000D01*
X115355700Y-126750000D02*
X114780900Y-126175200D01*
X112432500Y-115950000D02*
X111308200Y-115950000D01*
%TO.N,/PB7*%
X105010000Y-118210000D02*
X105010000Y-118281700D01*
X107948000Y-122220500D02*
X107948000Y-121574500D01*
X107948000Y-121574500D02*
X108125400Y-121397100D01*
X109072900Y-121397100D02*
X109580000Y-120890000D01*
X105010000Y-118281700D02*
X108125400Y-121397100D01*
X112977500Y-127250000D02*
X107948000Y-122220500D01*
X112432500Y-116450000D02*
X113611800Y-116450000D01*
X115682500Y-127250000D02*
X112977500Y-127250000D01*
X108125400Y-121397100D02*
X109072900Y-121397100D01*
%TO.N,/BOOT0*%
X110153300Y-116388300D02*
X110153300Y-116808100D01*
X110153300Y-116808100D02*
X110450100Y-117104900D01*
X109240000Y-112856700D02*
X110298700Y-113915400D01*
X110298700Y-116242900D02*
X110153300Y-116388300D01*
X110873200Y-117104900D02*
X111028100Y-116950000D01*
X109240000Y-112200000D02*
X109240000Y-112856700D01*
X109981900Y-116808100D02*
X108880000Y-117910000D01*
X110298700Y-113915400D02*
X110298700Y-116242900D01*
X110153300Y-116808100D02*
X109981900Y-116808100D01*
X110450100Y-117104900D02*
X110873200Y-117104900D01*
X111028100Y-116950000D02*
X112432500Y-116950000D01*
%TO.N,/PB8*%
X112432500Y-117450000D02*
X112448800Y-117433700D01*
X112448800Y-117433700D02*
X113603800Y-117433700D01*
%TO.N,/PB9*%
X112432500Y-117950000D02*
X110578300Y-117950000D01*
X110578300Y-117950000D02*
X110384700Y-117756400D01*
%TO.N,/USB_CC2*%
D41*
X112388300Y-108145500D02*
X112388300Y-108285700D01*
D39*
X114575200Y-106019800D02*
X113403500Y-106019800D01*
X112586200Y-109071600D02*
X113343400Y-109071600D01*
D41*
X112388300Y-108285700D02*
X112204400Y-108469600D01*
D39*
X112939300Y-107594500D02*
X112388300Y-108145500D01*
X112204400Y-108469600D02*
X112204400Y-108689800D01*
X115320000Y-105275000D02*
X114575200Y-106019800D01*
X112204400Y-108689800D02*
X112586200Y-109071600D01*
X113343400Y-109071600D02*
X113884000Y-108531000D01*
X113403500Y-106019800D02*
X112939300Y-106484000D01*
X112939300Y-106484000D02*
X112939300Y-107594500D01*
%TO.N,VBUS*%
D34*
X114470000Y-105196200D02*
X115087800Y-104578400D01*
X115995000Y-109560900D02*
X116833900Y-109560900D01*
X118720000Y-105177100D02*
X118720000Y-105275000D01*
X114470000Y-105275000D02*
X114470000Y-105196200D01*
X115087800Y-104578400D02*
X118121300Y-104578400D01*
X124700000Y-105100000D02*
X125260800Y-105660800D01*
X118121300Y-104578400D02*
X118720000Y-105177100D01*
X115586900Y-109560900D02*
X115995000Y-109560900D01*
X115995000Y-110195000D02*
X115995000Y-109560900D01*
X116833900Y-109560900D02*
X117638000Y-110365000D01*
X115442700Y-109416700D02*
X115586900Y-109560900D01*
%TO.N,/USB_CC1*%
D39*
X117870000Y-106625000D02*
X118861000Y-107616000D01*
X118861000Y-107616000D02*
X118861000Y-108751000D01*
%TO.N,/PWR_LED_K*%
D41*
X110997600Y-105780700D02*
X110977200Y-105801100D01*
D39*
X110508000Y-108580000D02*
X110508000Y-106270300D01*
X110508000Y-106270300D02*
X110977200Y-105801100D01*
X109705900Y-104711100D02*
X111602700Y-104711100D01*
D41*
X111608800Y-105780700D02*
X110997600Y-105780700D01*
X111602700Y-104711100D02*
X111602700Y-105370600D01*
D39*
X111608800Y-105376700D02*
X111608800Y-105780700D01*
X109173000Y-105244000D02*
X109705900Y-104711100D01*
D41*
X111602700Y-105370600D02*
X111608800Y-105376700D01*
%TO.N,/USER_LED_K*%
D39*
X110679000Y-109860000D02*
X110002600Y-109183600D01*
X110002600Y-106377200D02*
X111124800Y-105255000D01*
X111124800Y-105255000D02*
X111127000Y-105255000D01*
X110002600Y-109183600D02*
X110002600Y-106377200D01*
%TD*%
%TA.AperFunction,Conductor*%
%TO.N,GND*%
G36*
X132697696Y-100201719D02*
G01*
X132767064Y-100212706D01*
X132796521Y-100222277D01*
X132852068Y-100250579D01*
X132877128Y-100268785D01*
X132921214Y-100312871D01*
X132939420Y-100337931D01*
X132967722Y-100393478D01*
X132977293Y-100422933D01*
X132988281Y-100492301D01*
X132989500Y-100507790D01*
X132989500Y-128292208D01*
X132988281Y-128307696D01*
X132977294Y-128377062D01*
X132967722Y-128406520D01*
X132939418Y-128462069D01*
X132921213Y-128487127D01*
X132877127Y-128531213D01*
X132852069Y-128549418D01*
X132796520Y-128577722D01*
X132767062Y-128587294D01*
X132731842Y-128592872D01*
X132697694Y-128598281D01*
X132682208Y-128599500D01*
X117568493Y-128599500D01*
X117510302Y-128580593D01*
X117474338Y-128531093D01*
X117474338Y-128469907D01*
X117510302Y-128420407D01*
X117528504Y-128409936D01*
X117547163Y-128401696D01*
X117598079Y-128379215D01*
X117674215Y-128303079D01*
X117698972Y-128247011D01*
X117739773Y-128201416D01*
X117789536Y-128188000D01*
X120256399Y-128188000D01*
X120256400Y-128188000D01*
X120357658Y-128146057D01*
X120435157Y-128068558D01*
X120435156Y-128068558D01*
X122182466Y-126321248D01*
X122236982Y-126293472D01*
X122297414Y-126303043D01*
X122340679Y-126346308D01*
X122350250Y-126406740D01*
X122346624Y-126421844D01*
X122342753Y-126433756D01*
X122309500Y-126643709D01*
X122309500Y-126856290D01*
X122342752Y-127066238D01*
X122408443Y-127268412D01*
X122504948Y-127457815D01*
X122504950Y-127457819D01*
X122629891Y-127629786D01*
X122629893Y-127629788D01*
X122629896Y-127629792D01*
X122780208Y-127780104D01*
X122780211Y-127780106D01*
X122780213Y-127780108D01*
X122952180Y-127905049D01*
X122952184Y-127905051D01*
X123141588Y-128001557D01*
X123343757Y-128067246D01*
X123343758Y-128067246D01*
X123343761Y-128067247D01*
X123553710Y-128100500D01*
X123553713Y-128100500D01*
X123766290Y-128100500D01*
X123976238Y-128067247D01*
X123976239Y-128067246D01*
X123976243Y-128067246D01*
X124178412Y-128001557D01*
X124367816Y-127905051D01*
X124539792Y-127780104D01*
X124690104Y-127629792D01*
X124815051Y-127457816D01*
X124911557Y-127268412D01*
X124977246Y-127066243D01*
X124978020Y-127061358D01*
X125010500Y-126856290D01*
X125010500Y-126643709D01*
X124977247Y-126433761D01*
X124977246Y-126433757D01*
X124911557Y-126231588D01*
X124815051Y-126042184D01*
X124815049Y-126042180D01*
X124690108Y-125870213D01*
X124690106Y-125870211D01*
X124690104Y-125870208D01*
X124539792Y-125719896D01*
X124539788Y-125719893D01*
X124539786Y-125719891D01*
X124367819Y-125594950D01*
X124367815Y-125594948D01*
X124309450Y-125565210D01*
X124266185Y-125521945D01*
X124256614Y-125461513D01*
X124284391Y-125406996D01*
X124338908Y-125379219D01*
X124354395Y-125378000D01*
X127082007Y-125378000D01*
X127140198Y-125396907D01*
X127176162Y-125446407D01*
X127176162Y-125507593D01*
X127173472Y-125514884D01*
X127169871Y-125523577D01*
X127169869Y-125523582D01*
X127129500Y-125726532D01*
X127129500Y-125933467D01*
X127169869Y-126136418D01*
X127249058Y-126327597D01*
X127321730Y-126436359D01*
X127364023Y-126499655D01*
X127510345Y-126645977D01*
X127682402Y-126760941D01*
X127873580Y-126840130D01*
X128076535Y-126880500D01*
X128076536Y-126880500D01*
X128283464Y-126880500D01*
X128283465Y-126880500D01*
X128486420Y-126840130D01*
X128647403Y-126773447D01*
X128708400Y-126768647D01*
X128755293Y-126794908D01*
X129021743Y-127061358D01*
X129021742Y-127061358D01*
X129099238Y-127138853D01*
X129099242Y-127138857D01*
X129200500Y-127180800D01*
X129200501Y-127180800D01*
X131253699Y-127180800D01*
X131253700Y-127180800D01*
X131354958Y-127138857D01*
X131432457Y-127061358D01*
X131432456Y-127061358D01*
X132057457Y-126436359D01*
X132064038Y-126420469D01*
X132070620Y-126404581D01*
X132070620Y-126404580D01*
X132099400Y-126335100D01*
X132099400Y-125321900D01*
X132098404Y-125319496D01*
X132064993Y-125238835D01*
X132057457Y-125220642D01*
X132057457Y-125220641D01*
X131207078Y-124370263D01*
X131179302Y-124315747D01*
X131188873Y-124255315D01*
X131222080Y-124217946D01*
X131389655Y-124105977D01*
X131535977Y-123959655D01*
X131650941Y-123787598D01*
X131730130Y-123596420D01*
X131770500Y-123393465D01*
X131770500Y-123186535D01*
X131730130Y-122983580D01*
X131650941Y-122792402D01*
X131535977Y-122620345D01*
X131389655Y-122474023D01*
X131326091Y-122431551D01*
X131217597Y-122359058D01*
X131026418Y-122279869D01*
X130823467Y-122239500D01*
X130823465Y-122239500D01*
X130616535Y-122239500D01*
X130616532Y-122239500D01*
X130413581Y-122279869D01*
X130222402Y-122359058D01*
X130050348Y-122474020D01*
X129904020Y-122620348D01*
X129789056Y-122792406D01*
X129786766Y-122796691D01*
X129785097Y-122795798D01*
X129750297Y-122836512D01*
X129690796Y-122850772D01*
X129634278Y-122827335D01*
X129628611Y-122822095D01*
X128647912Y-121841397D01*
X128620137Y-121786883D01*
X128629708Y-121726451D01*
X128672973Y-121683186D01*
X128676060Y-121681763D01*
X128677593Y-121680943D01*
X128677592Y-121680943D01*
X128677598Y-121680941D01*
X128849655Y-121565977D01*
X128995977Y-121419655D01*
X129110941Y-121247598D01*
X129190130Y-121056420D01*
X129230500Y-120853465D01*
X129230500Y-120646535D01*
X129230499Y-120646532D01*
X129669500Y-120646532D01*
X129669500Y-120853467D01*
X129709869Y-121056418D01*
X129789058Y-121247597D01*
X129904020Y-121419651D01*
X129904023Y-121419655D01*
X130050345Y-121565977D01*
X130222402Y-121680941D01*
X130413580Y-121760130D01*
X130616535Y-121800500D01*
X130616536Y-121800500D01*
X130823464Y-121800500D01*
X130823465Y-121800500D01*
X131026420Y-121760130D01*
X131217598Y-121680941D01*
X131389655Y-121565977D01*
X131535977Y-121419655D01*
X131650941Y-121247598D01*
X131730130Y-121056420D01*
X131770500Y-120853465D01*
X131770500Y-120646535D01*
X131730130Y-120443580D01*
X131650941Y-120252402D01*
X131535977Y-120080345D01*
X131389655Y-119934023D01*
X131382919Y-119929522D01*
X131217597Y-119819058D01*
X131026418Y-119739869D01*
X130823467Y-119699500D01*
X130823465Y-119699500D01*
X130616535Y-119699500D01*
X130616532Y-119699500D01*
X130413581Y-119739869D01*
X130222402Y-119819058D01*
X130050348Y-119934020D01*
X129904020Y-120080348D01*
X129789058Y-120252402D01*
X129709869Y-120443581D01*
X129669500Y-120646532D01*
X129230499Y-120646532D01*
X129190130Y-120443580D01*
X129110941Y-120252402D01*
X128995977Y-120080345D01*
X128849655Y-119934023D01*
X128842919Y-119929522D01*
X128677597Y-119819058D01*
X128486418Y-119739869D01*
X128283467Y-119699500D01*
X128283465Y-119699500D01*
X128076535Y-119699500D01*
X128076532Y-119699500D01*
X127873580Y-119739870D01*
X127873578Y-119739870D01*
X127712596Y-119806551D01*
X127651600Y-119811352D01*
X127604707Y-119785091D01*
X127474868Y-119655252D01*
X127447091Y-119600735D01*
X127456662Y-119540303D01*
X127474866Y-119515247D01*
X127523800Y-119466314D01*
X127589692Y-119352186D01*
X127620684Y-119236518D01*
X127654007Y-119185206D01*
X127711128Y-119163279D01*
X127754195Y-119170678D01*
X127873580Y-119220130D01*
X128076535Y-119260500D01*
X128076536Y-119260500D01*
X128283464Y-119260500D01*
X128283465Y-119260500D01*
X128486420Y-119220130D01*
X128677598Y-119140941D01*
X128849655Y-119025977D01*
X128995977Y-118879655D01*
X129110941Y-118707598D01*
X129190130Y-118516420D01*
X129230500Y-118313465D01*
X129230500Y-118106535D01*
X129230499Y-118106532D01*
X129669500Y-118106532D01*
X129669500Y-118313467D01*
X129709869Y-118516418D01*
X129789058Y-118707597D01*
X129896827Y-118868886D01*
X129904023Y-118879655D01*
X130050345Y-119025977D01*
X130222402Y-119140941D01*
X130413580Y-119220130D01*
X130616535Y-119260500D01*
X130616536Y-119260500D01*
X130823464Y-119260500D01*
X130823465Y-119260500D01*
X131026420Y-119220130D01*
X131217598Y-119140941D01*
X131389655Y-119025977D01*
X131535977Y-118879655D01*
X131650941Y-118707598D01*
X131730130Y-118516420D01*
X131770500Y-118313465D01*
X131770500Y-118106535D01*
X131730130Y-117903580D01*
X131650941Y-117712402D01*
X131535977Y-117540345D01*
X131389655Y-117394023D01*
X131389651Y-117394020D01*
X131217597Y-117279058D01*
X131026418Y-117199869D01*
X130823467Y-117159500D01*
X130823465Y-117159500D01*
X130616535Y-117159500D01*
X130616532Y-117159500D01*
X130413581Y-117199869D01*
X130222402Y-117279058D01*
X130050348Y-117394020D01*
X129904020Y-117540348D01*
X129789058Y-117712402D01*
X129709869Y-117903581D01*
X129669500Y-118106532D01*
X129230499Y-118106532D01*
X129190130Y-117903580D01*
X129110941Y-117712402D01*
X128995977Y-117540345D01*
X128849655Y-117394023D01*
X128849651Y-117394020D01*
X128677597Y-117279058D01*
X128486418Y-117199869D01*
X128283467Y-117159500D01*
X128283465Y-117159500D01*
X128076535Y-117159500D01*
X128076532Y-117159500D01*
X127873581Y-117199869D01*
X127682402Y-117279058D01*
X127510348Y-117394020D01*
X127364020Y-117540348D01*
X127249058Y-117712402D01*
X127169869Y-117903581D01*
X127129500Y-118106532D01*
X127129500Y-118313467D01*
X127169869Y-118516418D01*
X127169870Y-118516420D01*
X127172022Y-118521615D01*
X127176823Y-118582610D01*
X127144854Y-118634780D01*
X127088326Y-118658195D01*
X127080558Y-118658500D01*
X127054900Y-118658500D01*
X126996709Y-118639593D01*
X126960745Y-118590093D01*
X126955900Y-118559500D01*
X126955900Y-118548409D01*
X126955900Y-118548408D01*
X126921792Y-118421114D01*
X126921790Y-118421111D01*
X126921790Y-118421109D01*
X126855903Y-118306990D01*
X126855901Y-118306988D01*
X126855900Y-118306986D01*
X126762714Y-118213800D01*
X126762711Y-118213798D01*
X126762709Y-118213796D01*
X126648589Y-118147909D01*
X126648591Y-118147909D01*
X126591063Y-118132495D01*
X126521292Y-118113800D01*
X126389508Y-118113800D01*
X126319737Y-118132495D01*
X126262209Y-118147909D01*
X126148090Y-118213796D01*
X126054896Y-118306990D01*
X125989009Y-118421109D01*
X125984614Y-118437511D01*
X125954900Y-118548408D01*
X125954900Y-118680192D01*
X125976499Y-118760801D01*
X125989009Y-118807490D01*
X126054896Y-118921609D01*
X126054898Y-118921611D01*
X126054900Y-118921614D01*
X126148086Y-119014800D01*
X126148088Y-119014801D01*
X126150904Y-119017617D01*
X126178681Y-119072134D01*
X126179900Y-119087621D01*
X126179900Y-120608300D01*
X126193938Y-120642191D01*
X126207977Y-120676083D01*
X126221841Y-120709555D01*
X126221842Y-120709556D01*
X126221843Y-120709558D01*
X127711237Y-122198952D01*
X127739013Y-122253468D01*
X127729442Y-122313900D01*
X127686650Y-122356691D01*
X127686691Y-122356766D01*
X127686443Y-122356898D01*
X127686177Y-122357165D01*
X127684485Y-122357944D01*
X127682406Y-122359056D01*
X127510348Y-122474020D01*
X127364020Y-122620348D01*
X127249058Y-122792402D01*
X127169869Y-122983581D01*
X127129500Y-123186532D01*
X127129500Y-123393467D01*
X127169869Y-123596418D01*
X127249058Y-123787597D01*
X127341669Y-123926200D01*
X127364023Y-123959655D01*
X127510345Y-124105977D01*
X127510348Y-124105979D01*
X127510351Y-124105982D01*
X127533852Y-124121685D01*
X127571732Y-124169734D01*
X127574134Y-124230873D01*
X127540141Y-124281746D01*
X127482738Y-124302924D01*
X127478851Y-124303000D01*
X122325356Y-124303000D01*
X122236212Y-124326886D01*
X122236211Y-124326886D01*
X122236209Y-124326887D01*
X122156290Y-124373029D01*
X119808812Y-126720504D01*
X119754295Y-126748281D01*
X119738809Y-126749500D01*
X119585104Y-126749500D01*
X119585092Y-126749501D01*
X119535513Y-126756027D01*
X119535511Y-126756027D01*
X119426686Y-126806774D01*
X119426683Y-126806776D01*
X119382955Y-126850504D01*
X119328438Y-126878281D01*
X119312952Y-126879500D01*
X119177048Y-126879500D01*
X119118857Y-126860593D01*
X119107045Y-126850504D01*
X119063316Y-126806776D01*
X119063313Y-126806774D01*
X118954489Y-126756029D01*
X118954488Y-126756028D01*
X118937958Y-126753852D01*
X118904901Y-126749500D01*
X118904899Y-126749500D01*
X118485103Y-126749500D01*
X118485092Y-126749501D01*
X118435513Y-126756027D01*
X118435511Y-126756027D01*
X118326686Y-126806774D01*
X118326684Y-126806775D01*
X118326684Y-126806776D01*
X118262954Y-126870505D01*
X118208440Y-126898281D01*
X118192953Y-126899500D01*
X117870758Y-126899500D01*
X117830771Y-126891065D01*
X117799580Y-126877293D01*
X117799576Y-126877292D01*
X117775511Y-126874500D01*
X117244000Y-126874500D01*
X117185809Y-126855593D01*
X117149845Y-126806093D01*
X117145000Y-126775500D01*
X117145000Y-126199499D01*
X117163907Y-126141308D01*
X117213407Y-126105344D01*
X117243994Y-126100499D01*
X117475504Y-126100499D01*
X117499580Y-126097707D01*
X117598079Y-126054215D01*
X117674215Y-125978079D01*
X117717707Y-125879580D01*
X117720500Y-125855505D01*
X117720499Y-125319496D01*
X117717707Y-125295420D01*
X117715555Y-125290547D01*
X117703935Y-125264228D01*
X117695500Y-125224241D01*
X117695500Y-125190657D01*
X117686750Y-125158001D01*
X117671614Y-125101512D01*
X117669637Y-125098088D01*
X117669636Y-125098085D01*
X117632056Y-125032996D01*
X117625470Y-125021588D01*
X117193612Y-124589730D01*
X117113688Y-124543586D01*
X117113687Y-124543585D01*
X117113684Y-124543584D01*
X117024544Y-124519701D01*
X116932256Y-124519701D01*
X116932255Y-124519701D01*
X116843115Y-124543584D01*
X116843112Y-124543586D01*
X116777551Y-124581437D01*
X116728053Y-124594700D01*
X116566700Y-124594700D01*
X116542403Y-124604764D01*
X116504518Y-124612300D01*
X115559556Y-124612300D01*
X115553573Y-124613902D01*
X115531245Y-124619885D01*
X115531245Y-124619886D01*
X115500828Y-124628036D01*
X115470411Y-124636186D01*
X115390488Y-124682330D01*
X115104412Y-124968405D01*
X115049898Y-124996181D01*
X115034411Y-124997400D01*
X114684399Y-124997400D01*
X114626208Y-124978493D01*
X114590244Y-124928993D01*
X114590244Y-124867807D01*
X114626208Y-124818307D01*
X114651701Y-124804956D01*
X114653057Y-124804480D01*
X114657882Y-124802793D01*
X114767150Y-124722150D01*
X114847793Y-124612882D01*
X114892646Y-124484699D01*
X114895499Y-124454273D01*
X114895500Y-124454273D01*
X114895500Y-123645727D01*
X114895499Y-123645725D01*
X114892646Y-123615305D01*
X114892646Y-123615301D01*
X114847793Y-123487118D01*
X114829886Y-123462855D01*
X114767154Y-123377855D01*
X114767152Y-123377853D01*
X114767150Y-123377850D01*
X114767146Y-123377847D01*
X114767144Y-123377845D01*
X114657883Y-123297207D01*
X114529703Y-123252355D01*
X114529694Y-123252353D01*
X114499274Y-123249500D01*
X114499266Y-123249500D01*
X113490734Y-123249500D01*
X113490725Y-123249500D01*
X113460305Y-123252353D01*
X113460301Y-123252354D01*
X113432197Y-123262188D01*
X113371027Y-123263560D01*
X113320733Y-123228716D01*
X113300525Y-123170964D01*
X113300500Y-123168743D01*
X113300500Y-121749500D01*
X113319407Y-121691309D01*
X113368907Y-121655345D01*
X113399500Y-121650500D01*
X115250484Y-121650500D01*
X115308675Y-121669407D01*
X115344639Y-121718907D01*
X115344639Y-121780093D01*
X115343929Y-121782197D01*
X115342208Y-121787116D01*
X115342207Y-121787118D01*
X115328952Y-121825000D01*
X115297354Y-121915301D01*
X115297353Y-121915305D01*
X115294500Y-121945725D01*
X115294500Y-122754274D01*
X115297353Y-122784694D01*
X115297355Y-122784703D01*
X115342207Y-122912883D01*
X115422845Y-123022144D01*
X115422847Y-123022146D01*
X115422850Y-123022150D01*
X115422853Y-123022152D01*
X115422855Y-123022154D01*
X115532116Y-123102792D01*
X115532117Y-123102792D01*
X115532118Y-123102793D01*
X115660301Y-123147646D01*
X115690725Y-123150499D01*
X115690727Y-123150500D01*
X115690734Y-123150500D01*
X116699273Y-123150500D01*
X116699273Y-123150499D01*
X116729699Y-123147646D01*
X116757803Y-123137811D01*
X116818971Y-123136438D01*
X116869266Y-123171281D01*
X116889475Y-123229033D01*
X116889500Y-123231256D01*
X116889500Y-123719564D01*
X116909978Y-123795988D01*
X116909980Y-123795992D01*
X116942165Y-123851737D01*
X116949540Y-123864511D01*
X117005489Y-123920460D01*
X117005491Y-123920461D01*
X117074007Y-123960019D01*
X117074011Y-123960021D01*
X117150435Y-123980499D01*
X117150437Y-123980500D01*
X117150438Y-123980500D01*
X117263761Y-123980500D01*
X117321952Y-123999407D01*
X117335078Y-124012764D01*
X117335652Y-124012191D01*
X117341775Y-124018314D01*
X117341776Y-124018316D01*
X117426684Y-124103224D01*
X117426685Y-124103224D01*
X117426686Y-124103225D01*
X117437655Y-124108340D01*
X117535513Y-124153972D01*
X117585099Y-124160500D01*
X118004900Y-124160499D01*
X118054487Y-124153972D01*
X118054488Y-124153972D01*
X118128648Y-124119390D01*
X118163316Y-124103224D01*
X118248224Y-124018316D01*
X118298972Y-123909487D01*
X118305500Y-123859901D01*
X118305499Y-123521045D01*
X118324406Y-123462855D01*
X118373906Y-123426891D01*
X118435091Y-123426891D01*
X118474500Y-123451040D01*
X118526684Y-123503224D01*
X118635513Y-123553972D01*
X118685099Y-123560500D01*
X118944875Y-123560499D01*
X119003065Y-123579406D01*
X119014879Y-123589495D01*
X119085504Y-123660120D01*
X119113281Y-123714637D01*
X119114500Y-123730124D01*
X119114500Y-123851737D01*
X119095593Y-123909928D01*
X119046093Y-123945892D01*
X119041131Y-123947361D01*
X119021398Y-123952648D01*
X118992809Y-123960309D01*
X118878690Y-124026196D01*
X118785496Y-124119390D01*
X118719609Y-124233509D01*
X118703881Y-124292210D01*
X118685500Y-124360808D01*
X118685500Y-124492592D01*
X118715556Y-124604764D01*
X118719609Y-124619890D01*
X118785496Y-124734009D01*
X118785498Y-124734011D01*
X118785500Y-124734014D01*
X118878686Y-124827200D01*
X118878688Y-124827201D01*
X118878690Y-124827203D01*
X118992810Y-124893090D01*
X118992808Y-124893090D01*
X118992812Y-124893091D01*
X118992814Y-124893092D01*
X119120108Y-124927200D01*
X119120110Y-124927200D01*
X119251890Y-124927200D01*
X119251892Y-124927200D01*
X119379186Y-124893092D01*
X119379188Y-124893090D01*
X119379190Y-124893090D01*
X119493309Y-124827203D01*
X119493309Y-124827202D01*
X119493314Y-124827200D01*
X119514319Y-124806194D01*
X119568834Y-124778419D01*
X119584321Y-124777200D01*
X119857242Y-124777200D01*
X119857244Y-124777200D01*
X119946388Y-124753314D01*
X119978261Y-124734912D01*
X120026312Y-124707170D01*
X120496270Y-124237212D01*
X120542414Y-124157288D01*
X120566300Y-124068144D01*
X120566300Y-123581099D01*
X120585207Y-123522908D01*
X120634707Y-123486944D01*
X120695893Y-123486944D01*
X120722084Y-123500003D01*
X120726682Y-123503222D01*
X120726684Y-123503224D01*
X120835513Y-123553972D01*
X120885099Y-123560500D01*
X121304900Y-123560499D01*
X121354487Y-123553972D01*
X121354488Y-123553972D01*
X121425097Y-123521046D01*
X121463316Y-123503224D01*
X121548224Y-123418316D01*
X121598972Y-123309487D01*
X121605500Y-123259901D01*
X121605499Y-122900100D01*
X121598972Y-122850513D01*
X121598972Y-122850511D01*
X121548225Y-122741686D01*
X121548224Y-122741685D01*
X121548224Y-122741684D01*
X121463316Y-122656776D01*
X121463314Y-122656775D01*
X121463313Y-122656774D01*
X121354489Y-122606029D01*
X121354488Y-122606028D01*
X121337958Y-122603852D01*
X121304901Y-122599500D01*
X121304899Y-122599500D01*
X120885103Y-122599500D01*
X120885092Y-122599501D01*
X120835513Y-122606027D01*
X120835511Y-122606027D01*
X120726686Y-122656774D01*
X120726683Y-122656776D01*
X120682955Y-122700504D01*
X120628438Y-122728281D01*
X120612952Y-122729500D01*
X120477048Y-122729500D01*
X120418857Y-122710593D01*
X120407045Y-122700504D01*
X120363316Y-122656776D01*
X120363313Y-122656774D01*
X120254489Y-122606029D01*
X120254488Y-122606028D01*
X120237958Y-122603852D01*
X120204901Y-122599500D01*
X120204899Y-122599500D01*
X119785103Y-122599500D01*
X119785092Y-122599501D01*
X119735513Y-122606027D01*
X119735511Y-122606027D01*
X119626686Y-122656774D01*
X119541775Y-122741685D01*
X119534724Y-122756807D01*
X119492995Y-122801554D01*
X119432933Y-122813228D01*
X119377481Y-122787369D01*
X119355276Y-122756807D01*
X119354091Y-122754266D01*
X119348224Y-122741684D01*
X119263316Y-122656776D01*
X119263314Y-122656775D01*
X119263313Y-122656774D01*
X119154489Y-122606029D01*
X119154488Y-122606028D01*
X119137958Y-122603852D01*
X119104901Y-122599500D01*
X119104899Y-122599500D01*
X118685103Y-122599500D01*
X118685092Y-122599501D01*
X118635513Y-122606027D01*
X118635511Y-122606027D01*
X118526686Y-122656774D01*
X118441774Y-122741686D01*
X118391029Y-122850510D01*
X118391028Y-122850511D01*
X118384500Y-122900100D01*
X118384500Y-123238953D01*
X118365593Y-123297144D01*
X118316093Y-123333108D01*
X118254907Y-123333108D01*
X118215498Y-123308958D01*
X118163316Y-123256776D01*
X118163314Y-123256775D01*
X118163313Y-123256774D01*
X118054489Y-123206029D01*
X118054488Y-123206028D01*
X118029694Y-123202764D01*
X118004901Y-123199500D01*
X118004900Y-123199500D01*
X117589500Y-123199500D01*
X117531309Y-123180593D01*
X117495345Y-123131093D01*
X117490500Y-123100500D01*
X117490500Y-122310437D01*
X117490499Y-122310435D01*
X117481084Y-122275300D01*
X117470021Y-122234011D01*
X117430460Y-122165489D01*
X117374511Y-122109540D01*
X117374508Y-122109538D01*
X117305992Y-122069980D01*
X117305988Y-122069978D01*
X117229564Y-122049500D01*
X117229562Y-122049500D01*
X117194500Y-122049500D01*
X117136309Y-122030593D01*
X117100345Y-121981093D01*
X117095500Y-121950500D01*
X117095500Y-121945727D01*
X117095499Y-121945725D01*
X117093667Y-121926189D01*
X117092646Y-121915301D01*
X117047793Y-121787118D01*
X117044161Y-121782197D01*
X116967154Y-121677855D01*
X116967152Y-121677853D01*
X116967150Y-121677850D01*
X116967146Y-121677847D01*
X116967144Y-121677845D01*
X116857883Y-121597207D01*
X116729703Y-121552355D01*
X116729699Y-121552354D01*
X116729697Y-121552353D01*
X116723815Y-121551069D01*
X116724434Y-121548234D01*
X116678962Y-121528508D01*
X116647864Y-121475814D01*
X116645500Y-121454307D01*
X116645500Y-121399499D01*
X116664407Y-121341308D01*
X116713907Y-121305344D01*
X116744493Y-121300499D01*
X116947132Y-121300499D01*
X117027495Y-121284515D01*
X117118624Y-121223624D01*
X117179515Y-121132495D01*
X117195500Y-121052133D01*
X117195499Y-119672868D01*
X117185191Y-119621043D01*
X117192383Y-119560283D01*
X117212285Y-119531727D01*
X117245600Y-119498414D01*
X117259977Y-119473512D01*
X117305444Y-119432572D01*
X117366294Y-119426175D01*
X117419283Y-119456766D01*
X117431448Y-119473510D01*
X117444496Y-119496109D01*
X117444498Y-119496111D01*
X117444500Y-119496114D01*
X117465505Y-119517119D01*
X117493281Y-119571634D01*
X117494500Y-119587121D01*
X117494500Y-121052129D01*
X117494501Y-121052136D01*
X117510484Y-121132494D01*
X117510485Y-121132496D01*
X117521513Y-121149000D01*
X117571376Y-121223624D01*
X117662505Y-121284515D01*
X117742867Y-121300500D01*
X117947132Y-121300499D01*
X118027495Y-121284515D01*
X118039996Y-121276161D01*
X118098883Y-121259551D01*
X118150000Y-121276159D01*
X118162505Y-121284515D01*
X118242867Y-121300500D01*
X118447132Y-121300499D01*
X118527495Y-121284515D01*
X118539996Y-121276161D01*
X118598883Y-121259551D01*
X118650000Y-121276159D01*
X118662505Y-121284515D01*
X118696833Y-121291343D01*
X118747521Y-121318436D01*
X119009643Y-121580558D01*
X119009642Y-121580558D01*
X119071795Y-121642710D01*
X119087142Y-121658057D01*
X119188400Y-121700000D01*
X121065779Y-121700000D01*
X121123970Y-121718907D01*
X121135783Y-121728996D01*
X121138598Y-121731811D01*
X121138600Y-121731814D01*
X121231786Y-121825000D01*
X121231788Y-121825001D01*
X121231790Y-121825003D01*
X121345910Y-121890890D01*
X121345908Y-121890890D01*
X121345912Y-121890891D01*
X121345914Y-121890892D01*
X121473208Y-121925000D01*
X121473210Y-121925000D01*
X121604990Y-121925000D01*
X121604992Y-121925000D01*
X121732286Y-121890892D01*
X121732288Y-121890890D01*
X121732290Y-121890890D01*
X121846409Y-121825003D01*
X121846409Y-121825002D01*
X121846414Y-121825000D01*
X121939600Y-121731814D01*
X121962986Y-121691309D01*
X122005490Y-121617690D01*
X122005490Y-121617688D01*
X122005492Y-121617686D01*
X122039600Y-121490392D01*
X122039600Y-121358608D01*
X122005492Y-121231314D01*
X122005490Y-121231311D01*
X122005490Y-121231309D01*
X121939603Y-121117190D01*
X121939601Y-121117188D01*
X121939600Y-121117186D01*
X121846414Y-121024000D01*
X121846407Y-121023996D01*
X121845744Y-121023613D01*
X121845374Y-121023202D01*
X121841265Y-121020049D01*
X121841849Y-121019287D01*
X121804803Y-120978144D01*
X121798406Y-120917294D01*
X121828998Y-120864306D01*
X121884893Y-120839418D01*
X121920862Y-120842248D01*
X121998308Y-120863000D01*
X121998310Y-120863000D01*
X122130090Y-120863000D01*
X122130092Y-120863000D01*
X122257386Y-120828892D01*
X122257388Y-120828890D01*
X122257390Y-120828890D01*
X122371509Y-120763003D01*
X122371509Y-120763002D01*
X122371514Y-120763000D01*
X122464700Y-120669814D01*
X122483068Y-120638000D01*
X122530590Y-120555690D01*
X122530590Y-120555688D01*
X122530592Y-120555686D01*
X122564700Y-120428392D01*
X122564700Y-120296608D01*
X122535337Y-120187022D01*
X122538540Y-120125921D01*
X122577045Y-120078371D01*
X122630964Y-120062400D01*
X123005342Y-120062400D01*
X123005344Y-120062400D01*
X123094488Y-120038514D01*
X123112106Y-120028342D01*
X123174412Y-119992370D01*
X123614563Y-119552217D01*
X123669080Y-119524440D01*
X123729512Y-119534011D01*
X123772776Y-119577276D01*
X123811470Y-119653217D01*
X123811472Y-119653220D01*
X123906780Y-119748528D01*
X123906782Y-119748529D01*
X124026867Y-119809716D01*
X124026869Y-119809716D01*
X124026874Y-119809719D01*
X124102541Y-119821703D01*
X124126510Y-119825500D01*
X124126512Y-119825500D01*
X124693490Y-119825500D01*
X124714885Y-119822111D01*
X124793126Y-119809719D01*
X124863444Y-119773889D01*
X124908389Y-119763100D01*
X124940179Y-119763100D01*
X124998370Y-119782007D01*
X125010176Y-119792090D01*
X125031186Y-119813100D01*
X125031188Y-119813101D01*
X125031190Y-119813103D01*
X125145310Y-119878990D01*
X125145308Y-119878990D01*
X125145312Y-119878991D01*
X125145314Y-119878992D01*
X125272608Y-119913100D01*
X125272610Y-119913100D01*
X125404390Y-119913100D01*
X125404392Y-119913100D01*
X125531686Y-119878992D01*
X125531688Y-119878990D01*
X125531690Y-119878990D01*
X125645809Y-119813103D01*
X125645809Y-119813102D01*
X125645814Y-119813100D01*
X125739000Y-119719914D01*
X125750786Y-119699500D01*
X125804890Y-119605790D01*
X125804890Y-119605788D01*
X125804892Y-119605786D01*
X125839000Y-119478492D01*
X125839000Y-119346708D01*
X125804892Y-119219414D01*
X125804890Y-119219411D01*
X125804890Y-119219409D01*
X125739003Y-119105290D01*
X125739001Y-119105288D01*
X125739000Y-119105286D01*
X125645814Y-119012100D01*
X125645811Y-119012098D01*
X125645809Y-119012096D01*
X125531689Y-118946209D01*
X125531691Y-118946209D01*
X125473409Y-118930593D01*
X125404392Y-118912100D01*
X125272608Y-118912100D01*
X125198649Y-118931916D01*
X125137549Y-118928714D01*
X125089999Y-118890209D01*
X125075247Y-118851777D01*
X125073271Y-118839300D01*
X125069719Y-118816874D01*
X125069716Y-118816869D01*
X125069716Y-118816867D01*
X125008529Y-118696782D01*
X125008528Y-118696780D01*
X124913220Y-118601472D01*
X124913217Y-118601470D01*
X124793132Y-118540283D01*
X124793127Y-118540281D01*
X124793126Y-118540281D01*
X124759913Y-118535020D01*
X124693490Y-118524500D01*
X124693488Y-118524500D01*
X124545590Y-118524500D01*
X124487399Y-118505593D01*
X124475586Y-118495504D01*
X123995896Y-118015814D01*
X123968119Y-117961297D01*
X123966900Y-117945810D01*
X123966900Y-117917694D01*
X123963358Y-117904475D01*
X123945570Y-117838086D01*
X123944841Y-117836823D01*
X123904363Y-117766714D01*
X123904361Y-117766712D01*
X123846087Y-117708437D01*
X123846087Y-117708438D01*
X123556617Y-117418968D01*
X123533921Y-117379651D01*
X123533298Y-117379910D01*
X123531336Y-117375174D01*
X123530992Y-117374578D01*
X123530814Y-117373912D01*
X123484670Y-117293988D01*
X123431192Y-117240510D01*
X123359496Y-117168813D01*
X123331719Y-117114297D01*
X123330500Y-117098810D01*
X123330500Y-116934475D01*
X123328912Y-116923575D01*
X123320645Y-116866830D01*
X123317208Y-116859800D01*
X123281805Y-116787381D01*
X123273233Y-116726799D01*
X123301908Y-116672749D01*
X123356876Y-116645876D01*
X123370745Y-116644900D01*
X124381879Y-116644900D01*
X124440070Y-116663807D01*
X124451883Y-116673896D01*
X124454698Y-116676711D01*
X124454700Y-116676714D01*
X124547886Y-116769900D01*
X124547888Y-116769901D01*
X124547890Y-116769903D01*
X124662010Y-116835790D01*
X124662008Y-116835790D01*
X124662012Y-116835791D01*
X124662014Y-116835792D01*
X124789308Y-116869900D01*
X124789310Y-116869900D01*
X124921090Y-116869900D01*
X124921092Y-116869900D01*
X125048386Y-116835792D01*
X125048388Y-116835790D01*
X125048390Y-116835790D01*
X125162509Y-116769903D01*
X125162509Y-116769902D01*
X125162514Y-116769900D01*
X125255700Y-116676714D01*
X125265125Y-116660390D01*
X125321590Y-116562590D01*
X125321590Y-116562588D01*
X125321592Y-116562586D01*
X125355700Y-116435292D01*
X125355700Y-116303508D01*
X125321592Y-116176214D01*
X125321590Y-116176211D01*
X125321590Y-116176209D01*
X125255703Y-116062090D01*
X125255701Y-116062088D01*
X125255700Y-116062086D01*
X125162514Y-115968900D01*
X125162511Y-115968898D01*
X125049999Y-115903938D01*
X125009059Y-115858468D01*
X125000500Y-115818202D01*
X125000500Y-115566532D01*
X127129500Y-115566532D01*
X127129500Y-115773467D01*
X127169869Y-115976418D01*
X127249058Y-116167597D01*
X127355839Y-116327407D01*
X127364023Y-116339655D01*
X127510345Y-116485977D01*
X127682402Y-116600941D01*
X127873580Y-116680130D01*
X128076535Y-116720500D01*
X128076536Y-116720500D01*
X128283464Y-116720500D01*
X128283465Y-116720500D01*
X128486420Y-116680130D01*
X128677598Y-116600941D01*
X128849655Y-116485977D01*
X128995977Y-116339655D01*
X129110941Y-116167598D01*
X129190130Y-115976420D01*
X129230500Y-115773465D01*
X129230500Y-115566535D01*
X129230499Y-115566532D01*
X129669500Y-115566532D01*
X129669500Y-115773467D01*
X129709869Y-115976418D01*
X129789058Y-116167597D01*
X129895839Y-116327407D01*
X129904023Y-116339655D01*
X130050345Y-116485977D01*
X130222402Y-116600941D01*
X130413580Y-116680130D01*
X130616535Y-116720500D01*
X130616536Y-116720500D01*
X130823464Y-116720500D01*
X130823465Y-116720500D01*
X131026420Y-116680130D01*
X131217598Y-116600941D01*
X131389655Y-116485977D01*
X131535977Y-116339655D01*
X131650941Y-116167598D01*
X131730130Y-115976420D01*
X131770500Y-115773465D01*
X131770500Y-115566535D01*
X131730130Y-115363580D01*
X131650941Y-115172402D01*
X131535977Y-115000345D01*
X131389655Y-114854023D01*
X131389651Y-114854020D01*
X131217597Y-114739058D01*
X131026418Y-114659869D01*
X130823467Y-114619500D01*
X130823465Y-114619500D01*
X130616535Y-114619500D01*
X130616532Y-114619500D01*
X130413581Y-114659869D01*
X130222402Y-114739058D01*
X130050348Y-114854020D01*
X129904020Y-115000348D01*
X129789058Y-115172402D01*
X129709869Y-115363581D01*
X129669500Y-115566532D01*
X129230499Y-115566532D01*
X129190130Y-115363580D01*
X129110941Y-115172402D01*
X128995977Y-115000345D01*
X128849655Y-114854023D01*
X128849651Y-114854020D01*
X128677597Y-114739058D01*
X128486418Y-114659869D01*
X128283467Y-114619500D01*
X128283465Y-114619500D01*
X128076535Y-114619500D01*
X128076532Y-114619500D01*
X127873581Y-114659869D01*
X127682402Y-114739058D01*
X127510348Y-114854020D01*
X127364020Y-115000348D01*
X127249058Y-115172402D01*
X127169869Y-115363581D01*
X127129500Y-115566532D01*
X125000500Y-115566532D01*
X125000500Y-114930251D01*
X125000498Y-114930241D01*
X124992746Y-114891270D01*
X124988867Y-114871769D01*
X124986453Y-114868157D01*
X124944554Y-114805451D01*
X124944552Y-114805448D01*
X124939636Y-114802163D01*
X124878233Y-114761134D01*
X124878231Y-114761133D01*
X124878228Y-114761132D01*
X124878227Y-114761132D01*
X124819758Y-114749501D01*
X124819748Y-114749500D01*
X124819747Y-114749500D01*
X124316916Y-114749500D01*
X124258725Y-114730593D01*
X124225453Y-114688388D01*
X124183557Y-114587242D01*
X124125494Y-114529179D01*
X124097719Y-114474665D01*
X124096500Y-114459178D01*
X124096500Y-114421909D01*
X124094860Y-114415789D01*
X124062392Y-114294614D01*
X124062390Y-114294611D01*
X124062390Y-114294609D01*
X123996503Y-114180490D01*
X123996501Y-114180488D01*
X123996500Y-114180486D01*
X123903314Y-114087300D01*
X123903311Y-114087298D01*
X123903309Y-114087296D01*
X123789189Y-114021409D01*
X123789191Y-114021409D01*
X123739799Y-114008175D01*
X123661892Y-113987300D01*
X123530108Y-113987300D01*
X123452200Y-114008175D01*
X123402809Y-114021409D01*
X123288690Y-114087296D01*
X123195496Y-114180490D01*
X123129609Y-114294609D01*
X123120673Y-114327960D01*
X123095500Y-114421908D01*
X123095500Y-114553692D01*
X123117182Y-114634614D01*
X123113980Y-114695713D01*
X123075475Y-114743263D01*
X123040874Y-114757332D01*
X123021771Y-114761132D01*
X123021766Y-114761134D01*
X122955451Y-114805445D01*
X122955445Y-114805451D01*
X122911134Y-114871766D01*
X122911132Y-114871772D01*
X122899501Y-114930241D01*
X122899500Y-114930251D01*
X122899500Y-115869746D01*
X122899501Y-115869758D01*
X122911132Y-115928227D01*
X122911133Y-115928231D01*
X122918929Y-115939899D01*
X122935538Y-115998785D01*
X122914361Y-116056189D01*
X122863488Y-116090183D01*
X122836614Y-116093900D01*
X121995999Y-116093900D01*
X121924572Y-116123485D01*
X121924573Y-116123486D01*
X121894743Y-116135842D01*
X121894738Y-116135845D01*
X121856011Y-116174571D01*
X121801494Y-116202347D01*
X121741062Y-116192775D01*
X121697798Y-116149509D01*
X121688228Y-116089077D01*
X121688904Y-116085289D01*
X121695500Y-116052133D01*
X121695499Y-115887429D01*
X121714406Y-115829239D01*
X121763906Y-115793275D01*
X121820120Y-115791802D01*
X121873108Y-115806000D01*
X121873110Y-115806000D01*
X122004890Y-115806000D01*
X122004892Y-115806000D01*
X122132186Y-115771892D01*
X122132188Y-115771890D01*
X122132190Y-115771890D01*
X122246309Y-115706003D01*
X122246309Y-115706002D01*
X122246314Y-115706000D01*
X122339500Y-115612814D01*
X122353656Y-115588296D01*
X122405390Y-115498690D01*
X122405390Y-115498688D01*
X122405392Y-115498686D01*
X122439500Y-115371392D01*
X122439500Y-115239608D01*
X122405392Y-115112314D01*
X122405390Y-115112311D01*
X122405390Y-115112309D01*
X122339503Y-114998190D01*
X122339501Y-114998188D01*
X122339500Y-114998186D01*
X122246314Y-114905000D01*
X122246311Y-114904998D01*
X122246309Y-114904996D01*
X122132189Y-114839109D01*
X122132191Y-114839109D01*
X122069349Y-114822271D01*
X122004892Y-114805000D01*
X121873108Y-114805000D01*
X121849703Y-114811271D01*
X121796695Y-114825474D01*
X121735593Y-114822271D01*
X121688044Y-114783765D01*
X121679607Y-114767727D01*
X121679515Y-114767507D01*
X121679515Y-114767505D01*
X121671159Y-114755000D01*
X121654551Y-114696114D01*
X121671159Y-114644999D01*
X121679515Y-114632495D01*
X121695500Y-114552133D01*
X121695499Y-114347868D01*
X121695160Y-114346166D01*
X121679515Y-114267505D01*
X121679514Y-114267503D01*
X121618626Y-114176379D01*
X121618624Y-114176376D01*
X121618620Y-114176373D01*
X121527497Y-114115486D01*
X121527496Y-114115485D01*
X121527495Y-114115485D01*
X121447133Y-114099500D01*
X121447132Y-114099500D01*
X120067870Y-114099500D01*
X120067863Y-114099501D01*
X119987505Y-114115484D01*
X119987503Y-114115485D01*
X119896018Y-114176615D01*
X119893123Y-114177431D01*
X119891127Y-114179681D01*
X119841016Y-114193300D01*
X119830370Y-114193300D01*
X119772179Y-114174393D01*
X119736215Y-114124893D01*
X119734749Y-114119943D01*
X119710492Y-114029414D01*
X119710490Y-114029410D01*
X119689326Y-113992752D01*
X119676605Y-113932904D01*
X119701492Y-113877009D01*
X119749445Y-113847625D01*
X119755088Y-113846114D01*
X119755691Y-113845766D01*
X119756364Y-113845585D01*
X119761086Y-113843630D01*
X119761343Y-113844251D01*
X119805195Y-113832500D01*
X120137930Y-113832500D01*
X120144033Y-113832100D01*
X120772042Y-113832100D01*
X120772044Y-113832100D01*
X120861188Y-113808214D01*
X120861196Y-113808209D01*
X120861617Y-113808036D01*
X120862526Y-113807855D01*
X120867457Y-113806534D01*
X120867543Y-113806857D01*
X120899506Y-113800499D01*
X121447130Y-113800499D01*
X121447132Y-113800499D01*
X121527495Y-113784515D01*
X121618624Y-113723624D01*
X121679515Y-113632495D01*
X121695500Y-113552133D01*
X121695499Y-113347868D01*
X121693975Y-113340208D01*
X121679515Y-113267505D01*
X121679514Y-113267503D01*
X121618626Y-113176379D01*
X121618624Y-113176376D01*
X121618620Y-113176373D01*
X121527497Y-113115486D01*
X121527496Y-113115485D01*
X121527495Y-113115485D01*
X121447133Y-113099500D01*
X121399500Y-113099500D01*
X121341309Y-113080593D01*
X121305345Y-113031093D01*
X121300500Y-113000500D01*
X121300500Y-112962047D01*
X121319407Y-112903856D01*
X121329490Y-112892049D01*
X121403224Y-112818316D01*
X121453972Y-112709487D01*
X121460500Y-112659901D01*
X121460499Y-112300100D01*
X121453972Y-112250513D01*
X121453972Y-112250511D01*
X121403225Y-112141686D01*
X121403224Y-112141685D01*
X121403224Y-112141684D01*
X121318316Y-112056776D01*
X121318314Y-112056775D01*
X121318313Y-112056774D01*
X121209489Y-112006029D01*
X121209488Y-112006028D01*
X121192958Y-112003852D01*
X121159901Y-111999500D01*
X121159899Y-111999500D01*
X120740103Y-111999500D01*
X120740092Y-111999501D01*
X120690513Y-112006027D01*
X120690511Y-112006027D01*
X120581686Y-112056774D01*
X120581681Y-112056777D01*
X120572835Y-112065623D01*
X120518316Y-112093397D01*
X120457885Y-112083822D01*
X120432835Y-112065621D01*
X120430514Y-112063300D01*
X120430511Y-112063298D01*
X120430509Y-112063296D01*
X120316389Y-111997409D01*
X120316391Y-111997409D01*
X120266999Y-111984175D01*
X120189092Y-111963300D01*
X120057308Y-111963300D01*
X119979400Y-111984175D01*
X119930009Y-111997409D01*
X119846507Y-112045620D01*
X119786659Y-112058342D01*
X119730763Y-112033455D01*
X119727003Y-112029888D01*
X119724495Y-112027380D01*
X119696718Y-111972863D01*
X119695499Y-111957376D01*
X119695499Y-111343620D01*
X119714406Y-111285429D01*
X119763906Y-111249465D01*
X119825092Y-111249465D01*
X119864500Y-111273614D01*
X119880486Y-111289600D01*
X119880488Y-111289601D01*
X119880490Y-111289603D01*
X119994610Y-111355490D01*
X119994608Y-111355490D01*
X119994612Y-111355491D01*
X119994614Y-111355492D01*
X120121908Y-111389600D01*
X120121910Y-111389600D01*
X120253690Y-111389600D01*
X120253692Y-111389600D01*
X120380986Y-111355492D01*
X120380988Y-111355490D01*
X120380990Y-111355490D01*
X120495109Y-111289603D01*
X120495109Y-111289602D01*
X120495114Y-111289600D01*
X120588300Y-111196414D01*
X120605767Y-111166161D01*
X120654190Y-111082290D01*
X120654190Y-111082288D01*
X120654192Y-111082286D01*
X120688300Y-110954992D01*
X120688300Y-110823208D01*
X120654192Y-110695914D01*
X120654190Y-110695911D01*
X120654190Y-110695909D01*
X120588303Y-110581790D01*
X120588301Y-110581788D01*
X120588300Y-110581786D01*
X120495114Y-110488600D01*
X120495111Y-110488598D01*
X120495109Y-110488596D01*
X120380989Y-110422709D01*
X120380991Y-110422709D01*
X120331599Y-110409475D01*
X120253692Y-110388600D01*
X120121908Y-110388600D01*
X120044000Y-110409475D01*
X119994609Y-110422709D01*
X119880490Y-110488596D01*
X119880489Y-110488597D01*
X119880486Y-110488599D01*
X119880486Y-110488600D01*
X119787300Y-110581786D01*
X119787298Y-110581788D01*
X119784483Y-110584604D01*
X119729966Y-110612381D01*
X119714479Y-110613600D01*
X119279199Y-110613600D01*
X119207772Y-110643185D01*
X119207773Y-110643186D01*
X119177940Y-110655543D01*
X118964804Y-110868680D01*
X118910287Y-110896457D01*
X118849855Y-110886886D01*
X118806590Y-110843621D01*
X118797912Y-110807475D01*
X118796647Y-110807642D01*
X118795800Y-110801210D01*
X118795800Y-110801208D01*
X118761692Y-110673914D01*
X118761690Y-110673911D01*
X118761690Y-110673909D01*
X118695803Y-110559790D01*
X118695801Y-110559788D01*
X118695800Y-110559786D01*
X118602614Y-110466600D01*
X118602611Y-110466598D01*
X118602609Y-110466596D01*
X118488489Y-110400709D01*
X118488491Y-110400709D01*
X118439099Y-110387475D01*
X118361192Y-110366600D01*
X118247499Y-110366600D01*
X118189308Y-110347693D01*
X118153344Y-110298193D01*
X118148499Y-110267600D01*
X118148499Y-110185103D01*
X118148498Y-110185092D01*
X118141972Y-110135513D01*
X118141972Y-110135511D01*
X118091225Y-110026686D01*
X118091224Y-110026685D01*
X118091224Y-110026684D01*
X118006316Y-109941776D01*
X118006314Y-109941775D01*
X118006313Y-109941774D01*
X117897489Y-109891029D01*
X117897488Y-109891028D01*
X117872694Y-109887764D01*
X117847901Y-109884500D01*
X117847900Y-109884500D01*
X117694190Y-109884500D01*
X117635999Y-109865593D01*
X117624186Y-109855504D01*
X117344103Y-109575421D01*
X117049112Y-109280430D01*
X116976314Y-109238400D01*
X116971650Y-109235707D01*
X116930709Y-109190238D01*
X116924313Y-109129388D01*
X116951145Y-109079969D01*
X116995157Y-109035958D01*
X116995156Y-109035958D01*
X117253558Y-108777558D01*
X117262772Y-108755314D01*
X117295500Y-108676301D01*
X117295500Y-107158759D01*
X117314407Y-107100568D01*
X117344999Y-107073023D01*
X117358015Y-107065509D01*
X117374998Y-107048525D01*
X117429513Y-107020750D01*
X117489945Y-107030321D01*
X117515000Y-107048524D01*
X117531985Y-107065509D01*
X117531987Y-107065510D01*
X117531989Y-107065512D01*
X117657511Y-107137982D01*
X117657512Y-107137982D01*
X117657515Y-107137984D01*
X117797525Y-107175500D01*
X117797526Y-107175500D01*
X117942474Y-107175500D01*
X117942475Y-107175500D01*
X117956987Y-107171611D01*
X118018085Y-107174809D01*
X118052617Y-107197232D01*
X118556504Y-107701119D01*
X118584281Y-107755636D01*
X118585500Y-107771123D01*
X118585500Y-108224947D01*
X118566593Y-108283138D01*
X118528340Y-108314671D01*
X118480598Y-108336933D01*
X118396933Y-108420598D01*
X118346932Y-108527824D01*
X118346932Y-108527825D01*
X118346932Y-108527827D01*
X118341265Y-108570877D01*
X118340500Y-108576685D01*
X118340500Y-108925314D01*
X118346932Y-108974174D01*
X118346932Y-108974175D01*
X118396933Y-109081401D01*
X118396934Y-109081402D01*
X118396935Y-109081404D01*
X118480596Y-109165065D01*
X118480597Y-109165065D01*
X118480598Y-109165066D01*
X118587824Y-109215067D01*
X118587825Y-109215067D01*
X118587827Y-109215068D01*
X118636684Y-109221500D01*
X118636685Y-109221500D01*
X119085314Y-109221500D01*
X119085316Y-109221500D01*
X119134173Y-109215068D01*
X119241404Y-109165065D01*
X119250496Y-109155972D01*
X119305010Y-109128194D01*
X119365442Y-109137764D01*
X119408708Y-109181027D01*
X119419500Y-109225975D01*
X119419500Y-109450180D01*
X119419500Y-109450182D01*
X119419501Y-109450184D01*
X119422354Y-109474786D01*
X119466789Y-109575422D01*
X119544578Y-109653211D01*
X119645214Y-109697646D01*
X119669815Y-109700500D01*
X119945184Y-109700499D01*
X119969786Y-109697646D01*
X120070422Y-109653211D01*
X120148211Y-109575422D01*
X120192646Y-109474786D01*
X120195500Y-109450185D01*
X120195499Y-109149816D01*
X120192646Y-109125214D01*
X120148211Y-109024578D01*
X120148209Y-109024576D01*
X120144505Y-109016186D01*
X120147799Y-109014731D01*
X120135286Y-108972276D01*
X120147371Y-108935079D01*
X120144505Y-108933814D01*
X120148209Y-108925423D01*
X120148211Y-108925422D01*
X120192646Y-108824786D01*
X120195500Y-108800185D01*
X120195499Y-108631888D01*
X120214406Y-108573698D01*
X120224489Y-108561892D01*
X120338586Y-108447796D01*
X120393103Y-108420019D01*
X120408589Y-108418800D01*
X120764879Y-108418800D01*
X120823070Y-108437707D01*
X120834876Y-108447790D01*
X120855886Y-108468800D01*
X120855888Y-108468801D01*
X120855890Y-108468803D01*
X120970010Y-108534690D01*
X120970008Y-108534690D01*
X120970012Y-108534691D01*
X120970014Y-108534692D01*
X121097308Y-108568800D01*
X121097310Y-108568800D01*
X121103742Y-108569647D01*
X121103510Y-108571402D01*
X121153691Y-108587707D01*
X121189655Y-108637207D01*
X121194500Y-108667799D01*
X121194500Y-108800179D01*
X121194501Y-108800184D01*
X121197354Y-108824786D01*
X121241789Y-108925422D01*
X121241790Y-108925423D01*
X121245495Y-108933814D01*
X121242205Y-108935266D01*
X121254711Y-108977780D01*
X121242641Y-109014925D01*
X121245495Y-109016186D01*
X121241789Y-109024577D01*
X121241789Y-109024578D01*
X121216699Y-109081401D01*
X121197353Y-109125216D01*
X121194500Y-109149808D01*
X121194500Y-109450180D01*
X121194500Y-109450182D01*
X121194501Y-109450184D01*
X121197354Y-109474786D01*
X121241789Y-109575422D01*
X121241790Y-109575423D01*
X121245495Y-109583814D01*
X121242205Y-109585266D01*
X121254711Y-109627780D01*
X121242641Y-109664925D01*
X121245495Y-109666186D01*
X121241789Y-109674577D01*
X121241789Y-109674578D01*
X121219257Y-109725609D01*
X121197353Y-109775216D01*
X121194500Y-109799808D01*
X121194500Y-110100180D01*
X121194500Y-110100182D01*
X121194501Y-110100184D01*
X121197354Y-110124786D01*
X121241789Y-110225422D01*
X121319578Y-110303211D01*
X121420214Y-110347646D01*
X121444815Y-110350500D01*
X121720184Y-110350499D01*
X121744786Y-110347646D01*
X121845422Y-110303211D01*
X121923211Y-110225422D01*
X121938802Y-110190110D01*
X121979602Y-110144517D01*
X122029366Y-110131100D01*
X122118842Y-110131100D01*
X122118844Y-110131100D01*
X122207988Y-110107214D01*
X122287912Y-110061069D01*
X122331856Y-110017124D01*
X122386370Y-109989348D01*
X122446802Y-109998919D01*
X122490067Y-110042183D01*
X122491582Y-110045290D01*
X122535933Y-110140401D01*
X122535934Y-110140402D01*
X122535935Y-110140404D01*
X122619596Y-110224065D01*
X122619597Y-110224065D01*
X122619598Y-110224066D01*
X122726824Y-110274067D01*
X122726825Y-110274067D01*
X122726827Y-110274068D01*
X122775684Y-110280500D01*
X122775685Y-110280500D01*
X123224314Y-110280500D01*
X123224316Y-110280500D01*
X123273173Y-110274068D01*
X123380404Y-110224065D01*
X123464065Y-110140404D01*
X123464067Y-110140400D01*
X123469033Y-110133309D01*
X123470666Y-110134453D01*
X123504740Y-110097913D01*
X123552737Y-110085500D01*
X124115708Y-110085500D01*
X124130940Y-110087000D01*
X124133000Y-110087000D01*
X124706377Y-110087000D01*
X124764568Y-110105907D01*
X124776381Y-110115996D01*
X127215091Y-112554707D01*
X127242868Y-112609224D01*
X127236551Y-112662596D01*
X127169870Y-112823578D01*
X127169870Y-112823580D01*
X127129500Y-113026532D01*
X127129500Y-113233467D01*
X127169869Y-113436418D01*
X127249058Y-113627597D01*
X127348489Y-113776407D01*
X127364023Y-113799655D01*
X127510345Y-113945977D01*
X127682402Y-114060941D01*
X127873580Y-114140130D01*
X128076535Y-114180500D01*
X128076536Y-114180500D01*
X128283464Y-114180500D01*
X128283465Y-114180500D01*
X128486420Y-114140130D01*
X128677598Y-114060941D01*
X128849655Y-113945977D01*
X128995977Y-113799655D01*
X129110941Y-113627598D01*
X129190130Y-113436420D01*
X129230500Y-113233465D01*
X129230500Y-113026535D01*
X129230499Y-113026532D01*
X129669500Y-113026532D01*
X129669500Y-113233467D01*
X129709869Y-113436418D01*
X129789058Y-113627597D01*
X129888489Y-113776407D01*
X129904023Y-113799655D01*
X130050345Y-113945977D01*
X130222402Y-114060941D01*
X130413580Y-114140130D01*
X130616535Y-114180500D01*
X130616536Y-114180500D01*
X130823464Y-114180500D01*
X130823465Y-114180500D01*
X131026420Y-114140130D01*
X131217598Y-114060941D01*
X131389655Y-113945977D01*
X131535977Y-113799655D01*
X131650941Y-113627598D01*
X131730130Y-113436420D01*
X131770500Y-113233465D01*
X131770500Y-113026535D01*
X131730130Y-112823580D01*
X131650941Y-112632402D01*
X131535977Y-112460345D01*
X131389655Y-112314023D01*
X131385698Y-112311379D01*
X131217597Y-112199058D01*
X131026418Y-112119869D01*
X130823467Y-112079500D01*
X130823465Y-112079500D01*
X130616535Y-112079500D01*
X130616532Y-112079500D01*
X130413581Y-112119869D01*
X130222402Y-112199058D01*
X130050348Y-112314020D01*
X129904020Y-112460348D01*
X129789058Y-112632402D01*
X129709869Y-112823581D01*
X129669500Y-113026532D01*
X129230499Y-113026532D01*
X129190130Y-112823580D01*
X129110941Y-112632402D01*
X128995977Y-112460345D01*
X128849655Y-112314023D01*
X128845698Y-112311379D01*
X128677597Y-112199058D01*
X128486418Y-112119869D01*
X128283467Y-112079500D01*
X128283465Y-112079500D01*
X128076535Y-112079500D01*
X128076532Y-112079500D01*
X127873580Y-112119870D01*
X127873578Y-112119870D01*
X127712596Y-112186551D01*
X127651600Y-112191352D01*
X127604707Y-112165091D01*
X126804252Y-111364636D01*
X125926148Y-110486532D01*
X127129500Y-110486532D01*
X127129500Y-110693467D01*
X127169869Y-110896418D01*
X127249058Y-111087597D01*
X127357214Y-111249465D01*
X127364023Y-111259655D01*
X127510345Y-111405977D01*
X127682402Y-111520941D01*
X127873580Y-111600130D01*
X128076535Y-111640500D01*
X128076536Y-111640500D01*
X128283464Y-111640500D01*
X128283465Y-111640500D01*
X128486420Y-111600130D01*
X128677598Y-111520941D01*
X128849655Y-111405977D01*
X128995977Y-111259655D01*
X129110941Y-111087598D01*
X129190130Y-110896420D01*
X129230500Y-110693465D01*
X129230500Y-110486535D01*
X129230499Y-110486532D01*
X129669500Y-110486532D01*
X129669500Y-110693467D01*
X129709869Y-110896418D01*
X129789058Y-111087597D01*
X129897214Y-111249465D01*
X129904023Y-111259655D01*
X130050345Y-111405977D01*
X130222402Y-111520941D01*
X130413580Y-111600130D01*
X130616535Y-111640500D01*
X130616536Y-111640500D01*
X130823464Y-111640500D01*
X130823465Y-111640500D01*
X131026420Y-111600130D01*
X131217598Y-111520941D01*
X131389655Y-111405977D01*
X131535977Y-111259655D01*
X131650941Y-111087598D01*
X131730130Y-110896420D01*
X131770500Y-110693465D01*
X131770500Y-110486535D01*
X131730130Y-110283580D01*
X131650941Y-110092402D01*
X131535977Y-109920345D01*
X131389655Y-109774023D01*
X131362698Y-109756011D01*
X131217597Y-109659058D01*
X131026418Y-109579869D01*
X130823467Y-109539500D01*
X130823465Y-109539500D01*
X130616535Y-109539500D01*
X130616532Y-109539500D01*
X130413581Y-109579869D01*
X130222402Y-109659058D01*
X130050348Y-109774020D01*
X129904020Y-109920348D01*
X129789058Y-110092402D01*
X129709869Y-110283581D01*
X129669500Y-110486532D01*
X129230499Y-110486532D01*
X129190130Y-110283580D01*
X129110941Y-110092402D01*
X128995977Y-109920345D01*
X128849655Y-109774023D01*
X128822698Y-109756011D01*
X128677597Y-109659058D01*
X128486418Y-109579869D01*
X128283467Y-109539500D01*
X128283465Y-109539500D01*
X128076535Y-109539500D01*
X128076532Y-109539500D01*
X127873581Y-109579869D01*
X127682402Y-109659058D01*
X127510348Y-109774020D01*
X127364020Y-109920348D01*
X127249058Y-110092402D01*
X127169869Y-110283581D01*
X127129500Y-110486532D01*
X125926148Y-110486532D01*
X125017558Y-109577943D01*
X125017556Y-109577942D01*
X125017555Y-109577941D01*
X124989209Y-109566200D01*
X124989208Y-109566200D01*
X124916300Y-109536000D01*
X124916299Y-109536000D01*
X124258392Y-109536000D01*
X124243160Y-109534500D01*
X124241100Y-109534500D01*
X123552737Y-109534500D01*
X123494546Y-109515593D01*
X123470103Y-109485941D01*
X123469033Y-109486691D01*
X123464067Y-109479599D01*
X123464065Y-109479597D01*
X123464065Y-109479596D01*
X123380404Y-109395935D01*
X123380402Y-109395934D01*
X123380401Y-109395933D01*
X123273175Y-109345932D01*
X123240601Y-109341644D01*
X123224316Y-109339500D01*
X122775684Y-109339500D01*
X122759398Y-109341644D01*
X122726825Y-109345932D01*
X122726824Y-109345932D01*
X122619598Y-109395933D01*
X122619596Y-109395934D01*
X122619596Y-109395935D01*
X122590701Y-109424829D01*
X122536187Y-109452605D01*
X122475755Y-109443034D01*
X122432490Y-109399769D01*
X122421700Y-109354824D01*
X122421700Y-109206126D01*
X122422547Y-109193203D01*
X122423200Y-109188243D01*
X122423200Y-108969557D01*
X122423200Y-108969556D01*
X122399314Y-108880412D01*
X122393591Y-108870499D01*
X122353170Y-108800488D01*
X122272683Y-108720001D01*
X122244908Y-108665487D01*
X122254479Y-108605055D01*
X122272682Y-108579999D01*
X122400470Y-108452212D01*
X122446614Y-108372288D01*
X122450866Y-108356418D01*
X122452917Y-108348767D01*
X122470500Y-108283143D01*
X122470500Y-107946532D01*
X127129500Y-107946532D01*
X127129500Y-108153467D01*
X127169869Y-108356418D01*
X127249058Y-108547597D01*
X127364020Y-108719651D01*
X127364023Y-108719655D01*
X127510345Y-108865977D01*
X127682402Y-108980941D01*
X127873580Y-109060130D01*
X128076535Y-109100500D01*
X128076536Y-109100500D01*
X128283464Y-109100500D01*
X128283465Y-109100500D01*
X128486420Y-109060130D01*
X128677598Y-108980941D01*
X128849655Y-108865977D01*
X128995977Y-108719655D01*
X129110941Y-108547598D01*
X129190130Y-108356420D01*
X129230500Y-108153465D01*
X129230500Y-107946535D01*
X129230499Y-107946532D01*
X129669500Y-107946532D01*
X129669500Y-108153467D01*
X129709869Y-108356418D01*
X129789058Y-108547597D01*
X129904020Y-108719651D01*
X129904023Y-108719655D01*
X130050345Y-108865977D01*
X130222402Y-108980941D01*
X130413580Y-109060130D01*
X130616535Y-109100500D01*
X130616536Y-109100500D01*
X130823464Y-109100500D01*
X130823465Y-109100500D01*
X131026420Y-109060130D01*
X131217598Y-108980941D01*
X131389655Y-108865977D01*
X131535977Y-108719655D01*
X131650941Y-108547598D01*
X131730130Y-108356420D01*
X131770500Y-108153465D01*
X131770500Y-107946535D01*
X131730130Y-107743580D01*
X131650941Y-107552402D01*
X131602820Y-107480384D01*
X131535979Y-107380348D01*
X131535977Y-107380345D01*
X131389655Y-107234023D01*
X131389651Y-107234020D01*
X131217597Y-107119058D01*
X131026418Y-107039869D01*
X130823467Y-106999500D01*
X130823465Y-106999500D01*
X130616535Y-106999500D01*
X130616532Y-106999500D01*
X130413581Y-107039869D01*
X130222402Y-107119058D01*
X130050348Y-107234020D01*
X129904020Y-107380348D01*
X129789060Y-107552400D01*
X129709869Y-107743581D01*
X129669500Y-107946532D01*
X129230499Y-107946532D01*
X129190130Y-107743580D01*
X129110941Y-107552402D01*
X129062820Y-107480384D01*
X128995979Y-107380348D01*
X128995977Y-107380345D01*
X128849655Y-107234023D01*
X128849651Y-107234020D01*
X128677597Y-107119058D01*
X128486418Y-107039869D01*
X128283467Y-106999500D01*
X128283465Y-106999500D01*
X128076535Y-106999500D01*
X128076532Y-106999500D01*
X127873581Y-107039869D01*
X127682402Y-107119058D01*
X127510348Y-107234020D01*
X127364020Y-107380348D01*
X127249060Y-107552400D01*
X127169869Y-107743581D01*
X127129500Y-107946532D01*
X122470500Y-107946532D01*
X122470500Y-107332047D01*
X122489407Y-107273856D01*
X122499490Y-107262049D01*
X122543224Y-107218316D01*
X122593972Y-107109487D01*
X122600500Y-107059901D01*
X122600499Y-106640100D01*
X122593972Y-106590513D01*
X122593972Y-106590511D01*
X122543225Y-106481686D01*
X122543223Y-106481683D01*
X122499496Y-106437955D01*
X122471719Y-106383438D01*
X122470500Y-106367952D01*
X122470500Y-105766188D01*
X122489407Y-105707997D01*
X122499485Y-105696196D01*
X122641187Y-105554493D01*
X122695702Y-105526718D01*
X122711189Y-105525499D01*
X122827418Y-105525499D01*
X122827418Y-105526724D01*
X122882220Y-105540629D01*
X122921354Y-105587663D01*
X122925369Y-105648716D01*
X122899414Y-105694371D01*
X122813900Y-105779885D01*
X122813896Y-105779890D01*
X122748009Y-105894009D01*
X122748008Y-105894014D01*
X122713900Y-106021308D01*
X122713900Y-106153092D01*
X122731741Y-106219677D01*
X122748009Y-106280390D01*
X122813896Y-106394509D01*
X122813898Y-106394511D01*
X122813900Y-106394514D01*
X122907086Y-106487700D01*
X122907088Y-106487701D01*
X122907090Y-106487703D01*
X123021210Y-106553590D01*
X123021208Y-106553590D01*
X123021212Y-106553591D01*
X123021214Y-106553592D01*
X123148508Y-106587700D01*
X123148510Y-106587700D01*
X123280289Y-106587700D01*
X123280292Y-106587700D01*
X123328972Y-106574656D01*
X123390071Y-106577858D01*
X123424597Y-106600279D01*
X123660504Y-106836186D01*
X123688281Y-106890703D01*
X123689500Y-106906189D01*
X123689500Y-107059895D01*
X123689501Y-107059907D01*
X123696027Y-107109486D01*
X123696027Y-107109488D01*
X123746774Y-107218313D01*
X123746775Y-107218314D01*
X123746776Y-107218316D01*
X123831684Y-107303224D01*
X123940513Y-107353972D01*
X123990099Y-107360500D01*
X124349900Y-107360499D01*
X124399487Y-107353972D01*
X124399488Y-107353972D01*
X124479717Y-107316560D01*
X124508316Y-107303224D01*
X124593224Y-107218316D01*
X124643972Y-107109487D01*
X124650500Y-107059901D01*
X124650499Y-106640100D01*
X124643972Y-106590513D01*
X124643972Y-106590511D01*
X124593225Y-106481686D01*
X124593224Y-106481685D01*
X124593224Y-106481684D01*
X124508316Y-106396776D01*
X124508314Y-106396775D01*
X124508313Y-106396774D01*
X124399489Y-106346029D01*
X124399488Y-106346028D01*
X124374314Y-106342714D01*
X124349901Y-106339500D01*
X124349900Y-106339500D01*
X124196190Y-106339500D01*
X124137999Y-106320593D01*
X124126186Y-106310504D01*
X123650523Y-105834841D01*
X123634791Y-105814338D01*
X123618570Y-105786243D01*
X123614900Y-105779886D01*
X123521714Y-105686700D01*
X123521711Y-105686698D01*
X123521709Y-105686696D01*
X123407589Y-105620809D01*
X123407591Y-105620809D01*
X123358199Y-105607575D01*
X123280292Y-105586700D01*
X123148508Y-105586700D01*
X123148505Y-105586700D01*
X123105746Y-105598157D01*
X123044645Y-105594954D01*
X122997096Y-105556448D01*
X122981261Y-105497347D01*
X123003189Y-105440226D01*
X123010112Y-105432536D01*
X123047850Y-105394799D01*
X123094499Y-105294760D01*
X123100500Y-105249179D01*
X123100499Y-105136189D01*
X123119406Y-105077999D01*
X123129489Y-105066191D01*
X123244858Y-104950822D01*
X124199500Y-104950822D01*
X124199500Y-105249173D01*
X124199501Y-105249185D01*
X124205500Y-105294759D01*
X124205500Y-105294761D01*
X124252148Y-105394796D01*
X124252149Y-105394797D01*
X124252150Y-105394799D01*
X124330201Y-105472850D01*
X124430240Y-105519499D01*
X124475821Y-105525500D01*
X124588808Y-105525499D01*
X124646999Y-105544406D01*
X124658813Y-105554495D01*
X124731304Y-105626986D01*
X124759081Y-105681503D01*
X124760300Y-105696990D01*
X124760300Y-105726692D01*
X124784342Y-105816418D01*
X124794409Y-105853990D01*
X124860296Y-105968109D01*
X124860298Y-105968111D01*
X124860300Y-105968114D01*
X124953486Y-106061300D01*
X124953488Y-106061301D01*
X124953490Y-106061303D01*
X125067610Y-106127190D01*
X125067608Y-106127190D01*
X125067612Y-106127191D01*
X125067614Y-106127192D01*
X125194908Y-106161300D01*
X125194910Y-106161300D01*
X125326690Y-106161300D01*
X125326692Y-106161300D01*
X125453986Y-106127192D01*
X125453988Y-106127190D01*
X125453990Y-106127190D01*
X125568109Y-106061303D01*
X125568109Y-106061302D01*
X125568114Y-106061300D01*
X125661300Y-105968114D01*
X125678839Y-105937736D01*
X125727190Y-105853990D01*
X125727190Y-105853988D01*
X125727192Y-105853986D01*
X125761300Y-105726692D01*
X125761300Y-105594908D01*
X125727192Y-105467614D01*
X125691926Y-105406532D01*
X127129500Y-105406532D01*
X127129500Y-105613467D01*
X127169869Y-105816418D01*
X127249058Y-106007597D01*
X127361486Y-106175858D01*
X127364023Y-106179655D01*
X127510345Y-106325977D01*
X127682402Y-106440941D01*
X127873580Y-106520130D01*
X128076535Y-106560500D01*
X128076536Y-106560500D01*
X128283464Y-106560500D01*
X128283465Y-106560500D01*
X128486420Y-106520130D01*
X128677598Y-106440941D01*
X128849655Y-106325977D01*
X128995977Y-106179655D01*
X129110941Y-106007598D01*
X129190130Y-105816420D01*
X129230500Y-105613465D01*
X129230500Y-105406535D01*
X129230499Y-105406532D01*
X129669500Y-105406532D01*
X129669500Y-105613467D01*
X129709869Y-105816418D01*
X129789058Y-106007597D01*
X129901486Y-106175858D01*
X129904023Y-106179655D01*
X130050345Y-106325977D01*
X130222402Y-106440941D01*
X130413580Y-106520130D01*
X130616535Y-106560500D01*
X130616536Y-106560500D01*
X130823464Y-106560500D01*
X130823465Y-106560500D01*
X131026420Y-106520130D01*
X131217598Y-106440941D01*
X131389655Y-106325977D01*
X131535977Y-106179655D01*
X131650941Y-106007598D01*
X131730130Y-105816420D01*
X131770500Y-105613465D01*
X131770500Y-105406535D01*
X131730130Y-105203580D01*
X131650941Y-105012402D01*
X131535977Y-104840345D01*
X131389655Y-104694023D01*
X131389651Y-104694020D01*
X131217597Y-104579058D01*
X131026418Y-104499869D01*
X130823467Y-104459500D01*
X130823465Y-104459500D01*
X130616535Y-104459500D01*
X130616532Y-104459500D01*
X130413581Y-104499869D01*
X130222402Y-104579058D01*
X130050348Y-104694020D01*
X129904020Y-104840348D01*
X129789058Y-105012402D01*
X129709869Y-105203581D01*
X129669500Y-105406532D01*
X129230499Y-105406532D01*
X129190130Y-105203580D01*
X129110941Y-105012402D01*
X128995977Y-104840345D01*
X128849655Y-104694023D01*
X128849651Y-104694020D01*
X128677597Y-104579058D01*
X128486418Y-104499869D01*
X128283467Y-104459500D01*
X128283465Y-104459500D01*
X128076535Y-104459500D01*
X128076532Y-104459500D01*
X127873581Y-104499869D01*
X127682402Y-104579058D01*
X127510348Y-104694020D01*
X127364020Y-104840348D01*
X127249058Y-105012402D01*
X127169869Y-105203581D01*
X127129500Y-105406532D01*
X125691926Y-105406532D01*
X125661300Y-105353486D01*
X125568114Y-105260300D01*
X125568111Y-105260298D01*
X125568109Y-105260296D01*
X125453989Y-105194409D01*
X125453991Y-105194409D01*
X125404599Y-105181175D01*
X125326692Y-105160300D01*
X125326690Y-105160300D01*
X125299499Y-105160300D01*
X125241308Y-105141393D01*
X125205344Y-105091893D01*
X125200499Y-105061300D01*
X125200499Y-104950825D01*
X125200498Y-104950815D01*
X125194499Y-104905240D01*
X125194499Y-104905238D01*
X125147851Y-104805203D01*
X125147850Y-104805202D01*
X125147850Y-104805201D01*
X125069799Y-104727150D01*
X124969760Y-104680501D01*
X124924179Y-104674500D01*
X124924177Y-104674500D01*
X124475826Y-104674500D01*
X124475814Y-104674501D01*
X124430240Y-104680500D01*
X124430238Y-104680500D01*
X124330203Y-104727148D01*
X124252150Y-104805201D01*
X124205501Y-104905240D01*
X124205501Y-104905241D01*
X124199500Y-104950822D01*
X123244858Y-104950822D01*
X123607016Y-104588665D01*
X123714486Y-104481196D01*
X123769002Y-104453419D01*
X123784489Y-104452200D01*
X125962742Y-104452200D01*
X125962744Y-104452200D01*
X126051888Y-104428314D01*
X126131812Y-104382170D01*
X126960498Y-103553483D01*
X127015013Y-103525708D01*
X127075445Y-103535279D01*
X127118710Y-103578544D01*
X127129500Y-103623489D01*
X127129500Y-103839746D01*
X127129501Y-103839758D01*
X127141132Y-103898227D01*
X127141133Y-103898231D01*
X127185448Y-103964552D01*
X127251769Y-104008867D01*
X127296231Y-104017711D01*
X127310241Y-104020498D01*
X127310246Y-104020498D01*
X127310252Y-104020500D01*
X127310253Y-104020500D01*
X129049747Y-104020500D01*
X129049748Y-104020500D01*
X129108231Y-104008867D01*
X129174552Y-103964552D01*
X129218867Y-103898231D01*
X129230500Y-103839748D01*
X129230500Y-102100252D01*
X129218867Y-102041769D01*
X129174552Y-101975448D01*
X129127058Y-101943713D01*
X129108233Y-101931134D01*
X129108231Y-101931133D01*
X129108228Y-101931132D01*
X129108227Y-101931132D01*
X129049758Y-101919501D01*
X129049748Y-101919500D01*
X127310252Y-101919500D01*
X127310251Y-101919500D01*
X127310241Y-101919501D01*
X127251772Y-101931132D01*
X127251766Y-101931134D01*
X127185451Y-101975445D01*
X127185445Y-101975451D01*
X127141134Y-102041766D01*
X127141132Y-102041772D01*
X127129501Y-102100241D01*
X127129500Y-102100253D01*
X127129500Y-102520500D01*
X127110593Y-102578691D01*
X127061093Y-102614655D01*
X127030500Y-102619500D01*
X127002156Y-102619500D01*
X126947597Y-102634118D01*
X126913007Y-102643387D01*
X126833091Y-102689527D01*
X125800414Y-103722204D01*
X125745897Y-103749981D01*
X125730410Y-103751200D01*
X123552156Y-103751200D01*
X123463012Y-103775086D01*
X123463011Y-103775086D01*
X123463009Y-103775087D01*
X123383089Y-103821229D01*
X123383087Y-103821231D01*
X122558812Y-104645504D01*
X122504296Y-104673281D01*
X122488810Y-104674500D01*
X122375826Y-104674500D01*
X122375814Y-104674501D01*
X122330240Y-104680500D01*
X122330238Y-104680500D01*
X122230203Y-104727148D01*
X122152150Y-104805201D01*
X122105501Y-104905240D01*
X122105501Y-104905241D01*
X122099500Y-104950822D01*
X122099500Y-105063810D01*
X122080593Y-105122001D01*
X122070504Y-105133813D01*
X121839530Y-105364787D01*
X121803834Y-105426613D01*
X121803835Y-105426614D01*
X121793386Y-105444710D01*
X121769500Y-105533857D01*
X121769500Y-106367952D01*
X121750593Y-106426143D01*
X121740504Y-106437955D01*
X121696776Y-106481683D01*
X121696774Y-106481686D01*
X121646029Y-106590510D01*
X121646028Y-106590511D01*
X121646028Y-106590513D01*
X121639629Y-106639123D01*
X121639500Y-106640100D01*
X121639500Y-107059896D01*
X121639501Y-107059907D01*
X121646027Y-107109486D01*
X121646027Y-107109488D01*
X121696774Y-107218313D01*
X121696775Y-107218314D01*
X121696776Y-107218316D01*
X121740505Y-107262045D01*
X121768281Y-107316560D01*
X121769500Y-107332047D01*
X121769500Y-107747968D01*
X121750593Y-107806159D01*
X121701093Y-107842123D01*
X121639907Y-107842123D01*
X121590407Y-107806159D01*
X121584764Y-107797469D01*
X121563701Y-107760988D01*
X121563700Y-107760986D01*
X121470514Y-107667800D01*
X121470511Y-107667798D01*
X121470509Y-107667796D01*
X121356389Y-107601909D01*
X121356391Y-107601909D01*
X121306999Y-107588675D01*
X121229092Y-107567800D01*
X121097308Y-107567800D01*
X121019400Y-107588675D01*
X120970009Y-107601909D01*
X120855890Y-107667796D01*
X120855889Y-107667797D01*
X120855886Y-107667799D01*
X120855886Y-107667800D01*
X120834880Y-107688805D01*
X120780366Y-107716581D01*
X120764879Y-107717800D01*
X120176256Y-107717800D01*
X120087112Y-107741686D01*
X120007188Y-107787830D01*
X119527030Y-108267988D01*
X119494317Y-108324651D01*
X119493827Y-108325499D01*
X119493826Y-108325499D01*
X119493826Y-108325500D01*
X119480885Y-108347913D01*
X119478461Y-108353766D01*
X119468677Y-108371821D01*
X119461608Y-108382142D01*
X119460070Y-108381088D01*
X119426850Y-108418206D01*
X119367040Y-108431106D01*
X119311070Y-108406387D01*
X119307108Y-108402639D01*
X119241404Y-108336935D01*
X119241402Y-108336934D01*
X119241401Y-108336933D01*
X119193660Y-108314671D01*
X119176416Y-108298590D01*
X119156981Y-108285244D01*
X119154450Y-108278106D01*
X119148912Y-108272942D01*
X119138918Y-108234298D01*
X119136535Y-108227576D01*
X119136879Y-108226412D01*
X119136500Y-108224947D01*
X119136500Y-107561200D01*
X119132855Y-107552400D01*
X119132855Y-107552399D01*
X119094559Y-107459943D01*
X119014961Y-107380345D01*
X118922351Y-107287736D01*
X118894574Y-107233220D01*
X118904145Y-107172788D01*
X118942853Y-107131997D01*
X119058015Y-107065509D01*
X119160509Y-106963015D01*
X119193318Y-106906189D01*
X119232982Y-106837489D01*
X119232982Y-106837487D01*
X119232984Y-106837485D01*
X119270500Y-106697475D01*
X119270500Y-106552525D01*
X119232984Y-106412515D01*
X119232982Y-106412512D01*
X119232982Y-106412510D01*
X119160512Y-106286989D01*
X119160510Y-106286987D01*
X119160509Y-106286985D01*
X119058015Y-106184491D01*
X119058012Y-106184489D01*
X119058010Y-106184487D01*
X118932488Y-106112017D01*
X118932489Y-106112017D01*
X118854945Y-106091239D01*
X118792475Y-106074500D01*
X118647525Y-106074500D01*
X118585790Y-106091041D01*
X118507510Y-106112017D01*
X118381989Y-106184487D01*
X118381983Y-106184492D01*
X118365002Y-106201473D01*
X118310485Y-106229250D01*
X118250053Y-106219677D01*
X118224998Y-106201473D01*
X118208016Y-106184492D01*
X118208010Y-106184487D01*
X118082488Y-106112017D01*
X118082489Y-106112017D01*
X118004945Y-106091239D01*
X117942475Y-106074500D01*
X117797525Y-106074500D01*
X117735790Y-106091041D01*
X117657510Y-106112017D01*
X117531989Y-106184487D01*
X117531983Y-106184492D01*
X117515002Y-106201473D01*
X117460485Y-106229250D01*
X117400053Y-106219677D01*
X117374998Y-106201473D01*
X117358016Y-106184492D01*
X117358010Y-106184487D01*
X117232488Y-106112017D01*
X117232489Y-106112017D01*
X117154945Y-106091239D01*
X117092475Y-106074500D01*
X116947525Y-106074500D01*
X116913056Y-106083735D01*
X116843497Y-106102374D01*
X116782395Y-106099171D01*
X116734845Y-106060666D01*
X116719010Y-106001565D01*
X116740937Y-105944444D01*
X116747860Y-105936753D01*
X116837383Y-105847230D01*
X116891898Y-105819455D01*
X116933006Y-105821609D01*
X116947525Y-105825500D01*
X116947527Y-105825500D01*
X117092474Y-105825500D01*
X117092475Y-105825500D01*
X117232485Y-105787984D01*
X117232487Y-105787982D01*
X117232489Y-105787982D01*
X117358010Y-105715512D01*
X117358010Y-105715511D01*
X117358015Y-105715509D01*
X117374998Y-105698525D01*
X117429513Y-105670750D01*
X117489945Y-105680321D01*
X117515000Y-105698524D01*
X117531985Y-105715509D01*
X117531987Y-105715510D01*
X117531989Y-105715512D01*
X117657511Y-105787982D01*
X117657512Y-105787982D01*
X117657515Y-105787984D01*
X117797525Y-105825500D01*
X117797526Y-105825500D01*
X117942474Y-105825500D01*
X117942475Y-105825500D01*
X118082485Y-105787984D01*
X118082487Y-105787982D01*
X118082489Y-105787982D01*
X118208010Y-105715512D01*
X118208010Y-105715511D01*
X118208015Y-105715509D01*
X118224998Y-105698525D01*
X118279513Y-105670750D01*
X118339945Y-105680321D01*
X118365000Y-105698524D01*
X118381985Y-105715509D01*
X118381987Y-105715510D01*
X118381989Y-105715512D01*
X118507511Y-105787982D01*
X118507512Y-105787982D01*
X118507515Y-105787984D01*
X118647525Y-105825500D01*
X118647526Y-105825500D01*
X118792474Y-105825500D01*
X118792475Y-105825500D01*
X118932485Y-105787984D01*
X118932487Y-105787982D01*
X118932489Y-105787982D01*
X119058010Y-105715512D01*
X119058010Y-105715511D01*
X119058015Y-105715509D01*
X119160509Y-105613015D01*
X119206212Y-105533856D01*
X119232982Y-105487489D01*
X119232982Y-105487487D01*
X119232984Y-105487485D01*
X119270500Y-105347475D01*
X119270500Y-105202525D01*
X119232984Y-105062515D01*
X119232982Y-105062512D01*
X119232982Y-105062510D01*
X119160512Y-104936989D01*
X119160510Y-104936987D01*
X119160509Y-104936985D01*
X119058015Y-104834491D01*
X119058012Y-104834489D01*
X119058010Y-104834487D01*
X118932488Y-104762017D01*
X118932489Y-104762017D01*
X118792473Y-104724499D01*
X118791943Y-104724430D01*
X118791597Y-104724265D01*
X118786208Y-104722821D01*
X118786475Y-104721822D01*
X118736718Y-104698087D01*
X118734864Y-104696281D01*
X118336514Y-104297932D01*
X118336512Y-104297930D01*
X118256588Y-104251786D01*
X118167444Y-104227900D01*
X115041656Y-104227900D01*
X114952512Y-104251786D01*
X114872585Y-104297932D01*
X114475013Y-104695504D01*
X114420497Y-104723281D01*
X114405010Y-104724500D01*
X114397525Y-104724500D01*
X114377253Y-104729932D01*
X114257510Y-104762017D01*
X114131989Y-104834487D01*
X114029487Y-104936989D01*
X113957017Y-105062510D01*
X113935880Y-105141393D01*
X113919500Y-105202525D01*
X113919500Y-105347475D01*
X113942290Y-105432526D01*
X113957017Y-105487489D01*
X114019551Y-105595800D01*
X114032273Y-105655648D01*
X114007386Y-105711544D01*
X113954398Y-105742137D01*
X113933815Y-105744300D01*
X113348700Y-105744300D01*
X113273378Y-105775500D01*
X113273377Y-105775500D01*
X113247442Y-105786242D01*
X112705746Y-106327938D01*
X112705744Y-106327940D01*
X112705743Y-106327942D01*
X112677231Y-106396776D01*
X112663800Y-106429200D01*
X112663800Y-107439376D01*
X112644893Y-107497567D01*
X112634804Y-107509379D01*
X112154741Y-107989443D01*
X112112801Y-108090698D01*
X112112801Y-108143193D01*
X112093894Y-108201384D01*
X112051692Y-108234655D01*
X112039338Y-108239773D01*
X112038303Y-108237274D01*
X111993583Y-108249879D01*
X111936183Y-108228692D01*
X111916918Y-108208486D01*
X111912637Y-108202491D01*
X111912636Y-108202490D01*
X111912636Y-108202489D01*
X111830511Y-108120364D01*
X111726170Y-108069355D01*
X111726171Y-108069355D01*
X111709259Y-108066891D01*
X111658528Y-108059500D01*
X111297472Y-108059500D01*
X111256886Y-108065413D01*
X111229828Y-108069355D01*
X111125497Y-108120360D01*
X111125489Y-108120364D01*
X111063001Y-108182851D01*
X111008487Y-108210627D01*
X110948055Y-108201056D01*
X110922999Y-108182852D01*
X110860511Y-108120364D01*
X110860509Y-108120363D01*
X110860508Y-108120362D01*
X110860505Y-108120360D01*
X110839019Y-108109856D01*
X110795045Y-108067313D01*
X110783500Y-108020916D01*
X110783500Y-106425423D01*
X110802407Y-106367232D01*
X110812496Y-106355419D01*
X111101519Y-106066396D01*
X111156036Y-106038619D01*
X111171523Y-106037400D01*
X111488921Y-106037400D01*
X111526806Y-106044936D01*
X111554000Y-106056200D01*
X111663599Y-106056200D01*
X111663600Y-106056200D01*
X111764858Y-106014257D01*
X111842357Y-105936758D01*
X111884300Y-105835500D01*
X111884300Y-105321900D01*
X111866935Y-105279977D01*
X111859400Y-105242093D01*
X111859400Y-104830979D01*
X111866936Y-104793093D01*
X111872387Y-104779933D01*
X111878200Y-104765900D01*
X111878200Y-104656300D01*
X111836257Y-104555042D01*
X111758758Y-104477543D01*
X111657500Y-104435600D01*
X109651100Y-104435600D01*
X109651099Y-104435600D01*
X109579499Y-104465257D01*
X109579499Y-104465258D01*
X109549841Y-104477543D01*
X109549839Y-104477544D01*
X109332879Y-104694504D01*
X109278363Y-104722281D01*
X109262876Y-104723500D01*
X108998684Y-104723500D01*
X108982398Y-104725644D01*
X108949825Y-104729932D01*
X108949824Y-104729932D01*
X108842598Y-104779933D01*
X108758933Y-104863598D01*
X108708932Y-104970824D01*
X108708932Y-104970825D01*
X108702500Y-105019685D01*
X108702500Y-105468314D01*
X108708932Y-105517174D01*
X108708932Y-105517175D01*
X108758933Y-105624401D01*
X108758934Y-105624402D01*
X108758935Y-105624404D01*
X108842596Y-105708065D01*
X108842597Y-105708065D01*
X108842598Y-105708066D01*
X108845888Y-105710370D01*
X108882709Y-105759236D01*
X108884729Y-105817087D01*
X108864117Y-105894014D01*
X108850400Y-105945208D01*
X108850400Y-106076992D01*
X108876891Y-106175858D01*
X108884509Y-106204290D01*
X108950396Y-106318409D01*
X108950398Y-106318411D01*
X108950400Y-106318414D01*
X109043586Y-106411600D01*
X109043588Y-106411601D01*
X109043590Y-106411603D01*
X109157710Y-106477490D01*
X109157708Y-106477490D01*
X109157712Y-106477491D01*
X109157714Y-106477492D01*
X109285008Y-106511600D01*
X109285010Y-106511600D01*
X109416790Y-106511600D01*
X109416792Y-106511600D01*
X109544086Y-106477492D01*
X109544088Y-106477490D01*
X109544090Y-106477490D01*
X109578600Y-106457566D01*
X109638448Y-106444844D01*
X109694344Y-106469730D01*
X109724937Y-106522718D01*
X109727100Y-106543302D01*
X109727100Y-109238400D01*
X109768801Y-109339073D01*
X109768802Y-109339082D01*
X109768804Y-109339082D01*
X109769040Y-109339652D01*
X109769041Y-109339654D01*
X109769043Y-109339658D01*
X110154505Y-109725120D01*
X110182281Y-109779635D01*
X110183500Y-109795122D01*
X110183500Y-110012800D01*
X110164593Y-110070991D01*
X110115093Y-110106955D01*
X110084500Y-110111800D01*
X109892890Y-110111800D01*
X109834699Y-110092893D01*
X109822886Y-110082804D01*
X106532496Y-106792414D01*
X106504719Y-106737897D01*
X106503500Y-106722410D01*
X106503500Y-104936057D01*
X106495242Y-104905238D01*
X106479614Y-104846912D01*
X106478462Y-104844916D01*
X106472441Y-104834487D01*
X106433473Y-104766992D01*
X106433471Y-104766990D01*
X106433470Y-104766988D01*
X105487712Y-103821230D01*
X105407788Y-103775086D01*
X105318644Y-103751200D01*
X105318642Y-103751200D01*
X104707290Y-103751200D01*
X104649099Y-103732293D01*
X104637286Y-103722204D01*
X103981196Y-103066114D01*
X103953419Y-103011597D01*
X103952200Y-102996110D01*
X103952200Y-102923857D01*
X103952200Y-102923856D01*
X103928314Y-102834712D01*
X103882169Y-102754788D01*
X103816912Y-102689531D01*
X103816905Y-102689527D01*
X103736990Y-102643387D01*
X103736989Y-102643386D01*
X103736988Y-102643386D01*
X103647844Y-102619500D01*
X103647842Y-102619500D01*
X103619500Y-102619500D01*
X103561309Y-102600593D01*
X103525345Y-102551093D01*
X103520500Y-102520500D01*
X103520500Y-102100253D01*
X103520498Y-102100241D01*
X103517711Y-102086231D01*
X103508867Y-102041769D01*
X103464552Y-101975448D01*
X103417058Y-101943713D01*
X103417052Y-101943709D01*
X108179500Y-101943709D01*
X108179500Y-102156290D01*
X108212752Y-102366238D01*
X108278443Y-102568412D01*
X108374948Y-102757815D01*
X108374950Y-102757819D01*
X108499891Y-102929786D01*
X108499893Y-102929788D01*
X108499896Y-102929792D01*
X108650208Y-103080104D01*
X108650211Y-103080106D01*
X108650213Y-103080108D01*
X108822180Y-103205049D01*
X108822184Y-103205051D01*
X109011588Y-103301557D01*
X109213757Y-103367246D01*
X109213758Y-103367246D01*
X109213761Y-103367247D01*
X109423710Y-103400500D01*
X109423713Y-103400500D01*
X109636290Y-103400500D01*
X109846238Y-103367247D01*
X109846239Y-103367246D01*
X109846243Y-103367246D01*
X110048412Y-103301557D01*
X110237816Y-103205051D01*
X110409792Y-103080104D01*
X110560104Y-102929792D01*
X110685051Y-102757816D01*
X110781557Y-102568412D01*
X110847246Y-102366243D01*
X110880500Y-102156287D01*
X110880500Y-101943713D01*
X110880500Y-101943709D01*
X122309500Y-101943709D01*
X122309500Y-102156290D01*
X122342752Y-102366238D01*
X122408443Y-102568412D01*
X122504948Y-102757815D01*
X122504950Y-102757819D01*
X122629891Y-102929786D01*
X122629893Y-102929788D01*
X122629896Y-102929792D01*
X122780208Y-103080104D01*
X122780211Y-103080106D01*
X122780213Y-103080108D01*
X122952180Y-103205049D01*
X122952184Y-103205051D01*
X123141588Y-103301557D01*
X123343757Y-103367246D01*
X123343758Y-103367246D01*
X123343761Y-103367247D01*
X123553710Y-103400500D01*
X123553713Y-103400500D01*
X123766290Y-103400500D01*
X123976238Y-103367247D01*
X123976239Y-103367246D01*
X123976243Y-103367246D01*
X124178412Y-103301557D01*
X124367816Y-103205051D01*
X124539792Y-103080104D01*
X124690104Y-102929792D01*
X124815051Y-102757816D01*
X124911557Y-102568412D01*
X124977246Y-102366243D01*
X125010500Y-102156287D01*
X125010500Y-101943713D01*
X125010500Y-101943709D01*
X124977247Y-101733761D01*
X124977246Y-101733757D01*
X124911557Y-101531588D01*
X124815051Y-101342184D01*
X124815049Y-101342180D01*
X124690108Y-101170213D01*
X124690106Y-101170211D01*
X124690104Y-101170208D01*
X124539792Y-101019896D01*
X124539788Y-101019893D01*
X124539786Y-101019891D01*
X124367819Y-100894950D01*
X124367815Y-100894948D01*
X124178412Y-100798443D01*
X123976238Y-100732752D01*
X123766290Y-100699500D01*
X123766287Y-100699500D01*
X123553713Y-100699500D01*
X123553710Y-100699500D01*
X123343761Y-100732752D01*
X123141587Y-100798443D01*
X122952184Y-100894948D01*
X122952180Y-100894950D01*
X122780213Y-101019891D01*
X122629891Y-101170213D01*
X122504950Y-101342180D01*
X122504948Y-101342184D01*
X122408443Y-101531587D01*
X122342752Y-101733761D01*
X122309500Y-101943709D01*
X110880500Y-101943709D01*
X110847247Y-101733761D01*
X110847246Y-101733757D01*
X110781557Y-101531588D01*
X110685051Y-101342184D01*
X110685049Y-101342180D01*
X110560108Y-101170213D01*
X110560106Y-101170211D01*
X110560104Y-101170208D01*
X110409792Y-101019896D01*
X110409788Y-101019893D01*
X110409786Y-101019891D01*
X110237819Y-100894950D01*
X110237815Y-100894948D01*
X110048412Y-100798443D01*
X109846238Y-100732752D01*
X109636290Y-100699500D01*
X109636287Y-100699500D01*
X109423713Y-100699500D01*
X109423710Y-100699500D01*
X109213761Y-100732752D01*
X109011587Y-100798443D01*
X108822184Y-100894948D01*
X108822180Y-100894950D01*
X108650213Y-101019891D01*
X108499891Y-101170213D01*
X108374950Y-101342180D01*
X108374948Y-101342184D01*
X108278443Y-101531587D01*
X108212752Y-101733761D01*
X108179500Y-101943709D01*
X103417052Y-101943709D01*
X103398233Y-101931134D01*
X103398231Y-101931133D01*
X103398228Y-101931132D01*
X103398227Y-101931132D01*
X103339758Y-101919501D01*
X103339748Y-101919500D01*
X101600252Y-101919500D01*
X101600251Y-101919500D01*
X101600241Y-101919501D01*
X101541772Y-101931132D01*
X101541766Y-101931134D01*
X101475451Y-101975445D01*
X101475445Y-101975451D01*
X101431134Y-102041766D01*
X101431132Y-102041772D01*
X101419501Y-102100241D01*
X101419500Y-102100253D01*
X101419500Y-103839746D01*
X101419501Y-103839758D01*
X101431132Y-103898227D01*
X101431133Y-103898231D01*
X101475448Y-103964552D01*
X101541769Y-104008867D01*
X101586231Y-104017711D01*
X101600241Y-104020498D01*
X101600246Y-104020498D01*
X101600252Y-104020500D01*
X101600253Y-104020500D01*
X103339747Y-104020500D01*
X103339748Y-104020500D01*
X103398231Y-104008867D01*
X103464552Y-103964552D01*
X103508867Y-103898231D01*
X103520500Y-103839748D01*
X103520500Y-103835789D01*
X103539407Y-103777598D01*
X103588907Y-103741634D01*
X103650093Y-103741634D01*
X103689501Y-103765783D01*
X104305888Y-104382170D01*
X104385812Y-104428314D01*
X104426146Y-104439121D01*
X104477459Y-104472443D01*
X104499386Y-104529564D01*
X104483551Y-104588665D01*
X104455524Y-104617062D01*
X104340349Y-104694019D01*
X104194020Y-104840348D01*
X104079058Y-105012402D01*
X103999869Y-105203581D01*
X103959500Y-105406532D01*
X103959500Y-105613467D01*
X103999869Y-105816418D01*
X104079058Y-106007597D01*
X104191486Y-106175858D01*
X104194023Y-106179655D01*
X104340345Y-106325977D01*
X104403165Y-106367952D01*
X104441726Y-106393717D01*
X104479606Y-106441767D01*
X104482008Y-106502905D01*
X104448016Y-106553779D01*
X104412350Y-106571659D01*
X104373814Y-106581985D01*
X104373812Y-106581985D01*
X104373812Y-106581986D01*
X104293888Y-106628130D01*
X103582329Y-107339689D01*
X103570315Y-107360499D01*
X103558856Y-107380348D01*
X103556219Y-107384915D01*
X103556217Y-107384918D01*
X103536187Y-107419608D01*
X103536186Y-107419612D01*
X103530891Y-107439376D01*
X103528630Y-107447813D01*
X103495306Y-107499128D01*
X103438184Y-107521054D01*
X103379084Y-107505218D01*
X103350687Y-107477191D01*
X103285979Y-107380348D01*
X103285977Y-107380345D01*
X103139655Y-107234023D01*
X103139651Y-107234020D01*
X102967597Y-107119058D01*
X102776418Y-107039869D01*
X102573467Y-106999500D01*
X102573465Y-106999500D01*
X102366535Y-106999500D01*
X102366532Y-106999500D01*
X102163581Y-107039869D01*
X101972402Y-107119058D01*
X101800348Y-107234020D01*
X101654020Y-107380348D01*
X101539060Y-107552400D01*
X101459869Y-107743581D01*
X101419500Y-107946532D01*
X101419500Y-108153467D01*
X101459869Y-108356418D01*
X101539058Y-108547597D01*
X101654020Y-108719651D01*
X101654023Y-108719655D01*
X101800345Y-108865977D01*
X101972402Y-108980941D01*
X102163580Y-109060130D01*
X102366535Y-109100500D01*
X102366536Y-109100500D01*
X102573464Y-109100500D01*
X102573465Y-109100500D01*
X102776420Y-109060130D01*
X102967598Y-108980941D01*
X103139655Y-108865977D01*
X103285977Y-108719655D01*
X103330985Y-108652295D01*
X103379034Y-108614416D01*
X103440172Y-108612014D01*
X103491046Y-108646006D01*
X103512224Y-108703409D01*
X103512300Y-108707297D01*
X103512300Y-109932702D01*
X103493393Y-109990893D01*
X103443893Y-110026857D01*
X103382707Y-110026857D01*
X103333207Y-109990893D01*
X103330984Y-109987703D01*
X103285979Y-109920348D01*
X103285977Y-109920345D01*
X103139655Y-109774023D01*
X103112698Y-109756011D01*
X102967597Y-109659058D01*
X102776418Y-109579869D01*
X102573467Y-109539500D01*
X102573465Y-109539500D01*
X102366535Y-109539500D01*
X102366532Y-109539500D01*
X102163581Y-109579869D01*
X101972402Y-109659058D01*
X101800348Y-109774020D01*
X101654020Y-109920348D01*
X101539058Y-110092402D01*
X101459869Y-110283581D01*
X101419500Y-110486532D01*
X101419500Y-110693467D01*
X101459869Y-110896418D01*
X101539058Y-111087597D01*
X101647214Y-111249465D01*
X101654023Y-111259655D01*
X101800345Y-111405977D01*
X101972402Y-111520941D01*
X102163580Y-111600130D01*
X102366535Y-111640500D01*
X102366536Y-111640500D01*
X102573464Y-111640500D01*
X102573465Y-111640500D01*
X102776420Y-111600130D01*
X102967598Y-111520941D01*
X103139655Y-111405977D01*
X103285977Y-111259655D01*
X103330985Y-111192295D01*
X103379034Y-111154416D01*
X103440172Y-111152014D01*
X103491046Y-111186006D01*
X103512224Y-111243409D01*
X103512300Y-111247297D01*
X103512300Y-112472702D01*
X103493393Y-112530893D01*
X103443893Y-112566857D01*
X103382707Y-112566857D01*
X103333207Y-112530893D01*
X103330984Y-112527703D01*
X103285979Y-112460348D01*
X103285977Y-112460345D01*
X103139655Y-112314023D01*
X103135698Y-112311379D01*
X102967597Y-112199058D01*
X102776418Y-112119869D01*
X102573467Y-112079500D01*
X102573465Y-112079500D01*
X102366535Y-112079500D01*
X102366532Y-112079500D01*
X102163581Y-112119869D01*
X101972402Y-112199058D01*
X101800348Y-112314020D01*
X101654020Y-112460348D01*
X101539058Y-112632402D01*
X101459869Y-112823581D01*
X101419500Y-113026532D01*
X101419500Y-113233467D01*
X101459869Y-113436418D01*
X101539058Y-113627597D01*
X101638489Y-113776407D01*
X101654023Y-113799655D01*
X101800345Y-113945977D01*
X101972402Y-114060941D01*
X102163580Y-114140130D01*
X102366535Y-114180500D01*
X102366536Y-114180500D01*
X102573464Y-114180500D01*
X102573465Y-114180500D01*
X102776420Y-114140130D01*
X102967598Y-114060941D01*
X103139655Y-113945977D01*
X103285977Y-113799655D01*
X103358549Y-113691042D01*
X103406596Y-113653164D01*
X103467735Y-113650762D01*
X103518609Y-113684754D01*
X103533054Y-113713564D01*
X103533704Y-113713295D01*
X103536184Y-113719284D01*
X103536185Y-113719287D01*
X103536186Y-113719288D01*
X103582330Y-113799212D01*
X103991000Y-114207881D01*
X104432962Y-114649843D01*
X104460739Y-114704360D01*
X104451168Y-114764792D01*
X104417959Y-114802163D01*
X104340348Y-114854020D01*
X104194020Y-115000348D01*
X104079058Y-115172402D01*
X103999869Y-115363581D01*
X103959500Y-115566532D01*
X103959500Y-115773467D01*
X103999869Y-115976418D01*
X104079058Y-116167597D01*
X104185839Y-116327407D01*
X104194023Y-116339655D01*
X104340345Y-116485977D01*
X104512402Y-116600941D01*
X104677522Y-116669336D01*
X104724047Y-116709073D01*
X104738331Y-116768567D01*
X104714916Y-116825095D01*
X104662747Y-116857065D01*
X104639636Y-116859800D01*
X103489899Y-116859800D01*
X103418299Y-116889457D01*
X103418299Y-116889458D01*
X103388641Y-116901743D01*
X103388639Y-116901744D01*
X103045291Y-117245091D01*
X102990775Y-117272868D01*
X102937403Y-117266551D01*
X102776420Y-117199870D01*
X102573467Y-117159500D01*
X102573465Y-117159500D01*
X102366535Y-117159500D01*
X102366532Y-117159500D01*
X102163581Y-117199869D01*
X101972402Y-117279058D01*
X101800348Y-117394020D01*
X101654020Y-117540348D01*
X101539058Y-117712402D01*
X101459869Y-117903581D01*
X101419500Y-118106532D01*
X101419500Y-118313467D01*
X101459869Y-118516418D01*
X101539058Y-118707597D01*
X101646827Y-118868886D01*
X101654023Y-118879655D01*
X101800345Y-119025977D01*
X101972402Y-119140941D01*
X102163580Y-119220130D01*
X102366535Y-119260500D01*
X102366536Y-119260500D01*
X102573464Y-119260500D01*
X102573465Y-119260500D01*
X102776420Y-119220130D01*
X102967598Y-119140941D01*
X103139655Y-119025977D01*
X103285977Y-118879655D01*
X103400941Y-118707598D01*
X103480130Y-118516420D01*
X103520500Y-118313465D01*
X103520500Y-118106535D01*
X103480130Y-117903580D01*
X103413446Y-117742593D01*
X103408646Y-117681599D01*
X103434906Y-117634708D01*
X103629820Y-117439796D01*
X103684336Y-117412019D01*
X103699823Y-117410800D01*
X104095366Y-117410800D01*
X104153557Y-117429707D01*
X104189521Y-117479207D01*
X104189521Y-117540393D01*
X104177682Y-117564801D01*
X104079058Y-117712402D01*
X103999869Y-117903581D01*
X103959500Y-118106532D01*
X103959500Y-118313467D01*
X103999869Y-118516418D01*
X104079058Y-118707597D01*
X104186827Y-118868886D01*
X104194023Y-118879655D01*
X104340345Y-119025977D01*
X104512402Y-119140941D01*
X104703580Y-119220130D01*
X104906535Y-119260500D01*
X104906536Y-119260500D01*
X105113464Y-119260500D01*
X105113465Y-119260500D01*
X105316420Y-119220130D01*
X105426703Y-119174447D01*
X105487699Y-119169647D01*
X105534593Y-119195908D01*
X107680170Y-121341485D01*
X107707947Y-121396002D01*
X107701630Y-121449374D01*
X107672500Y-121519700D01*
X107672500Y-122275300D01*
X107706733Y-122357944D01*
X107707194Y-122359056D01*
X107707194Y-122359057D01*
X107707194Y-122359058D01*
X107707195Y-122359059D01*
X107714443Y-122376558D01*
X112821441Y-127483557D01*
X112851095Y-127495839D01*
X112851097Y-127495841D01*
X112851098Y-127495841D01*
X112886899Y-127510670D01*
X112922700Y-127525500D01*
X115197198Y-127525500D01*
X115255389Y-127544407D01*
X115267200Y-127554495D01*
X115281613Y-127568907D01*
X115291921Y-127579215D01*
X115390420Y-127622707D01*
X115414495Y-127625500D01*
X115950504Y-127625499D01*
X115974580Y-127622707D01*
X116073079Y-127579215D01*
X116073299Y-127578994D01*
X116073693Y-127578794D01*
X116080648Y-127574030D01*
X116081267Y-127574934D01*
X116127814Y-127551219D01*
X116143301Y-127550000D01*
X116870500Y-127550000D01*
X116928691Y-127568907D01*
X116964655Y-127618407D01*
X116969500Y-127649000D01*
X116969500Y-128180500D01*
X116969501Y-128180503D01*
X116972293Y-128204581D01*
X117010985Y-128292208D01*
X117015785Y-128303079D01*
X117091921Y-128379215D01*
X117161497Y-128409936D01*
X117207092Y-128450736D01*
X117219997Y-128510545D01*
X117195283Y-128566517D01*
X117142389Y-128597273D01*
X117121508Y-128599500D01*
X100507791Y-128599500D01*
X100492304Y-128598281D01*
X100481777Y-128596613D01*
X100422934Y-128587293D01*
X100393478Y-128577722D01*
X100337931Y-128549420D01*
X100312871Y-128531214D01*
X100268785Y-128487128D01*
X100250579Y-128462068D01*
X100222277Y-128406521D01*
X100212706Y-128377064D01*
X100201719Y-128307696D01*
X100200500Y-128292209D01*
X100200500Y-125726532D01*
X101419500Y-125726532D01*
X101419500Y-125933467D01*
X101459869Y-126136418D01*
X101539058Y-126327597D01*
X101611730Y-126436359D01*
X101654023Y-126499655D01*
X101800345Y-126645977D01*
X101972402Y-126760941D01*
X102163580Y-126840130D01*
X102366535Y-126880500D01*
X102366536Y-126880500D01*
X102573464Y-126880500D01*
X102573465Y-126880500D01*
X102776420Y-126840130D01*
X102967598Y-126760941D01*
X103139655Y-126645977D01*
X103141923Y-126643709D01*
X108179500Y-126643709D01*
X108179500Y-126856290D01*
X108212752Y-127066238D01*
X108278443Y-127268412D01*
X108374948Y-127457815D01*
X108374950Y-127457819D01*
X108499891Y-127629786D01*
X108499893Y-127629788D01*
X108499896Y-127629792D01*
X108650208Y-127780104D01*
X108650211Y-127780106D01*
X108650213Y-127780108D01*
X108822180Y-127905049D01*
X108822184Y-127905051D01*
X109011588Y-128001557D01*
X109213757Y-128067246D01*
X109213758Y-128067246D01*
X109213761Y-128067247D01*
X109423710Y-128100500D01*
X109423713Y-128100500D01*
X109636290Y-128100500D01*
X109846238Y-128067247D01*
X109846239Y-128067246D01*
X109846243Y-128067246D01*
X110048412Y-128001557D01*
X110237816Y-127905051D01*
X110409792Y-127780104D01*
X110560104Y-127629792D01*
X110685051Y-127457816D01*
X110781557Y-127268412D01*
X110847246Y-127066243D01*
X110848020Y-127061358D01*
X110880500Y-126856290D01*
X110880500Y-126643709D01*
X110847247Y-126433761D01*
X110847246Y-126433757D01*
X110781557Y-126231588D01*
X110685051Y-126042184D01*
X110685049Y-126042180D01*
X110560108Y-125870213D01*
X110560106Y-125870211D01*
X110560104Y-125870208D01*
X110409792Y-125719896D01*
X110409788Y-125719893D01*
X110409786Y-125719891D01*
X110237819Y-125594950D01*
X110237815Y-125594948D01*
X110048412Y-125498443D01*
X109846238Y-125432752D01*
X109636290Y-125399500D01*
X109636287Y-125399500D01*
X109423713Y-125399500D01*
X109423710Y-125399500D01*
X109213761Y-125432752D01*
X109011587Y-125498443D01*
X108822184Y-125594948D01*
X108822180Y-125594950D01*
X108650213Y-125719891D01*
X108499891Y-125870213D01*
X108374950Y-126042180D01*
X108374948Y-126042184D01*
X108278443Y-126231587D01*
X108212752Y-126433761D01*
X108179500Y-126643709D01*
X103141923Y-126643709D01*
X103285977Y-126499655D01*
X103400941Y-126327598D01*
X103480130Y-126136420D01*
X103520500Y-125933465D01*
X103520500Y-125726535D01*
X103480130Y-125523580D01*
X103400941Y-125332402D01*
X103285977Y-125160345D01*
X103139655Y-125014023D01*
X103139651Y-125014020D01*
X102967597Y-124899058D01*
X102776418Y-124819869D01*
X102573467Y-124779500D01*
X102573465Y-124779500D01*
X102366535Y-124779500D01*
X102366532Y-124779500D01*
X102163581Y-124819869D01*
X101972402Y-124899058D01*
X101800348Y-125014020D01*
X101654020Y-125160348D01*
X101539058Y-125332402D01*
X101459869Y-125523581D01*
X101419500Y-125726532D01*
X100200500Y-125726532D01*
X100200500Y-123186532D01*
X101419500Y-123186532D01*
X101419500Y-123393467D01*
X101459869Y-123596418D01*
X101539058Y-123787597D01*
X101631669Y-123926200D01*
X101654023Y-123959655D01*
X101800345Y-124105977D01*
X101972402Y-124220941D01*
X102163580Y-124300130D01*
X102366535Y-124340500D01*
X102366536Y-124340500D01*
X102573464Y-124340500D01*
X102573465Y-124340500D01*
X102776420Y-124300130D01*
X102967598Y-124220941D01*
X103139655Y-124105977D01*
X103285977Y-123959655D01*
X103400941Y-123787598D01*
X103480130Y-123596420D01*
X103520500Y-123393465D01*
X103520500Y-123186535D01*
X103520499Y-123186532D01*
X103959500Y-123186532D01*
X103959500Y-123393467D01*
X103999869Y-123596418D01*
X104079058Y-123787597D01*
X104171669Y-123926200D01*
X104194023Y-123959655D01*
X104340345Y-124105977D01*
X104512402Y-124220941D01*
X104703580Y-124300130D01*
X104906535Y-124340500D01*
X104906536Y-124340500D01*
X105113464Y-124340500D01*
X105113465Y-124340500D01*
X105316420Y-124300130D01*
X105507598Y-124220941D01*
X105679655Y-124105977D01*
X105825977Y-123959655D01*
X105940941Y-123787598D01*
X106020130Y-123596420D01*
X106060500Y-123393465D01*
X106060500Y-123186535D01*
X106020130Y-122983580D01*
X105940941Y-122792402D01*
X105825977Y-122620345D01*
X105679655Y-122474023D01*
X105616091Y-122431551D01*
X105507597Y-122359058D01*
X105316418Y-122279869D01*
X105113467Y-122239500D01*
X105113465Y-122239500D01*
X104906535Y-122239500D01*
X104906532Y-122239500D01*
X104703581Y-122279869D01*
X104512402Y-122359058D01*
X104340348Y-122474020D01*
X104194020Y-122620348D01*
X104079058Y-122792402D01*
X103999869Y-122983581D01*
X103959500Y-123186532D01*
X103520499Y-123186532D01*
X103480130Y-122983580D01*
X103400941Y-122792402D01*
X103285977Y-122620345D01*
X103139655Y-122474023D01*
X103076091Y-122431551D01*
X102967597Y-122359058D01*
X102776418Y-122279869D01*
X102573467Y-122239500D01*
X102573465Y-122239500D01*
X102366535Y-122239500D01*
X102366532Y-122239500D01*
X102163581Y-122279869D01*
X101972402Y-122359058D01*
X101800348Y-122474020D01*
X101654020Y-122620348D01*
X101539058Y-122792402D01*
X101459869Y-122983581D01*
X101419500Y-123186532D01*
X100200500Y-123186532D01*
X100200500Y-120646532D01*
X101419500Y-120646532D01*
X101419500Y-120853467D01*
X101459869Y-121056418D01*
X101539058Y-121247597D01*
X101654020Y-121419651D01*
X101654023Y-121419655D01*
X101800345Y-121565977D01*
X101972402Y-121680941D01*
X102163580Y-121760130D01*
X102366535Y-121800500D01*
X102366536Y-121800500D01*
X102573464Y-121800500D01*
X102573465Y-121800500D01*
X102776420Y-121760130D01*
X102967598Y-121680941D01*
X103139655Y-121565977D01*
X103285977Y-121419655D01*
X103400941Y-121247598D01*
X103480130Y-121056420D01*
X103520500Y-120853465D01*
X103520500Y-120646535D01*
X103520499Y-120646532D01*
X103959500Y-120646532D01*
X103959500Y-120853467D01*
X103999869Y-121056418D01*
X104079058Y-121247597D01*
X104194020Y-121419651D01*
X104194023Y-121419655D01*
X104340345Y-121565977D01*
X104512402Y-121680941D01*
X104703580Y-121760130D01*
X104906535Y-121800500D01*
X104906536Y-121800500D01*
X105113464Y-121800500D01*
X105113465Y-121800500D01*
X105316420Y-121760130D01*
X105507598Y-121680941D01*
X105679655Y-121565977D01*
X105825977Y-121419655D01*
X105940941Y-121247598D01*
X106020130Y-121056420D01*
X106060500Y-120853465D01*
X106060500Y-120646535D01*
X106020130Y-120443580D01*
X105940941Y-120252402D01*
X105825977Y-120080345D01*
X105679655Y-119934023D01*
X105672919Y-119929522D01*
X105507597Y-119819058D01*
X105316418Y-119739869D01*
X105113467Y-119699500D01*
X105113465Y-119699500D01*
X104906535Y-119699500D01*
X104906532Y-119699500D01*
X104703581Y-119739869D01*
X104512402Y-119819058D01*
X104340348Y-119934020D01*
X104194020Y-120080348D01*
X104079058Y-120252402D01*
X103999869Y-120443581D01*
X103959500Y-120646532D01*
X103520499Y-120646532D01*
X103480130Y-120443580D01*
X103400941Y-120252402D01*
X103285977Y-120080345D01*
X103139655Y-119934023D01*
X103132919Y-119929522D01*
X102967597Y-119819058D01*
X102776418Y-119739869D01*
X102573467Y-119699500D01*
X102573465Y-119699500D01*
X102366535Y-119699500D01*
X102366532Y-119699500D01*
X102163581Y-119739869D01*
X101972402Y-119819058D01*
X101800348Y-119934020D01*
X101654020Y-120080348D01*
X101539058Y-120252402D01*
X101459869Y-120443581D01*
X101419500Y-120646532D01*
X100200500Y-120646532D01*
X100200500Y-115566532D01*
X101419500Y-115566532D01*
X101419500Y-115773467D01*
X101459869Y-115976418D01*
X101539058Y-116167597D01*
X101645839Y-116327407D01*
X101654023Y-116339655D01*
X101800345Y-116485977D01*
X101972402Y-116600941D01*
X102163580Y-116680130D01*
X102366535Y-116720500D01*
X102366536Y-116720500D01*
X102573464Y-116720500D01*
X102573465Y-116720500D01*
X102776420Y-116680130D01*
X102967598Y-116600941D01*
X103139655Y-116485977D01*
X103285977Y-116339655D01*
X103400941Y-116167598D01*
X103480130Y-115976420D01*
X103520500Y-115773465D01*
X103520500Y-115566535D01*
X103480130Y-115363580D01*
X103400941Y-115172402D01*
X103285977Y-115000345D01*
X103139655Y-114854023D01*
X103139651Y-114854020D01*
X102967597Y-114739058D01*
X102776418Y-114659869D01*
X102573467Y-114619500D01*
X102573465Y-114619500D01*
X102366535Y-114619500D01*
X102366532Y-114619500D01*
X102163581Y-114659869D01*
X101972402Y-114739058D01*
X101800348Y-114854020D01*
X101654020Y-115000348D01*
X101539058Y-115172402D01*
X101459869Y-115363581D01*
X101419500Y-115566532D01*
X100200500Y-115566532D01*
X100200500Y-105406532D01*
X101419500Y-105406532D01*
X101419500Y-105613467D01*
X101459869Y-105816418D01*
X101539058Y-106007597D01*
X101651486Y-106175858D01*
X101654023Y-106179655D01*
X101800345Y-106325977D01*
X101972402Y-106440941D01*
X102163580Y-106520130D01*
X102366535Y-106560500D01*
X102366536Y-106560500D01*
X102573464Y-106560500D01*
X102573465Y-106560500D01*
X102776420Y-106520130D01*
X102967598Y-106440941D01*
X103139655Y-106325977D01*
X103285977Y-106179655D01*
X103400941Y-106007598D01*
X103480130Y-105816420D01*
X103520500Y-105613465D01*
X103520500Y-105406535D01*
X103480130Y-105203580D01*
X103400941Y-105012402D01*
X103285977Y-104840345D01*
X103139655Y-104694023D01*
X103139651Y-104694020D01*
X102967597Y-104579058D01*
X102776418Y-104499869D01*
X102573467Y-104459500D01*
X102573465Y-104459500D01*
X102366535Y-104459500D01*
X102366532Y-104459500D01*
X102163581Y-104499869D01*
X101972402Y-104579058D01*
X101800348Y-104694020D01*
X101654020Y-104840348D01*
X101539058Y-105012402D01*
X101459869Y-105203581D01*
X101419500Y-105406532D01*
X100200500Y-105406532D01*
X100200500Y-100507789D01*
X100201719Y-100492304D01*
X100206816Y-100460118D01*
X100212706Y-100422933D01*
X100222274Y-100393481D01*
X100250581Y-100337927D01*
X100268782Y-100312874D01*
X100312874Y-100268782D01*
X100337927Y-100250581D01*
X100393481Y-100222274D01*
X100422934Y-100212705D01*
X100473018Y-100204773D01*
X100492304Y-100201719D01*
X100507789Y-100200500D01*
X100539881Y-100200500D01*
X132650118Y-100200500D01*
X132682209Y-100200500D01*
X132697696Y-100201719D01*
G37*
%TD.AperFunction*%
%TA.AperFunction,Conductor*%
G36*
X112849040Y-124309830D02*
G01*
X112884011Y-124330021D01*
X112960435Y-124350499D01*
X112960437Y-124350500D01*
X112960438Y-124350500D01*
X112995500Y-124350500D01*
X113053691Y-124369407D01*
X113089655Y-124418907D01*
X113094500Y-124449500D01*
X113094500Y-124454274D01*
X113097353Y-124484694D01*
X113097355Y-124484703D01*
X113142207Y-124612883D01*
X113222845Y-124722144D01*
X113222847Y-124722146D01*
X113222850Y-124722150D01*
X113222853Y-124722152D01*
X113222855Y-124722154D01*
X113332116Y-124802792D01*
X113332117Y-124802792D01*
X113332118Y-124802793D01*
X113335958Y-124804136D01*
X113338299Y-124804956D01*
X113386979Y-124842021D01*
X113404576Y-124900622D01*
X113384368Y-124958374D01*
X113334073Y-124993217D01*
X113305601Y-124997400D01*
X112557190Y-124997400D01*
X112498999Y-124978493D01*
X112487186Y-124968404D01*
X112037801Y-124519019D01*
X112010024Y-124464502D01*
X112019595Y-124404070D01*
X112062860Y-124360805D01*
X112123292Y-124351234D01*
X112135507Y-124353970D01*
X112135510Y-124353970D01*
X112135513Y-124353972D01*
X112185099Y-124360500D01*
X112604900Y-124360499D01*
X112654487Y-124353972D01*
X112654488Y-124353972D01*
X112757701Y-124305843D01*
X112818430Y-124298386D01*
X112849040Y-124309830D01*
G37*
%TD.AperFunction*%
%TA.AperFunction,Conductor*%
G36*
X109913938Y-117362418D02*
G01*
X109957203Y-117405683D01*
X109966774Y-117466115D01*
X109954730Y-117500127D01*
X109918309Y-117563210D01*
X109918308Y-117563214D01*
X109884200Y-117690508D01*
X109884200Y-117822292D01*
X109899380Y-117878944D01*
X109918309Y-117949590D01*
X109984196Y-118063709D01*
X109984198Y-118063711D01*
X109984200Y-118063714D01*
X110077386Y-118156900D01*
X110077388Y-118156901D01*
X110077390Y-118156903D01*
X110191510Y-118222790D01*
X110191508Y-118222790D01*
X110191512Y-118222791D01*
X110191514Y-118222792D01*
X110318808Y-118256900D01*
X110318810Y-118256900D01*
X110450590Y-118256900D01*
X110450592Y-118256900D01*
X110555192Y-118228872D01*
X110580814Y-118225500D01*
X110633100Y-118225500D01*
X111544153Y-118225500D01*
X111599154Y-118242184D01*
X111662505Y-118284515D01*
X111742867Y-118300500D01*
X113093311Y-118300499D01*
X113151502Y-118319406D01*
X113187466Y-118368906D01*
X113187466Y-118430092D01*
X113163316Y-118469501D01*
X113146231Y-118486586D01*
X113146228Y-118486590D01*
X113121192Y-118529953D01*
X113105460Y-118550456D01*
X113085412Y-118570504D01*
X113030895Y-118598281D01*
X113015408Y-118599500D01*
X111742870Y-118599500D01*
X111742863Y-118599501D01*
X111662505Y-118615484D01*
X111662503Y-118615485D01*
X111571379Y-118676373D01*
X111571373Y-118676379D01*
X111510486Y-118767501D01*
X111510486Y-118767503D01*
X111510485Y-118767505D01*
X111497210Y-118834242D01*
X111494500Y-118847867D01*
X111494500Y-119052129D01*
X111494501Y-119052137D01*
X111510484Y-119132494D01*
X111510485Y-119132496D01*
X111568563Y-119219414D01*
X111571376Y-119223624D01*
X111662505Y-119284515D01*
X111742867Y-119300500D01*
X112246309Y-119300499D01*
X112304500Y-119319406D01*
X112316313Y-119329495D01*
X112638004Y-119651186D01*
X112665781Y-119705703D01*
X112667000Y-119721190D01*
X112667000Y-120176310D01*
X112648093Y-120234501D01*
X112638003Y-120246314D01*
X112313812Y-120570504D01*
X112259296Y-120598281D01*
X112243810Y-120599500D01*
X112090104Y-120599500D01*
X112090092Y-120599501D01*
X112040513Y-120606027D01*
X112040511Y-120606027D01*
X111931686Y-120656774D01*
X111846774Y-120741686D01*
X111796029Y-120850510D01*
X111796028Y-120850511D01*
X111789500Y-120900100D01*
X111789500Y-121259895D01*
X111789501Y-121259907D01*
X111796027Y-121309486D01*
X111796027Y-121309488D01*
X111846774Y-121418313D01*
X111846775Y-121418314D01*
X111846776Y-121418316D01*
X111898864Y-121470404D01*
X111926640Y-121524919D01*
X111917069Y-121585351D01*
X111914596Y-121589905D01*
X111884109Y-121642710D01*
X111884108Y-121642714D01*
X111850000Y-121770008D01*
X111850000Y-121901792D01*
X111880079Y-122014051D01*
X111884109Y-122029090D01*
X111949996Y-122143209D01*
X111949998Y-122143211D01*
X111950000Y-122143214D01*
X112043186Y-122236400D01*
X112043188Y-122236401D01*
X112043190Y-122236403D01*
X112157310Y-122302290D01*
X112157308Y-122302290D01*
X112157312Y-122302291D01*
X112157314Y-122302292D01*
X112284608Y-122336400D01*
X112284610Y-122336400D01*
X112416390Y-122336400D01*
X112416392Y-122336400D01*
X112543686Y-122302292D01*
X112550999Y-122298070D01*
X112610848Y-122285348D01*
X112666743Y-122310234D01*
X112697336Y-122363222D01*
X112699500Y-122383806D01*
X112699500Y-123300500D01*
X112680593Y-123358691D01*
X112631093Y-123394655D01*
X112600500Y-123399500D01*
X112185103Y-123399500D01*
X112185092Y-123399501D01*
X112135513Y-123406027D01*
X112135511Y-123406027D01*
X112026686Y-123456774D01*
X111941774Y-123541686D01*
X111891029Y-123650510D01*
X111891028Y-123650511D01*
X111884500Y-123700100D01*
X111884500Y-124059895D01*
X111884501Y-124059907D01*
X111891027Y-124109486D01*
X111891031Y-124109499D01*
X111891030Y-124109511D01*
X111892016Y-124116998D01*
X111890796Y-124117158D01*
X111889156Y-124170656D01*
X111851693Y-124219031D01*
X111792950Y-124236147D01*
X111735366Y-124215465D01*
X111725979Y-124207197D01*
X109971629Y-122452847D01*
X109943852Y-122398330D01*
X109953423Y-122337898D01*
X109971626Y-122312842D01*
X110044065Y-122240404D01*
X110094068Y-122133173D01*
X110100500Y-122084316D01*
X110100500Y-121926189D01*
X110119407Y-121867998D01*
X110129490Y-121856191D01*
X110610470Y-121375212D01*
X110648416Y-121309488D01*
X110656613Y-121295291D01*
X110656634Y-121295212D01*
X110669392Y-121247598D01*
X110680500Y-121206144D01*
X110680500Y-119912047D01*
X110699407Y-119853856D01*
X110709490Y-119842049D01*
X110783224Y-119768316D01*
X110833972Y-119659487D01*
X110840500Y-119609901D01*
X110840499Y-119250100D01*
X110833972Y-119200513D01*
X110833972Y-119200511D01*
X110783225Y-119091686D01*
X110783224Y-119091685D01*
X110783224Y-119091684D01*
X110698316Y-119006776D01*
X110698314Y-119006775D01*
X110698313Y-119006774D01*
X110589489Y-118956029D01*
X110589488Y-118956028D01*
X110553201Y-118951251D01*
X110539901Y-118949500D01*
X110539900Y-118949500D01*
X110386190Y-118949500D01*
X110327999Y-118930593D01*
X110316187Y-118920504D01*
X110249814Y-118854132D01*
X110249812Y-118854130D01*
X110169888Y-118807986D01*
X110169885Y-118807985D01*
X110161055Y-118805619D01*
X110161055Y-118805618D01*
X110090432Y-118786696D01*
X110080744Y-118784100D01*
X110080743Y-118784100D01*
X108804090Y-118784100D01*
X108745899Y-118765193D01*
X108734086Y-118755104D01*
X108520798Y-118541816D01*
X108493021Y-118487299D01*
X108502592Y-118426867D01*
X108545857Y-118383602D01*
X108603725Y-118373659D01*
X108606825Y-118374067D01*
X108606827Y-118374068D01*
X108655684Y-118380500D01*
X108655685Y-118380500D01*
X109104314Y-118380500D01*
X109104316Y-118380500D01*
X109153173Y-118374068D01*
X109260404Y-118324065D01*
X109344065Y-118240404D01*
X109394068Y-118133173D01*
X109400500Y-118084316D01*
X109400500Y-117820122D01*
X109419407Y-117761931D01*
X109429496Y-117750119D01*
X109600019Y-117579596D01*
X109798989Y-117380624D01*
X109853506Y-117352847D01*
X109913938Y-117362418D01*
G37*
%TD.AperFunction*%
%TA.AperFunction,Conductor*%
G36*
X108306486Y-116236678D02*
G01*
X108311764Y-116238863D01*
X108311769Y-116238867D01*
X108356231Y-116247711D01*
X108370241Y-116250498D01*
X108370246Y-116250498D01*
X108370252Y-116250500D01*
X109778800Y-116250500D01*
X109836991Y-116269407D01*
X109872955Y-116318907D01*
X109877800Y-116349500D01*
X109877800Y-116486909D01*
X109858893Y-116545100D01*
X109833803Y-116569224D01*
X109825843Y-116574542D01*
X108989881Y-117410504D01*
X108935364Y-117438281D01*
X108919877Y-117439500D01*
X108655684Y-117439500D01*
X108653436Y-117439796D01*
X108606825Y-117445932D01*
X108606824Y-117445932D01*
X108499598Y-117495933D01*
X108415933Y-117579598D01*
X108365932Y-117686824D01*
X108363813Y-117694098D01*
X108360739Y-117693202D01*
X108340411Y-117735820D01*
X108286640Y-117765014D01*
X108225979Y-117757028D01*
X108181597Y-117714910D01*
X108169600Y-117667672D01*
X108169600Y-116328142D01*
X108188507Y-116269951D01*
X108238007Y-116233987D01*
X108299193Y-116233987D01*
X108306486Y-116236678D01*
G37*
%TD.AperFunction*%
%TA.AperFunction,Conductor*%
G36*
X114347052Y-111191777D02*
G01*
X114349854Y-111194471D01*
X114465503Y-111310119D01*
X114493281Y-111364636D01*
X114494500Y-111380123D01*
X114494500Y-112727129D01*
X114494501Y-112727138D01*
X114510284Y-112806488D01*
X114503091Y-112867249D01*
X114461558Y-112912178D01*
X114413186Y-112924800D01*
X114276813Y-112924800D01*
X114218622Y-112905893D01*
X114182658Y-112856393D01*
X114179715Y-112806488D01*
X114195500Y-112727133D01*
X114195499Y-111347868D01*
X114182753Y-111283786D01*
X114189945Y-111223028D01*
X114231478Y-111178098D01*
X114291487Y-111166161D01*
X114347052Y-111191777D01*
G37*
%TD.AperFunction*%
%TA.AperFunction,Conductor*%
G36*
X112405215Y-109990407D02*
G01*
X112417028Y-110000496D01*
X112417934Y-110001402D01*
X112417935Y-110001404D01*
X112455006Y-110038475D01*
X112482782Y-110092990D01*
X112473211Y-110153422D01*
X112455005Y-110178480D01*
X112377600Y-110255885D01*
X112377596Y-110255890D01*
X112311709Y-110370009D01*
X112292639Y-110441178D01*
X112277600Y-110497308D01*
X112277600Y-110629092D01*
X112298190Y-110705935D01*
X112311709Y-110756390D01*
X112377596Y-110870509D01*
X112377598Y-110870511D01*
X112377600Y-110870514D01*
X112470786Y-110963700D01*
X112470788Y-110963701D01*
X112470790Y-110963703D01*
X112584910Y-111029590D01*
X112584908Y-111029590D01*
X112584912Y-111029591D01*
X112584914Y-111029592D01*
X112712208Y-111063700D01*
X112712210Y-111063700D01*
X112843990Y-111063700D01*
X112843992Y-111063700D01*
X112971286Y-111029592D01*
X112971288Y-111029590D01*
X112971290Y-111029590D01*
X113085409Y-110963703D01*
X113085409Y-110963702D01*
X113085414Y-110963700D01*
X113178600Y-110870514D01*
X113178601Y-110870511D01*
X113181417Y-110867696D01*
X113235934Y-110839919D01*
X113251421Y-110838700D01*
X113953077Y-110838700D01*
X114011268Y-110857607D01*
X114023081Y-110867696D01*
X114100529Y-110945144D01*
X114128306Y-110999661D01*
X114118735Y-111060093D01*
X114075470Y-111103358D01*
X114015038Y-111112929D01*
X114011211Y-111112246D01*
X114000060Y-111110028D01*
X113947133Y-111099500D01*
X113742870Y-111099500D01*
X113742862Y-111099501D01*
X113662505Y-111115484D01*
X113662503Y-111115485D01*
X113571379Y-111176373D01*
X113571373Y-111176379D01*
X113510486Y-111267501D01*
X113510486Y-111267503D01*
X113510485Y-111267505D01*
X113498469Y-111327911D01*
X113494500Y-111347866D01*
X113494500Y-111451500D01*
X113475593Y-111509691D01*
X113426093Y-111545655D01*
X113395500Y-111550500D01*
X112512048Y-111550500D01*
X112453857Y-111531593D01*
X112442045Y-111521504D01*
X112398316Y-111477776D01*
X112398313Y-111477774D01*
X112289489Y-111427029D01*
X112289488Y-111427028D01*
X112264694Y-111423764D01*
X112239901Y-111420500D01*
X112239900Y-111420500D01*
X112086190Y-111420500D01*
X112027999Y-111401593D01*
X112016186Y-111391504D01*
X111789896Y-111165214D01*
X111762119Y-111110697D01*
X111760900Y-111095210D01*
X111760900Y-110749258D01*
X111760900Y-110749256D01*
X111760209Y-110746677D01*
X111760209Y-110744006D01*
X111760053Y-110742822D01*
X111760209Y-110742801D01*
X111760209Y-110699298D01*
X111760053Y-110699278D01*
X111760209Y-110698093D01*
X111760209Y-110695422D01*
X111760900Y-110692844D01*
X111760900Y-110476119D01*
X111779807Y-110417928D01*
X111829307Y-110381964D01*
X111845615Y-110378156D01*
X111897170Y-110370645D01*
X112001511Y-110319636D01*
X112083636Y-110237511D01*
X112134645Y-110133170D01*
X112144500Y-110065528D01*
X112144500Y-110065521D01*
X112144658Y-110063347D01*
X112144906Y-110062737D01*
X112145016Y-110061983D01*
X112145202Y-110062010D01*
X112167720Y-110006674D01*
X112219690Y-109974381D01*
X112243399Y-109971500D01*
X112347024Y-109971500D01*
X112405215Y-109990407D01*
G37*
%TD.AperFunction*%
%TA.AperFunction,Conductor*%
G36*
X113917595Y-106314207D02*
G01*
X113953559Y-106363707D01*
X113955031Y-106419923D01*
X113919500Y-106552525D01*
X113919500Y-106697475D01*
X113930331Y-106737897D01*
X113957017Y-106837489D01*
X114029487Y-106963010D01*
X114029489Y-106963012D01*
X114029491Y-106963015D01*
X114131985Y-107065509D01*
X114131987Y-107065510D01*
X114131989Y-107065512D01*
X114257511Y-107137982D01*
X114257512Y-107137982D01*
X114257515Y-107137984D01*
X114397525Y-107175500D01*
X114397526Y-107175500D01*
X114542474Y-107175500D01*
X114542475Y-107175500D01*
X114682485Y-107137984D01*
X114682487Y-107137982D01*
X114682489Y-107137982D01*
X114808010Y-107065512D01*
X114808010Y-107065511D01*
X114808015Y-107065509D01*
X114824998Y-107048525D01*
X114879513Y-107020750D01*
X114939945Y-107030321D01*
X114965000Y-107048524D01*
X114981985Y-107065509D01*
X114981987Y-107065510D01*
X114981989Y-107065512D01*
X115107511Y-107137982D01*
X115107512Y-107137982D01*
X115107515Y-107137984D01*
X115247525Y-107175500D01*
X115247526Y-107175500D01*
X115392474Y-107175500D01*
X115392475Y-107175500D01*
X115532485Y-107137984D01*
X115532487Y-107137982D01*
X115532489Y-107137982D01*
X115658010Y-107065512D01*
X115658010Y-107065511D01*
X115658015Y-107065509D01*
X115674998Y-107048525D01*
X115729513Y-107020750D01*
X115789945Y-107030321D01*
X115815000Y-107048524D01*
X115831985Y-107065509D01*
X115831987Y-107065510D01*
X115831989Y-107065512D01*
X115957511Y-107137982D01*
X115957512Y-107137982D01*
X115957515Y-107137984D01*
X116097525Y-107175500D01*
X116097526Y-107175500D01*
X116158000Y-107175500D01*
X116216191Y-107194407D01*
X116252155Y-107243907D01*
X116257000Y-107274500D01*
X116257000Y-107988359D01*
X116238093Y-108046550D01*
X116228004Y-108058362D01*
X116191790Y-108094576D01*
X116147353Y-108195216D01*
X116144500Y-108219808D01*
X116144500Y-108219814D01*
X116144500Y-108219815D01*
X116144500Y-108406387D01*
X116144501Y-108505400D01*
X116125594Y-108563590D01*
X116076094Y-108599554D01*
X116045501Y-108604400D01*
X115944499Y-108604400D01*
X115886308Y-108585493D01*
X115850344Y-108535993D01*
X115845499Y-108505400D01*
X115845499Y-108219819D01*
X115845499Y-108219816D01*
X115842646Y-108195214D01*
X115798211Y-108094578D01*
X115720422Y-108016789D01*
X115619786Y-107972354D01*
X115619785Y-107972353D01*
X115619783Y-107972353D01*
X115595188Y-107969500D01*
X115319819Y-107969500D01*
X115319816Y-107969501D01*
X115295214Y-107972354D01*
X115194578Y-108016789D01*
X115116789Y-108094578D01*
X115072353Y-108195216D01*
X115069500Y-108219808D01*
X115069500Y-108536476D01*
X115050593Y-108594667D01*
X115040504Y-108606479D01*
X114908052Y-108738932D01*
X114657796Y-108989189D01*
X114546782Y-109100203D01*
X114492265Y-109127981D01*
X114476778Y-109129200D01*
X114475899Y-109129200D01*
X114466338Y-109131102D01*
X114466045Y-109129633D01*
X114445103Y-109133800D01*
X114314676Y-109133800D01*
X114256485Y-109114893D01*
X114220521Y-109065393D01*
X114220521Y-109004207D01*
X114244670Y-108964798D01*
X114298065Y-108911404D01*
X114348068Y-108804173D01*
X114354500Y-108755316D01*
X114354500Y-108306684D01*
X114348068Y-108257827D01*
X114344147Y-108249419D01*
X114298066Y-108150598D01*
X114298065Y-108150597D01*
X114298065Y-108150596D01*
X114214404Y-108066935D01*
X114214402Y-108066934D01*
X114214401Y-108066933D01*
X114107175Y-108016932D01*
X114074601Y-108012644D01*
X114058316Y-108010500D01*
X113709684Y-108010500D01*
X113693398Y-108012644D01*
X113660825Y-108016932D01*
X113660824Y-108016932D01*
X113553598Y-108066933D01*
X113469933Y-108150598D01*
X113419932Y-108257824D01*
X113419932Y-108257825D01*
X113413500Y-108306685D01*
X113413500Y-108570877D01*
X113394593Y-108629068D01*
X113384504Y-108640881D01*
X113258281Y-108767104D01*
X113203764Y-108794881D01*
X113188277Y-108796100D01*
X112741324Y-108796100D01*
X112683133Y-108777193D01*
X112671320Y-108767104D01*
X112540626Y-108636410D01*
X112512849Y-108581893D01*
X112522420Y-108521461D01*
X112540623Y-108496405D01*
X112605920Y-108431109D01*
X112645000Y-108336761D01*
X112645000Y-108319423D01*
X112663907Y-108261232D01*
X112673996Y-108249419D01*
X112906626Y-108016789D01*
X113172858Y-107750558D01*
X113207137Y-107667800D01*
X113214800Y-107649301D01*
X113214800Y-106639123D01*
X113233707Y-106580932D01*
X113243796Y-106569119D01*
X113488619Y-106324296D01*
X113543136Y-106296519D01*
X113558623Y-106295300D01*
X113859404Y-106295300D01*
X113917595Y-106314207D01*
G37*
%TD.AperFunction*%
%TD*%
M02*
