M48
; DRILL file KiCad 10.0.6 date 2026-10-01T22:49:06
; FORMAT={-:-/ absolute / metric / decimal}
; #@! TF.CreationDate,2026-10-01T22:49:06+00:00
; #@! TF.GenerationSoftware,Kicad,Pcbnew,10.0.6
; #@! TF.FileFunction,Plated,1,2,PTH
FMAT,2
METRIC
; #@! TA.AperFunction,Plated,PTH,ViaDrill
T1C0.300
; #@! TA.AperFunction,Plated,PTH,ComponentDrill
T2C0.400
; #@! TA.AperFunction,Plated,PTH,ComponentDrill
T3C0.600
; #@! TA.AperFunction,Plated,PTH,ComponentDrill
T4C1.000
%
G90
G05
T1
X100.775Y-100.775
X100.775Y-127.445
X102.045Y-100.775
X103.315Y-100.775
X103.315Y-127.445
X104.585Y-100.775
X104.585Y-127.445
X105.855Y-100.775
X105.855Y-127.445
X107.125Y-100.775
X107.125Y-127.445
X108.431Y-119.716
X109.351Y-106.011
X109.665Y-124.905
X110.385Y-117.756
X110.495Y-113.388
X110.66Y-116.598
X110.895Y-114.698
X110.935Y-100.775
X110.935Y-103.315
X111.0Y-122.832
X111.84Y-112.86
X112.205Y-100.775
X112.205Y-107.125
X112.35Y-121.836
X112.778Y-110.563
X112.885Y-111.298
X113.475Y-100.775
X113.475Y-103.315
X113.604Y-117.434
X113.612Y-116.45
X113.615Y-115.678
X113.619Y-113.221
X113.783Y-119.191
X114.154Y-113.733
X114.376Y-125.502
X114.745Y-100.775
X114.745Y-103.315
X114.745Y-122.365
X114.781Y-126.175
X114.836Y-119.187
X115.443Y-109.417
X115.82Y-113.989
X115.921Y-119.126
X116.015Y-100.775
X116.015Y-103.315
X116.441Y-110.81
X116.845Y-119.191
X117.285Y-100.775
X117.285Y-103.315
X117.345Y-113.23
X117.845Y-119.189
X118.295Y-110.867
X118.345Y-113.209
X118.555Y-100.775
X118.555Y-103.315
X118.996Y-115.808
X119.186Y-124.427
X119.244Y-114.223
X119.416Y-119.115
X119.515Y-118.282
X119.573Y-116.594
X119.575Y-114.95
X119.579Y-117.45
X119.615Y-123.8
X119.825Y-100.775
X119.825Y-103.315
X119.953Y-119.712
X120.123Y-112.464
X120.188Y-110.889
X121.095Y-100.775
X121.095Y-124.905
X121.163Y-108.068
X121.539Y-121.424
X121.939Y-115.305
X121.939Y-117.256
X122.064Y-120.362
X122.365Y-100.775
X122.365Y-103.315
X122.365Y-123.635
X122.844Y-118.95
X123.214Y-106.087
X123.596Y-114.488
X124.855Y-116.369
X124.905Y-100.775
X124.905Y-103.315
X124.905Y-121.095
X125.261Y-105.661
X125.338Y-119.413
X126.175Y-100.775
X126.175Y-127.445
X126.455Y-118.614
X127.123Y-119.159
X127.445Y-100.775
X127.445Y-127.445
X128.715Y-100.775
X128.715Y-127.445
X129.985Y-100.775
X131.255Y-100.775
T2
X113.62Y-105.275
X113.62Y-106.625
X114.47Y-105.275
X114.47Y-106.625
X115.32Y-105.275
X115.32Y-106.625
X116.17Y-105.275
X116.17Y-106.625
X117.02Y-105.275
X117.02Y-106.625
X117.87Y-105.275
X117.87Y-106.625
X118.72Y-105.275
X118.72Y-106.625
X119.57Y-105.275
X119.57Y-106.625
T4
X102.47Y-102.97
X102.47Y-105.51
X102.47Y-108.05
X102.47Y-110.59
X102.47Y-113.13
X102.47Y-115.67
X102.47Y-118.21
X102.47Y-120.75
X102.47Y-123.29
X102.47Y-125.83
X105.01Y-102.97
X105.01Y-105.51
X105.01Y-108.05
X105.01Y-110.59
X105.01Y-113.13
X105.01Y-115.67
X105.01Y-118.21
X105.01Y-120.75
X105.01Y-123.29
X105.01Y-125.83
X128.18Y-102.97
X128.18Y-105.51
X128.18Y-108.05
X128.18Y-110.59
X128.18Y-113.13
X128.18Y-115.67
X128.18Y-118.21
X128.18Y-120.75
X128.18Y-123.29
X128.18Y-125.83
X130.72Y-102.97
X130.72Y-105.51
X130.72Y-108.05
X130.72Y-110.59
X130.72Y-113.13
X130.72Y-115.67
X130.72Y-118.21
X130.72Y-120.75
X130.72Y-123.29
X130.72Y-125.83
T3
X112.27Y-102.665G85X112.27Y-101.865
G05
X112.27Y-106.395G85X112.27Y-104.895
G05
X120.92Y-102.665G85X120.92Y-101.865
G05
X120.92Y-106.395G85X120.92Y-104.895
G05
M30
