M48
; DRILL file KiCad 10.0.6 date 2026-10-01T23:58:14
; FORMAT={-:-/ absolute / metric / decimal}
; #@! TF.CreationDate,2026-10-01T23:58:14+00:00
; #@! TF.GenerationSoftware,Kicad,Pcbnew,10.0.6
; #@! TF.FileFunction,Plated,1,2,PTH
FMAT,2
METRIC
; #@! TA.AperFunction,Plated,PTH,ViaDrill
T1C0.300
; #@! TA.AperFunction,Plated,PTH,ComponentDrill
T2C0.360
; #@! TA.AperFunction,Plated,PTH,ComponentDrill
T3C0.600
; #@! TA.AperFunction,Plated,PTH,ComponentDrill
T4C1.000
%
G90
G05
T1
X106.074Y-117.981
X107.773Y-118.348
X108.395Y-100.775
X108.395Y-122.365
X108.522Y-118.077
X108.867Y-104.417
X109.348Y-114.703
X109.814Y-107.958
X110.428Y-104.397
X110.428Y-109.365
X110.472Y-114.71
X110.867Y-111.823
X111.337Y-117.181
X111.452Y-118.873
X111.48Y-113.45
X111.489Y-105.974
X111.647Y-114.95
X111.649Y-114.213
X112.205Y-100.775
X112.205Y-103.315
X112.205Y-122.365
X112.418Y-112.85
X113.475Y-100.775
X113.475Y-103.315
X114.006Y-117.498
X114.014Y-115.095
X114.015Y-113.95
X114.034Y-119.178
X114.061Y-116.259
X114.516Y-110.495
X114.745Y-100.775
X114.745Y-103.315
X114.745Y-122.365
X114.885Y-114.03
X115.107Y-108.444
X115.448Y-113.235
X115.497Y-119.192
X115.515Y-118.457
X115.864Y-117.054
X116.015Y-100.775
X116.015Y-103.315
X116.388Y-114.238
X116.393Y-109.412
X116.764Y-119.185
X117.059Y-117.057
X117.083Y-113.497
X117.285Y-100.775
X117.285Y-103.315
X117.64Y-115.149
X117.728Y-124.51
X117.937Y-108.374
X118.495Y-119.173
X118.555Y-100.775
X118.555Y-122.365
X118.852Y-110.547
X118.989Y-117.34
X119.115Y-114.215
X119.248Y-115.946
X119.555Y-107.997
X119.745Y-113.223
X119.825Y-100.775
X119.825Y-103.315
X119.97Y-119.183
X119.978Y-118.45
X119.982Y-117.649
X119.987Y-115.952
X120.158Y-110.666
X120.344Y-111.439
X120.479Y-120.154
X120.57Y-121.094
X122.127Y-123.569
X122.25Y-122.312
X122.327Y-113.641
X122.343Y-119.184
X122.365Y-100.775
X123.193Y-116.604
X124.203Y-104.56
X124.36Y-114.492
X124.665Y-107.688
X125.706Y-113.911
X125.942Y-115.433
X126.305Y-120.0
X126.565Y-116.811
X126.944Y-113.933
X127.266Y-114.975
X130.648Y-115.171
T2
X114.02Y-105.275
X114.02Y-106.625
X114.87Y-105.275
X114.87Y-106.625
X115.72Y-105.275
X115.72Y-106.625
X116.57Y-105.275
X116.57Y-106.625
X117.42Y-105.275
X117.42Y-106.625
X118.27Y-105.275
X118.27Y-106.625
X119.12Y-105.275
X119.12Y-106.625
X119.97Y-105.275
X119.97Y-106.625
T4
X102.67Y-101.32
X102.67Y-103.86
X102.67Y-106.4
X102.67Y-108.94
X102.67Y-111.48
X102.67Y-114.02
X102.67Y-116.56
X102.67Y-119.1
X102.67Y-121.64
X102.67Y-124.18
X105.21Y-101.32
X105.21Y-103.86
X105.21Y-106.4
X105.21Y-108.94
X105.21Y-111.48
X105.21Y-114.02
X105.21Y-116.56
X105.21Y-119.1
X105.21Y-121.64
X105.21Y-124.18
X128.78Y-101.32
X128.78Y-103.86
X128.78Y-106.4
X128.78Y-108.94
X128.78Y-111.48
X128.78Y-114.02
X128.78Y-116.56
X128.78Y-119.1
X128.78Y-121.64
X128.78Y-124.18
X131.32Y-101.32
X131.32Y-103.86
X131.32Y-106.4
X131.32Y-108.94
X131.32Y-111.48
X131.32Y-114.02
X131.32Y-116.56
X131.32Y-119.1
X131.32Y-121.64
X131.32Y-124.18
T3
X112.67Y-102.665G85X112.67Y-101.865
G05
X112.67Y-106.395G85X112.67Y-104.895
G05
X121.32Y-102.665G85X121.32Y-101.865
G05
X121.32Y-106.395G85X121.32Y-104.895
G05
M30
