%TF.GenerationSoftware,KiCad,Pcbnew,10.0.6*%
%TF.CreationDate,2026-10-02T21:18:17+00:00*%
%TF.ProjectId,nicklink,6e69636b-6c69-46e6-9b2e-6b696361645f,rev?*%
%TF.SameCoordinates,Original*%
%TF.FileFunction,Soldermask,Bot*%
%TF.FilePolarity,Negative*%
%FSLAX46Y46*%
G04 Gerber Fmt 4.6, Leading zero omitted, Abs format (unit mm)*
G04 Created by KiCad (PCBNEW 10.0.6) date 2026-10-02 21:18:17*
%MOMM*%
%LPD*%
G01*
G04 APERTURE LIST*
G04 APERTURE END LIST*
G36*
X102916742Y-123366601D02*
G01*
X103070687Y-123430367D01*
X103209234Y-123522941D01*
X103327059Y-123640766D01*
X103419633Y-123779313D01*
X103483399Y-123933258D01*
X103515907Y-124096685D01*
X103515907Y-124263315D01*
X103483399Y-124426742D01*
X103419633Y-124580687D01*
X103327059Y-124719234D01*
X103209234Y-124837059D01*
X103070687Y-124929633D01*
X102916742Y-124993399D01*
X102753315Y-125025907D01*
X102586685Y-125025907D01*
X102423258Y-124993399D01*
X102269313Y-124929633D01*
X102130766Y-124837059D01*
X102012941Y-124719234D01*
X101920367Y-124580687D01*
X101856601Y-124426742D01*
X101824093Y-124263315D01*
X101824093Y-124096685D01*
X101856601Y-123933258D01*
X101920367Y-123779313D01*
X102012941Y-123640766D01*
X102130766Y-123522941D01*
X102269313Y-123430367D01*
X102423258Y-123366601D01*
X102586685Y-123334093D01*
X102753315Y-123334093D01*
X102916742Y-123366601D01*
G37*
G36*
X105456742Y-123366601D02*
G01*
X105610687Y-123430367D01*
X105749234Y-123522941D01*
X105867059Y-123640766D01*
X105959633Y-123779313D01*
X106023399Y-123933258D01*
X106055907Y-124096685D01*
X106055907Y-124263315D01*
X106023399Y-124426742D01*
X105959633Y-124580687D01*
X105867059Y-124719234D01*
X105749234Y-124837059D01*
X105610687Y-124929633D01*
X105456742Y-124993399D01*
X105293315Y-125025907D01*
X105126685Y-125025907D01*
X104963258Y-124993399D01*
X104809313Y-124929633D01*
X104670766Y-124837059D01*
X104552941Y-124719234D01*
X104460367Y-124580687D01*
X104396601Y-124426742D01*
X104364093Y-124263315D01*
X104364093Y-124096685D01*
X104396601Y-123933258D01*
X104460367Y-123779313D01*
X104552941Y-123640766D01*
X104670766Y-123522941D01*
X104809313Y-123430367D01*
X104963258Y-123366601D01*
X105126685Y-123334093D01*
X105293315Y-123334093D01*
X105456742Y-123366601D01*
G37*
G36*
X129026742Y-123366601D02*
G01*
X129180687Y-123430367D01*
X129319234Y-123522941D01*
X129437059Y-123640766D01*
X129529633Y-123779313D01*
X129593399Y-123933258D01*
X129625907Y-124096685D01*
X129625907Y-124263315D01*
X129593399Y-124426742D01*
X129529633Y-124580687D01*
X129437059Y-124719234D01*
X129319234Y-124837059D01*
X129180687Y-124929633D01*
X129026742Y-124993399D01*
X128863315Y-125025907D01*
X128696685Y-125025907D01*
X128533258Y-124993399D01*
X128379313Y-124929633D01*
X128240766Y-124837059D01*
X128122941Y-124719234D01*
X128030367Y-124580687D01*
X127966601Y-124426742D01*
X127934093Y-124263315D01*
X127934093Y-124096685D01*
X127966601Y-123933258D01*
X128030367Y-123779313D01*
X128122941Y-123640766D01*
X128240766Y-123522941D01*
X128379313Y-123430367D01*
X128533258Y-123366601D01*
X128696685Y-123334093D01*
X128863315Y-123334093D01*
X129026742Y-123366601D01*
G37*
G36*
X131566742Y-123366601D02*
G01*
X131720687Y-123430367D01*
X131859234Y-123522941D01*
X131977059Y-123640766D01*
X132069633Y-123779313D01*
X132133399Y-123933258D01*
X132165907Y-124096685D01*
X132165907Y-124263315D01*
X132133399Y-124426742D01*
X132069633Y-124580687D01*
X131977059Y-124719234D01*
X131859234Y-124837059D01*
X131720687Y-124929633D01*
X131566742Y-124993399D01*
X131403315Y-125025907D01*
X131236685Y-125025907D01*
X131073258Y-124993399D01*
X130919313Y-124929633D01*
X130780766Y-124837059D01*
X130662941Y-124719234D01*
X130570367Y-124580687D01*
X130506601Y-124426742D01*
X130474093Y-124263315D01*
X130474093Y-124096685D01*
X130506601Y-123933258D01*
X130570367Y-123779313D01*
X130662941Y-123640766D01*
X130780766Y-123522941D01*
X130919313Y-123430367D01*
X131073258Y-123366601D01*
X131236685Y-123334093D01*
X131403315Y-123334093D01*
X131566742Y-123366601D01*
G37*
G36*
X110186790Y-122380393D02*
G01*
X110350952Y-122433733D01*
X110504748Y-122512096D01*
X110644393Y-122613553D01*
X110766447Y-122735607D01*
X110867904Y-122875252D01*
X110946267Y-123029048D01*
X110999607Y-123193210D01*
X111026609Y-123363695D01*
X111026609Y-123536305D01*
X110999607Y-123706790D01*
X110946267Y-123870952D01*
X110867904Y-124024748D01*
X110766447Y-124164393D01*
X110644393Y-124286447D01*
X110504748Y-124387904D01*
X110350952Y-124466267D01*
X110186790Y-124519607D01*
X110016305Y-124546609D01*
X109843695Y-124546609D01*
X109673210Y-124519607D01*
X109509048Y-124466267D01*
X109355252Y-124387904D01*
X109215607Y-124286447D01*
X109093553Y-124164393D01*
X108992096Y-124024748D01*
X108913733Y-123870952D01*
X108860393Y-123706790D01*
X108833391Y-123536305D01*
X108833391Y-123363695D01*
X108860393Y-123193210D01*
X108913733Y-123029048D01*
X108992096Y-122875252D01*
X109093553Y-122735607D01*
X109215607Y-122613553D01*
X109355252Y-122512096D01*
X109509048Y-122433733D01*
X109673210Y-122380393D01*
X109843695Y-122353391D01*
X110016305Y-122353391D01*
X110186790Y-122380393D01*
G37*
G36*
X124316790Y-122380393D02*
G01*
X124480952Y-122433733D01*
X124634748Y-122512096D01*
X124774393Y-122613553D01*
X124896447Y-122735607D01*
X124997904Y-122875252D01*
X125076267Y-123029048D01*
X125129607Y-123193210D01*
X125156609Y-123363695D01*
X125156609Y-123536305D01*
X125129607Y-123706790D01*
X125076267Y-123870952D01*
X124997904Y-124024748D01*
X124896447Y-124164393D01*
X124774393Y-124286447D01*
X124634748Y-124387904D01*
X124480952Y-124466267D01*
X124316790Y-124519607D01*
X124146305Y-124546609D01*
X123973695Y-124546609D01*
X123803210Y-124519607D01*
X123639048Y-124466267D01*
X123485252Y-124387904D01*
X123345607Y-124286447D01*
X123223553Y-124164393D01*
X123122096Y-124024748D01*
X123043733Y-123870952D01*
X122990393Y-123706790D01*
X122963391Y-123536305D01*
X122963391Y-123363695D01*
X122990393Y-123193210D01*
X123043733Y-123029048D01*
X123122096Y-122875252D01*
X123223553Y-122735607D01*
X123345607Y-122613553D01*
X123485252Y-122512096D01*
X123639048Y-122433733D01*
X123803210Y-122380393D01*
X123973695Y-122353391D01*
X124146305Y-122353391D01*
X124316790Y-122380393D01*
G37*
G36*
X102916742Y-120826601D02*
G01*
X103070687Y-120890367D01*
X103209234Y-120982941D01*
X103327059Y-121100766D01*
X103419633Y-121239313D01*
X103483399Y-121393258D01*
X103515907Y-121556685D01*
X103515907Y-121723315D01*
X103483399Y-121886742D01*
X103419633Y-122040687D01*
X103327059Y-122179234D01*
X103209234Y-122297059D01*
X103070687Y-122389633D01*
X102916742Y-122453399D01*
X102753315Y-122485907D01*
X102586685Y-122485907D01*
X102423258Y-122453399D01*
X102269313Y-122389633D01*
X102130766Y-122297059D01*
X102012941Y-122179234D01*
X101920367Y-122040687D01*
X101856601Y-121886742D01*
X101824093Y-121723315D01*
X101824093Y-121556685D01*
X101856601Y-121393258D01*
X101920367Y-121239313D01*
X102012941Y-121100766D01*
X102130766Y-120982941D01*
X102269313Y-120890367D01*
X102423258Y-120826601D01*
X102586685Y-120794093D01*
X102753315Y-120794093D01*
X102916742Y-120826601D01*
G37*
G36*
X105456742Y-120826601D02*
G01*
X105610687Y-120890367D01*
X105749234Y-120982941D01*
X105867059Y-121100766D01*
X105959633Y-121239313D01*
X106023399Y-121393258D01*
X106055907Y-121556685D01*
X106055907Y-121723315D01*
X106023399Y-121886742D01*
X105959633Y-122040687D01*
X105867059Y-122179234D01*
X105749234Y-122297059D01*
X105610687Y-122389633D01*
X105456742Y-122453399D01*
X105293315Y-122485907D01*
X105126685Y-122485907D01*
X104963258Y-122453399D01*
X104809313Y-122389633D01*
X104670766Y-122297059D01*
X104552941Y-122179234D01*
X104460367Y-122040687D01*
X104396601Y-121886742D01*
X104364093Y-121723315D01*
X104364093Y-121556685D01*
X104396601Y-121393258D01*
X104460367Y-121239313D01*
X104552941Y-121100766D01*
X104670766Y-120982941D01*
X104809313Y-120890367D01*
X104963258Y-120826601D01*
X105126685Y-120794093D01*
X105293315Y-120794093D01*
X105456742Y-120826601D01*
G37*
G36*
X129026742Y-120826601D02*
G01*
X129180687Y-120890367D01*
X129319234Y-120982941D01*
X129437059Y-121100766D01*
X129529633Y-121239313D01*
X129593399Y-121393258D01*
X129625907Y-121556685D01*
X129625907Y-121723315D01*
X129593399Y-121886742D01*
X129529633Y-122040687D01*
X129437059Y-122179234D01*
X129319234Y-122297059D01*
X129180687Y-122389633D01*
X129026742Y-122453399D01*
X128863315Y-122485907D01*
X128696685Y-122485907D01*
X128533258Y-122453399D01*
X128379313Y-122389633D01*
X128240766Y-122297059D01*
X128122941Y-122179234D01*
X128030367Y-122040687D01*
X127966601Y-121886742D01*
X127934093Y-121723315D01*
X127934093Y-121556685D01*
X127966601Y-121393258D01*
X128030367Y-121239313D01*
X128122941Y-121100766D01*
X128240766Y-120982941D01*
X128379313Y-120890367D01*
X128533258Y-120826601D01*
X128696685Y-120794093D01*
X128863315Y-120794093D01*
X129026742Y-120826601D01*
G37*
G36*
X131566742Y-120826601D02*
G01*
X131720687Y-120890367D01*
X131859234Y-120982941D01*
X131977059Y-121100766D01*
X132069633Y-121239313D01*
X132133399Y-121393258D01*
X132165907Y-121556685D01*
X132165907Y-121723315D01*
X132133399Y-121886742D01*
X132069633Y-122040687D01*
X131977059Y-122179234D01*
X131859234Y-122297059D01*
X131720687Y-122389633D01*
X131566742Y-122453399D01*
X131403315Y-122485907D01*
X131236685Y-122485907D01*
X131073258Y-122453399D01*
X130919313Y-122389633D01*
X130780766Y-122297059D01*
X130662941Y-122179234D01*
X130570367Y-122040687D01*
X130506601Y-121886742D01*
X130474093Y-121723315D01*
X130474093Y-121556685D01*
X130506601Y-121393258D01*
X130570367Y-121239313D01*
X130662941Y-121100766D01*
X130780766Y-120982941D01*
X130919313Y-120890367D01*
X131073258Y-120826601D01*
X131236685Y-120794093D01*
X131403315Y-120794093D01*
X131566742Y-120826601D01*
G37*
G36*
X102916742Y-118286601D02*
G01*
X103070687Y-118350367D01*
X103209234Y-118442941D01*
X103327059Y-118560766D01*
X103419633Y-118699313D01*
X103483399Y-118853258D01*
X103515907Y-119016685D01*
X103515907Y-119183315D01*
X103483399Y-119346742D01*
X103419633Y-119500687D01*
X103327059Y-119639234D01*
X103209234Y-119757059D01*
X103070687Y-119849633D01*
X102916742Y-119913399D01*
X102753315Y-119945907D01*
X102586685Y-119945907D01*
X102423258Y-119913399D01*
X102269313Y-119849633D01*
X102130766Y-119757059D01*
X102012941Y-119639234D01*
X101920367Y-119500687D01*
X101856601Y-119346742D01*
X101824093Y-119183315D01*
X101824093Y-119016685D01*
X101856601Y-118853258D01*
X101920367Y-118699313D01*
X102012941Y-118560766D01*
X102130766Y-118442941D01*
X102269313Y-118350367D01*
X102423258Y-118286601D01*
X102586685Y-118254093D01*
X102753315Y-118254093D01*
X102916742Y-118286601D01*
G37*
G36*
X105456742Y-118286601D02*
G01*
X105610687Y-118350367D01*
X105749234Y-118442941D01*
X105867059Y-118560766D01*
X105959633Y-118699313D01*
X106023399Y-118853258D01*
X106055907Y-119016685D01*
X106055907Y-119183315D01*
X106023399Y-119346742D01*
X105959633Y-119500687D01*
X105867059Y-119639234D01*
X105749234Y-119757059D01*
X105610687Y-119849633D01*
X105456742Y-119913399D01*
X105293315Y-119945907D01*
X105126685Y-119945907D01*
X104963258Y-119913399D01*
X104809313Y-119849633D01*
X104670766Y-119757059D01*
X104552941Y-119639234D01*
X104460367Y-119500687D01*
X104396601Y-119346742D01*
X104364093Y-119183315D01*
X104364093Y-119016685D01*
X104396601Y-118853258D01*
X104460367Y-118699313D01*
X104552941Y-118560766D01*
X104670766Y-118442941D01*
X104809313Y-118350367D01*
X104963258Y-118286601D01*
X105126685Y-118254093D01*
X105293315Y-118254093D01*
X105456742Y-118286601D01*
G37*
G36*
X129026742Y-118286601D02*
G01*
X129180687Y-118350367D01*
X129319234Y-118442941D01*
X129437059Y-118560766D01*
X129529633Y-118699313D01*
X129593399Y-118853258D01*
X129625907Y-119016685D01*
X129625907Y-119183315D01*
X129593399Y-119346742D01*
X129529633Y-119500687D01*
X129437059Y-119639234D01*
X129319234Y-119757059D01*
X129180687Y-119849633D01*
X129026742Y-119913399D01*
X128863315Y-119945907D01*
X128696685Y-119945907D01*
X128533258Y-119913399D01*
X128379313Y-119849633D01*
X128240766Y-119757059D01*
X128122941Y-119639234D01*
X128030367Y-119500687D01*
X127966601Y-119346742D01*
X127934093Y-119183315D01*
X127934093Y-119016685D01*
X127966601Y-118853258D01*
X128030367Y-118699313D01*
X128122941Y-118560766D01*
X128240766Y-118442941D01*
X128379313Y-118350367D01*
X128533258Y-118286601D01*
X128696685Y-118254093D01*
X128863315Y-118254093D01*
X129026742Y-118286601D01*
G37*
G36*
X131566742Y-118286601D02*
G01*
X131720687Y-118350367D01*
X131859234Y-118442941D01*
X131977059Y-118560766D01*
X132069633Y-118699313D01*
X132133399Y-118853258D01*
X132165907Y-119016685D01*
X132165907Y-119183315D01*
X132133399Y-119346742D01*
X132069633Y-119500687D01*
X131977059Y-119639234D01*
X131859234Y-119757059D01*
X131720687Y-119849633D01*
X131566742Y-119913399D01*
X131403315Y-119945907D01*
X131236685Y-119945907D01*
X131073258Y-119913399D01*
X130919313Y-119849633D01*
X130780766Y-119757059D01*
X130662941Y-119639234D01*
X130570367Y-119500687D01*
X130506601Y-119346742D01*
X130474093Y-119183315D01*
X130474093Y-119016685D01*
X130506601Y-118853258D01*
X130570367Y-118699313D01*
X130662941Y-118560766D01*
X130780766Y-118442941D01*
X130919313Y-118350367D01*
X131073258Y-118286601D01*
X131236685Y-118254093D01*
X131403315Y-118254093D01*
X131566742Y-118286601D01*
G37*
G36*
X102916742Y-115746601D02*
G01*
X103070687Y-115810367D01*
X103209234Y-115902941D01*
X103327059Y-116020766D01*
X103419633Y-116159313D01*
X103483399Y-116313258D01*
X103515907Y-116476685D01*
X103515907Y-116643315D01*
X103483399Y-116806742D01*
X103419633Y-116960687D01*
X103327059Y-117099234D01*
X103209234Y-117217059D01*
X103070687Y-117309633D01*
X102916742Y-117373399D01*
X102753315Y-117405907D01*
X102586685Y-117405907D01*
X102423258Y-117373399D01*
X102269313Y-117309633D01*
X102130766Y-117217059D01*
X102012941Y-117099234D01*
X101920367Y-116960687D01*
X101856601Y-116806742D01*
X101824093Y-116643315D01*
X101824093Y-116476685D01*
X101856601Y-116313258D01*
X101920367Y-116159313D01*
X102012941Y-116020766D01*
X102130766Y-115902941D01*
X102269313Y-115810367D01*
X102423258Y-115746601D01*
X102586685Y-115714093D01*
X102753315Y-115714093D01*
X102916742Y-115746601D01*
G37*
G36*
X105456742Y-115746601D02*
G01*
X105610687Y-115810367D01*
X105749234Y-115902941D01*
X105867059Y-116020766D01*
X105959633Y-116159313D01*
X106023399Y-116313258D01*
X106055907Y-116476685D01*
X106055907Y-116643315D01*
X106023399Y-116806742D01*
X105959633Y-116960687D01*
X105867059Y-117099234D01*
X105749234Y-117217059D01*
X105610687Y-117309633D01*
X105456742Y-117373399D01*
X105293315Y-117405907D01*
X105126685Y-117405907D01*
X104963258Y-117373399D01*
X104809313Y-117309633D01*
X104670766Y-117217059D01*
X104552941Y-117099234D01*
X104460367Y-116960687D01*
X104396601Y-116806742D01*
X104364093Y-116643315D01*
X104364093Y-116476685D01*
X104396601Y-116313258D01*
X104460367Y-116159313D01*
X104552941Y-116020766D01*
X104670766Y-115902941D01*
X104809313Y-115810367D01*
X104963258Y-115746601D01*
X105126685Y-115714093D01*
X105293315Y-115714093D01*
X105456742Y-115746601D01*
G37*
G36*
X129026742Y-115746601D02*
G01*
X129180687Y-115810367D01*
X129319234Y-115902941D01*
X129437059Y-116020766D01*
X129529633Y-116159313D01*
X129593399Y-116313258D01*
X129625907Y-116476685D01*
X129625907Y-116643315D01*
X129593399Y-116806742D01*
X129529633Y-116960687D01*
X129437059Y-117099234D01*
X129319234Y-117217059D01*
X129180687Y-117309633D01*
X129026742Y-117373399D01*
X128863315Y-117405907D01*
X128696685Y-117405907D01*
X128533258Y-117373399D01*
X128379313Y-117309633D01*
X128240766Y-117217059D01*
X128122941Y-117099234D01*
X128030367Y-116960687D01*
X127966601Y-116806742D01*
X127934093Y-116643315D01*
X127934093Y-116476685D01*
X127966601Y-116313258D01*
X128030367Y-116159313D01*
X128122941Y-116020766D01*
X128240766Y-115902941D01*
X128379313Y-115810367D01*
X128533258Y-115746601D01*
X128696685Y-115714093D01*
X128863315Y-115714093D01*
X129026742Y-115746601D01*
G37*
G36*
X131566742Y-115746601D02*
G01*
X131720687Y-115810367D01*
X131859234Y-115902941D01*
X131977059Y-116020766D01*
X132069633Y-116159313D01*
X132133399Y-116313258D01*
X132165907Y-116476685D01*
X132165907Y-116643315D01*
X132133399Y-116806742D01*
X132069633Y-116960687D01*
X131977059Y-117099234D01*
X131859234Y-117217059D01*
X131720687Y-117309633D01*
X131566742Y-117373399D01*
X131403315Y-117405907D01*
X131236685Y-117405907D01*
X131073258Y-117373399D01*
X130919313Y-117309633D01*
X130780766Y-117217059D01*
X130662941Y-117099234D01*
X130570367Y-116960687D01*
X130506601Y-116806742D01*
X130474093Y-116643315D01*
X130474093Y-116476685D01*
X130506601Y-116313258D01*
X130570367Y-116159313D01*
X130662941Y-116020766D01*
X130780766Y-115902941D01*
X130919313Y-115810367D01*
X131073258Y-115746601D01*
X131236685Y-115714093D01*
X131403315Y-115714093D01*
X131566742Y-115746601D01*
G37*
G36*
X102916742Y-113206601D02*
G01*
X103070687Y-113270367D01*
X103209234Y-113362941D01*
X103327059Y-113480766D01*
X103419633Y-113619313D01*
X103483399Y-113773258D01*
X103515907Y-113936685D01*
X103515907Y-114103315D01*
X103483399Y-114266742D01*
X103419633Y-114420687D01*
X103327059Y-114559234D01*
X103209234Y-114677059D01*
X103070687Y-114769633D01*
X102916742Y-114833399D01*
X102753315Y-114865907D01*
X102586685Y-114865907D01*
X102423258Y-114833399D01*
X102269313Y-114769633D01*
X102130766Y-114677059D01*
X102012941Y-114559234D01*
X101920367Y-114420687D01*
X101856601Y-114266742D01*
X101824093Y-114103315D01*
X101824093Y-113936685D01*
X101856601Y-113773258D01*
X101920367Y-113619313D01*
X102012941Y-113480766D01*
X102130766Y-113362941D01*
X102269313Y-113270367D01*
X102423258Y-113206601D01*
X102586685Y-113174093D01*
X102753315Y-113174093D01*
X102916742Y-113206601D01*
G37*
G36*
X105456742Y-113206601D02*
G01*
X105610687Y-113270367D01*
X105749234Y-113362941D01*
X105867059Y-113480766D01*
X105959633Y-113619313D01*
X106023399Y-113773258D01*
X106055907Y-113936685D01*
X106055907Y-114103315D01*
X106023399Y-114266742D01*
X105959633Y-114420687D01*
X105867059Y-114559234D01*
X105749234Y-114677059D01*
X105610687Y-114769633D01*
X105456742Y-114833399D01*
X105293315Y-114865907D01*
X105126685Y-114865907D01*
X104963258Y-114833399D01*
X104809313Y-114769633D01*
X104670766Y-114677059D01*
X104552941Y-114559234D01*
X104460367Y-114420687D01*
X104396601Y-114266742D01*
X104364093Y-114103315D01*
X104364093Y-113936685D01*
X104396601Y-113773258D01*
X104460367Y-113619313D01*
X104552941Y-113480766D01*
X104670766Y-113362941D01*
X104809313Y-113270367D01*
X104963258Y-113206601D01*
X105126685Y-113174093D01*
X105293315Y-113174093D01*
X105456742Y-113206601D01*
G37*
G36*
X129026742Y-113206601D02*
G01*
X129180687Y-113270367D01*
X129319234Y-113362941D01*
X129437059Y-113480766D01*
X129529633Y-113619313D01*
X129593399Y-113773258D01*
X129625907Y-113936685D01*
X129625907Y-114103315D01*
X129593399Y-114266742D01*
X129529633Y-114420687D01*
X129437059Y-114559234D01*
X129319234Y-114677059D01*
X129180687Y-114769633D01*
X129026742Y-114833399D01*
X128863315Y-114865907D01*
X128696685Y-114865907D01*
X128533258Y-114833399D01*
X128379313Y-114769633D01*
X128240766Y-114677059D01*
X128122941Y-114559234D01*
X128030367Y-114420687D01*
X127966601Y-114266742D01*
X127934093Y-114103315D01*
X127934093Y-113936685D01*
X127966601Y-113773258D01*
X128030367Y-113619313D01*
X128122941Y-113480766D01*
X128240766Y-113362941D01*
X128379313Y-113270367D01*
X128533258Y-113206601D01*
X128696685Y-113174093D01*
X128863315Y-113174093D01*
X129026742Y-113206601D01*
G37*
G36*
X131566742Y-113206601D02*
G01*
X131720687Y-113270367D01*
X131859234Y-113362941D01*
X131977059Y-113480766D01*
X132069633Y-113619313D01*
X132133399Y-113773258D01*
X132165907Y-113936685D01*
X132165907Y-114103315D01*
X132133399Y-114266742D01*
X132069633Y-114420687D01*
X131977059Y-114559234D01*
X131859234Y-114677059D01*
X131720687Y-114769633D01*
X131566742Y-114833399D01*
X131403315Y-114865907D01*
X131236685Y-114865907D01*
X131073258Y-114833399D01*
X130919313Y-114769633D01*
X130780766Y-114677059D01*
X130662941Y-114559234D01*
X130570367Y-114420687D01*
X130506601Y-114266742D01*
X130474093Y-114103315D01*
X130474093Y-113936685D01*
X130506601Y-113773258D01*
X130570367Y-113619313D01*
X130662941Y-113480766D01*
X130780766Y-113362941D01*
X130919313Y-113270367D01*
X131073258Y-113206601D01*
X131236685Y-113174093D01*
X131403315Y-113174093D01*
X131566742Y-113206601D01*
G37*
G36*
X102916742Y-110666601D02*
G01*
X103070687Y-110730367D01*
X103209234Y-110822941D01*
X103327059Y-110940766D01*
X103419633Y-111079313D01*
X103483399Y-111233258D01*
X103515907Y-111396685D01*
X103515907Y-111563315D01*
X103483399Y-111726742D01*
X103419633Y-111880687D01*
X103327059Y-112019234D01*
X103209234Y-112137059D01*
X103070687Y-112229633D01*
X102916742Y-112293399D01*
X102753315Y-112325907D01*
X102586685Y-112325907D01*
X102423258Y-112293399D01*
X102269313Y-112229633D01*
X102130766Y-112137059D01*
X102012941Y-112019234D01*
X101920367Y-111880687D01*
X101856601Y-111726742D01*
X101824093Y-111563315D01*
X101824093Y-111396685D01*
X101856601Y-111233258D01*
X101920367Y-111079313D01*
X102012941Y-110940766D01*
X102130766Y-110822941D01*
X102269313Y-110730367D01*
X102423258Y-110666601D01*
X102586685Y-110634093D01*
X102753315Y-110634093D01*
X102916742Y-110666601D01*
G37*
G36*
X105456742Y-110666601D02*
G01*
X105610687Y-110730367D01*
X105749234Y-110822941D01*
X105867059Y-110940766D01*
X105959633Y-111079313D01*
X106023399Y-111233258D01*
X106055907Y-111396685D01*
X106055907Y-111563315D01*
X106023399Y-111726742D01*
X105959633Y-111880687D01*
X105867059Y-112019234D01*
X105749234Y-112137059D01*
X105610687Y-112229633D01*
X105456742Y-112293399D01*
X105293315Y-112325907D01*
X105126685Y-112325907D01*
X104963258Y-112293399D01*
X104809313Y-112229633D01*
X104670766Y-112137059D01*
X104552941Y-112019234D01*
X104460367Y-111880687D01*
X104396601Y-111726742D01*
X104364093Y-111563315D01*
X104364093Y-111396685D01*
X104396601Y-111233258D01*
X104460367Y-111079313D01*
X104552941Y-110940766D01*
X104670766Y-110822941D01*
X104809313Y-110730367D01*
X104963258Y-110666601D01*
X105126685Y-110634093D01*
X105293315Y-110634093D01*
X105456742Y-110666601D01*
G37*
G36*
X129026742Y-110666601D02*
G01*
X129180687Y-110730367D01*
X129319234Y-110822941D01*
X129437059Y-110940766D01*
X129529633Y-111079313D01*
X129593399Y-111233258D01*
X129625907Y-111396685D01*
X129625907Y-111563315D01*
X129593399Y-111726742D01*
X129529633Y-111880687D01*
X129437059Y-112019234D01*
X129319234Y-112137059D01*
X129180687Y-112229633D01*
X129026742Y-112293399D01*
X128863315Y-112325907D01*
X128696685Y-112325907D01*
X128533258Y-112293399D01*
X128379313Y-112229633D01*
X128240766Y-112137059D01*
X128122941Y-112019234D01*
X128030367Y-111880687D01*
X127966601Y-111726742D01*
X127934093Y-111563315D01*
X127934093Y-111396685D01*
X127966601Y-111233258D01*
X128030367Y-111079313D01*
X128122941Y-110940766D01*
X128240766Y-110822941D01*
X128379313Y-110730367D01*
X128533258Y-110666601D01*
X128696685Y-110634093D01*
X128863315Y-110634093D01*
X129026742Y-110666601D01*
G37*
G36*
X131566742Y-110666601D02*
G01*
X131720687Y-110730367D01*
X131859234Y-110822941D01*
X131977059Y-110940766D01*
X132069633Y-111079313D01*
X132133399Y-111233258D01*
X132165907Y-111396685D01*
X132165907Y-111563315D01*
X132133399Y-111726742D01*
X132069633Y-111880687D01*
X131977059Y-112019234D01*
X131859234Y-112137059D01*
X131720687Y-112229633D01*
X131566742Y-112293399D01*
X131403315Y-112325907D01*
X131236685Y-112325907D01*
X131073258Y-112293399D01*
X130919313Y-112229633D01*
X130780766Y-112137059D01*
X130662941Y-112019234D01*
X130570367Y-111880687D01*
X130506601Y-111726742D01*
X130474093Y-111563315D01*
X130474093Y-111396685D01*
X130506601Y-111233258D01*
X130570367Y-111079313D01*
X130662941Y-110940766D01*
X130780766Y-110822941D01*
X130919313Y-110730367D01*
X131073258Y-110666601D01*
X131236685Y-110634093D01*
X131403315Y-110634093D01*
X131566742Y-110666601D01*
G37*
G36*
X102916742Y-108126601D02*
G01*
X103070687Y-108190367D01*
X103209234Y-108282941D01*
X103327059Y-108400766D01*
X103419633Y-108539313D01*
X103483399Y-108693258D01*
X103515907Y-108856685D01*
X103515907Y-109023315D01*
X103483399Y-109186742D01*
X103419633Y-109340687D01*
X103327059Y-109479234D01*
X103209234Y-109597059D01*
X103070687Y-109689633D01*
X102916742Y-109753399D01*
X102753315Y-109785907D01*
X102586685Y-109785907D01*
X102423258Y-109753399D01*
X102269313Y-109689633D01*
X102130766Y-109597059D01*
X102012941Y-109479234D01*
X101920367Y-109340687D01*
X101856601Y-109186742D01*
X101824093Y-109023315D01*
X101824093Y-108856685D01*
X101856601Y-108693258D01*
X101920367Y-108539313D01*
X102012941Y-108400766D01*
X102130766Y-108282941D01*
X102269313Y-108190367D01*
X102423258Y-108126601D01*
X102586685Y-108094093D01*
X102753315Y-108094093D01*
X102916742Y-108126601D01*
G37*
G36*
X105456742Y-108126601D02*
G01*
X105610687Y-108190367D01*
X105749234Y-108282941D01*
X105867059Y-108400766D01*
X105959633Y-108539313D01*
X106023399Y-108693258D01*
X106055907Y-108856685D01*
X106055907Y-109023315D01*
X106023399Y-109186742D01*
X105959633Y-109340687D01*
X105867059Y-109479234D01*
X105749234Y-109597059D01*
X105610687Y-109689633D01*
X105456742Y-109753399D01*
X105293315Y-109785907D01*
X105126685Y-109785907D01*
X104963258Y-109753399D01*
X104809313Y-109689633D01*
X104670766Y-109597059D01*
X104552941Y-109479234D01*
X104460367Y-109340687D01*
X104396601Y-109186742D01*
X104364093Y-109023315D01*
X104364093Y-108856685D01*
X104396601Y-108693258D01*
X104460367Y-108539313D01*
X104552941Y-108400766D01*
X104670766Y-108282941D01*
X104809313Y-108190367D01*
X104963258Y-108126601D01*
X105126685Y-108094093D01*
X105293315Y-108094093D01*
X105456742Y-108126601D01*
G37*
G36*
X129026742Y-108126601D02*
G01*
X129180687Y-108190367D01*
X129319234Y-108282941D01*
X129437059Y-108400766D01*
X129529633Y-108539313D01*
X129593399Y-108693258D01*
X129625907Y-108856685D01*
X129625907Y-109023315D01*
X129593399Y-109186742D01*
X129529633Y-109340687D01*
X129437059Y-109479234D01*
X129319234Y-109597059D01*
X129180687Y-109689633D01*
X129026742Y-109753399D01*
X128863315Y-109785907D01*
X128696685Y-109785907D01*
X128533258Y-109753399D01*
X128379313Y-109689633D01*
X128240766Y-109597059D01*
X128122941Y-109479234D01*
X128030367Y-109340687D01*
X127966601Y-109186742D01*
X127934093Y-109023315D01*
X127934093Y-108856685D01*
X127966601Y-108693258D01*
X128030367Y-108539313D01*
X128122941Y-108400766D01*
X128240766Y-108282941D01*
X128379313Y-108190367D01*
X128533258Y-108126601D01*
X128696685Y-108094093D01*
X128863315Y-108094093D01*
X129026742Y-108126601D01*
G37*
G36*
X131566742Y-108126601D02*
G01*
X131720687Y-108190367D01*
X131859234Y-108282941D01*
X131977059Y-108400766D01*
X132069633Y-108539313D01*
X132133399Y-108693258D01*
X132165907Y-108856685D01*
X132165907Y-109023315D01*
X132133399Y-109186742D01*
X132069633Y-109340687D01*
X131977059Y-109479234D01*
X131859234Y-109597059D01*
X131720687Y-109689633D01*
X131566742Y-109753399D01*
X131403315Y-109785907D01*
X131236685Y-109785907D01*
X131073258Y-109753399D01*
X130919313Y-109689633D01*
X130780766Y-109597059D01*
X130662941Y-109479234D01*
X130570367Y-109340687D01*
X130506601Y-109186742D01*
X130474093Y-109023315D01*
X130474093Y-108856685D01*
X130506601Y-108693258D01*
X130570367Y-108539313D01*
X130662941Y-108400766D01*
X130780766Y-108282941D01*
X130919313Y-108190367D01*
X131073258Y-108126601D01*
X131236685Y-108094093D01*
X131403315Y-108094093D01*
X131566742Y-108126601D01*
G37*
G36*
X102916742Y-105586601D02*
G01*
X103070687Y-105650367D01*
X103209234Y-105742941D01*
X103327059Y-105860766D01*
X103419633Y-105999313D01*
X103483399Y-106153258D01*
X103515907Y-106316685D01*
X103515907Y-106483315D01*
X103483399Y-106646742D01*
X103419633Y-106800687D01*
X103327059Y-106939234D01*
X103209234Y-107057059D01*
X103070687Y-107149633D01*
X102916742Y-107213399D01*
X102753315Y-107245907D01*
X102586685Y-107245907D01*
X102423258Y-107213399D01*
X102269313Y-107149633D01*
X102130766Y-107057059D01*
X102012941Y-106939234D01*
X101920367Y-106800687D01*
X101856601Y-106646742D01*
X101824093Y-106483315D01*
X101824093Y-106316685D01*
X101856601Y-106153258D01*
X101920367Y-105999313D01*
X102012941Y-105860766D01*
X102130766Y-105742941D01*
X102269313Y-105650367D01*
X102423258Y-105586601D01*
X102586685Y-105554093D01*
X102753315Y-105554093D01*
X102916742Y-105586601D01*
G37*
G36*
X105456742Y-105586601D02*
G01*
X105610687Y-105650367D01*
X105749234Y-105742941D01*
X105867059Y-105860766D01*
X105959633Y-105999313D01*
X106023399Y-106153258D01*
X106055907Y-106316685D01*
X106055907Y-106483315D01*
X106023399Y-106646742D01*
X105959633Y-106800687D01*
X105867059Y-106939234D01*
X105749234Y-107057059D01*
X105610687Y-107149633D01*
X105456742Y-107213399D01*
X105293315Y-107245907D01*
X105126685Y-107245907D01*
X104963258Y-107213399D01*
X104809313Y-107149633D01*
X104670766Y-107057059D01*
X104552941Y-106939234D01*
X104460367Y-106800687D01*
X104396601Y-106646742D01*
X104364093Y-106483315D01*
X104364093Y-106316685D01*
X104396601Y-106153258D01*
X104460367Y-105999313D01*
X104552941Y-105860766D01*
X104670766Y-105742941D01*
X104809313Y-105650367D01*
X104963258Y-105586601D01*
X105126685Y-105554093D01*
X105293315Y-105554093D01*
X105456742Y-105586601D01*
G37*
G36*
X129026742Y-105586601D02*
G01*
X129180687Y-105650367D01*
X129319234Y-105742941D01*
X129437059Y-105860766D01*
X129529633Y-105999313D01*
X129593399Y-106153258D01*
X129625907Y-106316685D01*
X129625907Y-106483315D01*
X129593399Y-106646742D01*
X129529633Y-106800687D01*
X129437059Y-106939234D01*
X129319234Y-107057059D01*
X129180687Y-107149633D01*
X129026742Y-107213399D01*
X128863315Y-107245907D01*
X128696685Y-107245907D01*
X128533258Y-107213399D01*
X128379313Y-107149633D01*
X128240766Y-107057059D01*
X128122941Y-106939234D01*
X128030367Y-106800687D01*
X127966601Y-106646742D01*
X127934093Y-106483315D01*
X127934093Y-106316685D01*
X127966601Y-106153258D01*
X128030367Y-105999313D01*
X128122941Y-105860766D01*
X128240766Y-105742941D01*
X128379313Y-105650367D01*
X128533258Y-105586601D01*
X128696685Y-105554093D01*
X128863315Y-105554093D01*
X129026742Y-105586601D01*
G37*
G36*
X131566742Y-105586601D02*
G01*
X131720687Y-105650367D01*
X131859234Y-105742941D01*
X131977059Y-105860766D01*
X132069633Y-105999313D01*
X132133399Y-106153258D01*
X132165907Y-106316685D01*
X132165907Y-106483315D01*
X132133399Y-106646742D01*
X132069633Y-106800687D01*
X131977059Y-106939234D01*
X131859234Y-107057059D01*
X131720687Y-107149633D01*
X131566742Y-107213399D01*
X131403315Y-107245907D01*
X131236685Y-107245907D01*
X131073258Y-107213399D01*
X130919313Y-107149633D01*
X130780766Y-107057059D01*
X130662941Y-106939234D01*
X130570367Y-106800687D01*
X130506601Y-106646742D01*
X130474093Y-106483315D01*
X130474093Y-106316685D01*
X130506601Y-106153258D01*
X130570367Y-105999313D01*
X130662941Y-105860766D01*
X130780766Y-105742941D01*
X130919313Y-105650367D01*
X131073258Y-105586601D01*
X131236685Y-105554093D01*
X131403315Y-105554093D01*
X131566742Y-105586601D01*
G37*
G36*
X114161593Y-106283165D02*
G01*
X114245242Y-106331459D01*
X114313541Y-106399758D01*
X114361835Y-106483407D01*
X114386835Y-106576705D01*
X114386835Y-106673295D01*
X114361835Y-106766593D01*
X114313541Y-106850242D01*
X114245242Y-106918541D01*
X114161593Y-106966835D01*
X114068295Y-106991835D01*
X113971705Y-106991835D01*
X113878407Y-106966835D01*
X113794758Y-106918541D01*
X113726459Y-106850242D01*
X113678165Y-106766593D01*
X113653165Y-106673295D01*
X113653165Y-106576705D01*
X113678165Y-106483407D01*
X113726459Y-106399758D01*
X113794758Y-106331459D01*
X113878407Y-106283165D01*
X113971705Y-106258165D01*
X114068295Y-106258165D01*
X114161593Y-106283165D01*
G37*
G36*
X115011593Y-106283165D02*
G01*
X115095242Y-106331459D01*
X115163541Y-106399758D01*
X115211835Y-106483407D01*
X115236835Y-106576705D01*
X115236835Y-106673295D01*
X115211835Y-106766593D01*
X115163541Y-106850242D01*
X115095242Y-106918541D01*
X115011593Y-106966835D01*
X114918295Y-106991835D01*
X114821705Y-106991835D01*
X114728407Y-106966835D01*
X114644758Y-106918541D01*
X114576459Y-106850242D01*
X114528165Y-106766593D01*
X114503165Y-106673295D01*
X114503165Y-106576705D01*
X114528165Y-106483407D01*
X114576459Y-106399758D01*
X114644758Y-106331459D01*
X114728407Y-106283165D01*
X114821705Y-106258165D01*
X114918295Y-106258165D01*
X115011593Y-106283165D01*
G37*
G36*
X115861593Y-106283165D02*
G01*
X115945242Y-106331459D01*
X116013541Y-106399758D01*
X116061835Y-106483407D01*
X116086835Y-106576705D01*
X116086835Y-106673295D01*
X116061835Y-106766593D01*
X116013541Y-106850242D01*
X115945242Y-106918541D01*
X115861593Y-106966835D01*
X115768295Y-106991835D01*
X115671705Y-106991835D01*
X115578407Y-106966835D01*
X115494758Y-106918541D01*
X115426459Y-106850242D01*
X115378165Y-106766593D01*
X115353165Y-106673295D01*
X115353165Y-106576705D01*
X115378165Y-106483407D01*
X115426459Y-106399758D01*
X115494758Y-106331459D01*
X115578407Y-106283165D01*
X115671705Y-106258165D01*
X115768295Y-106258165D01*
X115861593Y-106283165D01*
G37*
G36*
X116711593Y-106283165D02*
G01*
X116795242Y-106331459D01*
X116863541Y-106399758D01*
X116911835Y-106483407D01*
X116936835Y-106576705D01*
X116936835Y-106673295D01*
X116911835Y-106766593D01*
X116863541Y-106850242D01*
X116795242Y-106918541D01*
X116711593Y-106966835D01*
X116618295Y-106991835D01*
X116521705Y-106991835D01*
X116428407Y-106966835D01*
X116344758Y-106918541D01*
X116276459Y-106850242D01*
X116228165Y-106766593D01*
X116203165Y-106673295D01*
X116203165Y-106576705D01*
X116228165Y-106483407D01*
X116276459Y-106399758D01*
X116344758Y-106331459D01*
X116428407Y-106283165D01*
X116521705Y-106258165D01*
X116618295Y-106258165D01*
X116711593Y-106283165D01*
G37*
G36*
X117561593Y-106283165D02*
G01*
X117645242Y-106331459D01*
X117713541Y-106399758D01*
X117761835Y-106483407D01*
X117786835Y-106576705D01*
X117786835Y-106673295D01*
X117761835Y-106766593D01*
X117713541Y-106850242D01*
X117645242Y-106918541D01*
X117561593Y-106966835D01*
X117468295Y-106991835D01*
X117371705Y-106991835D01*
X117278407Y-106966835D01*
X117194758Y-106918541D01*
X117126459Y-106850242D01*
X117078165Y-106766593D01*
X117053165Y-106673295D01*
X117053165Y-106576705D01*
X117078165Y-106483407D01*
X117126459Y-106399758D01*
X117194758Y-106331459D01*
X117278407Y-106283165D01*
X117371705Y-106258165D01*
X117468295Y-106258165D01*
X117561593Y-106283165D01*
G37*
G36*
X118411593Y-106283165D02*
G01*
X118495242Y-106331459D01*
X118563541Y-106399758D01*
X118611835Y-106483407D01*
X118636835Y-106576705D01*
X118636835Y-106673295D01*
X118611835Y-106766593D01*
X118563541Y-106850242D01*
X118495242Y-106918541D01*
X118411593Y-106966835D01*
X118318295Y-106991835D01*
X118221705Y-106991835D01*
X118128407Y-106966835D01*
X118044758Y-106918541D01*
X117976459Y-106850242D01*
X117928165Y-106766593D01*
X117903165Y-106673295D01*
X117903165Y-106576705D01*
X117928165Y-106483407D01*
X117976459Y-106399758D01*
X118044758Y-106331459D01*
X118128407Y-106283165D01*
X118221705Y-106258165D01*
X118318295Y-106258165D01*
X118411593Y-106283165D01*
G37*
G36*
X119261593Y-106283165D02*
G01*
X119345242Y-106331459D01*
X119413541Y-106399758D01*
X119461835Y-106483407D01*
X119486835Y-106576705D01*
X119486835Y-106673295D01*
X119461835Y-106766593D01*
X119413541Y-106850242D01*
X119345242Y-106918541D01*
X119261593Y-106966835D01*
X119168295Y-106991835D01*
X119071705Y-106991835D01*
X118978407Y-106966835D01*
X118894758Y-106918541D01*
X118826459Y-106850242D01*
X118778165Y-106766593D01*
X118753165Y-106673295D01*
X118753165Y-106576705D01*
X118778165Y-106483407D01*
X118826459Y-106399758D01*
X118894758Y-106331459D01*
X118978407Y-106283165D01*
X119071705Y-106258165D01*
X119168295Y-106258165D01*
X119261593Y-106283165D01*
G37*
G36*
X120111593Y-106283165D02*
G01*
X120195242Y-106331459D01*
X120263541Y-106399758D01*
X120311835Y-106483407D01*
X120336835Y-106576705D01*
X120336835Y-106673295D01*
X120311835Y-106766593D01*
X120263541Y-106850242D01*
X120195242Y-106918541D01*
X120111593Y-106966835D01*
X120018295Y-106991835D01*
X119921705Y-106991835D01*
X119828407Y-106966835D01*
X119744758Y-106918541D01*
X119676459Y-106850242D01*
X119628165Y-106766593D01*
X119603165Y-106673295D01*
X119603165Y-106576705D01*
X119628165Y-106483407D01*
X119676459Y-106399758D01*
X119744758Y-106331459D01*
X119828407Y-106283165D01*
X119921705Y-106258165D01*
X120018295Y-106258165D01*
X120111593Y-106283165D01*
G37*
G36*
X112853688Y-104451538D02*
G01*
X112962205Y-104514190D01*
X113050810Y-104602795D01*
X113113462Y-104711312D01*
X113145894Y-104832347D01*
X113150000Y-104895000D01*
X113150000Y-106395000D01*
X113145894Y-106457653D01*
X113113462Y-106578688D01*
X113050810Y-106687205D01*
X112962205Y-106775810D01*
X112853688Y-106838462D01*
X112732653Y-106870894D01*
X112607347Y-106870894D01*
X112486312Y-106838462D01*
X112377795Y-106775810D01*
X112289190Y-106687205D01*
X112226538Y-106578688D01*
X112194106Y-106457653D01*
X112190000Y-106395000D01*
X112190000Y-104895000D01*
X112194106Y-104832347D01*
X112226538Y-104711312D01*
X112289190Y-104602795D01*
X112377795Y-104514190D01*
X112486312Y-104451538D01*
X112607347Y-104419106D01*
X112732653Y-104419106D01*
X112853688Y-104451538D01*
G37*
G36*
X121503688Y-104451538D02*
G01*
X121612205Y-104514190D01*
X121700810Y-104602795D01*
X121763462Y-104711312D01*
X121795894Y-104832347D01*
X121800000Y-104895000D01*
X121800000Y-106395000D01*
X121795894Y-106457653D01*
X121763462Y-106578688D01*
X121700810Y-106687205D01*
X121612205Y-106775810D01*
X121503688Y-106838462D01*
X121382653Y-106870894D01*
X121257347Y-106870894D01*
X121136312Y-106838462D01*
X121027795Y-106775810D01*
X120939190Y-106687205D01*
X120876538Y-106578688D01*
X120844106Y-106457653D01*
X120840000Y-106395000D01*
X120840000Y-104895000D01*
X120844106Y-104832347D01*
X120876538Y-104711312D01*
X120939190Y-104602795D01*
X121027795Y-104514190D01*
X121136312Y-104451538D01*
X121257347Y-104419106D01*
X121382653Y-104419106D01*
X121503688Y-104451538D01*
G37*
G36*
X114161593Y-104933165D02*
G01*
X114245242Y-104981459D01*
X114313541Y-105049758D01*
X114361835Y-105133407D01*
X114386835Y-105226705D01*
X114386835Y-105323295D01*
X114361835Y-105416593D01*
X114313541Y-105500242D01*
X114245242Y-105568541D01*
X114161593Y-105616835D01*
X114068295Y-105641835D01*
X113971705Y-105641835D01*
X113878407Y-105616835D01*
X113794758Y-105568541D01*
X113726459Y-105500242D01*
X113678165Y-105416593D01*
X113653165Y-105323295D01*
X113653165Y-105226705D01*
X113678165Y-105133407D01*
X113726459Y-105049758D01*
X113794758Y-104981459D01*
X113878407Y-104933165D01*
X113971705Y-104908165D01*
X114068295Y-104908165D01*
X114161593Y-104933165D01*
G37*
G36*
X115011593Y-104933165D02*
G01*
X115095242Y-104981459D01*
X115163541Y-105049758D01*
X115211835Y-105133407D01*
X115236835Y-105226705D01*
X115236835Y-105323295D01*
X115211835Y-105416593D01*
X115163541Y-105500242D01*
X115095242Y-105568541D01*
X115011593Y-105616835D01*
X114918295Y-105641835D01*
X114821705Y-105641835D01*
X114728407Y-105616835D01*
X114644758Y-105568541D01*
X114576459Y-105500242D01*
X114528165Y-105416593D01*
X114503165Y-105323295D01*
X114503165Y-105226705D01*
X114528165Y-105133407D01*
X114576459Y-105049758D01*
X114644758Y-104981459D01*
X114728407Y-104933165D01*
X114821705Y-104908165D01*
X114918295Y-104908165D01*
X115011593Y-104933165D01*
G37*
G36*
X115861593Y-104933165D02*
G01*
X115945242Y-104981459D01*
X116013541Y-105049758D01*
X116061835Y-105133407D01*
X116086835Y-105226705D01*
X116086835Y-105323295D01*
X116061835Y-105416593D01*
X116013541Y-105500242D01*
X115945242Y-105568541D01*
X115861593Y-105616835D01*
X115768295Y-105641835D01*
X115671705Y-105641835D01*
X115578407Y-105616835D01*
X115494758Y-105568541D01*
X115426459Y-105500242D01*
X115378165Y-105416593D01*
X115353165Y-105323295D01*
X115353165Y-105226705D01*
X115378165Y-105133407D01*
X115426459Y-105049758D01*
X115494758Y-104981459D01*
X115578407Y-104933165D01*
X115671705Y-104908165D01*
X115768295Y-104908165D01*
X115861593Y-104933165D01*
G37*
G36*
X116711593Y-104933165D02*
G01*
X116795242Y-104981459D01*
X116863541Y-105049758D01*
X116911835Y-105133407D01*
X116936835Y-105226705D01*
X116936835Y-105323295D01*
X116911835Y-105416593D01*
X116863541Y-105500242D01*
X116795242Y-105568541D01*
X116711593Y-105616835D01*
X116618295Y-105641835D01*
X116521705Y-105641835D01*
X116428407Y-105616835D01*
X116344758Y-105568541D01*
X116276459Y-105500242D01*
X116228165Y-105416593D01*
X116203165Y-105323295D01*
X116203165Y-105226705D01*
X116228165Y-105133407D01*
X116276459Y-105049758D01*
X116344758Y-104981459D01*
X116428407Y-104933165D01*
X116521705Y-104908165D01*
X116618295Y-104908165D01*
X116711593Y-104933165D01*
G37*
G36*
X117561593Y-104933165D02*
G01*
X117645242Y-104981459D01*
X117713541Y-105049758D01*
X117761835Y-105133407D01*
X117786835Y-105226705D01*
X117786835Y-105323295D01*
X117761835Y-105416593D01*
X117713541Y-105500242D01*
X117645242Y-105568541D01*
X117561593Y-105616835D01*
X117468295Y-105641835D01*
X117371705Y-105641835D01*
X117278407Y-105616835D01*
X117194758Y-105568541D01*
X117126459Y-105500242D01*
X117078165Y-105416593D01*
X117053165Y-105323295D01*
X117053165Y-105226705D01*
X117078165Y-105133407D01*
X117126459Y-105049758D01*
X117194758Y-104981459D01*
X117278407Y-104933165D01*
X117371705Y-104908165D01*
X117468295Y-104908165D01*
X117561593Y-104933165D01*
G37*
G36*
X118411593Y-104933165D02*
G01*
X118495242Y-104981459D01*
X118563541Y-105049758D01*
X118611835Y-105133407D01*
X118636835Y-105226705D01*
X118636835Y-105323295D01*
X118611835Y-105416593D01*
X118563541Y-105500242D01*
X118495242Y-105568541D01*
X118411593Y-105616835D01*
X118318295Y-105641835D01*
X118221705Y-105641835D01*
X118128407Y-105616835D01*
X118044758Y-105568541D01*
X117976459Y-105500242D01*
X117928165Y-105416593D01*
X117903165Y-105323295D01*
X117903165Y-105226705D01*
X117928165Y-105133407D01*
X117976459Y-105049758D01*
X118044758Y-104981459D01*
X118128407Y-104933165D01*
X118221705Y-104908165D01*
X118318295Y-104908165D01*
X118411593Y-104933165D01*
G37*
G36*
X119261593Y-104933165D02*
G01*
X119345242Y-104981459D01*
X119413541Y-105049758D01*
X119461835Y-105133407D01*
X119486835Y-105226705D01*
X119486835Y-105323295D01*
X119461835Y-105416593D01*
X119413541Y-105500242D01*
X119345242Y-105568541D01*
X119261593Y-105616835D01*
X119168295Y-105641835D01*
X119071705Y-105641835D01*
X118978407Y-105616835D01*
X118894758Y-105568541D01*
X118826459Y-105500242D01*
X118778165Y-105416593D01*
X118753165Y-105323295D01*
X118753165Y-105226705D01*
X118778165Y-105133407D01*
X118826459Y-105049758D01*
X118894758Y-104981459D01*
X118978407Y-104933165D01*
X119071705Y-104908165D01*
X119168295Y-104908165D01*
X119261593Y-104933165D01*
G37*
G36*
X120111593Y-104933165D02*
G01*
X120195242Y-104981459D01*
X120263541Y-105049758D01*
X120311835Y-105133407D01*
X120336835Y-105226705D01*
X120336835Y-105323295D01*
X120311835Y-105416593D01*
X120263541Y-105500242D01*
X120195242Y-105568541D01*
X120111593Y-105616835D01*
X120018295Y-105641835D01*
X119921705Y-105641835D01*
X119828407Y-105616835D01*
X119744758Y-105568541D01*
X119676459Y-105500242D01*
X119628165Y-105416593D01*
X119603165Y-105323295D01*
X119603165Y-105226705D01*
X119628165Y-105133407D01*
X119676459Y-105049758D01*
X119744758Y-104981459D01*
X119828407Y-104933165D01*
X119921705Y-104908165D01*
X120018295Y-104908165D01*
X120111593Y-104933165D01*
G37*
G36*
X102916742Y-103046601D02*
G01*
X103070687Y-103110367D01*
X103209234Y-103202941D01*
X103327059Y-103320766D01*
X103419633Y-103459313D01*
X103483399Y-103613258D01*
X103515907Y-103776685D01*
X103515907Y-103943315D01*
X103483399Y-104106742D01*
X103419633Y-104260687D01*
X103327059Y-104399234D01*
X103209234Y-104517059D01*
X103070687Y-104609633D01*
X102916742Y-104673399D01*
X102753315Y-104705907D01*
X102586685Y-104705907D01*
X102423258Y-104673399D01*
X102269313Y-104609633D01*
X102130766Y-104517059D01*
X102012941Y-104399234D01*
X101920367Y-104260687D01*
X101856601Y-104106742D01*
X101824093Y-103943315D01*
X101824093Y-103776685D01*
X101856601Y-103613258D01*
X101920367Y-103459313D01*
X102012941Y-103320766D01*
X102130766Y-103202941D01*
X102269313Y-103110367D01*
X102423258Y-103046601D01*
X102586685Y-103014093D01*
X102753315Y-103014093D01*
X102916742Y-103046601D01*
G37*
G36*
X105456742Y-103046601D02*
G01*
X105610687Y-103110367D01*
X105749234Y-103202941D01*
X105867059Y-103320766D01*
X105959633Y-103459313D01*
X106023399Y-103613258D01*
X106055907Y-103776685D01*
X106055907Y-103943315D01*
X106023399Y-104106742D01*
X105959633Y-104260687D01*
X105867059Y-104399234D01*
X105749234Y-104517059D01*
X105610687Y-104609633D01*
X105456742Y-104673399D01*
X105293315Y-104705907D01*
X105126685Y-104705907D01*
X104963258Y-104673399D01*
X104809313Y-104609633D01*
X104670766Y-104517059D01*
X104552941Y-104399234D01*
X104460367Y-104260687D01*
X104396601Y-104106742D01*
X104364093Y-103943315D01*
X104364093Y-103776685D01*
X104396601Y-103613258D01*
X104460367Y-103459313D01*
X104552941Y-103320766D01*
X104670766Y-103202941D01*
X104809313Y-103110367D01*
X104963258Y-103046601D01*
X105126685Y-103014093D01*
X105293315Y-103014093D01*
X105456742Y-103046601D01*
G37*
G36*
X129026742Y-103046601D02*
G01*
X129180687Y-103110367D01*
X129319234Y-103202941D01*
X129437059Y-103320766D01*
X129529633Y-103459313D01*
X129593399Y-103613258D01*
X129625907Y-103776685D01*
X129625907Y-103943315D01*
X129593399Y-104106742D01*
X129529633Y-104260687D01*
X129437059Y-104399234D01*
X129319234Y-104517059D01*
X129180687Y-104609633D01*
X129026742Y-104673399D01*
X128863315Y-104705907D01*
X128696685Y-104705907D01*
X128533258Y-104673399D01*
X128379313Y-104609633D01*
X128240766Y-104517059D01*
X128122941Y-104399234D01*
X128030367Y-104260687D01*
X127966601Y-104106742D01*
X127934093Y-103943315D01*
X127934093Y-103776685D01*
X127966601Y-103613258D01*
X128030367Y-103459313D01*
X128122941Y-103320766D01*
X128240766Y-103202941D01*
X128379313Y-103110367D01*
X128533258Y-103046601D01*
X128696685Y-103014093D01*
X128863315Y-103014093D01*
X129026742Y-103046601D01*
G37*
G36*
X131566742Y-103046601D02*
G01*
X131720687Y-103110367D01*
X131859234Y-103202941D01*
X131977059Y-103320766D01*
X132069633Y-103459313D01*
X132133399Y-103613258D01*
X132165907Y-103776685D01*
X132165907Y-103943315D01*
X132133399Y-104106742D01*
X132069633Y-104260687D01*
X131977059Y-104399234D01*
X131859234Y-104517059D01*
X131720687Y-104609633D01*
X131566742Y-104673399D01*
X131403315Y-104705907D01*
X131236685Y-104705907D01*
X131073258Y-104673399D01*
X130919313Y-104609633D01*
X130780766Y-104517059D01*
X130662941Y-104399234D01*
X130570367Y-104260687D01*
X130506601Y-104106742D01*
X130474093Y-103943315D01*
X130474093Y-103776685D01*
X130506601Y-103613258D01*
X130570367Y-103459313D01*
X130662941Y-103320766D01*
X130780766Y-103202941D01*
X130919313Y-103110367D01*
X131073258Y-103046601D01*
X131236685Y-103014093D01*
X131403315Y-103014093D01*
X131566742Y-103046601D01*
G37*
G36*
X110186790Y-100980393D02*
G01*
X110350952Y-101033733D01*
X110504748Y-101112096D01*
X110644393Y-101213553D01*
X110766447Y-101335607D01*
X110867904Y-101475252D01*
X110946267Y-101629048D01*
X110999607Y-101793210D01*
X111026609Y-101963695D01*
X111026609Y-102136305D01*
X110999607Y-102306790D01*
X110946267Y-102470952D01*
X110867904Y-102624748D01*
X110766447Y-102764393D01*
X110644393Y-102886447D01*
X110504748Y-102987904D01*
X110350952Y-103066267D01*
X110186790Y-103119607D01*
X110016305Y-103146609D01*
X109843695Y-103146609D01*
X109673210Y-103119607D01*
X109509048Y-103066267D01*
X109355252Y-102987904D01*
X109215607Y-102886447D01*
X109093553Y-102764393D01*
X108992096Y-102624748D01*
X108913733Y-102470952D01*
X108860393Y-102306790D01*
X108833391Y-102136305D01*
X108833391Y-101963695D01*
X108860393Y-101793210D01*
X108913733Y-101629048D01*
X108992096Y-101475252D01*
X109093553Y-101335607D01*
X109215607Y-101213553D01*
X109355252Y-101112096D01*
X109509048Y-101033733D01*
X109673210Y-100980393D01*
X109843695Y-100953391D01*
X110016305Y-100953391D01*
X110186790Y-100980393D01*
G37*
G36*
X124316790Y-100980393D02*
G01*
X124480952Y-101033733D01*
X124634748Y-101112096D01*
X124774393Y-101213553D01*
X124896447Y-101335607D01*
X124997904Y-101475252D01*
X125076267Y-101629048D01*
X125129607Y-101793210D01*
X125156609Y-101963695D01*
X125156609Y-102136305D01*
X125129607Y-102306790D01*
X125076267Y-102470952D01*
X124997904Y-102624748D01*
X124896447Y-102764393D01*
X124774393Y-102886447D01*
X124634748Y-102987904D01*
X124480952Y-103066267D01*
X124316790Y-103119607D01*
X124146305Y-103146609D01*
X123973695Y-103146609D01*
X123803210Y-103119607D01*
X123639048Y-103066267D01*
X123485252Y-102987904D01*
X123345607Y-102886447D01*
X123223553Y-102764393D01*
X123122096Y-102624748D01*
X123043733Y-102470952D01*
X122990393Y-102306790D01*
X122963391Y-102136305D01*
X122963391Y-101963695D01*
X122990393Y-101793210D01*
X123043733Y-101629048D01*
X123122096Y-101475252D01*
X123223553Y-101335607D01*
X123345607Y-101213553D01*
X123485252Y-101112096D01*
X123639048Y-101033733D01*
X123803210Y-100980393D01*
X123973695Y-100953391D01*
X124146305Y-100953391D01*
X124316790Y-100980393D01*
G37*
G36*
X112853688Y-101421538D02*
G01*
X112962205Y-101484190D01*
X113050810Y-101572795D01*
X113113462Y-101681312D01*
X113145894Y-101802347D01*
X113150000Y-101865000D01*
X113150000Y-102665000D01*
X113145894Y-102727653D01*
X113113462Y-102848688D01*
X113050810Y-102957205D01*
X112962205Y-103045810D01*
X112853688Y-103108462D01*
X112732653Y-103140894D01*
X112607347Y-103140894D01*
X112486312Y-103108462D01*
X112377795Y-103045810D01*
X112289190Y-102957205D01*
X112226538Y-102848688D01*
X112194106Y-102727653D01*
X112190000Y-102665000D01*
X112190000Y-101865000D01*
X112194106Y-101802347D01*
X112226538Y-101681312D01*
X112289190Y-101572795D01*
X112377795Y-101484190D01*
X112486312Y-101421538D01*
X112607347Y-101389106D01*
X112732653Y-101389106D01*
X112853688Y-101421538D01*
G37*
G36*
X121503688Y-101421538D02*
G01*
X121612205Y-101484190D01*
X121700810Y-101572795D01*
X121763462Y-101681312D01*
X121795894Y-101802347D01*
X121800000Y-101865000D01*
X121800000Y-102665000D01*
X121795894Y-102727653D01*
X121763462Y-102848688D01*
X121700810Y-102957205D01*
X121612205Y-103045810D01*
X121503688Y-103108462D01*
X121382653Y-103140894D01*
X121257347Y-103140894D01*
X121136312Y-103108462D01*
X121027795Y-103045810D01*
X120939190Y-102957205D01*
X120876538Y-102848688D01*
X120844106Y-102727653D01*
X120840000Y-102665000D01*
X120840000Y-101865000D01*
X120844106Y-101802347D01*
X120876538Y-101681312D01*
X120939190Y-101572795D01*
X121027795Y-101484190D01*
X121136312Y-101421538D01*
X121257347Y-101389106D01*
X121382653Y-101389106D01*
X121503688Y-101421538D01*
G37*
G36*
X103520000Y-102170000D02*
G01*
X101820000Y-102170000D01*
X101820000Y-100470000D01*
X103520000Y-100470000D01*
X103520000Y-102170000D01*
G37*
G36*
X129630000Y-102170000D02*
G01*
X127930000Y-102170000D01*
X127930000Y-100470000D01*
X129630000Y-100470000D01*
X129630000Y-102170000D01*
G37*
G36*
X105456742Y-100506601D02*
G01*
X105610687Y-100570367D01*
X105749234Y-100662941D01*
X105867059Y-100780766D01*
X105959633Y-100919313D01*
X106023399Y-101073258D01*
X106055907Y-101236685D01*
X106055907Y-101403315D01*
X106023399Y-101566742D01*
X105959633Y-101720687D01*
X105867059Y-101859234D01*
X105749234Y-101977059D01*
X105610687Y-102069633D01*
X105456742Y-102133399D01*
X105293315Y-102165907D01*
X105126685Y-102165907D01*
X104963258Y-102133399D01*
X104809313Y-102069633D01*
X104670766Y-101977059D01*
X104552941Y-101859234D01*
X104460367Y-101720687D01*
X104396601Y-101566742D01*
X104364093Y-101403315D01*
X104364093Y-101236685D01*
X104396601Y-101073258D01*
X104460367Y-100919313D01*
X104552941Y-100780766D01*
X104670766Y-100662941D01*
X104809313Y-100570367D01*
X104963258Y-100506601D01*
X105126685Y-100474093D01*
X105293315Y-100474093D01*
X105456742Y-100506601D01*
G37*
G36*
X131566742Y-100506601D02*
G01*
X131720687Y-100570367D01*
X131859234Y-100662941D01*
X131977059Y-100780766D01*
X132069633Y-100919313D01*
X132133399Y-101073258D01*
X132165907Y-101236685D01*
X132165907Y-101403315D01*
X132133399Y-101566742D01*
X132069633Y-101720687D01*
X131977059Y-101859234D01*
X131859234Y-101977059D01*
X131720687Y-102069633D01*
X131566742Y-102133399D01*
X131403315Y-102165907D01*
X131236685Y-102165907D01*
X131073258Y-102133399D01*
X130919313Y-102069633D01*
X130780766Y-101977059D01*
X130662941Y-101859234D01*
X130570367Y-101720687D01*
X130506601Y-101566742D01*
X130474093Y-101403315D01*
X130474093Y-101236685D01*
X130506601Y-101073258D01*
X130570367Y-100919313D01*
X130662941Y-100780766D01*
X130780766Y-100662941D01*
X130919313Y-100570367D01*
X131073258Y-100506601D01*
X131236685Y-100474093D01*
X131403315Y-100474093D01*
X131566742Y-100506601D01*
G37*
M02*
