%TF.GenerationSoftware,KiCad,Pcbnew,10.0.6*%
%TF.CreationDate,2026-10-01T23:58:13+00:00*%
%TF.ProjectId,nicklink,6e69636b-6c69-46e6-9b2e-6b696361645f,rev?*%
%TF.SameCoordinates,Original*%
%TF.FileFunction,Copper,L1,Top*%
%TF.FilePolarity,Positive*%
%FSLAX46Y46*%
G04 Gerber Fmt 4.6, Leading zero omitted, Abs format (unit mm)*
G04 Created by KiCad (PCBNEW 10.0.6) date 2026-10-01 23:58:13*
%MOMM*%
%LPD*%
G01*
G04 APERTURE LIST*
G04 Aperture macros list*
%AMRoundRect*
0 Rectangle with rounded corners*
0 $1 Rounding radius*
0 $2 $3 $4 $5 $6 $7 $8 $9 X,Y pos of 4 corners*
0 Add a 4 corners polygon primitive as box body*
4,1,4,$2,$3,$4,$5,$6,$7,$8,$9,$2,$3,0*
0 Add four circle primitives for the rounded corners*
1,1,$1+$1,$2,$3*
1,1,$1+$1,$4,$5*
1,1,$1+$1,$6,$7*
1,1,$1+$1,$8,$9*
0 Add four rect primitives between the rounded corners*
20,1,$1+$1,$2,$3,$4,$5,0*
20,1,$1+$1,$4,$5,$6,$7,0*
20,1,$1+$1,$6,$7,$8,$9,0*
20,1,$1+$1,$8,$9,$2,$3,0*%
G04 Aperture macros list end*
%TA.AperFunction,SMDPad,CuDef*%
%ADD10RoundRect,0.147500X0.172500X-0.147500X0.172500X0.147500X-0.172500X0.147500X-0.172500X-0.147500X0*%
%TD*%
%TA.AperFunction,SMDPad,CuDef*%
%ADD11RoundRect,0.140000X0.170000X-0.140000X0.170000X0.140000X-0.170000X0.140000X-0.170000X-0.140000X0*%
%TD*%
%TA.AperFunction,SMDPad,CuDef*%
%ADD12RoundRect,0.135000X0.185000X-0.135000X0.185000X0.135000X-0.185000X0.135000X-0.185000X-0.135000X0*%
%TD*%
%TA.AperFunction,SMDPad,CuDef*%
%ADD13RoundRect,0.147500X-0.147500X-0.172500X0.147500X-0.172500X0.147500X0.172500X-0.147500X0.172500X0*%
%TD*%
%TA.AperFunction,SMDPad,CuDef*%
%ADD14RoundRect,0.112500X-0.187500X-0.112500X0.187500X-0.112500X0.187500X0.112500X-0.187500X0.112500X0*%
%TD*%
%TA.AperFunction,SMDPad,CuDef*%
%ADD15RoundRect,0.140000X-0.140000X-0.170000X0.140000X-0.170000X0.140000X0.170000X-0.140000X0.170000X0*%
%TD*%
%TA.AperFunction,ComponentPad*%
%ADD16R,1.700000X1.700000*%
%TD*%
%TA.AperFunction,ComponentPad*%
%ADD17C,1.700000*%
%TD*%
%TA.AperFunction,SMDPad,CuDef*%
%ADD18RoundRect,0.250000X-0.450000X-0.350000X0.450000X-0.350000X0.450000X0.350000X-0.450000X0.350000X0*%
%TD*%
%TA.AperFunction,SMDPad,CuDef*%
%ADD19RoundRect,0.135000X-0.135000X-0.185000X0.135000X-0.185000X0.135000X0.185000X-0.135000X0.185000X0*%
%TD*%
%TA.AperFunction,SMDPad,CuDef*%
%ADD20RoundRect,0.093750X-0.093750X0.156250X-0.093750X-0.156250X0.093750X-0.156250X0.093750X0.156250X0*%
%TD*%
%TA.AperFunction,SMDPad,CuDef*%
%ADD21RoundRect,0.075000X-0.075000X0.250000X-0.075000X-0.250000X0.075000X-0.250000X0.075000X0.250000X0*%
%TD*%
%TA.AperFunction,SMDPad,CuDef*%
%ADD22RoundRect,0.075000X0.075000X-0.662500X0.075000X0.662500X-0.075000X0.662500X-0.075000X-0.662500X0*%
%TD*%
%TA.AperFunction,SMDPad,CuDef*%
%ADD23RoundRect,0.075000X0.662500X-0.075000X0.662500X0.075000X-0.662500X0.075000X-0.662500X-0.075000X0*%
%TD*%
%TA.AperFunction,SMDPad,CuDef*%
%ADD24RoundRect,0.093750X-0.093750X-0.106250X0.093750X-0.106250X0.093750X0.106250X-0.093750X0.106250X0*%
%TD*%
%TA.AperFunction,HeatsinkPad*%
%ADD25R,1.000000X1.600000*%
%TD*%
%TA.AperFunction,SMDPad,CuDef*%
%ADD26RoundRect,0.087500X-0.225000X-0.087500X0.225000X-0.087500X0.225000X0.087500X-0.225000X0.087500X0*%
%TD*%
%TA.AperFunction,SMDPad,CuDef*%
%ADD27RoundRect,0.087500X-0.087500X-0.225000X0.087500X-0.225000X0.087500X0.225000X-0.087500X0.225000X0*%
%TD*%
%TA.AperFunction,SMDPad,CuDef*%
%ADD28RoundRect,0.225000X-0.225000X-0.250000X0.225000X-0.250000X0.225000X0.250000X-0.225000X0.250000X0*%
%TD*%
%TA.AperFunction,ComponentPad*%
%ADD29C,0.720000*%
%TD*%
%TA.AperFunction,ComponentPad*%
%ADD30O,0.960000X2.460000*%
%TD*%
%TA.AperFunction,ComponentPad*%
%ADD31O,0.960000X1.760000*%
%TD*%
%TA.AperFunction,SMDPad,CuDef*%
%ADD32R,1.700000X0.900000*%
%TD*%
%TA.AperFunction,ViaPad*%
%ADD33C,0.600000*%
%TD*%
%TA.AperFunction,Conductor*%
%ADD34C,0.300000*%
%TD*%
%TA.AperFunction,Conductor*%
%ADD35C,0.225000*%
%TD*%
%TA.AperFunction,Conductor*%
%ADD36C,0.150000*%
%TD*%
%TA.AperFunction,Conductor*%
%ADD37C,0.200000*%
%TD*%
%TA.AperFunction,Conductor*%
%ADD38C,0.250000*%
%TD*%
%TA.AperFunction,Conductor*%
%ADD39C,0.125000*%
%TD*%
%TA.AperFunction,Conductor*%
%ADD40C,0.187400*%
%TD*%
%TA.AperFunction,Conductor*%
%ADD41C,0.112400*%
%TD*%
G04 APERTURE END LIST*
D10*
%TO.P,FB1,1*%
%TO.N,+3.3VA*%
X121565000Y-120934000D03*
%TO.P,FB1,2*%
%TO.N,+3.3V*%
X121565000Y-119964000D03*
%TD*%
D11*
%TO.P,C10,1*%
%TO.N,/HSE_IN*%
X112795000Y-123880000D03*
%TO.P,C10,2*%
%TO.N,GND*%
X112795000Y-122920000D03*
%TD*%
D12*
%TO.P,R1,1*%
%TO.N,/BOOT0*%
X109280000Y-117910000D03*
%TO.P,R1,2*%
%TO.N,GND*%
X109280000Y-116890000D03*
%TD*%
D13*
%TO.P,D3,1*%
%TO.N,/USER_LED_K*%
X111008000Y-109945000D03*
%TO.P,D3,2*%
%TO.N,+3.3V*%
X111978000Y-109945000D03*
%TD*%
D14*
%TO.P,D2,1*%
%TO.N,+5V*%
X123000000Y-105100000D03*
%TO.P,D2,2*%
%TO.N,VBUS*%
X125100000Y-105100000D03*
%TD*%
D15*
%TO.P,C15,1*%
%TO.N,+3.3V*%
X124627000Y-120401000D03*
%TO.P,C15,2*%
%TO.N,GND*%
X125587000Y-120401000D03*
%TD*%
D16*
%TO.P,J3,1*%
%TO.N,+3.3V*%
X102670000Y-101320000D03*
D17*
%TO.P,J3,2*%
%TO.N,GND*%
X105210000Y-101320000D03*
%TO.P,J3,3*%
%TO.N,/PA9*%
X102670000Y-103860000D03*
%TO.P,J3,4*%
%TO.N,/PA10*%
X105210000Y-103860000D03*
%TO.P,J3,5*%
%TO.N,/PA8*%
X102670000Y-106400000D03*
%TO.P,J3,6*%
%TO.N,/PA15*%
X105210000Y-106400000D03*
%TO.P,J3,7*%
%TO.N,/PA13*%
X102670000Y-108940000D03*
%TO.P,J3,8*%
%TO.N,/PA14*%
X105210000Y-108940000D03*
%TO.P,J3,9*%
%TO.N,/PB3*%
X102670000Y-111480000D03*
%TO.P,J3,10*%
%TO.N,/NRST*%
X105210000Y-111480000D03*
%TO.P,J3,11*%
%TO.N,/PB4*%
X102670000Y-114020000D03*
%TO.P,J3,12*%
%TO.N,/PB5*%
X105210000Y-114020000D03*
%TO.P,J3,13*%
%TO.N,/PB6*%
X102670000Y-116560000D03*
%TO.P,J3,14*%
%TO.N,/PB7*%
X105210000Y-116560000D03*
%TO.P,J3,15*%
%TO.N,/PB8*%
X102670000Y-119100000D03*
%TO.P,J3,16*%
%TO.N,/PB9*%
X105210000Y-119100000D03*
%TO.P,J3,17*%
%TO.N,/PC13*%
X102670000Y-121640000D03*
%TO.P,J3,18*%
%TO.N,/PC14*%
X105210000Y-121640000D03*
%TO.P,J3,19*%
%TO.N,/PC15*%
X102670000Y-124180000D03*
%TO.P,J3,20*%
%TO.N,GND*%
X105210000Y-124180000D03*
%TD*%
D18*
%TO.P,Y1,1*%
%TO.N,/HSE_IN*%
X114395000Y-124050000D03*
%TO.P,Y1,2*%
%TO.N,GND*%
X116595000Y-124050000D03*
%TO.P,Y1,3*%
%TO.N,/HSE_OUT*%
X116595000Y-122350000D03*
%TO.P,Y1,4*%
%TO.N,GND*%
X114395000Y-122350000D03*
%TD*%
D11*
%TO.P,C3,1*%
%TO.N,+3.3V*%
X112389000Y-111887000D03*
%TO.P,C3,2*%
%TO.N,GND*%
X112389000Y-110927000D03*
%TD*%
%TO.P,C2,1*%
%TO.N,+3.3V*%
X121350000Y-112480000D03*
%TO.P,C2,2*%
%TO.N,GND*%
X121350000Y-111520000D03*
%TD*%
D19*
%TO.P,R3,1*%
%TO.N,GND*%
X108600000Y-105170000D03*
%TO.P,R3,2*%
%TO.N,/PWR_LED_K*%
X109620000Y-105170000D03*
%TD*%
D20*
%TO.P,U3,1*%
%TO.N,/USB_D-*%
X116932500Y-108420000D03*
D21*
%TO.P,U3,2*%
%TO.N,GND*%
X116395000Y-108345000D03*
D20*
%TO.P,U3,3*%
%TO.N,/USB_D+*%
X115857500Y-108420000D03*
%TO.P,U3,4*%
X115857500Y-110120000D03*
D21*
%TO.P,U3,5*%
%TO.N,VBUS*%
X116395000Y-110195000D03*
D20*
%TO.P,U3,6*%
%TO.N,/USB_D-*%
X116932500Y-110120000D03*
%TD*%
D11*
%TO.P,C1,1*%
%TO.N,+3.3V*%
X112700000Y-121080000D03*
%TO.P,C1,2*%
%TO.N,GND*%
X112700000Y-120120000D03*
%TD*%
D22*
%TO.P,U1,1*%
%TO.N,+3.3V*%
X114245000Y-120362500D03*
%TO.P,U1,2*%
%TO.N,/PC13*%
X114745000Y-120362500D03*
%TO.P,U1,3*%
%TO.N,/PC14*%
X115245000Y-120362500D03*
%TO.P,U1,4*%
%TO.N,/PC15*%
X115745000Y-120362500D03*
%TO.P,U1,5*%
%TO.N,/HSE_IN*%
X116245000Y-120362500D03*
%TO.P,U1,6*%
%TO.N,/HSE_OUT*%
X116745000Y-120362500D03*
%TO.P,U1,7*%
%TO.N,/NRST*%
X117245000Y-120362500D03*
%TO.P,U1,8*%
%TO.N,GND*%
X117745000Y-120362500D03*
%TO.P,U1,9*%
%TO.N,+3.3VA*%
X118245000Y-120362500D03*
%TO.P,U1,10*%
%TO.N,/PA0*%
X118745000Y-120362500D03*
%TO.P,U1,11*%
%TO.N,/PA1*%
X119245000Y-120362500D03*
%TO.P,U1,12*%
%TO.N,/PA2*%
X119745000Y-120362500D03*
D23*
%TO.P,U1,13*%
%TO.N,/PA3*%
X121157500Y-118950000D03*
%TO.P,U1,14*%
%TO.N,/PA4*%
X121157500Y-118450000D03*
%TO.P,U1,15*%
%TO.N,/PA5*%
X121157500Y-117950000D03*
%TO.P,U1,16*%
%TO.N,/PA6*%
X121157500Y-117450000D03*
%TO.P,U1,17*%
%TO.N,/PA7*%
X121157500Y-116950000D03*
%TO.P,U1,18*%
%TO.N,/PB0*%
X121157500Y-116450000D03*
%TO.P,U1,19*%
%TO.N,/PB1*%
X121157500Y-115950000D03*
%TO.P,U1,20*%
%TO.N,/PB2*%
X121157500Y-115450000D03*
%TO.P,U1,21*%
%TO.N,/PB10*%
X121157500Y-114950000D03*
%TO.P,U1,22*%
%TO.N,/PB11*%
X121157500Y-114450000D03*
%TO.P,U1,23*%
%TO.N,GND*%
X121157500Y-113950000D03*
%TO.P,U1,24*%
%TO.N,+3.3V*%
X121157500Y-113450000D03*
D22*
%TO.P,U1,25*%
%TO.N,/PB12*%
X119745000Y-112037500D03*
%TO.P,U1,26*%
%TO.N,/PB13*%
X119245000Y-112037500D03*
%TO.P,U1,27*%
%TO.N,/PB14*%
X118745000Y-112037500D03*
%TO.P,U1,28*%
%TO.N,/PB15*%
X118245000Y-112037500D03*
%TO.P,U1,29*%
%TO.N,/PA8*%
X117745000Y-112037500D03*
%TO.P,U1,30*%
%TO.N,/PA9*%
X117245000Y-112037500D03*
%TO.P,U1,31*%
%TO.N,/PA10*%
X116745000Y-112037500D03*
%TO.P,U1,32*%
%TO.N,/USB_D-*%
X116245000Y-112037500D03*
%TO.P,U1,33*%
%TO.N,/USB_D+*%
X115745000Y-112037500D03*
%TO.P,U1,34*%
%TO.N,/PA13*%
X115245000Y-112037500D03*
%TO.P,U1,35*%
%TO.N,GND*%
X114745000Y-112037500D03*
%TO.P,U1,36*%
%TO.N,+3.3V*%
X114245000Y-112037500D03*
D23*
%TO.P,U1,37*%
%TO.N,/PA14*%
X112832500Y-113450000D03*
%TO.P,U1,38*%
%TO.N,/PA15*%
X112832500Y-113950000D03*
%TO.P,U1,39*%
%TO.N,/PB3*%
X112832500Y-114450000D03*
%TO.P,U1,40*%
%TO.N,/PB4*%
X112832500Y-114950000D03*
%TO.P,U1,41*%
%TO.N,/PB5*%
X112832500Y-115450000D03*
%TO.P,U1,42*%
%TO.N,/PB6*%
X112832500Y-115950000D03*
%TO.P,U1,43*%
%TO.N,/PB7*%
X112832500Y-116450000D03*
%TO.P,U1,44*%
%TO.N,/BOOT0*%
X112832500Y-116950000D03*
%TO.P,U1,45*%
%TO.N,/PB8*%
X112832500Y-117450000D03*
%TO.P,U1,46*%
%TO.N,/PB9*%
X112832500Y-117950000D03*
%TO.P,U1,47*%
%TO.N,GND*%
X112832500Y-118450000D03*
%TO.P,U1,48*%
%TO.N,+3.3V*%
X112832500Y-118950000D03*
%TD*%
D11*
%TO.P,C11,1*%
%TO.N,/HSE_OUT*%
X118195000Y-123680000D03*
%TO.P,C11,2*%
%TO.N,GND*%
X118195000Y-122720000D03*
%TD*%
D12*
%TO.P,R4,1*%
%TO.N,GND*%
X119164000Y-109726000D03*
%TO.P,R4,2*%
%TO.N,/USB_CC1*%
X119164000Y-108706000D03*
%TD*%
D24*
%TO.P,U2,1*%
%TO.N,+3.3V*%
X120207500Y-108650000D03*
%TO.P,U2,2*%
%TO.N,unconnected-(U2-NC-Pad2)*%
X120207500Y-109300000D03*
%TO.P,U2,3*%
%TO.N,GND*%
X120207500Y-109950000D03*
%TO.P,U2,4*%
%TO.N,+5V*%
X121982500Y-109950000D03*
%TO.P,U2,5*%
%TO.N,unconnected-(U2-NC-Pad5)*%
X121982500Y-109300000D03*
%TO.P,U2,6*%
%TO.N,+5V*%
X121982500Y-108650000D03*
D25*
%TO.P,U2,7*%
%TO.N,GND*%
X121095000Y-109300000D03*
%TD*%
D26*
%TO.P,U4,1*%
%TO.N,GND*%
X123037500Y-117309000D03*
%TO.P,U4,2*%
X123037500Y-117809000D03*
%TO.P,U4,3*%
X123037500Y-118309000D03*
%TO.P,U4,4*%
%TO.N,/PA0*%
X123037500Y-118809000D03*
D27*
%TO.P,U4,5*%
%TO.N,+3.3V*%
X123700000Y-118971500D03*
%TO.P,U4,6*%
%TO.N,GND*%
X124200000Y-118971500D03*
%TO.P,U4,7*%
X124700000Y-118971500D03*
D26*
%TO.P,U4,8*%
%TO.N,+3.3V*%
X125362500Y-118809000D03*
%TO.P,U4,9*%
%TO.N,unconnected-(U4-INT2-Pad9)*%
X125362500Y-118309000D03*
%TO.P,U4,10*%
%TO.N,unconnected-(U4-OCS_Aux-Pad10)*%
X125362500Y-117809000D03*
%TO.P,U4,11*%
%TO.N,unconnected-(U4-SDO_Aux-Pad11)*%
X125362500Y-117309000D03*
D27*
%TO.P,U4,12*%
%TO.N,+3.3V*%
X124700000Y-117146500D03*
%TO.P,U4,13*%
%TO.N,/PB6*%
X124200000Y-117146500D03*
%TO.P,U4,14*%
%TO.N,/PB7*%
X123700000Y-117146500D03*
%TD*%
D11*
%TO.P,C9,1*%
%TO.N,/NRST*%
X119295000Y-123080000D03*
%TO.P,C9,2*%
%TO.N,GND*%
X119295000Y-122120000D03*
%TD*%
D16*
%TO.P,J1,1*%
%TO.N,+5V*%
X128780000Y-101320000D03*
D17*
%TO.P,J1,2*%
%TO.N,GND*%
X131320000Y-101320000D03*
%TO.P,J1,3*%
%TO.N,/PB15*%
X128780000Y-103860000D03*
%TO.P,J1,4*%
%TO.N,/PB14*%
X131320000Y-103860000D03*
%TO.P,J1,5*%
%TO.N,/PB13*%
X128780000Y-106400000D03*
%TO.P,J1,6*%
%TO.N,/PB12*%
X131320000Y-106400000D03*
%TO.P,J1,7*%
%TO.N,/PB11*%
X128780000Y-108940000D03*
%TO.P,J1,8*%
%TO.N,/PB10*%
X131320000Y-108940000D03*
%TO.P,J1,9*%
%TO.N,/PB2*%
X128780000Y-111480000D03*
%TO.P,J1,10*%
%TO.N,/PB1*%
X131320000Y-111480000D03*
%TO.P,J1,11*%
%TO.N,/PB0*%
X128780000Y-114020000D03*
%TO.P,J1,12*%
%TO.N,/PA7*%
X131320000Y-114020000D03*
%TO.P,J1,13*%
%TO.N,/PA6*%
X128780000Y-116560000D03*
%TO.P,J1,14*%
%TO.N,/PA5*%
X131320000Y-116560000D03*
%TO.P,J1,15*%
%TO.N,/PA4*%
X128780000Y-119100000D03*
%TO.P,J1,16*%
%TO.N,/PA3*%
X131320000Y-119100000D03*
%TO.P,J1,17*%
%TO.N,/PA2*%
X128780000Y-121640000D03*
%TO.P,J1,18*%
%TO.N,/PA1*%
X131320000Y-121640000D03*
%TO.P,J1,19*%
%TO.N,/PA0*%
X128780000Y-124180000D03*
%TO.P,J1,20*%
%TO.N,+3.3V*%
X131320000Y-124180000D03*
%TD*%
D11*
%TO.P,C6,1*%
%TO.N,+3.3VA*%
X120395000Y-123080000D03*
%TO.P,C6,2*%
%TO.N,GND*%
X120395000Y-122120000D03*
%TD*%
D19*
%TO.P,R5,1*%
%TO.N,GND*%
X113301000Y-108601000D03*
%TO.P,R5,2*%
%TO.N,/USB_CC2*%
X114321000Y-108601000D03*
%TD*%
D15*
%TO.P,C14,1*%
%TO.N,+3.3V*%
X122631000Y-120420000D03*
%TO.P,C14,2*%
%TO.N,GND*%
X123591000Y-120420000D03*
%TD*%
%TO.P,C12,1*%
%TO.N,+5V*%
X122520000Y-106850000D03*
%TO.P,C12,2*%
%TO.N,GND*%
X123480000Y-106850000D03*
%TD*%
D28*
%TO.P,C5,1*%
%TO.N,+3.3V*%
X109105000Y-106750000D03*
%TO.P,C5,2*%
%TO.N,GND*%
X110655000Y-106750000D03*
%TD*%
D19*
%TO.P,R9,1*%
%TO.N,+3.3V*%
X108632000Y-120211000D03*
%TO.P,R9,2*%
%TO.N,/PB7*%
X109652000Y-120211000D03*
%TD*%
D29*
%TO.P,J2,A1*%
%TO.N,GND*%
X119970000Y-106625000D03*
%TO.P,J2,A4*%
%TO.N,VBUS*%
X119120000Y-106625000D03*
%TO.P,J2,A5*%
%TO.N,/USB_CC1*%
X118270000Y-106625000D03*
%TO.P,J2,A6*%
%TO.N,/USB_D+*%
X117420000Y-106625000D03*
%TO.P,J2,A7*%
%TO.N,/USB_D-*%
X116570000Y-106625000D03*
%TO.P,J2,A8*%
%TO.N,unconnected-(J2-SBU1-PadA8)*%
X115720000Y-106625000D03*
%TO.P,J2,A9*%
%TO.N,VBUS*%
X114870000Y-106625000D03*
%TO.P,J2,A12*%
%TO.N,GND*%
X114020000Y-106625000D03*
%TO.P,J2,B1*%
X114020000Y-105275000D03*
%TO.P,J2,B4*%
%TO.N,VBUS*%
X114870000Y-105275000D03*
%TO.P,J2,B5*%
%TO.N,/USB_CC2*%
X115720000Y-105275000D03*
%TO.P,J2,B6*%
%TO.N,/USB_D+*%
X116570000Y-105275000D03*
%TO.P,J2,B7*%
%TO.N,/USB_D-*%
X117420000Y-105275000D03*
%TO.P,J2,B8*%
%TO.N,unconnected-(J2-SBU2-PadB8)*%
X118270000Y-105275000D03*
%TO.P,J2,B9*%
%TO.N,VBUS*%
X119120000Y-105275000D03*
%TO.P,J2,B12*%
%TO.N,GND*%
X119970000Y-105275000D03*
D30*
%TO.P,J2,SH*%
X121320000Y-105645000D03*
D31*
X121320000Y-102265000D03*
D30*
X112670000Y-105645000D03*
D31*
X112670000Y-102265000D03*
%TD*%
D11*
%TO.P,C4,1*%
%TO.N,+3.3V*%
X110730000Y-119430000D03*
%TO.P,C4,2*%
%TO.N,GND*%
X110730000Y-118470000D03*
%TD*%
D32*
%TO.P,SW2,1*%
%TO.N,+3.3V*%
X109580000Y-115600000D03*
%TO.P,SW2,2*%
%TO.N,/BOOT0*%
X109580000Y-112200000D03*
%TD*%
D11*
%TO.P,C13,1*%
%TO.N,VBUS*%
X118106000Y-110387000D03*
%TO.P,C13,2*%
%TO.N,GND*%
X118106000Y-109427000D03*
%TD*%
D15*
%TO.P,C8,1*%
%TO.N,+3.3V*%
X124570000Y-106850000D03*
%TO.P,C8,2*%
%TO.N,GND*%
X125530000Y-106850000D03*
%TD*%
D13*
%TO.P,D1,1*%
%TO.N,/PWR_LED_K*%
X110845000Y-108526000D03*
%TO.P,D1,2*%
%TO.N,+3.3V*%
X111815000Y-108526000D03*
%TD*%
D32*
%TO.P,SW1,1*%
%TO.N,/NRST*%
X124423000Y-115386000D03*
%TO.P,SW1,2*%
%TO.N,GND*%
X124423000Y-111986000D03*
%TD*%
D11*
%TO.P,C7,1*%
%TO.N,+3.3VA*%
X121495000Y-123080000D03*
%TO.P,C7,2*%
%TO.N,GND*%
X121495000Y-122120000D03*
%TD*%
D12*
%TO.P,R8,1*%
%TO.N,/PB2*%
X123400000Y-109810000D03*
%TO.P,R8,2*%
%TO.N,GND*%
X123400000Y-108790000D03*
%TD*%
D19*
%TO.P,R7,1*%
%TO.N,+3.3V*%
X108499000Y-119074000D03*
%TO.P,R7,2*%
%TO.N,/PB6*%
X109519000Y-119074000D03*
%TD*%
%TO.P,R2,1*%
%TO.N,+3.3V*%
X113184000Y-109658000D03*
%TO.P,R2,2*%
%TO.N,/USB_D+*%
X114204000Y-109658000D03*
%TD*%
%TO.P,R6,1*%
%TO.N,/PC13*%
X110513000Y-105198000D03*
%TO.P,R6,2*%
%TO.N,/USER_LED_K*%
X111533000Y-105198000D03*
%TD*%
D33*
%TO.N,+3.3VA*%
X118495500Y-119172700D03*
X122249900Y-122312500D03*
X120569900Y-121093900D03*
%TO.N,+3.3V*%
X119554600Y-107997100D03*
X109348100Y-114703400D03*
X111452200Y-118873400D03*
X116388400Y-114237700D03*
X107773400Y-118348400D03*
X124665000Y-107687600D03*
X119115100Y-114214500D03*
%TO.N,GND*%
X114744999Y-100774999D03*
X116014999Y-100774999D03*
X114744999Y-103314999D03*
X119824999Y-100774999D03*
X114744999Y-122364999D03*
X126304900Y-119999700D03*
X123193200Y-116603900D03*
X112204999Y-103314999D03*
X117639600Y-115149100D03*
X116014999Y-103314999D03*
X112204999Y-122364999D03*
X117284999Y-100774999D03*
X118554999Y-122364999D03*
X113474999Y-103314999D03*
X117284999Y-103314999D03*
X119824999Y-103314999D03*
X127265800Y-114975000D03*
X118554999Y-100774999D03*
X108394999Y-100774999D03*
X113474999Y-100774999D03*
X117727700Y-124510500D03*
X108394999Y-122364999D03*
X122364999Y-100774999D03*
X112204999Y-100774999D03*
X114516000Y-110495000D03*
X130647600Y-115171500D03*
%TO.N,/USER_LED_K*%
X110428100Y-104396800D03*
X110428100Y-109365100D03*
%TO.N,VBUS*%
X117937100Y-108374300D03*
X124203100Y-104560400D03*
X116393400Y-109411700D03*
%TO.N,/PA9*%
X114885000Y-114030100D03*
%TO.N,/PA10*%
X115447600Y-113234800D03*
%TO.N,/PA8*%
X117082900Y-113496900D03*
%TO.N,/PA15*%
X114015400Y-113950000D03*
%TO.N,/PA13*%
X112418400Y-112849700D03*
%TO.N,/PA14*%
X111479500Y-113450000D03*
%TO.N,/PB3*%
X111649400Y-114213400D03*
%TO.N,/NRST*%
X106073800Y-117980600D03*
X124360500Y-114492500D03*
X116764200Y-119184600D03*
X122127100Y-123569300D03*
%TO.N,/PB4*%
X111647100Y-114950000D03*
%TO.N,/PB5*%
X114014300Y-115095100D03*
X110867400Y-111822900D03*
%TO.N,/PB6*%
X125942500Y-115432700D03*
X117059100Y-117057100D03*
X108522400Y-118077400D03*
X126944100Y-113933400D03*
X114060700Y-116258600D03*
X125705600Y-113910600D03*
%TO.N,/PB7*%
X110471600Y-114710100D03*
X115863700Y-117054100D03*
X126565200Y-116810900D03*
%TO.N,/PB8*%
X114006500Y-117497700D03*
%TO.N,/PB9*%
X111337300Y-117180600D03*
%TO.N,/PC13*%
X114033900Y-119178500D03*
X111489000Y-105974000D03*
%TO.N,/PC14*%
X115514700Y-118457000D03*
%TO.N,/PC15*%
X115496800Y-119191900D03*
%TO.N,/PWR_LED_K*%
X109814000Y-107957600D03*
X108867000Y-104417000D03*
%TO.N,/USB_D+*%
X115107100Y-108444300D03*
%TO.N,/PA0*%
X119970000Y-119182600D03*
%TO.N,/PA2*%
X120479100Y-120154400D03*
%TO.N,/PA3*%
X122343500Y-119183600D03*
%TO.N,/PA4*%
X119978400Y-118450000D03*
%TO.N,/PA6*%
X119982300Y-117649200D03*
%TO.N,/PA7*%
X118989300Y-117339700D03*
%TO.N,/PB1*%
X119987500Y-115951600D03*
%TO.N,/PB2*%
X119247900Y-115945800D03*
%TO.N,/PB11*%
X122327000Y-113641300D03*
%TO.N,/PB12*%
X120343900Y-111438600D03*
%TO.N,/PB13*%
X119745000Y-113223400D03*
%TO.N,/PB14*%
X120157700Y-110666500D03*
%TO.N,/PB15*%
X118851600Y-110546700D03*
%TD*%
%TO.N,+3.3VA*%
D34*
X121495000Y-123067400D02*
X121495000Y-123080000D01*
X118245000Y-119423200D02*
X118495500Y-119172700D01*
X118245000Y-120362500D02*
X118245000Y-119423200D01*
X122249900Y-122312500D02*
X121495000Y-123067400D01*
X121495000Y-123080000D02*
X120395000Y-123080000D01*
X121565000Y-120934000D02*
X121405100Y-121093900D01*
X121405100Y-121093900D02*
X120569900Y-121093900D01*
%TO.N,+3.3V*%
X123266700Y-121055700D02*
X123972300Y-121055700D01*
D35*
X109580000Y-115600000D02*
X109348100Y-115600000D01*
D34*
X122631000Y-120420000D02*
X122021000Y-120420000D01*
X127374200Y-120476100D02*
X127012700Y-120114600D01*
X103801700Y-106592900D02*
X104766700Y-107557900D01*
X124932000Y-116841200D02*
X125765400Y-116841200D01*
X131816100Y-120476100D02*
X127374200Y-120476100D01*
X121157500Y-112672500D02*
X121157500Y-113450000D01*
X111776800Y-111274800D02*
X112389000Y-111887000D01*
X125224800Y-120998800D02*
X126128500Y-120998800D01*
X102882300Y-102451700D02*
X103801700Y-103371100D01*
X112265000Y-109658000D02*
X111978000Y-109945000D01*
X113417500Y-119535000D02*
X113417500Y-120362500D01*
D35*
X125932500Y-118764500D02*
X125838400Y-118858600D01*
D34*
X119596000Y-114214500D02*
X119115100Y-114214500D01*
X112700000Y-121080000D02*
X113417500Y-120362500D01*
X132462900Y-121122900D02*
X131816100Y-120476100D01*
X111815000Y-108526000D02*
X112265000Y-108976000D01*
X120360500Y-113450000D02*
X119596000Y-114214500D01*
X111776800Y-110146200D02*
X111776800Y-111274800D01*
X108499000Y-120078000D02*
X108632000Y-120211000D01*
X125838400Y-118858600D02*
X125412100Y-118858600D01*
X109348100Y-114703400D02*
X109348100Y-115600000D01*
X111682500Y-111887000D02*
X111682500Y-111815300D01*
X112352500Y-119430000D02*
X112832500Y-118950000D01*
X124570000Y-107592600D02*
X124665000Y-107687600D01*
X132451700Y-119840500D02*
X131816100Y-120476100D01*
X122631000Y-120420000D02*
X123266700Y-121055700D01*
X109105000Y-109237800D02*
X109105000Y-106750000D01*
X103801700Y-103371100D02*
X103801700Y-106592900D01*
X111682500Y-112369000D02*
X111682500Y-111887000D01*
X122021000Y-120420000D02*
X121565000Y-119964000D01*
D35*
X125838400Y-118858600D02*
X125838400Y-118964100D01*
D34*
X125412100Y-118858600D02*
X125362500Y-118809000D01*
X102670000Y-101320000D02*
X102670000Y-102451700D01*
X110730000Y-119430000D02*
X112352500Y-119430000D01*
X121350000Y-112480000D02*
X121157500Y-112672500D01*
X111286600Y-118873400D02*
X111452200Y-118873400D01*
X113417500Y-120362500D02*
X114245000Y-120362500D01*
X112389000Y-111887000D02*
X114094500Y-111887000D01*
X124627000Y-120401000D02*
X125224800Y-120998800D01*
X124700000Y-117146500D02*
X124700000Y-117073200D01*
X132462900Y-123037100D02*
X132462900Y-121122900D01*
X122631000Y-120420000D02*
X123700000Y-119351000D01*
X120207500Y-108650000D02*
X119554600Y-107997100D01*
X102670000Y-102451700D02*
X102882300Y-102451700D01*
X125765400Y-116841200D02*
X125980200Y-117056000D01*
X124665000Y-107687600D02*
X131737300Y-107687600D01*
X112832500Y-118950000D02*
X113417500Y-119535000D01*
X109348100Y-114703400D02*
X111682500Y-112369000D01*
X111978000Y-109945000D02*
X111776800Y-110146200D01*
X104766700Y-107557900D02*
X108297100Y-107557900D01*
X127012700Y-120114600D02*
X127012700Y-119872000D01*
X112265000Y-108976000D02*
X112265000Y-109658000D01*
X127012700Y-119872000D02*
X126104800Y-118964100D01*
X126128500Y-120998800D02*
X127012700Y-120114600D01*
X121157500Y-113450000D02*
X120360500Y-113450000D01*
X110730000Y-119430000D02*
X111286600Y-118873400D01*
X131737300Y-107687600D02*
X132451700Y-108402000D01*
X119115100Y-114237700D02*
X119115100Y-114214500D01*
X123700000Y-119351000D02*
X123700000Y-118971500D01*
X111682500Y-111815300D02*
X109105000Y-109237800D01*
X126104800Y-118964100D02*
X125838400Y-118964100D01*
X132451700Y-108402000D02*
X132451700Y-119840500D01*
X124700000Y-117073200D02*
X124932000Y-116841200D01*
X108297100Y-107557900D02*
X109105000Y-106750000D01*
X125980200Y-118716800D02*
X125932500Y-118764500D01*
X113184000Y-109658000D02*
X112265000Y-109658000D01*
X124570000Y-106850000D02*
X124570000Y-107592600D01*
X108499000Y-119074000D02*
X107773400Y-118348400D01*
X114094500Y-111887000D02*
X114245000Y-112037500D01*
X108499000Y-119074000D02*
X108499000Y-120078000D01*
X125980200Y-117056000D02*
X125980200Y-118716800D01*
X116388400Y-114237700D02*
X119115100Y-114237700D01*
X123972300Y-121055700D02*
X124627000Y-120401000D01*
X112389000Y-111887000D02*
X111682500Y-111887000D01*
X131320000Y-124180000D02*
X132462900Y-123037100D01*
%TO.N,/HSE_IN*%
D36*
X116245000Y-120600000D02*
X116245000Y-120362500D01*
D37*
X116245000Y-121350000D02*
X113400000Y-121350000D01*
X113400000Y-121350000D02*
X113400000Y-124050000D01*
X113400000Y-124050000D02*
X114395000Y-124050000D01*
X113400000Y-123880000D02*
X112795000Y-123880000D01*
X116245000Y-120600000D02*
X116245000Y-121350000D01*
%TO.N,GND*%
D38*
X124700000Y-119386700D02*
X124700000Y-118971500D01*
X114516000Y-110795900D02*
X114384900Y-110927000D01*
X110883300Y-118316700D02*
X110730000Y-118470000D01*
X122845900Y-111222900D02*
X122845900Y-110559300D01*
X112832500Y-118450000D02*
X111816200Y-118450000D01*
X111682900Y-118316700D02*
X110883300Y-118316700D01*
X121495000Y-122120000D02*
X120395000Y-122120000D01*
X105210000Y-124180000D02*
X106905800Y-124180000D01*
X124906800Y-106226800D02*
X124103200Y-106226800D01*
X115020800Y-117887500D02*
X116116200Y-117887500D01*
X112700000Y-120120000D02*
X112117600Y-120702400D01*
X124423000Y-111986000D02*
X124423000Y-111279300D01*
D39*
X122879400Y-109715200D02*
X122879400Y-109458100D01*
D40*
X110149900Y-119453200D02*
X110045800Y-119557300D01*
D38*
X120436100Y-113950000D02*
X119237000Y-115149100D01*
D39*
X122845900Y-109748700D02*
X122879400Y-109715200D01*
D38*
X119970000Y-106625000D02*
X121095000Y-107750000D01*
X123865200Y-120145800D02*
X124012500Y-120145800D01*
X120395000Y-122120000D02*
X119295000Y-122120000D01*
X124200000Y-118971500D02*
X124700000Y-118971500D01*
X121350000Y-111520000D02*
X121350000Y-111491200D01*
X116887500Y-118197500D02*
X117639600Y-117445400D01*
X112670000Y-105645000D02*
X113650000Y-105645000D01*
X114384900Y-110927000D02*
X112389000Y-110927000D01*
X120324500Y-110067000D02*
X120207500Y-109950000D01*
X120831000Y-110047000D02*
X120819900Y-110058100D01*
X114458300Y-118450000D02*
X115020800Y-117887500D01*
X123037500Y-118309000D02*
X123037500Y-117809000D01*
X111816200Y-118450000D02*
X111682900Y-118316700D01*
X125903600Y-120401000D02*
X126304900Y-119999700D01*
X118405000Y-109726000D02*
X118106000Y-109427000D01*
X114395000Y-122350000D02*
X114895000Y-122350000D01*
X121320000Y-102265000D02*
X112670000Y-102265000D01*
X122845900Y-111222900D02*
X124366600Y-111222900D01*
X110149900Y-119050100D02*
X110149900Y-119137300D01*
X110655000Y-106750000D02*
X111565000Y-106750000D01*
X118727500Y-122120000D02*
X118727500Y-122187500D01*
X111565000Y-106750000D02*
X112670000Y-105645000D01*
X121618300Y-110373000D02*
X121292300Y-110047000D01*
X114516000Y-110495000D02*
X114516000Y-110795900D01*
X121320000Y-105645000D02*
X120340000Y-105645000D01*
X124105200Y-119860600D02*
X124226100Y-119860600D01*
X118727500Y-122187500D02*
X118195000Y-122720000D01*
D36*
X122845900Y-110559300D02*
X122845900Y-109748700D01*
D38*
X121292300Y-110047000D02*
X120831000Y-110047000D01*
X114020000Y-106625000D02*
X114020000Y-106703200D01*
X120353900Y-110067000D02*
X120324500Y-110067000D01*
D40*
X110149900Y-119137300D02*
X110149900Y-119453200D01*
D38*
X106905800Y-124180000D02*
X110560200Y-120525600D01*
X113650000Y-105645000D02*
X114020000Y-105275000D01*
X105210000Y-101320000D02*
X105210000Y-101780000D01*
D40*
X122879400Y-109458100D02*
X122879400Y-108667500D01*
D38*
X121618300Y-111222900D02*
X122845900Y-111222900D01*
X115508200Y-107292600D02*
X114609400Y-107292600D01*
X121095000Y-109300000D02*
X121075000Y-109320000D01*
X117745000Y-121137500D02*
X118727500Y-122120000D01*
X119164000Y-109726000D02*
X118405000Y-109726000D01*
X119237000Y-115149100D02*
X117639600Y-115149100D01*
X114020000Y-106703200D02*
X114609400Y-107292600D01*
X105210000Y-101780000D02*
X108600000Y-105170000D01*
X123400000Y-108667500D02*
X123400000Y-106930000D01*
X121157500Y-113950000D02*
X120436100Y-113950000D01*
X121075000Y-109320000D02*
X121075000Y-109755600D01*
X130184500Y-102455500D02*
X128557500Y-102455500D01*
X110560200Y-120525600D02*
X111940800Y-120525600D01*
X110560200Y-120525600D02*
X110560200Y-120188000D01*
D40*
X120401900Y-109755600D02*
X120207500Y-109950000D01*
D38*
X116395000Y-108345000D02*
X116395000Y-108179400D01*
X127265800Y-114975000D02*
X127462300Y-115171500D01*
D40*
X124012500Y-120145800D02*
X124105200Y-120053100D01*
D38*
X124366600Y-111222900D02*
X124423000Y-111279300D01*
X119388000Y-109950000D02*
X119164000Y-109726000D01*
X120207500Y-109950000D02*
X119388000Y-109950000D01*
X124636400Y-119450300D02*
X125587000Y-120401000D01*
X114895000Y-122350000D02*
X116595000Y-124050000D01*
X120819900Y-110058100D02*
X120362800Y-110058100D01*
X125587000Y-120401000D02*
X125903600Y-120401000D01*
X124226100Y-119860600D02*
X124636400Y-119450300D01*
X117745000Y-120362500D02*
X117745000Y-121137500D01*
X110730000Y-118470000D02*
X110149900Y-119050100D01*
X123037500Y-117309000D02*
X123037500Y-116759600D01*
X121095000Y-107750000D02*
X121095000Y-109300000D01*
X121350000Y-111491200D02*
X121618300Y-111222900D01*
X116595000Y-124050000D02*
X117055500Y-124510500D01*
X108600000Y-105170000D02*
X109314400Y-105884400D01*
X123037500Y-117809000D02*
X123037500Y-117309000D01*
X117639600Y-117445400D02*
X117639600Y-115149100D01*
X114384900Y-110927000D02*
X114745000Y-111287100D01*
X111940800Y-120525600D02*
X112117600Y-120702400D01*
X116426200Y-118197500D02*
X116887500Y-118197500D01*
X112117600Y-122242600D02*
X112795000Y-122920000D01*
X110045800Y-119673600D02*
X110045800Y-119557300D01*
X121618300Y-111222900D02*
X121618300Y-110373000D01*
X123400000Y-106930000D02*
X123480000Y-106850000D01*
X124636400Y-119450300D02*
X124700000Y-119386700D01*
X127022600Y-103990400D02*
X127022600Y-104111000D01*
X117745000Y-120362500D02*
X117745000Y-119055000D01*
X109280000Y-117020000D02*
X110730000Y-118470000D01*
X125530000Y-106850000D02*
X124906800Y-106226800D01*
X110560200Y-120188000D02*
X110045800Y-119673600D01*
X120340000Y-105645000D02*
X119970000Y-105275000D01*
X123400000Y-108790000D02*
X123400000Y-108667500D01*
X124103200Y-106226800D02*
X123480000Y-106850000D01*
X109314400Y-105884400D02*
X109789400Y-105884400D01*
X112117600Y-120702400D02*
X112117600Y-122242600D01*
X127022600Y-104111000D02*
X124906800Y-106226800D01*
X117055500Y-124510500D02*
X117727700Y-124510500D01*
D40*
X124105200Y-120053100D02*
X124105200Y-119860600D01*
D38*
X131320000Y-101320000D02*
X130184500Y-102455500D01*
X109280000Y-116890000D02*
X109280000Y-117020000D01*
X117745000Y-119055000D02*
X116887500Y-118197500D01*
X123037500Y-116759600D02*
X123193200Y-116603900D01*
X114609400Y-107292600D02*
X113301000Y-108601000D01*
X118727500Y-122120000D02*
X119295000Y-122120000D01*
X120362800Y-110058100D02*
X120353900Y-110067000D01*
D40*
X121075000Y-109755600D02*
X120401900Y-109755600D01*
D38*
X123591000Y-120420000D02*
X123865200Y-120145800D01*
X116395000Y-108179400D02*
X115508200Y-107292600D01*
X127462300Y-115171500D02*
X130647600Y-115171500D01*
X122879400Y-108667500D02*
X123400000Y-108667500D01*
X116116200Y-117887500D02*
X116426200Y-118197500D01*
X128557500Y-102455500D02*
X127022600Y-103990400D01*
X114745000Y-111287100D02*
X114745000Y-112037500D01*
X109789400Y-105884400D02*
X110655000Y-106750000D01*
X112832500Y-118450000D02*
X114458300Y-118450000D01*
%TO.N,/BOOT0*%
D36*
X108657800Y-116630500D02*
X108529800Y-116630500D01*
X111287700Y-116414300D02*
X110788900Y-116414300D01*
X112832500Y-116950000D02*
X111823400Y-116950000D01*
X111823400Y-116950000D02*
X111287700Y-116414300D01*
X109580000Y-112200000D02*
X109580000Y-112856700D01*
X108417400Y-115178600D02*
X108417400Y-114019300D01*
X108657800Y-117287800D02*
X108657800Y-116772200D01*
D41*
X108657800Y-116772200D02*
X108657800Y-116630500D01*
D36*
X108417400Y-114019300D02*
X109580000Y-112856700D01*
X108529800Y-116630500D02*
X108417400Y-116518100D01*
D41*
X108417400Y-116518100D02*
X108417400Y-116414300D01*
X108417400Y-116414300D02*
X108417400Y-115178600D01*
D36*
X109280000Y-117910000D02*
X108657800Y-117287800D01*
D41*
X110788900Y-116414300D02*
X108417400Y-116414300D01*
%TO.N,/USER_LED_K*%
D36*
X111008000Y-109945000D02*
X110428100Y-109365100D01*
X111533000Y-105198000D02*
X110731800Y-104396800D01*
X110731800Y-104396800D02*
X110428100Y-104396800D01*
%TO.N,+5V*%
D34*
X123000000Y-105100000D02*
X123000000Y-104929300D01*
X122520000Y-105580000D02*
X123000000Y-105100000D01*
D35*
X122151900Y-109780600D02*
X121982500Y-109950000D01*
D34*
X123000000Y-104929300D02*
X123972100Y-103957200D01*
X123972100Y-103957200D02*
X125011100Y-103957200D01*
X122520000Y-106850000D02*
X122520000Y-105580000D01*
X121982500Y-108650000D02*
X122114200Y-108650000D01*
X122114200Y-108650000D02*
X122474200Y-109010000D01*
X125011100Y-103957200D02*
X127648300Y-101320000D01*
X122474200Y-109010000D02*
X122474200Y-109780600D01*
X128780000Y-101320000D02*
X127648300Y-101320000D01*
D35*
X122474200Y-109780600D02*
X122151900Y-109780600D01*
D34*
X122114200Y-107255800D02*
X122114200Y-108650000D01*
X122520000Y-106850000D02*
X122114200Y-107255800D01*
%TO.N,VBUS*%
X118515600Y-104590600D02*
X115473800Y-104590600D01*
X124560400Y-104560400D02*
X124203100Y-104560400D01*
X117502400Y-109783400D02*
X117502400Y-108809000D01*
X115473800Y-104590600D02*
X114870000Y-105194400D01*
X119120000Y-105195000D02*
X118515600Y-104590600D01*
X116395000Y-109413300D02*
X116393400Y-109411700D01*
X114870000Y-105194400D02*
X114870000Y-105275000D01*
X125100000Y-105100000D02*
X124560400Y-104560400D01*
X118106000Y-110387000D02*
X117502400Y-109783400D01*
X119120000Y-105275000D02*
X119120000Y-105195000D01*
X116395000Y-110195000D02*
X116395000Y-109413300D01*
X117502400Y-108809000D02*
X117937100Y-108374300D01*
%TO.N,/PA9*%
D36*
X116873000Y-112990200D02*
X115833100Y-114030100D01*
X115833100Y-114030100D02*
X114885000Y-114030100D01*
X116981100Y-112990200D02*
X116873000Y-112990200D01*
X117245000Y-112037500D02*
X117245000Y-112726300D01*
X117245000Y-112726300D02*
X116981100Y-112990200D01*
%TO.N,/PA10*%
X116745000Y-112673800D02*
X116184000Y-113234800D01*
X116184000Y-113234800D02*
X115447600Y-113234800D01*
X116745000Y-112037500D02*
X116745000Y-112673800D01*
%TO.N,/PA8*%
X117745000Y-112037500D02*
X117745000Y-112834800D01*
X117745000Y-112834800D02*
X117082900Y-113496900D01*
%TO.N,/PA15*%
X112832500Y-113950000D02*
X114015400Y-113950000D01*
%TO.N,/PA13*%
X114908200Y-113014700D02*
X112583400Y-113014700D01*
X112583400Y-113014700D02*
X112418400Y-112849700D01*
X115245000Y-112677900D02*
X114908200Y-113014700D01*
X115245000Y-112037500D02*
X115245000Y-112677900D01*
%TO.N,/PA14*%
X112832500Y-113450000D02*
X111479500Y-113450000D01*
%TO.N,/PB3*%
X112832500Y-114450000D02*
X111886000Y-114450000D01*
X111886000Y-114450000D02*
X111649400Y-114213400D01*
%TO.N,/NRST*%
X102403400Y-115290000D02*
X102914400Y-115290000D01*
X101613300Y-116080100D02*
X102403400Y-115290000D01*
X119784300Y-123569300D02*
X122127100Y-123569300D01*
X117245000Y-119665400D02*
X117245000Y-120362500D01*
X124423000Y-114555000D02*
X124360500Y-114492500D01*
X103940000Y-114264400D02*
X103940000Y-112750000D01*
X101613300Y-117052500D02*
X101613300Y-116080100D01*
X116764200Y-119184600D02*
X117245000Y-119665400D01*
X119295000Y-123080000D02*
X119784300Y-123569300D01*
X106073800Y-117980600D02*
X102541400Y-117980600D01*
X124423000Y-114729300D02*
X124423000Y-114555000D01*
X103940000Y-112750000D02*
X105210000Y-111480000D01*
X124423000Y-115386000D02*
X124423000Y-114729300D01*
X102541400Y-117980600D02*
X101613300Y-117052500D01*
X102914400Y-115290000D02*
X103940000Y-114264400D01*
%TO.N,/PB4*%
X112832500Y-114950000D02*
X111647100Y-114950000D01*
%TO.N,/PB5*%
X107691500Y-111538500D02*
X105210000Y-114020000D01*
X110583000Y-111538500D02*
X107691500Y-111538500D01*
X110867400Y-111822900D02*
X110583000Y-111538500D01*
X112832500Y-115450000D02*
X113659400Y-115450000D01*
X113659400Y-115450000D02*
X114014300Y-115095100D01*
%TO.N,/PB6*%
X105906300Y-115461300D02*
X108522400Y-118077400D01*
X108522400Y-118077400D02*
X109519000Y-119074000D01*
X103768700Y-115461300D02*
X105906300Y-115461300D01*
X114060700Y-116258600D02*
X113752100Y-115950000D01*
X125942500Y-115544500D02*
X125942500Y-115432700D01*
X102670000Y-116560000D02*
X103768700Y-115461300D01*
X124852200Y-116203000D02*
X125284000Y-116203000D01*
X125705600Y-113910600D02*
X125728400Y-113933400D01*
X124200000Y-117146500D02*
X124200000Y-116855200D01*
X116260600Y-116258600D02*
X114060700Y-116258600D01*
X124200000Y-116855200D02*
X124852200Y-116203000D01*
X125728400Y-113933400D02*
X126944100Y-113933400D01*
X125284000Y-116203000D02*
X125942500Y-115544500D01*
X113752100Y-115950000D02*
X112832500Y-115950000D01*
X117059100Y-117057100D02*
X116260600Y-116258600D01*
%TO.N,/PB7*%
X106858200Y-118048300D02*
X105369900Y-116560000D01*
X105369900Y-116560000D02*
X105210000Y-116560000D01*
D41*
X108436700Y-120736700D02*
X108573200Y-120873200D01*
D36*
X126449300Y-116695000D02*
X126565200Y-116810900D01*
X115774100Y-116964500D02*
X114015300Y-116964500D01*
X123366300Y-115921700D02*
X123366300Y-114766500D01*
X123366300Y-114766500D02*
X124147900Y-113984900D01*
X112155100Y-116450000D02*
X110471600Y-114766500D01*
X106858200Y-119267300D02*
X106858200Y-118048300D01*
D41*
X108284000Y-120693100D02*
X108284000Y-120724200D01*
D36*
X126449300Y-115222700D02*
X126449300Y-116695000D01*
X108573200Y-120873200D02*
X108989800Y-120873200D01*
X115863700Y-117054100D02*
X115774100Y-116964500D01*
X124147900Y-113984900D02*
X124664600Y-113984900D01*
X113500800Y-116450000D02*
X112832500Y-116450000D01*
X108989800Y-120873200D02*
X109652000Y-120211000D01*
X124664600Y-113984900D02*
X125471400Y-114791700D01*
D41*
X108296500Y-120736700D02*
X108436700Y-120736700D01*
D36*
X114015300Y-116964500D02*
X113500800Y-116450000D01*
X108284000Y-120724200D02*
X108296500Y-120736700D01*
X125471400Y-114791700D02*
X126018300Y-114791700D01*
X112832500Y-116450000D02*
X112155100Y-116450000D01*
X110471600Y-114766500D02*
X110471600Y-114710100D01*
D41*
X108255700Y-120664800D02*
X108284000Y-120693100D01*
D36*
X108255700Y-120664800D02*
X106858200Y-119267300D01*
X123700000Y-116255400D02*
X123366300Y-115921700D01*
X123700000Y-117146500D02*
X123700000Y-116255400D01*
X126018300Y-114791700D02*
X126449300Y-115222700D01*
%TO.N,/PB8*%
X113958800Y-117450000D02*
X114006500Y-117497700D01*
X112832500Y-117450000D02*
X113958800Y-117450000D01*
%TO.N,/PB9*%
X112106700Y-117950000D02*
X111337300Y-117180600D01*
X112832500Y-117950000D02*
X112106700Y-117950000D01*
%TO.N,/PC13*%
X110513000Y-105198000D02*
X110713000Y-105198000D01*
X110713000Y-105198000D02*
X111489000Y-105974000D01*
X114745000Y-120362500D02*
X114745000Y-119632700D01*
X114290800Y-119178500D02*
X114033900Y-119178500D01*
X114745000Y-119632700D02*
X114290800Y-119178500D01*
%TO.N,/PC14*%
X115245000Y-120362500D02*
X115245000Y-119656700D01*
X114990100Y-119401800D02*
X114990100Y-118981600D01*
X115245000Y-119656700D02*
X114990100Y-119401800D01*
X114990100Y-118981600D02*
X115514700Y-118457000D01*
%TO.N,/PC15*%
X115745000Y-119440100D02*
X115496800Y-119191900D01*
X115745000Y-120362500D02*
X115745000Y-119440100D01*
%TO.N,/HSE_OUT*%
D37*
X116745000Y-120600000D02*
X116745000Y-122350000D01*
X117590000Y-123680000D02*
X118195000Y-123680000D01*
X117590000Y-122350000D02*
X117590000Y-123680000D01*
X116745000Y-122350000D02*
X116595000Y-122350000D01*
X116595000Y-122350000D02*
X117590000Y-122350000D01*
D36*
X116745000Y-120600000D02*
X116745000Y-120362500D01*
X116595000Y-122350000D02*
X116745000Y-122350000D01*
%TO.N,/PWR_LED_K*%
X109620000Y-105170000D02*
X108867000Y-104417000D01*
X109814000Y-107957600D02*
X110276600Y-107957600D01*
X110276600Y-107957600D02*
X110845000Y-108526000D01*
%TO.N,/USB_D-*%
X116245000Y-111374600D02*
X116932500Y-110687100D01*
X116245000Y-112037500D02*
X116245000Y-111374600D01*
X116570000Y-106625000D02*
X116932500Y-106987500D01*
X116932500Y-108420000D02*
X116932500Y-110120000D01*
X116932500Y-110687100D02*
X116932500Y-110120000D01*
X116932500Y-106987500D02*
X116932500Y-108420000D01*
%TO.N,/USB_D+*%
X115107100Y-108444300D02*
X115131400Y-108420000D01*
X115170500Y-109658000D02*
X114204000Y-109658000D01*
X115745000Y-110232500D02*
X115857500Y-110120000D01*
X115745000Y-110232500D02*
X115170500Y-109658000D01*
X116570000Y-105275000D02*
X116570000Y-105775000D01*
X116570000Y-105775000D02*
X117420000Y-106625000D01*
X115857500Y-110120000D02*
X115857500Y-108420000D01*
X115745000Y-112037500D02*
X115745000Y-110232500D01*
X115131400Y-108420000D02*
X115857500Y-108420000D01*
%TO.N,/PA0*%
X122125700Y-119694400D02*
X121791000Y-119359700D01*
X119970000Y-119359700D02*
X119970000Y-119182600D01*
X118745000Y-119680200D02*
X118745000Y-120362500D01*
X122618800Y-119694400D02*
X122125700Y-119694400D01*
X121791000Y-119359700D02*
X119970000Y-119359700D01*
X123037500Y-119275700D02*
X122618800Y-119694400D01*
X119065500Y-119359700D02*
X118745000Y-119680200D01*
X119970000Y-119359700D02*
X119065500Y-119359700D01*
X123037500Y-118809000D02*
X123037500Y-119275700D01*
%TO.N,/PA1*%
X119245000Y-121058100D02*
X119803900Y-121617000D01*
X126798900Y-121617000D02*
X127933100Y-122751200D01*
X119245000Y-120362500D02*
X119245000Y-121058100D01*
X119803900Y-121617000D02*
X126798900Y-121617000D01*
X127933100Y-122751200D02*
X130208800Y-122751200D01*
X130208800Y-122751200D02*
X131320000Y-121640000D01*
%TO.N,/PA2*%
X119745000Y-120362500D02*
X120271000Y-120362500D01*
X120271000Y-120362500D02*
X120479100Y-120154400D01*
%TO.N,/PA3*%
X121157500Y-118950000D02*
X122109900Y-118950000D01*
X122109900Y-118950000D02*
X122343500Y-119183600D01*
%TO.N,/PA4*%
X121157500Y-118450000D02*
X119978400Y-118450000D01*
%TO.N,/PA5*%
X127048800Y-115503300D02*
X130261900Y-115503300D01*
X124031100Y-113703200D02*
X124781400Y-113703200D01*
X124781400Y-113703200D02*
X125588200Y-114510000D01*
X122588200Y-116080600D02*
X122588200Y-115146100D01*
X122342400Y-116326400D02*
X122588200Y-116080600D01*
X121799200Y-117950000D02*
X122342400Y-117406800D01*
X122342400Y-117406800D02*
X122342400Y-116326400D01*
X130261900Y-115503300D02*
X131318600Y-116560000D01*
X121157500Y-117950000D02*
X121799200Y-117950000D01*
X126731000Y-115185500D02*
X127048800Y-115503300D01*
X122588200Y-115146100D02*
X124031100Y-113703200D01*
X125588200Y-114510000D02*
X126135100Y-114510000D01*
X131318600Y-116560000D02*
X131320000Y-116560000D01*
X126731000Y-115105900D02*
X126731000Y-115185500D01*
X126135100Y-114510000D02*
X126731000Y-115105900D01*
%TO.N,/PA6*%
X120181500Y-117450000D02*
X119982300Y-117649200D01*
X121157500Y-117450000D02*
X120181500Y-117450000D01*
%TO.N,/PA7*%
X119379000Y-116950000D02*
X118989300Y-117339700D01*
X121157500Y-116950000D02*
X119379000Y-116950000D01*
%TO.N,/PB0*%
X123931900Y-113403900D02*
X122258300Y-115077500D01*
X122258300Y-115986600D02*
X121794900Y-116450000D01*
X122258300Y-115077500D02*
X122258300Y-115986600D01*
X128163900Y-113403900D02*
X123931900Y-113403900D01*
X128780000Y-114020000D02*
X128163900Y-113403900D01*
X121794900Y-116450000D02*
X121157500Y-116450000D01*
%TO.N,/PB1*%
X119989100Y-115950000D02*
X119987500Y-115951600D01*
X121157500Y-115950000D02*
X119989100Y-115950000D01*
%TO.N,/PB2*%
X121157500Y-115450000D02*
X121152300Y-115444800D01*
X127110000Y-109810000D02*
X128780000Y-111480000D01*
X119748900Y-115444800D02*
X119247900Y-115945800D01*
X123400000Y-109810000D02*
X127110000Y-109810000D01*
X121152300Y-115444800D02*
X119748900Y-115444800D01*
%TO.N,/PB10*%
X121157500Y-114950000D02*
X121858900Y-114950000D01*
X124058900Y-112750000D02*
X129036900Y-112750000D01*
X130050100Y-111736800D02*
X130050100Y-110209900D01*
X130050100Y-110209900D02*
X131320000Y-108940000D01*
X121858900Y-114950000D02*
X124058900Y-112750000D01*
X129036900Y-112750000D02*
X130050100Y-111736800D01*
%TO.N,/PB11*%
X121793800Y-114450000D02*
X121157500Y-114450000D01*
X122327000Y-113916800D02*
X121793800Y-114450000D01*
X122327000Y-113641300D02*
X122327000Y-113916800D01*
%TO.N,/PB12*%
X119745000Y-112037500D02*
X120343900Y-111438600D01*
%TO.N,/PB13*%
X119245000Y-112723400D02*
X119745000Y-113223400D01*
X119245000Y-112037500D02*
X119245000Y-112723400D01*
%TO.N,/PB14*%
X118745000Y-111385100D02*
X119463600Y-110666500D01*
X119463600Y-110666500D02*
X120157700Y-110666500D01*
X118745000Y-112037500D02*
X118745000Y-111385100D01*
%TO.N,/PB15*%
X118245000Y-112037500D02*
X118245000Y-111153300D01*
X118245000Y-111153300D02*
X118851600Y-110546700D01*
%TO.N,/USB_CC1*%
X119164000Y-108706000D02*
X118270000Y-107812000D01*
X118270000Y-107812000D02*
X118270000Y-106625000D01*
%TO.N,/USB_CC2*%
X112620200Y-108722000D02*
X112620200Y-108823200D01*
X113405000Y-106428500D02*
X113405000Y-107635800D01*
D41*
X113752500Y-109129500D02*
X113767500Y-109114500D01*
D36*
X112926500Y-109129500D02*
X113457300Y-109129500D01*
X114995200Y-105999800D02*
X113833700Y-105999800D01*
X115720000Y-105275000D02*
X114995200Y-105999800D01*
X113807500Y-109114500D02*
X114321000Y-108601000D01*
D41*
X113457300Y-109129500D02*
X113752500Y-109129500D01*
D36*
X113405000Y-107635800D02*
X112825300Y-108215500D01*
X113767500Y-109114500D02*
X113807500Y-109114500D01*
D41*
X112825300Y-108215500D02*
X112825300Y-108516900D01*
D36*
X113833700Y-105999800D02*
X113405000Y-106428500D01*
D41*
X112825300Y-108516900D02*
X112620200Y-108722000D01*
D36*
X112620200Y-108823200D02*
X112926500Y-109129500D01*
%TD*%
%TA.AperFunction,Conductor*%
%TO.N,GND*%
G36*
X101586847Y-100319407D02*
G01*
X101622811Y-100368907D01*
X101625753Y-100418816D01*
X101619500Y-100450244D01*
X101619500Y-102189746D01*
X101619501Y-102189758D01*
X101631132Y-102248227D01*
X101631133Y-102248231D01*
X101675448Y-102314552D01*
X101741769Y-102358867D01*
X101778851Y-102366243D01*
X101800241Y-102370498D01*
X101800246Y-102370498D01*
X101800252Y-102370500D01*
X102220500Y-102370500D01*
X102278691Y-102389407D01*
X102314655Y-102438907D01*
X102319500Y-102469500D01*
X102319500Y-102497844D01*
X102343386Y-102586988D01*
X102389531Y-102666912D01*
X102407074Y-102684455D01*
X102434850Y-102738970D01*
X102425279Y-102799402D01*
X102382014Y-102842667D01*
X102365816Y-102849192D01*
X102363579Y-102849870D01*
X102172402Y-102929058D01*
X102000348Y-103044020D01*
X101854020Y-103190348D01*
X101739058Y-103362402D01*
X101659869Y-103553581D01*
X101619500Y-103756532D01*
X101619500Y-103963467D01*
X101659869Y-104166418D01*
X101739058Y-104357597D01*
X101854020Y-104529651D01*
X101854023Y-104529655D01*
X102000345Y-104675977D01*
X102172402Y-104790941D01*
X102363580Y-104870130D01*
X102566535Y-104910500D01*
X102566536Y-104910500D01*
X102773464Y-104910500D01*
X102773465Y-104910500D01*
X102976420Y-104870130D01*
X103167598Y-104790941D01*
X103297199Y-104704345D01*
X103356087Y-104687737D01*
X103413491Y-104708915D01*
X103447483Y-104759789D01*
X103451200Y-104786661D01*
X103451200Y-105473338D01*
X103432293Y-105531529D01*
X103382793Y-105567493D01*
X103321607Y-105567493D01*
X103297199Y-105555654D01*
X103167597Y-105469058D01*
X102976418Y-105389869D01*
X102773467Y-105349500D01*
X102773465Y-105349500D01*
X102566535Y-105349500D01*
X102566532Y-105349500D01*
X102363581Y-105389869D01*
X102172402Y-105469058D01*
X102000348Y-105584020D01*
X101854020Y-105730348D01*
X101739058Y-105902402D01*
X101659869Y-106093581D01*
X101619500Y-106296532D01*
X101619500Y-106503467D01*
X101659869Y-106706418D01*
X101739058Y-106897597D01*
X101854020Y-107069651D01*
X101854023Y-107069655D01*
X102000345Y-107215977D01*
X102172402Y-107330941D01*
X102363580Y-107410130D01*
X102566535Y-107450500D01*
X102566536Y-107450500D01*
X102773464Y-107450500D01*
X102773465Y-107450500D01*
X102976420Y-107410130D01*
X103167598Y-107330941D01*
X103339655Y-107215977D01*
X103485977Y-107069655D01*
X103537837Y-106992039D01*
X103585886Y-106954161D01*
X103647024Y-106951759D01*
X103690156Y-106977038D01*
X104551488Y-107838370D01*
X104584804Y-107857604D01*
X104611583Y-107873066D01*
X104611586Y-107873067D01*
X104611589Y-107873069D01*
X104624955Y-107880786D01*
X104636980Y-107887729D01*
X104677919Y-107933200D01*
X104684313Y-107994051D01*
X104653718Y-108047038D01*
X104642478Y-108055780D01*
X104540348Y-108124020D01*
X104394020Y-108270348D01*
X104279058Y-108442402D01*
X104199869Y-108633581D01*
X104159500Y-108836532D01*
X104159500Y-109043467D01*
X104199869Y-109246418D01*
X104279058Y-109437597D01*
X104377727Y-109585266D01*
X104394023Y-109609655D01*
X104540345Y-109755977D01*
X104712402Y-109870941D01*
X104903580Y-109950130D01*
X105106535Y-109990500D01*
X105106536Y-109990500D01*
X105313464Y-109990500D01*
X105313465Y-109990500D01*
X105516420Y-109950130D01*
X105707598Y-109870941D01*
X105879655Y-109755977D01*
X106025977Y-109609655D01*
X106140941Y-109437598D01*
X106220130Y-109246420D01*
X106260500Y-109043465D01*
X106260500Y-108836535D01*
X106220130Y-108633580D01*
X106140941Y-108442402D01*
X106025977Y-108270345D01*
X105879655Y-108124023D01*
X105853440Y-108106507D01*
X105828311Y-108089716D01*
X105790431Y-108041666D01*
X105788029Y-107980527D01*
X105822022Y-107929654D01*
X105879425Y-107908476D01*
X105883312Y-107908400D01*
X108343242Y-107908400D01*
X108343244Y-107908400D01*
X108432388Y-107884514D01*
X108452208Y-107873070D01*
X108452210Y-107873070D01*
X108468314Y-107863772D01*
X108512312Y-107838370D01*
X108585498Y-107765183D01*
X108640013Y-107737408D01*
X108700445Y-107746979D01*
X108743710Y-107790244D01*
X108754500Y-107835189D01*
X108754500Y-109283944D01*
X108776368Y-109365556D01*
X108776367Y-109365556D01*
X108776368Y-109365558D01*
X108778383Y-109373080D01*
X108778384Y-109373083D01*
X108778386Y-109373088D01*
X108824530Y-109453012D01*
X109645585Y-110274067D01*
X110465514Y-111093996D01*
X110493291Y-111148513D01*
X110483720Y-111208945D01*
X110440455Y-111252210D01*
X110395510Y-111263000D01*
X107636700Y-111263000D01*
X107535442Y-111304943D01*
X107535441Y-111304944D01*
X105785292Y-113055091D01*
X105730775Y-113082868D01*
X105677403Y-113076551D01*
X105516420Y-113009870D01*
X105313467Y-112969500D01*
X105313465Y-112969500D01*
X105106535Y-112969500D01*
X105106532Y-112969500D01*
X104903581Y-113009869D01*
X104712402Y-113089058D01*
X104540348Y-113204020D01*
X104394015Y-113350353D01*
X104391026Y-113353996D01*
X104339493Y-113386982D01*
X104278414Y-113383378D01*
X104231119Y-113344561D01*
X104215500Y-113291189D01*
X104215500Y-112905123D01*
X104234407Y-112846932D01*
X104244496Y-112835120D01*
X104634706Y-112444909D01*
X104689223Y-112417131D01*
X104742596Y-112423448D01*
X104903580Y-112490130D01*
X105106535Y-112530500D01*
X105106536Y-112530500D01*
X105313464Y-112530500D01*
X105313465Y-112530500D01*
X105516420Y-112490130D01*
X105707598Y-112410941D01*
X105879655Y-112295977D01*
X106025977Y-112149655D01*
X106140941Y-111977598D01*
X106220130Y-111786420D01*
X106260500Y-111583465D01*
X106260500Y-111376535D01*
X106220130Y-111173580D01*
X106140941Y-110982402D01*
X106025977Y-110810345D01*
X105879655Y-110664023D01*
X105849126Y-110643624D01*
X105707597Y-110549058D01*
X105516418Y-110469869D01*
X105313467Y-110429500D01*
X105313465Y-110429500D01*
X105106535Y-110429500D01*
X105106532Y-110429500D01*
X104903581Y-110469869D01*
X104712402Y-110549058D01*
X104540348Y-110664020D01*
X104394020Y-110810348D01*
X104279058Y-110982402D01*
X104199869Y-111173581D01*
X104159500Y-111376532D01*
X104159500Y-111583467D01*
X104199870Y-111786419D01*
X104199870Y-111786421D01*
X104266551Y-111947403D01*
X104271352Y-112008399D01*
X104245091Y-112055291D01*
X103783942Y-112516442D01*
X103706446Y-112593938D01*
X103706444Y-112593940D01*
X103706443Y-112593942D01*
X103679122Y-112659899D01*
X103664500Y-112695200D01*
X103664500Y-113291189D01*
X103645593Y-113349380D01*
X103596093Y-113385344D01*
X103534907Y-113385344D01*
X103488974Y-113353996D01*
X103485984Y-113350353D01*
X103485979Y-113350348D01*
X103485977Y-113350345D01*
X103339655Y-113204023D01*
X103304431Y-113180487D01*
X103167597Y-113089058D01*
X102976418Y-113009869D01*
X102773467Y-112969500D01*
X102773465Y-112969500D01*
X102566535Y-112969500D01*
X102566532Y-112969500D01*
X102363581Y-113009869D01*
X102172402Y-113089058D01*
X102000348Y-113204020D01*
X101854020Y-113350348D01*
X101739058Y-113522402D01*
X101659869Y-113713581D01*
X101619500Y-113916532D01*
X101619500Y-114123467D01*
X101659869Y-114326418D01*
X101739058Y-114517597D01*
X101854020Y-114689651D01*
X101854023Y-114689655D01*
X102000345Y-114835977D01*
X102170245Y-114949500D01*
X102176446Y-114953643D01*
X102175823Y-114954573D01*
X102214666Y-114994960D01*
X102223059Y-115055567D01*
X102195602Y-115108182D01*
X101457242Y-115846543D01*
X101457241Y-115846542D01*
X101379746Y-115924038D01*
X101379744Y-115924040D01*
X101379743Y-115924042D01*
X101337800Y-116025300D01*
X101337800Y-117107300D01*
X101372760Y-117191700D01*
X101372759Y-117191700D01*
X101379741Y-117208556D01*
X101379743Y-117208558D01*
X102187715Y-118016532D01*
X102215492Y-118071048D01*
X102205921Y-118131480D01*
X102172712Y-118168851D01*
X102000348Y-118284020D01*
X101854020Y-118430348D01*
X101739058Y-118602402D01*
X101659869Y-118793581D01*
X101619500Y-118996532D01*
X101619500Y-119203467D01*
X101659869Y-119406418D01*
X101739058Y-119597597D01*
X101845309Y-119756614D01*
X101854023Y-119769655D01*
X102000345Y-119915977D01*
X102172402Y-120030941D01*
X102363580Y-120110130D01*
X102566535Y-120150500D01*
X102566536Y-120150500D01*
X102773464Y-120150500D01*
X102773465Y-120150500D01*
X102976420Y-120110130D01*
X103167598Y-120030941D01*
X103339655Y-119915977D01*
X103485977Y-119769655D01*
X103600941Y-119597598D01*
X103680130Y-119406420D01*
X103720500Y-119203465D01*
X103720500Y-118996535D01*
X103680130Y-118793580D01*
X103600941Y-118602402D01*
X103485977Y-118430345D01*
X103480733Y-118425101D01*
X103452958Y-118370587D01*
X103462529Y-118310155D01*
X103505794Y-118266890D01*
X103550739Y-118256100D01*
X104329261Y-118256100D01*
X104387452Y-118275007D01*
X104423416Y-118324507D01*
X104423416Y-118385693D01*
X104399266Y-118425101D01*
X104395713Y-118428655D01*
X104394020Y-118430348D01*
X104279058Y-118602402D01*
X104199869Y-118793581D01*
X104159500Y-118996532D01*
X104159500Y-119203467D01*
X104199869Y-119406418D01*
X104279058Y-119597597D01*
X104385309Y-119756614D01*
X104394023Y-119769655D01*
X104540345Y-119915977D01*
X104712402Y-120030941D01*
X104903580Y-120110130D01*
X105106535Y-120150500D01*
X105106536Y-120150500D01*
X105313464Y-120150500D01*
X105313465Y-120150500D01*
X105516420Y-120110130D01*
X105707598Y-120030941D01*
X105879655Y-119915977D01*
X106025977Y-119769655D01*
X106140941Y-119597598D01*
X106220130Y-119406420D01*
X106260500Y-119203465D01*
X106260500Y-118996535D01*
X106220130Y-118793580D01*
X106144061Y-118609935D01*
X106139080Y-118597909D01*
X106141276Y-118596999D01*
X106132105Y-118545848D01*
X106158769Y-118490779D01*
X106204555Y-118463720D01*
X106266986Y-118446992D01*
X106381114Y-118381100D01*
X106413698Y-118348515D01*
X106468213Y-118320740D01*
X106528645Y-118330311D01*
X106571910Y-118373576D01*
X106582700Y-118418521D01*
X106582700Y-119322100D01*
X106608879Y-119385300D01*
X106617627Y-119406420D01*
X106617627Y-119406421D01*
X106624641Y-119423355D01*
X106624642Y-119423356D01*
X106624643Y-119423358D01*
X107325429Y-120124144D01*
X108014529Y-120813244D01*
X108035989Y-120845363D01*
X108047530Y-120873225D01*
X108050443Y-120880258D01*
X108050445Y-120880260D01*
X108140443Y-120970259D01*
X108241698Y-121012200D01*
X108241700Y-121012200D01*
X108281578Y-121012200D01*
X108339769Y-121031107D01*
X108351575Y-121041190D01*
X108417142Y-121106757D01*
X108518400Y-121148700D01*
X108518401Y-121148700D01*
X109044599Y-121148700D01*
X109044600Y-121148700D01*
X109145858Y-121106757D01*
X109223357Y-121029258D01*
X109223356Y-121029258D01*
X109492120Y-120760496D01*
X109546637Y-120732719D01*
X109562123Y-120731500D01*
X109826314Y-120731500D01*
X109826316Y-120731500D01*
X109875173Y-120725068D01*
X109982404Y-120675065D01*
X110066065Y-120591404D01*
X110116068Y-120484173D01*
X110122500Y-120435316D01*
X110122500Y-119986684D01*
X110116068Y-119937827D01*
X110097043Y-119897029D01*
X110066066Y-119830598D01*
X110066065Y-119830597D01*
X110066065Y-119830596D01*
X109982404Y-119746935D01*
X109982402Y-119746934D01*
X109982401Y-119746933D01*
X109877393Y-119697967D01*
X109832645Y-119656239D01*
X109820970Y-119596178D01*
X109846828Y-119540725D01*
X109849229Y-119538239D01*
X109849402Y-119538065D01*
X109849404Y-119538065D01*
X109933065Y-119454404D01*
X109983068Y-119347173D01*
X109989500Y-119298316D01*
X109989500Y-118849684D01*
X109983068Y-118800827D01*
X109966039Y-118764309D01*
X109933066Y-118693598D01*
X109933065Y-118693597D01*
X109933065Y-118693596D01*
X109849404Y-118609935D01*
X109849402Y-118609934D01*
X109849401Y-118609933D01*
X109742175Y-118559932D01*
X109709601Y-118555644D01*
X109693316Y-118553500D01*
X109693315Y-118553500D01*
X109614939Y-118553500D01*
X109556748Y-118534593D01*
X109520784Y-118485093D01*
X109520784Y-118423907D01*
X109556748Y-118374407D01*
X109573100Y-118364776D01*
X109609359Y-118347868D01*
X109660404Y-118324065D01*
X109744065Y-118240404D01*
X109794068Y-118133173D01*
X109800500Y-118084316D01*
X109800500Y-117735684D01*
X109794068Y-117686827D01*
X109793772Y-117686193D01*
X109744066Y-117579598D01*
X109744065Y-117579597D01*
X109744065Y-117579596D01*
X109660404Y-117495935D01*
X109660402Y-117495934D01*
X109660401Y-117495933D01*
X109553175Y-117445932D01*
X109520601Y-117441644D01*
X109504316Y-117439500D01*
X109504315Y-117439500D01*
X109240124Y-117439500D01*
X109181933Y-117420593D01*
X109170120Y-117410504D01*
X108962296Y-117202680D01*
X108934519Y-117148163D01*
X108933300Y-117132676D01*
X108933300Y-116770000D01*
X108952207Y-116711809D01*
X109001707Y-116675845D01*
X109032300Y-116671000D01*
X110669021Y-116671000D01*
X110706906Y-116678536D01*
X110734100Y-116689800D01*
X110881279Y-116689800D01*
X110939470Y-116708707D01*
X110975434Y-116758207D01*
X110975434Y-116819393D01*
X110951284Y-116858801D01*
X110943669Y-116866417D01*
X110936797Y-116873289D01*
X110936796Y-116873290D01*
X110870909Y-116987409D01*
X110861580Y-117022226D01*
X110836800Y-117114708D01*
X110836800Y-117246492D01*
X110862361Y-117341886D01*
X110870909Y-117373790D01*
X110936796Y-117487909D01*
X110936798Y-117487911D01*
X110936800Y-117487914D01*
X111029986Y-117581100D01*
X111029988Y-117581101D01*
X111029990Y-117581103D01*
X111144110Y-117646990D01*
X111144108Y-117646990D01*
X111144112Y-117646991D01*
X111144114Y-117646992D01*
X111271408Y-117681100D01*
X111271410Y-117681100D01*
X111407177Y-117681100D01*
X111465368Y-117700007D01*
X111477181Y-117710096D01*
X111925552Y-118158467D01*
X111937863Y-118173469D01*
X111971376Y-118223624D01*
X112062505Y-118284515D01*
X112142867Y-118300500D01*
X113522132Y-118300499D01*
X113602495Y-118284515D01*
X113693624Y-118223624D01*
X113754515Y-118132495D01*
X113768671Y-118061323D01*
X113798568Y-118007941D01*
X113854133Y-117982325D01*
X113891388Y-117985011D01*
X113940608Y-117998200D01*
X113940610Y-117998200D01*
X114072390Y-117998200D01*
X114072392Y-117998200D01*
X114199686Y-117964092D01*
X114199688Y-117964090D01*
X114199690Y-117964090D01*
X114313809Y-117898203D01*
X114313809Y-117898202D01*
X114313814Y-117898200D01*
X114407000Y-117805014D01*
X114444419Y-117740203D01*
X114472890Y-117690890D01*
X114472890Y-117690888D01*
X114472892Y-117690886D01*
X114507000Y-117563592D01*
X114507000Y-117431808D01*
X114488998Y-117364622D01*
X114492201Y-117303521D01*
X114530706Y-117255971D01*
X114584625Y-117240000D01*
X115335944Y-117240000D01*
X115394135Y-117258907D01*
X115421679Y-117289497D01*
X115463200Y-117361414D01*
X115556386Y-117454600D01*
X115556388Y-117454601D01*
X115556390Y-117454603D01*
X115670510Y-117520490D01*
X115670508Y-117520490D01*
X115670512Y-117520491D01*
X115670514Y-117520492D01*
X115797808Y-117554600D01*
X115797810Y-117554600D01*
X115929590Y-117554600D01*
X115929592Y-117554600D01*
X116056886Y-117520492D01*
X116056888Y-117520490D01*
X116056890Y-117520490D01*
X116171009Y-117454603D01*
X116171009Y-117454602D01*
X116171014Y-117454600D01*
X116264200Y-117361414D01*
X116330092Y-117247286D01*
X116364200Y-117119992D01*
X116364200Y-117119986D01*
X116365471Y-117115243D01*
X116398794Y-117063928D01*
X116455916Y-117042001D01*
X116515016Y-117057836D01*
X116553522Y-117105386D01*
X116556437Y-117116853D01*
X116556921Y-117116724D01*
X116558600Y-117122990D01*
X116558600Y-117122992D01*
X116586067Y-117225500D01*
X116592709Y-117250290D01*
X116658596Y-117364409D01*
X116658598Y-117364411D01*
X116658600Y-117364414D01*
X116751786Y-117457600D01*
X116751788Y-117457601D01*
X116751790Y-117457603D01*
X116865910Y-117523490D01*
X116865908Y-117523490D01*
X116865912Y-117523491D01*
X116865914Y-117523492D01*
X116993208Y-117557600D01*
X116993210Y-117557600D01*
X117124990Y-117557600D01*
X117124992Y-117557600D01*
X117252286Y-117523492D01*
X117252288Y-117523490D01*
X117252290Y-117523490D01*
X117366409Y-117457603D01*
X117366409Y-117457602D01*
X117366414Y-117457600D01*
X117459600Y-117364414D01*
X117468970Y-117348185D01*
X117525490Y-117250290D01*
X117525490Y-117250288D01*
X117525492Y-117250286D01*
X117559600Y-117122992D01*
X117559600Y-116991208D01*
X117525492Y-116863914D01*
X117525490Y-116863911D01*
X117525490Y-116863909D01*
X117459603Y-116749790D01*
X117459601Y-116749788D01*
X117459600Y-116749786D01*
X117366414Y-116656600D01*
X117366411Y-116656598D01*
X117366409Y-116656596D01*
X117252289Y-116590709D01*
X117252291Y-116590709D01*
X117202899Y-116577475D01*
X117124992Y-116556600D01*
X116993208Y-116556600D01*
X116989224Y-116556600D01*
X116931033Y-116537693D01*
X116919221Y-116527604D01*
X116416659Y-116025044D01*
X116416658Y-116025043D01*
X116416244Y-116024871D01*
X116416234Y-116024863D01*
X116416233Y-116024867D01*
X116315400Y-115983100D01*
X116315399Y-115983100D01*
X114534021Y-115983100D01*
X114475830Y-115964193D01*
X114464017Y-115954104D01*
X114461201Y-115951288D01*
X114461200Y-115951286D01*
X114368014Y-115858100D01*
X114368011Y-115858098D01*
X114368009Y-115858096D01*
X114253889Y-115792209D01*
X114253890Y-115792209D01*
X114157046Y-115766260D01*
X114105731Y-115732936D01*
X114083805Y-115675814D01*
X114099641Y-115616714D01*
X114147191Y-115578208D01*
X114157030Y-115575011D01*
X114207486Y-115561492D01*
X114321614Y-115495600D01*
X114414800Y-115402414D01*
X114414803Y-115402409D01*
X114480690Y-115288290D01*
X114480690Y-115288288D01*
X114480692Y-115288286D01*
X114514800Y-115160992D01*
X114514800Y-115029208D01*
X114480692Y-114901914D01*
X114480690Y-114901911D01*
X114480690Y-114901909D01*
X114414803Y-114787790D01*
X114414801Y-114787788D01*
X114414800Y-114787786D01*
X114321614Y-114694600D01*
X114321611Y-114694598D01*
X114321609Y-114694596D01*
X114207489Y-114628709D01*
X114207490Y-114628709D01*
X114199400Y-114626541D01*
X114168730Y-114618323D01*
X114117416Y-114585000D01*
X114095490Y-114527878D01*
X114111326Y-114468778D01*
X114158876Y-114430272D01*
X114168718Y-114427074D01*
X114208586Y-114416392D01*
X114322714Y-114350500D01*
X114340148Y-114333065D01*
X114394663Y-114305290D01*
X114455095Y-114314861D01*
X114480154Y-114333067D01*
X114484498Y-114337411D01*
X114484500Y-114337414D01*
X114577686Y-114430600D01*
X114577688Y-114430601D01*
X114577690Y-114430603D01*
X114691810Y-114496490D01*
X114691808Y-114496490D01*
X114691812Y-114496491D01*
X114691814Y-114496492D01*
X114819108Y-114530600D01*
X114819110Y-114530600D01*
X114950890Y-114530600D01*
X114950892Y-114530600D01*
X115078186Y-114496492D01*
X115078188Y-114496490D01*
X115078190Y-114496490D01*
X115192309Y-114430603D01*
X115192309Y-114430602D01*
X115192314Y-114430600D01*
X115285500Y-114337414D01*
X115285501Y-114337411D01*
X115288317Y-114334596D01*
X115342834Y-114306819D01*
X115358321Y-114305600D01*
X115812472Y-114305600D01*
X115870663Y-114324507D01*
X115906627Y-114374007D01*
X115908098Y-114378976D01*
X115922007Y-114430885D01*
X115922009Y-114430889D01*
X115987896Y-114545009D01*
X115987898Y-114545011D01*
X115987900Y-114545014D01*
X116081086Y-114638200D01*
X116081088Y-114638201D01*
X116081090Y-114638203D01*
X116195210Y-114704090D01*
X116195208Y-114704090D01*
X116195212Y-114704091D01*
X116195214Y-114704092D01*
X116322508Y-114738200D01*
X116322510Y-114738200D01*
X116454290Y-114738200D01*
X116454292Y-114738200D01*
X116581586Y-114704092D01*
X116581588Y-114704090D01*
X116581590Y-114704090D01*
X116695709Y-114638203D01*
X116695709Y-114638202D01*
X116695714Y-114638200D01*
X116716719Y-114617194D01*
X116771234Y-114589419D01*
X116786721Y-114588200D01*
X118739979Y-114588200D01*
X118798170Y-114607107D01*
X118804097Y-114612169D01*
X118807790Y-114615003D01*
X118921910Y-114680890D01*
X118921908Y-114680890D01*
X118921912Y-114680891D01*
X118921914Y-114680892D01*
X119049208Y-114715000D01*
X119049210Y-114715000D01*
X119180990Y-114715000D01*
X119180992Y-114715000D01*
X119308286Y-114680892D01*
X119308288Y-114680890D01*
X119308290Y-114680890D01*
X119422409Y-114615003D01*
X119422409Y-114615002D01*
X119422414Y-114615000D01*
X119443419Y-114593994D01*
X119497934Y-114566219D01*
X119513421Y-114565000D01*
X119642142Y-114565000D01*
X119642144Y-114565000D01*
X119731288Y-114541114D01*
X119741912Y-114534980D01*
X119811212Y-114494970D01*
X120053582Y-114252599D01*
X120108098Y-114224822D01*
X120168530Y-114234393D01*
X120211795Y-114277658D01*
X120221366Y-114338090D01*
X120220683Y-114341914D01*
X120219501Y-114347857D01*
X120219500Y-114347867D01*
X120219500Y-114552129D01*
X120219501Y-114552137D01*
X120235484Y-114632494D01*
X120235486Y-114632498D01*
X120243840Y-114645001D01*
X120260447Y-114703889D01*
X120243840Y-114754999D01*
X120235485Y-114767503D01*
X120235484Y-114767504D01*
X120219500Y-114847864D01*
X120219500Y-115052129D01*
X120219978Y-115056974D01*
X120218547Y-115057114D01*
X120212081Y-115111749D01*
X120170547Y-115156678D01*
X120122175Y-115169300D01*
X119694100Y-115169300D01*
X119594398Y-115210597D01*
X119594399Y-115210598D01*
X119592843Y-115211242D01*
X119592840Y-115211244D01*
X119387780Y-115416304D01*
X119333264Y-115444081D01*
X119317777Y-115445300D01*
X119313792Y-115445300D01*
X119182008Y-115445300D01*
X119104100Y-115466175D01*
X119054709Y-115479409D01*
X118940590Y-115545296D01*
X118847396Y-115638490D01*
X118781509Y-115752609D01*
X118766722Y-115807796D01*
X118747400Y-115879908D01*
X118747400Y-116011692D01*
X118772377Y-116104907D01*
X118781509Y-116138990D01*
X118847396Y-116253109D01*
X118847398Y-116253111D01*
X118847400Y-116253114D01*
X118940586Y-116346300D01*
X118940588Y-116346301D01*
X118940590Y-116346303D01*
X119054710Y-116412190D01*
X119054708Y-116412190D01*
X119054712Y-116412191D01*
X119054714Y-116412192D01*
X119182008Y-116446300D01*
X119182010Y-116446300D01*
X119313790Y-116446300D01*
X119313792Y-116446300D01*
X119441086Y-116412192D01*
X119441088Y-116412190D01*
X119441090Y-116412190D01*
X119560834Y-116343056D01*
X119561724Y-116344598D01*
X119611416Y-116326988D01*
X119670086Y-116344351D01*
X119674890Y-116348345D01*
X119675040Y-116348151D01*
X119680190Y-116352103D01*
X119794310Y-116417990D01*
X119794308Y-116417990D01*
X119794312Y-116417991D01*
X119794314Y-116417992D01*
X119921608Y-116452100D01*
X119921610Y-116452100D01*
X120053391Y-116452100D01*
X120053392Y-116452100D01*
X120094877Y-116440984D01*
X120155977Y-116444185D01*
X120203528Y-116482690D01*
X120219500Y-116536605D01*
X120219500Y-116552126D01*
X120219501Y-116552134D01*
X120220308Y-116556190D01*
X120213113Y-116616951D01*
X120171579Y-116661879D01*
X120123209Y-116674500D01*
X119324200Y-116674500D01*
X119248366Y-116705912D01*
X119248365Y-116705912D01*
X119222942Y-116716442D01*
X119129180Y-116810204D01*
X119074664Y-116837981D01*
X119059177Y-116839200D01*
X119055192Y-116839200D01*
X118923408Y-116839200D01*
X118850244Y-116858804D01*
X118796109Y-116873309D01*
X118681990Y-116939196D01*
X118588796Y-117032390D01*
X118522909Y-117146509D01*
X118505522Y-117211400D01*
X118488800Y-117273808D01*
X118488800Y-117405592D01*
X118517903Y-117514208D01*
X118522909Y-117532890D01*
X118588796Y-117647009D01*
X118588798Y-117647011D01*
X118588800Y-117647014D01*
X118681986Y-117740200D01*
X118681988Y-117740201D01*
X118681990Y-117740203D01*
X118796110Y-117806090D01*
X118796108Y-117806090D01*
X118796112Y-117806091D01*
X118796114Y-117806092D01*
X118923408Y-117840200D01*
X118923410Y-117840200D01*
X119055190Y-117840200D01*
X119055192Y-117840200D01*
X119182486Y-117806092D01*
X119182488Y-117806090D01*
X119182490Y-117806090D01*
X119296609Y-117740203D01*
X119296609Y-117740202D01*
X119296614Y-117740200D01*
X119326724Y-117710089D01*
X119381237Y-117682314D01*
X119441669Y-117691885D01*
X119484934Y-117735149D01*
X119492352Y-117754472D01*
X119515909Y-117842390D01*
X119581796Y-117956509D01*
X119581798Y-117956511D01*
X119581800Y-117956514D01*
X119602933Y-117977647D01*
X119630709Y-118032162D01*
X119621138Y-118092594D01*
X119602934Y-118117650D01*
X119577901Y-118142684D01*
X119577896Y-118142690D01*
X119512009Y-118256809D01*
X119503675Y-118287914D01*
X119477900Y-118384108D01*
X119477900Y-118515892D01*
X119491350Y-118566088D01*
X119512008Y-118643187D01*
X119580085Y-118761099D01*
X119592806Y-118820947D01*
X119572894Y-118870861D01*
X119569499Y-118875284D01*
X119503609Y-118989409D01*
X119503608Y-118989414D01*
X119497871Y-119010824D01*
X119464548Y-119062137D01*
X119407426Y-119084064D01*
X119402245Y-119084200D01*
X119065907Y-119084200D01*
X119007716Y-119065293D01*
X118971752Y-119015793D01*
X118970286Y-119010844D01*
X118961892Y-118979514D01*
X118896000Y-118865386D01*
X118802814Y-118772200D01*
X118802811Y-118772198D01*
X118802809Y-118772196D01*
X118688689Y-118706309D01*
X118688691Y-118706309D01*
X118625565Y-118689395D01*
X118561392Y-118672200D01*
X118429608Y-118672200D01*
X118365435Y-118689395D01*
X118302309Y-118706309D01*
X118188190Y-118772196D01*
X118094996Y-118865390D01*
X118029109Y-118979509D01*
X118021804Y-119006774D01*
X117999053Y-119091684D01*
X117995000Y-119106809D01*
X117995000Y-119136510D01*
X117976093Y-119194701D01*
X117966009Y-119206508D01*
X117964531Y-119207985D01*
X117936175Y-119257098D01*
X117936176Y-119257099D01*
X117918386Y-119287910D01*
X117894500Y-119377057D01*
X117894500Y-121052129D01*
X117894501Y-121052136D01*
X117910484Y-121132494D01*
X117910485Y-121132496D01*
X117943679Y-121182173D01*
X117971376Y-121223624D01*
X118062505Y-121284515D01*
X118142867Y-121300500D01*
X118347132Y-121300499D01*
X118427495Y-121284515D01*
X118439996Y-121276161D01*
X118498883Y-121259551D01*
X118550000Y-121276159D01*
X118562505Y-121284515D01*
X118642867Y-121300500D01*
X118847132Y-121300499D01*
X118927495Y-121284515D01*
X118939996Y-121276161D01*
X118998883Y-121259551D01*
X119050000Y-121276159D01*
X119062505Y-121284515D01*
X119062507Y-121284515D01*
X119071514Y-121288246D01*
X119070535Y-121290608D01*
X119107825Y-121310540D01*
X119570343Y-121773058D01*
X119570342Y-121773058D01*
X119647838Y-121850553D01*
X119647842Y-121850557D01*
X119749100Y-121892500D01*
X121742986Y-121892500D01*
X121801177Y-121911407D01*
X121837141Y-121960907D01*
X121837141Y-122022093D01*
X121828722Y-122041000D01*
X121783509Y-122119309D01*
X121771135Y-122165491D01*
X121752776Y-122234011D01*
X121749400Y-122246609D01*
X121749400Y-122276310D01*
X121730493Y-122334501D01*
X121720403Y-122346314D01*
X121496212Y-122570504D01*
X121441696Y-122598281D01*
X121426210Y-122599500D01*
X121285104Y-122599500D01*
X121285092Y-122599501D01*
X121235513Y-122606027D01*
X121235511Y-122606027D01*
X121126686Y-122656774D01*
X121126683Y-122656776D01*
X121082955Y-122700504D01*
X121028438Y-122728281D01*
X121012952Y-122729500D01*
X120877048Y-122729500D01*
X120818857Y-122710593D01*
X120807045Y-122700504D01*
X120763316Y-122656776D01*
X120763313Y-122656774D01*
X120654489Y-122606029D01*
X120654488Y-122606028D01*
X120637958Y-122603852D01*
X120604901Y-122599500D01*
X120604899Y-122599500D01*
X120185103Y-122599500D01*
X120185092Y-122599501D01*
X120135513Y-122606027D01*
X120135511Y-122606027D01*
X120026686Y-122656774D01*
X119941775Y-122741685D01*
X119934724Y-122756807D01*
X119892995Y-122801554D01*
X119832933Y-122813228D01*
X119777481Y-122787369D01*
X119755276Y-122756807D01*
X119748455Y-122742180D01*
X119748224Y-122741684D01*
X119663316Y-122656776D01*
X119663314Y-122656775D01*
X119663313Y-122656774D01*
X119554489Y-122606029D01*
X119554488Y-122606028D01*
X119537958Y-122603852D01*
X119504901Y-122599500D01*
X119504899Y-122599500D01*
X119085103Y-122599500D01*
X119085092Y-122599501D01*
X119035513Y-122606027D01*
X119035511Y-122606027D01*
X118926686Y-122656774D01*
X118841774Y-122741686D01*
X118791029Y-122850510D01*
X118791028Y-122850511D01*
X118784500Y-122900100D01*
X118784500Y-123238953D01*
X118765593Y-123297144D01*
X118716093Y-123333108D01*
X118654907Y-123333108D01*
X118615498Y-123308958D01*
X118563316Y-123256776D01*
X118563314Y-123256775D01*
X118563313Y-123256774D01*
X118454489Y-123206029D01*
X118454488Y-123206028D01*
X118429694Y-123202764D01*
X118404901Y-123199500D01*
X118404900Y-123199500D01*
X117989500Y-123199500D01*
X117931309Y-123180593D01*
X117895345Y-123131093D01*
X117890500Y-123100500D01*
X117890500Y-122310437D01*
X117890499Y-122310435D01*
X117886349Y-122294949D01*
X117870021Y-122234011D01*
X117830460Y-122165489D01*
X117774511Y-122109540D01*
X117770810Y-122107403D01*
X117705992Y-122069980D01*
X117705988Y-122069978D01*
X117629564Y-122049500D01*
X117629562Y-122049500D01*
X117594500Y-122049500D01*
X117536309Y-122030593D01*
X117500345Y-121981093D01*
X117495500Y-121950500D01*
X117495500Y-121945727D01*
X117495499Y-121945725D01*
X117495039Y-121940822D01*
X117492646Y-121915301D01*
X117447793Y-121787118D01*
X117444161Y-121782197D01*
X117367154Y-121677855D01*
X117367152Y-121677853D01*
X117367150Y-121677850D01*
X117367146Y-121677847D01*
X117367144Y-121677845D01*
X117257883Y-121597207D01*
X117129703Y-121552355D01*
X117129699Y-121552354D01*
X117129697Y-121552353D01*
X117123815Y-121551069D01*
X117124434Y-121548234D01*
X117078962Y-121528508D01*
X117047864Y-121475814D01*
X117045500Y-121454307D01*
X117045500Y-121399499D01*
X117064407Y-121341308D01*
X117113907Y-121305344D01*
X117144493Y-121300499D01*
X117347132Y-121300499D01*
X117427495Y-121284515D01*
X117518624Y-121223624D01*
X117579515Y-121132495D01*
X117595500Y-121052133D01*
X117595499Y-119672868D01*
X117579515Y-119592505D01*
X117576550Y-119588068D01*
X117518626Y-119501379D01*
X117518624Y-119501376D01*
X117498468Y-119487908D01*
X117427496Y-119440485D01*
X117418487Y-119436754D01*
X117419678Y-119433878D01*
X117384047Y-119414832D01*
X117293696Y-119324481D01*
X117265919Y-119269964D01*
X117264700Y-119254477D01*
X117264700Y-119118709D01*
X117264700Y-119118708D01*
X117230592Y-118991414D01*
X117230590Y-118991411D01*
X117230590Y-118991409D01*
X117164703Y-118877290D01*
X117164701Y-118877288D01*
X117164700Y-118877286D01*
X117071514Y-118784100D01*
X117071511Y-118784098D01*
X117071509Y-118784096D01*
X116957389Y-118718209D01*
X116957391Y-118718209D01*
X116907764Y-118704912D01*
X116830092Y-118684100D01*
X116698308Y-118684100D01*
X116620636Y-118704912D01*
X116571009Y-118718209D01*
X116456890Y-118784096D01*
X116363696Y-118877290D01*
X116297809Y-118991409D01*
X116292607Y-119010823D01*
X116263700Y-119118708D01*
X116263700Y-119250492D01*
X116276933Y-119299877D01*
X116273730Y-119360979D01*
X116235225Y-119408529D01*
X116181308Y-119424500D01*
X116142871Y-119424500D01*
X116142860Y-119424501D01*
X116124495Y-119428154D01*
X116063734Y-119420959D01*
X116018807Y-119379423D01*
X116013726Y-119368948D01*
X115998526Y-119332251D01*
X115993727Y-119271256D01*
X115994366Y-119268740D01*
X115995750Y-119263578D01*
X115997300Y-119257792D01*
X115997300Y-119126008D01*
X115963192Y-118998714D01*
X115963190Y-118998711D01*
X115963190Y-118998709D01*
X115897812Y-118885472D01*
X115885090Y-118825624D01*
X115909976Y-118769728D01*
X115913531Y-118765982D01*
X115915200Y-118764314D01*
X115915203Y-118764309D01*
X115981090Y-118650190D01*
X115981090Y-118650188D01*
X115981092Y-118650186D01*
X116015200Y-118522892D01*
X116015200Y-118391108D01*
X115981092Y-118263814D01*
X115981090Y-118263811D01*
X115981090Y-118263809D01*
X115915203Y-118149690D01*
X115915201Y-118149688D01*
X115915200Y-118149686D01*
X115822014Y-118056500D01*
X115822011Y-118056498D01*
X115822009Y-118056496D01*
X115707889Y-117990609D01*
X115707891Y-117990609D01*
X115658499Y-117977375D01*
X115580592Y-117956500D01*
X115448808Y-117956500D01*
X115370900Y-117977375D01*
X115321509Y-117990609D01*
X115207390Y-118056496D01*
X115114196Y-118149690D01*
X115048309Y-118263809D01*
X115030490Y-118330311D01*
X115016076Y-118384109D01*
X115014200Y-118391109D01*
X115014200Y-118526876D01*
X114995293Y-118585067D01*
X114985204Y-118596879D01*
X114834042Y-118748042D01*
X114756546Y-118825538D01*
X114756544Y-118825540D01*
X114756543Y-118825542D01*
X114737636Y-118871187D01*
X114714600Y-118926800D01*
X114714600Y-118973677D01*
X114695693Y-119031868D01*
X114646193Y-119067832D01*
X114585007Y-119067832D01*
X114545598Y-119043682D01*
X114523455Y-119021540D01*
X114501993Y-118989421D01*
X114500293Y-118985317D01*
X114500292Y-118985316D01*
X114500292Y-118985314D01*
X114434400Y-118871186D01*
X114341214Y-118778000D01*
X114341211Y-118777998D01*
X114341209Y-118777996D01*
X114227089Y-118712109D01*
X114227091Y-118712109D01*
X114158005Y-118693598D01*
X114099792Y-118678000D01*
X113968008Y-118678000D01*
X113840714Y-118712108D01*
X113840713Y-118712108D01*
X113840711Y-118712109D01*
X113840709Y-118712110D01*
X113832095Y-118717083D01*
X113772246Y-118729801D01*
X113716352Y-118704912D01*
X113700286Y-118686346D01*
X113693624Y-118676376D01*
X113693620Y-118676373D01*
X113602497Y-118615486D01*
X113602496Y-118615485D01*
X113602495Y-118615485D01*
X113522133Y-118599500D01*
X112878645Y-118599500D01*
X112878644Y-118599500D01*
X112786357Y-118599500D01*
X112786355Y-118599500D01*
X112142870Y-118599500D01*
X112142863Y-118599501D01*
X112062505Y-118615484D01*
X112062504Y-118615485D01*
X112019573Y-118644171D01*
X111960685Y-118660779D01*
X111903282Y-118639601D01*
X111878836Y-118611355D01*
X111852700Y-118566086D01*
X111759514Y-118472900D01*
X111759511Y-118472898D01*
X111759509Y-118472896D01*
X111645389Y-118407009D01*
X111645391Y-118407009D01*
X111591954Y-118392691D01*
X111518092Y-118372900D01*
X111386308Y-118372900D01*
X111312446Y-118392691D01*
X111259009Y-118407009D01*
X111144890Y-118472896D01*
X111051698Y-118566088D01*
X110994650Y-118664897D01*
X110978917Y-118685400D01*
X110743812Y-118920504D01*
X110689296Y-118948281D01*
X110673810Y-118949500D01*
X110520104Y-118949500D01*
X110520092Y-118949501D01*
X110470513Y-118956027D01*
X110470511Y-118956027D01*
X110361686Y-119006774D01*
X110276774Y-119091686D01*
X110226029Y-119200510D01*
X110226028Y-119200511D01*
X110219500Y-119250100D01*
X110219500Y-119609895D01*
X110219501Y-119609907D01*
X110226027Y-119659486D01*
X110226027Y-119659488D01*
X110276774Y-119768313D01*
X110276775Y-119768314D01*
X110276776Y-119768316D01*
X110361684Y-119853224D01*
X110470513Y-119903972D01*
X110520099Y-119910500D01*
X110939900Y-119910499D01*
X110989487Y-119903972D01*
X110989488Y-119903972D01*
X111052737Y-119874478D01*
X111098316Y-119853224D01*
X111125684Y-119825856D01*
X111142045Y-119809496D01*
X111196562Y-119781719D01*
X111212048Y-119780500D01*
X112398642Y-119780500D01*
X112398644Y-119780500D01*
X112487788Y-119756614D01*
X112496840Y-119751387D01*
X112496842Y-119751387D01*
X112522266Y-119736708D01*
X112567712Y-119710470D01*
X112762497Y-119515684D01*
X112817012Y-119487908D01*
X112877444Y-119497479D01*
X112902503Y-119515685D01*
X113038004Y-119651186D01*
X113065781Y-119705703D01*
X113067000Y-119721190D01*
X113067000Y-120176310D01*
X113048093Y-120234501D01*
X113038003Y-120246314D01*
X112713812Y-120570504D01*
X112659296Y-120598281D01*
X112643810Y-120599500D01*
X112490104Y-120599500D01*
X112490092Y-120599501D01*
X112440513Y-120606027D01*
X112440511Y-120606027D01*
X112331686Y-120656774D01*
X112246774Y-120741686D01*
X112196029Y-120850510D01*
X112196028Y-120850511D01*
X112189500Y-120900100D01*
X112189500Y-121259895D01*
X112189501Y-121259907D01*
X112196027Y-121309486D01*
X112196027Y-121309488D01*
X112246774Y-121418313D01*
X112246775Y-121418314D01*
X112246776Y-121418316D01*
X112331684Y-121503224D01*
X112440513Y-121553972D01*
X112490099Y-121560500D01*
X112909900Y-121560499D01*
X112959487Y-121553972D01*
X112959488Y-121553971D01*
X112966759Y-121551853D01*
X112967184Y-121553312D01*
X113019377Y-121546897D01*
X113072895Y-121576554D01*
X113098760Y-121632003D01*
X113099500Y-121644081D01*
X113099500Y-123300500D01*
X113080593Y-123358691D01*
X113031093Y-123394655D01*
X113000500Y-123399500D01*
X112585103Y-123399500D01*
X112585092Y-123399501D01*
X112535513Y-123406027D01*
X112535511Y-123406027D01*
X112426686Y-123456774D01*
X112341774Y-123541686D01*
X112291029Y-123650510D01*
X112291028Y-123650511D01*
X112284500Y-123700100D01*
X112284500Y-124059895D01*
X112284501Y-124059907D01*
X112291027Y-124109486D01*
X112291027Y-124109488D01*
X112341774Y-124218313D01*
X112341775Y-124218314D01*
X112341776Y-124218316D01*
X112426684Y-124303224D01*
X112535513Y-124353972D01*
X112585099Y-124360500D01*
X113004900Y-124360499D01*
X113054487Y-124353972D01*
X113054488Y-124353972D01*
X113157701Y-124305843D01*
X113218430Y-124298386D01*
X113249040Y-124309830D01*
X113284011Y-124330021D01*
X113360435Y-124350499D01*
X113360437Y-124350500D01*
X113360438Y-124350500D01*
X113395500Y-124350500D01*
X113453691Y-124369407D01*
X113489655Y-124418907D01*
X113494500Y-124449500D01*
X113494500Y-124454274D01*
X113497353Y-124484694D01*
X113497355Y-124484703D01*
X113542207Y-124612883D01*
X113622845Y-124722144D01*
X113622847Y-124722146D01*
X113622850Y-124722150D01*
X113622853Y-124722152D01*
X113622855Y-124722154D01*
X113732116Y-124802792D01*
X113732117Y-124802792D01*
X113732118Y-124802793D01*
X113860301Y-124847646D01*
X113890725Y-124850499D01*
X113890727Y-124850500D01*
X113890734Y-124850500D01*
X114899273Y-124850500D01*
X114899273Y-124850499D01*
X114929699Y-124847646D01*
X115057882Y-124802793D01*
X115167150Y-124722150D01*
X115247793Y-124612882D01*
X115292646Y-124484699D01*
X115295499Y-124454273D01*
X115295500Y-124454273D01*
X115295500Y-123645727D01*
X115295499Y-123645725D01*
X115292646Y-123615305D01*
X115292646Y-123615301D01*
X115247793Y-123487118D01*
X115229886Y-123462855D01*
X115167154Y-123377855D01*
X115167152Y-123377853D01*
X115167150Y-123377850D01*
X115167146Y-123377847D01*
X115167144Y-123377845D01*
X115057883Y-123297207D01*
X114929703Y-123252355D01*
X114929694Y-123252353D01*
X114899274Y-123249500D01*
X114899266Y-123249500D01*
X113890734Y-123249500D01*
X113890725Y-123249500D01*
X113860305Y-123252353D01*
X113860301Y-123252354D01*
X113832197Y-123262188D01*
X113771027Y-123263560D01*
X113720733Y-123228716D01*
X113700525Y-123170964D01*
X113700500Y-123168743D01*
X113700500Y-121749500D01*
X113719407Y-121691309D01*
X113768907Y-121655345D01*
X113799500Y-121650500D01*
X115650484Y-121650500D01*
X115708675Y-121669407D01*
X115744639Y-121718907D01*
X115744639Y-121780093D01*
X115743929Y-121782197D01*
X115697354Y-121915301D01*
X115697353Y-121915305D01*
X115694500Y-121945725D01*
X115694500Y-122754274D01*
X115697353Y-122784694D01*
X115697355Y-122784703D01*
X115742207Y-122912883D01*
X115822845Y-123022144D01*
X115822847Y-123022146D01*
X115822850Y-123022150D01*
X115822853Y-123022152D01*
X115822855Y-123022154D01*
X115932116Y-123102792D01*
X115932117Y-123102792D01*
X115932118Y-123102793D01*
X116060301Y-123147646D01*
X116090725Y-123150499D01*
X116090727Y-123150500D01*
X116090734Y-123150500D01*
X117099273Y-123150500D01*
X117099273Y-123150499D01*
X117129699Y-123147646D01*
X117157803Y-123137811D01*
X117218971Y-123136438D01*
X117269266Y-123171281D01*
X117289475Y-123229033D01*
X117289500Y-123231256D01*
X117289500Y-123719564D01*
X117309978Y-123795988D01*
X117309980Y-123795992D01*
X117313945Y-123802859D01*
X117349540Y-123864511D01*
X117405489Y-123920460D01*
X117405491Y-123920461D01*
X117474007Y-123960019D01*
X117474011Y-123960021D01*
X117550435Y-123980499D01*
X117550437Y-123980500D01*
X117550438Y-123980500D01*
X117629562Y-123980500D01*
X117663761Y-123980500D01*
X117721952Y-123999407D01*
X117735078Y-124012764D01*
X117735652Y-124012191D01*
X117741775Y-124018314D01*
X117741776Y-124018316D01*
X117826684Y-124103224D01*
X117935513Y-124153972D01*
X117985099Y-124160500D01*
X118404900Y-124160499D01*
X118454487Y-124153972D01*
X118454488Y-124153972D01*
X118513137Y-124126622D01*
X118563316Y-124103224D01*
X118648224Y-124018316D01*
X118698972Y-123909487D01*
X118705500Y-123859901D01*
X118705499Y-123521045D01*
X118724406Y-123462855D01*
X118773906Y-123426891D01*
X118835091Y-123426891D01*
X118874500Y-123451040D01*
X118926684Y-123503224D01*
X118926685Y-123503224D01*
X118926686Y-123503225D01*
X118937655Y-123508340D01*
X119035513Y-123553972D01*
X119085099Y-123560500D01*
X119344875Y-123560499D01*
X119403065Y-123579406D01*
X119414878Y-123589495D01*
X119628243Y-123802859D01*
X119729498Y-123844800D01*
X119729500Y-123844800D01*
X119839100Y-123844800D01*
X121653779Y-123844800D01*
X121711970Y-123863707D01*
X121723783Y-123873796D01*
X121726598Y-123876611D01*
X121726600Y-123876614D01*
X121819786Y-123969800D01*
X121819788Y-123969801D01*
X121819790Y-123969803D01*
X121933910Y-124035690D01*
X121933908Y-124035690D01*
X121933912Y-124035691D01*
X121933914Y-124035692D01*
X122061208Y-124069800D01*
X122061210Y-124069800D01*
X122192990Y-124069800D01*
X122192992Y-124069800D01*
X122320286Y-124035692D01*
X122320288Y-124035690D01*
X122320290Y-124035690D01*
X122434409Y-123969803D01*
X122434409Y-123969802D01*
X122434414Y-123969800D01*
X122527600Y-123876614D01*
X122577043Y-123790975D01*
X122622512Y-123750036D01*
X122683362Y-123743640D01*
X122736350Y-123774233D01*
X122756933Y-123809883D01*
X122774422Y-123863707D01*
X122808443Y-123968412D01*
X122904948Y-124157815D01*
X122904950Y-124157819D01*
X123029891Y-124329786D01*
X123029893Y-124329788D01*
X123029896Y-124329792D01*
X123180208Y-124480104D01*
X123180211Y-124480106D01*
X123180213Y-124480108D01*
X123352180Y-124605049D01*
X123352184Y-124605051D01*
X123541588Y-124701557D01*
X123743757Y-124767246D01*
X123743758Y-124767246D01*
X123743761Y-124767247D01*
X123953710Y-124800500D01*
X123953713Y-124800500D01*
X124166290Y-124800500D01*
X124376238Y-124767247D01*
X124376239Y-124767246D01*
X124376243Y-124767246D01*
X124578412Y-124701557D01*
X124767816Y-124605051D01*
X124939792Y-124480104D01*
X125090104Y-124329792D01*
X125213102Y-124160499D01*
X125215049Y-124157819D01*
X125215051Y-124157816D01*
X125311557Y-123968412D01*
X125377246Y-123766243D01*
X125383544Y-123726482D01*
X125410500Y-123556290D01*
X125410500Y-123343709D01*
X125377247Y-123133761D01*
X125372104Y-123117932D01*
X125311557Y-122931588D01*
X125215051Y-122742184D01*
X125215049Y-122742180D01*
X125090108Y-122570213D01*
X125090106Y-122570211D01*
X125090104Y-122570208D01*
X124939792Y-122419896D01*
X124939788Y-122419893D01*
X124939786Y-122419891D01*
X124767819Y-122294950D01*
X124767815Y-122294948D01*
X124578412Y-122198443D01*
X124376238Y-122132752D01*
X124166290Y-122099500D01*
X124166287Y-122099500D01*
X123953713Y-122099500D01*
X123953710Y-122099500D01*
X123743761Y-122132752D01*
X123541587Y-122198443D01*
X123352184Y-122294948D01*
X123352180Y-122294950D01*
X123180213Y-122419891D01*
X123029891Y-122570213D01*
X122904950Y-122742180D01*
X122904948Y-122742184D01*
X122808443Y-122931587D01*
X122742752Y-123133761D01*
X122724233Y-123250689D01*
X122696455Y-123305206D01*
X122641939Y-123332983D01*
X122581507Y-123323412D01*
X122540716Y-123284702D01*
X122527603Y-123261990D01*
X122527601Y-123261988D01*
X122527600Y-123261986D01*
X122434414Y-123168800D01*
X122434411Y-123168798D01*
X122434409Y-123168796D01*
X122320289Y-123102909D01*
X122320290Y-123102909D01*
X122197960Y-123070131D01*
X122146645Y-123036807D01*
X122124719Y-122979685D01*
X122140555Y-122920585D01*
X122153574Y-122904507D01*
X122216087Y-122841995D01*
X122270604Y-122814219D01*
X122286089Y-122813000D01*
X122315790Y-122813000D01*
X122315792Y-122813000D01*
X122443086Y-122778892D01*
X122443088Y-122778890D01*
X122443090Y-122778890D01*
X122557209Y-122713003D01*
X122557209Y-122713002D01*
X122557214Y-122713000D01*
X122650400Y-122619814D01*
X122658359Y-122606029D01*
X122716290Y-122505690D01*
X122716290Y-122505688D01*
X122716292Y-122505686D01*
X122750400Y-122378392D01*
X122750400Y-122246608D01*
X122716292Y-122119314D01*
X122716290Y-122119311D01*
X122716290Y-122119309D01*
X122671078Y-122041000D01*
X122658356Y-121981152D01*
X122683243Y-121925256D01*
X122736231Y-121894663D01*
X122756814Y-121892500D01*
X126643777Y-121892500D01*
X126701968Y-121911407D01*
X126713781Y-121921496D01*
X127699543Y-122907258D01*
X127699542Y-122907258D01*
X127771970Y-122979685D01*
X127777042Y-122984757D01*
X127878300Y-123026700D01*
X127878301Y-123026700D01*
X128321517Y-123026700D01*
X128379708Y-123045607D01*
X128415672Y-123095107D01*
X128415672Y-123156293D01*
X128379708Y-123205793D01*
X128359403Y-123217164D01*
X128282402Y-123249058D01*
X128110348Y-123364020D01*
X127964020Y-123510348D01*
X127849058Y-123682402D01*
X127769869Y-123873581D01*
X127729500Y-124076532D01*
X127729500Y-124283467D01*
X127769869Y-124486418D01*
X127849058Y-124677597D01*
X127964020Y-124849651D01*
X127964023Y-124849655D01*
X128110345Y-124995977D01*
X128110348Y-124995979D01*
X128143580Y-125018184D01*
X128181460Y-125066234D01*
X128183862Y-125127373D01*
X128149869Y-125178246D01*
X128092466Y-125199424D01*
X128088579Y-125199500D01*
X103361421Y-125199500D01*
X103303230Y-125180593D01*
X103267266Y-125131093D01*
X103267266Y-125069907D01*
X103303230Y-125020407D01*
X103306420Y-125018184D01*
X103315152Y-125012348D01*
X103339655Y-124995977D01*
X103485977Y-124849655D01*
X103600941Y-124677598D01*
X103680130Y-124486420D01*
X103720500Y-124283465D01*
X103720500Y-124076535D01*
X103680130Y-123873580D01*
X103600941Y-123682402D01*
X103485977Y-123510345D01*
X103339655Y-123364023D01*
X103339651Y-123364020D01*
X103309253Y-123343709D01*
X108579500Y-123343709D01*
X108579500Y-123556290D01*
X108612752Y-123766238D01*
X108678443Y-123968412D01*
X108774948Y-124157815D01*
X108774950Y-124157819D01*
X108899891Y-124329786D01*
X108899893Y-124329788D01*
X108899896Y-124329792D01*
X109050208Y-124480104D01*
X109050211Y-124480106D01*
X109050213Y-124480108D01*
X109222180Y-124605049D01*
X109222184Y-124605051D01*
X109411588Y-124701557D01*
X109613757Y-124767246D01*
X109613758Y-124767246D01*
X109613761Y-124767247D01*
X109823710Y-124800500D01*
X109823713Y-124800500D01*
X110036290Y-124800500D01*
X110246238Y-124767247D01*
X110246239Y-124767246D01*
X110246243Y-124767246D01*
X110448412Y-124701557D01*
X110637816Y-124605051D01*
X110809792Y-124480104D01*
X110960104Y-124329792D01*
X111083102Y-124160499D01*
X111085049Y-124157819D01*
X111085051Y-124157816D01*
X111181557Y-123968412D01*
X111247246Y-123766243D01*
X111253544Y-123726482D01*
X111280500Y-123556290D01*
X111280500Y-123343709D01*
X111247247Y-123133761D01*
X111242104Y-123117932D01*
X111181557Y-122931588D01*
X111085051Y-122742184D01*
X111085049Y-122742180D01*
X110960108Y-122570213D01*
X110960106Y-122570211D01*
X110960104Y-122570208D01*
X110809792Y-122419896D01*
X110809788Y-122419893D01*
X110809786Y-122419891D01*
X110637819Y-122294950D01*
X110637815Y-122294948D01*
X110448412Y-122198443D01*
X110246238Y-122132752D01*
X110036290Y-122099500D01*
X110036287Y-122099500D01*
X109823713Y-122099500D01*
X109823710Y-122099500D01*
X109613761Y-122132752D01*
X109411587Y-122198443D01*
X109222184Y-122294948D01*
X109222180Y-122294950D01*
X109050213Y-122419891D01*
X108899891Y-122570213D01*
X108774950Y-122742180D01*
X108774948Y-122742184D01*
X108678443Y-122931587D01*
X108612752Y-123133761D01*
X108579500Y-123343709D01*
X103309253Y-123343709D01*
X103167597Y-123249058D01*
X102976418Y-123169869D01*
X102773467Y-123129500D01*
X102773465Y-123129500D01*
X102566535Y-123129500D01*
X102566532Y-123129500D01*
X102363581Y-123169869D01*
X102172402Y-123249058D01*
X102000348Y-123364020D01*
X101854020Y-123510348D01*
X101739058Y-123682402D01*
X101659869Y-123873581D01*
X101619500Y-124076532D01*
X101619500Y-124283467D01*
X101659869Y-124486418D01*
X101739058Y-124677597D01*
X101854020Y-124849651D01*
X101854023Y-124849655D01*
X102000345Y-124995977D01*
X102000348Y-124995979D01*
X102033580Y-125018184D01*
X102071460Y-125066234D01*
X102073862Y-125127373D01*
X102039869Y-125178246D01*
X101982466Y-125199424D01*
X101978579Y-125199500D01*
X100507790Y-125199500D01*
X100492304Y-125198281D01*
X100478090Y-125196029D01*
X100453835Y-125192188D01*
X100424381Y-125182618D01*
X100396707Y-125168517D01*
X100371652Y-125150314D01*
X100349685Y-125128347D01*
X100331483Y-125103294D01*
X100317379Y-125075614D01*
X100307811Y-125046162D01*
X100301719Y-125007695D01*
X100300500Y-124992209D01*
X100300500Y-121536532D01*
X101619500Y-121536532D01*
X101619500Y-121743467D01*
X101659869Y-121946418D01*
X101739058Y-122137597D01*
X101854020Y-122309651D01*
X101854023Y-122309655D01*
X102000345Y-122455977D01*
X102172402Y-122570941D01*
X102363580Y-122650130D01*
X102566535Y-122690500D01*
X102566536Y-122690500D01*
X102773464Y-122690500D01*
X102773465Y-122690500D01*
X102976420Y-122650130D01*
X103167598Y-122570941D01*
X103339655Y-122455977D01*
X103485977Y-122309655D01*
X103600941Y-122137598D01*
X103680130Y-121946420D01*
X103720500Y-121743465D01*
X103720500Y-121536535D01*
X103720499Y-121536532D01*
X104159500Y-121536532D01*
X104159500Y-121743467D01*
X104199869Y-121946418D01*
X104279058Y-122137597D01*
X104394020Y-122309651D01*
X104394023Y-122309655D01*
X104540345Y-122455977D01*
X104712402Y-122570941D01*
X104903580Y-122650130D01*
X105106535Y-122690500D01*
X105106536Y-122690500D01*
X105313464Y-122690500D01*
X105313465Y-122690500D01*
X105516420Y-122650130D01*
X105707598Y-122570941D01*
X105879655Y-122455977D01*
X106025977Y-122309655D01*
X106140941Y-122137598D01*
X106220130Y-121946420D01*
X106260500Y-121743465D01*
X106260500Y-121536535D01*
X106220130Y-121333580D01*
X106140941Y-121142402D01*
X106025977Y-120970345D01*
X105879655Y-120824023D01*
X105863523Y-120813244D01*
X105707597Y-120709058D01*
X105516418Y-120629869D01*
X105313467Y-120589500D01*
X105313465Y-120589500D01*
X105106535Y-120589500D01*
X105106532Y-120589500D01*
X104903581Y-120629869D01*
X104712402Y-120709058D01*
X104540348Y-120824020D01*
X104394020Y-120970348D01*
X104279058Y-121142402D01*
X104199869Y-121333581D01*
X104159500Y-121536532D01*
X103720499Y-121536532D01*
X103680130Y-121333580D01*
X103600941Y-121142402D01*
X103485977Y-120970345D01*
X103339655Y-120824023D01*
X103323523Y-120813244D01*
X103167597Y-120709058D01*
X102976418Y-120629869D01*
X102773467Y-120589500D01*
X102773465Y-120589500D01*
X102566535Y-120589500D01*
X102566532Y-120589500D01*
X102363581Y-120629869D01*
X102172402Y-120709058D01*
X102000348Y-120824020D01*
X101854020Y-120970348D01*
X101739058Y-121142402D01*
X101659869Y-121333581D01*
X101619500Y-121536532D01*
X100300500Y-121536532D01*
X100300500Y-111376532D01*
X101619500Y-111376532D01*
X101619500Y-111583467D01*
X101659869Y-111786418D01*
X101739058Y-111977597D01*
X101832619Y-112117622D01*
X101854023Y-112149655D01*
X102000345Y-112295977D01*
X102172402Y-112410941D01*
X102363580Y-112490130D01*
X102566535Y-112530500D01*
X102566536Y-112530500D01*
X102773464Y-112530500D01*
X102773465Y-112530500D01*
X102976420Y-112490130D01*
X103167598Y-112410941D01*
X103339655Y-112295977D01*
X103485977Y-112149655D01*
X103600941Y-111977598D01*
X103680130Y-111786420D01*
X103720500Y-111583465D01*
X103720500Y-111376535D01*
X103680130Y-111173580D01*
X103600941Y-110982402D01*
X103485977Y-110810345D01*
X103339655Y-110664023D01*
X103309126Y-110643624D01*
X103167597Y-110549058D01*
X102976418Y-110469869D01*
X102773467Y-110429500D01*
X102773465Y-110429500D01*
X102566535Y-110429500D01*
X102566532Y-110429500D01*
X102363581Y-110469869D01*
X102172402Y-110549058D01*
X102000348Y-110664020D01*
X101854020Y-110810348D01*
X101739058Y-110982402D01*
X101659869Y-111173581D01*
X101619500Y-111376532D01*
X100300500Y-111376532D01*
X100300500Y-108836532D01*
X101619500Y-108836532D01*
X101619500Y-109043467D01*
X101659869Y-109246418D01*
X101739058Y-109437597D01*
X101837727Y-109585266D01*
X101854023Y-109609655D01*
X102000345Y-109755977D01*
X102172402Y-109870941D01*
X102363580Y-109950130D01*
X102566535Y-109990500D01*
X102566536Y-109990500D01*
X102773464Y-109990500D01*
X102773465Y-109990500D01*
X102976420Y-109950130D01*
X103167598Y-109870941D01*
X103339655Y-109755977D01*
X103485977Y-109609655D01*
X103600941Y-109437598D01*
X103680130Y-109246420D01*
X103720500Y-109043465D01*
X103720500Y-108836535D01*
X103680130Y-108633580D01*
X103600941Y-108442402D01*
X103485977Y-108270345D01*
X103339655Y-108124023D01*
X103339651Y-108124020D01*
X103167597Y-108009058D01*
X102976418Y-107929869D01*
X102773467Y-107889500D01*
X102773465Y-107889500D01*
X102566535Y-107889500D01*
X102566532Y-107889500D01*
X102363581Y-107929869D01*
X102172402Y-108009058D01*
X102000348Y-108124020D01*
X101854020Y-108270348D01*
X101739058Y-108442402D01*
X101659869Y-108633581D01*
X101619500Y-108836532D01*
X100300500Y-108836532D01*
X100300500Y-100507789D01*
X100301719Y-100492303D01*
X100303210Y-100482882D01*
X100307811Y-100453834D01*
X100317379Y-100424386D01*
X100331485Y-100396701D01*
X100349682Y-100371654D01*
X100371654Y-100349682D01*
X100396701Y-100331485D01*
X100424386Y-100317379D01*
X100453834Y-100307811D01*
X100482882Y-100303210D01*
X100492303Y-100301719D01*
X100507789Y-100300500D01*
X100547593Y-100300500D01*
X101528656Y-100300500D01*
X101586847Y-100319407D01*
G37*
%TD.AperFunction*%
%TA.AperFunction,Conductor*%
G36*
X133497696Y-100301719D02*
G01*
X133512753Y-100304103D01*
X133536162Y-100307811D01*
X133565614Y-100317379D01*
X133593294Y-100331483D01*
X133618347Y-100349685D01*
X133640314Y-100371652D01*
X133658517Y-100396707D01*
X133672618Y-100424381D01*
X133682188Y-100453835D01*
X133688281Y-100492301D01*
X133689500Y-100507789D01*
X133689500Y-124992208D01*
X133688281Y-125007697D01*
X133682188Y-125046161D01*
X133672618Y-125075614D01*
X133658519Y-125103287D01*
X133640312Y-125128349D01*
X133618349Y-125150312D01*
X133593287Y-125168519D01*
X133565614Y-125182618D01*
X133536162Y-125192188D01*
X133514537Y-125195613D01*
X133497692Y-125198281D01*
X133482209Y-125199500D01*
X132011421Y-125199500D01*
X131953230Y-125180593D01*
X131917266Y-125131093D01*
X131917266Y-125069907D01*
X131953230Y-125020407D01*
X131956420Y-125018184D01*
X131965152Y-125012348D01*
X131989655Y-124995977D01*
X132135977Y-124849655D01*
X132250941Y-124677598D01*
X132330130Y-124486420D01*
X132370500Y-124283465D01*
X132370500Y-124076535D01*
X132330130Y-123873580D01*
X132294512Y-123787593D01*
X132289712Y-123726600D01*
X132315972Y-123679708D01*
X132743370Y-123252312D01*
X132789514Y-123172388D01*
X132813400Y-123083243D01*
X132813400Y-122990956D01*
X132813400Y-121076756D01*
X132789514Y-120987612D01*
X132761394Y-120938907D01*
X132743370Y-120907689D01*
X132743368Y-120907687D01*
X132678112Y-120842430D01*
X132678112Y-120842431D01*
X132381784Y-120546103D01*
X132354007Y-120491586D01*
X132363578Y-120431154D01*
X132381781Y-120406099D01*
X132732170Y-120055712D01*
X132778314Y-119975788D01*
X132783697Y-119955699D01*
X132785821Y-119947774D01*
X132792379Y-119923296D01*
X132802200Y-119886644D01*
X132802200Y-108355856D01*
X132778314Y-108266712D01*
X132770024Y-108252354D01*
X132732170Y-108186788D01*
X131952512Y-107407130D01*
X131952509Y-107407128D01*
X131952505Y-107407124D01*
X131947366Y-107403181D01*
X131949052Y-107400982D01*
X131915895Y-107364148D01*
X131909507Y-107303297D01*
X131940106Y-107250313D01*
X131951328Y-107241586D01*
X131989655Y-107215977D01*
X132135977Y-107069655D01*
X132250941Y-106897598D01*
X132330130Y-106706420D01*
X132370500Y-106503465D01*
X132370500Y-106296535D01*
X132330130Y-106093580D01*
X132250941Y-105902402D01*
X132135977Y-105730345D01*
X131989655Y-105584023D01*
X131989651Y-105584020D01*
X131817597Y-105469058D01*
X131626418Y-105389869D01*
X131423467Y-105349500D01*
X131423465Y-105349500D01*
X131216535Y-105349500D01*
X131216532Y-105349500D01*
X131013581Y-105389869D01*
X130822402Y-105469058D01*
X130650348Y-105584020D01*
X130504020Y-105730348D01*
X130389058Y-105902402D01*
X130309869Y-106093581D01*
X130269500Y-106296532D01*
X130269500Y-106503467D01*
X130309869Y-106706418D01*
X130389058Y-106897597D01*
X130504020Y-107069651D01*
X130504023Y-107069655D01*
X130602466Y-107168098D01*
X130630242Y-107222613D01*
X130620671Y-107283045D01*
X130577406Y-107326310D01*
X130532461Y-107337100D01*
X129567539Y-107337100D01*
X129509348Y-107318193D01*
X129473384Y-107268693D01*
X129473384Y-107207507D01*
X129497533Y-107168098D01*
X129595977Y-107069655D01*
X129710941Y-106897598D01*
X129790130Y-106706420D01*
X129830500Y-106503465D01*
X129830500Y-106296535D01*
X129790130Y-106093580D01*
X129710941Y-105902402D01*
X129595977Y-105730345D01*
X129449655Y-105584023D01*
X129449651Y-105584020D01*
X129277597Y-105469058D01*
X129086418Y-105389869D01*
X128883467Y-105349500D01*
X128883465Y-105349500D01*
X128676535Y-105349500D01*
X128676532Y-105349500D01*
X128473581Y-105389869D01*
X128282402Y-105469058D01*
X128110348Y-105584020D01*
X127964020Y-105730348D01*
X127849058Y-105902402D01*
X127769869Y-106093581D01*
X127729500Y-106296532D01*
X127729500Y-106503467D01*
X127769869Y-106706418D01*
X127849058Y-106897597D01*
X127964020Y-107069651D01*
X127964023Y-107069655D01*
X128062466Y-107168098D01*
X128090242Y-107222613D01*
X128080671Y-107283045D01*
X128037406Y-107326310D01*
X127992461Y-107337100D01*
X125093233Y-107337100D01*
X125035042Y-107318193D01*
X124999078Y-107268693D01*
X124999078Y-107207507D01*
X125003508Y-107196261D01*
X125043972Y-107109487D01*
X125050500Y-107059901D01*
X125050499Y-106640100D01*
X125043972Y-106590513D01*
X125043972Y-106590511D01*
X124993225Y-106481686D01*
X124993224Y-106481685D01*
X124993224Y-106481684D01*
X124908316Y-106396776D01*
X124908314Y-106396775D01*
X124908313Y-106396774D01*
X124799489Y-106346029D01*
X124799488Y-106346028D01*
X124781857Y-106343707D01*
X124749901Y-106339500D01*
X124749899Y-106339500D01*
X124390104Y-106339500D01*
X124390092Y-106339501D01*
X124340513Y-106346027D01*
X124340511Y-106346027D01*
X124231686Y-106396774D01*
X124146774Y-106481686D01*
X124096029Y-106590510D01*
X124096028Y-106590511D01*
X124089500Y-106640100D01*
X124089500Y-107059896D01*
X124089501Y-107059907D01*
X124096027Y-107109486D01*
X124096027Y-107109488D01*
X124146774Y-107218313D01*
X124146775Y-107218314D01*
X124146776Y-107218316D01*
X124190505Y-107262045D01*
X124218281Y-107316560D01*
X124219500Y-107332047D01*
X124219500Y-107431700D01*
X124206238Y-107481197D01*
X124198609Y-107494411D01*
X124198608Y-107494413D01*
X124198608Y-107494414D01*
X124164500Y-107621708D01*
X124164500Y-107753492D01*
X124187243Y-107838370D01*
X124198609Y-107880790D01*
X124264496Y-107994909D01*
X124264498Y-107994911D01*
X124264500Y-107994914D01*
X124357686Y-108088100D01*
X124357688Y-108088101D01*
X124357690Y-108088103D01*
X124471810Y-108153990D01*
X124471808Y-108153990D01*
X124471812Y-108153991D01*
X124471814Y-108153992D01*
X124599108Y-108188100D01*
X124599110Y-108188100D01*
X124730890Y-108188100D01*
X124730892Y-108188100D01*
X124858186Y-108153992D01*
X124858188Y-108153990D01*
X124858190Y-108153990D01*
X124972309Y-108088103D01*
X124972309Y-108088102D01*
X124972314Y-108088100D01*
X124993319Y-108067094D01*
X125047834Y-108039319D01*
X125063321Y-108038100D01*
X127957261Y-108038100D01*
X128015452Y-108057007D01*
X128051416Y-108106507D01*
X128051416Y-108167693D01*
X128027266Y-108207101D01*
X127985305Y-108249063D01*
X127964020Y-108270348D01*
X127849058Y-108442402D01*
X127769869Y-108633581D01*
X127729500Y-108836532D01*
X127729500Y-109043467D01*
X127769869Y-109246418D01*
X127849058Y-109437597D01*
X127947727Y-109585266D01*
X127964023Y-109609655D01*
X128110345Y-109755977D01*
X128282402Y-109870941D01*
X128473580Y-109950130D01*
X128676535Y-109990500D01*
X128676536Y-109990500D01*
X128883464Y-109990500D01*
X128883465Y-109990500D01*
X129086420Y-109950130D01*
X129277598Y-109870941D01*
X129449655Y-109755977D01*
X129595977Y-109609655D01*
X129710941Y-109437598D01*
X129790130Y-109246420D01*
X129830500Y-109043465D01*
X129830500Y-108836535D01*
X129790130Y-108633580D01*
X129710941Y-108442402D01*
X129595977Y-108270345D01*
X129532733Y-108207101D01*
X129504958Y-108152587D01*
X129514529Y-108092155D01*
X129557794Y-108048890D01*
X129602739Y-108038100D01*
X130497261Y-108038100D01*
X130555452Y-108057007D01*
X130591416Y-108106507D01*
X130591416Y-108167693D01*
X130567266Y-108207101D01*
X130525305Y-108249063D01*
X130504020Y-108270348D01*
X130389058Y-108442402D01*
X130309869Y-108633581D01*
X130269500Y-108836532D01*
X130269500Y-109043467D01*
X130309870Y-109246419D01*
X130309870Y-109246421D01*
X130376551Y-109407403D01*
X130381352Y-109468399D01*
X130355091Y-109515291D01*
X129894042Y-109976342D01*
X129816546Y-110053838D01*
X129816544Y-110053840D01*
X129816543Y-110053842D01*
X129805580Y-110080309D01*
X129774600Y-110155100D01*
X129774600Y-110751313D01*
X129755693Y-110809504D01*
X129706193Y-110845468D01*
X129645007Y-110845468D01*
X129600369Y-110813036D01*
X129599065Y-110814107D01*
X129595984Y-110810353D01*
X129595979Y-110810348D01*
X129595977Y-110810345D01*
X129449655Y-110664023D01*
X129419126Y-110643624D01*
X129277597Y-110549058D01*
X129086418Y-110469869D01*
X128883467Y-110429500D01*
X128883465Y-110429500D01*
X128676535Y-110429500D01*
X128676532Y-110429500D01*
X128473580Y-110469870D01*
X128473578Y-110469870D01*
X128312596Y-110536551D01*
X128251600Y-110541352D01*
X128204707Y-110515091D01*
X127266057Y-109576442D01*
X127263592Y-109575421D01*
X127263591Y-109575421D01*
X127164800Y-109534500D01*
X127164799Y-109534500D01*
X123952737Y-109534500D01*
X123894546Y-109515593D01*
X123870103Y-109485941D01*
X123869033Y-109486691D01*
X123864067Y-109479599D01*
X123864065Y-109479597D01*
X123864065Y-109479596D01*
X123780404Y-109395935D01*
X123780402Y-109395934D01*
X123780401Y-109395933D01*
X123673175Y-109345932D01*
X123640601Y-109341644D01*
X123624316Y-109339500D01*
X123175684Y-109339500D01*
X123159398Y-109341644D01*
X123126825Y-109345932D01*
X123126824Y-109345932D01*
X123019598Y-109395933D01*
X123019596Y-109395934D01*
X123019596Y-109395935D01*
X122993701Y-109421829D01*
X122939187Y-109449605D01*
X122878755Y-109440034D01*
X122835490Y-109396769D01*
X122824700Y-109351824D01*
X122824700Y-108963857D01*
X122819594Y-108944800D01*
X122800814Y-108874712D01*
X122781184Y-108840712D01*
X122781183Y-108840710D01*
X122781183Y-108840709D01*
X122757785Y-108800184D01*
X122754670Y-108794788D01*
X122641491Y-108681609D01*
X122493696Y-108533813D01*
X122465919Y-108479297D01*
X122464700Y-108463810D01*
X122464700Y-107459499D01*
X122483607Y-107401308D01*
X122533107Y-107365344D01*
X122563700Y-107360499D01*
X122699897Y-107360499D01*
X122699900Y-107360499D01*
X122749487Y-107353972D01*
X122749488Y-107353972D01*
X122858159Y-107303297D01*
X122858316Y-107303224D01*
X122943224Y-107218316D01*
X122993972Y-107109487D01*
X123000500Y-107059901D01*
X123000499Y-106640100D01*
X122993972Y-106590513D01*
X122993972Y-106590511D01*
X122943225Y-106481686D01*
X122943223Y-106481683D01*
X122899496Y-106437955D01*
X122871719Y-106383438D01*
X122870500Y-106367952D01*
X122870500Y-105766188D01*
X122889407Y-105707997D01*
X122899485Y-105696196D01*
X123041187Y-105554493D01*
X123095702Y-105526718D01*
X123111189Y-105525499D01*
X123224175Y-105525499D01*
X123224178Y-105525499D01*
X123269760Y-105519499D01*
X123269761Y-105519499D01*
X123330136Y-105491345D01*
X123369799Y-105472850D01*
X123447850Y-105394799D01*
X123494499Y-105294760D01*
X123500500Y-105249179D01*
X123500499Y-104965488D01*
X123519406Y-104907299D01*
X123529489Y-104895491D01*
X123621573Y-104803407D01*
X123676088Y-104775632D01*
X123736520Y-104785203D01*
X123777310Y-104823911D01*
X123802600Y-104867714D01*
X123895786Y-104960900D01*
X123895788Y-104960901D01*
X123895790Y-104960903D01*
X124009910Y-105026790D01*
X124009908Y-105026790D01*
X124009912Y-105026791D01*
X124009914Y-105026792D01*
X124137208Y-105060900D01*
X124137210Y-105060900D01*
X124268990Y-105060900D01*
X124268992Y-105060900D01*
X124396286Y-105026792D01*
X124415970Y-105015426D01*
X124475817Y-105002704D01*
X124531713Y-105027588D01*
X124535476Y-105031158D01*
X124570504Y-105066186D01*
X124598281Y-105120703D01*
X124599500Y-105136189D01*
X124599500Y-105249173D01*
X124599501Y-105249185D01*
X124605500Y-105294759D01*
X124605500Y-105294761D01*
X124652148Y-105394796D01*
X124652149Y-105394797D01*
X124652150Y-105394799D01*
X124730201Y-105472850D01*
X124830240Y-105519499D01*
X124875821Y-105525500D01*
X125324178Y-105525499D01*
X125369760Y-105519499D01*
X125369761Y-105519499D01*
X125430136Y-105491345D01*
X125469799Y-105472850D01*
X125547850Y-105394799D01*
X125594499Y-105294760D01*
X125600500Y-105249179D01*
X125600499Y-104950822D01*
X125594499Y-104905240D01*
X125594499Y-104905238D01*
X125547851Y-104805203D01*
X125547850Y-104805202D01*
X125547850Y-104805201D01*
X125469799Y-104727150D01*
X125369760Y-104680501D01*
X125324179Y-104674500D01*
X125324178Y-104674500D01*
X125211190Y-104674500D01*
X125152999Y-104655593D01*
X125141186Y-104645504D01*
X124972386Y-104476704D01*
X124944609Y-104422187D01*
X124954180Y-104361755D01*
X124997445Y-104318490D01*
X125042390Y-104307700D01*
X125057242Y-104307700D01*
X125057244Y-104307700D01*
X125146388Y-104283814D01*
X125226312Y-104237670D01*
X125707450Y-103756532D01*
X127729500Y-103756532D01*
X127729500Y-103963467D01*
X127769869Y-104166418D01*
X127849058Y-104357597D01*
X127964020Y-104529651D01*
X127964023Y-104529655D01*
X128110345Y-104675977D01*
X128282402Y-104790941D01*
X128473580Y-104870130D01*
X128676535Y-104910500D01*
X128676536Y-104910500D01*
X128883464Y-104910500D01*
X128883465Y-104910500D01*
X129086420Y-104870130D01*
X129277598Y-104790941D01*
X129449655Y-104675977D01*
X129595977Y-104529655D01*
X129710941Y-104357598D01*
X129790130Y-104166420D01*
X129830500Y-103963465D01*
X129830500Y-103756535D01*
X129830499Y-103756532D01*
X130269500Y-103756532D01*
X130269500Y-103963467D01*
X130309869Y-104166418D01*
X130389058Y-104357597D01*
X130504020Y-104529651D01*
X130504023Y-104529655D01*
X130650345Y-104675977D01*
X130822402Y-104790941D01*
X131013580Y-104870130D01*
X131216535Y-104910500D01*
X131216536Y-104910500D01*
X131423464Y-104910500D01*
X131423465Y-104910500D01*
X131626420Y-104870130D01*
X131817598Y-104790941D01*
X131989655Y-104675977D01*
X132135977Y-104529655D01*
X132250941Y-104357598D01*
X132330130Y-104166420D01*
X132370500Y-103963465D01*
X132370500Y-103756535D01*
X132330130Y-103553580D01*
X132250941Y-103362402D01*
X132135977Y-103190345D01*
X131989655Y-103044023D01*
X131989651Y-103044020D01*
X131817597Y-102929058D01*
X131626418Y-102849869D01*
X131423467Y-102809500D01*
X131423465Y-102809500D01*
X131216535Y-102809500D01*
X131216532Y-102809500D01*
X131013581Y-102849869D01*
X130822402Y-102929058D01*
X130650348Y-103044020D01*
X130504020Y-103190348D01*
X130389058Y-103362402D01*
X130309869Y-103553581D01*
X130269500Y-103756532D01*
X129830499Y-103756532D01*
X129790130Y-103553580D01*
X129710941Y-103362402D01*
X129595977Y-103190345D01*
X129449655Y-103044023D01*
X129449651Y-103044020D01*
X129277597Y-102929058D01*
X129086418Y-102849869D01*
X128883467Y-102809500D01*
X128883465Y-102809500D01*
X128676535Y-102809500D01*
X128676532Y-102809500D01*
X128473581Y-102849869D01*
X128282402Y-102929058D01*
X128110348Y-103044020D01*
X127964020Y-103190348D01*
X127849058Y-103362402D01*
X127769869Y-103553581D01*
X127729500Y-103756532D01*
X125707450Y-103756532D01*
X127560498Y-101903483D01*
X127615013Y-101875708D01*
X127675445Y-101885279D01*
X127718710Y-101928544D01*
X127729500Y-101973489D01*
X127729500Y-102189746D01*
X127729501Y-102189758D01*
X127741132Y-102248227D01*
X127741133Y-102248231D01*
X127785448Y-102314552D01*
X127851769Y-102358867D01*
X127888851Y-102366243D01*
X127910241Y-102370498D01*
X127910246Y-102370498D01*
X127910252Y-102370500D01*
X127910253Y-102370500D01*
X129649747Y-102370500D01*
X129649748Y-102370500D01*
X129708231Y-102358867D01*
X129774552Y-102314552D01*
X129818867Y-102248231D01*
X129830500Y-102189748D01*
X129830500Y-100450252D01*
X129830499Y-100450250D01*
X129830499Y-100450244D01*
X129824247Y-100418816D01*
X129831437Y-100358055D01*
X129872969Y-100313124D01*
X129921344Y-100300500D01*
X133442406Y-100300500D01*
X133482210Y-100300500D01*
X133497696Y-100301719D01*
G37*
%TD.AperFunction*%
%TA.AperFunction,Conductor*%
G36*
X124808691Y-118627907D02*
G01*
X124844655Y-118677407D01*
X124849500Y-118708000D01*
X124849500Y-118939500D01*
X124849501Y-118939503D01*
X124852293Y-118963581D01*
X124877885Y-119021540D01*
X124895785Y-119062079D01*
X124971921Y-119138215D01*
X125070420Y-119181707D01*
X125094495Y-119184500D01*
X125261110Y-119184499D01*
X125286729Y-119187871D01*
X125365956Y-119209100D01*
X125546712Y-119209100D01*
X125604903Y-119228007D01*
X125616709Y-119238090D01*
X125623188Y-119244569D01*
X125703112Y-119290714D01*
X125792256Y-119314600D01*
X125918610Y-119314600D01*
X125976801Y-119333507D01*
X125988614Y-119343596D01*
X126568314Y-119923296D01*
X126596091Y-119977813D01*
X126586520Y-120038245D01*
X126568314Y-120063304D01*
X126012314Y-120619304D01*
X125957797Y-120647081D01*
X125942310Y-120648300D01*
X125410990Y-120648300D01*
X125352799Y-120629393D01*
X125340986Y-120619304D01*
X125136495Y-120414813D01*
X125108718Y-120360296D01*
X125107499Y-120344809D01*
X125107499Y-120191103D01*
X125107498Y-120191092D01*
X125100972Y-120141513D01*
X125100972Y-120141511D01*
X125050225Y-120032686D01*
X125050224Y-120032685D01*
X125050224Y-120032684D01*
X124965316Y-119947776D01*
X124965314Y-119947775D01*
X124965313Y-119947774D01*
X124856489Y-119897029D01*
X124856488Y-119897028D01*
X124839958Y-119894852D01*
X124806901Y-119890500D01*
X124806899Y-119890500D01*
X124447104Y-119890500D01*
X124447092Y-119890501D01*
X124397513Y-119897027D01*
X124397511Y-119897027D01*
X124288686Y-119947774D01*
X124203774Y-120032686D01*
X124153029Y-120141510D01*
X124153028Y-120141511D01*
X124146500Y-120191100D01*
X124146500Y-120344810D01*
X124127593Y-120403001D01*
X124117504Y-120414813D01*
X123856115Y-120676203D01*
X123801598Y-120703981D01*
X123786111Y-120705200D01*
X123452890Y-120705200D01*
X123394699Y-120686293D01*
X123382886Y-120676204D01*
X123196685Y-120490003D01*
X123168908Y-120435486D01*
X123178479Y-120375054D01*
X123196685Y-120349995D01*
X123553380Y-119993300D01*
X123980469Y-119566212D01*
X124026614Y-119486288D01*
X124035157Y-119454404D01*
X124050500Y-119397144D01*
X124050500Y-119334756D01*
X124058935Y-119294769D01*
X124072707Y-119263580D01*
X124075500Y-119239505D01*
X124075499Y-118707999D01*
X124094406Y-118649809D01*
X124143906Y-118613845D01*
X124174499Y-118609000D01*
X124750500Y-118609000D01*
X124808691Y-118627907D01*
G37*
%TD.AperFunction*%
%TA.AperFunction,Conductor*%
G36*
X123036745Y-115183913D02*
G01*
X123080010Y-115227178D01*
X123090800Y-115272123D01*
X123090800Y-115976500D01*
X123105377Y-116011692D01*
X123121618Y-116050900D01*
X123121618Y-116050901D01*
X123132741Y-116077755D01*
X123132742Y-116077756D01*
X123132743Y-116077758D01*
X123395505Y-116340520D01*
X123423281Y-116395035D01*
X123424500Y-116410522D01*
X123424500Y-116661198D01*
X123405593Y-116719389D01*
X123395505Y-116731200D01*
X123370786Y-116755919D01*
X123370785Y-116755920D01*
X123370785Y-116755921D01*
X123334014Y-116839200D01*
X123327292Y-116854423D01*
X123324500Y-116878488D01*
X123324500Y-117414500D01*
X123324501Y-117414503D01*
X123327293Y-117438581D01*
X123368935Y-117532890D01*
X123370785Y-117537079D01*
X123371005Y-117537299D01*
X123371205Y-117537693D01*
X123375970Y-117544648D01*
X123375065Y-117545267D01*
X123398781Y-117591814D01*
X123400000Y-117607301D01*
X123400000Y-118334500D01*
X123381093Y-118392691D01*
X123331593Y-118428655D01*
X123301000Y-118433500D01*
X122769499Y-118433500D01*
X122769496Y-118433501D01*
X122745418Y-118436293D01*
X122646922Y-118479784D01*
X122570784Y-118555922D01*
X122537755Y-118630725D01*
X122496954Y-118676320D01*
X122437145Y-118689225D01*
X122421574Y-118686364D01*
X122409392Y-118683100D01*
X122277608Y-118683100D01*
X122266076Y-118686190D01*
X122254113Y-118689395D01*
X122193011Y-118686190D01*
X122190608Y-118685231D01*
X122155693Y-118670769D01*
X122156997Y-118667618D01*
X122118426Y-118646012D01*
X122092816Y-118590444D01*
X122094035Y-118559496D01*
X122094746Y-118555922D01*
X122095500Y-118552133D01*
X122095499Y-118347868D01*
X122079515Y-118267505D01*
X122071159Y-118255000D01*
X122054551Y-118196114D01*
X122071159Y-118144999D01*
X122079515Y-118132495D01*
X122091831Y-118070574D01*
X122118923Y-118019890D01*
X122575958Y-117562858D01*
X122579473Y-117554372D01*
X122617900Y-117461601D01*
X122617900Y-116481522D01*
X122636807Y-116423331D01*
X122646897Y-116411518D01*
X122717897Y-116340518D01*
X122821758Y-116236658D01*
X122821759Y-116236656D01*
X122863700Y-116135401D01*
X122863700Y-115301223D01*
X122882607Y-115243032D01*
X122892696Y-115231219D01*
X122921796Y-115202119D01*
X122976313Y-115174342D01*
X123036745Y-115183913D01*
G37*
%TD.AperFunction*%
%TA.AperFunction,Conductor*%
G36*
X130343548Y-111929709D02*
G01*
X130386813Y-111972974D01*
X130388230Y-111976049D01*
X130389056Y-111977593D01*
X130389058Y-111977596D01*
X130389059Y-111977598D01*
X130504023Y-112149655D01*
X130650345Y-112295977D01*
X130822402Y-112410941D01*
X131013580Y-112490130D01*
X131216535Y-112530500D01*
X131216536Y-112530500D01*
X131423464Y-112530500D01*
X131423465Y-112530500D01*
X131626420Y-112490130D01*
X131817598Y-112410941D01*
X131947199Y-112324345D01*
X132006087Y-112307737D01*
X132063491Y-112328915D01*
X132097483Y-112379789D01*
X132101200Y-112406661D01*
X132101200Y-113093338D01*
X132082293Y-113151529D01*
X132032793Y-113187493D01*
X131971607Y-113187493D01*
X131947199Y-113175654D01*
X131817597Y-113089058D01*
X131626418Y-113009869D01*
X131423467Y-112969500D01*
X131423465Y-112969500D01*
X131216535Y-112969500D01*
X131216532Y-112969500D01*
X131013581Y-113009869D01*
X130822402Y-113089058D01*
X130650348Y-113204020D01*
X130504020Y-113350348D01*
X130389058Y-113522402D01*
X130309869Y-113713581D01*
X130269500Y-113916532D01*
X130269500Y-114123467D01*
X130309869Y-114326418D01*
X130389058Y-114517597D01*
X130504020Y-114689651D01*
X130504023Y-114689655D01*
X130650345Y-114835977D01*
X130822402Y-114950941D01*
X131013580Y-115030130D01*
X131216535Y-115070500D01*
X131216536Y-115070500D01*
X131423464Y-115070500D01*
X131423465Y-115070500D01*
X131626420Y-115030130D01*
X131817598Y-114950941D01*
X131947199Y-114864345D01*
X132006087Y-114847737D01*
X132063491Y-114868915D01*
X132097483Y-114919789D01*
X132101200Y-114946661D01*
X132101200Y-115633338D01*
X132082293Y-115691529D01*
X132032793Y-115727493D01*
X131971607Y-115727493D01*
X131947199Y-115715654D01*
X131817597Y-115629058D01*
X131626418Y-115549869D01*
X131423467Y-115509500D01*
X131423465Y-115509500D01*
X131216535Y-115509500D01*
X131216532Y-115509500D01*
X131013581Y-115549869D01*
X130945166Y-115578208D01*
X130852206Y-115616714D01*
X130851607Y-115616962D01*
X130790610Y-115621763D01*
X130743718Y-115595502D01*
X130417961Y-115269746D01*
X130417958Y-115269743D01*
X130399166Y-115261959D01*
X130316700Y-115227800D01*
X130316699Y-115227800D01*
X129097830Y-115227800D01*
X129039639Y-115208893D01*
X129003675Y-115159393D01*
X129003675Y-115098207D01*
X129039639Y-115048707D01*
X129078515Y-115031702D01*
X129086420Y-115030130D01*
X129277598Y-114950941D01*
X129449655Y-114835977D01*
X129595977Y-114689655D01*
X129710941Y-114517598D01*
X129790130Y-114326420D01*
X129830500Y-114123465D01*
X129830500Y-113916535D01*
X129790130Y-113713580D01*
X129710941Y-113522402D01*
X129595977Y-113350345D01*
X129449655Y-113204023D01*
X129407197Y-113175654D01*
X129317149Y-113115486D01*
X129277598Y-113089059D01*
X129277596Y-113089058D01*
X129277593Y-113089056D01*
X129273309Y-113086766D01*
X129274204Y-113085091D01*
X129233504Y-113050326D01*
X129219224Y-112990830D01*
X129242641Y-112934303D01*
X129247903Y-112928611D01*
X129270457Y-112906058D01*
X129270456Y-112906058D01*
X130228602Y-111947913D01*
X130283116Y-111920138D01*
X130343548Y-111929709D01*
G37*
%TD.AperFunction*%
%TA.AperFunction,Conductor*%
G36*
X127714228Y-113698307D02*
G01*
X127750192Y-113747807D01*
X127753135Y-113797714D01*
X127729500Y-113916532D01*
X127729500Y-114123467D01*
X127769869Y-114326418D01*
X127849058Y-114517597D01*
X127964020Y-114689651D01*
X127964023Y-114689655D01*
X128110345Y-114835977D01*
X128282402Y-114950941D01*
X128473580Y-115030130D01*
X128481484Y-115031702D01*
X128534868Y-115061599D01*
X128560484Y-115117164D01*
X128548547Y-115177173D01*
X128503617Y-115218706D01*
X128462170Y-115227800D01*
X127203924Y-115227800D01*
X127145733Y-115208893D01*
X127133920Y-115198804D01*
X127032771Y-115097655D01*
X127012254Y-115059270D01*
X127010231Y-115060108D01*
X127006500Y-115051100D01*
X126964557Y-114949842D01*
X126934504Y-114919789D01*
X126887058Y-114872342D01*
X126887058Y-114872343D01*
X126392616Y-114377901D01*
X126364841Y-114323387D01*
X126374412Y-114262955D01*
X126417677Y-114219690D01*
X126462622Y-114208900D01*
X126470779Y-114208900D01*
X126528970Y-114227807D01*
X126540783Y-114237896D01*
X126543598Y-114240711D01*
X126543600Y-114240714D01*
X126636786Y-114333900D01*
X126636788Y-114333901D01*
X126636790Y-114333903D01*
X126750910Y-114399790D01*
X126750908Y-114399790D01*
X126750912Y-114399791D01*
X126750914Y-114399792D01*
X126878208Y-114433900D01*
X126878210Y-114433900D01*
X127009990Y-114433900D01*
X127009992Y-114433900D01*
X127137286Y-114399792D01*
X127137288Y-114399790D01*
X127137290Y-114399790D01*
X127251409Y-114333903D01*
X127251409Y-114333902D01*
X127251414Y-114333900D01*
X127344600Y-114240714D01*
X127344603Y-114240709D01*
X127410490Y-114126590D01*
X127410490Y-114126588D01*
X127410492Y-114126586D01*
X127444600Y-113999292D01*
X127444600Y-113867508D01*
X127427589Y-113804021D01*
X127430792Y-113742921D01*
X127469297Y-113695371D01*
X127523216Y-113679400D01*
X127656037Y-113679400D01*
X127714228Y-113698307D01*
G37*
%TD.AperFunction*%
%TA.AperFunction,Conductor*%
G36*
X121842019Y-113819406D02*
G01*
X121869565Y-113850000D01*
X121880856Y-113869557D01*
X121893577Y-113929405D01*
X121868690Y-113985301D01*
X121865123Y-113989060D01*
X121783679Y-114070504D01*
X121729162Y-114098281D01*
X121713675Y-114099500D01*
X120467870Y-114099500D01*
X120467856Y-114099502D01*
X120461908Y-114100685D01*
X120401147Y-114093489D01*
X120356221Y-114051952D01*
X120344289Y-113991942D01*
X120369910Y-113936379D01*
X120372599Y-113933582D01*
X120476686Y-113829496D01*
X120531202Y-113801719D01*
X120546689Y-113800500D01*
X121223334Y-113800500D01*
X121223338Y-113800499D01*
X121783828Y-113800499D01*
X121842019Y-113819406D01*
G37*
%TD.AperFunction*%
%TA.AperFunction,Conductor*%
G36*
X127696847Y-100319407D02*
G01*
X127732811Y-100368907D01*
X127735753Y-100418816D01*
X127729500Y-100450244D01*
X127729500Y-100870500D01*
X127710593Y-100928691D01*
X127661093Y-100964655D01*
X127630500Y-100969500D01*
X127602156Y-100969500D01*
X127513012Y-100993386D01*
X127433088Y-101039530D01*
X124894914Y-103577704D01*
X124840397Y-103605481D01*
X124824910Y-103606700D01*
X123925956Y-103606700D01*
X123836812Y-103630586D01*
X123756885Y-103676732D01*
X122780346Y-104653269D01*
X122736678Y-104675518D01*
X122737513Y-104678381D01*
X122730235Y-104680502D01*
X122630203Y-104727148D01*
X122630201Y-104727150D01*
X122552150Y-104805201D01*
X122505501Y-104905240D01*
X122500070Y-104946496D01*
X122499500Y-104950822D01*
X122499500Y-105063810D01*
X122480593Y-105122001D01*
X122470504Y-105133813D01*
X122239530Y-105364787D01*
X122203834Y-105426613D01*
X122203835Y-105426614D01*
X122193386Y-105444710D01*
X122169500Y-105533857D01*
X122169500Y-106367952D01*
X122150593Y-106426143D01*
X122140504Y-106437955D01*
X122096776Y-106481683D01*
X122096774Y-106481686D01*
X122046029Y-106590510D01*
X122046028Y-106590511D01*
X122039500Y-106640100D01*
X122039500Y-106793810D01*
X122020593Y-106852001D01*
X122010504Y-106863813D01*
X121833730Y-107040587D01*
X121822576Y-107059907D01*
X121793951Y-107109487D01*
X121787586Y-107120512D01*
X121764276Y-107207507D01*
X121763700Y-107209657D01*
X121763700Y-108214380D01*
X121744793Y-108272571D01*
X121720656Y-108296050D01*
X121719582Y-108296785D01*
X121641789Y-108374578D01*
X121597353Y-108475216D01*
X121594500Y-108499808D01*
X121594500Y-108800180D01*
X121594500Y-108800182D01*
X121594501Y-108800184D01*
X121597354Y-108824786D01*
X121641789Y-108925422D01*
X121641790Y-108925423D01*
X121645495Y-108933814D01*
X121642205Y-108935266D01*
X121654711Y-108977780D01*
X121642641Y-109014925D01*
X121645495Y-109016186D01*
X121641789Y-109024577D01*
X121641789Y-109024578D01*
X121605414Y-109106957D01*
X121597353Y-109125216D01*
X121594500Y-109149808D01*
X121594500Y-109450180D01*
X121594500Y-109450182D01*
X121594501Y-109450184D01*
X121597354Y-109474786D01*
X121641789Y-109575422D01*
X121641790Y-109575423D01*
X121645495Y-109583814D01*
X121642205Y-109585266D01*
X121654711Y-109627780D01*
X121642641Y-109664925D01*
X121645495Y-109666186D01*
X121641789Y-109674577D01*
X121641789Y-109674578D01*
X121605848Y-109755977D01*
X121597353Y-109775216D01*
X121594500Y-109799808D01*
X121594500Y-110100180D01*
X121594500Y-110100182D01*
X121594501Y-110100184D01*
X121597354Y-110124786D01*
X121641789Y-110225422D01*
X121719578Y-110303211D01*
X121820214Y-110347646D01*
X121844815Y-110350500D01*
X122120184Y-110350499D01*
X122144786Y-110347646D01*
X122245422Y-110303211D01*
X122323211Y-110225422D01*
X122338802Y-110190110D01*
X122379602Y-110144517D01*
X122429366Y-110131100D01*
X122520342Y-110131100D01*
X122520344Y-110131100D01*
X122609488Y-110107214D01*
X122689412Y-110061069D01*
X122732333Y-110018147D01*
X122786847Y-109990371D01*
X122847279Y-109999942D01*
X122890544Y-110043206D01*
X122892059Y-110046313D01*
X122935933Y-110140401D01*
X122935934Y-110140402D01*
X122935935Y-110140404D01*
X123019596Y-110224065D01*
X123019597Y-110224065D01*
X123019598Y-110224066D01*
X123126824Y-110274067D01*
X123126825Y-110274067D01*
X123126827Y-110274068D01*
X123175684Y-110280500D01*
X123175685Y-110280500D01*
X123624314Y-110280500D01*
X123624316Y-110280500D01*
X123673173Y-110274068D01*
X123780404Y-110224065D01*
X123864065Y-110140404D01*
X123864067Y-110140400D01*
X123869033Y-110133309D01*
X123870666Y-110134453D01*
X123904740Y-110097913D01*
X123952737Y-110085500D01*
X126954877Y-110085500D01*
X127013068Y-110104407D01*
X127024881Y-110114496D01*
X127815091Y-110904707D01*
X127842868Y-110959224D01*
X127836551Y-111012596D01*
X127769870Y-111173578D01*
X127769870Y-111173580D01*
X127729500Y-111376532D01*
X127729500Y-111583467D01*
X127769869Y-111786418D01*
X127849058Y-111977597D01*
X127942619Y-112117622D01*
X127964023Y-112149655D01*
X128110345Y-112295977D01*
X128110348Y-112295979D01*
X128110353Y-112295984D01*
X128113996Y-112298974D01*
X128146982Y-112350507D01*
X128143378Y-112411586D01*
X128104561Y-112458881D01*
X128051189Y-112474500D01*
X124113700Y-112474500D01*
X124004100Y-112474500D01*
X123902842Y-112516443D01*
X123902840Y-112516444D01*
X123902838Y-112516446D01*
X122949693Y-113469590D01*
X122895177Y-113497367D01*
X122834745Y-113487796D01*
X122793954Y-113449086D01*
X122727503Y-113333990D01*
X122727501Y-113333988D01*
X122727500Y-113333986D01*
X122634314Y-113240800D01*
X122634311Y-113240798D01*
X122634309Y-113240796D01*
X122520189Y-113174909D01*
X122520191Y-113174909D01*
X122470799Y-113161675D01*
X122392892Y-113140800D01*
X122261108Y-113140800D01*
X122133814Y-113174908D01*
X122133813Y-113174908D01*
X122133811Y-113174909D01*
X122124150Y-113180487D01*
X122064301Y-113193205D01*
X122019652Y-113177063D01*
X121927497Y-113115486D01*
X121927496Y-113115485D01*
X121927495Y-113115485D01*
X121847133Y-113099500D01*
X121743961Y-113099500D01*
X121685770Y-113080593D01*
X121649806Y-113031093D01*
X121649806Y-112969907D01*
X121685770Y-112920407D01*
X121702121Y-112910776D01*
X121712238Y-112906058D01*
X121718316Y-112903224D01*
X121803224Y-112818316D01*
X121853972Y-112709487D01*
X121860500Y-112659901D01*
X121860499Y-112300100D01*
X121853972Y-112250513D01*
X121853972Y-112250511D01*
X121803225Y-112141686D01*
X121803224Y-112141685D01*
X121803224Y-112141684D01*
X121718316Y-112056776D01*
X121718314Y-112056775D01*
X121718313Y-112056774D01*
X121609489Y-112006029D01*
X121609488Y-112006028D01*
X121592639Y-112003810D01*
X121559901Y-111999500D01*
X121559899Y-111999500D01*
X121140103Y-111999500D01*
X121140092Y-111999501D01*
X121090513Y-112006027D01*
X121090511Y-112006027D01*
X120981686Y-112056774D01*
X120896774Y-112141686D01*
X120846029Y-112250510D01*
X120846028Y-112250511D01*
X120839500Y-112300100D01*
X120839500Y-112496723D01*
X120831967Y-112534601D01*
X120830888Y-112537205D01*
X120830886Y-112537211D01*
X120830886Y-112537212D01*
X120815687Y-112593938D01*
X120807000Y-112626357D01*
X120807000Y-113000500D01*
X120788093Y-113058691D01*
X120738593Y-113094655D01*
X120708000Y-113099500D01*
X120307867Y-113099500D01*
X120307867Y-113096857D01*
X120258732Y-113087741D01*
X120216624Y-113043350D01*
X120213974Y-113036165D01*
X120213874Y-113036207D01*
X120211393Y-113030217D01*
X120211392Y-113030216D01*
X120211392Y-113030214D01*
X120145500Y-112916086D01*
X120128840Y-112899426D01*
X120109863Y-112880448D01*
X120082086Y-112825931D01*
X120082770Y-112791129D01*
X120084227Y-112783808D01*
X120093342Y-112737981D01*
X120095499Y-112727140D01*
X120095499Y-112727138D01*
X120095500Y-112727133D01*
X120095499Y-112117621D01*
X120114406Y-112059431D01*
X120124496Y-112047618D01*
X120204019Y-111968096D01*
X120258536Y-111940319D01*
X120274022Y-111939100D01*
X120409790Y-111939100D01*
X120409792Y-111939100D01*
X120537086Y-111904992D01*
X120537088Y-111904990D01*
X120537090Y-111904990D01*
X120651209Y-111839103D01*
X120651209Y-111839102D01*
X120651214Y-111839100D01*
X120744400Y-111745914D01*
X120810292Y-111631786D01*
X120844400Y-111504492D01*
X120844400Y-111372708D01*
X120810292Y-111245414D01*
X120810290Y-111245411D01*
X120810290Y-111245409D01*
X120744403Y-111131290D01*
X120744401Y-111131288D01*
X120744400Y-111131286D01*
X120651214Y-111038100D01*
X120639351Y-111031251D01*
X120598412Y-110985783D01*
X120592016Y-110924933D01*
X120603117Y-110896015D01*
X120624092Y-110859686D01*
X120658200Y-110732392D01*
X120658200Y-110600608D01*
X120624092Y-110473314D01*
X120624090Y-110473311D01*
X120624090Y-110473309D01*
X120558203Y-110359190D01*
X120558201Y-110359188D01*
X120558200Y-110359186D01*
X120465014Y-110266000D01*
X120465011Y-110265998D01*
X120465009Y-110265996D01*
X120350889Y-110200109D01*
X120350891Y-110200109D01*
X120301499Y-110186875D01*
X120223592Y-110166000D01*
X120091808Y-110166000D01*
X120013900Y-110186875D01*
X119964509Y-110200109D01*
X119850390Y-110265996D01*
X119850389Y-110265997D01*
X119850386Y-110265999D01*
X119850386Y-110266000D01*
X119757200Y-110359186D01*
X119757198Y-110359188D01*
X119754383Y-110362004D01*
X119699866Y-110389781D01*
X119684379Y-110391000D01*
X119399050Y-110391000D01*
X119399050Y-110387460D01*
X119355534Y-110382289D01*
X119311288Y-110341903D01*
X119252100Y-110239386D01*
X119158914Y-110146200D01*
X119158911Y-110146198D01*
X119158909Y-110146196D01*
X119044789Y-110080309D01*
X119044791Y-110080309D01*
X118972984Y-110061069D01*
X118917492Y-110046200D01*
X118785708Y-110046200D01*
X118660336Y-110079793D01*
X118599234Y-110076590D01*
X118564709Y-110054170D01*
X118559224Y-110048685D01*
X118559224Y-110048684D01*
X118474316Y-109963776D01*
X118474314Y-109963775D01*
X118474313Y-109963774D01*
X118365489Y-109913029D01*
X118365488Y-109913028D01*
X118340694Y-109909764D01*
X118315901Y-109906500D01*
X118315900Y-109906500D01*
X118162188Y-109906500D01*
X118103997Y-109887593D01*
X118092184Y-109877503D01*
X117881896Y-109667214D01*
X117854119Y-109612698D01*
X117852900Y-109597211D01*
X117852900Y-108995190D01*
X117871807Y-108936999D01*
X117881896Y-108925186D01*
X117903286Y-108903796D01*
X117957803Y-108876019D01*
X117973290Y-108874800D01*
X118002990Y-108874800D01*
X118002992Y-108874800D01*
X118130286Y-108840692D01*
X118130288Y-108840690D01*
X118130290Y-108840690D01*
X118244409Y-108774803D01*
X118244409Y-108774802D01*
X118244414Y-108774800D01*
X118337600Y-108681614D01*
X118403492Y-108567486D01*
X118408218Y-108549844D01*
X118441541Y-108498532D01*
X118498662Y-108476604D01*
X118557763Y-108492439D01*
X118573849Y-108505464D01*
X118614504Y-108546119D01*
X118642281Y-108600636D01*
X118643500Y-108616123D01*
X118643500Y-108880316D01*
X118646554Y-108903511D01*
X118649932Y-108929174D01*
X118649932Y-108929175D01*
X118699933Y-109036401D01*
X118699934Y-109036402D01*
X118699935Y-109036404D01*
X118783596Y-109120065D01*
X118783597Y-109120065D01*
X118783598Y-109120066D01*
X118890824Y-109170067D01*
X118890825Y-109170067D01*
X118890827Y-109170068D01*
X118939684Y-109176500D01*
X118939685Y-109176500D01*
X119388314Y-109176500D01*
X119388316Y-109176500D01*
X119437173Y-109170068D01*
X119544404Y-109120065D01*
X119628065Y-109036404D01*
X119678068Y-108929173D01*
X119678067Y-108929173D01*
X119681269Y-108922309D01*
X119682652Y-108922954D01*
X119712233Y-108879499D01*
X119769817Y-108858817D01*
X119828560Y-108875933D01*
X119863414Y-108917780D01*
X119870493Y-108933811D01*
X119867204Y-108935263D01*
X119879711Y-108977780D01*
X119867641Y-109014925D01*
X119870495Y-109016186D01*
X119866789Y-109024577D01*
X119866789Y-109024578D01*
X119830414Y-109106957D01*
X119822353Y-109125216D01*
X119819500Y-109149808D01*
X119819500Y-109450180D01*
X119819500Y-109450182D01*
X119819501Y-109450184D01*
X119822354Y-109474786D01*
X119866789Y-109575422D01*
X119944578Y-109653211D01*
X120045214Y-109697646D01*
X120069815Y-109700500D01*
X120345184Y-109700499D01*
X120369786Y-109697646D01*
X120470422Y-109653211D01*
X120548211Y-109575422D01*
X120592646Y-109474786D01*
X120595500Y-109450185D01*
X120595499Y-109149816D01*
X120592646Y-109125214D01*
X120548211Y-109024578D01*
X120548209Y-109024576D01*
X120544505Y-109016186D01*
X120547799Y-109014731D01*
X120535286Y-108972276D01*
X120547371Y-108935079D01*
X120544505Y-108933814D01*
X120548209Y-108925423D01*
X120548211Y-108925422D01*
X120592646Y-108824786D01*
X120595500Y-108800185D01*
X120595499Y-108499816D01*
X120592646Y-108475214D01*
X120548211Y-108374578D01*
X120470422Y-108296789D01*
X120369786Y-108252354D01*
X120369785Y-108252353D01*
X120369783Y-108252353D01*
X120345191Y-108249500D01*
X120345185Y-108249500D01*
X120343690Y-108249500D01*
X120343366Y-108249394D01*
X120342331Y-108249335D01*
X120342346Y-108249063D01*
X120285499Y-108230593D01*
X120273686Y-108220504D01*
X120084096Y-108030914D01*
X120056319Y-107976397D01*
X120055100Y-107960910D01*
X120055100Y-107931209D01*
X120054741Y-107929869D01*
X120020992Y-107803914D01*
X120020990Y-107803911D01*
X120020990Y-107803909D01*
X119955103Y-107689790D01*
X119955101Y-107689788D01*
X119955100Y-107689786D01*
X119861914Y-107596600D01*
X119861911Y-107596598D01*
X119861909Y-107596596D01*
X119747789Y-107530709D01*
X119747791Y-107530709D01*
X119698399Y-107517475D01*
X119620492Y-107496600D01*
X119488708Y-107496600D01*
X119410800Y-107517475D01*
X119361409Y-107530709D01*
X119247290Y-107596596D01*
X119154096Y-107689790D01*
X119088209Y-107803909D01*
X119071358Y-107866800D01*
X119054517Y-107929654D01*
X119054100Y-107931209D01*
X119054100Y-107967477D01*
X119035193Y-108025668D01*
X118985693Y-108061632D01*
X118924507Y-108061632D01*
X118885096Y-108037481D01*
X118574496Y-107726881D01*
X118546719Y-107672364D01*
X118545500Y-107656877D01*
X118545500Y-107170307D01*
X118564407Y-107112116D01*
X118595003Y-107084569D01*
X118614155Y-107073512D01*
X118624998Y-107062668D01*
X118679513Y-107034893D01*
X118739945Y-107044464D01*
X118765000Y-107062667D01*
X118775845Y-107073512D01*
X118903655Y-107147303D01*
X119046209Y-107185500D01*
X119046211Y-107185500D01*
X119193789Y-107185500D01*
X119193791Y-107185500D01*
X119336345Y-107147303D01*
X119464155Y-107073512D01*
X119568512Y-106969155D01*
X119642303Y-106841345D01*
X119680500Y-106698791D01*
X119680500Y-106551209D01*
X119642303Y-106408655D01*
X119568512Y-106280845D01*
X119464155Y-106176488D01*
X119336345Y-106102697D01*
X119193791Y-106064500D01*
X119046209Y-106064500D01*
X118903655Y-106102697D01*
X118811578Y-106155858D01*
X118775842Y-106176490D01*
X118765001Y-106187331D01*
X118710484Y-106215107D01*
X118650052Y-106205533D01*
X118624999Y-106187331D01*
X118614157Y-106176490D01*
X118614155Y-106176488D01*
X118486345Y-106102697D01*
X118343791Y-106064500D01*
X118196209Y-106064500D01*
X118053655Y-106102697D01*
X117961578Y-106155858D01*
X117925842Y-106176490D01*
X117915001Y-106187331D01*
X117860484Y-106215107D01*
X117800052Y-106205533D01*
X117774999Y-106187331D01*
X117764157Y-106176490D01*
X117764155Y-106176488D01*
X117636345Y-106102697D01*
X117493791Y-106064500D01*
X117346209Y-106064500D01*
X117346206Y-106064500D01*
X117324838Y-106070225D01*
X117263737Y-106067020D01*
X117229216Y-106044601D01*
X117162013Y-105977398D01*
X117134236Y-105922881D01*
X117143807Y-105862449D01*
X117187072Y-105819184D01*
X117247504Y-105809613D01*
X117257615Y-105811761D01*
X117346209Y-105835500D01*
X117346212Y-105835500D01*
X117493789Y-105835500D01*
X117493791Y-105835500D01*
X117636345Y-105797303D01*
X117764155Y-105723512D01*
X117774998Y-105712668D01*
X117829513Y-105684893D01*
X117889945Y-105694464D01*
X117915000Y-105712667D01*
X117925845Y-105723512D01*
X118053655Y-105797303D01*
X118196209Y-105835500D01*
X118196211Y-105835500D01*
X118343789Y-105835500D01*
X118343791Y-105835500D01*
X118486345Y-105797303D01*
X118614155Y-105723512D01*
X118624998Y-105712668D01*
X118679513Y-105684893D01*
X118739945Y-105694464D01*
X118765000Y-105712667D01*
X118775845Y-105723512D01*
X118903655Y-105797303D01*
X119046209Y-105835500D01*
X119046211Y-105835500D01*
X119193789Y-105835500D01*
X119193791Y-105835500D01*
X119336345Y-105797303D01*
X119464155Y-105723512D01*
X119568512Y-105619155D01*
X119642303Y-105491345D01*
X119680500Y-105348791D01*
X119680500Y-105201209D01*
X119642303Y-105058655D01*
X119568512Y-104930845D01*
X119464155Y-104826488D01*
X119336345Y-104752697D01*
X119193791Y-104714500D01*
X119193789Y-104714500D01*
X119176190Y-104714500D01*
X119117999Y-104695593D01*
X119106187Y-104685504D01*
X118730814Y-104310132D01*
X118730812Y-104310130D01*
X118650888Y-104263986D01*
X118650883Y-104263984D01*
X118650880Y-104263983D01*
X118645019Y-104262413D01*
X118645017Y-104262411D01*
X118645017Y-104262413D01*
X118561744Y-104240100D01*
X115427656Y-104240100D01*
X115344383Y-104262413D01*
X115344382Y-104262413D01*
X115338516Y-104263984D01*
X115338513Y-104263985D01*
X115338512Y-104263986D01*
X115264472Y-104306733D01*
X115258585Y-104310132D01*
X114883213Y-104685504D01*
X114828697Y-104713281D01*
X114813210Y-104714500D01*
X114796209Y-104714500D01*
X114653655Y-104752697D01*
X114525845Y-104826488D01*
X114421488Y-104930845D01*
X114347697Y-105058655D01*
X114309500Y-105201209D01*
X114309500Y-105348791D01*
X114347697Y-105491344D01*
X114347698Y-105491347D01*
X114396457Y-105575800D01*
X114409179Y-105635648D01*
X114384292Y-105691544D01*
X114331304Y-105722137D01*
X114310721Y-105724300D01*
X113778899Y-105724300D01*
X113707299Y-105753957D01*
X113707299Y-105753958D01*
X113677774Y-105766188D01*
X113677641Y-105766243D01*
X113248942Y-106194943D01*
X113248941Y-106194942D01*
X113171446Y-106272438D01*
X113171444Y-106272440D01*
X113171443Y-106272442D01*
X113143666Y-106339500D01*
X113129500Y-106373700D01*
X113129500Y-107480676D01*
X113110593Y-107538867D01*
X113100504Y-107550679D01*
X112591741Y-108059443D01*
X112549801Y-108160698D01*
X112549801Y-108160700D01*
X112549801Y-108270300D01*
X112561064Y-108297492D01*
X112568600Y-108335377D01*
X112568600Y-108369563D01*
X112549693Y-108427754D01*
X112539601Y-108439569D01*
X112523448Y-108455721D01*
X112491336Y-108477178D01*
X112486221Y-108479297D01*
X112464142Y-108488443D01*
X112464141Y-108488443D01*
X112455136Y-108492174D01*
X112454642Y-108490983D01*
X112405610Y-108504811D01*
X112348207Y-108483631D01*
X112314216Y-108432756D01*
X112310500Y-108405887D01*
X112310500Y-108320475D01*
X112310500Y-108320472D01*
X112300645Y-108252830D01*
X112249636Y-108148489D01*
X112167511Y-108066364D01*
X112063170Y-108015355D01*
X112063171Y-108015355D01*
X112046259Y-108012891D01*
X111995528Y-108005500D01*
X111634472Y-108005500D01*
X111593886Y-108011413D01*
X111566828Y-108015355D01*
X111462489Y-108066364D01*
X111400001Y-108128851D01*
X111345487Y-108156627D01*
X111285055Y-108147056D01*
X111259999Y-108128852D01*
X111197511Y-108066364D01*
X111093170Y-108015355D01*
X111093171Y-108015355D01*
X111076259Y-108012891D01*
X111025528Y-108005500D01*
X111025525Y-108005500D01*
X110755123Y-108005500D01*
X110696932Y-107986593D01*
X110685120Y-107976504D01*
X110432661Y-107724046D01*
X110432658Y-107724043D01*
X110331400Y-107682100D01*
X110331399Y-107682100D01*
X110287321Y-107682100D01*
X110229130Y-107663193D01*
X110217317Y-107653104D01*
X110214501Y-107650288D01*
X110214500Y-107650286D01*
X110121314Y-107557100D01*
X110121311Y-107557098D01*
X110121309Y-107557096D01*
X110007189Y-107491209D01*
X110007191Y-107491209D01*
X109957799Y-107477975D01*
X109879892Y-107457100D01*
X109748108Y-107457100D01*
X109748105Y-107457100D01*
X109731435Y-107461567D01*
X109670334Y-107458364D01*
X109622785Y-107419858D01*
X109606950Y-107360757D01*
X109628878Y-107303636D01*
X109635801Y-107295946D01*
X109678528Y-107253220D01*
X109739719Y-107133126D01*
X109753762Y-107044464D01*
X109755500Y-107033489D01*
X109755500Y-106466510D01*
X109749106Y-106426143D01*
X109739719Y-106366874D01*
X109739716Y-106366869D01*
X109739716Y-106366867D01*
X109678529Y-106246782D01*
X109678528Y-106246780D01*
X109583220Y-106151472D01*
X109583217Y-106151470D01*
X109463132Y-106090283D01*
X109463127Y-106090281D01*
X109463126Y-106090281D01*
X109429896Y-106085018D01*
X109363490Y-106074500D01*
X109363488Y-106074500D01*
X108846512Y-106074500D01*
X108846510Y-106074500D01*
X108746874Y-106090281D01*
X108746867Y-106090283D01*
X108626782Y-106151470D01*
X108531470Y-106246782D01*
X108470283Y-106366867D01*
X108470281Y-106366874D01*
X108454500Y-106466510D01*
X108454500Y-106863810D01*
X108435593Y-106922001D01*
X108425504Y-106933814D01*
X108180914Y-107178404D01*
X108126397Y-107206181D01*
X108110910Y-107207400D01*
X106119155Y-107207400D01*
X106060964Y-107188493D01*
X106025000Y-107138993D01*
X106025000Y-107077807D01*
X106036839Y-107053399D01*
X106077418Y-106992667D01*
X106140941Y-106897598D01*
X106220130Y-106706420D01*
X106260500Y-106503465D01*
X106260500Y-106296535D01*
X106220130Y-106093580D01*
X106140941Y-105902402D01*
X106025977Y-105730345D01*
X105879655Y-105584023D01*
X105879651Y-105584020D01*
X105707597Y-105469058D01*
X105516418Y-105389869D01*
X105313467Y-105349500D01*
X105313465Y-105349500D01*
X105106535Y-105349500D01*
X105106532Y-105349500D01*
X104903581Y-105389869D01*
X104712402Y-105469058D01*
X104540348Y-105584020D01*
X104394020Y-105730348D01*
X104333516Y-105820900D01*
X104285466Y-105858780D01*
X104224327Y-105861182D01*
X104173454Y-105827189D01*
X104152276Y-105769786D01*
X104152200Y-105765899D01*
X104152200Y-104494100D01*
X104171107Y-104435909D01*
X104220607Y-104399945D01*
X104281793Y-104399945D01*
X104331293Y-104435909D01*
X104333516Y-104439099D01*
X104386486Y-104518376D01*
X104394023Y-104529655D01*
X104540345Y-104675977D01*
X104712402Y-104790941D01*
X104903580Y-104870130D01*
X105106535Y-104910500D01*
X105106536Y-104910500D01*
X105313464Y-104910500D01*
X105313465Y-104910500D01*
X105516420Y-104870130D01*
X105707598Y-104790941D01*
X105879655Y-104675977D01*
X106025977Y-104529655D01*
X106140941Y-104357598D01*
X106143629Y-104351108D01*
X108366500Y-104351108D01*
X108366500Y-104482892D01*
X108395871Y-104592506D01*
X108400609Y-104610190D01*
X108466496Y-104724309D01*
X108466498Y-104724311D01*
X108466500Y-104724314D01*
X108559686Y-104817500D01*
X108559688Y-104817501D01*
X108559690Y-104817503D01*
X108673810Y-104883390D01*
X108673808Y-104883390D01*
X108673812Y-104883391D01*
X108673814Y-104883392D01*
X108801108Y-104917500D01*
X108801110Y-104917500D01*
X108936877Y-104917500D01*
X108995068Y-104936407D01*
X109006880Y-104946496D01*
X109120503Y-105060118D01*
X109148281Y-105114635D01*
X109149500Y-105130122D01*
X109149500Y-105394316D01*
X109149564Y-105394799D01*
X109155932Y-105443174D01*
X109155932Y-105443175D01*
X109205933Y-105550401D01*
X109205934Y-105550402D01*
X109205935Y-105550404D01*
X109289596Y-105634065D01*
X109289597Y-105634065D01*
X109289598Y-105634066D01*
X109396824Y-105684067D01*
X109396825Y-105684067D01*
X109396827Y-105684068D01*
X109445684Y-105690500D01*
X109445685Y-105690500D01*
X109794314Y-105690500D01*
X109794316Y-105690500D01*
X109843173Y-105684068D01*
X109950404Y-105634065D01*
X109982498Y-105601970D01*
X110037013Y-105574195D01*
X110097445Y-105583766D01*
X110122500Y-105601969D01*
X110182596Y-105662065D01*
X110182597Y-105662065D01*
X110182598Y-105662066D01*
X110289824Y-105712067D01*
X110289825Y-105712067D01*
X110289827Y-105712068D01*
X110338684Y-105718500D01*
X110338685Y-105718500D01*
X110687314Y-105718500D01*
X110687316Y-105718500D01*
X110736173Y-105712068D01*
X110742414Y-105709157D01*
X110803140Y-105701697D01*
X110854258Y-105728873D01*
X110959505Y-105834121D01*
X110987281Y-105888635D01*
X110988500Y-105904122D01*
X110988500Y-105908108D01*
X110988500Y-106039892D01*
X111007468Y-106110681D01*
X111022609Y-106167190D01*
X111088496Y-106281309D01*
X111088498Y-106281311D01*
X111088500Y-106281314D01*
X111181686Y-106374500D01*
X111181688Y-106374501D01*
X111181690Y-106374503D01*
X111295810Y-106440390D01*
X111295808Y-106440390D01*
X111295812Y-106440391D01*
X111295814Y-106440392D01*
X111423108Y-106474500D01*
X111423110Y-106474500D01*
X111554890Y-106474500D01*
X111554892Y-106474500D01*
X111682186Y-106440392D01*
X111682188Y-106440390D01*
X111682190Y-106440390D01*
X111796309Y-106374503D01*
X111796309Y-106374502D01*
X111796314Y-106374500D01*
X111889500Y-106281314D01*
X111889771Y-106280845D01*
X111955390Y-106167190D01*
X111955390Y-106167188D01*
X111955392Y-106167186D01*
X111989500Y-106039892D01*
X111989500Y-105908108D01*
X111955392Y-105780814D01*
X111955390Y-105780811D01*
X111955390Y-105780809D01*
X111916240Y-105713000D01*
X111903518Y-105653152D01*
X111928404Y-105597256D01*
X111931974Y-105593495D01*
X111947062Y-105578407D01*
X111947062Y-105578406D01*
X111947065Y-105578404D01*
X111997068Y-105471173D01*
X112003500Y-105422316D01*
X112003500Y-104973684D01*
X111997068Y-104924827D01*
X111993651Y-104917500D01*
X111947066Y-104817598D01*
X111947065Y-104817597D01*
X111947065Y-104817596D01*
X111863404Y-104733935D01*
X111863402Y-104733934D01*
X111863401Y-104733933D01*
X111756175Y-104683932D01*
X111723601Y-104679644D01*
X111707316Y-104677500D01*
X111707315Y-104677500D01*
X111443123Y-104677500D01*
X111384932Y-104658593D01*
X111373119Y-104648504D01*
X111146802Y-104422187D01*
X110887858Y-104163243D01*
X110887856Y-104163242D01*
X110887855Y-104163241D01*
X110879901Y-104157926D01*
X110849169Y-104125112D01*
X110828601Y-104089488D01*
X110828600Y-104089486D01*
X110735414Y-103996300D01*
X110735411Y-103996298D01*
X110735409Y-103996296D01*
X110621289Y-103930409D01*
X110621291Y-103930409D01*
X110569380Y-103916500D01*
X110493992Y-103896300D01*
X110362208Y-103896300D01*
X110286820Y-103916500D01*
X110234909Y-103930409D01*
X110120790Y-103996296D01*
X110027596Y-104089490D01*
X109961709Y-104203609D01*
X109942639Y-104274778D01*
X109927600Y-104330908D01*
X109927600Y-104462692D01*
X109933012Y-104482890D01*
X109946011Y-104531405D01*
X109942808Y-104592506D01*
X109904302Y-104640056D01*
X109845202Y-104655891D01*
X109837462Y-104655180D01*
X109794317Y-104649500D01*
X109794316Y-104649500D01*
X109530124Y-104649500D01*
X109471933Y-104630593D01*
X109460120Y-104620504D01*
X109396496Y-104556880D01*
X109368719Y-104502363D01*
X109367500Y-104486876D01*
X109367500Y-104351109D01*
X109367500Y-104351108D01*
X109333392Y-104223814D01*
X109333390Y-104223811D01*
X109333390Y-104223809D01*
X109267503Y-104109690D01*
X109267501Y-104109688D01*
X109267500Y-104109686D01*
X109174314Y-104016500D01*
X109174311Y-104016498D01*
X109174309Y-104016496D01*
X109060189Y-103950609D01*
X109060191Y-103950609D01*
X109010799Y-103937375D01*
X108932892Y-103916500D01*
X108801108Y-103916500D01*
X108723200Y-103937375D01*
X108673809Y-103950609D01*
X108559690Y-104016496D01*
X108466496Y-104109690D01*
X108400609Y-104223809D01*
X108389844Y-104263986D01*
X108366500Y-104351108D01*
X106143629Y-104351108D01*
X106220130Y-104166420D01*
X106260500Y-103963465D01*
X106260500Y-103756535D01*
X106220130Y-103553580D01*
X106140941Y-103362402D01*
X106025977Y-103190345D01*
X105879655Y-103044023D01*
X105879651Y-103044020D01*
X105707597Y-102929058D01*
X105516418Y-102849869D01*
X105313467Y-102809500D01*
X105313465Y-102809500D01*
X105106535Y-102809500D01*
X105106532Y-102809500D01*
X104903581Y-102849869D01*
X104712402Y-102929058D01*
X104540348Y-103044020D01*
X104394019Y-103190349D01*
X104317062Y-103305524D01*
X104269012Y-103343403D01*
X104207874Y-103345805D01*
X104157000Y-103311812D01*
X104139121Y-103276147D01*
X104128314Y-103235812D01*
X104110554Y-103205051D01*
X104082170Y-103155888D01*
X103465786Y-102539504D01*
X103438009Y-102484987D01*
X103447580Y-102424555D01*
X103490845Y-102381290D01*
X103535790Y-102370500D01*
X103539747Y-102370500D01*
X103539748Y-102370500D01*
X103598231Y-102358867D01*
X103664552Y-102314552D01*
X103708867Y-102248231D01*
X103720500Y-102189748D01*
X103720500Y-101943709D01*
X108579500Y-101943709D01*
X108579500Y-102156290D01*
X108612752Y-102366238D01*
X108678443Y-102568412D01*
X108774948Y-102757815D01*
X108774950Y-102757819D01*
X108899891Y-102929786D01*
X108899893Y-102929788D01*
X108899896Y-102929792D01*
X109050208Y-103080104D01*
X109050211Y-103080106D01*
X109050213Y-103080108D01*
X109222180Y-103205049D01*
X109222184Y-103205051D01*
X109411588Y-103301557D01*
X109613757Y-103367246D01*
X109613758Y-103367246D01*
X109613761Y-103367247D01*
X109823710Y-103400500D01*
X109823713Y-103400500D01*
X110036290Y-103400500D01*
X110246238Y-103367247D01*
X110246239Y-103367246D01*
X110246243Y-103367246D01*
X110448412Y-103301557D01*
X110637816Y-103205051D01*
X110809792Y-103080104D01*
X110960104Y-102929792D01*
X111054837Y-102799402D01*
X111085049Y-102757819D01*
X111085051Y-102757816D01*
X111181557Y-102568412D01*
X111247246Y-102366243D01*
X111265937Y-102248233D01*
X111280500Y-102156290D01*
X111280500Y-101943709D01*
X122709500Y-101943709D01*
X122709500Y-102156290D01*
X122742752Y-102366238D01*
X122808443Y-102568412D01*
X122904948Y-102757815D01*
X122904950Y-102757819D01*
X123029891Y-102929786D01*
X123029893Y-102929788D01*
X123029896Y-102929792D01*
X123180208Y-103080104D01*
X123180211Y-103080106D01*
X123180213Y-103080108D01*
X123352180Y-103205049D01*
X123352184Y-103205051D01*
X123541588Y-103301557D01*
X123743757Y-103367246D01*
X123743758Y-103367246D01*
X123743761Y-103367247D01*
X123953710Y-103400500D01*
X123953713Y-103400500D01*
X124166290Y-103400500D01*
X124376238Y-103367247D01*
X124376239Y-103367246D01*
X124376243Y-103367246D01*
X124578412Y-103301557D01*
X124767816Y-103205051D01*
X124939792Y-103080104D01*
X125090104Y-102929792D01*
X125184837Y-102799402D01*
X125215049Y-102757819D01*
X125215051Y-102757816D01*
X125311557Y-102568412D01*
X125377246Y-102366243D01*
X125395937Y-102248233D01*
X125410500Y-102156290D01*
X125410500Y-101943709D01*
X125377247Y-101733761D01*
X125377246Y-101733757D01*
X125311557Y-101531588D01*
X125215051Y-101342184D01*
X125215049Y-101342180D01*
X125090108Y-101170213D01*
X125090106Y-101170211D01*
X125090104Y-101170208D01*
X124939792Y-101019896D01*
X124939788Y-101019893D01*
X124939786Y-101019891D01*
X124767819Y-100894950D01*
X124767815Y-100894948D01*
X124578412Y-100798443D01*
X124376238Y-100732752D01*
X124166290Y-100699500D01*
X124166287Y-100699500D01*
X123953713Y-100699500D01*
X123953710Y-100699500D01*
X123743761Y-100732752D01*
X123541587Y-100798443D01*
X123352184Y-100894948D01*
X123352180Y-100894950D01*
X123180213Y-101019891D01*
X123029891Y-101170213D01*
X122904950Y-101342180D01*
X122904948Y-101342184D01*
X122808443Y-101531587D01*
X122742752Y-101733761D01*
X122709500Y-101943709D01*
X111280500Y-101943709D01*
X111247247Y-101733761D01*
X111247246Y-101733757D01*
X111181557Y-101531588D01*
X111085051Y-101342184D01*
X111085049Y-101342180D01*
X110960108Y-101170213D01*
X110960106Y-101170211D01*
X110960104Y-101170208D01*
X110809792Y-101019896D01*
X110809788Y-101019893D01*
X110809786Y-101019891D01*
X110637819Y-100894950D01*
X110637815Y-100894948D01*
X110448412Y-100798443D01*
X110246238Y-100732752D01*
X110036290Y-100699500D01*
X110036287Y-100699500D01*
X109823713Y-100699500D01*
X109823710Y-100699500D01*
X109613761Y-100732752D01*
X109411587Y-100798443D01*
X109222184Y-100894948D01*
X109222180Y-100894950D01*
X109050213Y-101019891D01*
X108899891Y-101170213D01*
X108774950Y-101342180D01*
X108774948Y-101342184D01*
X108678443Y-101531587D01*
X108612752Y-101733761D01*
X108579500Y-101943709D01*
X103720500Y-101943709D01*
X103720500Y-100450252D01*
X103720499Y-100450250D01*
X103720499Y-100450244D01*
X103714247Y-100418816D01*
X103721437Y-100358055D01*
X103762969Y-100313124D01*
X103811344Y-100300500D01*
X127638656Y-100300500D01*
X127696847Y-100319407D01*
G37*
%TD.AperFunction*%
%TA.AperFunction,Conductor*%
G36*
X115073568Y-109952407D02*
G01*
X115085381Y-109962496D01*
X115440504Y-110317619D01*
X115468281Y-110372136D01*
X115469500Y-110387623D01*
X115469500Y-111003208D01*
X115450593Y-111061399D01*
X115401093Y-111097363D01*
X115351186Y-111100306D01*
X115347134Y-111099500D01*
X115142870Y-111099500D01*
X115142862Y-111099501D01*
X115062505Y-111115484D01*
X115062503Y-111115485D01*
X114971379Y-111176373D01*
X114971373Y-111176379D01*
X114910486Y-111267501D01*
X114910486Y-111267503D01*
X114910485Y-111267505D01*
X114903038Y-111304943D01*
X114894500Y-111347866D01*
X114894500Y-112597776D01*
X114875593Y-112655967D01*
X114865504Y-112667779D01*
X114823081Y-112710203D01*
X114768565Y-112737981D01*
X114753077Y-112739200D01*
X114694500Y-112739200D01*
X114636309Y-112720293D01*
X114600345Y-112670793D01*
X114595500Y-112640200D01*
X114595499Y-111347870D01*
X114595498Y-111347866D01*
X114579515Y-111267505D01*
X114579512Y-111267501D01*
X114518626Y-111176379D01*
X114518624Y-111176376D01*
X114518620Y-111176373D01*
X114427497Y-111115486D01*
X114427496Y-111115485D01*
X114427495Y-111115485D01*
X114347133Y-111099500D01*
X114347132Y-111099500D01*
X114142870Y-111099500D01*
X114142862Y-111099501D01*
X114062505Y-111115484D01*
X114062503Y-111115485D01*
X113971379Y-111176373D01*
X113971373Y-111176379D01*
X113910486Y-111267501D01*
X113910486Y-111267503D01*
X113910485Y-111267505D01*
X113903038Y-111304943D01*
X113894500Y-111347866D01*
X113894500Y-111437500D01*
X113875593Y-111495691D01*
X113826093Y-111531655D01*
X113795500Y-111536500D01*
X112871048Y-111536500D01*
X112812857Y-111517593D01*
X112801045Y-111507504D01*
X112757316Y-111463776D01*
X112757313Y-111463774D01*
X112648489Y-111413029D01*
X112648488Y-111413028D01*
X112623694Y-111409764D01*
X112598901Y-111406500D01*
X112598900Y-111406500D01*
X112445190Y-111406500D01*
X112386999Y-111387593D01*
X112375186Y-111377504D01*
X112156296Y-111158614D01*
X112128519Y-111104097D01*
X112127300Y-111088610D01*
X112127300Y-110555671D01*
X112146207Y-110497480D01*
X112195707Y-110461516D01*
X112212020Y-110457706D01*
X112226170Y-110455645D01*
X112330511Y-110404636D01*
X112412636Y-110322511D01*
X112463645Y-110218170D01*
X112473500Y-110150528D01*
X112473500Y-110107500D01*
X112492407Y-110049309D01*
X112541907Y-110013345D01*
X112572500Y-110008500D01*
X112699024Y-110008500D01*
X112757215Y-110027407D01*
X112769028Y-110037496D01*
X112769934Y-110038402D01*
X112769935Y-110038404D01*
X112853596Y-110122065D01*
X112853597Y-110122065D01*
X112853598Y-110122066D01*
X112960824Y-110172067D01*
X112960825Y-110172067D01*
X112960827Y-110172068D01*
X113009684Y-110178500D01*
X113009685Y-110178500D01*
X113358314Y-110178500D01*
X113358316Y-110178500D01*
X113407173Y-110172068D01*
X113514404Y-110122065D01*
X113598065Y-110038404D01*
X113604275Y-110025085D01*
X113646003Y-109980337D01*
X113706064Y-109968662D01*
X113761517Y-109994519D01*
X113783724Y-110025084D01*
X113789935Y-110038404D01*
X113873596Y-110122065D01*
X113873597Y-110122065D01*
X113873598Y-110122066D01*
X113980824Y-110172067D01*
X113980825Y-110172067D01*
X113980827Y-110172068D01*
X114029684Y-110178500D01*
X114029685Y-110178500D01*
X114378314Y-110178500D01*
X114378316Y-110178500D01*
X114427173Y-110172068D01*
X114534404Y-110122065D01*
X114618065Y-110038404D01*
X114632010Y-110008500D01*
X114640329Y-109990660D01*
X114682058Y-109945912D01*
X114730053Y-109933500D01*
X115015377Y-109933500D01*
X115073568Y-109952407D01*
G37*
%TD.AperFunction*%
%TA.AperFunction,Conductor*%
G36*
X114312962Y-106294207D02*
G01*
X114348926Y-106343707D01*
X114348926Y-106402266D01*
X114349377Y-106402387D01*
X114348926Y-106404070D01*
X114348926Y-106404893D01*
X114348121Y-106407073D01*
X114347697Y-106408654D01*
X114347697Y-106408655D01*
X114309500Y-106551209D01*
X114309500Y-106698791D01*
X114347697Y-106841345D01*
X114421488Y-106969155D01*
X114525845Y-107073512D01*
X114653655Y-107147303D01*
X114796209Y-107185500D01*
X114796211Y-107185500D01*
X114943789Y-107185500D01*
X114943791Y-107185500D01*
X115086345Y-107147303D01*
X115214155Y-107073512D01*
X115224998Y-107062668D01*
X115279513Y-107034893D01*
X115339945Y-107044464D01*
X115365000Y-107062667D01*
X115375845Y-107073512D01*
X115503655Y-107147303D01*
X115646209Y-107185500D01*
X115646211Y-107185500D01*
X115793789Y-107185500D01*
X115793791Y-107185500D01*
X115936345Y-107147303D01*
X116064155Y-107073512D01*
X116074998Y-107062668D01*
X116129513Y-107034893D01*
X116189945Y-107044464D01*
X116215000Y-107062667D01*
X116225845Y-107073512D01*
X116353655Y-107147303D01*
X116496209Y-107185500D01*
X116496211Y-107185500D01*
X116558000Y-107185500D01*
X116616191Y-107204407D01*
X116652155Y-107253907D01*
X116657000Y-107284500D01*
X116657000Y-107988359D01*
X116638093Y-108046550D01*
X116628004Y-108058362D01*
X116591790Y-108094576D01*
X116591789Y-108094577D01*
X116591789Y-108094578D01*
X116573087Y-108136935D01*
X116547353Y-108195216D01*
X116544500Y-108219808D01*
X116544500Y-108620180D01*
X116544500Y-108620182D01*
X116544501Y-108620184D01*
X116547354Y-108644786D01*
X116591789Y-108745422D01*
X116591790Y-108745423D01*
X116605487Y-108759121D01*
X116633264Y-108813638D01*
X116623691Y-108874070D01*
X116580425Y-108917334D01*
X116519993Y-108926904D01*
X116509872Y-108924752D01*
X116459292Y-108911200D01*
X116327508Y-108911200D01*
X116327505Y-108911200D01*
X116281309Y-108923578D01*
X116220208Y-108920375D01*
X116172659Y-108881869D01*
X116156824Y-108822768D01*
X116178752Y-108765647D01*
X116185676Y-108757956D01*
X116198211Y-108745422D01*
X116242646Y-108644786D01*
X116245500Y-108620185D01*
X116245499Y-108219816D01*
X116242646Y-108195214D01*
X116198211Y-108094578D01*
X116120422Y-108016789D01*
X116019786Y-107972354D01*
X116019785Y-107972353D01*
X116019783Y-107972353D01*
X115995188Y-107969500D01*
X115719819Y-107969500D01*
X115719816Y-107969501D01*
X115695214Y-107972354D01*
X115623894Y-108003845D01*
X115594576Y-108016790D01*
X115560993Y-108050373D01*
X115506476Y-108078150D01*
X115446044Y-108068578D01*
X115420989Y-108050375D01*
X115414414Y-108043800D01*
X115414411Y-108043798D01*
X115414409Y-108043796D01*
X115300289Y-107977909D01*
X115300291Y-107977909D01*
X115236848Y-107960910D01*
X115172992Y-107943800D01*
X115041208Y-107943800D01*
X114977352Y-107960910D01*
X114913909Y-107977909D01*
X114799790Y-108043796D01*
X114799789Y-108043797D01*
X114738097Y-108105488D01*
X114683580Y-108133264D01*
X114626255Y-108125208D01*
X114544173Y-108086932D01*
X114495316Y-108080500D01*
X114146684Y-108080500D01*
X114130398Y-108082644D01*
X114097825Y-108086932D01*
X114097824Y-108086932D01*
X113990598Y-108136933D01*
X113906933Y-108220598D01*
X113856932Y-108327824D01*
X113856932Y-108327825D01*
X113854222Y-108348415D01*
X113851438Y-108369563D01*
X113850500Y-108376685D01*
X113850500Y-108640876D01*
X113831593Y-108699067D01*
X113821503Y-108710880D01*
X113693647Y-108838735D01*
X113661537Y-108860192D01*
X113655216Y-108862810D01*
X113649300Y-108865261D01*
X113611409Y-108872800D01*
X113577179Y-108872800D01*
X113539294Y-108865264D01*
X113512100Y-108854000D01*
X113090236Y-108854000D01*
X113032045Y-108835093D01*
X112996081Y-108785593D01*
X112996081Y-108724407D01*
X113020230Y-108684997D01*
X113042920Y-108662309D01*
X113082000Y-108567961D01*
X113082000Y-108465839D01*
X113082000Y-108389423D01*
X113100907Y-108331232D01*
X113110996Y-108319419D01*
X113352265Y-108078150D01*
X113638558Y-107791858D01*
X113665472Y-107726881D01*
X113680500Y-107690601D01*
X113680500Y-106583622D01*
X113699407Y-106525431D01*
X113709497Y-106513618D01*
X113918820Y-106304296D01*
X113973336Y-106276519D01*
X113988823Y-106275300D01*
X114254771Y-106275300D01*
X114312962Y-106294207D01*
G37*
%TD.AperFunction*%
%TD*%
M02*
