%TF.GenerationSoftware,KiCad,Pcbnew,10.0.6*%
%TF.CreationDate,2026-10-02T17:32:42+00:00*%
%TF.ProjectId,nicklink,6e69636b-6c69-46e6-9b2e-6b696361645f,rev?*%
%TF.SameCoordinates,Original*%
%TF.FileFunction,Copper,L1,Top*%
%TF.FilePolarity,Positive*%
%FSLAX46Y46*%
G04 Gerber Fmt 4.6, Leading zero omitted, Abs format (unit mm)*
G04 Created by KiCad (PCBNEW 10.0.6) date 2026-10-02 17:32:42*
%MOMM*%
%LPD*%
G01*
G04 APERTURE LIST*
G04 Aperture macros list*
%AMRoundRect*
0 Rectangle with rounded corners*
0 $1 Rounding radius*
0 $2 $3 $4 $5 $6 $7 $8 $9 X,Y pos of 4 corners*
0 Add a 4 corners polygon primitive as box body*
4,1,4,$2,$3,$4,$5,$6,$7,$8,$9,$2,$3,0*
0 Add four circle primitives for the rounded corners*
1,1,$1+$1,$2,$3*
1,1,$1+$1,$4,$5*
1,1,$1+$1,$6,$7*
1,1,$1+$1,$8,$9*
0 Add four rect primitives between the rounded corners*
20,1,$1+$1,$2,$3,$4,$5,0*
20,1,$1+$1,$4,$5,$6,$7,0*
20,1,$1+$1,$6,$7,$8,$9,0*
20,1,$1+$1,$8,$9,$2,$3,0*%
G04 Aperture macros list end*
%TA.AperFunction,SMDPad,CuDef*%
%ADD10RoundRect,0.140000X-0.170000X0.140000X-0.170000X-0.140000X0.170000X-0.140000X0.170000X0.140000X0*%
%TD*%
%TA.AperFunction,SMDPad,CuDef*%
%ADD11RoundRect,0.135000X0.185000X-0.135000X0.185000X0.135000X-0.185000X0.135000X-0.185000X-0.135000X0*%
%TD*%
%TA.AperFunction,SMDPad,CuDef*%
%ADD12RoundRect,0.140000X0.170000X-0.140000X0.170000X0.140000X-0.170000X0.140000X-0.170000X-0.140000X0*%
%TD*%
%TA.AperFunction,SMDPad,CuDef*%
%ADD13RoundRect,0.147500X-0.147500X-0.172500X0.147500X-0.172500X0.147500X0.172500X-0.147500X0.172500X0*%
%TD*%
%TA.AperFunction,SMDPad,CuDef*%
%ADD14RoundRect,0.243750X-0.243750X-0.456250X0.243750X-0.456250X0.243750X0.456250X-0.243750X0.456250X0*%
%TD*%
%TA.AperFunction,SMDPad,CuDef*%
%ADD15RoundRect,0.135000X-0.135000X-0.185000X0.135000X-0.185000X0.135000X0.185000X-0.135000X0.185000X0*%
%TD*%
%TA.AperFunction,SMDPad,CuDef*%
%ADD16R,1.700000X0.900000*%
%TD*%
%TA.AperFunction,SMDPad,CuDef*%
%ADD17RoundRect,0.087500X-0.225000X-0.087500X0.225000X-0.087500X0.225000X0.087500X-0.225000X0.087500X0*%
%TD*%
%TA.AperFunction,SMDPad,CuDef*%
%ADD18RoundRect,0.087500X-0.087500X-0.225000X0.087500X-0.225000X0.087500X0.225000X-0.087500X0.225000X0*%
%TD*%
%TA.AperFunction,SMDPad,CuDef*%
%ADD19RoundRect,0.140000X-0.140000X-0.170000X0.140000X-0.170000X0.140000X0.170000X-0.140000X0.170000X0*%
%TD*%
%TA.AperFunction,SMDPad,CuDef*%
%ADD20RoundRect,0.147500X0.172500X-0.147500X0.172500X0.147500X-0.172500X0.147500X-0.172500X-0.147500X0*%
%TD*%
%TA.AperFunction,SMDPad,CuDef*%
%ADD21RoundRect,0.093750X-0.093750X0.156250X-0.093750X-0.156250X0.093750X-0.156250X0.093750X0.156250X0*%
%TD*%
%TA.AperFunction,SMDPad,CuDef*%
%ADD22RoundRect,0.075000X-0.075000X0.250000X-0.075000X-0.250000X0.075000X-0.250000X0.075000X0.250000X0*%
%TD*%
%TA.AperFunction,SMDPad,CuDef*%
%ADD23RoundRect,0.250000X0.262500X0.450000X-0.262500X0.450000X-0.262500X-0.450000X0.262500X-0.450000X0*%
%TD*%
%TA.AperFunction,ComponentPad*%
%ADD24R,1.700000X1.700000*%
%TD*%
%TA.AperFunction,ComponentPad*%
%ADD25C,1.700000*%
%TD*%
%TA.AperFunction,SMDPad,CuDef*%
%ADD26RoundRect,0.093750X-0.093750X-0.106250X0.093750X-0.106250X0.093750X0.106250X-0.093750X0.106250X0*%
%TD*%
%TA.AperFunction,ComponentPad*%
%ADD27C,0.660000*%
%TD*%
%TA.AperFunction,HeatsinkPad*%
%ADD28R,1.000000X1.600000*%
%TD*%
%TA.AperFunction,SMDPad,CuDef*%
%ADD29RoundRect,0.112500X0.112500X-0.187500X0.112500X0.187500X-0.112500X0.187500X-0.112500X-0.187500X0*%
%TD*%
%TA.AperFunction,ComponentPad*%
%ADD30C,0.740000*%
%TD*%
%TA.AperFunction,ComponentPad*%
%ADD31O,0.960000X2.460000*%
%TD*%
%TA.AperFunction,ComponentPad*%
%ADD32O,0.960000X1.760000*%
%TD*%
%TA.AperFunction,SMDPad,CuDef*%
%ADD33RoundRect,0.250000X-0.450000X-0.350000X0.450000X-0.350000X0.450000X0.350000X-0.450000X0.350000X0*%
%TD*%
%TA.AperFunction,SMDPad,CuDef*%
%ADD34RoundRect,0.075000X0.075000X-0.662500X0.075000X0.662500X-0.075000X0.662500X-0.075000X-0.662500X0*%
%TD*%
%TA.AperFunction,SMDPad,CuDef*%
%ADD35RoundRect,0.075000X0.662500X-0.075000X0.662500X0.075000X-0.662500X0.075000X-0.662500X-0.075000X0*%
%TD*%
%TA.AperFunction,SMDPad,CuDef*%
%ADD36RoundRect,0.135000X-0.185000X0.135000X-0.185000X-0.135000X0.185000X-0.135000X0.185000X0.135000X0*%
%TD*%
%TA.AperFunction,SMDPad,CuDef*%
%ADD37RoundRect,0.112500X0.112500X-0.350000X0.112500X0.350000X-0.112500X0.350000X-0.112500X-0.350000X0*%
%TD*%
%TA.AperFunction,ViaPad*%
%ADD38C,0.600000*%
%TD*%
%TA.AperFunction,Conductor*%
%ADD39C,0.200000*%
%TD*%
%TA.AperFunction,Conductor*%
%ADD40C,0.300000*%
%TD*%
%TA.AperFunction,Conductor*%
%ADD41C,0.250000*%
%TD*%
%TA.AperFunction,Conductor*%
%ADD42C,0.187400*%
%TD*%
%TA.AperFunction,Conductor*%
%ADD43C,0.150000*%
%TD*%
%TA.AperFunction,Conductor*%
%ADD44C,0.112400*%
%TD*%
G04 APERTURE END LIST*
D10*
%TO.P,C8,1*%
%TO.N,+3.3V*%
X119263000Y-108730000D03*
%TO.P,C8,2*%
%TO.N,GND*%
X119263000Y-109690000D03*
%TD*%
D11*
%TO.P,R1,1*%
%TO.N,/BOOT0*%
X109280000Y-117910000D03*
%TO.P,R1,2*%
%TO.N,GND*%
X109280000Y-116890000D03*
%TD*%
D12*
%TO.P,C11,1*%
%TO.N,/HSE_OUT*%
X117945000Y-123680000D03*
%TO.P,C11,2*%
%TO.N,GND*%
X117945000Y-122720000D03*
%TD*%
D13*
%TO.P,D3,1*%
%TO.N,/USER_LED_K*%
X111008000Y-109620000D03*
%TO.P,D3,2*%
%TO.N,+3.3V*%
X111978000Y-109620000D03*
%TD*%
D12*
%TO.P,C9,1*%
%TO.N,/NRST*%
X121245000Y-123080000D03*
%TO.P,C9,2*%
%TO.N,GND*%
X121245000Y-122120000D03*
%TD*%
D14*
%TO.P,F1,1*%
%TO.N,/VSYS*%
X123337500Y-108405000D03*
%TO.P,F1,2*%
%TO.N,/5V_F*%
X125212500Y-108405000D03*
%TD*%
D15*
%TO.P,R8,1*%
%TO.N,/PB2*%
X122890000Y-110800000D03*
%TO.P,R8,2*%
%TO.N,GND*%
X123910000Y-110800000D03*
%TD*%
D16*
%TO.P,SW2,1*%
%TO.N,+3.3V*%
X109580000Y-115600000D03*
%TO.P,SW2,2*%
%TO.N,/BOOT0*%
X109580000Y-112200000D03*
%TD*%
D17*
%TO.P,U4,1*%
%TO.N,GND*%
X123037500Y-116960000D03*
%TO.P,U4,2*%
X123037500Y-117460000D03*
%TO.P,U4,3*%
X123037500Y-117960000D03*
%TO.P,U4,4*%
%TO.N,/IMU_INT1*%
X123037500Y-118460000D03*
D18*
%TO.P,U4,5*%
%TO.N,+3.3V*%
X123700000Y-118622500D03*
%TO.P,U4,6*%
%TO.N,GND*%
X124200000Y-118622500D03*
%TO.P,U4,7*%
X124700000Y-118622500D03*
D17*
%TO.P,U4,8*%
%TO.N,+3.3V*%
X125362500Y-118460000D03*
%TO.P,U4,9*%
%TO.N,unconnected-(U4-INT2-Pad9)*%
X125362500Y-117960000D03*
%TO.P,U4,10*%
%TO.N,+3.3V*%
X125362500Y-117460000D03*
%TO.P,U4,11*%
X125362500Y-116960000D03*
D18*
%TO.P,U4,12*%
X124700000Y-116797500D03*
%TO.P,U4,13*%
%TO.N,/PB6*%
X124200000Y-116797500D03*
%TO.P,U4,14*%
%TO.N,/PB7*%
X123700000Y-116797500D03*
%TD*%
D12*
%TO.P,C6,1*%
%TO.N,+3.3VA*%
X119045000Y-123080000D03*
%TO.P,C6,2*%
%TO.N,GND*%
X119045000Y-122120000D03*
%TD*%
D10*
%TO.P,C15,1*%
%TO.N,+3.3V*%
X125220000Y-119970000D03*
%TO.P,C15,2*%
%TO.N,GND*%
X125220000Y-120930000D03*
%TD*%
D11*
%TO.P,R4,1*%
%TO.N,GND*%
X125600000Y-110910000D03*
%TO.P,R4,2*%
%TO.N,/USB_CC1*%
X125600000Y-109890000D03*
%TD*%
D19*
%TO.P,C12,1*%
%TO.N,/VSYS*%
X122920000Y-109830000D03*
%TO.P,C12,2*%
%TO.N,GND*%
X123880000Y-109830000D03*
%TD*%
D20*
%TO.P,FB1,1*%
%TO.N,+3.3VA*%
X122620000Y-120935000D03*
%TO.P,FB1,2*%
%TO.N,+3.3V*%
X122620000Y-119965000D03*
%TD*%
D13*
%TO.P,D1,1*%
%TO.N,/PWR_LED_K*%
X110870000Y-108163000D03*
%TO.P,D1,2*%
%TO.N,+3.3V*%
X111840000Y-108163000D03*
%TD*%
D12*
%TO.P,C7,1*%
%TO.N,+3.3VA*%
X120145000Y-123080000D03*
%TO.P,C7,2*%
%TO.N,GND*%
X120145000Y-122120000D03*
%TD*%
D21*
%TO.P,U3,1*%
%TO.N,/USB_D-*%
X116932500Y-108420000D03*
D22*
%TO.P,U3,2*%
%TO.N,GND*%
X116395000Y-108345000D03*
D21*
%TO.P,U3,3*%
%TO.N,/USB_D+*%
X115857500Y-108420000D03*
%TO.P,U3,4*%
X115857500Y-110120000D03*
D22*
%TO.P,U3,5*%
%TO.N,VBUS*%
X116395000Y-110195000D03*
D21*
%TO.P,U3,6*%
%TO.N,/USB_D-*%
X116932500Y-110120000D03*
%TD*%
D23*
%TO.P,R12,1*%
%TO.N,VBUS*%
X110792500Y-106700000D03*
%TO.P,R12,2*%
%TO.N,/VBUS_D*%
X108967500Y-106700000D03*
%TD*%
D15*
%TO.P,R9,1*%
%TO.N,+3.3V*%
X108615000Y-120203000D03*
%TO.P,R9,2*%
%TO.N,/PB7*%
X109635000Y-120203000D03*
%TD*%
D16*
%TO.P,SW1,1*%
%TO.N,/NRST*%
X124450000Y-115460000D03*
%TO.P,SW1,2*%
%TO.N,GND*%
X124450000Y-112060000D03*
%TD*%
D24*
%TO.P,J3,1*%
%TO.N,+3.3V*%
X102670000Y-101320000D03*
D25*
%TO.P,J3,2*%
%TO.N,GND*%
X105210000Y-101320000D03*
%TO.P,J3,3*%
%TO.N,/PA9*%
X102670000Y-103860000D03*
%TO.P,J3,4*%
%TO.N,/PA10*%
X105210000Y-103860000D03*
%TO.P,J3,5*%
%TO.N,/PA8*%
X102670000Y-106400000D03*
%TO.P,J3,6*%
%TO.N,/PA15*%
X105210000Y-106400000D03*
%TO.P,J3,7*%
%TO.N,/PA13*%
X102670000Y-108940000D03*
%TO.P,J3,8*%
%TO.N,/PA14*%
X105210000Y-108940000D03*
%TO.P,J3,9*%
%TO.N,/PB3*%
X102670000Y-111480000D03*
%TO.P,J3,10*%
%TO.N,/NRST*%
X105210000Y-111480000D03*
%TO.P,J3,11*%
%TO.N,/PB4*%
X102670000Y-114020000D03*
%TO.P,J3,12*%
%TO.N,/PB5*%
X105210000Y-114020000D03*
%TO.P,J3,13*%
%TO.N,/PB6*%
X102670000Y-116560000D03*
%TO.P,J3,14*%
%TO.N,/PB7*%
X105210000Y-116560000D03*
%TO.P,J3,15*%
%TO.N,/PB8*%
X102670000Y-119100000D03*
%TO.P,J3,16*%
%TO.N,/PB9*%
X105210000Y-119100000D03*
%TO.P,J3,17*%
%TO.N,/PC13*%
X102670000Y-121640000D03*
%TO.P,J3,18*%
%TO.N,/PC14*%
X105210000Y-121640000D03*
%TO.P,J3,19*%
%TO.N,/PC15*%
X102670000Y-124180000D03*
%TO.P,J3,20*%
%TO.N,GND*%
X105210000Y-124180000D03*
%TD*%
D24*
%TO.P,J1,1*%
%TO.N,+5V*%
X128780000Y-101320000D03*
D25*
%TO.P,J1,2*%
%TO.N,GND*%
X131320000Y-101320000D03*
%TO.P,J1,3*%
%TO.N,/PB15*%
X128780000Y-103860000D03*
%TO.P,J1,4*%
%TO.N,/PB14*%
X131320000Y-103860000D03*
%TO.P,J1,5*%
%TO.N,/PB13*%
X128780000Y-106400000D03*
%TO.P,J1,6*%
%TO.N,/PB12*%
X131320000Y-106400000D03*
%TO.P,J1,7*%
%TO.N,/PB11*%
X128780000Y-108940000D03*
%TO.P,J1,8*%
%TO.N,/PB10*%
X131320000Y-108940000D03*
%TO.P,J1,9*%
%TO.N,/PB2*%
X128780000Y-111480000D03*
%TO.P,J1,10*%
%TO.N,/PB1*%
X131320000Y-111480000D03*
%TO.P,J1,11*%
%TO.N,/PB0*%
X128780000Y-114020000D03*
%TO.P,J1,12*%
%TO.N,/PA7*%
X131320000Y-114020000D03*
%TO.P,J1,13*%
%TO.N,/PA6*%
X128780000Y-116560000D03*
%TO.P,J1,14*%
%TO.N,/PA5*%
X131320000Y-116560000D03*
%TO.P,J1,15*%
%TO.N,/PA4*%
X128780000Y-119100000D03*
%TO.P,J1,16*%
%TO.N,/PA3*%
X131320000Y-119100000D03*
%TO.P,J1,17*%
%TO.N,/PA2*%
X128780000Y-121640000D03*
%TO.P,J1,18*%
%TO.N,/PA1*%
X131320000Y-121640000D03*
%TO.P,J1,19*%
%TO.N,/PA0*%
X128780000Y-124180000D03*
%TO.P,J1,20*%
%TO.N,+3.3V*%
X131320000Y-124180000D03*
%TD*%
D15*
%TO.P,R2,1*%
%TO.N,VBUS*%
X113132000Y-109650000D03*
%TO.P,R2,2*%
%TO.N,/USB_D+*%
X114152000Y-109650000D03*
%TD*%
D12*
%TO.P,C2,1*%
%TO.N,+3.3V*%
X121100000Y-112480000D03*
%TO.P,C2,2*%
%TO.N,GND*%
X121100000Y-111520000D03*
%TD*%
D15*
%TO.P,R5,1*%
%TO.N,GND*%
X113270000Y-108653000D03*
%TO.P,R5,2*%
%TO.N,/USB_CC2*%
X114290000Y-108653000D03*
%TD*%
D26*
%TO.P,U2,1*%
%TO.N,+3.3V*%
X120207500Y-108650000D03*
%TO.P,U2,2*%
%TO.N,unconnected-(U2-NC-Pad2)*%
X120207500Y-109300000D03*
%TO.P,U2,3*%
%TO.N,GND*%
X120207500Y-109950000D03*
%TO.P,U2,4*%
%TO.N,/VSYS*%
X121982500Y-109950000D03*
%TO.P,U2,5*%
%TO.N,unconnected-(U2-NC-Pad5)*%
X121982500Y-109300000D03*
%TO.P,U2,6*%
%TO.N,/VSYS*%
X121982500Y-108650000D03*
D27*
%TO.P,U2,7*%
%TO.N,GND*%
X121095000Y-108700000D03*
D28*
X121095000Y-109300000D03*
D27*
X121095000Y-109900000D03*
%TD*%
D10*
%TO.P,C13,1*%
%TO.N,VBUS*%
X118058000Y-109374000D03*
%TO.P,C13,2*%
%TO.N,GND*%
X118058000Y-110334000D03*
%TD*%
D15*
%TO.P,R7,1*%
%TO.N,+3.3V*%
X108468000Y-119044000D03*
%TO.P,R7,2*%
%TO.N,/PB6*%
X109488000Y-119044000D03*
%TD*%
%TO.P,R6,1*%
%TO.N,/PC13*%
X110513000Y-105198000D03*
%TO.P,R6,2*%
%TO.N,/USER_LED_K*%
X111533000Y-105198000D03*
%TD*%
D10*
%TO.P,C14,1*%
%TO.N,+3.3V*%
X123720000Y-119970000D03*
%TO.P,C14,2*%
%TO.N,GND*%
X123720000Y-120930000D03*
%TD*%
D29*
%TO.P,D2,1*%
%TO.N,/VSYS*%
X122975000Y-106895000D03*
%TO.P,D2,2*%
%TO.N,/VBUS_D*%
X122975000Y-104795000D03*
%TD*%
D12*
%TO.P,C3,1*%
%TO.N,+3.3V*%
X112075000Y-111883000D03*
%TO.P,C3,2*%
%TO.N,GND*%
X112075000Y-110923000D03*
%TD*%
%TO.P,C4,1*%
%TO.N,+3.3V*%
X110730000Y-119430000D03*
%TO.P,C4,2*%
%TO.N,GND*%
X110730000Y-118470000D03*
%TD*%
D15*
%TO.P,R3,1*%
%TO.N,GND*%
X108600000Y-105170000D03*
%TO.P,R3,2*%
%TO.N,/PWR_LED_K*%
X109620000Y-105170000D03*
%TD*%
D12*
%TO.P,C1,1*%
%TO.N,+3.3V*%
X112450000Y-121080000D03*
%TO.P,C1,2*%
%TO.N,GND*%
X112450000Y-120120000D03*
%TD*%
%TO.P,C10,1*%
%TO.N,/HSE_IN*%
X112545000Y-123880000D03*
%TO.P,C10,2*%
%TO.N,GND*%
X112545000Y-122920000D03*
%TD*%
D30*
%TO.P,J2,A1*%
%TO.N,GND*%
X119970000Y-106625000D03*
%TO.P,J2,A4*%
%TO.N,VBUS*%
X119120000Y-106625000D03*
%TO.P,J2,A5*%
%TO.N,/USB_CC1*%
X118270000Y-106625000D03*
%TO.P,J2,A6*%
%TO.N,/USB_D+*%
X117420000Y-106625000D03*
%TO.P,J2,A7*%
%TO.N,/USB_D-*%
X116570000Y-106625000D03*
%TO.P,J2,A8*%
%TO.N,unconnected-(J2-SBU1-PadA8)*%
X115720000Y-106625000D03*
%TO.P,J2,A9*%
%TO.N,VBUS*%
X114870000Y-106625000D03*
%TO.P,J2,A12*%
%TO.N,GND*%
X114020000Y-106625000D03*
%TO.P,J2,B1*%
X114020000Y-105275000D03*
%TO.P,J2,B4*%
%TO.N,VBUS*%
X114870000Y-105275000D03*
%TO.P,J2,B5*%
%TO.N,/USB_CC2*%
X115720000Y-105275000D03*
%TO.P,J2,B6*%
%TO.N,/USB_D+*%
X116570000Y-105275000D03*
%TO.P,J2,B7*%
%TO.N,/USB_D-*%
X117420000Y-105275000D03*
%TO.P,J2,B8*%
%TO.N,unconnected-(J2-SBU2-PadB8)*%
X118270000Y-105275000D03*
%TO.P,J2,B9*%
%TO.N,VBUS*%
X119120000Y-105275000D03*
%TO.P,J2,B12*%
%TO.N,GND*%
X119970000Y-105275000D03*
D31*
%TO.P,J2,SH*%
X121320000Y-105645000D03*
D32*
X121320000Y-102265000D03*
D31*
X112670000Y-105645000D03*
D32*
X112670000Y-102265000D03*
%TD*%
D33*
%TO.P,Y1,1*%
%TO.N,/HSE_IN*%
X114145000Y-124050000D03*
%TO.P,Y1,2*%
%TO.N,GND*%
X116345000Y-124050000D03*
%TO.P,Y1,3*%
%TO.N,/HSE_OUT*%
X116345000Y-122350000D03*
%TO.P,Y1,4*%
%TO.N,GND*%
X114145000Y-122350000D03*
%TD*%
D15*
%TO.P,R11,1*%
%TO.N,GND*%
X113090000Y-110585000D03*
%TO.P,R11,2*%
%TO.N,/USB_D+*%
X114110000Y-110585000D03*
%TD*%
D34*
%TO.P,U1,1*%
%TO.N,+3.3V*%
X113995000Y-120362500D03*
%TO.P,U1,2*%
%TO.N,/PC13*%
X114495000Y-120362500D03*
%TO.P,U1,3*%
%TO.N,/PC14*%
X114995000Y-120362500D03*
%TO.P,U1,4*%
%TO.N,/PC15*%
X115495000Y-120362500D03*
%TO.P,U1,5*%
%TO.N,/HSE_IN*%
X115995000Y-120362500D03*
%TO.P,U1,6*%
%TO.N,/HSE_OUT*%
X116495000Y-120362500D03*
%TO.P,U1,7*%
%TO.N,/NRST*%
X116995000Y-120362500D03*
%TO.P,U1,8*%
%TO.N,GND*%
X117495000Y-120362500D03*
%TO.P,U1,9*%
%TO.N,+3.3VA*%
X117995000Y-120362500D03*
%TO.P,U1,10*%
%TO.N,/PA0*%
X118495000Y-120362500D03*
%TO.P,U1,11*%
%TO.N,/PA1*%
X118995000Y-120362500D03*
%TO.P,U1,12*%
%TO.N,/PA2*%
X119495000Y-120362500D03*
D35*
%TO.P,U1,13*%
%TO.N,/PA3*%
X120907500Y-118950000D03*
%TO.P,U1,14*%
%TO.N,/PA4*%
X120907500Y-118450000D03*
%TO.P,U1,15*%
%TO.N,/PA5*%
X120907500Y-117950000D03*
%TO.P,U1,16*%
%TO.N,/PA6*%
X120907500Y-117450000D03*
%TO.P,U1,17*%
%TO.N,/PA7*%
X120907500Y-116950000D03*
%TO.P,U1,18*%
%TO.N,/PB0*%
X120907500Y-116450000D03*
%TO.P,U1,19*%
%TO.N,/PB1*%
X120907500Y-115950000D03*
%TO.P,U1,20*%
%TO.N,/PB2*%
X120907500Y-115450000D03*
%TO.P,U1,21*%
%TO.N,/PB10*%
X120907500Y-114950000D03*
%TO.P,U1,22*%
%TO.N,/PB11*%
X120907500Y-114450000D03*
%TO.P,U1,23*%
%TO.N,GND*%
X120907500Y-113950000D03*
%TO.P,U1,24*%
%TO.N,+3.3V*%
X120907500Y-113450000D03*
D34*
%TO.P,U1,25*%
%TO.N,/PB12*%
X119495000Y-112037500D03*
%TO.P,U1,26*%
%TO.N,/PB13*%
X118995000Y-112037500D03*
%TO.P,U1,27*%
%TO.N,/PB14*%
X118495000Y-112037500D03*
%TO.P,U1,28*%
%TO.N,/PB15*%
X117995000Y-112037500D03*
%TO.P,U1,29*%
%TO.N,/PA8*%
X117495000Y-112037500D03*
%TO.P,U1,30*%
%TO.N,/PA9*%
X116995000Y-112037500D03*
%TO.P,U1,31*%
%TO.N,/PA10*%
X116495000Y-112037500D03*
%TO.P,U1,32*%
%TO.N,/USB_D-*%
X115995000Y-112037500D03*
%TO.P,U1,33*%
%TO.N,/USB_D+*%
X115495000Y-112037500D03*
%TO.P,U1,34*%
%TO.N,/PA13*%
X114995000Y-112037500D03*
%TO.P,U1,35*%
%TO.N,GND*%
X114495000Y-112037500D03*
%TO.P,U1,36*%
%TO.N,+3.3V*%
X113995000Y-112037500D03*
D35*
%TO.P,U1,37*%
%TO.N,/PA14*%
X112582500Y-113450000D03*
%TO.P,U1,38*%
%TO.N,/PA15*%
X112582500Y-113950000D03*
%TO.P,U1,39*%
%TO.N,/PB3*%
X112582500Y-114450000D03*
%TO.P,U1,40*%
%TO.N,/PB4*%
X112582500Y-114950000D03*
%TO.P,U1,41*%
%TO.N,/PB5*%
X112582500Y-115450000D03*
%TO.P,U1,42*%
%TO.N,/PB6*%
X112582500Y-115950000D03*
%TO.P,U1,43*%
%TO.N,/PB7*%
X112582500Y-116450000D03*
%TO.P,U1,44*%
%TO.N,/BOOT0*%
X112582500Y-116950000D03*
%TO.P,U1,45*%
%TO.N,/PB8*%
X112582500Y-117450000D03*
%TO.P,U1,46*%
%TO.N,/PB9*%
X112582500Y-117950000D03*
%TO.P,U1,47*%
%TO.N,GND*%
X112582500Y-118450000D03*
%TO.P,U1,48*%
%TO.N,+3.3V*%
X112582500Y-118950000D03*
%TD*%
D36*
%TO.P,R10,1*%
%TO.N,/IMU_INT1*%
X121250000Y-119890000D03*
%TO.P,R10,2*%
%TO.N,/PA0*%
X121250000Y-120910000D03*
%TD*%
D37*
%TO.P,Q1,1*%
%TO.N,GND*%
X124380000Y-106592500D03*
%TO.P,Q1,2*%
%TO.N,/5V_F*%
X125680000Y-106592500D03*
%TO.P,Q1,3*%
%TO.N,+5V*%
X125030000Y-104817500D03*
%TD*%
D38*
%TO.N,+3.3V*%
X107930100Y-103019500D03*
X106549500Y-116644900D03*
X107771800Y-118537500D03*
X121659900Y-107595600D03*
X132475000Y-107024999D03*
X111411300Y-121080000D03*
X119797800Y-108108900D03*
X106775800Y-115600000D03*
X120350000Y-112800000D03*
%TO.N,GND*%
X116014999Y-102044999D03*
X124450000Y-119250000D03*
X116150000Y-107550000D03*
X118245000Y-116110000D03*
X108394999Y-100774999D03*
X113175000Y-108074999D03*
X122600000Y-116110000D03*
X108600000Y-104350000D03*
X124650000Y-110350000D03*
X112783300Y-111352000D03*
X118554999Y-102044999D03*
X122364999Y-100774999D03*
X114495000Y-113500000D03*
X114744999Y-102044999D03*
X114744999Y-122364999D03*
X124470000Y-120930000D03*
X123850000Y-107250000D03*
X117284999Y-102044999D03*
%TO.N,/BOOT0*%
X106043200Y-112968400D03*
X107573100Y-116361400D03*
X107289300Y-111328700D03*
X107573100Y-114558700D03*
%TO.N,/USER_LED_K*%
X111748000Y-106041400D03*
X110276900Y-109383500D03*
%TO.N,/NRST*%
X125738700Y-115241700D03*
X116850900Y-119167700D03*
X119738800Y-124483000D03*
%TO.N,/PB2*%
X123148200Y-111709400D03*
%TO.N,/PB6*%
X116021600Y-115767700D03*
X126461400Y-114904500D03*
X113770500Y-115913700D03*
%TO.N,/PB7*%
X126425000Y-114160200D03*
X118279800Y-114370000D03*
X113761800Y-116665600D03*
%TO.N,+3.3VA*%
X120313700Y-123976300D03*
X122215900Y-121778300D03*
X117995000Y-119151200D03*
%TO.N,/USB_CC1*%
X126285500Y-109139900D03*
%TO.N,/USB_D-*%
X114938600Y-110583400D03*
%TO.N,/USB_D+*%
X115368700Y-109496700D03*
%TO.N,/USB_CC2*%
X115001800Y-108371600D03*
%TO.N,/PA9*%
X106493000Y-106747800D03*
X116919600Y-113716900D03*
%TO.N,/PA10*%
X109322100Y-108991400D03*
%TO.N,/PA8*%
X117500200Y-113210400D03*
%TO.N,/PA13*%
X115430700Y-113207300D03*
%TO.N,/PB5*%
X114433100Y-115501100D03*
%TO.N,/PB8*%
X113752000Y-117450000D03*
%TO.N,/PB9*%
X110938400Y-117744400D03*
%TO.N,/PC13*%
X116060100Y-116781200D03*
X116372300Y-114472500D03*
X124346900Y-105307700D03*
X113756600Y-119084700D03*
%TO.N,/PC14*%
X114685600Y-119189300D03*
%TO.N,/PC15*%
X115478500Y-119193000D03*
%TO.N,/PB15*%
X118297700Y-113225000D03*
%TO.N,/PB14*%
X119633900Y-113207300D03*
X125869700Y-111683200D03*
%TO.N,/PB13*%
X120332200Y-111077600D03*
%TO.N,/PB12*%
X122507800Y-112716700D03*
X120285600Y-111840300D03*
%TO.N,/PB0*%
X119729400Y-115526900D03*
%TO.N,/PA7*%
X119692700Y-116879000D03*
%TO.N,/PA6*%
X122274100Y-117369600D03*
%TO.N,/PA5*%
X119719600Y-117616300D03*
%TO.N,/PA4*%
X118977200Y-117723900D03*
%TO.N,/PA3*%
X119113100Y-118586300D03*
%TO.N,/PA2*%
X120596000Y-120362500D03*
%TO.N,/PA1*%
X118165000Y-118414100D03*
%TO.N,/PA0*%
X118494500Y-121532000D03*
%TD*%
%TO.N,+3.3V*%
D39*
X128225000Y-115524999D02*
X128324999Y-115425000D01*
D40*
X111840000Y-109482000D02*
X111978000Y-109620000D01*
D39*
X132425000Y-111824999D02*
X132475000Y-111774999D01*
D40*
X108468000Y-120056000D02*
X108615000Y-120203000D01*
X113167500Y-120362500D02*
X113167500Y-119535000D01*
D39*
X132425000Y-111875000D02*
X132425000Y-111824999D01*
X129925000Y-114324999D02*
X129925000Y-113725000D01*
X129824999Y-114524999D02*
X129824999Y-114475000D01*
X128324999Y-115425000D02*
X128425000Y-115425000D01*
D40*
X109563100Y-108409700D02*
X109122400Y-108409700D01*
X104721100Y-102451700D02*
X103801700Y-101532300D01*
X106817900Y-103853200D02*
X107651600Y-103019500D01*
X128449100Y-122910000D02*
X125550000Y-120010900D01*
D39*
X131574999Y-112824999D02*
X132324999Y-112074999D01*
D40*
X112582500Y-118950000D02*
X111210000Y-118950000D01*
D39*
X128625000Y-115375000D02*
X128675000Y-115324999D01*
D40*
X108278300Y-119044000D02*
X108468000Y-119044000D01*
D41*
X125363000Y-118460000D02*
X125550000Y-118650000D01*
D40*
X111840000Y-108800400D02*
X111840000Y-109482000D01*
X109953800Y-108800400D02*
X109563100Y-108409700D01*
X106817900Y-103853200D02*
X105416400Y-102451700D01*
X111473400Y-111281400D02*
X111473400Y-110124600D01*
D39*
X132324999Y-112074999D02*
X132324999Y-112024999D01*
D40*
X120350000Y-112800000D02*
X120670000Y-112480000D01*
X111840000Y-108800400D02*
X109953800Y-108800400D01*
D39*
X128025000Y-115625000D02*
X128074999Y-115625000D01*
X130675000Y-112975000D02*
X130725000Y-112975000D01*
D40*
X122620000Y-119965000D02*
X123715000Y-119965000D01*
D39*
X130875000Y-112875000D02*
X130975000Y-112875000D01*
X130775000Y-112925000D02*
X130824999Y-112925000D01*
X132375000Y-111975000D02*
X132375000Y-111925000D01*
X132475000Y-111774999D02*
X132475000Y-107024999D01*
D40*
X109122400Y-108409700D02*
X106819400Y-106106700D01*
X121100000Y-112480000D02*
X121100000Y-113257000D01*
X121100000Y-113257000D02*
X120907000Y-113450000D01*
X107771800Y-118537500D02*
X108278300Y-119044000D01*
X112075000Y-111883000D02*
X111473400Y-111281400D01*
X112450000Y-121080000D02*
X111411300Y-121080000D01*
X103801700Y-101532300D02*
X103801700Y-101320000D01*
D39*
X129074999Y-115324999D02*
X129725000Y-114675000D01*
X128475000Y-115375000D02*
X128625000Y-115375000D01*
D40*
X111473400Y-110124600D02*
X111978000Y-109620000D01*
X125550000Y-120010900D02*
X125550000Y-119930000D01*
D41*
X125950000Y-118460000D02*
X125363000Y-118460000D01*
D40*
X120156500Y-108466000D02*
X119799400Y-108108900D01*
D39*
X127875000Y-115725000D02*
X127925000Y-115725000D01*
X129925000Y-113725000D02*
X130675000Y-112975000D01*
X128175000Y-115524999D02*
X128225000Y-115524999D01*
D41*
X125950000Y-117460000D02*
X125950000Y-118460000D01*
D40*
X109580000Y-115600000D02*
X106775800Y-115600000D01*
D39*
X129725000Y-114675000D02*
X129725000Y-114625000D01*
D40*
X124700000Y-116797500D02*
X124700000Y-116798000D01*
X113167500Y-120362500D02*
X112450000Y-121080000D01*
X102670000Y-101320000D02*
X103801700Y-101320000D01*
X125362500Y-117460000D02*
X125363000Y-117460000D01*
X111840000Y-108163000D02*
X111840000Y-108800400D01*
X111210000Y-118950000D02*
X110730000Y-119430000D01*
X106549500Y-116644900D02*
X106549500Y-117315200D01*
D39*
X132375000Y-111925000D02*
X132425000Y-111875000D01*
D40*
X130050000Y-122910000D02*
X128449100Y-122910000D01*
X106549500Y-117315200D02*
X107771800Y-118537500D01*
X121659900Y-107595600D02*
X121026900Y-107595600D01*
X106819400Y-103854700D02*
X106817900Y-103853200D01*
X119799400Y-108108900D02*
X119797800Y-108108900D01*
X120207500Y-108517000D02*
X120156500Y-108466000D01*
D39*
X129725000Y-114625000D02*
X129824999Y-114524999D01*
D40*
X105416400Y-102451700D02*
X104721100Y-102451700D01*
D41*
X124700000Y-116798000D02*
X125363000Y-116960000D01*
D40*
X112075000Y-111883000D02*
X112229500Y-112037500D01*
D39*
X129875000Y-114375000D02*
X129925000Y-114324999D01*
X130975000Y-112875000D02*
X131025000Y-112824999D01*
D41*
X125363000Y-116960000D02*
X125363000Y-117460000D01*
D40*
X113167500Y-120362500D02*
X113995000Y-120362500D01*
X113167500Y-119535000D02*
X112582500Y-118950000D01*
X108468000Y-119044000D02*
X108468000Y-120056000D01*
X107651600Y-103019500D02*
X107930100Y-103019500D01*
D39*
X126175000Y-117425000D02*
X127875000Y-115725000D01*
X131025000Y-112824999D02*
X131574999Y-112824999D01*
D40*
X106819400Y-106106700D02*
X106819400Y-103854700D01*
X125362500Y-118460000D02*
X125363000Y-118460000D01*
D39*
X128425000Y-115425000D02*
X128475000Y-115375000D01*
X130824999Y-112925000D02*
X130875000Y-112875000D01*
D41*
X123700000Y-118622000D02*
X123700000Y-119930000D01*
X122620000Y-119930000D02*
X125550000Y-119930000D01*
D39*
X132324999Y-112024999D02*
X132375000Y-111975000D01*
D40*
X123715000Y-119965000D02*
X123720000Y-119970000D01*
X120670000Y-112480000D02*
X121100000Y-112480000D01*
X112229500Y-112037500D02*
X113995000Y-112037500D01*
D39*
X128675000Y-115324999D02*
X129074999Y-115324999D01*
X130725000Y-112975000D02*
X130775000Y-112925000D01*
X126074999Y-117425000D02*
X126175000Y-117425000D01*
D40*
X120127500Y-108730000D02*
X120207500Y-108650000D01*
X120207500Y-108650000D02*
X120207500Y-108517000D01*
D41*
X125550000Y-118650000D02*
X125550000Y-119930000D01*
D39*
X129824999Y-114475000D02*
X129875000Y-114425000D01*
X127925000Y-115725000D02*
X128025000Y-115625000D01*
D40*
X119263000Y-108730000D02*
X120127500Y-108730000D01*
D39*
X129875000Y-114425000D02*
X129875000Y-114375000D01*
D41*
X125363000Y-117460000D02*
X125950000Y-117460000D01*
D40*
X131320000Y-124180000D02*
X130050000Y-122910000D01*
D39*
X128074999Y-115625000D02*
X128175000Y-115524999D01*
D40*
X121026900Y-107595600D02*
X120156500Y-108466000D01*
%TO.N,GND*%
D41*
X123037000Y-117960000D02*
X123037000Y-116960000D01*
X123037500Y-116960000D02*
X123037000Y-116960000D01*
X112075000Y-110923000D02*
X112354300Y-110923000D01*
X110678900Y-121665000D02*
X111290000Y-121665000D01*
X110164300Y-119035700D02*
X110164300Y-119121700D01*
X120257500Y-109900000D02*
X120207500Y-109950000D01*
X124380000Y-106592000D02*
X124380000Y-106592500D01*
X117419700Y-120287200D02*
X117419700Y-118450000D01*
X119523000Y-109950000D02*
X120207500Y-109950000D01*
X110678900Y-120120000D02*
X110487400Y-120120000D01*
X111290000Y-121665000D02*
X112545000Y-122920000D01*
X121920000Y-113950000D02*
X121500000Y-113950000D01*
X119403300Y-104631800D02*
X119970000Y-105198500D01*
X119263000Y-109690000D02*
X119523000Y-109950000D01*
X124200000Y-118622000D02*
X124450000Y-119250000D01*
X118245000Y-115897400D02*
X120192400Y-113950000D01*
X125313000Y-111987400D02*
X125385600Y-112060000D01*
X124470000Y-120930000D02*
X125220000Y-120930000D01*
X122446600Y-122335000D02*
X123720000Y-121061600D01*
X114145000Y-122350000D02*
X114645000Y-122350000D01*
X112562500Y-118470000D02*
X112582500Y-118450000D01*
X119970000Y-105198500D02*
X119970000Y-105275000D01*
X121095000Y-111515000D02*
X121100000Y-111520000D01*
X117419700Y-116935300D02*
X118245000Y-116110000D01*
X113650000Y-106255000D02*
X114020000Y-106625000D01*
X118058000Y-110334000D02*
X118608000Y-110334000D01*
X123720000Y-121061600D02*
X123720000Y-120930000D01*
X114645000Y-122350000D02*
X116345000Y-124050000D01*
X128516500Y-102455500D02*
X124380000Y-106592000D01*
X114495000Y-112700000D02*
X114495000Y-113500000D01*
X125600000Y-110910000D02*
X125210000Y-110910000D01*
X125313000Y-111197000D02*
X125313000Y-111987400D01*
X123037500Y-117960000D02*
X123037000Y-117960000D01*
X123880000Y-109830000D02*
X124650000Y-110350000D01*
X110730000Y-118470000D02*
X110164300Y-119035700D01*
X117495000Y-120362500D02*
X117419700Y-120287200D01*
X110678900Y-120120000D02*
X112450000Y-120120000D01*
X120192400Y-113950000D02*
X120907500Y-113950000D01*
D42*
X110164300Y-119121700D02*
X110164300Y-119240200D01*
D41*
X121460000Y-122335000D02*
X122446600Y-122335000D01*
X118245000Y-116110000D02*
X118245000Y-115897400D01*
X113090000Y-110585000D02*
X112413000Y-110585000D01*
X121500000Y-113950000D02*
X120907500Y-113950000D01*
X123720000Y-120930000D02*
X124470000Y-120930000D01*
X119045000Y-122120000D02*
X118545000Y-122120000D01*
X124700000Y-118622500D02*
X124200000Y-118622500D01*
X114495000Y-112700000D02*
X114495000Y-112037500D01*
X112582500Y-118450000D02*
X117419700Y-118450000D01*
X110487400Y-120120000D02*
X110030300Y-119662900D01*
X121320000Y-105645000D02*
X120340000Y-105645000D01*
D42*
X107732500Y-121844800D02*
X109966300Y-121844800D01*
D41*
X114020000Y-105167500D02*
X114555700Y-104631800D01*
X121320000Y-105645000D02*
X123433000Y-105645000D01*
X123433000Y-105645000D02*
X124380000Y-106592000D01*
X110730000Y-118470000D02*
X112562500Y-118470000D01*
X125210000Y-110910000D02*
X124650000Y-110350000D01*
X113175000Y-108074999D02*
X113175000Y-108074999D01*
X114555700Y-104631800D02*
X119403300Y-104631800D01*
X125600000Y-110910000D02*
X125313000Y-111197000D01*
X120340000Y-105645000D02*
X119970000Y-105275000D01*
X118608000Y-110334000D02*
X119263000Y-109690000D01*
X110030300Y-119662900D02*
X110030300Y-119374200D01*
X113650000Y-105645000D02*
X113650000Y-106255000D01*
X130184500Y-102455500D02*
X128516500Y-102455500D01*
X124450000Y-119250000D02*
X124700000Y-118622000D01*
X113650000Y-105645000D02*
X114020000Y-105275000D01*
X120145000Y-122120000D02*
X121245000Y-122120000D01*
X121920000Y-111690000D02*
X121920000Y-113950000D01*
D42*
X110164300Y-119240200D02*
X110030300Y-119374200D01*
D41*
X121095000Y-109900000D02*
X121095000Y-111515000D01*
X121245000Y-122120000D02*
X121460000Y-122335000D01*
X131320000Y-101320000D02*
X130184500Y-102455500D01*
X110730000Y-118470000D02*
X110730000Y-118340000D01*
D42*
X109966300Y-121844800D02*
X110146100Y-121665000D01*
D41*
X114020000Y-105275000D02*
X114020000Y-105167500D01*
X112670000Y-105645000D02*
X113650000Y-105645000D01*
X108600000Y-105170000D02*
X108600000Y-104350000D01*
X110678900Y-121665000D02*
X110678900Y-120120000D01*
X118545000Y-122120000D02*
X117945000Y-122720000D01*
X123910000Y-110800000D02*
X124650000Y-110350000D01*
X112354300Y-110923000D02*
X112783300Y-111352000D01*
X121095000Y-108700000D02*
X121095000Y-109300000D01*
X117419700Y-118450000D02*
X117419700Y-116935300D01*
X121095000Y-109900000D02*
X120257500Y-109900000D01*
X112413000Y-110585000D02*
X112075000Y-110923000D01*
X121750000Y-111520000D02*
X121920000Y-111690000D01*
X124450000Y-112060000D02*
X125385600Y-112060000D01*
X123037000Y-116960000D02*
X122600000Y-116110000D01*
X124380000Y-106592000D02*
X123850000Y-107250000D01*
X110730000Y-118340000D02*
X109280000Y-116890000D01*
X105397300Y-124180000D02*
X107732500Y-121844800D01*
X110146100Y-121665000D02*
X110678900Y-121665000D01*
X120145000Y-122120000D02*
X119045000Y-122120000D01*
X105210000Y-124180000D02*
X105397300Y-124180000D01*
X121100000Y-111520000D02*
X121750000Y-111520000D01*
X116395000Y-108345000D02*
X116150000Y-107550000D01*
%TO.N,/BOOT0*%
D43*
X109580000Y-112200000D02*
X109580000Y-111543300D01*
X107503900Y-111543300D02*
X107289300Y-111328700D01*
X110762900Y-116667800D02*
X110762900Y-116805500D01*
X108701000Y-117191200D02*
X108701000Y-116414500D01*
X107573100Y-114558700D02*
X106043200Y-113028800D01*
D44*
X112438000Y-116805500D02*
X112582500Y-116950000D01*
X110762900Y-116805500D02*
X112438000Y-116805500D01*
X109015700Y-117365700D02*
X109211800Y-117561800D01*
X110509600Y-116414500D02*
X108701000Y-116414500D01*
D43*
X107626200Y-116414500D02*
X107573100Y-116361400D01*
X108875500Y-117365700D02*
X108701000Y-117191200D01*
X109211800Y-117561800D02*
X109280000Y-117630000D01*
X106043200Y-113028800D02*
X106043200Y-112968400D01*
D44*
X108875500Y-117365700D02*
X109015700Y-117365700D01*
D43*
X109280000Y-117630000D02*
X109280000Y-117910000D01*
X109580000Y-111543300D02*
X107503900Y-111543300D01*
D44*
X110762900Y-116667800D02*
X110509600Y-116414500D01*
D43*
X108701000Y-116414500D02*
X107626200Y-116414500D01*
%TO.N,/HSE_OUT*%
D39*
X116495000Y-120600000D02*
X116495000Y-122350000D01*
X116495000Y-122350000D02*
X116345000Y-122350000D01*
X117340000Y-123680000D02*
X117945000Y-123680000D01*
X117340000Y-122350000D02*
X117340000Y-123680000D01*
D43*
X116495000Y-120600000D02*
X116495000Y-120362500D01*
D39*
X116345000Y-122350000D02*
X117340000Y-122350000D01*
%TO.N,/USER_LED_K*%
D43*
X111533000Y-105198000D02*
X111533000Y-105826400D01*
X110276900Y-109383500D02*
X110771500Y-109383500D01*
X110771500Y-109383500D02*
X111008000Y-109620000D01*
X111533000Y-105826400D02*
X111748000Y-106041400D01*
%TO.N,/NRST*%
X125520400Y-115460000D02*
X125738700Y-115241700D01*
X120523700Y-124483000D02*
X121245000Y-123761700D01*
X121245000Y-123761700D02*
X121245000Y-123080000D01*
X119738800Y-124483000D02*
X120523700Y-124483000D01*
X116995000Y-119311800D02*
X116850900Y-119167700D01*
X124450000Y-115460000D02*
X125520400Y-115460000D01*
X116995000Y-120362500D02*
X116995000Y-119311800D01*
%TO.N,/VSYS*%
D40*
X122460000Y-108650000D02*
X121983000Y-108650000D01*
X122975000Y-107343000D02*
X122460000Y-107858000D01*
X122460000Y-107858000D02*
X122460000Y-109950000D01*
X123337500Y-108405000D02*
X123337000Y-108405000D01*
X121983000Y-108650000D02*
X121982500Y-108650000D01*
X123337000Y-107705000D02*
X123337000Y-108405000D01*
X122975000Y-107343000D02*
X123337000Y-107705000D01*
X122975000Y-106895000D02*
X122975000Y-107343000D01*
X122460000Y-109830000D02*
X122920000Y-109830000D01*
X122460000Y-109950000D02*
X121983000Y-109950000D01*
X121983000Y-109950000D02*
X121982500Y-109950000D01*
%TO.N,/5V_F*%
X125213000Y-107510000D02*
X125680000Y-107058000D01*
X125680000Y-107058000D02*
X125680000Y-106592000D01*
X125212500Y-108405000D02*
X125213000Y-108405000D01*
X125213000Y-108405000D02*
X125213000Y-107510000D01*
%TO.N,/PB2*%
D43*
X128780000Y-111480000D02*
X127985200Y-111480000D01*
X122890000Y-110800000D02*
X123148200Y-111058200D01*
X123047400Y-114114600D02*
X121712000Y-115450000D01*
X125350600Y-114114600D02*
X123047400Y-114114600D01*
X121712000Y-115450000D02*
X120907500Y-115450000D01*
X123148200Y-111058200D02*
X123148200Y-111709400D01*
X127985200Y-111480000D02*
X125350600Y-114114600D01*
%TO.N,/IMU_INT1*%
X123037500Y-118460000D02*
X123037000Y-118460000D01*
D39*
X123037000Y-118460000D02*
X121250000Y-119920000D01*
%TO.N,/PB6*%
D43*
X113864600Y-116007800D02*
X115781500Y-116007800D01*
X103768600Y-115461400D02*
X102670000Y-116560000D01*
X107056200Y-116612200D02*
X107056200Y-116434900D01*
X124200000Y-116524500D02*
X124534800Y-116189700D01*
X113770500Y-115913700D02*
X113864600Y-116007800D01*
X109488000Y-119044000D02*
X107056200Y-116612200D01*
X112582500Y-115950000D02*
X112618800Y-115913700D01*
X106759500Y-116138200D02*
X106390800Y-116138200D01*
X107056200Y-116434900D02*
X106759500Y-116138200D01*
X124200000Y-116797500D02*
X124200000Y-116524500D01*
X125535400Y-116189700D02*
X126461400Y-115263700D01*
X124534800Y-116189700D02*
X125535400Y-116189700D01*
X112618800Y-115913700D02*
X113770500Y-115913700D01*
X126461400Y-115263700D02*
X126461400Y-114904500D01*
X105714000Y-115461400D02*
X103768600Y-115461400D01*
X106390800Y-116138200D02*
X105714000Y-115461400D01*
X115781500Y-116007800D02*
X116021600Y-115767700D01*
%TO.N,/PB7*%
X112582500Y-116450000D02*
X113546200Y-116450000D01*
X107187500Y-119650800D02*
X108272800Y-120736100D01*
X114384100Y-117287900D02*
X116375000Y-117287900D01*
X125907200Y-114678000D02*
X126425000Y-114160200D01*
X107187500Y-118537500D02*
X107187500Y-119650800D01*
X108272800Y-120736100D02*
X109101900Y-120736100D01*
X123393300Y-116490800D02*
X123393300Y-114912700D01*
X113546200Y-116450000D02*
X113761800Y-116665600D01*
X123700000Y-116797500D02*
X123393300Y-116490800D01*
X117110100Y-116552800D02*
X117110100Y-115539700D01*
X109101900Y-120736100D02*
X109635000Y-120203000D01*
X116375000Y-117287900D02*
X117110100Y-116552800D01*
X113761800Y-116665600D02*
X114384100Y-117287900D01*
X105210000Y-116560000D02*
X107187500Y-118537500D01*
X123393300Y-114912700D02*
X123628000Y-114678000D01*
X123628000Y-114678000D02*
X125907200Y-114678000D01*
X117110100Y-115539700D02*
X118279800Y-114370000D01*
%TO.N,+3.3VA*%
D40*
X120313700Y-123976300D02*
X120313700Y-123248700D01*
X122215900Y-121339100D02*
X122620000Y-120935000D01*
X120313700Y-123248700D02*
X120145000Y-123080000D01*
X122215900Y-121778300D02*
X122215900Y-121339100D01*
X120145000Y-123080000D02*
X119045000Y-123080000D01*
X117995000Y-119151200D02*
X117995000Y-120362500D01*
%TO.N,/USB_CC1*%
D43*
X126285500Y-109204500D02*
X125600000Y-109890000D01*
X126285500Y-109139900D02*
X126285500Y-109204500D01*
%TO.N,/PWR_LED_K*%
X109620000Y-105170000D02*
X109813800Y-105363800D01*
X109813800Y-107106800D02*
X110870000Y-108163000D01*
X109813800Y-105363800D02*
X109813800Y-107106800D01*
%TO.N,/USB_D-*%
X115995000Y-110870000D02*
X115708400Y-110583400D01*
X115708400Y-110583400D02*
X114938600Y-110583400D01*
X115995000Y-112037500D02*
X115995000Y-110870000D01*
X116932500Y-108420000D02*
X116932500Y-106987500D01*
D44*
X117062000Y-110249500D02*
X116586000Y-110725500D01*
D43*
X116932500Y-106987500D02*
X116570000Y-106625000D01*
D44*
X116586000Y-110725500D02*
X116139500Y-110725500D01*
D39*
X116570000Y-106625000D02*
X117420000Y-105275000D01*
D43*
X115995000Y-110870000D02*
X116139500Y-110725500D01*
X116932500Y-110120000D02*
X117062000Y-110249500D01*
%TO.N,/USB_D+*%
X114856500Y-109496700D02*
X115368700Y-109496700D01*
X115814200Y-110076700D02*
X114475200Y-110076700D01*
X114110000Y-110585000D02*
X114152000Y-110543000D01*
X114431900Y-110120000D02*
X114431900Y-110794900D01*
X114818700Y-109458800D02*
X115857500Y-108420000D01*
X114818700Y-109458900D02*
X114818700Y-109458800D01*
X114431900Y-110794900D02*
X114728700Y-111091700D01*
X114818700Y-109458900D02*
X114343100Y-109458900D01*
X114728700Y-111091700D02*
X115189300Y-111091700D01*
X114475200Y-110076700D02*
X114431900Y-110120000D01*
X114818700Y-109458900D02*
X114856500Y-109496700D01*
X114343100Y-109458900D02*
X114152000Y-109650000D01*
X114152000Y-110120000D02*
X114152000Y-109650000D01*
X115189300Y-111091700D02*
X115495000Y-111397400D01*
X115857500Y-110120000D02*
X115814200Y-110076700D01*
X115495000Y-111397400D02*
X115495000Y-112037500D01*
X114152000Y-110543000D02*
X114152000Y-110120000D01*
X114431900Y-110120000D02*
X114152000Y-110120000D01*
%TO.N,VBUS*%
D40*
X119120000Y-105275000D02*
X119120000Y-106625000D01*
X110792500Y-106700000D02*
X110793000Y-106700000D01*
X116395000Y-109801999D02*
X116612000Y-109585000D01*
X114870000Y-105275000D02*
X114870000Y-106625000D01*
X111030000Y-107400000D02*
X110793000Y-106700000D01*
X114870000Y-107400000D02*
X111030000Y-107400000D01*
X118058000Y-109374000D02*
X118058000Y-108604000D01*
X117309000Y-109585000D02*
X118058000Y-109374000D01*
X116612000Y-109585000D02*
X117309000Y-109585000D01*
D39*
X112580000Y-107400000D02*
X112580000Y-109650000D01*
D40*
X114870000Y-106625000D02*
X114870000Y-107400000D01*
X118058000Y-108604000D02*
X119120000Y-107544000D01*
D39*
X112580000Y-109650000D02*
X113132000Y-109650000D01*
D40*
X116395000Y-110195000D02*
X116395000Y-109801999D01*
X119120000Y-107544000D02*
X119120000Y-106625000D01*
%TO.N,/VBUS_D*%
D41*
X108000000Y-106700000D02*
X108000000Y-103650000D01*
X108968000Y-106700000D02*
X108000000Y-106700000D01*
X122975000Y-103650000D02*
X122975000Y-104795000D01*
X108000000Y-103650000D02*
X122975000Y-103650000D01*
%TO.N,/USB_CC2*%
D43*
X114571400Y-108371600D02*
X115001800Y-108371600D01*
X114290000Y-108653000D02*
X114571400Y-108371600D01*
%TO.N,/PA9*%
X116919600Y-112112900D02*
X116919600Y-113716900D01*
X105460300Y-105130000D02*
X103940000Y-105130000D01*
X116995000Y-112037500D02*
X116919600Y-112112900D01*
X106462700Y-106717500D02*
X106462700Y-106132400D01*
X106493000Y-106747800D02*
X106462700Y-106717500D01*
X103940000Y-105130000D02*
X102670000Y-103860000D01*
X106462700Y-106132400D02*
X105460300Y-105130000D01*
%TO.N,/PA10*%
X111071000Y-110914100D02*
X109322100Y-109165200D01*
X116430100Y-112962000D02*
X115377000Y-114015100D01*
X111071000Y-111701400D02*
X111071000Y-110914100D01*
X112003600Y-112634000D02*
X111071000Y-111701400D01*
X112902900Y-112634000D02*
X112003600Y-112634000D01*
X115377000Y-114015100D02*
X114284000Y-114015100D01*
X114284000Y-114015100D02*
X112902900Y-112634000D01*
X109322100Y-109165200D02*
X109322100Y-108991400D01*
X116430100Y-112959800D02*
X116430100Y-112962000D01*
X116495000Y-112894900D02*
X116430100Y-112959800D01*
X116495000Y-112037500D02*
X116495000Y-112894900D01*
%TO.N,/PA8*%
X117495000Y-112037500D02*
X117495000Y-113205200D01*
X117495000Y-113205200D02*
X117500200Y-113210400D01*
%TO.N,/PA15*%
X105454000Y-110210000D02*
X109194000Y-113950000D01*
X104953200Y-110210000D02*
X105454000Y-110210000D01*
X105210000Y-106400000D02*
X104130100Y-107479900D01*
X109194000Y-113950000D02*
X112582500Y-113950000D01*
X104130100Y-107479900D02*
X104130100Y-109386900D01*
X104130100Y-109386900D02*
X104953200Y-110210000D01*
%TO.N,/PA13*%
X114995000Y-112771600D02*
X115430700Y-113207300D01*
X114995000Y-112037500D02*
X114995000Y-112771600D01*
%TO.N,/PA14*%
X112388400Y-113450000D02*
X110666500Y-111728100D01*
X110666500Y-111728100D02*
X110666500Y-111612000D01*
X112582500Y-113450000D02*
X112388400Y-113450000D01*
X107994500Y-108940000D02*
X105210000Y-108940000D01*
X110666500Y-111612000D02*
X107994500Y-108940000D01*
%TO.N,/PB3*%
X105689200Y-112605800D02*
X103795800Y-112605800D01*
X108241500Y-114450000D02*
X106253200Y-112461700D01*
X105833300Y-112461700D02*
X105689200Y-112605800D01*
X106253200Y-112461700D02*
X105833300Y-112461700D01*
X112582500Y-114450000D02*
X108241500Y-114450000D01*
X103795800Y-112605800D02*
X102670000Y-111480000D01*
%TO.N,/PB4*%
X107762300Y-115086200D02*
X107913500Y-114935000D01*
X107913500Y-114935000D02*
X112567500Y-114935000D01*
X103736200Y-115086200D02*
X107762300Y-115086200D01*
X102670000Y-114020000D02*
X103736200Y-115086200D01*
X112567500Y-114935000D02*
X112582500Y-114950000D01*
%TO.N,/PB5*%
X114318400Y-115386400D02*
X114433100Y-115501100D01*
X112582500Y-115450000D02*
X112646100Y-115386400D01*
X112646100Y-115386400D02*
X114318400Y-115386400D01*
%TO.N,/PB8*%
X112582500Y-117450000D02*
X113752000Y-117450000D01*
%TO.N,/PB9*%
X111144000Y-117950000D02*
X110938400Y-117744400D01*
X112582500Y-117950000D02*
X111144000Y-117950000D01*
%TO.N,/PC13*%
X122207000Y-104737600D02*
X122207000Y-104813000D01*
X121630400Y-104161000D02*
X122207000Y-104737600D01*
X116545700Y-114645900D02*
X116545700Y-116295600D01*
X122207000Y-104813000D02*
X122701700Y-105307700D01*
X116372300Y-114472500D02*
X116545700Y-114645900D01*
X114494900Y-119715200D02*
X114495000Y-119715200D01*
X110513000Y-105198000D02*
X111550000Y-104161000D01*
X113864400Y-119084700D02*
X114494900Y-119715200D01*
X122701700Y-105307700D02*
X124346900Y-105307700D01*
X111550000Y-104161000D02*
X121630400Y-104161000D01*
X113756600Y-119084700D02*
X113864400Y-119084700D01*
X114495000Y-119715200D02*
X114495000Y-120362500D01*
X116545700Y-116295600D02*
X116060100Y-116781200D01*
%TO.N,/PC14*%
X114995000Y-119498700D02*
X114685600Y-119189300D01*
X114995000Y-120362500D02*
X114995000Y-119498700D01*
%TO.N,/PC15*%
X115495000Y-119209500D02*
X115478500Y-119193000D01*
X115495000Y-120362500D02*
X115495000Y-119209500D01*
%TO.N,+5V*%
D40*
X127860000Y-101320000D02*
X128780000Y-101320000D01*
X125030000Y-104150000D02*
X127860000Y-101320000D01*
X125030000Y-104818000D02*
X125030000Y-104150000D01*
%TO.N,/PB15*%
D43*
X117995000Y-112922300D02*
X118297700Y-113225000D01*
X117995000Y-112037500D02*
X117995000Y-112922300D01*
%TO.N,/PB14*%
X119000900Y-113207300D02*
X119633900Y-113207300D01*
X126865700Y-106817900D02*
X126865700Y-109306000D01*
X126267300Y-109904400D02*
X126267300Y-111285600D01*
X126865700Y-109306000D02*
X126267300Y-109904400D01*
X118495000Y-112701400D02*
X119000900Y-113207300D01*
X126267300Y-111285600D02*
X125869700Y-111683200D01*
X130050000Y-105130000D02*
X128553600Y-105130000D01*
X128553600Y-105130000D02*
X126865700Y-106817900D01*
X131320000Y-103860000D02*
X130050000Y-105130000D01*
X118495000Y-112037500D02*
X118495000Y-112701400D01*
%TO.N,/PB13*%
X118995000Y-111389200D02*
X119306600Y-111077600D01*
X119306600Y-111077600D02*
X120332200Y-111077600D01*
X118995000Y-112037500D02*
X118995000Y-111389200D01*
%TO.N,/PB12*%
X128501700Y-107670000D02*
X127198600Y-108973100D01*
X120088400Y-112037500D02*
X120285600Y-111840300D01*
X130050000Y-107670000D02*
X128501700Y-107670000D01*
X126549000Y-111720700D02*
X125553000Y-112716700D01*
X131320000Y-106400000D02*
X130050000Y-107670000D01*
X125553000Y-112716700D02*
X122507800Y-112716700D01*
X127198600Y-108973100D02*
X127198600Y-109371600D01*
X127198600Y-109371600D02*
X126549000Y-110021200D01*
X126549000Y-110021200D02*
X126549000Y-111720700D01*
X119495000Y-112037500D02*
X120088400Y-112037500D01*
%TO.N,/PB11*%
X126830700Y-111837500D02*
X125639800Y-113028400D01*
X121914900Y-114450000D02*
X120907500Y-114450000D01*
X128780000Y-108940000D02*
X126830700Y-110889300D01*
X126830700Y-110889300D02*
X126830700Y-111837500D01*
X125639800Y-113028400D02*
X123336500Y-113028400D01*
X123336500Y-113028400D02*
X121914900Y-114450000D01*
%TO.N,/PB10*%
X125233800Y-113832900D02*
X122930500Y-113832900D01*
X127112400Y-111624400D02*
X127112400Y-111954300D01*
X122930500Y-113832900D02*
X121813400Y-114950000D01*
X128526800Y-110210000D02*
X127112400Y-111624400D01*
X127112400Y-111954300D02*
X125233800Y-113832900D01*
X121813400Y-114950000D02*
X120907500Y-114950000D01*
X131320000Y-108940000D02*
X130050000Y-110210000D01*
X130050000Y-110210000D02*
X128526800Y-110210000D01*
%TO.N,/PB1*%
X130149200Y-112650800D02*
X127212900Y-112650800D01*
X123418000Y-114396300D02*
X121864300Y-115950000D01*
X127212900Y-112650800D02*
X125467400Y-114396300D01*
X131320000Y-111480000D02*
X130149200Y-112650800D01*
X125467400Y-114396300D02*
X123418000Y-114396300D01*
X121864300Y-115950000D02*
X120907500Y-115950000D01*
%TO.N,/PB0*%
X119729400Y-115967400D02*
X119729400Y-115526900D01*
X120907500Y-116450000D02*
X120212000Y-116450000D01*
X120212000Y-116450000D02*
X119729400Y-115967400D01*
%TO.N,/PA7*%
X119763700Y-116950000D02*
X119692700Y-116879000D01*
X120907500Y-116950000D02*
X119763700Y-116950000D01*
%TO.N,/PA6*%
X122193700Y-117450000D02*
X122274100Y-117369600D01*
X120907500Y-117450000D02*
X122193700Y-117450000D01*
%TO.N,/PA5*%
D44*
X120262600Y-117950000D02*
X120907500Y-117950000D01*
X120076700Y-117764100D02*
X120262600Y-117950000D01*
D43*
X119928900Y-117616300D02*
X119719600Y-117616300D01*
X120076700Y-117764100D02*
X119928900Y-117616300D01*
%TO.N,/PA4*%
D44*
X120763000Y-118305500D02*
X120907500Y-118450000D01*
D43*
X118977200Y-117723900D02*
X119558800Y-118305500D01*
D44*
X119892800Y-118305500D02*
X120763000Y-118305500D01*
D43*
X119558800Y-118305500D02*
X119892800Y-118305500D01*
%TO.N,/PA3*%
X120907500Y-118950000D02*
X119476800Y-118950000D01*
X119476800Y-118950000D02*
X119113100Y-118586300D01*
%TO.N,/PA2*%
X119495000Y-120362500D02*
X120596000Y-120362500D01*
%TO.N,/PA1*%
X118995000Y-120362500D02*
X118995000Y-119244100D01*
X118995000Y-119244100D02*
X118165000Y-118414100D01*
%TO.N,/PA0*%
X121250000Y-120910000D02*
X120844100Y-121315900D01*
X118732000Y-121294500D02*
X118495000Y-121057600D01*
X118495000Y-121057600D02*
X118495000Y-120362500D01*
X118753300Y-121315900D02*
X118732000Y-121294500D01*
X120844100Y-121315900D02*
X118753300Y-121315900D01*
X118732000Y-121294500D02*
X118494500Y-121532000D01*
%TO.N,/HSE_IN*%
D39*
X113150000Y-123880000D02*
X112545000Y-123880000D01*
D43*
X115995000Y-120600000D02*
X115995000Y-120362500D01*
D39*
X115995000Y-120600000D02*
X115995000Y-121350000D01*
X113150000Y-124050000D02*
X114145000Y-124050000D01*
X113150000Y-121350000D02*
X113150000Y-124050000D01*
X115995000Y-121350000D02*
X113150000Y-121350000D01*
%TD*%
%TA.AperFunction,Conductor*%
%TO.N,GND*%
G36*
X101586847Y-100319407D02*
G01*
X101622811Y-100368907D01*
X101625753Y-100418816D01*
X101619500Y-100450244D01*
X101619500Y-102189746D01*
X101619501Y-102189758D01*
X101631132Y-102248227D01*
X101631133Y-102248231D01*
X101675448Y-102314552D01*
X101741769Y-102358867D01*
X101778851Y-102366243D01*
X101800241Y-102370498D01*
X101800246Y-102370498D01*
X101800252Y-102370500D01*
X101800253Y-102370500D01*
X103539747Y-102370500D01*
X103539748Y-102370500D01*
X103598231Y-102358867D01*
X103664552Y-102314552D01*
X103708867Y-102248231D01*
X103720500Y-102189748D01*
X103720500Y-102185789D01*
X103739407Y-102127598D01*
X103788907Y-102091634D01*
X103850093Y-102091634D01*
X103889501Y-102115783D01*
X104505888Y-102732170D01*
X104505890Y-102732171D01*
X104577614Y-102773582D01*
X104577623Y-102773585D01*
X104577625Y-102773587D01*
X104585812Y-102778314D01*
X104626146Y-102789121D01*
X104677459Y-102822443D01*
X104699386Y-102879564D01*
X104683551Y-102938665D01*
X104655524Y-102967062D01*
X104540349Y-103044019D01*
X104394020Y-103190348D01*
X104279058Y-103362402D01*
X104199869Y-103553581D01*
X104159500Y-103756532D01*
X104159500Y-103963467D01*
X104199869Y-104166418D01*
X104279058Y-104357597D01*
X104391073Y-104525240D01*
X104394023Y-104529655D01*
X104540345Y-104675977D01*
X104540348Y-104675979D01*
X104540353Y-104675984D01*
X104543996Y-104678974D01*
X104576982Y-104730507D01*
X104573378Y-104791586D01*
X104534561Y-104838881D01*
X104481189Y-104854500D01*
X104095124Y-104854500D01*
X104036933Y-104835593D01*
X104025120Y-104825504D01*
X103634908Y-104435292D01*
X103607131Y-104380775D01*
X103613448Y-104327403D01*
X103680130Y-104166420D01*
X103720500Y-103963465D01*
X103720500Y-103756535D01*
X103680130Y-103553580D01*
X103600941Y-103362402D01*
X103485977Y-103190345D01*
X103339655Y-103044023D01*
X103339651Y-103044020D01*
X103167597Y-102929058D01*
X102976418Y-102849869D01*
X102773467Y-102809500D01*
X102773465Y-102809500D01*
X102566535Y-102809500D01*
X102566532Y-102809500D01*
X102363581Y-102849869D01*
X102172402Y-102929058D01*
X102000348Y-103044020D01*
X101854020Y-103190348D01*
X101739058Y-103362402D01*
X101659869Y-103553581D01*
X101619500Y-103756532D01*
X101619500Y-103963467D01*
X101659869Y-104166418D01*
X101739058Y-104357597D01*
X101851073Y-104525240D01*
X101854023Y-104529655D01*
X102000345Y-104675977D01*
X102172402Y-104790941D01*
X102363580Y-104870130D01*
X102566535Y-104910500D01*
X102566536Y-104910500D01*
X102773464Y-104910500D01*
X102773465Y-104910500D01*
X102976420Y-104870130D01*
X103137403Y-104803447D01*
X103198399Y-104798647D01*
X103245292Y-104824908D01*
X103783941Y-105363557D01*
X103808164Y-105373590D01*
X103808166Y-105373592D01*
X103808167Y-105373592D01*
X103829978Y-105382626D01*
X103885200Y-105405500D01*
X104481189Y-105405500D01*
X104539380Y-105424407D01*
X104575344Y-105473907D01*
X104575344Y-105535093D01*
X104543996Y-105581026D01*
X104540353Y-105584015D01*
X104394020Y-105730348D01*
X104279058Y-105902402D01*
X104199869Y-106093581D01*
X104159500Y-106296532D01*
X104159500Y-106503467D01*
X104176157Y-106587207D01*
X104198614Y-106700108D01*
X104199870Y-106706419D01*
X104199870Y-106706421D01*
X104266551Y-106867403D01*
X104271352Y-106928399D01*
X104245091Y-106975291D01*
X103974042Y-107246342D01*
X103896546Y-107323838D01*
X103896544Y-107323840D01*
X103896543Y-107323842D01*
X103875888Y-107373708D01*
X103854600Y-107425100D01*
X103854600Y-108557082D01*
X103835693Y-108615273D01*
X103786193Y-108651237D01*
X103725007Y-108651237D01*
X103675507Y-108615273D01*
X103664136Y-108594968D01*
X103625011Y-108500513D01*
X103600941Y-108442402D01*
X103485977Y-108270345D01*
X103339655Y-108124023D01*
X103339651Y-108124020D01*
X103167597Y-108009058D01*
X102976418Y-107929869D01*
X102773467Y-107889500D01*
X102773465Y-107889500D01*
X102566535Y-107889500D01*
X102566532Y-107889500D01*
X102363581Y-107929869D01*
X102172402Y-108009058D01*
X102000348Y-108124020D01*
X101854020Y-108270348D01*
X101739058Y-108442402D01*
X101659869Y-108633581D01*
X101619500Y-108836532D01*
X101619500Y-109043467D01*
X101659869Y-109246418D01*
X101739058Y-109437597D01*
X101849902Y-109603488D01*
X101854023Y-109609655D01*
X102000345Y-109755977D01*
X102172402Y-109870941D01*
X102363580Y-109950130D01*
X102566535Y-109990500D01*
X102566536Y-109990500D01*
X102773464Y-109990500D01*
X102773465Y-109990500D01*
X102976420Y-109950130D01*
X103167598Y-109870941D01*
X103339655Y-109755977D01*
X103485977Y-109609655D01*
X103600941Y-109437598D01*
X103664136Y-109285031D01*
X103703872Y-109238506D01*
X103763367Y-109224222D01*
X103819895Y-109247637D01*
X103851865Y-109299806D01*
X103854600Y-109322917D01*
X103854600Y-109441700D01*
X103875394Y-109491900D01*
X103890206Y-109527659D01*
X103890206Y-109527660D01*
X103896541Y-109542955D01*
X103896542Y-109542956D01*
X103896543Y-109542958D01*
X104742155Y-110388571D01*
X104769932Y-110443087D01*
X104760361Y-110503519D01*
X104717096Y-110546784D01*
X104713899Y-110548257D01*
X104712406Y-110549056D01*
X104540348Y-110664020D01*
X104394020Y-110810348D01*
X104279058Y-110982402D01*
X104199869Y-111173581D01*
X104159500Y-111376532D01*
X104159500Y-111583467D01*
X104199869Y-111786418D01*
X104279058Y-111977597D01*
X104388697Y-112141684D01*
X104394023Y-112149655D01*
X104405666Y-112161298D01*
X104433442Y-112215813D01*
X104423871Y-112276245D01*
X104380606Y-112319510D01*
X104335661Y-112330300D01*
X103950924Y-112330300D01*
X103892733Y-112311393D01*
X103880920Y-112301304D01*
X103634908Y-112055292D01*
X103607131Y-112000775D01*
X103613448Y-111947403D01*
X103680130Y-111786420D01*
X103720500Y-111583465D01*
X103720500Y-111376535D01*
X103680130Y-111173580D01*
X103600941Y-110982402D01*
X103485977Y-110810345D01*
X103339655Y-110664023D01*
X103339651Y-110664020D01*
X103167597Y-110549058D01*
X102976418Y-110469869D01*
X102773467Y-110429500D01*
X102773465Y-110429500D01*
X102566535Y-110429500D01*
X102566532Y-110429500D01*
X102363581Y-110469869D01*
X102172402Y-110549058D01*
X102000348Y-110664020D01*
X101854020Y-110810348D01*
X101739058Y-110982402D01*
X101659869Y-111173581D01*
X101619500Y-111376532D01*
X101619500Y-111583467D01*
X101659869Y-111786418D01*
X101739058Y-111977597D01*
X101848697Y-112141684D01*
X101854023Y-112149655D01*
X102000345Y-112295977D01*
X102172402Y-112410941D01*
X102363580Y-112490130D01*
X102566535Y-112530500D01*
X102566536Y-112530500D01*
X102773464Y-112530500D01*
X102773465Y-112530500D01*
X102976420Y-112490130D01*
X103137403Y-112423447D01*
X103198399Y-112418647D01*
X103245291Y-112444908D01*
X103639743Y-112839359D01*
X103740998Y-112881300D01*
X103741000Y-112881300D01*
X103850600Y-112881300D01*
X104716270Y-112881300D01*
X104774461Y-112900207D01*
X104810425Y-112949707D01*
X104810425Y-113010893D01*
X104774461Y-113060393D01*
X104754155Y-113071764D01*
X104712404Y-113089057D01*
X104540348Y-113204020D01*
X104394020Y-113350348D01*
X104279058Y-113522402D01*
X104199869Y-113713581D01*
X104159500Y-113916532D01*
X104159500Y-114123467D01*
X104199869Y-114326418D01*
X104279058Y-114517597D01*
X104296573Y-114543810D01*
X104364186Y-114645001D01*
X104372003Y-114656699D01*
X104388611Y-114715587D01*
X104367433Y-114772990D01*
X104316559Y-114806983D01*
X104289687Y-114810700D01*
X103891324Y-114810700D01*
X103833133Y-114791793D01*
X103821320Y-114781704D01*
X103634908Y-114595292D01*
X103607131Y-114540775D01*
X103613447Y-114487404D01*
X103680130Y-114326420D01*
X103720500Y-114123465D01*
X103720500Y-113916535D01*
X103680130Y-113713580D01*
X103600941Y-113522402D01*
X103485977Y-113350345D01*
X103339655Y-113204023D01*
X103339651Y-113204020D01*
X103167597Y-113089058D01*
X102976418Y-113009869D01*
X102773467Y-112969500D01*
X102773465Y-112969500D01*
X102566535Y-112969500D01*
X102566532Y-112969500D01*
X102363581Y-113009869D01*
X102172402Y-113089058D01*
X102000348Y-113204020D01*
X101854020Y-113350348D01*
X101739058Y-113522402D01*
X101659869Y-113713581D01*
X101619500Y-113916532D01*
X101619500Y-114123467D01*
X101659869Y-114326418D01*
X101739058Y-114517597D01*
X101845777Y-114677314D01*
X101854023Y-114689655D01*
X102000345Y-114835977D01*
X102172402Y-114950941D01*
X102363580Y-115030130D01*
X102566535Y-115070500D01*
X102566536Y-115070500D01*
X102773464Y-115070500D01*
X102773465Y-115070500D01*
X102976420Y-115030130D01*
X103137403Y-114963447D01*
X103198399Y-114958647D01*
X103245292Y-114984908D01*
X103480380Y-115219996D01*
X103508157Y-115274513D01*
X103498586Y-115334945D01*
X103480379Y-115360004D01*
X103245291Y-115595091D01*
X103190775Y-115622868D01*
X103137403Y-115616551D01*
X102976420Y-115549870D01*
X102773467Y-115509500D01*
X102773465Y-115509500D01*
X102566535Y-115509500D01*
X102566532Y-115509500D01*
X102363581Y-115549869D01*
X102172402Y-115629058D01*
X102000348Y-115744020D01*
X101854020Y-115890348D01*
X101739058Y-116062402D01*
X101659869Y-116253581D01*
X101619500Y-116456532D01*
X101619500Y-116663467D01*
X101659869Y-116866418D01*
X101739058Y-117057597D01*
X101849912Y-117223503D01*
X101854023Y-117229655D01*
X102000345Y-117375977D01*
X102172402Y-117490941D01*
X102363580Y-117570130D01*
X102566535Y-117610500D01*
X102566536Y-117610500D01*
X102773464Y-117610500D01*
X102773465Y-117610500D01*
X102976420Y-117570130D01*
X103167598Y-117490941D01*
X103339655Y-117375977D01*
X103485977Y-117229655D01*
X103600941Y-117057598D01*
X103680130Y-116866420D01*
X103720500Y-116663465D01*
X103720500Y-116456535D01*
X103680130Y-116253580D01*
X103613446Y-116092593D01*
X103608646Y-116031598D01*
X103634906Y-115984707D01*
X103853719Y-115765896D01*
X103908235Y-115738119D01*
X103923722Y-115736900D01*
X104311335Y-115736900D01*
X104369526Y-115755807D01*
X104405490Y-115805307D01*
X104405490Y-115866493D01*
X104393651Y-115890901D01*
X104279058Y-116062402D01*
X104199869Y-116253581D01*
X104159500Y-116456532D01*
X104159500Y-116663467D01*
X104199869Y-116866418D01*
X104279058Y-117057597D01*
X104389912Y-117223503D01*
X104394023Y-117229655D01*
X104540345Y-117375977D01*
X104712402Y-117490941D01*
X104903580Y-117570130D01*
X105106535Y-117610500D01*
X105106536Y-117610500D01*
X105313464Y-117610500D01*
X105313465Y-117610500D01*
X105516420Y-117570130D01*
X105677403Y-117503447D01*
X105738399Y-117498647D01*
X105785292Y-117524908D01*
X106883004Y-118622619D01*
X106910781Y-118677136D01*
X106912000Y-118692623D01*
X106912000Y-119705600D01*
X106935776Y-119763000D01*
X106947001Y-119790099D01*
X106947000Y-119790099D01*
X106953941Y-119806855D01*
X106953942Y-119806856D01*
X106953943Y-119806858D01*
X108039243Y-120892158D01*
X108039242Y-120892158D01*
X108083304Y-120936219D01*
X108116742Y-120969657D01*
X108218000Y-121011600D01*
X108218001Y-121011600D01*
X109156699Y-121011600D01*
X109156700Y-121011600D01*
X109257958Y-120969657D01*
X109335457Y-120892158D01*
X109335456Y-120892158D01*
X109475119Y-120752496D01*
X109529636Y-120724719D01*
X109545122Y-120723500D01*
X109809314Y-120723500D01*
X109809316Y-120723500D01*
X109858173Y-120717068D01*
X109965404Y-120667065D01*
X110049065Y-120583404D01*
X110099068Y-120476173D01*
X110105500Y-120427316D01*
X110105500Y-119978684D01*
X110099068Y-119929827D01*
X110099028Y-119929742D01*
X110049066Y-119822598D01*
X110049065Y-119822597D01*
X110049065Y-119822596D01*
X109965404Y-119738935D01*
X109965402Y-119738934D01*
X109965401Y-119738933D01*
X109858175Y-119688932D01*
X109850902Y-119686813D01*
X109851379Y-119685175D01*
X109804438Y-119662779D01*
X109775249Y-119609005D01*
X109783243Y-119548344D01*
X109815817Y-119509875D01*
X109818395Y-119508068D01*
X109818404Y-119508065D01*
X109902065Y-119424404D01*
X109952068Y-119317173D01*
X109958500Y-119268316D01*
X109958500Y-118819684D01*
X109952068Y-118770827D01*
X109950519Y-118767506D01*
X109902066Y-118663598D01*
X109902065Y-118663597D01*
X109902065Y-118663596D01*
X109818404Y-118579935D01*
X109818402Y-118579934D01*
X109818401Y-118579933D01*
X109711175Y-118529932D01*
X109664045Y-118523727D01*
X109608820Y-118497385D01*
X109579626Y-118443613D01*
X109587614Y-118382952D01*
X109629732Y-118338570D01*
X109635115Y-118335857D01*
X109660404Y-118324065D01*
X109744065Y-118240404D01*
X109794068Y-118133173D01*
X109800500Y-118084316D01*
X109800500Y-117735684D01*
X109794068Y-117686827D01*
X109793395Y-117685384D01*
X109744066Y-117579598D01*
X109744065Y-117579597D01*
X109744065Y-117579596D01*
X109660404Y-117495935D01*
X109660402Y-117495934D01*
X109660401Y-117495933D01*
X109553175Y-117445932D01*
X109508611Y-117440065D01*
X109453387Y-117413723D01*
X109451559Y-117411943D01*
X109367858Y-117328243D01*
X109367857Y-117328242D01*
X109367855Y-117328241D01*
X109340668Y-117316980D01*
X109308550Y-117295520D01*
X109161108Y-117148079D01*
X109066760Y-117108999D01*
X109057200Y-117107098D01*
X109057955Y-117103299D01*
X109017309Y-117090093D01*
X108981345Y-117040593D01*
X108976500Y-117010000D01*
X108976500Y-116770200D01*
X108995407Y-116712009D01*
X109044907Y-116676045D01*
X109075500Y-116671200D01*
X110362263Y-116671200D01*
X110420454Y-116690107D01*
X110432267Y-116700196D01*
X110458404Y-116726333D01*
X110486181Y-116780850D01*
X110487400Y-116796337D01*
X110487400Y-116860300D01*
X110529343Y-116961558D01*
X110606842Y-117039057D01*
X110708100Y-117081000D01*
X110708101Y-117081000D01*
X110728479Y-117081000D01*
X110786670Y-117099907D01*
X110822634Y-117149407D01*
X110822634Y-117210593D01*
X110786670Y-117260093D01*
X110754104Y-117275625D01*
X110748765Y-117277056D01*
X110745209Y-117278009D01*
X110631090Y-117343896D01*
X110537896Y-117437090D01*
X110472009Y-117551209D01*
X110454394Y-117616951D01*
X110437900Y-117678508D01*
X110437900Y-117810292D01*
X110454314Y-117871549D01*
X110472009Y-117937590D01*
X110537896Y-118051709D01*
X110537898Y-118051711D01*
X110537900Y-118051714D01*
X110631086Y-118144900D01*
X110631088Y-118144901D01*
X110631090Y-118144903D01*
X110745210Y-118210790D01*
X110745208Y-118210790D01*
X110745212Y-118210791D01*
X110745214Y-118210792D01*
X110872508Y-118244900D01*
X110872510Y-118244900D01*
X111004291Y-118244900D01*
X111004292Y-118244900D01*
X111042879Y-118234560D01*
X111064105Y-118228873D01*
X111089728Y-118225500D01*
X111694153Y-118225500D01*
X111749154Y-118242184D01*
X111812505Y-118284515D01*
X111892867Y-118300500D01*
X113272132Y-118300499D01*
X113352495Y-118284515D01*
X113443624Y-118223624D01*
X113504515Y-118132495D01*
X113520500Y-118052133D01*
X113520499Y-118035146D01*
X113539404Y-117976957D01*
X113588902Y-117940991D01*
X113645122Y-117939518D01*
X113686108Y-117950500D01*
X113686109Y-117950500D01*
X113817890Y-117950500D01*
X113817892Y-117950500D01*
X113945186Y-117916392D01*
X113945188Y-117916390D01*
X113945190Y-117916390D01*
X114059309Y-117850503D01*
X114059309Y-117850502D01*
X114059314Y-117850500D01*
X114152500Y-117757314D01*
X114218392Y-117643186D01*
X114220301Y-117636058D01*
X114253621Y-117584745D01*
X114310742Y-117562815D01*
X114319549Y-117563450D01*
X114319549Y-117563400D01*
X116429799Y-117563400D01*
X116429800Y-117563400D01*
X116531058Y-117521457D01*
X116608557Y-117443958D01*
X116608556Y-117443958D01*
X117343657Y-116708859D01*
X117357249Y-116676045D01*
X117360996Y-116666999D01*
X117360996Y-116666997D01*
X117385600Y-116607600D01*
X117385600Y-115694823D01*
X117404507Y-115636632D01*
X117414596Y-115624819D01*
X118139919Y-114899496D01*
X118194436Y-114871719D01*
X118209923Y-114870500D01*
X118345690Y-114870500D01*
X118345692Y-114870500D01*
X118472986Y-114836392D01*
X118472988Y-114836390D01*
X118472990Y-114836390D01*
X118587109Y-114770503D01*
X118587109Y-114770502D01*
X118587114Y-114770500D01*
X118680300Y-114677314D01*
X118687011Y-114665690D01*
X118746190Y-114563190D01*
X118746190Y-114563188D01*
X118746192Y-114563186D01*
X118780300Y-114435892D01*
X118780300Y-114304108D01*
X118746192Y-114176814D01*
X118746190Y-114176811D01*
X118746190Y-114176809D01*
X118680303Y-114062690D01*
X118680301Y-114062688D01*
X118680300Y-114062686D01*
X118587114Y-113969500D01*
X118587111Y-113969498D01*
X118587109Y-113969496D01*
X118472989Y-113903609D01*
X118472991Y-113903609D01*
X118459396Y-113899966D01*
X118442816Y-113895524D01*
X118391504Y-113862201D01*
X118369577Y-113805079D01*
X118385413Y-113745979D01*
X118432963Y-113707474D01*
X118442806Y-113704274D01*
X118490886Y-113691392D01*
X118490888Y-113691390D01*
X118490890Y-113691390D01*
X118605009Y-113625503D01*
X118605009Y-113625502D01*
X118605014Y-113625500D01*
X118698200Y-113532314D01*
X118700458Y-113528404D01*
X118723211Y-113488993D01*
X118725702Y-113484678D01*
X118771169Y-113443738D01*
X118832019Y-113437341D01*
X118849319Y-113442712D01*
X118890802Y-113459895D01*
X118946099Y-113482800D01*
X118946100Y-113482800D01*
X119055700Y-113482800D01*
X119160579Y-113482800D01*
X119218770Y-113501707D01*
X119230583Y-113511796D01*
X119233398Y-113514611D01*
X119233400Y-113514614D01*
X119326586Y-113607800D01*
X119326588Y-113607801D01*
X119326590Y-113607803D01*
X119440710Y-113673690D01*
X119440708Y-113673690D01*
X119440712Y-113673691D01*
X119440714Y-113673692D01*
X119568008Y-113707800D01*
X119568010Y-113707800D01*
X119699790Y-113707800D01*
X119699792Y-113707800D01*
X119827086Y-113673692D01*
X119880953Y-113642591D01*
X119940799Y-113629870D01*
X119996695Y-113654756D01*
X120012767Y-113673326D01*
X120046373Y-113723620D01*
X120046376Y-113723624D01*
X120137505Y-113784515D01*
X120217867Y-113800500D01*
X121597132Y-113800499D01*
X121677495Y-113784515D01*
X121768624Y-113723624D01*
X121829515Y-113632495D01*
X121845500Y-113552133D01*
X121845499Y-113347868D01*
X121840514Y-113322807D01*
X121829515Y-113267505D01*
X121829514Y-113267503D01*
X121768626Y-113176379D01*
X121768624Y-113176376D01*
X121768620Y-113176373D01*
X121677497Y-113115486D01*
X121677496Y-113115485D01*
X121677495Y-113115485D01*
X121597133Y-113099500D01*
X121549500Y-113099500D01*
X121491309Y-113080593D01*
X121455345Y-113031093D01*
X121450500Y-113000500D01*
X121450500Y-112962047D01*
X121469407Y-112903856D01*
X121479490Y-112892049D01*
X121553224Y-112818316D01*
X121603972Y-112709487D01*
X121610500Y-112659901D01*
X121610499Y-112300100D01*
X121603972Y-112250513D01*
X121603972Y-112250511D01*
X121553225Y-112141686D01*
X121553224Y-112141685D01*
X121553224Y-112141684D01*
X121468316Y-112056776D01*
X121468314Y-112056775D01*
X121468313Y-112056774D01*
X121359489Y-112006029D01*
X121359488Y-112006028D01*
X121342639Y-112003810D01*
X121309901Y-111999500D01*
X121309899Y-111999500D01*
X120886860Y-111999501D01*
X120886860Y-111998211D01*
X120832255Y-111984332D01*
X120793140Y-111937283D01*
X120786100Y-111900616D01*
X120786100Y-111774409D01*
X120786100Y-111774408D01*
X120751992Y-111647114D01*
X120686940Y-111534441D01*
X120674219Y-111474595D01*
X120699105Y-111418700D01*
X120702637Y-111414976D01*
X120732700Y-111384914D01*
X120752059Y-111351384D01*
X120798590Y-111270790D01*
X120798590Y-111270788D01*
X120798592Y-111270786D01*
X120832700Y-111143492D01*
X120832700Y-111011708D01*
X120798592Y-110884414D01*
X120798590Y-110884411D01*
X120798590Y-110884409D01*
X120732703Y-110770290D01*
X120732701Y-110770288D01*
X120732700Y-110770286D01*
X120639514Y-110677100D01*
X120639511Y-110677098D01*
X120639509Y-110677096D01*
X120525389Y-110611209D01*
X120525391Y-110611209D01*
X120475999Y-110597975D01*
X120398092Y-110577100D01*
X120266308Y-110577100D01*
X120188400Y-110597975D01*
X120139009Y-110611209D01*
X120024890Y-110677096D01*
X120024889Y-110677097D01*
X120024886Y-110677099D01*
X120024886Y-110677100D01*
X119931700Y-110770286D01*
X119931698Y-110770288D01*
X119928883Y-110773104D01*
X119874366Y-110800881D01*
X119858879Y-110802100D01*
X119251800Y-110802100D01*
X119180372Y-110831687D01*
X119180371Y-110831687D01*
X119150542Y-110844042D01*
X118916869Y-111077715D01*
X118866179Y-111104809D01*
X118812505Y-111115484D01*
X118812501Y-111115486D01*
X118799999Y-111123840D01*
X118741111Y-111140447D01*
X118690001Y-111123840D01*
X118677496Y-111115485D01*
X118677495Y-111115484D01*
X118597134Y-111099500D01*
X118392870Y-111099500D01*
X118392862Y-111099501D01*
X118312505Y-111115484D01*
X118312501Y-111115486D01*
X118299999Y-111123840D01*
X118241111Y-111140447D01*
X118190001Y-111123840D01*
X118177496Y-111115485D01*
X118177495Y-111115484D01*
X118097134Y-111099500D01*
X117892870Y-111099500D01*
X117892862Y-111099501D01*
X117812505Y-111115484D01*
X117812501Y-111115486D01*
X117799999Y-111123840D01*
X117741111Y-111140447D01*
X117690001Y-111123840D01*
X117677496Y-111115485D01*
X117677495Y-111115484D01*
X117597134Y-111099500D01*
X117392870Y-111099500D01*
X117392862Y-111099501D01*
X117312505Y-111115484D01*
X117312501Y-111115486D01*
X117299999Y-111123840D01*
X117241111Y-111140447D01*
X117190001Y-111123840D01*
X117177496Y-111115485D01*
X117177495Y-111115484D01*
X117097134Y-111099500D01*
X116892870Y-111099500D01*
X116892860Y-111099501D01*
X116816195Y-111114750D01*
X116755434Y-111107557D01*
X116710505Y-111066024D01*
X116698569Y-111006014D01*
X116724187Y-110950449D01*
X116726879Y-110947649D01*
X116731407Y-110943120D01*
X116731409Y-110943120D01*
X117103361Y-110571166D01*
X117133371Y-110550608D01*
X117195422Y-110523211D01*
X117273211Y-110445422D01*
X117279583Y-110430987D01*
X117291039Y-110414270D01*
X117290139Y-110413669D01*
X117295557Y-110405560D01*
X117295557Y-110405559D01*
X117295558Y-110405559D01*
X117337500Y-110304300D01*
X117337500Y-110194700D01*
X117328033Y-110171845D01*
X117320499Y-110133964D01*
X117320499Y-110020867D01*
X117339406Y-109962676D01*
X117388906Y-109926712D01*
X117392651Y-109925577D01*
X117398512Y-109923925D01*
X117401323Y-109923133D01*
X117402500Y-109922810D01*
X117444288Y-109911614D01*
X117444289Y-109911613D01*
X117445156Y-109911381D01*
X117454326Y-109908201D01*
X117714035Y-109835040D01*
X117775171Y-109837460D01*
X117782717Y-109840607D01*
X117798504Y-109847968D01*
X117798513Y-109847972D01*
X117848099Y-109854500D01*
X118267900Y-109854499D01*
X118317487Y-109847972D01*
X118317488Y-109847972D01*
X118376137Y-109820622D01*
X118426316Y-109797224D01*
X118511224Y-109712316D01*
X118561972Y-109603487D01*
X118568500Y-109553901D01*
X118568499Y-109194100D01*
X118565787Y-109173500D01*
X118561972Y-109144513D01*
X118561972Y-109144511D01*
X118511225Y-109035686D01*
X118511224Y-109035685D01*
X118511224Y-109035684D01*
X118437494Y-108961954D01*
X118409719Y-108907440D01*
X118408500Y-108891953D01*
X118408500Y-108790437D01*
X118427407Y-108732246D01*
X118437557Y-108720371D01*
X118583563Y-108574641D01*
X118638105Y-108546916D01*
X118698528Y-108556545D01*
X118741752Y-108599850D01*
X118752500Y-108644712D01*
X118752500Y-108909895D01*
X118752501Y-108909907D01*
X118759027Y-108959486D01*
X118759027Y-108959488D01*
X118809774Y-109068313D01*
X118809775Y-109068314D01*
X118809776Y-109068316D01*
X118894684Y-109153224D01*
X119003513Y-109203972D01*
X119053099Y-109210500D01*
X119472900Y-109210499D01*
X119522487Y-109203972D01*
X119522488Y-109203972D01*
X119587834Y-109173500D01*
X119631316Y-109153224D01*
X119650498Y-109134041D01*
X119705013Y-109106266D01*
X119765445Y-109115837D01*
X119808710Y-109159102D01*
X119819500Y-109204047D01*
X119819500Y-109450180D01*
X119819500Y-109450182D01*
X119819501Y-109450184D01*
X119822354Y-109474786D01*
X119866789Y-109575422D01*
X119944578Y-109653211D01*
X120045214Y-109697646D01*
X120069815Y-109700500D01*
X120345184Y-109700499D01*
X120369786Y-109697646D01*
X120470422Y-109653211D01*
X120548211Y-109575422D01*
X120592646Y-109474786D01*
X120595500Y-109450185D01*
X120595499Y-109149816D01*
X120592646Y-109125214D01*
X120548211Y-109024578D01*
X120548209Y-109024576D01*
X120544505Y-109016186D01*
X120547799Y-109014731D01*
X120535286Y-108972276D01*
X120547371Y-108935079D01*
X120544505Y-108933814D01*
X120548209Y-108925423D01*
X120548211Y-108925422D01*
X120592646Y-108824786D01*
X120595500Y-108800185D01*
X120595499Y-108563688D01*
X120614406Y-108505499D01*
X120624496Y-108493685D01*
X121143087Y-107975096D01*
X121197603Y-107947319D01*
X121213090Y-107946100D01*
X121261579Y-107946100D01*
X121319770Y-107965007D01*
X121331576Y-107975090D01*
X121352586Y-107996100D01*
X121352588Y-107996101D01*
X121352590Y-107996103D01*
X121466710Y-108061990D01*
X121466708Y-108061990D01*
X121466712Y-108061991D01*
X121466714Y-108061992D01*
X121594008Y-108096100D01*
X121594010Y-108096100D01*
X121704785Y-108096100D01*
X121762976Y-108115007D01*
X121798940Y-108164507D01*
X121798940Y-108225693D01*
X121762976Y-108275193D01*
X121744777Y-108285662D01*
X121719578Y-108296789D01*
X121641789Y-108374578D01*
X121597353Y-108475216D01*
X121594500Y-108499808D01*
X121594500Y-108800180D01*
X121594500Y-108800182D01*
X121594501Y-108800184D01*
X121597354Y-108824786D01*
X121641789Y-108925422D01*
X121641790Y-108925423D01*
X121645495Y-108933814D01*
X121642205Y-108935266D01*
X121654711Y-108977780D01*
X121642641Y-109014925D01*
X121645495Y-109016186D01*
X121641789Y-109024577D01*
X121641789Y-109024578D01*
X121621213Y-109071179D01*
X121597353Y-109125216D01*
X121594500Y-109149808D01*
X121594500Y-109450180D01*
X121594500Y-109450182D01*
X121594501Y-109450184D01*
X121597354Y-109474786D01*
X121641789Y-109575422D01*
X121641790Y-109575423D01*
X121645495Y-109583814D01*
X121642205Y-109585266D01*
X121654711Y-109627780D01*
X121642641Y-109664925D01*
X121645495Y-109666186D01*
X121641789Y-109674577D01*
X121641789Y-109674578D01*
X121605848Y-109755977D01*
X121597353Y-109775216D01*
X121594500Y-109799808D01*
X121594500Y-110100180D01*
X121594500Y-110100182D01*
X121594501Y-110100184D01*
X121597354Y-110124786D01*
X121641789Y-110225422D01*
X121719578Y-110303211D01*
X121820214Y-110347646D01*
X121844815Y-110350500D01*
X122120184Y-110350499D01*
X122144786Y-110347646D01*
X122232459Y-110308934D01*
X122272445Y-110300500D01*
X122376072Y-110300500D01*
X122434263Y-110319407D01*
X122470227Y-110368907D01*
X122470227Y-110430093D01*
X122465798Y-110441333D01*
X122461134Y-110451337D01*
X122425933Y-110526825D01*
X122425932Y-110526827D01*
X122419500Y-110575684D01*
X122419500Y-111024316D01*
X122422758Y-111049065D01*
X122425932Y-111073174D01*
X122425932Y-111073175D01*
X122475933Y-111180401D01*
X122475934Y-111180402D01*
X122475935Y-111180404D01*
X122559596Y-111264065D01*
X122559597Y-111264065D01*
X122559598Y-111264066D01*
X122672666Y-111316791D01*
X122717414Y-111358519D01*
X122729089Y-111418580D01*
X122716564Y-111456015D01*
X122681808Y-111516212D01*
X122674179Y-111544686D01*
X122647700Y-111643508D01*
X122647700Y-111775292D01*
X122658222Y-111814561D01*
X122681809Y-111902590D01*
X122747696Y-112016709D01*
X122747698Y-112016711D01*
X122747700Y-112016714D01*
X122840886Y-112109900D01*
X122944810Y-112169900D01*
X122944831Y-112169914D01*
X122955010Y-112175790D01*
X122955008Y-112175790D01*
X122955012Y-112175791D01*
X122955014Y-112175792D01*
X123082308Y-112209900D01*
X123082310Y-112209900D01*
X123214090Y-112209900D01*
X123214092Y-112209900D01*
X123341386Y-112175792D01*
X123341388Y-112175790D01*
X123341390Y-112175790D01*
X123455509Y-112109903D01*
X123455509Y-112109902D01*
X123455514Y-112109900D01*
X123548700Y-112016714D01*
X123556150Y-112003810D01*
X123614590Y-111902590D01*
X123614590Y-111902588D01*
X123614592Y-111902586D01*
X123648700Y-111775292D01*
X123648700Y-111643508D01*
X123614592Y-111516214D01*
X123614590Y-111516211D01*
X123614590Y-111516209D01*
X123548703Y-111402090D01*
X123548701Y-111402088D01*
X123548700Y-111402086D01*
X123455514Y-111308900D01*
X123455511Y-111308898D01*
X123452696Y-111306083D01*
X123424919Y-111251566D01*
X123423700Y-111236079D01*
X123423700Y-111003400D01*
X123415002Y-110982402D01*
X123381757Y-110902142D01*
X123381755Y-110902140D01*
X123377182Y-110895295D01*
X123360500Y-110840297D01*
X123360500Y-110575685D01*
X123360500Y-110575684D01*
X123354068Y-110526827D01*
X123352381Y-110523210D01*
X123304066Y-110419598D01*
X123304065Y-110419597D01*
X123304065Y-110419596D01*
X123283005Y-110398536D01*
X123255230Y-110344022D01*
X123264801Y-110283590D01*
X123283005Y-110258534D01*
X123343224Y-110198316D01*
X123393972Y-110089487D01*
X123400500Y-110039901D01*
X123400499Y-109620100D01*
X123393972Y-109570513D01*
X123393972Y-109570511D01*
X123343225Y-109461685D01*
X123342944Y-109461284D01*
X123342764Y-109460698D01*
X123339564Y-109453834D01*
X123340528Y-109453384D01*
X123325055Y-109402772D01*
X123344975Y-109344920D01*
X123395096Y-109309826D01*
X123424040Y-109305500D01*
X123634770Y-109305500D01*
X123634772Y-109305499D01*
X123664774Y-109302686D01*
X123791179Y-109258455D01*
X123898930Y-109178930D01*
X123978455Y-109071179D01*
X124022686Y-108944774D01*
X124025499Y-108914772D01*
X124025500Y-108914770D01*
X124025500Y-107895230D01*
X124025499Y-107895226D01*
X124024080Y-107880093D01*
X124022686Y-107865226D01*
X123978455Y-107738821D01*
X123898930Y-107631070D01*
X123791179Y-107551545D01*
X123791176Y-107551544D01*
X123791175Y-107551543D01*
X123664777Y-107507315D01*
X123664776Y-107507314D01*
X123664774Y-107507314D01*
X123664771Y-107507313D01*
X123658889Y-107506029D01*
X123659318Y-107504061D01*
X123611252Y-107483290D01*
X123606681Y-107479000D01*
X123552212Y-107424531D01*
X123552212Y-107424530D01*
X123552211Y-107424530D01*
X123411059Y-107283377D01*
X123383282Y-107228861D01*
X123391340Y-107171533D01*
X123394499Y-107164760D01*
X123400500Y-107119179D01*
X123400499Y-106670822D01*
X123394499Y-106625240D01*
X123394499Y-106625238D01*
X123347851Y-106525203D01*
X123347850Y-106525202D01*
X123347850Y-106525201D01*
X123269799Y-106447150D01*
X123169760Y-106400501D01*
X123124179Y-106394500D01*
X123124177Y-106394500D01*
X122825826Y-106394500D01*
X122825814Y-106394501D01*
X122780240Y-106400500D01*
X122780238Y-106400500D01*
X122680203Y-106447148D01*
X122602150Y-106525201D01*
X122555501Y-106625240D01*
X122555501Y-106625241D01*
X122549500Y-106670822D01*
X122549500Y-107119173D01*
X122549501Y-107119185D01*
X122555500Y-107164758D01*
X122558661Y-107171537D01*
X122566116Y-107232267D01*
X122538939Y-107283377D01*
X122309589Y-107512728D01*
X122255072Y-107540506D01*
X122194640Y-107530935D01*
X122151375Y-107487670D01*
X122143960Y-107468354D01*
X122126292Y-107402414D01*
X122126290Y-107402411D01*
X122126290Y-107402409D01*
X122060403Y-107288290D01*
X122060401Y-107288288D01*
X122060400Y-107288286D01*
X121967214Y-107195100D01*
X121967211Y-107195098D01*
X121967209Y-107195096D01*
X121853089Y-107129209D01*
X121853088Y-107129208D01*
X121833439Y-107123943D01*
X121782126Y-107090617D01*
X121760201Y-107033495D01*
X121776038Y-106974395D01*
X121789062Y-106958313D01*
X121887028Y-106860347D01*
X121966918Y-106740782D01*
X122021945Y-106607934D01*
X122049999Y-106466899D01*
X122050000Y-106466897D01*
X122050000Y-105795001D01*
X122049999Y-105795000D01*
X121620000Y-105795000D01*
X121620000Y-105495000D01*
X122049999Y-105495000D01*
X122050000Y-105494999D01*
X122050000Y-105284623D01*
X122068907Y-105226432D01*
X122118407Y-105190468D01*
X122179593Y-105190468D01*
X122219002Y-105214618D01*
X122545641Y-105541257D01*
X122568920Y-105550899D01*
X122568922Y-105550901D01*
X122568923Y-105550901D01*
X122585437Y-105557741D01*
X122646900Y-105583200D01*
X123873579Y-105583200D01*
X123931770Y-105602107D01*
X123943583Y-105612196D01*
X123946398Y-105615011D01*
X123946400Y-105615014D01*
X124039586Y-105708200D01*
X124039588Y-105708201D01*
X124039590Y-105708203D01*
X124153710Y-105774090D01*
X124153708Y-105774090D01*
X124153712Y-105774091D01*
X124153714Y-105774092D01*
X124281008Y-105808200D01*
X124281010Y-105808200D01*
X124412790Y-105808200D01*
X124412792Y-105808200D01*
X124540086Y-105774092D01*
X124540088Y-105774090D01*
X124540090Y-105774090D01*
X124654209Y-105708203D01*
X124654209Y-105708202D01*
X124654214Y-105708200D01*
X124747400Y-105615014D01*
X124796484Y-105529998D01*
X124841951Y-105489058D01*
X124882214Y-105480499D01*
X125179178Y-105480499D01*
X125224760Y-105474499D01*
X125224761Y-105474499D01*
X125291934Y-105443175D01*
X125324799Y-105427850D01*
X125402850Y-105349799D01*
X125449499Y-105249760D01*
X125455500Y-105204179D01*
X125455499Y-104430822D01*
X125449499Y-104385240D01*
X125428211Y-104339589D01*
X125420756Y-104278861D01*
X125447931Y-104227749D01*
X127560496Y-102115185D01*
X127615013Y-102087408D01*
X127675445Y-102096979D01*
X127718710Y-102140244D01*
X127729500Y-102185189D01*
X127729500Y-102189746D01*
X127729501Y-102189758D01*
X127741132Y-102248227D01*
X127741133Y-102248231D01*
X127785448Y-102314552D01*
X127851769Y-102358867D01*
X127888851Y-102366243D01*
X127910241Y-102370498D01*
X127910246Y-102370498D01*
X127910252Y-102370500D01*
X127910253Y-102370500D01*
X129649747Y-102370500D01*
X129649748Y-102370500D01*
X129708231Y-102358867D01*
X129774552Y-102314552D01*
X129818867Y-102248231D01*
X129830500Y-102189748D01*
X129830500Y-100450252D01*
X129830499Y-100450250D01*
X129830499Y-100450244D01*
X129824247Y-100418816D01*
X129831437Y-100358055D01*
X129872969Y-100313124D01*
X129921344Y-100300500D01*
X133442406Y-100300500D01*
X133482210Y-100300500D01*
X133497696Y-100301719D01*
X133512753Y-100304103D01*
X133536162Y-100307811D01*
X133565614Y-100317379D01*
X133593294Y-100331483D01*
X133618347Y-100349685D01*
X133640314Y-100371652D01*
X133658517Y-100396707D01*
X133672618Y-100424381D01*
X133682188Y-100453835D01*
X133688281Y-100492301D01*
X133689500Y-100507789D01*
X133689500Y-124992208D01*
X133688281Y-125007697D01*
X133682188Y-125046161D01*
X133672618Y-125075614D01*
X133658519Y-125103287D01*
X133640312Y-125128349D01*
X133618349Y-125150312D01*
X133593287Y-125168519D01*
X133565614Y-125182618D01*
X133536162Y-125192188D01*
X133514537Y-125195613D01*
X133497692Y-125198281D01*
X133482209Y-125199500D01*
X132011421Y-125199500D01*
X131953230Y-125180593D01*
X131917266Y-125131093D01*
X131917266Y-125069907D01*
X131953230Y-125020407D01*
X131956420Y-125018184D01*
X131965152Y-125012348D01*
X131989655Y-124995977D01*
X132135977Y-124849655D01*
X132250941Y-124677598D01*
X132330130Y-124486420D01*
X132370500Y-124283465D01*
X132370500Y-124076535D01*
X132330130Y-123873580D01*
X132250941Y-123682402D01*
X132135977Y-123510345D01*
X131989655Y-123364023D01*
X131989651Y-123364020D01*
X131817597Y-123249058D01*
X131626418Y-123169869D01*
X131423467Y-123129500D01*
X131423465Y-123129500D01*
X131216535Y-123129500D01*
X131216532Y-123129500D01*
X131013580Y-123169870D01*
X131013578Y-123169870D01*
X130927596Y-123205485D01*
X130866599Y-123210285D01*
X130819707Y-123184025D01*
X130548564Y-122912882D01*
X130265212Y-122629530D01*
X130185288Y-122583386D01*
X130096144Y-122559500D01*
X130096142Y-122559500D01*
X129585139Y-122559500D01*
X129526948Y-122540593D01*
X129490984Y-122491093D01*
X129490984Y-122429907D01*
X129515133Y-122390498D01*
X129595977Y-122309655D01*
X129710941Y-122137598D01*
X129790130Y-121946420D01*
X129830500Y-121743465D01*
X129830500Y-121536535D01*
X129830499Y-121536532D01*
X130269500Y-121536532D01*
X130269500Y-121743467D01*
X130309869Y-121946418D01*
X130389058Y-122137597D01*
X130504020Y-122309651D01*
X130504023Y-122309655D01*
X130650345Y-122455977D01*
X130822402Y-122570941D01*
X131013580Y-122650130D01*
X131216535Y-122690500D01*
X131216536Y-122690500D01*
X131423464Y-122690500D01*
X131423465Y-122690500D01*
X131626420Y-122650130D01*
X131817598Y-122570941D01*
X131989655Y-122455977D01*
X132135977Y-122309655D01*
X132250941Y-122137598D01*
X132330130Y-121946420D01*
X132370500Y-121743465D01*
X132370500Y-121536535D01*
X132330130Y-121333580D01*
X132250941Y-121142402D01*
X132135977Y-120970345D01*
X131989655Y-120824023D01*
X131989651Y-120824020D01*
X131817597Y-120709058D01*
X131626418Y-120629869D01*
X131423467Y-120589500D01*
X131423465Y-120589500D01*
X131216535Y-120589500D01*
X131216532Y-120589500D01*
X131013581Y-120629869D01*
X130822402Y-120709058D01*
X130650348Y-120824020D01*
X130504020Y-120970348D01*
X130389058Y-121142402D01*
X130309869Y-121333581D01*
X130269500Y-121536532D01*
X129830499Y-121536532D01*
X129790130Y-121333580D01*
X129710941Y-121142402D01*
X129595977Y-120970345D01*
X129449655Y-120824023D01*
X129449651Y-120824020D01*
X129277597Y-120709058D01*
X129086418Y-120629869D01*
X128883467Y-120589500D01*
X128883465Y-120589500D01*
X128676535Y-120589500D01*
X128676532Y-120589500D01*
X128473581Y-120629869D01*
X128282402Y-120709058D01*
X128110348Y-120824020D01*
X127964020Y-120970348D01*
X127849058Y-121142402D01*
X127769869Y-121333581D01*
X127739389Y-121486815D01*
X127709492Y-121540199D01*
X127653927Y-121565815D01*
X127593917Y-121553878D01*
X127572287Y-121537505D01*
X125912617Y-119877835D01*
X125886994Y-119833452D01*
X125878873Y-119803141D01*
X125875500Y-119777520D01*
X125875500Y-118996532D01*
X127729500Y-118996532D01*
X127729500Y-119203467D01*
X127769869Y-119406418D01*
X127849058Y-119597597D01*
X127943842Y-119739452D01*
X127964023Y-119769655D01*
X128110345Y-119915977D01*
X128282402Y-120030941D01*
X128473580Y-120110130D01*
X128676535Y-120150500D01*
X128676536Y-120150500D01*
X128883464Y-120150500D01*
X128883465Y-120150500D01*
X129086420Y-120110130D01*
X129277598Y-120030941D01*
X129449655Y-119915977D01*
X129595977Y-119769655D01*
X129710941Y-119597598D01*
X129790130Y-119406420D01*
X129830500Y-119203465D01*
X129830500Y-118996535D01*
X129830499Y-118996532D01*
X130269500Y-118996532D01*
X130269500Y-119203467D01*
X130309869Y-119406418D01*
X130389058Y-119597597D01*
X130483842Y-119739452D01*
X130504023Y-119769655D01*
X130650345Y-119915977D01*
X130822402Y-120030941D01*
X131013580Y-120110130D01*
X131216535Y-120150500D01*
X131216536Y-120150500D01*
X131423464Y-120150500D01*
X131423465Y-120150500D01*
X131626420Y-120110130D01*
X131817598Y-120030941D01*
X131989655Y-119915977D01*
X132135977Y-119769655D01*
X132250941Y-119597598D01*
X132330130Y-119406420D01*
X132370500Y-119203465D01*
X132370500Y-118996535D01*
X132330130Y-118793580D01*
X132250941Y-118602402D01*
X132135977Y-118430345D01*
X131989655Y-118284023D01*
X131982117Y-118278986D01*
X131817597Y-118169058D01*
X131626418Y-118089869D01*
X131423467Y-118049500D01*
X131423465Y-118049500D01*
X131216535Y-118049500D01*
X131216532Y-118049500D01*
X131013581Y-118089869D01*
X130822402Y-118169058D01*
X130650348Y-118284020D01*
X130504020Y-118430348D01*
X130389058Y-118602402D01*
X130309869Y-118793581D01*
X130269500Y-118996532D01*
X129830499Y-118996532D01*
X129790130Y-118793580D01*
X129710941Y-118602402D01*
X129595977Y-118430345D01*
X129449655Y-118284023D01*
X129442117Y-118278986D01*
X129277597Y-118169058D01*
X129086418Y-118089869D01*
X128883467Y-118049500D01*
X128883465Y-118049500D01*
X128676535Y-118049500D01*
X128676532Y-118049500D01*
X128473581Y-118089869D01*
X128282402Y-118169058D01*
X128110348Y-118284020D01*
X127964020Y-118430348D01*
X127849058Y-118602402D01*
X127769869Y-118793581D01*
X127729500Y-118996532D01*
X125875500Y-118996532D01*
X125875500Y-118884500D01*
X125894407Y-118826309D01*
X125943907Y-118790345D01*
X125974500Y-118785500D01*
X125992851Y-118785500D01*
X125992853Y-118785500D01*
X126075638Y-118763318D01*
X126149862Y-118720465D01*
X126210465Y-118659862D01*
X126253318Y-118585638D01*
X126275500Y-118502853D01*
X126275500Y-117771121D01*
X126294407Y-117712930D01*
X126324997Y-117685386D01*
X126359511Y-117665460D01*
X126415460Y-117609511D01*
X127560496Y-116464473D01*
X127615013Y-116436697D01*
X127675445Y-116446268D01*
X127718710Y-116489533D01*
X127729500Y-116534478D01*
X127729500Y-116663467D01*
X127769869Y-116866418D01*
X127849058Y-117057597D01*
X127959912Y-117223503D01*
X127964023Y-117229655D01*
X128110345Y-117375977D01*
X128282402Y-117490941D01*
X128473580Y-117570130D01*
X128676535Y-117610500D01*
X128676536Y-117610500D01*
X128883464Y-117610500D01*
X128883465Y-117610500D01*
X129086420Y-117570130D01*
X129277598Y-117490941D01*
X129449655Y-117375977D01*
X129595977Y-117229655D01*
X129710941Y-117057598D01*
X129790130Y-116866420D01*
X129830500Y-116663465D01*
X129830500Y-116456535D01*
X129830499Y-116456532D01*
X130269500Y-116456532D01*
X130269500Y-116663467D01*
X130309869Y-116866418D01*
X130389058Y-117057597D01*
X130499912Y-117223503D01*
X130504023Y-117229655D01*
X130650345Y-117375977D01*
X130822402Y-117490941D01*
X131013580Y-117570130D01*
X131216535Y-117610500D01*
X131216536Y-117610500D01*
X131423464Y-117610500D01*
X131423465Y-117610500D01*
X131626420Y-117570130D01*
X131817598Y-117490941D01*
X131989655Y-117375977D01*
X132135977Y-117229655D01*
X132250941Y-117057598D01*
X132330130Y-116866420D01*
X132370500Y-116663465D01*
X132370500Y-116456535D01*
X132330130Y-116253580D01*
X132250941Y-116062402D01*
X132135977Y-115890345D01*
X131989655Y-115744023D01*
X131978995Y-115736900D01*
X131817597Y-115629058D01*
X131626418Y-115549869D01*
X131423467Y-115509500D01*
X131423465Y-115509500D01*
X131216535Y-115509500D01*
X131216532Y-115509500D01*
X131013581Y-115549869D01*
X130822402Y-115629058D01*
X130650348Y-115744020D01*
X130504020Y-115890348D01*
X130389058Y-116062402D01*
X130309869Y-116253581D01*
X130269500Y-116456532D01*
X129830499Y-116456532D01*
X129790130Y-116253580D01*
X129710941Y-116062402D01*
X129595977Y-115890345D01*
X129449655Y-115744023D01*
X129436899Y-115735500D01*
X129328932Y-115663359D01*
X129291052Y-115615309D01*
X129288650Y-115554171D01*
X129313930Y-115511039D01*
X129418155Y-115406814D01*
X129965460Y-114859511D01*
X129969425Y-114852643D01*
X130005021Y-114790989D01*
X130005854Y-114787878D01*
X130007465Y-114785087D01*
X130007506Y-114784990D01*
X130007518Y-114784995D01*
X130031478Y-114743490D01*
X130065461Y-114709508D01*
X130094327Y-114659509D01*
X130105020Y-114640988D01*
X130108342Y-114628586D01*
X130118232Y-114604709D01*
X130141412Y-114564561D01*
X130155020Y-114540991D01*
X130155717Y-114538392D01*
X130158345Y-114528581D01*
X130168232Y-114504709D01*
X130191409Y-114464565D01*
X130193312Y-114461267D01*
X130238767Y-114420315D01*
X130299615Y-114413900D01*
X130352613Y-114444476D01*
X130370526Y-114472856D01*
X130389059Y-114517598D01*
X130495773Y-114677309D01*
X130504023Y-114689655D01*
X130650345Y-114835977D01*
X130822402Y-114950941D01*
X131013580Y-115030130D01*
X131216535Y-115070500D01*
X131216536Y-115070500D01*
X131423464Y-115070500D01*
X131423465Y-115070500D01*
X131626420Y-115030130D01*
X131817598Y-114950941D01*
X131989655Y-114835977D01*
X132135977Y-114689655D01*
X132250941Y-114517598D01*
X132330130Y-114326420D01*
X132370500Y-114123465D01*
X132370500Y-113916535D01*
X132330130Y-113713580D01*
X132250941Y-113522402D01*
X132135977Y-113350345D01*
X131989655Y-113204023D01*
X131868929Y-113123357D01*
X131831051Y-113075309D01*
X131828649Y-113014171D01*
X131853925Y-112971043D01*
X132565459Y-112259510D01*
X132582612Y-112229800D01*
X132605020Y-112190988D01*
X132608342Y-112178588D01*
X132618229Y-112154714D01*
X132655019Y-112090994D01*
X132655019Y-112090991D01*
X132655021Y-112090989D01*
X132658346Y-112078576D01*
X132668236Y-112054703D01*
X132676154Y-112040988D01*
X132705022Y-111990988D01*
X132708346Y-111978579D01*
X132718238Y-111954698D01*
X132722450Y-111947403D01*
X132755022Y-111890987D01*
X132775500Y-111814561D01*
X132775500Y-111735437D01*
X132775500Y-107473320D01*
X132794407Y-107415129D01*
X132804490Y-107403322D01*
X132875500Y-107332313D01*
X132885420Y-107315131D01*
X132941390Y-107218189D01*
X132941390Y-107218187D01*
X132941392Y-107218185D01*
X132975500Y-107090891D01*
X132975500Y-106959107D01*
X132941392Y-106831813D01*
X132941390Y-106831810D01*
X132941390Y-106831808D01*
X132875503Y-106717689D01*
X132875501Y-106717687D01*
X132875500Y-106717685D01*
X132782314Y-106624499D01*
X132782311Y-106624497D01*
X132782309Y-106624495D01*
X132668189Y-106558608D01*
X132668191Y-106558608D01*
X132605834Y-106541900D01*
X132540892Y-106524499D01*
X132469500Y-106524499D01*
X132411309Y-106505592D01*
X132375345Y-106456092D01*
X132370500Y-106425499D01*
X132370500Y-106296536D01*
X132370499Y-106296532D01*
X132366157Y-106274705D01*
X132330130Y-106093580D01*
X132250941Y-105902402D01*
X132135977Y-105730345D01*
X131989655Y-105584023D01*
X131989651Y-105584020D01*
X131817597Y-105469058D01*
X131626418Y-105389869D01*
X131423467Y-105349500D01*
X131423465Y-105349500D01*
X131216535Y-105349500D01*
X131216532Y-105349500D01*
X131013581Y-105389869D01*
X130822402Y-105469058D01*
X130650348Y-105584020D01*
X130504020Y-105730348D01*
X130389058Y-105902402D01*
X130309869Y-106093581D01*
X130269500Y-106296532D01*
X130269500Y-106503467D01*
X130286157Y-106587207D01*
X130308614Y-106700108D01*
X130309870Y-106706419D01*
X130309870Y-106706421D01*
X130376551Y-106867403D01*
X130381352Y-106928399D01*
X130355091Y-106975291D01*
X129964882Y-107365503D01*
X129910365Y-107393281D01*
X129894878Y-107394500D01*
X129508811Y-107394500D01*
X129450620Y-107375593D01*
X129414656Y-107326093D01*
X129414656Y-107264907D01*
X129446004Y-107218974D01*
X129449646Y-107215984D01*
X129449648Y-107215981D01*
X129449655Y-107215977D01*
X129595977Y-107069655D01*
X129710941Y-106897598D01*
X129790130Y-106706420D01*
X129830500Y-106503465D01*
X129830500Y-106296535D01*
X129790130Y-106093580D01*
X129710941Y-105902402D01*
X129595977Y-105730345D01*
X129449655Y-105584023D01*
X129449651Y-105584020D01*
X129449646Y-105584015D01*
X129446004Y-105581026D01*
X129413018Y-105529493D01*
X129416622Y-105468414D01*
X129455439Y-105421119D01*
X129508811Y-105405500D01*
X130104799Y-105405500D01*
X130104800Y-105405500D01*
X130206058Y-105363557D01*
X130283557Y-105286058D01*
X130283556Y-105286058D01*
X130744707Y-104824907D01*
X130799223Y-104797131D01*
X130852596Y-104803448D01*
X130888906Y-104818488D01*
X131013580Y-104870130D01*
X131216535Y-104910500D01*
X131216536Y-104910500D01*
X131423464Y-104910500D01*
X131423465Y-104910500D01*
X131626420Y-104870130D01*
X131817598Y-104790941D01*
X131989655Y-104675977D01*
X132135977Y-104529655D01*
X132250941Y-104357598D01*
X132330130Y-104166420D01*
X132370500Y-103963465D01*
X132370500Y-103756535D01*
X132330130Y-103553580D01*
X132250941Y-103362402D01*
X132135977Y-103190345D01*
X131989655Y-103044023D01*
X131989651Y-103044020D01*
X131817597Y-102929058D01*
X131626418Y-102849869D01*
X131423467Y-102809500D01*
X131423465Y-102809500D01*
X131216535Y-102809500D01*
X131216532Y-102809500D01*
X131013581Y-102849869D01*
X130822402Y-102929058D01*
X130650348Y-103044020D01*
X130504020Y-103190348D01*
X130389058Y-103362402D01*
X130309869Y-103553581D01*
X130269500Y-103756532D01*
X130269500Y-103963467D01*
X130309870Y-104166419D01*
X130309870Y-104166421D01*
X130376551Y-104327403D01*
X130381352Y-104388399D01*
X130355091Y-104435291D01*
X129964882Y-104825503D01*
X129910365Y-104853281D01*
X129894878Y-104854500D01*
X129508811Y-104854500D01*
X129450620Y-104835593D01*
X129414656Y-104786093D01*
X129414656Y-104724907D01*
X129446004Y-104678974D01*
X129449646Y-104675984D01*
X129449648Y-104675981D01*
X129449655Y-104675977D01*
X129595977Y-104529655D01*
X129710941Y-104357598D01*
X129790130Y-104166420D01*
X129830500Y-103963465D01*
X129830500Y-103756535D01*
X129790130Y-103553580D01*
X129710941Y-103362402D01*
X129595977Y-103190345D01*
X129449655Y-103044023D01*
X129449651Y-103044020D01*
X129277597Y-102929058D01*
X129086418Y-102849869D01*
X128883467Y-102809500D01*
X128883465Y-102809500D01*
X128676535Y-102809500D01*
X128676532Y-102809500D01*
X128473581Y-102849869D01*
X128282402Y-102929058D01*
X128110348Y-103044020D01*
X127964020Y-103190348D01*
X127849058Y-103362402D01*
X127769869Y-103553581D01*
X127729500Y-103756532D01*
X127729500Y-103963467D01*
X127769869Y-104166418D01*
X127849058Y-104357597D01*
X127961073Y-104525240D01*
X127964023Y-104529655D01*
X128110345Y-104675977D01*
X128282402Y-104790941D01*
X128301532Y-104798864D01*
X128348058Y-104838600D01*
X128362342Y-104898095D01*
X128338928Y-104954623D01*
X128333651Y-104960333D01*
X126709642Y-106584343D01*
X126709641Y-106584342D01*
X126632146Y-106661838D01*
X126632144Y-106661840D01*
X126632143Y-106661842D01*
X126590200Y-106763100D01*
X126590200Y-108574368D01*
X126571293Y-108632559D01*
X126521793Y-108668523D01*
X126465578Y-108669995D01*
X126371489Y-108644785D01*
X126351392Y-108639400D01*
X126219608Y-108639400D01*
X126107348Y-108669479D01*
X126092310Y-108673509D01*
X126048999Y-108698515D01*
X125989151Y-108711236D01*
X125933256Y-108686349D01*
X125902663Y-108633361D01*
X125900500Y-108612778D01*
X125900500Y-107895230D01*
X125900499Y-107895226D01*
X125899080Y-107880093D01*
X125897686Y-107865226D01*
X125853455Y-107738821D01*
X125773930Y-107631070D01*
X125773928Y-107631068D01*
X125773927Y-107631067D01*
X125764748Y-107624293D01*
X125729155Y-107574526D01*
X125729611Y-107513343D01*
X125754681Y-107473503D01*
X125886236Y-107346172D01*
X125894831Y-107338761D01*
X125895207Y-107338472D01*
X125895207Y-107338471D01*
X125895212Y-107338469D01*
X125925313Y-107308366D01*
X125926282Y-107307413D01*
X125956920Y-107277761D01*
X125956926Y-107277749D01*
X125957216Y-107277386D01*
X125957566Y-107276994D01*
X125958183Y-107276190D01*
X125959186Y-107274904D01*
X125959885Y-107274022D01*
X125960196Y-107273565D01*
X125960457Y-107273223D01*
X125960469Y-107273212D01*
X125981718Y-107236405D01*
X125982482Y-107235106D01*
X126004363Y-107198600D01*
X126004364Y-107198594D01*
X126004558Y-107198149D01*
X126004793Y-107197681D01*
X126005175Y-107196760D01*
X126005823Y-107195229D01*
X126006257Y-107194227D01*
X126006433Y-107193723D01*
X126006609Y-107193295D01*
X126006614Y-107193288D01*
X126007892Y-107188516D01*
X126033516Y-107144131D01*
X126052850Y-107124799D01*
X126099499Y-107024760D01*
X126105500Y-106979179D01*
X126105499Y-106205822D01*
X126099499Y-106160240D01*
X126099499Y-106160238D01*
X126052851Y-106060203D01*
X126052850Y-106060202D01*
X126052850Y-106060201D01*
X125974799Y-105982150D01*
X125874760Y-105935501D01*
X125829179Y-105929500D01*
X125829177Y-105929500D01*
X125530826Y-105929500D01*
X125530814Y-105929501D01*
X125485240Y-105935500D01*
X125485238Y-105935500D01*
X125385203Y-105982148D01*
X125385201Y-105982150D01*
X125307150Y-106060201D01*
X125260501Y-106160240D01*
X125259389Y-106168691D01*
X125254500Y-106205822D01*
X125254500Y-106940087D01*
X125235593Y-106998278D01*
X125224352Y-107011224D01*
X125006757Y-107221830D01*
X124998187Y-107229224D01*
X124997794Y-107229525D01*
X124967801Y-107259517D01*
X124966653Y-107260645D01*
X124936080Y-107290238D01*
X124935746Y-107290659D01*
X124935404Y-107291042D01*
X124934805Y-107291824D01*
X124933809Y-107293100D01*
X124933152Y-107293927D01*
X124932851Y-107294370D01*
X124932535Y-107294781D01*
X124911325Y-107331516D01*
X124910509Y-107332903D01*
X124888630Y-107369411D01*
X124888414Y-107369910D01*
X124888181Y-107370374D01*
X124887804Y-107371285D01*
X124887176Y-107372767D01*
X124886767Y-107373708D01*
X124886593Y-107374209D01*
X124886388Y-107374702D01*
X124875391Y-107415742D01*
X124874962Y-107417293D01*
X124863299Y-107458144D01*
X124863223Y-107458661D01*
X124860911Y-107469790D01*
X124860831Y-107470088D01*
X124827482Y-107521387D01*
X124797916Y-107537864D01*
X124758823Y-107551544D01*
X124758822Y-107551544D01*
X124758821Y-107551545D01*
X124724559Y-107576832D01*
X124651071Y-107631069D01*
X124651069Y-107631071D01*
X124641388Y-107644188D01*
X124580867Y-107726191D01*
X124571543Y-107738824D01*
X124527315Y-107865222D01*
X124527313Y-107865231D01*
X124524500Y-107895226D01*
X124524500Y-108914773D01*
X124527313Y-108944768D01*
X124527315Y-108944777D01*
X124571543Y-109071175D01*
X124571544Y-109071176D01*
X124571545Y-109071179D01*
X124651070Y-109178930D01*
X124758821Y-109258455D01*
X124885226Y-109302686D01*
X124915226Y-109305499D01*
X124915230Y-109305500D01*
X125151024Y-109305500D01*
X125209215Y-109324407D01*
X125245179Y-109373907D01*
X125245179Y-109435093D01*
X125221028Y-109474504D01*
X125219597Y-109475934D01*
X125219596Y-109475935D01*
X125174522Y-109521009D01*
X125135933Y-109559598D01*
X125085932Y-109666824D01*
X125085932Y-109666825D01*
X125079500Y-109715685D01*
X125079500Y-110064314D01*
X125085932Y-110113174D01*
X125085932Y-110113175D01*
X125135933Y-110220401D01*
X125135934Y-110220402D01*
X125135935Y-110220404D01*
X125219596Y-110304065D01*
X125219597Y-110304065D01*
X125219598Y-110304066D01*
X125326824Y-110354067D01*
X125326825Y-110354067D01*
X125326827Y-110354068D01*
X125375684Y-110360500D01*
X125375685Y-110360500D01*
X125824314Y-110360500D01*
X125824316Y-110360500D01*
X125873173Y-110354068D01*
X125873177Y-110354066D01*
X125879876Y-110353184D01*
X125940037Y-110364333D01*
X125982155Y-110408715D01*
X125991800Y-110451337D01*
X125991800Y-111083700D01*
X125972893Y-111141891D01*
X125923393Y-111177855D01*
X125892800Y-111182700D01*
X125803808Y-111182700D01*
X125725900Y-111203575D01*
X125676509Y-111216809D01*
X125562390Y-111282696D01*
X125469196Y-111375890D01*
X125403309Y-111490009D01*
X125388659Y-111544684D01*
X125369200Y-111617308D01*
X125369200Y-111749092D01*
X125386742Y-111814559D01*
X125403309Y-111876390D01*
X125469196Y-111990509D01*
X125469198Y-111990511D01*
X125469200Y-111990514D01*
X125562386Y-112083700D01*
X125562388Y-112083701D01*
X125562390Y-112083703D01*
X125599000Y-112104840D01*
X125639941Y-112150309D01*
X125646337Y-112211160D01*
X125619504Y-112260579D01*
X125467882Y-112412203D01*
X125413366Y-112439981D01*
X125397878Y-112441200D01*
X122981121Y-112441200D01*
X122922930Y-112422293D01*
X122911117Y-112412204D01*
X122908301Y-112409388D01*
X122908300Y-112409386D01*
X122815114Y-112316200D01*
X122711186Y-112256197D01*
X122711175Y-112256190D01*
X122700989Y-112250309D01*
X122700986Y-112250308D01*
X122573692Y-112216200D01*
X122441908Y-112216200D01*
X122391152Y-112229800D01*
X122314609Y-112250309D01*
X122200490Y-112316196D01*
X122107296Y-112409390D01*
X122041409Y-112523509D01*
X122033216Y-112554087D01*
X122007300Y-112650808D01*
X122007300Y-112782592D01*
X122034568Y-112884357D01*
X122041409Y-112909890D01*
X122107296Y-113024009D01*
X122107298Y-113024011D01*
X122107300Y-113024014D01*
X122200486Y-113117200D01*
X122200488Y-113117201D01*
X122200490Y-113117203D01*
X122314610Y-113183090D01*
X122314608Y-113183090D01*
X122314612Y-113183091D01*
X122314614Y-113183092D01*
X122441908Y-113217200D01*
X122441910Y-113217200D01*
X122519077Y-113217200D01*
X122577268Y-113236107D01*
X122613232Y-113285607D01*
X122613232Y-113346793D01*
X122589081Y-113386204D01*
X121844228Y-114131056D01*
X121789711Y-114158833D01*
X121729279Y-114149262D01*
X121719235Y-114143375D01*
X121677495Y-114115485D01*
X121597133Y-114099500D01*
X121597132Y-114099500D01*
X120217870Y-114099500D01*
X120217863Y-114099501D01*
X120137505Y-114115484D01*
X120137503Y-114115485D01*
X120046379Y-114176373D01*
X120046373Y-114176379D01*
X119985486Y-114267501D01*
X119985486Y-114267503D01*
X119985485Y-114267505D01*
X119973766Y-114326420D01*
X119969500Y-114347867D01*
X119969500Y-114552129D01*
X119969501Y-114552137D01*
X119985484Y-114632494D01*
X119985486Y-114632498D01*
X119993840Y-114645001D01*
X120010447Y-114703889D01*
X119993840Y-114754999D01*
X119985485Y-114767503D01*
X119985484Y-114767504D01*
X119969500Y-114847864D01*
X119969500Y-114944059D01*
X119950593Y-115002250D01*
X119901093Y-115038214D01*
X119844878Y-115039686D01*
X119815116Y-115031711D01*
X119795292Y-115026400D01*
X119663508Y-115026400D01*
X119613924Y-115039686D01*
X119536209Y-115060509D01*
X119422090Y-115126396D01*
X119328896Y-115219590D01*
X119263009Y-115333709D01*
X119249630Y-115383642D01*
X119228900Y-115461008D01*
X119228900Y-115592792D01*
X119245251Y-115653815D01*
X119263009Y-115720090D01*
X119328896Y-115834209D01*
X119328898Y-115834211D01*
X119328900Y-115834214D01*
X119422086Y-115927400D01*
X119422088Y-115927401D01*
X119424904Y-115930217D01*
X119452681Y-115984734D01*
X119453900Y-116000221D01*
X119453900Y-116022200D01*
X119492541Y-116115487D01*
X119495843Y-116123458D01*
X119495844Y-116123459D01*
X119603414Y-116231030D01*
X119631191Y-116285546D01*
X119621619Y-116345978D01*
X119578355Y-116389243D01*
X119559035Y-116396659D01*
X119499514Y-116412608D01*
X119499512Y-116412608D01*
X119499508Y-116412610D01*
X119385390Y-116478496D01*
X119292196Y-116571690D01*
X119226309Y-116685809D01*
X119220133Y-116708859D01*
X119192200Y-116813108D01*
X119192200Y-116944892D01*
X119216478Y-117035500D01*
X119226309Y-117072190D01*
X119243615Y-117102164D01*
X119256337Y-117162012D01*
X119231450Y-117217908D01*
X119178462Y-117248501D01*
X119132257Y-117247291D01*
X119066421Y-117229651D01*
X119043092Y-117223400D01*
X118911308Y-117223400D01*
X118834800Y-117243900D01*
X118784009Y-117257509D01*
X118669890Y-117323396D01*
X118576696Y-117416590D01*
X118510809Y-117530709D01*
X118492443Y-117599255D01*
X118479185Y-117648736D01*
X118476700Y-117658009D01*
X118476700Y-117789794D01*
X118487133Y-117828732D01*
X118483930Y-117889833D01*
X118445424Y-117937382D01*
X118386323Y-117953217D01*
X118364736Y-117948331D01*
X118364454Y-117949388D01*
X118358187Y-117947708D01*
X118358186Y-117947708D01*
X118230892Y-117913600D01*
X118099108Y-117913600D01*
X118021200Y-117934475D01*
X117971809Y-117947709D01*
X117857690Y-118013596D01*
X117764496Y-118106790D01*
X117698609Y-118220909D01*
X117692181Y-118244900D01*
X117664500Y-118348208D01*
X117664500Y-118479992D01*
X117694579Y-118592251D01*
X117698609Y-118607290D01*
X117709223Y-118625673D01*
X117721945Y-118685521D01*
X117697059Y-118741417D01*
X117692134Y-118745971D01*
X117692274Y-118746111D01*
X117594500Y-118843885D01*
X117594496Y-118843890D01*
X117528609Y-118958010D01*
X117528607Y-118958014D01*
X117516365Y-119003703D01*
X117483041Y-119055017D01*
X117425919Y-119076943D01*
X117366819Y-119061107D01*
X117328314Y-119013557D01*
X117325113Y-119003703D01*
X117317292Y-118974514D01*
X117309004Y-118960159D01*
X117251403Y-118860390D01*
X117251401Y-118860388D01*
X117251400Y-118860386D01*
X117158214Y-118767200D01*
X117158211Y-118767198D01*
X117158209Y-118767196D01*
X117044089Y-118701309D01*
X117044091Y-118701309D01*
X116994699Y-118688075D01*
X116916792Y-118667200D01*
X116785008Y-118667200D01*
X116707100Y-118688075D01*
X116657709Y-118701309D01*
X116543590Y-118767196D01*
X116450396Y-118860390D01*
X116384509Y-118974509D01*
X116367497Y-119038000D01*
X116350400Y-119101808D01*
X116350400Y-119233592D01*
X116372796Y-119317174D01*
X116374042Y-119321825D01*
X116370839Y-119382927D01*
X116332334Y-119430477D01*
X116316303Y-119438911D01*
X116312504Y-119440484D01*
X116299999Y-119448840D01*
X116241111Y-119465447D01*
X116190001Y-119448840D01*
X116177496Y-119440485D01*
X116177495Y-119440484D01*
X116097135Y-119424500D01*
X116097133Y-119424500D01*
X116063645Y-119424500D01*
X116005454Y-119405593D01*
X115969490Y-119356093D01*
X115968018Y-119299878D01*
X115969637Y-119293834D01*
X115979000Y-119258892D01*
X115979000Y-119127108D01*
X115944892Y-118999814D01*
X115944890Y-118999811D01*
X115944890Y-118999809D01*
X115879003Y-118885690D01*
X115879001Y-118885688D01*
X115879000Y-118885686D01*
X115785814Y-118792500D01*
X115785811Y-118792498D01*
X115785809Y-118792496D01*
X115671689Y-118726609D01*
X115671691Y-118726609D01*
X115610136Y-118710116D01*
X115544392Y-118692500D01*
X115412608Y-118692500D01*
X115346864Y-118710116D01*
X115285309Y-118726609D01*
X115171190Y-118792496D01*
X115171184Y-118792501D01*
X115153902Y-118809783D01*
X115099385Y-118837559D01*
X115038953Y-118827987D01*
X115013898Y-118809783D01*
X114992915Y-118788801D01*
X114992909Y-118788796D01*
X114878789Y-118722909D01*
X114878791Y-118722909D01*
X114829399Y-118709675D01*
X114751492Y-118688800D01*
X114619708Y-118688800D01*
X114541800Y-118709675D01*
X114492409Y-118722909D01*
X114378290Y-118788796D01*
X114378284Y-118788800D01*
X114333467Y-118833618D01*
X114278950Y-118861395D01*
X114218518Y-118851823D01*
X114177728Y-118813115D01*
X114157100Y-118777386D01*
X114063914Y-118684200D01*
X114063911Y-118684198D01*
X114063909Y-118684196D01*
X113949789Y-118618309D01*
X113949791Y-118618309D01*
X113890423Y-118602402D01*
X113822492Y-118584200D01*
X113690708Y-118584200D01*
X113633607Y-118599500D01*
X113563412Y-118618308D01*
X113505844Y-118651546D01*
X113445995Y-118664267D01*
X113401342Y-118648124D01*
X113352497Y-118615486D01*
X113352496Y-118615485D01*
X113352495Y-118615485D01*
X113272133Y-118599500D01*
X112628645Y-118599500D01*
X112628644Y-118599500D01*
X111163856Y-118599500D01*
X111153026Y-118602402D01*
X111081440Y-118621582D01*
X111081441Y-118621583D01*
X111074708Y-118623387D01*
X110994788Y-118669529D01*
X110743812Y-118920504D01*
X110689296Y-118948281D01*
X110673810Y-118949500D01*
X110520104Y-118949500D01*
X110520092Y-118949501D01*
X110470513Y-118956027D01*
X110470511Y-118956027D01*
X110361686Y-119006774D01*
X110276774Y-119091686D01*
X110226029Y-119200510D01*
X110226028Y-119200511D01*
X110219500Y-119250100D01*
X110219500Y-119609895D01*
X110219501Y-119609907D01*
X110226027Y-119659486D01*
X110226027Y-119659488D01*
X110276774Y-119768313D01*
X110276775Y-119768314D01*
X110276776Y-119768316D01*
X110361684Y-119853224D01*
X110470513Y-119903972D01*
X110520099Y-119910500D01*
X110939900Y-119910499D01*
X110989487Y-119903972D01*
X110989488Y-119903972D01*
X111059014Y-119871551D01*
X111098316Y-119853224D01*
X111183224Y-119768316D01*
X111233972Y-119659487D01*
X111240500Y-119609901D01*
X111240499Y-119456189D01*
X111259406Y-119397999D01*
X111269496Y-119386185D01*
X111326186Y-119329496D01*
X111380703Y-119301719D01*
X111396189Y-119300500D01*
X111892867Y-119300500D01*
X112396310Y-119300500D01*
X112454501Y-119319407D01*
X112466314Y-119329496D01*
X112788004Y-119651186D01*
X112815781Y-119705703D01*
X112817000Y-119721190D01*
X112817000Y-120176310D01*
X112798093Y-120234501D01*
X112788003Y-120246314D01*
X112463812Y-120570504D01*
X112409296Y-120598281D01*
X112393810Y-120599500D01*
X112240104Y-120599500D01*
X112240092Y-120599501D01*
X112190513Y-120606027D01*
X112190511Y-120606027D01*
X112081686Y-120656774D01*
X112081683Y-120656776D01*
X112037955Y-120700504D01*
X111983438Y-120728281D01*
X111967952Y-120729500D01*
X111809621Y-120729500D01*
X111751430Y-120710593D01*
X111739623Y-120700509D01*
X111718614Y-120679500D01*
X111718611Y-120679498D01*
X111718609Y-120679496D01*
X111604489Y-120613609D01*
X111604491Y-120613609D01*
X111547284Y-120598281D01*
X111477192Y-120579500D01*
X111345408Y-120579500D01*
X111275316Y-120598281D01*
X111218109Y-120613609D01*
X111103990Y-120679496D01*
X111010796Y-120772690D01*
X110944909Y-120886809D01*
X110944908Y-120886814D01*
X110910800Y-121014108D01*
X110910800Y-121145892D01*
X110931627Y-121223620D01*
X110944909Y-121273190D01*
X111010796Y-121387309D01*
X111010798Y-121387311D01*
X111010800Y-121387314D01*
X111103986Y-121480500D01*
X111103988Y-121480501D01*
X111103990Y-121480503D01*
X111218110Y-121546390D01*
X111218108Y-121546390D01*
X111218112Y-121546391D01*
X111218114Y-121546392D01*
X111345408Y-121580500D01*
X111345410Y-121580500D01*
X111477190Y-121580500D01*
X111477192Y-121580500D01*
X111604486Y-121546392D01*
X111604488Y-121546390D01*
X111604490Y-121546390D01*
X111718609Y-121480503D01*
X111718609Y-121480502D01*
X111718614Y-121480500D01*
X111739619Y-121459494D01*
X111794134Y-121431719D01*
X111809621Y-121430500D01*
X111967952Y-121430500D01*
X112026143Y-121449407D01*
X112037955Y-121459496D01*
X112065275Y-121486815D01*
X112081684Y-121503224D01*
X112190513Y-121553972D01*
X112240099Y-121560500D01*
X112659900Y-121560499D01*
X112709487Y-121553972D01*
X112709488Y-121553971D01*
X112716759Y-121551853D01*
X112717184Y-121553312D01*
X112769377Y-121546897D01*
X112822895Y-121576554D01*
X112848760Y-121632003D01*
X112849500Y-121644081D01*
X112849500Y-123300500D01*
X112830593Y-123358691D01*
X112781093Y-123394655D01*
X112750500Y-123399500D01*
X112335103Y-123399500D01*
X112335092Y-123399501D01*
X112285513Y-123406027D01*
X112285511Y-123406027D01*
X112176686Y-123456774D01*
X112091774Y-123541686D01*
X112041029Y-123650510D01*
X112041028Y-123650511D01*
X112034500Y-123700100D01*
X112034500Y-124059895D01*
X112034501Y-124059907D01*
X112041027Y-124109486D01*
X112041027Y-124109488D01*
X112091774Y-124218313D01*
X112091775Y-124218314D01*
X112091776Y-124218316D01*
X112176684Y-124303224D01*
X112285513Y-124353972D01*
X112335099Y-124360500D01*
X112754900Y-124360499D01*
X112804487Y-124353972D01*
X112804488Y-124353972D01*
X112907701Y-124305843D01*
X112968430Y-124298386D01*
X112999040Y-124309830D01*
X113034011Y-124330021D01*
X113110435Y-124350499D01*
X113110437Y-124350500D01*
X113110438Y-124350500D01*
X113145500Y-124350500D01*
X113203691Y-124369407D01*
X113239655Y-124418907D01*
X113244500Y-124449500D01*
X113244500Y-124454274D01*
X113247353Y-124484694D01*
X113247355Y-124484703D01*
X113292207Y-124612883D01*
X113372845Y-124722144D01*
X113372847Y-124722146D01*
X113372850Y-124722150D01*
X113372853Y-124722152D01*
X113372855Y-124722154D01*
X113482116Y-124802792D01*
X113482117Y-124802792D01*
X113482118Y-124802793D01*
X113610301Y-124847646D01*
X113640725Y-124850499D01*
X113640727Y-124850500D01*
X113640734Y-124850500D01*
X114649273Y-124850500D01*
X114649273Y-124850499D01*
X114679699Y-124847646D01*
X114807882Y-124802793D01*
X114917150Y-124722150D01*
X114997793Y-124612882D01*
X115042646Y-124484699D01*
X115045499Y-124454273D01*
X115045500Y-124454273D01*
X115045500Y-123645727D01*
X115045499Y-123645725D01*
X115045400Y-123644670D01*
X115042646Y-123615301D01*
X114997793Y-123487118D01*
X114979886Y-123462855D01*
X114917154Y-123377855D01*
X114917152Y-123377853D01*
X114917150Y-123377850D01*
X114917146Y-123377847D01*
X114917144Y-123377845D01*
X114807883Y-123297207D01*
X114679703Y-123252355D01*
X114679694Y-123252353D01*
X114649274Y-123249500D01*
X114649266Y-123249500D01*
X113640734Y-123249500D01*
X113640725Y-123249500D01*
X113610305Y-123252353D01*
X113610301Y-123252354D01*
X113582197Y-123262188D01*
X113521027Y-123263560D01*
X113470733Y-123228716D01*
X113450525Y-123170964D01*
X113450500Y-123168743D01*
X113450500Y-121749500D01*
X113469407Y-121691309D01*
X113518907Y-121655345D01*
X113549500Y-121650500D01*
X115400484Y-121650500D01*
X115458675Y-121669407D01*
X115494639Y-121718907D01*
X115494639Y-121780093D01*
X115493929Y-121782197D01*
X115447354Y-121915301D01*
X115447353Y-121915305D01*
X115444500Y-121945725D01*
X115444500Y-122754274D01*
X115447353Y-122784694D01*
X115447355Y-122784703D01*
X115492207Y-122912883D01*
X115572845Y-123022144D01*
X115572847Y-123022146D01*
X115572850Y-123022150D01*
X115572853Y-123022152D01*
X115572855Y-123022154D01*
X115682116Y-123102792D01*
X115682117Y-123102792D01*
X115682118Y-123102793D01*
X115810301Y-123147646D01*
X115840725Y-123150499D01*
X115840727Y-123150500D01*
X115840734Y-123150500D01*
X116849273Y-123150500D01*
X116849273Y-123150499D01*
X116879699Y-123147646D01*
X116907803Y-123137811D01*
X116968971Y-123136438D01*
X117019266Y-123171281D01*
X117039475Y-123229033D01*
X117039500Y-123231256D01*
X117039500Y-123719564D01*
X117059978Y-123795988D01*
X117059980Y-123795992D01*
X117099538Y-123864508D01*
X117099540Y-123864511D01*
X117155489Y-123920460D01*
X117155491Y-123920461D01*
X117224007Y-123960019D01*
X117224011Y-123960021D01*
X117300435Y-123980499D01*
X117300437Y-123980500D01*
X117300438Y-123980500D01*
X117379562Y-123980500D01*
X117413761Y-123980500D01*
X117471952Y-123999407D01*
X117485078Y-124012764D01*
X117485652Y-124012191D01*
X117491775Y-124018314D01*
X117491776Y-124018316D01*
X117576684Y-124103224D01*
X117685513Y-124153972D01*
X117735099Y-124160500D01*
X118154900Y-124160499D01*
X118204487Y-124153972D01*
X118204488Y-124153972D01*
X118263137Y-124126622D01*
X118313316Y-124103224D01*
X118398224Y-124018316D01*
X118448972Y-123909487D01*
X118455500Y-123859901D01*
X118455499Y-123521045D01*
X118474406Y-123462855D01*
X118523906Y-123426891D01*
X118585091Y-123426891D01*
X118624500Y-123451040D01*
X118676684Y-123503224D01*
X118785513Y-123553972D01*
X118835099Y-123560500D01*
X119254900Y-123560499D01*
X119304487Y-123553972D01*
X119304488Y-123553972D01*
X119375097Y-123521046D01*
X119413316Y-123503224D01*
X119435180Y-123481359D01*
X119457045Y-123459496D01*
X119511562Y-123431719D01*
X119527048Y-123430500D01*
X119662952Y-123430500D01*
X119721143Y-123449407D01*
X119732955Y-123459496D01*
X119776683Y-123503223D01*
X119776686Y-123503225D01*
X119861727Y-123542881D01*
X119906475Y-123584609D01*
X119918150Y-123644670D01*
X119905625Y-123682105D01*
X119847308Y-123783112D01*
X119838362Y-123816500D01*
X119813543Y-123909124D01*
X119780221Y-123960437D01*
X119723100Y-123982364D01*
X119717918Y-123982500D01*
X119672908Y-123982500D01*
X119609810Y-123999407D01*
X119545609Y-124016609D01*
X119431490Y-124082496D01*
X119338296Y-124175690D01*
X119272409Y-124289809D01*
X119261696Y-124329792D01*
X119238300Y-124417108D01*
X119238300Y-124548892D01*
X119253347Y-124605049D01*
X119272409Y-124676190D01*
X119338296Y-124790309D01*
X119338298Y-124790311D01*
X119338300Y-124790314D01*
X119431486Y-124883500D01*
X119431488Y-124883501D01*
X119431490Y-124883503D01*
X119545610Y-124949390D01*
X119545608Y-124949390D01*
X119545612Y-124949391D01*
X119545614Y-124949392D01*
X119672908Y-124983500D01*
X119672910Y-124983500D01*
X119804690Y-124983500D01*
X119804692Y-124983500D01*
X119931986Y-124949392D01*
X119931988Y-124949390D01*
X119931990Y-124949390D01*
X120046109Y-124883503D01*
X120046109Y-124883502D01*
X120046114Y-124883500D01*
X120139300Y-124790314D01*
X120139301Y-124790311D01*
X120142117Y-124787496D01*
X120196634Y-124759719D01*
X120212121Y-124758500D01*
X120578499Y-124758500D01*
X120578500Y-124758500D01*
X120679758Y-124716557D01*
X120757257Y-124639058D01*
X120757256Y-124639058D01*
X121478557Y-123917759D01*
X121502522Y-123859901D01*
X121520500Y-123816500D01*
X121520500Y-123609574D01*
X121539407Y-123551383D01*
X121577660Y-123519849D01*
X121613316Y-123503224D01*
X121698224Y-123418316D01*
X121733014Y-123343709D01*
X122709500Y-123343709D01*
X122709500Y-123556290D01*
X122742752Y-123766238D01*
X122808443Y-123968412D01*
X122904948Y-124157815D01*
X122904950Y-124157819D01*
X123029891Y-124329786D01*
X123029893Y-124329788D01*
X123029896Y-124329792D01*
X123180208Y-124480104D01*
X123180211Y-124480106D01*
X123180213Y-124480108D01*
X123352180Y-124605049D01*
X123352184Y-124605051D01*
X123541588Y-124701557D01*
X123743757Y-124767246D01*
X123743758Y-124767246D01*
X123743761Y-124767247D01*
X123953710Y-124800500D01*
X123953713Y-124800500D01*
X124166290Y-124800500D01*
X124376238Y-124767247D01*
X124376239Y-124767246D01*
X124376243Y-124767246D01*
X124578412Y-124701557D01*
X124767816Y-124605051D01*
X124939792Y-124480104D01*
X125090104Y-124329792D01*
X125213102Y-124160499D01*
X125215049Y-124157819D01*
X125215051Y-124157816D01*
X125311557Y-123968412D01*
X125377246Y-123766243D01*
X125377247Y-123766238D01*
X125410500Y-123556290D01*
X125410500Y-123343709D01*
X125377247Y-123133761D01*
X125367185Y-123102793D01*
X125311557Y-122931588D01*
X125215051Y-122742184D01*
X125215049Y-122742180D01*
X125090108Y-122570213D01*
X125090106Y-122570211D01*
X125090104Y-122570208D01*
X124939792Y-122419896D01*
X124939788Y-122419893D01*
X124939786Y-122419891D01*
X124767819Y-122294950D01*
X124767815Y-122294948D01*
X124578412Y-122198443D01*
X124376238Y-122132752D01*
X124166290Y-122099500D01*
X124166287Y-122099500D01*
X123953713Y-122099500D01*
X123953710Y-122099500D01*
X123743761Y-122132752D01*
X123541587Y-122198443D01*
X123352184Y-122294948D01*
X123352180Y-122294950D01*
X123180213Y-122419891D01*
X123029891Y-122570213D01*
X122904950Y-122742180D01*
X122904948Y-122742184D01*
X122808443Y-122931587D01*
X122742752Y-123133761D01*
X122709500Y-123343709D01*
X121733014Y-123343709D01*
X121748972Y-123309487D01*
X121755500Y-123259901D01*
X121755499Y-122900100D01*
X121748972Y-122850513D01*
X121748972Y-122850511D01*
X121698225Y-122741686D01*
X121698224Y-122741685D01*
X121698224Y-122741684D01*
X121613316Y-122656776D01*
X121613314Y-122656775D01*
X121613313Y-122656774D01*
X121504489Y-122606029D01*
X121504488Y-122606028D01*
X121487958Y-122603852D01*
X121454901Y-122599500D01*
X121454899Y-122599500D01*
X121035103Y-122599500D01*
X121035092Y-122599501D01*
X120985513Y-122606027D01*
X120985511Y-122606027D01*
X120876686Y-122656774D01*
X120791775Y-122741685D01*
X120784724Y-122756807D01*
X120742995Y-122801554D01*
X120682933Y-122813228D01*
X120627481Y-122787369D01*
X120605276Y-122756807D01*
X120598455Y-122742180D01*
X120598224Y-122741684D01*
X120513316Y-122656776D01*
X120513314Y-122656775D01*
X120513313Y-122656774D01*
X120404489Y-122606029D01*
X120404488Y-122606028D01*
X120387958Y-122603852D01*
X120354901Y-122599500D01*
X120354899Y-122599500D01*
X119935103Y-122599500D01*
X119935092Y-122599501D01*
X119885513Y-122606027D01*
X119885511Y-122606027D01*
X119776686Y-122656774D01*
X119776683Y-122656776D01*
X119732955Y-122700504D01*
X119678438Y-122728281D01*
X119662952Y-122729500D01*
X119527048Y-122729500D01*
X119468857Y-122710593D01*
X119457045Y-122700504D01*
X119413316Y-122656776D01*
X119413313Y-122656774D01*
X119304489Y-122606029D01*
X119304488Y-122606028D01*
X119287958Y-122603852D01*
X119254901Y-122599500D01*
X119254899Y-122599500D01*
X118835103Y-122599500D01*
X118835092Y-122599501D01*
X118785513Y-122606027D01*
X118785511Y-122606027D01*
X118676686Y-122656774D01*
X118591774Y-122741686D01*
X118541029Y-122850510D01*
X118541028Y-122850511D01*
X118534500Y-122900100D01*
X118534500Y-123238953D01*
X118515593Y-123297144D01*
X118466093Y-123333108D01*
X118404907Y-123333108D01*
X118365498Y-123308958D01*
X118313316Y-123256776D01*
X118313314Y-123256775D01*
X118313313Y-123256774D01*
X118204489Y-123206029D01*
X118204488Y-123206028D01*
X118178114Y-123202556D01*
X118154901Y-123199500D01*
X118154900Y-123199500D01*
X117739500Y-123199500D01*
X117681309Y-123180593D01*
X117645345Y-123131093D01*
X117640500Y-123100500D01*
X117640500Y-122310437D01*
X117640499Y-122310435D01*
X117636349Y-122294949D01*
X117620021Y-122234011D01*
X117580460Y-122165489D01*
X117524511Y-122109540D01*
X117524508Y-122109538D01*
X117455992Y-122069980D01*
X117455988Y-122069978D01*
X117379564Y-122049500D01*
X117379562Y-122049500D01*
X117344500Y-122049500D01*
X117286309Y-122030593D01*
X117250345Y-121981093D01*
X117245500Y-121950500D01*
X117245500Y-121945727D01*
X117245499Y-121945725D01*
X117242646Y-121915305D01*
X117242646Y-121915301D01*
X117197793Y-121787118D01*
X117194161Y-121782197D01*
X117117154Y-121677855D01*
X117117152Y-121677853D01*
X117117150Y-121677850D01*
X117117146Y-121677847D01*
X117117144Y-121677845D01*
X117007883Y-121597207D01*
X116879703Y-121552355D01*
X116879699Y-121552354D01*
X116879697Y-121552353D01*
X116873815Y-121551069D01*
X116874434Y-121548234D01*
X116828962Y-121528508D01*
X116797864Y-121475814D01*
X116795500Y-121454307D01*
X116795500Y-121399499D01*
X116814407Y-121341308D01*
X116863907Y-121305344D01*
X116894493Y-121300499D01*
X117097132Y-121300499D01*
X117177495Y-121284515D01*
X117268624Y-121223624D01*
X117329515Y-121132495D01*
X117345500Y-121052133D01*
X117345499Y-119672868D01*
X117329515Y-119592505D01*
X117300794Y-119549521D01*
X117287184Y-119529152D01*
X117286466Y-119526608D01*
X117284478Y-119524869D01*
X117270500Y-119474151D01*
X117270500Y-119468458D01*
X117283764Y-119418957D01*
X117317292Y-119360886D01*
X117329534Y-119315195D01*
X117362856Y-119263883D01*
X117419977Y-119241956D01*
X117479078Y-119257791D01*
X117517584Y-119305340D01*
X117520786Y-119315196D01*
X117528607Y-119344385D01*
X117528609Y-119344389D01*
X117594496Y-119458509D01*
X117594498Y-119458511D01*
X117594500Y-119458514D01*
X117615505Y-119479519D01*
X117621155Y-119490608D01*
X117630522Y-119498803D01*
X117634710Y-119517212D01*
X117643281Y-119534034D01*
X117644500Y-119549521D01*
X117644500Y-121052129D01*
X117644501Y-121052136D01*
X117660484Y-121132494D01*
X117660485Y-121132496D01*
X117708138Y-121203812D01*
X117721376Y-121223624D01*
X117812505Y-121284515D01*
X117892867Y-121300500D01*
X117909352Y-121300499D01*
X117967542Y-121319404D01*
X118003508Y-121368902D01*
X118004982Y-121425121D01*
X118003541Y-121430500D01*
X117994000Y-121466108D01*
X117994000Y-121597892D01*
X118015426Y-121677855D01*
X118028109Y-121725190D01*
X118093996Y-121839309D01*
X118093998Y-121839311D01*
X118094000Y-121839314D01*
X118187186Y-121932500D01*
X118187188Y-121932501D01*
X118187190Y-121932503D01*
X118301310Y-121998390D01*
X118301308Y-121998390D01*
X118301312Y-121998391D01*
X118301314Y-121998392D01*
X118428608Y-122032500D01*
X118428610Y-122032500D01*
X118560390Y-122032500D01*
X118560392Y-122032500D01*
X118687686Y-121998392D01*
X118687688Y-121998390D01*
X118687690Y-121998390D01*
X118801809Y-121932503D01*
X118801809Y-121932502D01*
X118801814Y-121932500D01*
X118895000Y-121839314D01*
X118895003Y-121839309D01*
X118960890Y-121725190D01*
X118960890Y-121725188D01*
X118960892Y-121725186D01*
X118977078Y-121664775D01*
X119010402Y-121613463D01*
X119067524Y-121591536D01*
X119072705Y-121591400D01*
X120898899Y-121591400D01*
X120898900Y-121591400D01*
X121000158Y-121549457D01*
X121077657Y-121471958D01*
X121077656Y-121471958D01*
X121140123Y-121409492D01*
X121194641Y-121381718D01*
X121210122Y-121380500D01*
X121474314Y-121380500D01*
X121474316Y-121380500D01*
X121523173Y-121374068D01*
X121630404Y-121324065D01*
X121696398Y-121258070D01*
X121750913Y-121230295D01*
X121811345Y-121239866D01*
X121854610Y-121283131D01*
X121865400Y-121328076D01*
X121865400Y-121379978D01*
X121846493Y-121438169D01*
X121836405Y-121449980D01*
X121815401Y-121470984D01*
X121815396Y-121470990D01*
X121749509Y-121585109D01*
X121746084Y-121597892D01*
X121715400Y-121712408D01*
X121715400Y-121844192D01*
X121739062Y-121932500D01*
X121749509Y-121971490D01*
X121815396Y-122085609D01*
X121815398Y-122085611D01*
X121815400Y-122085614D01*
X121908586Y-122178800D01*
X121908588Y-122178801D01*
X121908590Y-122178803D01*
X122022710Y-122244690D01*
X122022708Y-122244690D01*
X122022712Y-122244691D01*
X122022714Y-122244692D01*
X122150008Y-122278800D01*
X122150010Y-122278800D01*
X122281790Y-122278800D01*
X122281792Y-122278800D01*
X122409086Y-122244692D01*
X122409088Y-122244690D01*
X122409090Y-122244690D01*
X122523209Y-122178803D01*
X122523209Y-122178802D01*
X122523214Y-122178800D01*
X122616400Y-122085614D01*
X122625427Y-122069979D01*
X122682290Y-121971490D01*
X122682290Y-121971488D01*
X122682292Y-121971486D01*
X122716400Y-121844192D01*
X122716400Y-121712408D01*
X122682292Y-121585114D01*
X122678761Y-121578999D01*
X122666041Y-121519151D01*
X122690928Y-121463256D01*
X122743916Y-121432663D01*
X122764499Y-121430500D01*
X122825524Y-121430500D01*
X122825528Y-121430500D01*
X122893170Y-121420645D01*
X122997511Y-121369636D01*
X123079636Y-121287511D01*
X123130645Y-121183170D01*
X123140500Y-121115528D01*
X123140500Y-120754472D01*
X123130645Y-120686830D01*
X123079636Y-120582489D01*
X123017148Y-120520001D01*
X122989373Y-120465487D01*
X122998944Y-120405055D01*
X123017147Y-120379999D01*
X123052652Y-120344494D01*
X123107167Y-120316719D01*
X123122654Y-120315500D01*
X123232952Y-120315500D01*
X123291143Y-120334407D01*
X123302955Y-120344496D01*
X123338456Y-120379996D01*
X123351684Y-120393224D01*
X123460513Y-120443972D01*
X123510099Y-120450500D01*
X123929900Y-120450499D01*
X123979487Y-120443972D01*
X123979488Y-120443972D01*
X124038137Y-120416622D01*
X124088316Y-120393224D01*
X124173224Y-120308316D01*
X124173225Y-120308312D01*
X124173227Y-120308311D01*
X124178194Y-120301219D01*
X124180416Y-120302775D01*
X124212929Y-120267911D01*
X124260923Y-120255500D01*
X124679077Y-120255500D01*
X124737268Y-120274407D01*
X124760261Y-120302300D01*
X124761806Y-120301219D01*
X124766772Y-120308311D01*
X124766775Y-120308314D01*
X124766776Y-120308316D01*
X124851684Y-120393224D01*
X124960513Y-120443972D01*
X125010099Y-120450500D01*
X125429900Y-120450499D01*
X125438067Y-120449424D01*
X125498227Y-120460575D01*
X125520991Y-120477573D01*
X128203143Y-123159725D01*
X128230919Y-123214240D01*
X128221348Y-123274672D01*
X128188139Y-123312043D01*
X128110348Y-123364020D01*
X127964020Y-123510348D01*
X127849058Y-123682402D01*
X127769869Y-123873581D01*
X127729500Y-124076532D01*
X127729500Y-124283467D01*
X127769869Y-124486418D01*
X127849058Y-124677597D01*
X127964020Y-124849651D01*
X127964023Y-124849655D01*
X128110345Y-124995977D01*
X128110348Y-124995979D01*
X128143580Y-125018184D01*
X128181460Y-125066234D01*
X128183862Y-125127373D01*
X128149869Y-125178246D01*
X128092466Y-125199424D01*
X128088579Y-125199500D01*
X103361421Y-125199500D01*
X103303230Y-125180593D01*
X103267266Y-125131093D01*
X103267266Y-125069907D01*
X103303230Y-125020407D01*
X103306420Y-125018184D01*
X103315152Y-125012348D01*
X103339655Y-124995977D01*
X103485977Y-124849655D01*
X103600941Y-124677598D01*
X103680130Y-124486420D01*
X103720500Y-124283465D01*
X103720500Y-124076535D01*
X103680130Y-123873580D01*
X103600941Y-123682402D01*
X103485977Y-123510345D01*
X103339655Y-123364023D01*
X103339651Y-123364020D01*
X103309253Y-123343709D01*
X108579500Y-123343709D01*
X108579500Y-123556290D01*
X108612752Y-123766238D01*
X108678443Y-123968412D01*
X108774948Y-124157815D01*
X108774950Y-124157819D01*
X108899891Y-124329786D01*
X108899893Y-124329788D01*
X108899896Y-124329792D01*
X109050208Y-124480104D01*
X109050211Y-124480106D01*
X109050213Y-124480108D01*
X109222180Y-124605049D01*
X109222184Y-124605051D01*
X109411588Y-124701557D01*
X109613757Y-124767246D01*
X109613758Y-124767246D01*
X109613761Y-124767247D01*
X109823710Y-124800500D01*
X109823713Y-124800500D01*
X110036290Y-124800500D01*
X110246238Y-124767247D01*
X110246239Y-124767246D01*
X110246243Y-124767246D01*
X110448412Y-124701557D01*
X110637816Y-124605051D01*
X110809792Y-124480104D01*
X110960104Y-124329792D01*
X111083102Y-124160499D01*
X111085049Y-124157819D01*
X111085051Y-124157816D01*
X111181557Y-123968412D01*
X111247246Y-123766243D01*
X111247247Y-123766238D01*
X111280500Y-123556290D01*
X111280500Y-123343709D01*
X111247247Y-123133761D01*
X111237185Y-123102793D01*
X111181557Y-122931588D01*
X111085051Y-122742184D01*
X111085049Y-122742180D01*
X110960108Y-122570213D01*
X110960106Y-122570211D01*
X110960104Y-122570208D01*
X110809792Y-122419896D01*
X110809788Y-122419893D01*
X110809786Y-122419891D01*
X110637819Y-122294950D01*
X110637815Y-122294948D01*
X110448412Y-122198443D01*
X110246238Y-122132752D01*
X110036290Y-122099500D01*
X110036287Y-122099500D01*
X109823713Y-122099500D01*
X109823710Y-122099500D01*
X109613761Y-122132752D01*
X109411587Y-122198443D01*
X109222184Y-122294948D01*
X109222180Y-122294950D01*
X109050213Y-122419891D01*
X108899891Y-122570213D01*
X108774950Y-122742180D01*
X108774948Y-122742184D01*
X108678443Y-122931587D01*
X108612752Y-123133761D01*
X108579500Y-123343709D01*
X103309253Y-123343709D01*
X103167597Y-123249058D01*
X102976418Y-123169869D01*
X102773467Y-123129500D01*
X102773465Y-123129500D01*
X102566535Y-123129500D01*
X102566532Y-123129500D01*
X102363581Y-123169869D01*
X102172402Y-123249058D01*
X102000348Y-123364020D01*
X101854020Y-123510348D01*
X101739058Y-123682402D01*
X101659869Y-123873581D01*
X101619500Y-124076532D01*
X101619500Y-124283467D01*
X101659869Y-124486418D01*
X101739058Y-124677597D01*
X101854020Y-124849651D01*
X101854023Y-124849655D01*
X102000345Y-124995977D01*
X102000348Y-124995979D01*
X102033580Y-125018184D01*
X102071460Y-125066234D01*
X102073862Y-125127373D01*
X102039869Y-125178246D01*
X101982466Y-125199424D01*
X101978579Y-125199500D01*
X100507790Y-125199500D01*
X100492304Y-125198281D01*
X100478090Y-125196029D01*
X100453835Y-125192188D01*
X100424381Y-125182618D01*
X100396707Y-125168517D01*
X100371652Y-125150314D01*
X100349685Y-125128347D01*
X100331483Y-125103294D01*
X100317379Y-125075614D01*
X100307811Y-125046162D01*
X100301719Y-125007695D01*
X100300500Y-124992209D01*
X100300500Y-121536532D01*
X101619500Y-121536532D01*
X101619500Y-121743467D01*
X101659869Y-121946418D01*
X101739058Y-122137597D01*
X101854020Y-122309651D01*
X101854023Y-122309655D01*
X102000345Y-122455977D01*
X102172402Y-122570941D01*
X102363580Y-122650130D01*
X102566535Y-122690500D01*
X102566536Y-122690500D01*
X102773464Y-122690500D01*
X102773465Y-122690500D01*
X102976420Y-122650130D01*
X103167598Y-122570941D01*
X103339655Y-122455977D01*
X103485977Y-122309655D01*
X103600941Y-122137598D01*
X103680130Y-121946420D01*
X103720500Y-121743465D01*
X103720500Y-121536535D01*
X103720499Y-121536532D01*
X104159500Y-121536532D01*
X104159500Y-121743467D01*
X104199869Y-121946418D01*
X104279058Y-122137597D01*
X104394020Y-122309651D01*
X104394023Y-122309655D01*
X104540345Y-122455977D01*
X104712402Y-122570941D01*
X104903580Y-122650130D01*
X105106535Y-122690500D01*
X105106536Y-122690500D01*
X105313464Y-122690500D01*
X105313465Y-122690500D01*
X105516420Y-122650130D01*
X105707598Y-122570941D01*
X105879655Y-122455977D01*
X106025977Y-122309655D01*
X106140941Y-122137598D01*
X106220130Y-121946420D01*
X106260500Y-121743465D01*
X106260500Y-121536535D01*
X106220130Y-121333580D01*
X106140941Y-121142402D01*
X106025977Y-120970345D01*
X105879655Y-120824023D01*
X105879651Y-120824020D01*
X105707597Y-120709058D01*
X105516418Y-120629869D01*
X105313467Y-120589500D01*
X105313465Y-120589500D01*
X105106535Y-120589500D01*
X105106532Y-120589500D01*
X104903581Y-120629869D01*
X104712402Y-120709058D01*
X104540348Y-120824020D01*
X104394020Y-120970348D01*
X104279058Y-121142402D01*
X104199869Y-121333581D01*
X104159500Y-121536532D01*
X103720499Y-121536532D01*
X103680130Y-121333580D01*
X103600941Y-121142402D01*
X103485977Y-120970345D01*
X103339655Y-120824023D01*
X103339651Y-120824020D01*
X103167597Y-120709058D01*
X102976418Y-120629869D01*
X102773467Y-120589500D01*
X102773465Y-120589500D01*
X102566535Y-120589500D01*
X102566532Y-120589500D01*
X102363581Y-120629869D01*
X102172402Y-120709058D01*
X102000348Y-120824020D01*
X101854020Y-120970348D01*
X101739058Y-121142402D01*
X101659869Y-121333581D01*
X101619500Y-121536532D01*
X100300500Y-121536532D01*
X100300500Y-118996532D01*
X101619500Y-118996532D01*
X101619500Y-119203467D01*
X101659869Y-119406418D01*
X101739058Y-119597597D01*
X101833842Y-119739452D01*
X101854023Y-119769655D01*
X102000345Y-119915977D01*
X102172402Y-120030941D01*
X102363580Y-120110130D01*
X102566535Y-120150500D01*
X102566536Y-120150500D01*
X102773464Y-120150500D01*
X102773465Y-120150500D01*
X102976420Y-120110130D01*
X103167598Y-120030941D01*
X103339655Y-119915977D01*
X103485977Y-119769655D01*
X103600941Y-119597598D01*
X103680130Y-119406420D01*
X103720500Y-119203465D01*
X103720500Y-118996535D01*
X103720499Y-118996532D01*
X104159500Y-118996532D01*
X104159500Y-119203467D01*
X104199869Y-119406418D01*
X104279058Y-119597597D01*
X104373842Y-119739452D01*
X104394023Y-119769655D01*
X104540345Y-119915977D01*
X104712402Y-120030941D01*
X104903580Y-120110130D01*
X105106535Y-120150500D01*
X105106536Y-120150500D01*
X105313464Y-120150500D01*
X105313465Y-120150500D01*
X105516420Y-120110130D01*
X105707598Y-120030941D01*
X105879655Y-119915977D01*
X106025977Y-119769655D01*
X106140941Y-119597598D01*
X106220130Y-119406420D01*
X106260500Y-119203465D01*
X106260500Y-118996535D01*
X106220130Y-118793580D01*
X106140941Y-118602402D01*
X106025977Y-118430345D01*
X105879655Y-118284023D01*
X105872117Y-118278986D01*
X105707597Y-118169058D01*
X105516418Y-118089869D01*
X105313467Y-118049500D01*
X105313465Y-118049500D01*
X105106535Y-118049500D01*
X105106532Y-118049500D01*
X104903581Y-118089869D01*
X104712402Y-118169058D01*
X104540348Y-118284020D01*
X104394020Y-118430348D01*
X104279058Y-118602402D01*
X104199869Y-118793581D01*
X104159500Y-118996532D01*
X103720499Y-118996532D01*
X103680130Y-118793580D01*
X103600941Y-118602402D01*
X103485977Y-118430345D01*
X103339655Y-118284023D01*
X103332117Y-118278986D01*
X103167597Y-118169058D01*
X102976418Y-118089869D01*
X102773467Y-118049500D01*
X102773465Y-118049500D01*
X102566535Y-118049500D01*
X102566532Y-118049500D01*
X102363581Y-118089869D01*
X102172402Y-118169058D01*
X102000348Y-118284020D01*
X101854020Y-118430348D01*
X101739058Y-118602402D01*
X101659869Y-118793581D01*
X101619500Y-118996532D01*
X100300500Y-118996532D01*
X100300500Y-106296532D01*
X101619500Y-106296532D01*
X101619500Y-106503467D01*
X101659869Y-106706418D01*
X101739058Y-106897597D01*
X101844307Y-107055114D01*
X101854023Y-107069655D01*
X102000345Y-107215977D01*
X102172402Y-107330941D01*
X102363580Y-107410130D01*
X102566535Y-107450500D01*
X102566536Y-107450500D01*
X102773464Y-107450500D01*
X102773465Y-107450500D01*
X102976420Y-107410130D01*
X103167598Y-107330941D01*
X103339655Y-107215977D01*
X103485977Y-107069655D01*
X103600941Y-106897598D01*
X103680130Y-106706420D01*
X103720500Y-106503465D01*
X103720500Y-106296535D01*
X103680130Y-106093580D01*
X103600941Y-105902402D01*
X103485977Y-105730345D01*
X103339655Y-105584023D01*
X103339651Y-105584020D01*
X103167597Y-105469058D01*
X102976418Y-105389869D01*
X102773467Y-105349500D01*
X102773465Y-105349500D01*
X102566535Y-105349500D01*
X102566532Y-105349500D01*
X102363581Y-105389869D01*
X102172402Y-105469058D01*
X102000348Y-105584020D01*
X101854020Y-105730348D01*
X101739058Y-105902402D01*
X101659869Y-106093581D01*
X101619500Y-106296532D01*
X100300500Y-106296532D01*
X100300500Y-100507789D01*
X100301719Y-100492303D01*
X100303210Y-100482882D01*
X100307811Y-100453834D01*
X100317379Y-100424386D01*
X100331485Y-100396701D01*
X100349682Y-100371654D01*
X100371654Y-100349682D01*
X100396701Y-100331485D01*
X100424386Y-100317379D01*
X100453834Y-100307811D01*
X100482882Y-100303210D01*
X100492303Y-100301719D01*
X100507789Y-100300500D01*
X100547593Y-100300500D01*
X101528656Y-100300500D01*
X101586847Y-100319407D01*
G37*
%TD.AperFunction*%
%TA.AperFunction,Conductor*%
G36*
X125183691Y-118978907D02*
G01*
X125219655Y-119028407D01*
X125224500Y-119059000D01*
X125224500Y-119390500D01*
X125205593Y-119448691D01*
X125156093Y-119484655D01*
X125125501Y-119489500D01*
X125010104Y-119489500D01*
X125010092Y-119489501D01*
X124960513Y-119496027D01*
X124960511Y-119496027D01*
X124851686Y-119546774D01*
X124822955Y-119575505D01*
X124768438Y-119603281D01*
X124752952Y-119604500D01*
X124187048Y-119604500D01*
X124128857Y-119585593D01*
X124117045Y-119575505D01*
X124103366Y-119561826D01*
X124088316Y-119546776D01*
X124088314Y-119546775D01*
X124088313Y-119546774D01*
X124088314Y-119546774D01*
X124082658Y-119544137D01*
X124037911Y-119502407D01*
X124025500Y-119454414D01*
X124025500Y-119059000D01*
X124044407Y-119000809D01*
X124093907Y-118964845D01*
X124124500Y-118960000D01*
X125125500Y-118960000D01*
X125183691Y-118978907D01*
G37*
%TD.AperFunction*%
%TA.AperFunction,Conductor*%
G36*
X123063745Y-115236912D02*
G01*
X123107010Y-115280177D01*
X123117800Y-115325122D01*
X123117800Y-116361000D01*
X123098893Y-116419191D01*
X123049393Y-116455155D01*
X123018800Y-116460000D01*
X122700000Y-116460000D01*
X122700000Y-116460001D01*
X122700000Y-116866092D01*
X122681093Y-116924283D01*
X122631593Y-116960247D01*
X122570407Y-116960247D01*
X122551500Y-116951829D01*
X122467287Y-116903208D01*
X122424854Y-116891838D01*
X122339992Y-116869100D01*
X122208208Y-116869100D01*
X122144561Y-116886154D01*
X122080912Y-116903208D01*
X121993999Y-116953388D01*
X121934150Y-116966109D01*
X121878255Y-116941222D01*
X121847662Y-116888234D01*
X121845499Y-116867651D01*
X121845499Y-116847870D01*
X121845498Y-116847862D01*
X121829515Y-116767506D01*
X121829515Y-116767505D01*
X121821159Y-116755000D01*
X121804551Y-116696114D01*
X121821159Y-116644999D01*
X121829515Y-116632495D01*
X121845500Y-116552133D01*
X121845499Y-116347868D01*
X121844200Y-116341336D01*
X121851392Y-116280575D01*
X121892925Y-116235645D01*
X121910121Y-116229302D01*
X121910092Y-116229231D01*
X121919099Y-116225500D01*
X121919100Y-116225500D01*
X122020358Y-116183557D01*
X122097857Y-116106058D01*
X122097856Y-116106058D01*
X122948797Y-115255117D01*
X123003313Y-115227341D01*
X123063745Y-115236912D01*
G37*
%TD.AperFunction*%
%TA.AperFunction,Conductor*%
G36*
X114513858Y-111266474D02*
G01*
X114572642Y-111325258D01*
X114583384Y-111329707D01*
X114629910Y-111369443D01*
X114644500Y-111421172D01*
X114644500Y-112727129D01*
X114644501Y-112727136D01*
X114660484Y-112807494D01*
X114660485Y-112807496D01*
X114721373Y-112898620D01*
X114721376Y-112898624D01*
X114737653Y-112909500D01*
X114746519Y-112915424D01*
X114761519Y-112927735D01*
X114901203Y-113067418D01*
X114928981Y-113121935D01*
X114930200Y-113137422D01*
X114930200Y-113141408D01*
X114930200Y-113273192D01*
X114949921Y-113346793D01*
X114964309Y-113400490D01*
X115030196Y-113514609D01*
X115030198Y-113514611D01*
X115030200Y-113514614D01*
X115086184Y-113570598D01*
X115113960Y-113625113D01*
X115104389Y-113685545D01*
X115061124Y-113728810D01*
X115016179Y-113739600D01*
X114439124Y-113739600D01*
X114380933Y-113720693D01*
X114369120Y-113710604D01*
X114086323Y-113427807D01*
X113800512Y-113141996D01*
X113772736Y-113087481D01*
X113782307Y-113027049D01*
X113825572Y-112983784D01*
X113886004Y-112974213D01*
X113889834Y-112974897D01*
X113891129Y-112975154D01*
X113892867Y-112975500D01*
X114097132Y-112975499D01*
X114177495Y-112959515D01*
X114268624Y-112898624D01*
X114329515Y-112807495D01*
X114345500Y-112727133D01*
X114345500Y-112040988D01*
X114345500Y-111991356D01*
X114345500Y-111979834D01*
X114345499Y-111979824D01*
X114345499Y-111347870D01*
X114345333Y-111346186D01*
X114345499Y-111345429D01*
X114345499Y-111343005D01*
X114346031Y-111343005D01*
X114358443Y-111286422D01*
X114404178Y-111245778D01*
X114465069Y-111239778D01*
X114513858Y-111266474D01*
G37*
%TD.AperFunction*%
%TA.AperFunction,Conductor*%
G36*
X112526513Y-109946769D02*
G01*
X112534626Y-109948942D01*
X112540435Y-109950499D01*
X112540437Y-109950500D01*
X112540438Y-109950500D01*
X112617605Y-109950500D01*
X112675796Y-109969407D01*
X112707329Y-110007660D01*
X112717933Y-110030401D01*
X112717934Y-110030402D01*
X112717935Y-110030404D01*
X112801596Y-110114065D01*
X112801597Y-110114065D01*
X112801598Y-110114066D01*
X112908824Y-110164067D01*
X112908825Y-110164067D01*
X112908827Y-110164068D01*
X112957684Y-110170500D01*
X112957685Y-110170500D01*
X113306314Y-110170500D01*
X113306316Y-110170500D01*
X113355173Y-110164068D01*
X113462404Y-110114065D01*
X113546065Y-110030404D01*
X113552275Y-110017085D01*
X113594003Y-109972337D01*
X113654064Y-109960662D01*
X113709517Y-109986519D01*
X113731725Y-110017086D01*
X113737935Y-110030404D01*
X113742903Y-110037499D01*
X113740495Y-110039184D01*
X113761808Y-110081035D01*
X113752223Y-110141465D01*
X113734027Y-110166503D01*
X113695935Y-110204595D01*
X113695933Y-110204598D01*
X113645932Y-110311824D01*
X113645932Y-110311825D01*
X113645932Y-110311827D01*
X113639500Y-110360684D01*
X113639500Y-110809316D01*
X113639636Y-110810348D01*
X113645932Y-110858174D01*
X113645932Y-110858175D01*
X113695933Y-110965401D01*
X113695934Y-110965402D01*
X113695935Y-110965404D01*
X113747295Y-111016764D01*
X113775071Y-111071279D01*
X113765500Y-111131711D01*
X113732295Y-111169079D01*
X113721380Y-111176372D01*
X113721373Y-111176379D01*
X113660486Y-111267501D01*
X113660486Y-111267503D01*
X113660485Y-111267505D01*
X113649944Y-111320500D01*
X113644500Y-111347866D01*
X113644500Y-111588000D01*
X113625593Y-111646191D01*
X113576093Y-111682155D01*
X113545500Y-111687000D01*
X112657657Y-111687000D01*
X112599466Y-111668093D01*
X112567933Y-111629839D01*
X112528225Y-111544686D01*
X112528224Y-111544685D01*
X112528224Y-111544684D01*
X112443316Y-111459776D01*
X112443314Y-111459775D01*
X112443313Y-111459774D01*
X112334489Y-111409029D01*
X112334488Y-111409028D01*
X112309694Y-111405764D01*
X112284901Y-111402500D01*
X112284900Y-111402500D01*
X112131190Y-111402500D01*
X112072999Y-111383593D01*
X112061186Y-111373504D01*
X111852896Y-111165214D01*
X111825119Y-111110697D01*
X111823900Y-111095210D01*
X111823900Y-110310790D01*
X111842807Y-110252599D01*
X111852896Y-110240786D01*
X111924186Y-110169496D01*
X111978703Y-110141719D01*
X111994190Y-110140500D01*
X112158524Y-110140500D01*
X112158528Y-110140500D01*
X112226170Y-110130645D01*
X112330511Y-110079636D01*
X112412636Y-109997511D01*
X112412639Y-109997504D01*
X112417401Y-109990836D01*
X112418801Y-109991835D01*
X112454478Y-109954948D01*
X112514742Y-109944369D01*
X112526513Y-109946769D01*
G37*
%TD.AperFunction*%
%TA.AperFunction,Conductor*%
G36*
X117889945Y-107058606D02*
G01*
X117915000Y-107076809D01*
X117919705Y-107081514D01*
X117919707Y-107081515D01*
X117919709Y-107081517D01*
X118049791Y-107156620D01*
X118049789Y-107156620D01*
X118049793Y-107156621D01*
X118049795Y-107156622D01*
X118194892Y-107195500D01*
X118194894Y-107195500D01*
X118345106Y-107195500D01*
X118345108Y-107195500D01*
X118490205Y-107156622D01*
X118620295Y-107081514D01*
X118620296Y-107081512D01*
X118620999Y-107081107D01*
X118680848Y-107068385D01*
X118736743Y-107093271D01*
X118767336Y-107146259D01*
X118769500Y-107166843D01*
X118769500Y-107357561D01*
X118750593Y-107415752D01*
X118740438Y-107427631D01*
X117847473Y-108318913D01*
X117846922Y-108319397D01*
X117842788Y-108323531D01*
X117810655Y-108355663D01*
X117777724Y-108388532D01*
X117777549Y-108388761D01*
X117777540Y-108388771D01*
X117754725Y-108428287D01*
X117754681Y-108428363D01*
X117731506Y-108468417D01*
X117731386Y-108468707D01*
X117719412Y-108513396D01*
X117719389Y-108513483D01*
X117707539Y-108557541D01*
X117707500Y-108557846D01*
X117707500Y-108603949D01*
X117707451Y-108655841D01*
X117707500Y-108656586D01*
X117707500Y-108891953D01*
X117688593Y-108950144D01*
X117678509Y-108961950D01*
X117625729Y-109014731D01*
X117604774Y-109035686D01*
X117569284Y-109111794D01*
X117527555Y-109156542D01*
X117506405Y-109165245D01*
X117273738Y-109230791D01*
X117246893Y-109234500D01*
X116565856Y-109234500D01*
X116555358Y-109237313D01*
X116516827Y-109247637D01*
X116476709Y-109258386D01*
X116396790Y-109304528D01*
X116396788Y-109304530D01*
X116114531Y-109586784D01*
X116094807Y-109620948D01*
X116049337Y-109661888D01*
X115997661Y-109669787D01*
X115995189Y-109669500D01*
X115995185Y-109669500D01*
X115968013Y-109669500D01*
X115909822Y-109650593D01*
X115873858Y-109601093D01*
X115870919Y-109569081D01*
X115869200Y-109569081D01*
X115869200Y-109430809D01*
X115868019Y-109426400D01*
X115835092Y-109303514D01*
X115835090Y-109303511D01*
X115835090Y-109303509D01*
X115769203Y-109189390D01*
X115769201Y-109189388D01*
X115769200Y-109189386D01*
X115693466Y-109113652D01*
X115665691Y-109059138D01*
X115675262Y-108998706D01*
X115693468Y-108973647D01*
X115767620Y-108899495D01*
X115822137Y-108871718D01*
X115837624Y-108870499D01*
X115995181Y-108870499D01*
X115995184Y-108870499D01*
X116019786Y-108867646D01*
X116120422Y-108823211D01*
X116198211Y-108745422D01*
X116242646Y-108644786D01*
X116245500Y-108620185D01*
X116245499Y-108219816D01*
X116242646Y-108195214D01*
X116198211Y-108094578D01*
X116120422Y-108016789D01*
X116019786Y-107972354D01*
X116019785Y-107972353D01*
X116019783Y-107972353D01*
X115995188Y-107969500D01*
X115719819Y-107969500D01*
X115719816Y-107969501D01*
X115695214Y-107972354D01*
X115623894Y-108003845D01*
X115594576Y-108016790D01*
X115544693Y-108066673D01*
X115490176Y-108094450D01*
X115429744Y-108084878D01*
X115404686Y-108066673D01*
X115402301Y-108064288D01*
X115402300Y-108064286D01*
X115309114Y-107971100D01*
X115309111Y-107971098D01*
X115309109Y-107971096D01*
X115194991Y-107905210D01*
X115194988Y-107905209D01*
X115194986Y-107905208D01*
X115101255Y-107880093D01*
X115085002Y-107875738D01*
X115033688Y-107842413D01*
X115011762Y-107785292D01*
X115027598Y-107726191D01*
X115061128Y-107694374D01*
X115085207Y-107680472D01*
X115085207Y-107680471D01*
X115085212Y-107680469D01*
X115150469Y-107615212D01*
X115196614Y-107535288D01*
X115220500Y-107446144D01*
X115220500Y-107166843D01*
X115239407Y-107108652D01*
X115288907Y-107072688D01*
X115350093Y-107072688D01*
X115369001Y-107081107D01*
X115369703Y-107081512D01*
X115369705Y-107081514D01*
X115499795Y-107156622D01*
X115644892Y-107195500D01*
X115644894Y-107195500D01*
X115795106Y-107195500D01*
X115795108Y-107195500D01*
X115940205Y-107156622D01*
X115940207Y-107156620D01*
X115940209Y-107156620D01*
X116070290Y-107081517D01*
X116070290Y-107081516D01*
X116070295Y-107081514D01*
X116074998Y-107076810D01*
X116129513Y-107049035D01*
X116189945Y-107058606D01*
X116215000Y-107076809D01*
X116219705Y-107081514D01*
X116219707Y-107081515D01*
X116219709Y-107081517D01*
X116349791Y-107156620D01*
X116349789Y-107156620D01*
X116349793Y-107156621D01*
X116349795Y-107156622D01*
X116494892Y-107195500D01*
X116494894Y-107195500D01*
X116558000Y-107195500D01*
X116616191Y-107214407D01*
X116652155Y-107263907D01*
X116657000Y-107294500D01*
X116657000Y-107988359D01*
X116638093Y-108046550D01*
X116628004Y-108058362D01*
X116591790Y-108094576D01*
X116547353Y-108195216D01*
X116544500Y-108219808D01*
X116544500Y-108620180D01*
X116544500Y-108620182D01*
X116544501Y-108620184D01*
X116547354Y-108644786D01*
X116591789Y-108745422D01*
X116669578Y-108823211D01*
X116770214Y-108867646D01*
X116794815Y-108870500D01*
X117070184Y-108870499D01*
X117094786Y-108867646D01*
X117195422Y-108823211D01*
X117273211Y-108745422D01*
X117317646Y-108644786D01*
X117320500Y-108620185D01*
X117320499Y-108219816D01*
X117317646Y-108195214D01*
X117273211Y-108094578D01*
X117257018Y-108078385D01*
X117236996Y-108058362D01*
X117209219Y-108003845D01*
X117208000Y-107988359D01*
X117208000Y-107287839D01*
X117226907Y-107229648D01*
X117276407Y-107193684D01*
X117332621Y-107192212D01*
X117344892Y-107195500D01*
X117344894Y-107195500D01*
X117495106Y-107195500D01*
X117495108Y-107195500D01*
X117640205Y-107156622D01*
X117640207Y-107156620D01*
X117640209Y-107156620D01*
X117770290Y-107081517D01*
X117770290Y-107081516D01*
X117770295Y-107081514D01*
X117774998Y-107076810D01*
X117829513Y-107049035D01*
X117889945Y-107058606D01*
G37*
%TD.AperFunction*%
%TA.AperFunction,Conductor*%
G36*
X114765294Y-107769407D02*
G01*
X114801258Y-107818907D01*
X114801258Y-107880093D01*
X114765294Y-107929593D01*
X114756607Y-107935233D01*
X114737787Y-107946100D01*
X114694487Y-107971099D01*
X114694486Y-107971099D01*
X114694486Y-107971100D01*
X114601300Y-108064286D01*
X114601298Y-108064288D01*
X114598483Y-108067104D01*
X114543966Y-108094881D01*
X114528479Y-108096100D01*
X114516599Y-108096100D01*
X114491284Y-108106586D01*
X114449188Y-108124023D01*
X114446916Y-108124964D01*
X114409030Y-108132500D01*
X114115684Y-108132500D01*
X114099398Y-108134644D01*
X114066825Y-108138932D01*
X114066824Y-108138932D01*
X113959598Y-108188933D01*
X113875933Y-108272598D01*
X113825932Y-108379824D01*
X113825932Y-108379825D01*
X113819500Y-108428685D01*
X113819500Y-108877314D01*
X113825932Y-108926174D01*
X113825932Y-108926175D01*
X113879595Y-109041254D01*
X113878230Y-109041890D01*
X113893290Y-109091158D01*
X113873367Y-109149009D01*
X113836146Y-109179149D01*
X113821599Y-109185932D01*
X113737933Y-109269598D01*
X113731724Y-109282915D01*
X113689995Y-109327663D01*
X113629934Y-109339337D01*
X113574482Y-109313478D01*
X113552276Y-109282915D01*
X113546066Y-109269598D01*
X113546065Y-109269597D01*
X113546065Y-109269596D01*
X113462404Y-109185935D01*
X113462402Y-109185934D01*
X113462401Y-109185933D01*
X113355175Y-109135932D01*
X113322601Y-109131644D01*
X113306316Y-109129500D01*
X112979500Y-109129500D01*
X112921309Y-109110593D01*
X112885345Y-109061093D01*
X112880500Y-109030500D01*
X112880500Y-107849500D01*
X112899407Y-107791309D01*
X112948907Y-107755345D01*
X112979500Y-107750500D01*
X114707103Y-107750500D01*
X114765294Y-107769407D01*
G37*
%TD.AperFunction*%
%TA.AperFunction,Conductor*%
G36*
X120629798Y-104455407D02*
G01*
X120665762Y-104504907D01*
X120665762Y-104566093D01*
X120663071Y-104573385D01*
X120618054Y-104682065D01*
X120590000Y-104823100D01*
X120590000Y-104854608D01*
X120571093Y-104912799D01*
X120521593Y-104948763D01*
X120506759Y-104950371D01*
X120182132Y-105274999D01*
X120182132Y-105275000D01*
X120510377Y-105603246D01*
X120541057Y-105609977D01*
X120581701Y-105655712D01*
X120590000Y-105695389D01*
X120590000Y-106204608D01*
X120571093Y-106262799D01*
X120521593Y-106298763D01*
X120506759Y-106300371D01*
X120182132Y-106624999D01*
X120182132Y-106625000D01*
X120501962Y-106944831D01*
X120519438Y-106918677D01*
X120552843Y-106838030D01*
X120592579Y-106791504D01*
X120652074Y-106777220D01*
X120708602Y-106800634D01*
X120726623Y-106820914D01*
X120752969Y-106860344D01*
X120854655Y-106962030D01*
X120974217Y-107041918D01*
X121006664Y-107055358D01*
X121053190Y-107095094D01*
X121067474Y-107154589D01*
X121044060Y-107211117D01*
X120991891Y-107243086D01*
X120981710Y-107244974D01*
X120980762Y-107245098D01*
X120891607Y-107268987D01*
X120811691Y-107315127D01*
X120811686Y-107315131D01*
X120331768Y-107795048D01*
X120277252Y-107822825D01*
X120216820Y-107813254D01*
X120191764Y-107795050D01*
X120105114Y-107708400D01*
X120105111Y-107708398D01*
X120105109Y-107708396D01*
X119990989Y-107642509D01*
X119990991Y-107642509D01*
X119923006Y-107624293D01*
X119863692Y-107608400D01*
X119731908Y-107608400D01*
X119604614Y-107642508D01*
X119604612Y-107642508D01*
X119598346Y-107644188D01*
X119597791Y-107642119D01*
X119546363Y-107646153D01*
X119494203Y-107614170D01*
X119470803Y-107557636D01*
X119470500Y-107549895D01*
X119470500Y-107543800D01*
X119470527Y-107515312D01*
X119470543Y-107498187D01*
X119470542Y-107498184D01*
X119470548Y-107492200D01*
X119470500Y-107491450D01*
X119470500Y-107222128D01*
X119489407Y-107163937D01*
X119538907Y-107127973D01*
X119600093Y-107127973D01*
X119624502Y-107139813D01*
X119676321Y-107174437D01*
X119789152Y-107221173D01*
X119908932Y-107244999D01*
X119908936Y-107245000D01*
X120031064Y-107245000D01*
X120031067Y-107244999D01*
X120150846Y-107221173D01*
X120150848Y-107221173D01*
X120263677Y-107174438D01*
X120289830Y-107156962D01*
X119947868Y-106815000D01*
X120007793Y-106815000D01*
X120077626Y-106786074D01*
X120131074Y-106732626D01*
X120160000Y-106662793D01*
X120160000Y-106587207D01*
X120131074Y-106517374D01*
X120077626Y-106463926D01*
X120007793Y-106435000D01*
X119947866Y-106435000D01*
X120289830Y-106093035D01*
X120263680Y-106075562D01*
X120181358Y-106041464D01*
X120134832Y-106001728D01*
X120120548Y-105942233D01*
X120143963Y-105885705D01*
X120181358Y-105858536D01*
X120263677Y-105824438D01*
X120289830Y-105806962D01*
X119947868Y-105465000D01*
X120007793Y-105465000D01*
X120077626Y-105436074D01*
X120131074Y-105382626D01*
X120160000Y-105312793D01*
X120160000Y-105237207D01*
X120131074Y-105167374D01*
X120077626Y-105113926D01*
X120007793Y-105085000D01*
X119932207Y-105085000D01*
X119862374Y-105113926D01*
X119808926Y-105167374D01*
X119780000Y-105237207D01*
X119780000Y-105297132D01*
X119712089Y-105229221D01*
X119686467Y-105184840D01*
X119651622Y-105054795D01*
X119620209Y-105000386D01*
X119603727Y-104971838D01*
X119591005Y-104911990D01*
X119615891Y-104856094D01*
X119668879Y-104825501D01*
X119729729Y-104831897D01*
X119759467Y-104852334D01*
X119970000Y-105062867D01*
X120289830Y-104743036D01*
X120289830Y-104743035D01*
X120263680Y-104725562D01*
X120150847Y-104678826D01*
X120031067Y-104655000D01*
X119908932Y-104655000D01*
X119789154Y-104678825D01*
X119676319Y-104725563D01*
X119676312Y-104725567D01*
X119650167Y-104743035D01*
X119647791Y-104767158D01*
X119623270Y-104823215D01*
X119570482Y-104854152D01*
X119509592Y-104848154D01*
X119479267Y-104827458D01*
X119470295Y-104818486D01*
X119470292Y-104818484D01*
X119470290Y-104818482D01*
X119340208Y-104743379D01*
X119340210Y-104743379D01*
X119273717Y-104725563D01*
X119195108Y-104704500D01*
X119044892Y-104704500D01*
X118966283Y-104725563D01*
X118899790Y-104743379D01*
X118769709Y-104818482D01*
X118769702Y-104818488D01*
X118765000Y-104823190D01*
X118710482Y-104850965D01*
X118650050Y-104841390D01*
X118625000Y-104823190D01*
X118620297Y-104818488D01*
X118620290Y-104818482D01*
X118490208Y-104743379D01*
X118490210Y-104743379D01*
X118423717Y-104725563D01*
X118345108Y-104704500D01*
X118194892Y-104704500D01*
X118116283Y-104725563D01*
X118049790Y-104743379D01*
X117919709Y-104818482D01*
X117919702Y-104818488D01*
X117915000Y-104823190D01*
X117860482Y-104850965D01*
X117800050Y-104841390D01*
X117775000Y-104823190D01*
X117770297Y-104818488D01*
X117770290Y-104818482D01*
X117640208Y-104743379D01*
X117640210Y-104743379D01*
X117573717Y-104725563D01*
X117495108Y-104704500D01*
X117344892Y-104704500D01*
X117266283Y-104725563D01*
X117199790Y-104743379D01*
X117069709Y-104818482D01*
X117069702Y-104818488D01*
X117065000Y-104823190D01*
X117010482Y-104850965D01*
X116950050Y-104841390D01*
X116925000Y-104823190D01*
X116920297Y-104818488D01*
X116920290Y-104818482D01*
X116790208Y-104743379D01*
X116790210Y-104743379D01*
X116723717Y-104725563D01*
X116645108Y-104704500D01*
X116494892Y-104704500D01*
X116416283Y-104725563D01*
X116349790Y-104743379D01*
X116219709Y-104818482D01*
X116219702Y-104818488D01*
X116215000Y-104823190D01*
X116160482Y-104850965D01*
X116100050Y-104841390D01*
X116075000Y-104823190D01*
X116070297Y-104818488D01*
X116070290Y-104818482D01*
X115940208Y-104743379D01*
X115940210Y-104743379D01*
X115873717Y-104725563D01*
X115795108Y-104704500D01*
X115644892Y-104704500D01*
X115566283Y-104725563D01*
X115499790Y-104743379D01*
X115369709Y-104818482D01*
X115369702Y-104818488D01*
X115365000Y-104823190D01*
X115310482Y-104850965D01*
X115250050Y-104841390D01*
X115225000Y-104823190D01*
X115220297Y-104818488D01*
X115220290Y-104818482D01*
X115090208Y-104743379D01*
X115090210Y-104743379D01*
X115023717Y-104725563D01*
X114945108Y-104704500D01*
X114794892Y-104704500D01*
X114716283Y-104725563D01*
X114649790Y-104743379D01*
X114519709Y-104818482D01*
X114519702Y-104818487D01*
X114510731Y-104827459D01*
X114456213Y-104855235D01*
X114395782Y-104845661D01*
X114352519Y-104802395D01*
X114342207Y-104767158D01*
X114339830Y-104743035D01*
X114313680Y-104725562D01*
X114200847Y-104678826D01*
X114081067Y-104655000D01*
X113958932Y-104655000D01*
X113839154Y-104678825D01*
X113726319Y-104725563D01*
X113726312Y-104725567D01*
X113700168Y-104743035D01*
X114020000Y-105062867D01*
X114230533Y-104852334D01*
X114285050Y-104824556D01*
X114345482Y-104834127D01*
X114388747Y-104877392D01*
X114398318Y-104937824D01*
X114386273Y-104971837D01*
X114338379Y-105054790D01*
X114303533Y-105184840D01*
X114277910Y-105229220D01*
X114210000Y-105297130D01*
X114210000Y-105237207D01*
X114181074Y-105167374D01*
X114127626Y-105113926D01*
X114057793Y-105085000D01*
X113982207Y-105085000D01*
X113912374Y-105113926D01*
X113858926Y-105167374D01*
X113830000Y-105237207D01*
X113830000Y-105312793D01*
X113858926Y-105382626D01*
X113912374Y-105436074D01*
X113982207Y-105465000D01*
X114042132Y-105465000D01*
X113700168Y-105806963D01*
X113726322Y-105824438D01*
X113808642Y-105858536D01*
X113855168Y-105898272D01*
X113869452Y-105957767D01*
X113846037Y-106014295D01*
X113808643Y-106041464D01*
X113726319Y-106075563D01*
X113726312Y-106075567D01*
X113700168Y-106093035D01*
X114042133Y-106435000D01*
X113982207Y-106435000D01*
X113912374Y-106463926D01*
X113858926Y-106517374D01*
X113830000Y-106587207D01*
X113830000Y-106647133D01*
X113479617Y-106296750D01*
X113448940Y-106290020D01*
X113408298Y-106244284D01*
X113400000Y-106204609D01*
X113400000Y-105695389D01*
X113418907Y-105637198D01*
X113468407Y-105601234D01*
X113483240Y-105599626D01*
X113807867Y-105275000D01*
X113479617Y-104946750D01*
X113448940Y-104940020D01*
X113408298Y-104894284D01*
X113400000Y-104854609D01*
X113400000Y-104823102D01*
X113399999Y-104823100D01*
X113371945Y-104682065D01*
X113326929Y-104573385D01*
X113322128Y-104512388D01*
X113354098Y-104460220D01*
X113410626Y-104436805D01*
X113418393Y-104436500D01*
X120571607Y-104436500D01*
X120629798Y-104455407D01*
G37*
%TD.AperFunction*%
%TA.AperFunction,Conductor*%
G36*
X111165067Y-103994407D02*
G01*
X111201031Y-104043907D01*
X111201031Y-104105093D01*
X111176880Y-104144504D01*
X110672881Y-104648504D01*
X110618364Y-104676281D01*
X110602877Y-104677500D01*
X110338684Y-104677500D01*
X110328612Y-104678826D01*
X110289825Y-104683932D01*
X110289824Y-104683932D01*
X110182598Y-104733933D01*
X110182596Y-104733934D01*
X110182596Y-104733935D01*
X110150501Y-104766029D01*
X110095987Y-104793805D01*
X110035555Y-104784234D01*
X110010499Y-104766030D01*
X109950404Y-104705935D01*
X109950402Y-104705934D01*
X109950401Y-104705933D01*
X109843175Y-104655932D01*
X109810601Y-104651644D01*
X109794316Y-104649500D01*
X109445684Y-104649500D01*
X109429398Y-104651644D01*
X109396825Y-104655932D01*
X109396824Y-104655932D01*
X109289598Y-104705933D01*
X109205933Y-104789598D01*
X109155932Y-104896824D01*
X109155932Y-104896825D01*
X109155932Y-104896827D01*
X109149500Y-104945684D01*
X109149500Y-105394316D01*
X109153029Y-105421119D01*
X109155932Y-105443174D01*
X109155932Y-105443175D01*
X109205933Y-105550401D01*
X109205934Y-105550402D01*
X109205935Y-105550404D01*
X109286029Y-105630498D01*
X109313805Y-105685013D01*
X109304234Y-105745445D01*
X109260969Y-105788710D01*
X109216024Y-105799500D01*
X108650725Y-105799500D01*
X108620305Y-105802353D01*
X108620296Y-105802355D01*
X108492118Y-105847206D01*
X108483288Y-105853724D01*
X108425240Y-105873065D01*
X108366909Y-105854593D01*
X108330577Y-105805363D01*
X108325500Y-105774068D01*
X108325500Y-104074500D01*
X108344407Y-104016309D01*
X108393907Y-103980345D01*
X108424500Y-103975500D01*
X111106876Y-103975500D01*
X111165067Y-103994407D01*
G37*
%TD.AperFunction*%
%TA.AperFunction,Conductor*%
G36*
X127696847Y-100319407D02*
G01*
X127732811Y-100368907D01*
X127735753Y-100418816D01*
X127729500Y-100450244D01*
X127729500Y-100933464D01*
X127710593Y-100991655D01*
X127680001Y-101019200D01*
X127644790Y-101039529D01*
X124749528Y-103934790D01*
X124709026Y-104004940D01*
X124709027Y-104004941D01*
X124703388Y-104014706D01*
X124703386Y-104014711D01*
X124703386Y-104014712D01*
X124695564Y-104043907D01*
X124679500Y-104103857D01*
X124679500Y-104222067D01*
X124661597Y-104278850D01*
X124657151Y-104285199D01*
X124610501Y-104385240D01*
X124610501Y-104385241D01*
X124604500Y-104430822D01*
X124604500Y-104729548D01*
X124585593Y-104787739D01*
X124536093Y-104823703D01*
X124479878Y-104825175D01*
X124437199Y-104813739D01*
X124412792Y-104807200D01*
X124281008Y-104807200D01*
X124213924Y-104825175D01*
X124153709Y-104841309D01*
X124039590Y-104907196D01*
X124039589Y-104907197D01*
X124039586Y-104907199D01*
X124039586Y-104907200D01*
X123946400Y-105000386D01*
X123946398Y-105000388D01*
X123943583Y-105003204D01*
X123889066Y-105030981D01*
X123873579Y-105032200D01*
X123499500Y-105032200D01*
X123441309Y-105013293D01*
X123405345Y-104963793D01*
X123400500Y-104933200D01*
X123400499Y-104570826D01*
X123400498Y-104570814D01*
X123394499Y-104525240D01*
X123394499Y-104525238D01*
X123347851Y-104425203D01*
X123347849Y-104425200D01*
X123329495Y-104406845D01*
X123301719Y-104352328D01*
X123300500Y-104336843D01*
X123300500Y-103607148D01*
X123300500Y-103607147D01*
X123278318Y-103524362D01*
X123235465Y-103450138D01*
X123174862Y-103389535D01*
X123100638Y-103346682D01*
X123017853Y-103324500D01*
X123017851Y-103324500D01*
X121931883Y-103324500D01*
X121873692Y-103305593D01*
X121837728Y-103256093D01*
X121837728Y-103194907D01*
X121861879Y-103155496D01*
X121887030Y-103130344D01*
X121966918Y-103010782D01*
X122021945Y-102877934D01*
X122049999Y-102736899D01*
X122050000Y-102736897D01*
X122050000Y-102415001D01*
X122049999Y-102415000D01*
X121620000Y-102415000D01*
X121620000Y-102115000D01*
X122049999Y-102115000D01*
X122050000Y-102114999D01*
X122050000Y-101943709D01*
X122709500Y-101943709D01*
X122709500Y-102156290D01*
X122742752Y-102366238D01*
X122808443Y-102568412D01*
X122904948Y-102757815D01*
X122904950Y-102757819D01*
X123029891Y-102929786D01*
X123029893Y-102929788D01*
X123029896Y-102929792D01*
X123180208Y-103080104D01*
X123180211Y-103080106D01*
X123180213Y-103080108D01*
X123352180Y-103205049D01*
X123352184Y-103205051D01*
X123541588Y-103301557D01*
X123743757Y-103367246D01*
X123743758Y-103367246D01*
X123743761Y-103367247D01*
X123953710Y-103400500D01*
X123953713Y-103400500D01*
X124166290Y-103400500D01*
X124376238Y-103367247D01*
X124376239Y-103367246D01*
X124376243Y-103367246D01*
X124578412Y-103301557D01*
X124767816Y-103205051D01*
X124774938Y-103199877D01*
X124870642Y-103130344D01*
X124939792Y-103080104D01*
X125090104Y-102929792D01*
X125182804Y-102802200D01*
X125215049Y-102757819D01*
X125215051Y-102757816D01*
X125311557Y-102568412D01*
X125377246Y-102366243D01*
X125395937Y-102248233D01*
X125410500Y-102156290D01*
X125410500Y-101943709D01*
X125377247Y-101733761D01*
X125377246Y-101733757D01*
X125311557Y-101531588D01*
X125215051Y-101342184D01*
X125215049Y-101342180D01*
X125090108Y-101170213D01*
X125090106Y-101170211D01*
X125090104Y-101170208D01*
X124939792Y-101019896D01*
X124939788Y-101019893D01*
X124939786Y-101019891D01*
X124767819Y-100894950D01*
X124767815Y-100894948D01*
X124578412Y-100798443D01*
X124376238Y-100732752D01*
X124166290Y-100699500D01*
X124166287Y-100699500D01*
X123953713Y-100699500D01*
X123953710Y-100699500D01*
X123743761Y-100732752D01*
X123541587Y-100798443D01*
X123352184Y-100894948D01*
X123352180Y-100894950D01*
X123180213Y-101019891D01*
X123029891Y-101170213D01*
X122904950Y-101342180D01*
X122904948Y-101342184D01*
X122808443Y-101531587D01*
X122742752Y-101733761D01*
X122709500Y-101943709D01*
X122050000Y-101943709D01*
X122050000Y-101793102D01*
X122049999Y-101793100D01*
X122021945Y-101652065D01*
X121966918Y-101519217D01*
X121887030Y-101399655D01*
X121785344Y-101297969D01*
X121665784Y-101218082D01*
X121532933Y-101163054D01*
X121470000Y-101150535D01*
X121470000Y-101605191D01*
X121435796Y-101585444D01*
X121359496Y-101565000D01*
X121280504Y-101565000D01*
X121204204Y-101585444D01*
X121170000Y-101605191D01*
X121170000Y-101150535D01*
X121107066Y-101163054D01*
X120974215Y-101218082D01*
X120854655Y-101297969D01*
X120752969Y-101399655D01*
X120673081Y-101519217D01*
X120618054Y-101652065D01*
X120590000Y-101793100D01*
X120590000Y-102114999D01*
X120590001Y-102115000D01*
X121020000Y-102115000D01*
X121020000Y-102415000D01*
X120590001Y-102415000D01*
X120590000Y-102415001D01*
X120590000Y-102736899D01*
X120618054Y-102877934D01*
X120673081Y-103010782D01*
X120752969Y-103130344D01*
X120778121Y-103155496D01*
X120805898Y-103210013D01*
X120796327Y-103270445D01*
X120753062Y-103313710D01*
X120708117Y-103324500D01*
X113281883Y-103324500D01*
X113223692Y-103305593D01*
X113187728Y-103256093D01*
X113187728Y-103194907D01*
X113211879Y-103155496D01*
X113237030Y-103130344D01*
X113316918Y-103010782D01*
X113371945Y-102877934D01*
X113399999Y-102736899D01*
X113400000Y-102736897D01*
X113400000Y-102415001D01*
X113399999Y-102415000D01*
X112970000Y-102415000D01*
X112970000Y-102115000D01*
X113399999Y-102115000D01*
X113400000Y-102114999D01*
X113400000Y-101793102D01*
X113399999Y-101793100D01*
X113371945Y-101652065D01*
X113316918Y-101519217D01*
X113237030Y-101399655D01*
X113135344Y-101297969D01*
X113015784Y-101218082D01*
X112882933Y-101163054D01*
X112820000Y-101150535D01*
X112820000Y-101605191D01*
X112785796Y-101585444D01*
X112709496Y-101565000D01*
X112630504Y-101565000D01*
X112554204Y-101585444D01*
X112520000Y-101605191D01*
X112520000Y-101150535D01*
X112457066Y-101163054D01*
X112324215Y-101218082D01*
X112204655Y-101297969D01*
X112102969Y-101399655D01*
X112023081Y-101519217D01*
X111968054Y-101652065D01*
X111940000Y-101793100D01*
X111940000Y-102114999D01*
X111940001Y-102115000D01*
X112370000Y-102115000D01*
X112370000Y-102415000D01*
X111940001Y-102415000D01*
X111940000Y-102415001D01*
X111940000Y-102736899D01*
X111968054Y-102877934D01*
X112023081Y-103010782D01*
X112102969Y-103130344D01*
X112128121Y-103155496D01*
X112155898Y-103210013D01*
X112146327Y-103270445D01*
X112103062Y-103313710D01*
X112058117Y-103324500D01*
X110778100Y-103324500D01*
X110719909Y-103305593D01*
X110683945Y-103256093D01*
X110683945Y-103194907D01*
X110719909Y-103145407D01*
X110719910Y-103145407D01*
X110765099Y-103112574D01*
X110809792Y-103080104D01*
X110960104Y-102929792D01*
X111052804Y-102802200D01*
X111085049Y-102757819D01*
X111085051Y-102757816D01*
X111181557Y-102568412D01*
X111247246Y-102366243D01*
X111265937Y-102248233D01*
X111280500Y-102156290D01*
X111280500Y-101943709D01*
X111258328Y-101803724D01*
X111247247Y-101733761D01*
X111247246Y-101733757D01*
X111181557Y-101531588D01*
X111085051Y-101342184D01*
X111085049Y-101342180D01*
X110960108Y-101170213D01*
X110960106Y-101170211D01*
X110960104Y-101170208D01*
X110809792Y-101019896D01*
X110809788Y-101019893D01*
X110809786Y-101019891D01*
X110637819Y-100894950D01*
X110637815Y-100894948D01*
X110448412Y-100798443D01*
X110246238Y-100732752D01*
X110036290Y-100699500D01*
X110036287Y-100699500D01*
X109823713Y-100699500D01*
X109823710Y-100699500D01*
X109613761Y-100732752D01*
X109411587Y-100798443D01*
X109222184Y-100894948D01*
X109222180Y-100894950D01*
X109050213Y-101019891D01*
X108899891Y-101170213D01*
X108774950Y-101342180D01*
X108774948Y-101342184D01*
X108678443Y-101531587D01*
X108612752Y-101733761D01*
X108579500Y-101943709D01*
X108579500Y-102156290D01*
X108612752Y-102366238D01*
X108678443Y-102568412D01*
X108774948Y-102757815D01*
X108774950Y-102757819D01*
X108899891Y-102929786D01*
X108899893Y-102929788D01*
X108899896Y-102929792D01*
X109050208Y-103080104D01*
X109050211Y-103080106D01*
X109050213Y-103080108D01*
X109140090Y-103145407D01*
X109176054Y-103194907D01*
X109176055Y-103256092D01*
X109140091Y-103305592D01*
X109081900Y-103324500D01*
X108495551Y-103324500D01*
X108437360Y-103305593D01*
X108401396Y-103256093D01*
X108399924Y-103199877D01*
X108418555Y-103130344D01*
X108430600Y-103085392D01*
X108430600Y-102953608D01*
X108396492Y-102826314D01*
X108396490Y-102826311D01*
X108396490Y-102826309D01*
X108330603Y-102712190D01*
X108330601Y-102712188D01*
X108330600Y-102712186D01*
X108237414Y-102619000D01*
X108237411Y-102618998D01*
X108237409Y-102618996D01*
X108123289Y-102553109D01*
X108123291Y-102553109D01*
X108073899Y-102539875D01*
X107995992Y-102519000D01*
X107864208Y-102519000D01*
X107786300Y-102539875D01*
X107736909Y-102553109D01*
X107622785Y-102618999D01*
X107579583Y-102662201D01*
X107535209Y-102687821D01*
X107516313Y-102692884D01*
X107516308Y-102692887D01*
X107436388Y-102739029D01*
X106887902Y-103287514D01*
X106833386Y-103315291D01*
X106772954Y-103305720D01*
X106747895Y-103287514D01*
X106233963Y-102773582D01*
X105631612Y-102171230D01*
X105551688Y-102125086D01*
X105462544Y-102101200D01*
X105462542Y-102101200D01*
X104907290Y-102101200D01*
X104849099Y-102082293D01*
X104837286Y-102072204D01*
X104181196Y-101416114D01*
X104153419Y-101361597D01*
X104152200Y-101346110D01*
X104152200Y-101273857D01*
X104137255Y-101218082D01*
X104128314Y-101184712D01*
X104082169Y-101104788D01*
X104016912Y-101039531D01*
X103982895Y-101019891D01*
X103936990Y-100993387D01*
X103936989Y-100993386D01*
X103936988Y-100993386D01*
X103847844Y-100969500D01*
X103847842Y-100969500D01*
X103819500Y-100969500D01*
X103761309Y-100950593D01*
X103725345Y-100901093D01*
X103720500Y-100870500D01*
X103720500Y-100450253D01*
X103720499Y-100450244D01*
X103714247Y-100418816D01*
X103721437Y-100358055D01*
X103762969Y-100313124D01*
X103811344Y-100300500D01*
X127638656Y-100300500D01*
X127696847Y-100319407D01*
G37*
%TD.AperFunction*%
%TD*%
M02*
