%TF.GenerationSoftware,KiCad,Pcbnew,10.0.6*%
%TF.CreationDate,2026-10-02T21:18:17+00:00*%
%TF.ProjectId,nicklink,6e69636b-6c69-46e6-9b2e-6b696361645f,rev?*%
%TF.SameCoordinates,Original*%
%TF.FileFunction,Legend,Bot*%
%TF.FilePolarity,Positive*%
%FSLAX46Y46*%
G04 Gerber Fmt 4.6, Leading zero omitted, Abs format (unit mm)*
G04 Created by KiCad (PCBNEW 10.0.6) date 2026-10-02 21:18:17*
%MOMM*%
%LPD*%
G01*
G04 APERTURE LIST*
%ADD10C,0.150000*%
G04 APERTURE END LIST*
D10*
X121744999Y-108069104D02*
X121411666Y-108069104D01*
X121811666Y-108354819D02*
X121578333Y-107354819D01*
X121578333Y-107354819D02*
X121344999Y-108354819D01*
X121078333Y-108354819D02*
X120944999Y-108354819D01*
X120944999Y-108354819D02*
X120878333Y-108307200D01*
X120878333Y-108307200D02*
X120844999Y-108259580D01*
X120844999Y-108259580D02*
X120778333Y-108116723D01*
X120778333Y-108116723D02*
X120744999Y-107926247D01*
X120744999Y-107926247D02*
X120744999Y-107545295D01*
X120744999Y-107545295D02*
X120778333Y-107450057D01*
X120778333Y-107450057D02*
X120811666Y-107402438D01*
X120811666Y-107402438D02*
X120878333Y-107354819D01*
X120878333Y-107354819D02*
X121011666Y-107354819D01*
X121011666Y-107354819D02*
X121078333Y-107402438D01*
X121078333Y-107402438D02*
X121111666Y-107450057D01*
X121111666Y-107450057D02*
X121144999Y-107545295D01*
X121144999Y-107545295D02*
X121144999Y-107783390D01*
X121144999Y-107783390D02*
X121111666Y-107878628D01*
X121111666Y-107878628D02*
X121078333Y-107926247D01*
X121078333Y-107926247D02*
X121011666Y-107973866D01*
X121011666Y-107973866D02*
X120878333Y-107973866D01*
X120878333Y-107973866D02*
X120811666Y-107926247D01*
X120811666Y-107926247D02*
X120778333Y-107878628D01*
X120778333Y-107878628D02*
X120744999Y-107783390D01*
X120011666Y-107354819D02*
X119611666Y-107354819D01*
X119811666Y-108354819D02*
X119811666Y-107354819D01*
X119445000Y-107354819D02*
X118978333Y-108354819D01*
X118978333Y-107354819D02*
X119445000Y-108354819D01*
X118344999Y-108354819D02*
X118744999Y-108354819D01*
X118544999Y-108354819D02*
X118544999Y-107354819D01*
X118544999Y-107354819D02*
X118611666Y-107497676D01*
X118611666Y-107497676D02*
X118678333Y-107592914D01*
X118678333Y-107592914D02*
X118744999Y-107640533D01*
X116478333Y-108069104D02*
X116145000Y-108069104D01*
X116545000Y-108354819D02*
X116311667Y-107354819D01*
X116311667Y-107354819D02*
X116078333Y-108354819D01*
X115478333Y-108354819D02*
X115878333Y-108354819D01*
X115678333Y-108354819D02*
X115678333Y-107354819D01*
X115678333Y-107354819D02*
X115745000Y-107497676D01*
X115745000Y-107497676D02*
X115811667Y-107592914D01*
X115811667Y-107592914D02*
X115878333Y-107640533D01*
X115045000Y-107354819D02*
X114978333Y-107354819D01*
X114978333Y-107354819D02*
X114911666Y-107402438D01*
X114911666Y-107402438D02*
X114878333Y-107450057D01*
X114878333Y-107450057D02*
X114845000Y-107545295D01*
X114845000Y-107545295D02*
X114811666Y-107735771D01*
X114811666Y-107735771D02*
X114811666Y-107973866D01*
X114811666Y-107973866D02*
X114845000Y-108164342D01*
X114845000Y-108164342D02*
X114878333Y-108259580D01*
X114878333Y-108259580D02*
X114911666Y-108307200D01*
X114911666Y-108307200D02*
X114978333Y-108354819D01*
X114978333Y-108354819D02*
X115045000Y-108354819D01*
X115045000Y-108354819D02*
X115111666Y-108307200D01*
X115111666Y-108307200D02*
X115145000Y-108259580D01*
X115145000Y-108259580D02*
X115178333Y-108164342D01*
X115178333Y-108164342D02*
X115211666Y-107973866D01*
X115211666Y-107973866D02*
X115211666Y-107735771D01*
X115211666Y-107735771D02*
X115178333Y-107545295D01*
X115178333Y-107545295D02*
X115145000Y-107450057D01*
X115145000Y-107450057D02*
X115111666Y-107402438D01*
X115111666Y-107402438D02*
X115045000Y-107354819D01*
X113578333Y-108354819D02*
X113811666Y-107878628D01*
X113978333Y-108354819D02*
X113978333Y-107354819D01*
X113978333Y-107354819D02*
X113711666Y-107354819D01*
X113711666Y-107354819D02*
X113645000Y-107402438D01*
X113645000Y-107402438D02*
X113611666Y-107450057D01*
X113611666Y-107450057D02*
X113578333Y-107545295D01*
X113578333Y-107545295D02*
X113578333Y-107688152D01*
X113578333Y-107688152D02*
X113611666Y-107783390D01*
X113611666Y-107783390D02*
X113645000Y-107831009D01*
X113645000Y-107831009D02*
X113711666Y-107878628D01*
X113711666Y-107878628D02*
X113978333Y-107878628D01*
X113345000Y-107354819D02*
X112878333Y-108354819D01*
X112878333Y-107354819D02*
X113345000Y-108354819D01*
X112244999Y-108354819D02*
X112644999Y-108354819D01*
X112444999Y-108354819D02*
X112444999Y-107354819D01*
X112444999Y-107354819D02*
X112511666Y-107497676D01*
X112511666Y-107497676D02*
X112578333Y-107592914D01*
X112578333Y-107592914D02*
X112644999Y-107640533D01*
X122928333Y-109469104D02*
X122595000Y-109469104D01*
X122995000Y-109754819D02*
X122761667Y-108754819D01*
X122761667Y-108754819D02*
X122528333Y-109754819D01*
X121928333Y-109754819D02*
X122328333Y-109754819D01*
X122128333Y-109754819D02*
X122128333Y-108754819D01*
X122128333Y-108754819D02*
X122195000Y-108897676D01*
X122195000Y-108897676D02*
X122261667Y-108992914D01*
X122261667Y-108992914D02*
X122328333Y-109040533D01*
X121695000Y-108754819D02*
X121261666Y-108754819D01*
X121261666Y-108754819D02*
X121495000Y-109135771D01*
X121495000Y-109135771D02*
X121395000Y-109135771D01*
X121395000Y-109135771D02*
X121328333Y-109183390D01*
X121328333Y-109183390D02*
X121295000Y-109231009D01*
X121295000Y-109231009D02*
X121261666Y-109326247D01*
X121261666Y-109326247D02*
X121261666Y-109564342D01*
X121261666Y-109564342D02*
X121295000Y-109659580D01*
X121295000Y-109659580D02*
X121328333Y-109707200D01*
X121328333Y-109707200D02*
X121395000Y-109754819D01*
X121395000Y-109754819D02*
X121595000Y-109754819D01*
X121595000Y-109754819D02*
X121661666Y-109707200D01*
X121661666Y-109707200D02*
X121695000Y-109659580D01*
X120461666Y-109707200D02*
X120361666Y-109754819D01*
X120361666Y-109754819D02*
X120195000Y-109754819D01*
X120195000Y-109754819D02*
X120128333Y-109707200D01*
X120128333Y-109707200D02*
X120095000Y-109659580D01*
X120095000Y-109659580D02*
X120061666Y-109564342D01*
X120061666Y-109564342D02*
X120061666Y-109469104D01*
X120061666Y-109469104D02*
X120095000Y-109373866D01*
X120095000Y-109373866D02*
X120128333Y-109326247D01*
X120128333Y-109326247D02*
X120195000Y-109278628D01*
X120195000Y-109278628D02*
X120328333Y-109231009D01*
X120328333Y-109231009D02*
X120395000Y-109183390D01*
X120395000Y-109183390D02*
X120428333Y-109135771D01*
X120428333Y-109135771D02*
X120461666Y-109040533D01*
X120461666Y-109040533D02*
X120461666Y-108945295D01*
X120461666Y-108945295D02*
X120428333Y-108850057D01*
X120428333Y-108850057D02*
X120395000Y-108802438D01*
X120395000Y-108802438D02*
X120328333Y-108754819D01*
X120328333Y-108754819D02*
X120161666Y-108754819D01*
X120161666Y-108754819D02*
X120061666Y-108802438D01*
X119828333Y-108754819D02*
X119661666Y-109754819D01*
X119661666Y-109754819D02*
X119528333Y-109040533D01*
X119528333Y-109040533D02*
X119394999Y-109754819D01*
X119394999Y-109754819D02*
X119228333Y-108754819D01*
X118961666Y-109754819D02*
X118961666Y-108754819D01*
X118961666Y-108754819D02*
X118794999Y-108754819D01*
X118794999Y-108754819D02*
X118694999Y-108802438D01*
X118694999Y-108802438D02*
X118628333Y-108897676D01*
X118628333Y-108897676D02*
X118594999Y-108992914D01*
X118594999Y-108992914D02*
X118561666Y-109183390D01*
X118561666Y-109183390D02*
X118561666Y-109326247D01*
X118561666Y-109326247D02*
X118594999Y-109516723D01*
X118594999Y-109516723D02*
X118628333Y-109611961D01*
X118628333Y-109611961D02*
X118694999Y-109707200D01*
X118694999Y-109707200D02*
X118794999Y-109754819D01*
X118794999Y-109754819D02*
X118961666Y-109754819D01*
X118261666Y-109754819D02*
X118261666Y-108754819D01*
X117795000Y-108754819D02*
X117661666Y-108754819D01*
X117661666Y-108754819D02*
X117595000Y-108802438D01*
X117595000Y-108802438D02*
X117528333Y-108897676D01*
X117528333Y-108897676D02*
X117495000Y-109088152D01*
X117495000Y-109088152D02*
X117495000Y-109421485D01*
X117495000Y-109421485D02*
X117528333Y-109611961D01*
X117528333Y-109611961D02*
X117595000Y-109707200D01*
X117595000Y-109707200D02*
X117661666Y-109754819D01*
X117661666Y-109754819D02*
X117795000Y-109754819D01*
X117795000Y-109754819D02*
X117861666Y-109707200D01*
X117861666Y-109707200D02*
X117928333Y-109611961D01*
X117928333Y-109611961D02*
X117961666Y-109421485D01*
X117961666Y-109421485D02*
X117961666Y-109088152D01*
X117961666Y-109088152D02*
X117928333Y-108897676D01*
X117928333Y-108897676D02*
X117861666Y-108802438D01*
X117861666Y-108802438D02*
X117795000Y-108754819D01*
X116695000Y-109469104D02*
X116361667Y-109469104D01*
X116761667Y-109754819D02*
X116528334Y-108754819D01*
X116528334Y-108754819D02*
X116295000Y-109754819D01*
X115695000Y-109754819D02*
X116095000Y-109754819D01*
X115895000Y-109754819D02*
X115895000Y-108754819D01*
X115895000Y-108754819D02*
X115961667Y-108897676D01*
X115961667Y-108897676D02*
X116028334Y-108992914D01*
X116028334Y-108992914D02*
X116095000Y-109040533D01*
X115095000Y-109088152D02*
X115095000Y-109754819D01*
X115261667Y-108707200D02*
X115428333Y-109421485D01*
X115428333Y-109421485D02*
X114995000Y-109421485D01*
X114228333Y-109707200D02*
X114128333Y-109754819D01*
X114128333Y-109754819D02*
X113961667Y-109754819D01*
X113961667Y-109754819D02*
X113895000Y-109707200D01*
X113895000Y-109707200D02*
X113861667Y-109659580D01*
X113861667Y-109659580D02*
X113828333Y-109564342D01*
X113828333Y-109564342D02*
X113828333Y-109469104D01*
X113828333Y-109469104D02*
X113861667Y-109373866D01*
X113861667Y-109373866D02*
X113895000Y-109326247D01*
X113895000Y-109326247D02*
X113961667Y-109278628D01*
X113961667Y-109278628D02*
X114095000Y-109231009D01*
X114095000Y-109231009D02*
X114161667Y-109183390D01*
X114161667Y-109183390D02*
X114195000Y-109135771D01*
X114195000Y-109135771D02*
X114228333Y-109040533D01*
X114228333Y-109040533D02*
X114228333Y-108945295D01*
X114228333Y-108945295D02*
X114195000Y-108850057D01*
X114195000Y-108850057D02*
X114161667Y-108802438D01*
X114161667Y-108802438D02*
X114095000Y-108754819D01*
X114095000Y-108754819D02*
X113928333Y-108754819D01*
X113928333Y-108754819D02*
X113828333Y-108802438D01*
X113595000Y-108754819D02*
X113428333Y-109754819D01*
X113428333Y-109754819D02*
X113295000Y-109040533D01*
X113295000Y-109040533D02*
X113161666Y-109754819D01*
X113161666Y-109754819D02*
X112995000Y-108754819D01*
X112328333Y-109659580D02*
X112361666Y-109707200D01*
X112361666Y-109707200D02*
X112461666Y-109754819D01*
X112461666Y-109754819D02*
X112528333Y-109754819D01*
X112528333Y-109754819D02*
X112628333Y-109707200D01*
X112628333Y-109707200D02*
X112695000Y-109611961D01*
X112695000Y-109611961D02*
X112728333Y-109516723D01*
X112728333Y-109516723D02*
X112761666Y-109326247D01*
X112761666Y-109326247D02*
X112761666Y-109183390D01*
X112761666Y-109183390D02*
X112728333Y-108992914D01*
X112728333Y-108992914D02*
X112695000Y-108897676D01*
X112695000Y-108897676D02*
X112628333Y-108802438D01*
X112628333Y-108802438D02*
X112528333Y-108754819D01*
X112528333Y-108754819D02*
X112461666Y-108754819D01*
X112461666Y-108754819D02*
X112361666Y-108802438D01*
X112361666Y-108802438D02*
X112328333Y-108850057D01*
X111695000Y-109754819D02*
X112028333Y-109754819D01*
X112028333Y-109754819D02*
X112028333Y-108754819D01*
X111461666Y-109754819D02*
X111461666Y-108754819D01*
X111061666Y-109754819D02*
X111361666Y-109183390D01*
X111061666Y-108754819D02*
X111461666Y-109326247D01*
X121978332Y-110631009D02*
X121878332Y-110678628D01*
X121878332Y-110678628D02*
X121844998Y-110726247D01*
X121844998Y-110726247D02*
X121811665Y-110821485D01*
X121811665Y-110821485D02*
X121811665Y-110964342D01*
X121811665Y-110964342D02*
X121844998Y-111059580D01*
X121844998Y-111059580D02*
X121878332Y-111107200D01*
X121878332Y-111107200D02*
X121944998Y-111154819D01*
X121944998Y-111154819D02*
X122211665Y-111154819D01*
X122211665Y-111154819D02*
X122211665Y-110154819D01*
X122211665Y-110154819D02*
X121978332Y-110154819D01*
X121978332Y-110154819D02*
X121911665Y-110202438D01*
X121911665Y-110202438D02*
X121878332Y-110250057D01*
X121878332Y-110250057D02*
X121844998Y-110345295D01*
X121844998Y-110345295D02*
X121844998Y-110440533D01*
X121844998Y-110440533D02*
X121878332Y-110535771D01*
X121878332Y-110535771D02*
X121911665Y-110583390D01*
X121911665Y-110583390D02*
X121978332Y-110631009D01*
X121978332Y-110631009D02*
X122211665Y-110631009D01*
X121578332Y-110154819D02*
X121144998Y-110154819D01*
X121144998Y-110154819D02*
X121378332Y-110535771D01*
X121378332Y-110535771D02*
X121278332Y-110535771D01*
X121278332Y-110535771D02*
X121211665Y-110583390D01*
X121211665Y-110583390D02*
X121178332Y-110631009D01*
X121178332Y-110631009D02*
X121144998Y-110726247D01*
X121144998Y-110726247D02*
X121144998Y-110964342D01*
X121144998Y-110964342D02*
X121178332Y-111059580D01*
X121178332Y-111059580D02*
X121211665Y-111107200D01*
X121211665Y-111107200D02*
X121278332Y-111154819D01*
X121278332Y-111154819D02*
X121478332Y-111154819D01*
X121478332Y-111154819D02*
X121544998Y-111107200D01*
X121544998Y-111107200D02*
X121578332Y-111059580D01*
X120344998Y-111107200D02*
X120244998Y-111154819D01*
X120244998Y-111154819D02*
X120078332Y-111154819D01*
X120078332Y-111154819D02*
X120011665Y-111107200D01*
X120011665Y-111107200D02*
X119978332Y-111059580D01*
X119978332Y-111059580D02*
X119944998Y-110964342D01*
X119944998Y-110964342D02*
X119944998Y-110869104D01*
X119944998Y-110869104D02*
X119978332Y-110773866D01*
X119978332Y-110773866D02*
X120011665Y-110726247D01*
X120011665Y-110726247D02*
X120078332Y-110678628D01*
X120078332Y-110678628D02*
X120211665Y-110631009D01*
X120211665Y-110631009D02*
X120278332Y-110583390D01*
X120278332Y-110583390D02*
X120311665Y-110535771D01*
X120311665Y-110535771D02*
X120344998Y-110440533D01*
X120344998Y-110440533D02*
X120344998Y-110345295D01*
X120344998Y-110345295D02*
X120311665Y-110250057D01*
X120311665Y-110250057D02*
X120278332Y-110202438D01*
X120278332Y-110202438D02*
X120211665Y-110154819D01*
X120211665Y-110154819D02*
X120044998Y-110154819D01*
X120044998Y-110154819D02*
X119944998Y-110202438D01*
X119711665Y-110154819D02*
X119544998Y-111154819D01*
X119544998Y-111154819D02*
X119411665Y-110440533D01*
X119411665Y-110440533D02*
X119278331Y-111154819D01*
X119278331Y-111154819D02*
X119111665Y-110154819D01*
X118711665Y-110154819D02*
X118578331Y-110154819D01*
X118578331Y-110154819D02*
X118511665Y-110202438D01*
X118511665Y-110202438D02*
X118444998Y-110297676D01*
X118444998Y-110297676D02*
X118411665Y-110488152D01*
X118411665Y-110488152D02*
X118411665Y-110821485D01*
X118411665Y-110821485D02*
X118444998Y-111011961D01*
X118444998Y-111011961D02*
X118511665Y-111107200D01*
X118511665Y-111107200D02*
X118578331Y-111154819D01*
X118578331Y-111154819D02*
X118711665Y-111154819D01*
X118711665Y-111154819D02*
X118778331Y-111107200D01*
X118778331Y-111107200D02*
X118844998Y-111011961D01*
X118844998Y-111011961D02*
X118878331Y-110821485D01*
X118878331Y-110821485D02*
X118878331Y-110488152D01*
X118878331Y-110488152D02*
X118844998Y-110297676D01*
X118844998Y-110297676D02*
X118778331Y-110202438D01*
X118778331Y-110202438D02*
X118711665Y-110154819D01*
X116111666Y-111154819D02*
X116344999Y-110678628D01*
X116511666Y-111154819D02*
X116511666Y-110154819D01*
X116511666Y-110154819D02*
X116244999Y-110154819D01*
X116244999Y-110154819D02*
X116178333Y-110202438D01*
X116178333Y-110202438D02*
X116144999Y-110250057D01*
X116144999Y-110250057D02*
X116111666Y-110345295D01*
X116111666Y-110345295D02*
X116111666Y-110488152D01*
X116111666Y-110488152D02*
X116144999Y-110583390D01*
X116144999Y-110583390D02*
X116178333Y-110631009D01*
X116178333Y-110631009D02*
X116244999Y-110678628D01*
X116244999Y-110678628D02*
X116511666Y-110678628D01*
X115844999Y-111107200D02*
X115744999Y-111154819D01*
X115744999Y-111154819D02*
X115578333Y-111154819D01*
X115578333Y-111154819D02*
X115511666Y-111107200D01*
X115511666Y-111107200D02*
X115478333Y-111059580D01*
X115478333Y-111059580D02*
X115444999Y-110964342D01*
X115444999Y-110964342D02*
X115444999Y-110869104D01*
X115444999Y-110869104D02*
X115478333Y-110773866D01*
X115478333Y-110773866D02*
X115511666Y-110726247D01*
X115511666Y-110726247D02*
X115578333Y-110678628D01*
X115578333Y-110678628D02*
X115711666Y-110631009D01*
X115711666Y-110631009D02*
X115778333Y-110583390D01*
X115778333Y-110583390D02*
X115811666Y-110535771D01*
X115811666Y-110535771D02*
X115844999Y-110440533D01*
X115844999Y-110440533D02*
X115844999Y-110345295D01*
X115844999Y-110345295D02*
X115811666Y-110250057D01*
X115811666Y-110250057D02*
X115778333Y-110202438D01*
X115778333Y-110202438D02*
X115711666Y-110154819D01*
X115711666Y-110154819D02*
X115544999Y-110154819D01*
X115544999Y-110154819D02*
X115444999Y-110202438D01*
X115244999Y-110154819D02*
X114844999Y-110154819D01*
X115044999Y-111154819D02*
X115044999Y-110154819D01*
X114078333Y-111154819D02*
X114078333Y-110154819D01*
X114078333Y-110154819D02*
X113678333Y-111154819D01*
X113678333Y-111154819D02*
X113678333Y-110154819D01*
X112945000Y-111154819D02*
X113178333Y-110678628D01*
X113345000Y-111154819D02*
X113345000Y-110154819D01*
X113345000Y-110154819D02*
X113078333Y-110154819D01*
X113078333Y-110154819D02*
X113011667Y-110202438D01*
X113011667Y-110202438D02*
X112978333Y-110250057D01*
X112978333Y-110250057D02*
X112945000Y-110345295D01*
X112945000Y-110345295D02*
X112945000Y-110488152D01*
X112945000Y-110488152D02*
X112978333Y-110583390D01*
X112978333Y-110583390D02*
X113011667Y-110631009D01*
X113011667Y-110631009D02*
X113078333Y-110678628D01*
X113078333Y-110678628D02*
X113345000Y-110678628D01*
X112678333Y-111107200D02*
X112578333Y-111154819D01*
X112578333Y-111154819D02*
X112411667Y-111154819D01*
X112411667Y-111154819D02*
X112345000Y-111107200D01*
X112345000Y-111107200D02*
X112311667Y-111059580D01*
X112311667Y-111059580D02*
X112278333Y-110964342D01*
X112278333Y-110964342D02*
X112278333Y-110869104D01*
X112278333Y-110869104D02*
X112311667Y-110773866D01*
X112311667Y-110773866D02*
X112345000Y-110726247D01*
X112345000Y-110726247D02*
X112411667Y-110678628D01*
X112411667Y-110678628D02*
X112545000Y-110631009D01*
X112545000Y-110631009D02*
X112611667Y-110583390D01*
X112611667Y-110583390D02*
X112645000Y-110535771D01*
X112645000Y-110535771D02*
X112678333Y-110440533D01*
X112678333Y-110440533D02*
X112678333Y-110345295D01*
X112678333Y-110345295D02*
X112645000Y-110250057D01*
X112645000Y-110250057D02*
X112611667Y-110202438D01*
X112611667Y-110202438D02*
X112545000Y-110154819D01*
X112545000Y-110154819D02*
X112378333Y-110154819D01*
X112378333Y-110154819D02*
X112278333Y-110202438D01*
X112078333Y-110154819D02*
X111678333Y-110154819D01*
X111878333Y-111154819D02*
X111878333Y-110154819D01*
X121645000Y-112031009D02*
X121545000Y-112078628D01*
X121545000Y-112078628D02*
X121511666Y-112126247D01*
X121511666Y-112126247D02*
X121478333Y-112221485D01*
X121478333Y-112221485D02*
X121478333Y-112364342D01*
X121478333Y-112364342D02*
X121511666Y-112459580D01*
X121511666Y-112459580D02*
X121545000Y-112507200D01*
X121545000Y-112507200D02*
X121611666Y-112554819D01*
X121611666Y-112554819D02*
X121878333Y-112554819D01*
X121878333Y-112554819D02*
X121878333Y-111554819D01*
X121878333Y-111554819D02*
X121645000Y-111554819D01*
X121645000Y-111554819D02*
X121578333Y-111602438D01*
X121578333Y-111602438D02*
X121545000Y-111650057D01*
X121545000Y-111650057D02*
X121511666Y-111745295D01*
X121511666Y-111745295D02*
X121511666Y-111840533D01*
X121511666Y-111840533D02*
X121545000Y-111935771D01*
X121545000Y-111935771D02*
X121578333Y-111983390D01*
X121578333Y-111983390D02*
X121645000Y-112031009D01*
X121645000Y-112031009D02*
X121878333Y-112031009D01*
X120878333Y-111554819D02*
X121011666Y-111554819D01*
X121011666Y-111554819D02*
X121078333Y-111602438D01*
X121078333Y-111602438D02*
X121111666Y-111650057D01*
X121111666Y-111650057D02*
X121178333Y-111792914D01*
X121178333Y-111792914D02*
X121211666Y-111983390D01*
X121211666Y-111983390D02*
X121211666Y-112364342D01*
X121211666Y-112364342D02*
X121178333Y-112459580D01*
X121178333Y-112459580D02*
X121145000Y-112507200D01*
X121145000Y-112507200D02*
X121078333Y-112554819D01*
X121078333Y-112554819D02*
X120945000Y-112554819D01*
X120945000Y-112554819D02*
X120878333Y-112507200D01*
X120878333Y-112507200D02*
X120845000Y-112459580D01*
X120845000Y-112459580D02*
X120811666Y-112364342D01*
X120811666Y-112364342D02*
X120811666Y-112126247D01*
X120811666Y-112126247D02*
X120845000Y-112031009D01*
X120845000Y-112031009D02*
X120878333Y-111983390D01*
X120878333Y-111983390D02*
X120945000Y-111935771D01*
X120945000Y-111935771D02*
X121078333Y-111935771D01*
X121078333Y-111935771D02*
X121145000Y-111983390D01*
X121145000Y-111983390D02*
X121178333Y-112031009D01*
X121178333Y-112031009D02*
X121211666Y-112126247D01*
X120011666Y-112507200D02*
X119911666Y-112554819D01*
X119911666Y-112554819D02*
X119745000Y-112554819D01*
X119745000Y-112554819D02*
X119678333Y-112507200D01*
X119678333Y-112507200D02*
X119645000Y-112459580D01*
X119645000Y-112459580D02*
X119611666Y-112364342D01*
X119611666Y-112364342D02*
X119611666Y-112269104D01*
X119611666Y-112269104D02*
X119645000Y-112173866D01*
X119645000Y-112173866D02*
X119678333Y-112126247D01*
X119678333Y-112126247D02*
X119745000Y-112078628D01*
X119745000Y-112078628D02*
X119878333Y-112031009D01*
X119878333Y-112031009D02*
X119945000Y-111983390D01*
X119945000Y-111983390D02*
X119978333Y-111935771D01*
X119978333Y-111935771D02*
X120011666Y-111840533D01*
X120011666Y-111840533D02*
X120011666Y-111745295D01*
X120011666Y-111745295D02*
X119978333Y-111650057D01*
X119978333Y-111650057D02*
X119945000Y-111602438D01*
X119945000Y-111602438D02*
X119878333Y-111554819D01*
X119878333Y-111554819D02*
X119711666Y-111554819D01*
X119711666Y-111554819D02*
X119611666Y-111602438D01*
X118911666Y-112459580D02*
X118944999Y-112507200D01*
X118944999Y-112507200D02*
X119044999Y-112554819D01*
X119044999Y-112554819D02*
X119111666Y-112554819D01*
X119111666Y-112554819D02*
X119211666Y-112507200D01*
X119211666Y-112507200D02*
X119278333Y-112411961D01*
X119278333Y-112411961D02*
X119311666Y-112316723D01*
X119311666Y-112316723D02*
X119344999Y-112126247D01*
X119344999Y-112126247D02*
X119344999Y-111983390D01*
X119344999Y-111983390D02*
X119311666Y-111792914D01*
X119311666Y-111792914D02*
X119278333Y-111697676D01*
X119278333Y-111697676D02*
X119211666Y-111602438D01*
X119211666Y-111602438D02*
X119111666Y-111554819D01*
X119111666Y-111554819D02*
X119044999Y-111554819D01*
X119044999Y-111554819D02*
X118944999Y-111602438D01*
X118944999Y-111602438D02*
X118911666Y-111650057D01*
X118278333Y-112554819D02*
X118611666Y-112554819D01*
X118611666Y-112554819D02*
X118611666Y-111554819D01*
X117678332Y-112554819D02*
X118078332Y-112554819D01*
X117878332Y-112554819D02*
X117878332Y-111554819D01*
X117878332Y-111554819D02*
X117944999Y-111697676D01*
X117944999Y-111697676D02*
X118011666Y-111792914D01*
X118011666Y-111792914D02*
X118078332Y-111840533D01*
X116078333Y-112031009D02*
X115978333Y-112078628D01*
X115978333Y-112078628D02*
X115944999Y-112126247D01*
X115944999Y-112126247D02*
X115911666Y-112221485D01*
X115911666Y-112221485D02*
X115911666Y-112364342D01*
X115911666Y-112364342D02*
X115944999Y-112459580D01*
X115944999Y-112459580D02*
X115978333Y-112507200D01*
X115978333Y-112507200D02*
X116044999Y-112554819D01*
X116044999Y-112554819D02*
X116311666Y-112554819D01*
X116311666Y-112554819D02*
X116311666Y-111554819D01*
X116311666Y-111554819D02*
X116078333Y-111554819D01*
X116078333Y-111554819D02*
X116011666Y-111602438D01*
X116011666Y-111602438D02*
X115978333Y-111650057D01*
X115978333Y-111650057D02*
X115944999Y-111745295D01*
X115944999Y-111745295D02*
X115944999Y-111840533D01*
X115944999Y-111840533D02*
X115978333Y-111935771D01*
X115978333Y-111935771D02*
X116011666Y-111983390D01*
X116011666Y-111983390D02*
X116078333Y-112031009D01*
X116078333Y-112031009D02*
X116311666Y-112031009D01*
X115678333Y-111554819D02*
X115211666Y-111554819D01*
X115211666Y-111554819D02*
X115511666Y-112554819D01*
X114444999Y-112507200D02*
X114344999Y-112554819D01*
X114344999Y-112554819D02*
X114178333Y-112554819D01*
X114178333Y-112554819D02*
X114111666Y-112507200D01*
X114111666Y-112507200D02*
X114078333Y-112459580D01*
X114078333Y-112459580D02*
X114044999Y-112364342D01*
X114044999Y-112364342D02*
X114044999Y-112269104D01*
X114044999Y-112269104D02*
X114078333Y-112173866D01*
X114078333Y-112173866D02*
X114111666Y-112126247D01*
X114111666Y-112126247D02*
X114178333Y-112078628D01*
X114178333Y-112078628D02*
X114311666Y-112031009D01*
X114311666Y-112031009D02*
X114378333Y-111983390D01*
X114378333Y-111983390D02*
X114411666Y-111935771D01*
X114411666Y-111935771D02*
X114444999Y-111840533D01*
X114444999Y-111840533D02*
X114444999Y-111745295D01*
X114444999Y-111745295D02*
X114411666Y-111650057D01*
X114411666Y-111650057D02*
X114378333Y-111602438D01*
X114378333Y-111602438D02*
X114311666Y-111554819D01*
X114311666Y-111554819D02*
X114144999Y-111554819D01*
X114144999Y-111554819D02*
X114044999Y-111602438D01*
X113744999Y-112554819D02*
X113744999Y-111554819D01*
X113744999Y-111554819D02*
X113578332Y-111554819D01*
X113578332Y-111554819D02*
X113478332Y-111602438D01*
X113478332Y-111602438D02*
X113411666Y-111697676D01*
X113411666Y-111697676D02*
X113378332Y-111792914D01*
X113378332Y-111792914D02*
X113344999Y-111983390D01*
X113344999Y-111983390D02*
X113344999Y-112126247D01*
X113344999Y-112126247D02*
X113378332Y-112316723D01*
X113378332Y-112316723D02*
X113411666Y-112411961D01*
X113411666Y-112411961D02*
X113478332Y-112507200D01*
X113478332Y-112507200D02*
X113578332Y-112554819D01*
X113578332Y-112554819D02*
X113744999Y-112554819D01*
X113078332Y-112269104D02*
X112744999Y-112269104D01*
X113144999Y-112554819D02*
X112911666Y-111554819D01*
X112911666Y-111554819D02*
X112678332Y-112554819D01*
X112078332Y-112554819D02*
X112478332Y-112554819D01*
X112278332Y-112554819D02*
X112278332Y-111554819D01*
X112278332Y-111554819D02*
X112344999Y-111697676D01*
X112344999Y-111697676D02*
X112411666Y-111792914D01*
X112411666Y-111792914D02*
X112478332Y-111840533D01*
X122161666Y-113669104D02*
X121828333Y-113669104D01*
X122228333Y-113954819D02*
X121995000Y-112954819D01*
X121995000Y-112954819D02*
X121761666Y-113954819D01*
X121195000Y-112954819D02*
X121528333Y-112954819D01*
X121528333Y-112954819D02*
X121561666Y-113431009D01*
X121561666Y-113431009D02*
X121528333Y-113383390D01*
X121528333Y-113383390D02*
X121461666Y-113335771D01*
X121461666Y-113335771D02*
X121295000Y-113335771D01*
X121295000Y-113335771D02*
X121228333Y-113383390D01*
X121228333Y-113383390D02*
X121195000Y-113431009D01*
X121195000Y-113431009D02*
X121161666Y-113526247D01*
X121161666Y-113526247D02*
X121161666Y-113764342D01*
X121161666Y-113764342D02*
X121195000Y-113859580D01*
X121195000Y-113859580D02*
X121228333Y-113907200D01*
X121228333Y-113907200D02*
X121295000Y-113954819D01*
X121295000Y-113954819D02*
X121461666Y-113954819D01*
X121461666Y-113954819D02*
X121528333Y-113907200D01*
X121528333Y-113907200D02*
X121561666Y-113859580D01*
X120361666Y-113907200D02*
X120261666Y-113954819D01*
X120261666Y-113954819D02*
X120095000Y-113954819D01*
X120095000Y-113954819D02*
X120028333Y-113907200D01*
X120028333Y-113907200D02*
X119995000Y-113859580D01*
X119995000Y-113859580D02*
X119961666Y-113764342D01*
X119961666Y-113764342D02*
X119961666Y-113669104D01*
X119961666Y-113669104D02*
X119995000Y-113573866D01*
X119995000Y-113573866D02*
X120028333Y-113526247D01*
X120028333Y-113526247D02*
X120095000Y-113478628D01*
X120095000Y-113478628D02*
X120228333Y-113431009D01*
X120228333Y-113431009D02*
X120295000Y-113383390D01*
X120295000Y-113383390D02*
X120328333Y-113335771D01*
X120328333Y-113335771D02*
X120361666Y-113240533D01*
X120361666Y-113240533D02*
X120361666Y-113145295D01*
X120361666Y-113145295D02*
X120328333Y-113050057D01*
X120328333Y-113050057D02*
X120295000Y-113002438D01*
X120295000Y-113002438D02*
X120228333Y-112954819D01*
X120228333Y-112954819D02*
X120061666Y-112954819D01*
X120061666Y-112954819D02*
X119961666Y-113002438D01*
X119261666Y-113859580D02*
X119294999Y-113907200D01*
X119294999Y-113907200D02*
X119394999Y-113954819D01*
X119394999Y-113954819D02*
X119461666Y-113954819D01*
X119461666Y-113954819D02*
X119561666Y-113907200D01*
X119561666Y-113907200D02*
X119628333Y-113811961D01*
X119628333Y-113811961D02*
X119661666Y-113716723D01*
X119661666Y-113716723D02*
X119694999Y-113526247D01*
X119694999Y-113526247D02*
X119694999Y-113383390D01*
X119694999Y-113383390D02*
X119661666Y-113192914D01*
X119661666Y-113192914D02*
X119628333Y-113097676D01*
X119628333Y-113097676D02*
X119561666Y-113002438D01*
X119561666Y-113002438D02*
X119461666Y-112954819D01*
X119461666Y-112954819D02*
X119394999Y-112954819D01*
X119394999Y-112954819D02*
X119294999Y-113002438D01*
X119294999Y-113002438D02*
X119261666Y-113050057D01*
X118961666Y-113954819D02*
X118961666Y-112954819D01*
X118561666Y-113954819D02*
X118861666Y-113383390D01*
X118561666Y-112954819D02*
X118961666Y-113526247D01*
X117894999Y-113954819D02*
X118294999Y-113954819D01*
X118094999Y-113954819D02*
X118094999Y-112954819D01*
X118094999Y-112954819D02*
X118161666Y-113097676D01*
X118161666Y-113097676D02*
X118228333Y-113192914D01*
X118228333Y-113192914D02*
X118294999Y-113240533D01*
X116561666Y-113669104D02*
X116228333Y-113669104D01*
X116628333Y-113954819D02*
X116395000Y-112954819D01*
X116395000Y-112954819D02*
X116161666Y-113954819D01*
X115628333Y-112954819D02*
X115761666Y-112954819D01*
X115761666Y-112954819D02*
X115828333Y-113002438D01*
X115828333Y-113002438D02*
X115861666Y-113050057D01*
X115861666Y-113050057D02*
X115928333Y-113192914D01*
X115928333Y-113192914D02*
X115961666Y-113383390D01*
X115961666Y-113383390D02*
X115961666Y-113764342D01*
X115961666Y-113764342D02*
X115928333Y-113859580D01*
X115928333Y-113859580D02*
X115895000Y-113907200D01*
X115895000Y-113907200D02*
X115828333Y-113954819D01*
X115828333Y-113954819D02*
X115695000Y-113954819D01*
X115695000Y-113954819D02*
X115628333Y-113907200D01*
X115628333Y-113907200D02*
X115595000Y-113859580D01*
X115595000Y-113859580D02*
X115561666Y-113764342D01*
X115561666Y-113764342D02*
X115561666Y-113526247D01*
X115561666Y-113526247D02*
X115595000Y-113431009D01*
X115595000Y-113431009D02*
X115628333Y-113383390D01*
X115628333Y-113383390D02*
X115695000Y-113335771D01*
X115695000Y-113335771D02*
X115828333Y-113335771D01*
X115828333Y-113335771D02*
X115895000Y-113383390D01*
X115895000Y-113383390D02*
X115928333Y-113431009D01*
X115928333Y-113431009D02*
X115961666Y-113526247D01*
X114728333Y-113954819D02*
X114728333Y-112954819D01*
X114728333Y-112954819D02*
X114495000Y-113669104D01*
X114495000Y-113669104D02*
X114261666Y-112954819D01*
X114261666Y-112954819D02*
X114261666Y-113954819D01*
X113928333Y-113954819D02*
X113928333Y-112954819D01*
X113628333Y-113907200D02*
X113528333Y-113954819D01*
X113528333Y-113954819D02*
X113361667Y-113954819D01*
X113361667Y-113954819D02*
X113295000Y-113907200D01*
X113295000Y-113907200D02*
X113261667Y-113859580D01*
X113261667Y-113859580D02*
X113228333Y-113764342D01*
X113228333Y-113764342D02*
X113228333Y-113669104D01*
X113228333Y-113669104D02*
X113261667Y-113573866D01*
X113261667Y-113573866D02*
X113295000Y-113526247D01*
X113295000Y-113526247D02*
X113361667Y-113478628D01*
X113361667Y-113478628D02*
X113495000Y-113431009D01*
X113495000Y-113431009D02*
X113561667Y-113383390D01*
X113561667Y-113383390D02*
X113595000Y-113335771D01*
X113595000Y-113335771D02*
X113628333Y-113240533D01*
X113628333Y-113240533D02*
X113628333Y-113145295D01*
X113628333Y-113145295D02*
X113595000Y-113050057D01*
X113595000Y-113050057D02*
X113561667Y-113002438D01*
X113561667Y-113002438D02*
X113495000Y-112954819D01*
X113495000Y-112954819D02*
X113328333Y-112954819D01*
X113328333Y-112954819D02*
X113228333Y-113002438D01*
X112795000Y-112954819D02*
X112661666Y-112954819D01*
X112661666Y-112954819D02*
X112595000Y-113002438D01*
X112595000Y-113002438D02*
X112528333Y-113097676D01*
X112528333Y-113097676D02*
X112495000Y-113288152D01*
X112495000Y-113288152D02*
X112495000Y-113621485D01*
X112495000Y-113621485D02*
X112528333Y-113811961D01*
X112528333Y-113811961D02*
X112595000Y-113907200D01*
X112595000Y-113907200D02*
X112661666Y-113954819D01*
X112661666Y-113954819D02*
X112795000Y-113954819D01*
X112795000Y-113954819D02*
X112861666Y-113907200D01*
X112861666Y-113907200D02*
X112928333Y-113811961D01*
X112928333Y-113811961D02*
X112961666Y-113621485D01*
X112961666Y-113621485D02*
X112961666Y-113288152D01*
X112961666Y-113288152D02*
X112928333Y-113097676D01*
X112928333Y-113097676D02*
X112861666Y-113002438D01*
X112861666Y-113002438D02*
X112795000Y-112954819D01*
X111828333Y-113954819D02*
X112228333Y-113954819D01*
X112028333Y-113954819D02*
X112028333Y-112954819D01*
X112028333Y-112954819D02*
X112095000Y-113097676D01*
X112095000Y-113097676D02*
X112161667Y-113192914D01*
X112161667Y-113192914D02*
X112228333Y-113240533D01*
X122528332Y-115069104D02*
X122194999Y-115069104D01*
X122594999Y-115354819D02*
X122361666Y-114354819D01*
X122361666Y-114354819D02*
X122128332Y-115354819D01*
X121961666Y-114354819D02*
X121494999Y-114354819D01*
X121494999Y-114354819D02*
X121794999Y-115354819D01*
X120694999Y-115354819D02*
X120694999Y-114354819D01*
X120694999Y-114354819D02*
X120461666Y-115069104D01*
X120461666Y-115069104D02*
X120228332Y-114354819D01*
X120228332Y-114354819D02*
X120228332Y-115354819D01*
X119761666Y-114354819D02*
X119628332Y-114354819D01*
X119628332Y-114354819D02*
X119561666Y-114402438D01*
X119561666Y-114402438D02*
X119494999Y-114497676D01*
X119494999Y-114497676D02*
X119461666Y-114688152D01*
X119461666Y-114688152D02*
X119461666Y-115021485D01*
X119461666Y-115021485D02*
X119494999Y-115211961D01*
X119494999Y-115211961D02*
X119561666Y-115307200D01*
X119561666Y-115307200D02*
X119628332Y-115354819D01*
X119628332Y-115354819D02*
X119761666Y-115354819D01*
X119761666Y-115354819D02*
X119828332Y-115307200D01*
X119828332Y-115307200D02*
X119894999Y-115211961D01*
X119894999Y-115211961D02*
X119928332Y-115021485D01*
X119928332Y-115021485D02*
X119928332Y-114688152D01*
X119928332Y-114688152D02*
X119894999Y-114497676D01*
X119894999Y-114497676D02*
X119828332Y-114402438D01*
X119828332Y-114402438D02*
X119761666Y-114354819D01*
X119194999Y-115307200D02*
X119094999Y-115354819D01*
X119094999Y-115354819D02*
X118928333Y-115354819D01*
X118928333Y-115354819D02*
X118861666Y-115307200D01*
X118861666Y-115307200D02*
X118828333Y-115259580D01*
X118828333Y-115259580D02*
X118794999Y-115164342D01*
X118794999Y-115164342D02*
X118794999Y-115069104D01*
X118794999Y-115069104D02*
X118828333Y-114973866D01*
X118828333Y-114973866D02*
X118861666Y-114926247D01*
X118861666Y-114926247D02*
X118928333Y-114878628D01*
X118928333Y-114878628D02*
X119061666Y-114831009D01*
X119061666Y-114831009D02*
X119128333Y-114783390D01*
X119128333Y-114783390D02*
X119161666Y-114735771D01*
X119161666Y-114735771D02*
X119194999Y-114640533D01*
X119194999Y-114640533D02*
X119194999Y-114545295D01*
X119194999Y-114545295D02*
X119161666Y-114450057D01*
X119161666Y-114450057D02*
X119128333Y-114402438D01*
X119128333Y-114402438D02*
X119061666Y-114354819D01*
X119061666Y-114354819D02*
X118894999Y-114354819D01*
X118894999Y-114354819D02*
X118794999Y-114402438D01*
X118494999Y-115354819D02*
X118494999Y-114354819D01*
X117794999Y-115354819D02*
X118194999Y-115354819D01*
X117994999Y-115354819D02*
X117994999Y-114354819D01*
X117994999Y-114354819D02*
X118061666Y-114497676D01*
X118061666Y-114497676D02*
X118128333Y-114592914D01*
X118128333Y-114592914D02*
X118194999Y-114640533D01*
X116195000Y-114831009D02*
X116095000Y-114878628D01*
X116095000Y-114878628D02*
X116061666Y-114926247D01*
X116061666Y-114926247D02*
X116028333Y-115021485D01*
X116028333Y-115021485D02*
X116028333Y-115164342D01*
X116028333Y-115164342D02*
X116061666Y-115259580D01*
X116061666Y-115259580D02*
X116095000Y-115307200D01*
X116095000Y-115307200D02*
X116161666Y-115354819D01*
X116161666Y-115354819D02*
X116428333Y-115354819D01*
X116428333Y-115354819D02*
X116428333Y-114354819D01*
X116428333Y-114354819D02*
X116195000Y-114354819D01*
X116195000Y-114354819D02*
X116128333Y-114402438D01*
X116128333Y-114402438D02*
X116095000Y-114450057D01*
X116095000Y-114450057D02*
X116061666Y-114545295D01*
X116061666Y-114545295D02*
X116061666Y-114640533D01*
X116061666Y-114640533D02*
X116095000Y-114735771D01*
X116095000Y-114735771D02*
X116128333Y-114783390D01*
X116128333Y-114783390D02*
X116195000Y-114831009D01*
X116195000Y-114831009D02*
X116428333Y-114831009D01*
X115761666Y-114450057D02*
X115728333Y-114402438D01*
X115728333Y-114402438D02*
X115661666Y-114354819D01*
X115661666Y-114354819D02*
X115495000Y-114354819D01*
X115495000Y-114354819D02*
X115428333Y-114402438D01*
X115428333Y-114402438D02*
X115395000Y-114450057D01*
X115395000Y-114450057D02*
X115361666Y-114545295D01*
X115361666Y-114545295D02*
X115361666Y-114640533D01*
X115361666Y-114640533D02*
X115395000Y-114783390D01*
X115395000Y-114783390D02*
X115795000Y-115354819D01*
X115795000Y-115354819D02*
X115361666Y-115354819D01*
X114295000Y-114831009D02*
X114195000Y-114878628D01*
X114195000Y-114878628D02*
X114161666Y-114926247D01*
X114161666Y-114926247D02*
X114128333Y-115021485D01*
X114128333Y-115021485D02*
X114128333Y-115164342D01*
X114128333Y-115164342D02*
X114161666Y-115259580D01*
X114161666Y-115259580D02*
X114195000Y-115307200D01*
X114195000Y-115307200D02*
X114261666Y-115354819D01*
X114261666Y-115354819D02*
X114528333Y-115354819D01*
X114528333Y-115354819D02*
X114528333Y-114354819D01*
X114528333Y-114354819D02*
X114295000Y-114354819D01*
X114295000Y-114354819D02*
X114228333Y-114402438D01*
X114228333Y-114402438D02*
X114195000Y-114450057D01*
X114195000Y-114450057D02*
X114161666Y-114545295D01*
X114161666Y-114545295D02*
X114161666Y-114640533D01*
X114161666Y-114640533D02*
X114195000Y-114735771D01*
X114195000Y-114735771D02*
X114228333Y-114783390D01*
X114228333Y-114783390D02*
X114295000Y-114831009D01*
X114295000Y-114831009D02*
X114528333Y-114831009D01*
X113695000Y-114354819D02*
X113561666Y-114354819D01*
X113561666Y-114354819D02*
X113495000Y-114402438D01*
X113495000Y-114402438D02*
X113428333Y-114497676D01*
X113428333Y-114497676D02*
X113395000Y-114688152D01*
X113395000Y-114688152D02*
X113395000Y-115021485D01*
X113395000Y-115021485D02*
X113428333Y-115211961D01*
X113428333Y-115211961D02*
X113495000Y-115307200D01*
X113495000Y-115307200D02*
X113561666Y-115354819D01*
X113561666Y-115354819D02*
X113695000Y-115354819D01*
X113695000Y-115354819D02*
X113761666Y-115307200D01*
X113761666Y-115307200D02*
X113828333Y-115211961D01*
X113828333Y-115211961D02*
X113861666Y-115021485D01*
X113861666Y-115021485D02*
X113861666Y-114688152D01*
X113861666Y-114688152D02*
X113828333Y-114497676D01*
X113828333Y-114497676D02*
X113761666Y-114402438D01*
X113761666Y-114402438D02*
X113695000Y-114354819D01*
X112961667Y-114354819D02*
X112828333Y-114354819D01*
X112828333Y-114354819D02*
X112761667Y-114402438D01*
X112761667Y-114402438D02*
X112695000Y-114497676D01*
X112695000Y-114497676D02*
X112661667Y-114688152D01*
X112661667Y-114688152D02*
X112661667Y-115021485D01*
X112661667Y-115021485D02*
X112695000Y-115211961D01*
X112695000Y-115211961D02*
X112761667Y-115307200D01*
X112761667Y-115307200D02*
X112828333Y-115354819D01*
X112828333Y-115354819D02*
X112961667Y-115354819D01*
X112961667Y-115354819D02*
X113028333Y-115307200D01*
X113028333Y-115307200D02*
X113095000Y-115211961D01*
X113095000Y-115211961D02*
X113128333Y-115021485D01*
X113128333Y-115021485D02*
X113128333Y-114688152D01*
X113128333Y-114688152D02*
X113095000Y-114497676D01*
X113095000Y-114497676D02*
X113028333Y-114402438D01*
X113028333Y-114402438D02*
X112961667Y-114354819D01*
X112461667Y-114354819D02*
X112061667Y-114354819D01*
X112261667Y-115354819D02*
X112261667Y-114354819D01*
X111461667Y-115354819D02*
X111861667Y-115354819D01*
X111661667Y-115354819D02*
X111661667Y-114354819D01*
X111661667Y-114354819D02*
X111728334Y-114497676D01*
X111728334Y-114497676D02*
X111795001Y-114592914D01*
X111795001Y-114592914D02*
X111861667Y-114640533D01*
X122344999Y-116231009D02*
X122244999Y-116278628D01*
X122244999Y-116278628D02*
X122211665Y-116326247D01*
X122211665Y-116326247D02*
X122178332Y-116421485D01*
X122178332Y-116421485D02*
X122178332Y-116564342D01*
X122178332Y-116564342D02*
X122211665Y-116659580D01*
X122211665Y-116659580D02*
X122244999Y-116707200D01*
X122244999Y-116707200D02*
X122311665Y-116754819D01*
X122311665Y-116754819D02*
X122578332Y-116754819D01*
X122578332Y-116754819D02*
X122578332Y-115754819D01*
X122578332Y-115754819D02*
X122344999Y-115754819D01*
X122344999Y-115754819D02*
X122278332Y-115802438D01*
X122278332Y-115802438D02*
X122244999Y-115850057D01*
X122244999Y-115850057D02*
X122211665Y-115945295D01*
X122211665Y-115945295D02*
X122211665Y-116040533D01*
X122211665Y-116040533D02*
X122244999Y-116135771D01*
X122244999Y-116135771D02*
X122278332Y-116183390D01*
X122278332Y-116183390D02*
X122344999Y-116231009D01*
X122344999Y-116231009D02*
X122578332Y-116231009D01*
X121778332Y-116183390D02*
X121844999Y-116135771D01*
X121844999Y-116135771D02*
X121878332Y-116088152D01*
X121878332Y-116088152D02*
X121911665Y-115992914D01*
X121911665Y-115992914D02*
X121911665Y-115945295D01*
X121911665Y-115945295D02*
X121878332Y-115850057D01*
X121878332Y-115850057D02*
X121844999Y-115802438D01*
X121844999Y-115802438D02*
X121778332Y-115754819D01*
X121778332Y-115754819D02*
X121644999Y-115754819D01*
X121644999Y-115754819D02*
X121578332Y-115802438D01*
X121578332Y-115802438D02*
X121544999Y-115850057D01*
X121544999Y-115850057D02*
X121511665Y-115945295D01*
X121511665Y-115945295D02*
X121511665Y-115992914D01*
X121511665Y-115992914D02*
X121544999Y-116088152D01*
X121544999Y-116088152D02*
X121578332Y-116135771D01*
X121578332Y-116135771D02*
X121644999Y-116183390D01*
X121644999Y-116183390D02*
X121778332Y-116183390D01*
X121778332Y-116183390D02*
X121844999Y-116231009D01*
X121844999Y-116231009D02*
X121878332Y-116278628D01*
X121878332Y-116278628D02*
X121911665Y-116373866D01*
X121911665Y-116373866D02*
X121911665Y-116564342D01*
X121911665Y-116564342D02*
X121878332Y-116659580D01*
X121878332Y-116659580D02*
X121844999Y-116707200D01*
X121844999Y-116707200D02*
X121778332Y-116754819D01*
X121778332Y-116754819D02*
X121644999Y-116754819D01*
X121644999Y-116754819D02*
X121578332Y-116707200D01*
X121578332Y-116707200D02*
X121544999Y-116659580D01*
X121544999Y-116659580D02*
X121511665Y-116564342D01*
X121511665Y-116564342D02*
X121511665Y-116373866D01*
X121511665Y-116373866D02*
X121544999Y-116278628D01*
X121544999Y-116278628D02*
X121578332Y-116231009D01*
X121578332Y-116231009D02*
X121644999Y-116183390D01*
X120278332Y-116659580D02*
X120311665Y-116707200D01*
X120311665Y-116707200D02*
X120411665Y-116754819D01*
X120411665Y-116754819D02*
X120478332Y-116754819D01*
X120478332Y-116754819D02*
X120578332Y-116707200D01*
X120578332Y-116707200D02*
X120644999Y-116611961D01*
X120644999Y-116611961D02*
X120678332Y-116516723D01*
X120678332Y-116516723D02*
X120711665Y-116326247D01*
X120711665Y-116326247D02*
X120711665Y-116183390D01*
X120711665Y-116183390D02*
X120678332Y-115992914D01*
X120678332Y-115992914D02*
X120644999Y-115897676D01*
X120644999Y-115897676D02*
X120578332Y-115802438D01*
X120578332Y-115802438D02*
X120478332Y-115754819D01*
X120478332Y-115754819D02*
X120411665Y-115754819D01*
X120411665Y-115754819D02*
X120311665Y-115802438D01*
X120311665Y-115802438D02*
X120278332Y-115850057D01*
X120011665Y-116469104D02*
X119678332Y-116469104D01*
X120078332Y-116754819D02*
X119844999Y-115754819D01*
X119844999Y-115754819D02*
X119611665Y-116754819D01*
X119378332Y-116754819D02*
X119378332Y-115754819D01*
X119378332Y-115754819D02*
X118978332Y-116754819D01*
X118978332Y-116754819D02*
X118978332Y-115754819D01*
X118244999Y-116754819D02*
X118478332Y-116278628D01*
X118644999Y-116754819D02*
X118644999Y-115754819D01*
X118644999Y-115754819D02*
X118378332Y-115754819D01*
X118378332Y-115754819D02*
X118311666Y-115802438D01*
X118311666Y-115802438D02*
X118278332Y-115850057D01*
X118278332Y-115850057D02*
X118244999Y-115945295D01*
X118244999Y-115945295D02*
X118244999Y-116088152D01*
X118244999Y-116088152D02*
X118278332Y-116183390D01*
X118278332Y-116183390D02*
X118311666Y-116231009D01*
X118311666Y-116231009D02*
X118378332Y-116278628D01*
X118378332Y-116278628D02*
X118644999Y-116278628D01*
X118011666Y-115754819D02*
X117544999Y-116754819D01*
X117544999Y-115754819D02*
X118011666Y-116754819D01*
X115978333Y-116231009D02*
X115878333Y-116278628D01*
X115878333Y-116278628D02*
X115844999Y-116326247D01*
X115844999Y-116326247D02*
X115811666Y-116421485D01*
X115811666Y-116421485D02*
X115811666Y-116564342D01*
X115811666Y-116564342D02*
X115844999Y-116659580D01*
X115844999Y-116659580D02*
X115878333Y-116707200D01*
X115878333Y-116707200D02*
X115944999Y-116754819D01*
X115944999Y-116754819D02*
X116211666Y-116754819D01*
X116211666Y-116754819D02*
X116211666Y-115754819D01*
X116211666Y-115754819D02*
X115978333Y-115754819D01*
X115978333Y-115754819D02*
X115911666Y-115802438D01*
X115911666Y-115802438D02*
X115878333Y-115850057D01*
X115878333Y-115850057D02*
X115844999Y-115945295D01*
X115844999Y-115945295D02*
X115844999Y-116040533D01*
X115844999Y-116040533D02*
X115878333Y-116135771D01*
X115878333Y-116135771D02*
X115911666Y-116183390D01*
X115911666Y-116183390D02*
X115978333Y-116231009D01*
X115978333Y-116231009D02*
X116211666Y-116231009D01*
X115478333Y-116754819D02*
X115344999Y-116754819D01*
X115344999Y-116754819D02*
X115278333Y-116707200D01*
X115278333Y-116707200D02*
X115244999Y-116659580D01*
X115244999Y-116659580D02*
X115178333Y-116516723D01*
X115178333Y-116516723D02*
X115144999Y-116326247D01*
X115144999Y-116326247D02*
X115144999Y-115945295D01*
X115144999Y-115945295D02*
X115178333Y-115850057D01*
X115178333Y-115850057D02*
X115211666Y-115802438D01*
X115211666Y-115802438D02*
X115278333Y-115754819D01*
X115278333Y-115754819D02*
X115411666Y-115754819D01*
X115411666Y-115754819D02*
X115478333Y-115802438D01*
X115478333Y-115802438D02*
X115511666Y-115850057D01*
X115511666Y-115850057D02*
X115544999Y-115945295D01*
X115544999Y-115945295D02*
X115544999Y-116183390D01*
X115544999Y-116183390D02*
X115511666Y-116278628D01*
X115511666Y-116278628D02*
X115478333Y-116326247D01*
X115478333Y-116326247D02*
X115411666Y-116373866D01*
X115411666Y-116373866D02*
X115278333Y-116373866D01*
X115278333Y-116373866D02*
X115211666Y-116326247D01*
X115211666Y-116326247D02*
X115178333Y-116278628D01*
X115178333Y-116278628D02*
X115144999Y-116183390D01*
X113911666Y-116659580D02*
X113944999Y-116707200D01*
X113944999Y-116707200D02*
X114044999Y-116754819D01*
X114044999Y-116754819D02*
X114111666Y-116754819D01*
X114111666Y-116754819D02*
X114211666Y-116707200D01*
X114211666Y-116707200D02*
X114278333Y-116611961D01*
X114278333Y-116611961D02*
X114311666Y-116516723D01*
X114311666Y-116516723D02*
X114344999Y-116326247D01*
X114344999Y-116326247D02*
X114344999Y-116183390D01*
X114344999Y-116183390D02*
X114311666Y-115992914D01*
X114311666Y-115992914D02*
X114278333Y-115897676D01*
X114278333Y-115897676D02*
X114211666Y-115802438D01*
X114211666Y-115802438D02*
X114111666Y-115754819D01*
X114111666Y-115754819D02*
X114044999Y-115754819D01*
X114044999Y-115754819D02*
X113944999Y-115802438D01*
X113944999Y-115802438D02*
X113911666Y-115850057D01*
X113644999Y-116469104D02*
X113311666Y-116469104D01*
X113711666Y-116754819D02*
X113478333Y-115754819D01*
X113478333Y-115754819D02*
X113244999Y-116754819D01*
X113011666Y-116754819D02*
X113011666Y-115754819D01*
X113011666Y-115754819D02*
X112611666Y-116754819D01*
X112611666Y-116754819D02*
X112611666Y-115754819D01*
X112378333Y-115754819D02*
X111978333Y-115754819D01*
X112178333Y-116754819D02*
X112178333Y-115754819D01*
X111811667Y-115754819D02*
X111345000Y-116754819D01*
X111345000Y-115754819D02*
X111811667Y-116754819D01*
X121561665Y-118059580D02*
X121594998Y-118107200D01*
X121594998Y-118107200D02*
X121694998Y-118154819D01*
X121694998Y-118154819D02*
X121761665Y-118154819D01*
X121761665Y-118154819D02*
X121861665Y-118107200D01*
X121861665Y-118107200D02*
X121928332Y-118011961D01*
X121928332Y-118011961D02*
X121961665Y-117916723D01*
X121961665Y-117916723D02*
X121994998Y-117726247D01*
X121994998Y-117726247D02*
X121994998Y-117583390D01*
X121994998Y-117583390D02*
X121961665Y-117392914D01*
X121961665Y-117392914D02*
X121928332Y-117297676D01*
X121928332Y-117297676D02*
X121861665Y-117202438D01*
X121861665Y-117202438D02*
X121761665Y-117154819D01*
X121761665Y-117154819D02*
X121694998Y-117154819D01*
X121694998Y-117154819D02*
X121594998Y-117202438D01*
X121594998Y-117202438D02*
X121561665Y-117250057D01*
X120894998Y-118154819D02*
X121294998Y-118154819D01*
X121094998Y-118154819D02*
X121094998Y-117154819D01*
X121094998Y-117154819D02*
X121161665Y-117297676D01*
X121161665Y-117297676D02*
X121228332Y-117392914D01*
X121228332Y-117392914D02*
X121294998Y-117440533D01*
X120661665Y-117154819D02*
X120228331Y-117154819D01*
X120228331Y-117154819D02*
X120461665Y-117535771D01*
X120461665Y-117535771D02*
X120361665Y-117535771D01*
X120361665Y-117535771D02*
X120294998Y-117583390D01*
X120294998Y-117583390D02*
X120261665Y-117631009D01*
X120261665Y-117631009D02*
X120228331Y-117726247D01*
X120228331Y-117726247D02*
X120228331Y-117964342D01*
X120228331Y-117964342D02*
X120261665Y-118059580D01*
X120261665Y-118059580D02*
X120294998Y-118107200D01*
X120294998Y-118107200D02*
X120361665Y-118154819D01*
X120361665Y-118154819D02*
X120561665Y-118154819D01*
X120561665Y-118154819D02*
X120628331Y-118107200D01*
X120628331Y-118107200D02*
X120661665Y-118059580D01*
X119061665Y-118154819D02*
X119394998Y-118154819D01*
X119394998Y-118154819D02*
X119394998Y-117154819D01*
X118828331Y-117631009D02*
X118594998Y-117631009D01*
X118494998Y-118154819D02*
X118828331Y-118154819D01*
X118828331Y-118154819D02*
X118828331Y-117154819D01*
X118828331Y-117154819D02*
X118494998Y-117154819D01*
X118194998Y-118154819D02*
X118194998Y-117154819D01*
X118194998Y-117154819D02*
X118028331Y-117154819D01*
X118028331Y-117154819D02*
X117928331Y-117202438D01*
X117928331Y-117202438D02*
X117861665Y-117297676D01*
X117861665Y-117297676D02*
X117828331Y-117392914D01*
X117828331Y-117392914D02*
X117794998Y-117583390D01*
X117794998Y-117583390D02*
X117794998Y-117726247D01*
X117794998Y-117726247D02*
X117828331Y-117916723D01*
X117828331Y-117916723D02*
X117861665Y-118011961D01*
X117861665Y-118011961D02*
X117928331Y-118107200D01*
X117928331Y-118107200D02*
X118028331Y-118154819D01*
X118028331Y-118154819D02*
X118194998Y-118154819D01*
X117461665Y-118107200D02*
X117461665Y-118154819D01*
X117461665Y-118154819D02*
X117494998Y-118250057D01*
X117494998Y-118250057D02*
X117528331Y-118297676D01*
X116528332Y-118154819D02*
X116594999Y-118107200D01*
X116594999Y-118107200D02*
X116628332Y-118011961D01*
X116628332Y-118011961D02*
X116628332Y-117154819D01*
X116161665Y-118154819D02*
X116228332Y-118107200D01*
X116228332Y-118107200D02*
X116261665Y-118059580D01*
X116261665Y-118059580D02*
X116294998Y-117964342D01*
X116294998Y-117964342D02*
X116294998Y-117678628D01*
X116294998Y-117678628D02*
X116261665Y-117583390D01*
X116261665Y-117583390D02*
X116228332Y-117535771D01*
X116228332Y-117535771D02*
X116161665Y-117488152D01*
X116161665Y-117488152D02*
X116061665Y-117488152D01*
X116061665Y-117488152D02*
X115994998Y-117535771D01*
X115994998Y-117535771D02*
X115961665Y-117583390D01*
X115961665Y-117583390D02*
X115928332Y-117678628D01*
X115928332Y-117678628D02*
X115928332Y-117964342D01*
X115928332Y-117964342D02*
X115961665Y-118059580D01*
X115961665Y-118059580D02*
X115994998Y-118107200D01*
X115994998Y-118107200D02*
X116061665Y-118154819D01*
X116061665Y-118154819D02*
X116161665Y-118154819D01*
X115694999Y-117488152D02*
X115561665Y-118154819D01*
X115561665Y-118154819D02*
X115428332Y-117678628D01*
X115428332Y-117678628D02*
X115294999Y-118154819D01*
X115294999Y-118154819D02*
X115161665Y-117488152D01*
X114361666Y-117631009D02*
X113828333Y-117631009D01*
X113828333Y-117916723D02*
X114361666Y-117916723D01*
X112861666Y-118154819D02*
X112928333Y-118107200D01*
X112928333Y-118107200D02*
X112961666Y-118059580D01*
X112961666Y-118059580D02*
X112994999Y-117964342D01*
X112994999Y-117964342D02*
X112994999Y-117678628D01*
X112994999Y-117678628D02*
X112961666Y-117583390D01*
X112961666Y-117583390D02*
X112928333Y-117535771D01*
X112928333Y-117535771D02*
X112861666Y-117488152D01*
X112861666Y-117488152D02*
X112761666Y-117488152D01*
X112761666Y-117488152D02*
X112694999Y-117535771D01*
X112694999Y-117535771D02*
X112661666Y-117583390D01*
X112661666Y-117583390D02*
X112628333Y-117678628D01*
X112628333Y-117678628D02*
X112628333Y-117964342D01*
X112628333Y-117964342D02*
X112661666Y-118059580D01*
X112661666Y-118059580D02*
X112694999Y-118107200D01*
X112694999Y-118107200D02*
X112761666Y-118154819D01*
X112761666Y-118154819D02*
X112861666Y-118154819D01*
X112328333Y-117488152D02*
X112328333Y-118154819D01*
X112328333Y-117583390D02*
X112295000Y-117535771D01*
X112295000Y-117535771D02*
X112228333Y-117488152D01*
X112228333Y-117488152D02*
X112128333Y-117488152D01*
X112128333Y-117488152D02*
X112061666Y-117535771D01*
X112061666Y-117535771D02*
X112028333Y-117631009D01*
X112028333Y-117631009D02*
X112028333Y-118154819D01*
X123295000Y-118554819D02*
X123628333Y-118554819D01*
X123628333Y-118554819D02*
X123661666Y-119031009D01*
X123661666Y-119031009D02*
X123628333Y-118983390D01*
X123628333Y-118983390D02*
X123561666Y-118935771D01*
X123561666Y-118935771D02*
X123395000Y-118935771D01*
X123395000Y-118935771D02*
X123328333Y-118983390D01*
X123328333Y-118983390D02*
X123295000Y-119031009D01*
X123295000Y-119031009D02*
X123261666Y-119126247D01*
X123261666Y-119126247D02*
X123261666Y-119364342D01*
X123261666Y-119364342D02*
X123295000Y-119459580D01*
X123295000Y-119459580D02*
X123328333Y-119507200D01*
X123328333Y-119507200D02*
X123395000Y-119554819D01*
X123395000Y-119554819D02*
X123561666Y-119554819D01*
X123561666Y-119554819D02*
X123628333Y-119507200D01*
X123628333Y-119507200D02*
X123661666Y-119459580D01*
X123061666Y-118554819D02*
X122828333Y-119554819D01*
X122828333Y-119554819D02*
X122594999Y-118554819D01*
X121828333Y-119554819D02*
X121828333Y-118888152D01*
X121828333Y-118983390D02*
X121795000Y-118935771D01*
X121795000Y-118935771D02*
X121728333Y-118888152D01*
X121728333Y-118888152D02*
X121628333Y-118888152D01*
X121628333Y-118888152D02*
X121561666Y-118935771D01*
X121561666Y-118935771D02*
X121528333Y-119031009D01*
X121528333Y-119031009D02*
X121528333Y-119554819D01*
X121528333Y-119031009D02*
X121495000Y-118935771D01*
X121495000Y-118935771D02*
X121428333Y-118888152D01*
X121428333Y-118888152D02*
X121328333Y-118888152D01*
X121328333Y-118888152D02*
X121261666Y-118935771D01*
X121261666Y-118935771D02*
X121228333Y-119031009D01*
X121228333Y-119031009D02*
X121228333Y-119554819D01*
X120595000Y-119554819D02*
X120595000Y-119031009D01*
X120595000Y-119031009D02*
X120628333Y-118935771D01*
X120628333Y-118935771D02*
X120695000Y-118888152D01*
X120695000Y-118888152D02*
X120828333Y-118888152D01*
X120828333Y-118888152D02*
X120895000Y-118935771D01*
X120595000Y-119507200D02*
X120661667Y-119554819D01*
X120661667Y-119554819D02*
X120828333Y-119554819D01*
X120828333Y-119554819D02*
X120895000Y-119507200D01*
X120895000Y-119507200D02*
X120928333Y-119411961D01*
X120928333Y-119411961D02*
X120928333Y-119316723D01*
X120928333Y-119316723D02*
X120895000Y-119221485D01*
X120895000Y-119221485D02*
X120828333Y-119173866D01*
X120828333Y-119173866D02*
X120661667Y-119173866D01*
X120661667Y-119173866D02*
X120595000Y-119126247D01*
X120328334Y-119554819D02*
X119961667Y-118888152D01*
X120328334Y-118888152D02*
X119961667Y-119554819D01*
X118828334Y-118554819D02*
X119161667Y-118554819D01*
X119161667Y-118554819D02*
X119195000Y-119031009D01*
X119195000Y-119031009D02*
X119161667Y-118983390D01*
X119161667Y-118983390D02*
X119095000Y-118935771D01*
X119095000Y-118935771D02*
X118928334Y-118935771D01*
X118928334Y-118935771D02*
X118861667Y-118983390D01*
X118861667Y-118983390D02*
X118828334Y-119031009D01*
X118828334Y-119031009D02*
X118795000Y-119126247D01*
X118795000Y-119126247D02*
X118795000Y-119364342D01*
X118795000Y-119364342D02*
X118828334Y-119459580D01*
X118828334Y-119459580D02*
X118861667Y-119507200D01*
X118861667Y-119507200D02*
X118928334Y-119554819D01*
X118928334Y-119554819D02*
X119095000Y-119554819D01*
X119095000Y-119554819D02*
X119161667Y-119507200D01*
X119161667Y-119507200D02*
X119195000Y-119459580D01*
X118495000Y-119459580D02*
X118461667Y-119507200D01*
X118461667Y-119507200D02*
X118495000Y-119554819D01*
X118495000Y-119554819D02*
X118528333Y-119507200D01*
X118528333Y-119507200D02*
X118495000Y-119459580D01*
X118495000Y-119459580D02*
X118495000Y-119554819D01*
X117828334Y-118554819D02*
X118161667Y-118554819D01*
X118161667Y-118554819D02*
X118195000Y-119031009D01*
X118195000Y-119031009D02*
X118161667Y-118983390D01*
X118161667Y-118983390D02*
X118095000Y-118935771D01*
X118095000Y-118935771D02*
X117928334Y-118935771D01*
X117928334Y-118935771D02*
X117861667Y-118983390D01*
X117861667Y-118983390D02*
X117828334Y-119031009D01*
X117828334Y-119031009D02*
X117795000Y-119126247D01*
X117795000Y-119126247D02*
X117795000Y-119364342D01*
X117795000Y-119364342D02*
X117828334Y-119459580D01*
X117828334Y-119459580D02*
X117861667Y-119507200D01*
X117861667Y-119507200D02*
X117928334Y-119554819D01*
X117928334Y-119554819D02*
X118095000Y-119554819D01*
X118095000Y-119554819D02*
X118161667Y-119507200D01*
X118161667Y-119507200D02*
X118195000Y-119459580D01*
X117595000Y-118554819D02*
X117361667Y-119554819D01*
X117361667Y-119554819D02*
X117128333Y-118554819D01*
X116861667Y-119507200D02*
X116861667Y-119554819D01*
X116861667Y-119554819D02*
X116895000Y-119650057D01*
X116895000Y-119650057D02*
X116928333Y-119697676D01*
X116095001Y-118554819D02*
X115661667Y-118554819D01*
X115661667Y-118554819D02*
X115895001Y-118935771D01*
X115895001Y-118935771D02*
X115795001Y-118935771D01*
X115795001Y-118935771D02*
X115728334Y-118983390D01*
X115728334Y-118983390D02*
X115695001Y-119031009D01*
X115695001Y-119031009D02*
X115661667Y-119126247D01*
X115661667Y-119126247D02*
X115661667Y-119364342D01*
X115661667Y-119364342D02*
X115695001Y-119459580D01*
X115695001Y-119459580D02*
X115728334Y-119507200D01*
X115728334Y-119507200D02*
X115795001Y-119554819D01*
X115795001Y-119554819D02*
X115995001Y-119554819D01*
X115995001Y-119554819D02*
X116061667Y-119507200D01*
X116061667Y-119507200D02*
X116095001Y-119459580D01*
X115461667Y-118554819D02*
X115228334Y-119554819D01*
X115228334Y-119554819D02*
X114995000Y-118554819D01*
X114828334Y-118554819D02*
X114395000Y-118554819D01*
X114395000Y-118554819D02*
X114628334Y-118935771D01*
X114628334Y-118935771D02*
X114528334Y-118935771D01*
X114528334Y-118935771D02*
X114461667Y-118983390D01*
X114461667Y-118983390D02*
X114428334Y-119031009D01*
X114428334Y-119031009D02*
X114395000Y-119126247D01*
X114395000Y-119126247D02*
X114395000Y-119364342D01*
X114395000Y-119364342D02*
X114428334Y-119459580D01*
X114428334Y-119459580D02*
X114461667Y-119507200D01*
X114461667Y-119507200D02*
X114528334Y-119554819D01*
X114528334Y-119554819D02*
X114728334Y-119554819D01*
X114728334Y-119554819D02*
X114795000Y-119507200D01*
X114795000Y-119507200D02*
X114828334Y-119459580D01*
X113595000Y-118650057D02*
X113561667Y-118602438D01*
X113561667Y-118602438D02*
X113495000Y-118554819D01*
X113495000Y-118554819D02*
X113328334Y-118554819D01*
X113328334Y-118554819D02*
X113261667Y-118602438D01*
X113261667Y-118602438D02*
X113228334Y-118650057D01*
X113228334Y-118650057D02*
X113195000Y-118745295D01*
X113195000Y-118745295D02*
X113195000Y-118840533D01*
X113195000Y-118840533D02*
X113228334Y-118983390D01*
X113228334Y-118983390D02*
X113628334Y-119554819D01*
X113628334Y-119554819D02*
X113195000Y-119554819D01*
X112561667Y-118554819D02*
X112895000Y-118554819D01*
X112895000Y-118554819D02*
X112928333Y-119031009D01*
X112928333Y-119031009D02*
X112895000Y-118983390D01*
X112895000Y-118983390D02*
X112828333Y-118935771D01*
X112828333Y-118935771D02*
X112661667Y-118935771D01*
X112661667Y-118935771D02*
X112595000Y-118983390D01*
X112595000Y-118983390D02*
X112561667Y-119031009D01*
X112561667Y-119031009D02*
X112528333Y-119126247D01*
X112528333Y-119126247D02*
X112528333Y-119364342D01*
X112528333Y-119364342D02*
X112561667Y-119459580D01*
X112561667Y-119459580D02*
X112595000Y-119507200D01*
X112595000Y-119507200D02*
X112661667Y-119554819D01*
X112661667Y-119554819D02*
X112828333Y-119554819D01*
X112828333Y-119554819D02*
X112895000Y-119507200D01*
X112895000Y-119507200D02*
X112928333Y-119459580D01*
X112095000Y-118554819D02*
X112028333Y-118554819D01*
X112028333Y-118554819D02*
X111961666Y-118602438D01*
X111961666Y-118602438D02*
X111928333Y-118650057D01*
X111928333Y-118650057D02*
X111895000Y-118745295D01*
X111895000Y-118745295D02*
X111861666Y-118935771D01*
X111861666Y-118935771D02*
X111861666Y-119173866D01*
X111861666Y-119173866D02*
X111895000Y-119364342D01*
X111895000Y-119364342D02*
X111928333Y-119459580D01*
X111928333Y-119459580D02*
X111961666Y-119507200D01*
X111961666Y-119507200D02*
X112028333Y-119554819D01*
X112028333Y-119554819D02*
X112095000Y-119554819D01*
X112095000Y-119554819D02*
X112161666Y-119507200D01*
X112161666Y-119507200D02*
X112195000Y-119459580D01*
X112195000Y-119459580D02*
X112228333Y-119364342D01*
X112228333Y-119364342D02*
X112261666Y-119173866D01*
X112261666Y-119173866D02*
X112261666Y-118935771D01*
X112261666Y-118935771D02*
X112228333Y-118745295D01*
X112228333Y-118745295D02*
X112195000Y-118650057D01*
X112195000Y-118650057D02*
X112161666Y-118602438D01*
X112161666Y-118602438D02*
X112095000Y-118554819D01*
X111561666Y-119554819D02*
X111561666Y-118888152D01*
X111561666Y-118983390D02*
X111528333Y-118935771D01*
X111528333Y-118935771D02*
X111461666Y-118888152D01*
X111461666Y-118888152D02*
X111361666Y-118888152D01*
X111361666Y-118888152D02*
X111294999Y-118935771D01*
X111294999Y-118935771D02*
X111261666Y-119031009D01*
X111261666Y-119031009D02*
X111261666Y-119554819D01*
X111261666Y-119031009D02*
X111228333Y-118935771D01*
X111228333Y-118935771D02*
X111161666Y-118888152D01*
X111161666Y-118888152D02*
X111061666Y-118888152D01*
X111061666Y-118888152D02*
X110994999Y-118935771D01*
X110994999Y-118935771D02*
X110961666Y-119031009D01*
X110961666Y-119031009D02*
X110961666Y-119554819D01*
X110661666Y-119269104D02*
X110328333Y-119269104D01*
X110728333Y-119554819D02*
X110495000Y-118554819D01*
X110495000Y-118554819D02*
X110261666Y-119554819D01*
X122544999Y-120954819D02*
X122544999Y-119954819D01*
X122211666Y-120954819D02*
X122211666Y-119954819D01*
X122211666Y-119954819D02*
X121978333Y-120669104D01*
X121978333Y-120669104D02*
X121744999Y-119954819D01*
X121744999Y-119954819D02*
X121744999Y-120954819D01*
X121411666Y-119954819D02*
X121411666Y-120764342D01*
X121411666Y-120764342D02*
X121378333Y-120859580D01*
X121378333Y-120859580D02*
X121344999Y-120907200D01*
X121344999Y-120907200D02*
X121278333Y-120954819D01*
X121278333Y-120954819D02*
X121144999Y-120954819D01*
X121144999Y-120954819D02*
X121078333Y-120907200D01*
X121078333Y-120907200D02*
X121044999Y-120859580D01*
X121044999Y-120859580D02*
X121011666Y-120764342D01*
X121011666Y-120764342D02*
X121011666Y-119954819D01*
X120011667Y-119954819D02*
X119945000Y-119954819D01*
X119945000Y-119954819D02*
X119878333Y-120002438D01*
X119878333Y-120002438D02*
X119845000Y-120050057D01*
X119845000Y-120050057D02*
X119811667Y-120145295D01*
X119811667Y-120145295D02*
X119778333Y-120335771D01*
X119778333Y-120335771D02*
X119778333Y-120573866D01*
X119778333Y-120573866D02*
X119811667Y-120764342D01*
X119811667Y-120764342D02*
X119845000Y-120859580D01*
X119845000Y-120859580D02*
X119878333Y-120907200D01*
X119878333Y-120907200D02*
X119945000Y-120954819D01*
X119945000Y-120954819D02*
X120011667Y-120954819D01*
X120011667Y-120954819D02*
X120078333Y-120907200D01*
X120078333Y-120907200D02*
X120111667Y-120859580D01*
X120111667Y-120859580D02*
X120145000Y-120764342D01*
X120145000Y-120764342D02*
X120178333Y-120573866D01*
X120178333Y-120573866D02*
X120178333Y-120335771D01*
X120178333Y-120335771D02*
X120145000Y-120145295D01*
X120145000Y-120145295D02*
X120111667Y-120050057D01*
X120111667Y-120050057D02*
X120078333Y-120002438D01*
X120078333Y-120002438D02*
X120011667Y-119954819D01*
X119545000Y-120954819D02*
X119178333Y-120288152D01*
X119545000Y-120288152D02*
X119178333Y-120954819D01*
X118611666Y-119954819D02*
X118744999Y-119954819D01*
X118744999Y-119954819D02*
X118811666Y-120002438D01*
X118811666Y-120002438D02*
X118844999Y-120050057D01*
X118844999Y-120050057D02*
X118911666Y-120192914D01*
X118911666Y-120192914D02*
X118944999Y-120383390D01*
X118944999Y-120383390D02*
X118944999Y-120764342D01*
X118944999Y-120764342D02*
X118911666Y-120859580D01*
X118911666Y-120859580D02*
X118878333Y-120907200D01*
X118878333Y-120907200D02*
X118811666Y-120954819D01*
X118811666Y-120954819D02*
X118678333Y-120954819D01*
X118678333Y-120954819D02*
X118611666Y-120907200D01*
X118611666Y-120907200D02*
X118578333Y-120859580D01*
X118578333Y-120859580D02*
X118544999Y-120764342D01*
X118544999Y-120764342D02*
X118544999Y-120526247D01*
X118544999Y-120526247D02*
X118578333Y-120431009D01*
X118578333Y-120431009D02*
X118611666Y-120383390D01*
X118611666Y-120383390D02*
X118678333Y-120335771D01*
X118678333Y-120335771D02*
X118811666Y-120335771D01*
X118811666Y-120335771D02*
X118878333Y-120383390D01*
X118878333Y-120383390D02*
X118911666Y-120431009D01*
X118911666Y-120431009D02*
X118944999Y-120526247D01*
X118278332Y-120669104D02*
X117944999Y-120669104D01*
X118344999Y-120954819D02*
X118111666Y-119954819D01*
X118111666Y-119954819D02*
X117878332Y-120954819D01*
X116578333Y-120954819D02*
X116578333Y-119954819D01*
X116245000Y-120954819D02*
X116245000Y-119954819D01*
X116245000Y-119954819D02*
X115845000Y-120954819D01*
X115845000Y-120954819D02*
X115845000Y-119954819D01*
X115611667Y-119954819D02*
X115211667Y-119954819D01*
X115411667Y-120954819D02*
X115411667Y-119954819D01*
X114611667Y-120954819D02*
X115011667Y-120954819D01*
X114811667Y-120954819D02*
X114811667Y-119954819D01*
X114811667Y-119954819D02*
X114878334Y-120097676D01*
X114878334Y-120097676D02*
X114945001Y-120192914D01*
X114945001Y-120192914D02*
X115011667Y-120240533D01*
X113778334Y-120431009D02*
X113245001Y-120431009D01*
X113245001Y-120716723D02*
X113778334Y-120716723D01*
X112411667Y-120669104D02*
X112078334Y-120669104D01*
X112478334Y-120954819D02*
X112245001Y-119954819D01*
X112245001Y-119954819D02*
X112011667Y-120954819D01*
X111645001Y-119954819D02*
X111578334Y-119954819D01*
X111578334Y-119954819D02*
X111511667Y-120002438D01*
X111511667Y-120002438D02*
X111478334Y-120050057D01*
X111478334Y-120050057D02*
X111445001Y-120145295D01*
X111445001Y-120145295D02*
X111411667Y-120335771D01*
X111411667Y-120335771D02*
X111411667Y-120573866D01*
X111411667Y-120573866D02*
X111445001Y-120764342D01*
X111445001Y-120764342D02*
X111478334Y-120859580D01*
X111478334Y-120859580D02*
X111511667Y-120907200D01*
X111511667Y-120907200D02*
X111578334Y-120954819D01*
X111578334Y-120954819D02*
X111645001Y-120954819D01*
X111645001Y-120954819D02*
X111711667Y-120907200D01*
X111711667Y-120907200D02*
X111745001Y-120859580D01*
X111745001Y-120859580D02*
X111778334Y-120764342D01*
X111778334Y-120764342D02*
X111811667Y-120573866D01*
X111811667Y-120573866D02*
X111811667Y-120335771D01*
X111811667Y-120335771D02*
X111778334Y-120145295D01*
X111778334Y-120145295D02*
X111745001Y-120050057D01*
X111745001Y-120050057D02*
X111711667Y-120002438D01*
X111711667Y-120002438D02*
X111645001Y-119954819D01*
X121323570Y-124447342D02*
X121323570Y-123247342D01*
X121323570Y-123247342D02*
X120809284Y-124447342D01*
X120809284Y-124447342D02*
X120809284Y-123247342D01*
X120380713Y-124447342D02*
X120380713Y-123647342D01*
X120380713Y-123247342D02*
X120423570Y-123304485D01*
X120423570Y-123304485D02*
X120380713Y-123361628D01*
X120380713Y-123361628D02*
X120337856Y-123304485D01*
X120337856Y-123304485D02*
X120380713Y-123247342D01*
X120380713Y-123247342D02*
X120380713Y-123361628D01*
X119566428Y-124390200D02*
X119652142Y-124447342D01*
X119652142Y-124447342D02*
X119823570Y-124447342D01*
X119823570Y-124447342D02*
X119909285Y-124390200D01*
X119909285Y-124390200D02*
X119952142Y-124333057D01*
X119952142Y-124333057D02*
X119994999Y-124218771D01*
X119994999Y-124218771D02*
X119994999Y-123875914D01*
X119994999Y-123875914D02*
X119952142Y-123761628D01*
X119952142Y-123761628D02*
X119909285Y-123704485D01*
X119909285Y-123704485D02*
X119823570Y-123647342D01*
X119823570Y-123647342D02*
X119652142Y-123647342D01*
X119652142Y-123647342D02*
X119566428Y-123704485D01*
X119180713Y-124447342D02*
X119180713Y-123247342D01*
X119094999Y-123990200D02*
X118837856Y-124447342D01*
X118837856Y-123647342D02*
X119180713Y-124104485D01*
X118023570Y-124447342D02*
X118452142Y-124447342D01*
X118452142Y-124447342D02*
X118452142Y-123247342D01*
X117723571Y-124447342D02*
X117723571Y-123647342D01*
X117723571Y-123247342D02*
X117766428Y-123304485D01*
X117766428Y-123304485D02*
X117723571Y-123361628D01*
X117723571Y-123361628D02*
X117680714Y-123304485D01*
X117680714Y-123304485D02*
X117723571Y-123247342D01*
X117723571Y-123247342D02*
X117723571Y-123361628D01*
X117295000Y-123647342D02*
X117295000Y-124447342D01*
X117295000Y-123761628D02*
X117252143Y-123704485D01*
X117252143Y-123704485D02*
X117166428Y-123647342D01*
X117166428Y-123647342D02*
X117037857Y-123647342D01*
X117037857Y-123647342D02*
X116952143Y-123704485D01*
X116952143Y-123704485D02*
X116909286Y-123818771D01*
X116909286Y-123818771D02*
X116909286Y-124447342D01*
X116480714Y-124447342D02*
X116480714Y-123247342D01*
X116395000Y-123990200D02*
X116137857Y-124447342D01*
X116137857Y-123647342D02*
X116480714Y-124104485D01*
X115152143Y-123647342D02*
X114937857Y-124447342D01*
X114937857Y-124447342D02*
X114723572Y-123647342D01*
X113909286Y-124447342D02*
X114423572Y-124447342D01*
X114166429Y-124447342D02*
X114166429Y-123247342D01*
X114166429Y-123247342D02*
X114252143Y-123418771D01*
X114252143Y-123418771D02*
X114337858Y-123533057D01*
X114337858Y-123533057D02*
X114423572Y-123590200D01*
X113523572Y-124333057D02*
X113480715Y-124390200D01*
X113480715Y-124390200D02*
X113523572Y-124447342D01*
X113523572Y-124447342D02*
X113566429Y-124390200D01*
X113566429Y-124390200D02*
X113523572Y-124333057D01*
X113523572Y-124333057D02*
X113523572Y-124447342D01*
X113180715Y-123247342D02*
X112623572Y-123247342D01*
X112623572Y-123247342D02*
X112923572Y-123704485D01*
X112923572Y-123704485D02*
X112795001Y-123704485D01*
X112795001Y-123704485D02*
X112709287Y-123761628D01*
X112709287Y-123761628D02*
X112666429Y-123818771D01*
X112666429Y-123818771D02*
X112623572Y-123933057D01*
X112623572Y-123933057D02*
X112623572Y-124218771D01*
X112623572Y-124218771D02*
X112666429Y-124333057D01*
X112666429Y-124333057D02*
X112709287Y-124390200D01*
X112709287Y-124390200D02*
X112795001Y-124447342D01*
X112795001Y-124447342D02*
X113052144Y-124447342D01*
X113052144Y-124447342D02*
X113137858Y-124390200D01*
X113137858Y-124390200D02*
X113180715Y-124333057D01*
M02*
