%TF.GenerationSoftware,KiCad,Pcbnew,10.0.6*%
%TF.CreationDate,2026-10-01T23:58:13+00:00*%
%TF.ProjectId,nicklink,6e69636b-6c69-46e6-9b2e-6b696361645f,rev?*%
%TF.SameCoordinates,Original*%
%TF.FileFunction,Soldermask,Top*%
%TF.FilePolarity,Negative*%
%FSLAX46Y46*%
G04 Gerber Fmt 4.6, Leading zero omitted, Abs format (unit mm)*
G04 Created by KiCad (PCBNEW 10.0.6) date 2026-10-01 23:58:13*
%MOMM*%
%LPD*%
G01*
G04 APERTURE LIST*
G04 APERTURE END LIST*
G36*
X102916742Y-123366601D02*
G01*
X103070687Y-123430367D01*
X103209234Y-123522941D01*
X103327059Y-123640766D01*
X103419633Y-123779313D01*
X103483399Y-123933258D01*
X103515907Y-124096685D01*
X103515907Y-124263315D01*
X103483399Y-124426742D01*
X103419633Y-124580687D01*
X103327059Y-124719234D01*
X103209234Y-124837059D01*
X103070687Y-124929633D01*
X102916742Y-124993399D01*
X102753315Y-125025907D01*
X102586685Y-125025907D01*
X102423258Y-124993399D01*
X102269313Y-124929633D01*
X102130766Y-124837059D01*
X102012941Y-124719234D01*
X101920367Y-124580687D01*
X101856601Y-124426742D01*
X101824093Y-124263315D01*
X101824093Y-124096685D01*
X101856601Y-123933258D01*
X101920367Y-123779313D01*
X102012941Y-123640766D01*
X102130766Y-123522941D01*
X102269313Y-123430367D01*
X102423258Y-123366601D01*
X102586685Y-123334093D01*
X102753315Y-123334093D01*
X102916742Y-123366601D01*
G37*
G36*
X105456742Y-123366601D02*
G01*
X105610687Y-123430367D01*
X105749234Y-123522941D01*
X105867059Y-123640766D01*
X105959633Y-123779313D01*
X106023399Y-123933258D01*
X106055907Y-124096685D01*
X106055907Y-124263315D01*
X106023399Y-124426742D01*
X105959633Y-124580687D01*
X105867059Y-124719234D01*
X105749234Y-124837059D01*
X105610687Y-124929633D01*
X105456742Y-124993399D01*
X105293315Y-125025907D01*
X105126685Y-125025907D01*
X104963258Y-124993399D01*
X104809313Y-124929633D01*
X104670766Y-124837059D01*
X104552941Y-124719234D01*
X104460367Y-124580687D01*
X104396601Y-124426742D01*
X104364093Y-124263315D01*
X104364093Y-124096685D01*
X104396601Y-123933258D01*
X104460367Y-123779313D01*
X104552941Y-123640766D01*
X104670766Y-123522941D01*
X104809313Y-123430367D01*
X104963258Y-123366601D01*
X105126685Y-123334093D01*
X105293315Y-123334093D01*
X105456742Y-123366601D01*
G37*
G36*
X129026742Y-123366601D02*
G01*
X129180687Y-123430367D01*
X129319234Y-123522941D01*
X129437059Y-123640766D01*
X129529633Y-123779313D01*
X129593399Y-123933258D01*
X129625907Y-124096685D01*
X129625907Y-124263315D01*
X129593399Y-124426742D01*
X129529633Y-124580687D01*
X129437059Y-124719234D01*
X129319234Y-124837059D01*
X129180687Y-124929633D01*
X129026742Y-124993399D01*
X128863315Y-125025907D01*
X128696685Y-125025907D01*
X128533258Y-124993399D01*
X128379313Y-124929633D01*
X128240766Y-124837059D01*
X128122941Y-124719234D01*
X128030367Y-124580687D01*
X127966601Y-124426742D01*
X127934093Y-124263315D01*
X127934093Y-124096685D01*
X127966601Y-123933258D01*
X128030367Y-123779313D01*
X128122941Y-123640766D01*
X128240766Y-123522941D01*
X128379313Y-123430367D01*
X128533258Y-123366601D01*
X128696685Y-123334093D01*
X128863315Y-123334093D01*
X129026742Y-123366601D01*
G37*
G36*
X131566742Y-123366601D02*
G01*
X131720687Y-123430367D01*
X131859234Y-123522941D01*
X131977059Y-123640766D01*
X132069633Y-123779313D01*
X132133399Y-123933258D01*
X132165907Y-124096685D01*
X132165907Y-124263315D01*
X132133399Y-124426742D01*
X132069633Y-124580687D01*
X131977059Y-124719234D01*
X131859234Y-124837059D01*
X131720687Y-124929633D01*
X131566742Y-124993399D01*
X131403315Y-125025907D01*
X131236685Y-125025907D01*
X131073258Y-124993399D01*
X130919313Y-124929633D01*
X130780766Y-124837059D01*
X130662941Y-124719234D01*
X130570367Y-124580687D01*
X130506601Y-124426742D01*
X130474093Y-124263315D01*
X130474093Y-124096685D01*
X130506601Y-123933258D01*
X130570367Y-123779313D01*
X130662941Y-123640766D01*
X130780766Y-123522941D01*
X130919313Y-123430367D01*
X131073258Y-123366601D01*
X131236685Y-123334093D01*
X131403315Y-123334093D01*
X131566742Y-123366601D01*
G37*
G36*
X114849047Y-123450805D02*
G01*
X114900408Y-123456764D01*
X114917954Y-123464511D01*
X114940671Y-123469030D01*
X114964991Y-123485280D01*
X114985793Y-123494465D01*
X115000000Y-123508672D01*
X115021777Y-123523223D01*
X115036327Y-123544999D01*
X115050534Y-123559206D01*
X115059718Y-123580006D01*
X115075970Y-123604329D01*
X115080489Y-123627048D01*
X115088235Y-123644591D01*
X115094192Y-123695940D01*
X115095000Y-123700000D01*
X115095000Y-124400000D01*
X115094192Y-124404059D01*
X115088235Y-124455408D01*
X115080489Y-124472950D01*
X115075970Y-124495671D01*
X115059716Y-124519995D01*
X115050534Y-124540793D01*
X115036329Y-124554997D01*
X115021777Y-124576777D01*
X114999997Y-124591329D01*
X114985793Y-124605534D01*
X114964995Y-124614716D01*
X114940671Y-124630970D01*
X114917950Y-124635489D01*
X114900408Y-124643235D01*
X114849061Y-124649192D01*
X114845000Y-124650000D01*
X113945000Y-124650000D01*
X113940941Y-124649192D01*
X113889591Y-124643235D01*
X113872048Y-124635489D01*
X113849329Y-124630970D01*
X113825006Y-124614718D01*
X113804206Y-124605534D01*
X113789999Y-124591327D01*
X113768223Y-124576777D01*
X113753672Y-124555000D01*
X113739465Y-124540793D01*
X113730280Y-124519991D01*
X113714030Y-124495671D01*
X113709511Y-124472954D01*
X113701764Y-124455408D01*
X113695805Y-124404049D01*
X113695000Y-124400000D01*
X113695000Y-123700000D01*
X113695804Y-123695953D01*
X113701764Y-123644591D01*
X113709511Y-123627043D01*
X113714030Y-123604329D01*
X113730278Y-123580010D01*
X113739465Y-123559206D01*
X113753674Y-123544996D01*
X113768223Y-123523223D01*
X113789996Y-123508674D01*
X113804206Y-123494465D01*
X113825010Y-123485278D01*
X113849329Y-123469030D01*
X113872043Y-123464511D01*
X113889591Y-123456764D01*
X113940952Y-123450805D01*
X113945000Y-123450000D01*
X114845000Y-123450000D01*
X114849047Y-123450805D01*
G37*
G36*
X117049047Y-123450805D02*
G01*
X117100408Y-123456764D01*
X117117954Y-123464511D01*
X117140671Y-123469030D01*
X117164991Y-123485280D01*
X117185793Y-123494465D01*
X117200000Y-123508672D01*
X117221777Y-123523223D01*
X117236327Y-123544999D01*
X117250534Y-123559206D01*
X117259718Y-123580006D01*
X117275970Y-123604329D01*
X117280489Y-123627048D01*
X117288235Y-123644591D01*
X117294192Y-123695940D01*
X117295000Y-123700000D01*
X117295000Y-124400000D01*
X117294192Y-124404059D01*
X117288235Y-124455408D01*
X117280489Y-124472950D01*
X117275970Y-124495671D01*
X117259716Y-124519995D01*
X117250534Y-124540793D01*
X117236329Y-124554997D01*
X117221777Y-124576777D01*
X117199997Y-124591329D01*
X117185793Y-124605534D01*
X117164995Y-124614716D01*
X117140671Y-124630970D01*
X117117950Y-124635489D01*
X117100408Y-124643235D01*
X117049061Y-124649192D01*
X117045000Y-124650000D01*
X116145000Y-124650000D01*
X116140941Y-124649192D01*
X116089591Y-124643235D01*
X116072048Y-124635489D01*
X116049329Y-124630970D01*
X116025006Y-124614718D01*
X116004206Y-124605534D01*
X115989999Y-124591327D01*
X115968223Y-124576777D01*
X115953672Y-124555000D01*
X115939465Y-124540793D01*
X115930280Y-124519991D01*
X115914030Y-124495671D01*
X115909511Y-124472954D01*
X115901764Y-124455408D01*
X115895805Y-124404049D01*
X115895000Y-124400000D01*
X115895000Y-123700000D01*
X115895804Y-123695953D01*
X115901764Y-123644591D01*
X115909511Y-123627043D01*
X115914030Y-123604329D01*
X115930278Y-123580010D01*
X115939465Y-123559206D01*
X115953674Y-123544996D01*
X115968223Y-123523223D01*
X115989996Y-123508674D01*
X116004206Y-123494465D01*
X116025010Y-123485278D01*
X116049329Y-123469030D01*
X116072043Y-123464511D01*
X116089591Y-123456764D01*
X116140952Y-123450805D01*
X116145000Y-123450000D01*
X117045000Y-123450000D01*
X117049047Y-123450805D01*
G37*
G36*
X110186790Y-122380393D02*
G01*
X110350952Y-122433733D01*
X110504748Y-122512096D01*
X110644393Y-122613553D01*
X110766447Y-122735607D01*
X110867904Y-122875252D01*
X110946267Y-123029048D01*
X110999607Y-123193210D01*
X111026609Y-123363695D01*
X111026609Y-123536305D01*
X110999607Y-123706790D01*
X110946267Y-123870952D01*
X110867904Y-124024748D01*
X110766447Y-124164393D01*
X110644393Y-124286447D01*
X110504748Y-124387904D01*
X110350952Y-124466267D01*
X110186790Y-124519607D01*
X110016305Y-124546609D01*
X109843695Y-124546609D01*
X109673210Y-124519607D01*
X109509048Y-124466267D01*
X109355252Y-124387904D01*
X109215607Y-124286447D01*
X109093553Y-124164393D01*
X108992096Y-124024748D01*
X108913733Y-123870952D01*
X108860393Y-123706790D01*
X108833391Y-123536305D01*
X108833391Y-123363695D01*
X108860393Y-123193210D01*
X108913733Y-123029048D01*
X108992096Y-122875252D01*
X109093553Y-122735607D01*
X109215607Y-122613553D01*
X109355252Y-122512096D01*
X109509048Y-122433733D01*
X109673210Y-122380393D01*
X109843695Y-122353391D01*
X110016305Y-122353391D01*
X110186790Y-122380393D01*
G37*
G36*
X124316790Y-122380393D02*
G01*
X124480952Y-122433733D01*
X124634748Y-122512096D01*
X124774393Y-122613553D01*
X124896447Y-122735607D01*
X124997904Y-122875252D01*
X125076267Y-123029048D01*
X125129607Y-123193210D01*
X125156609Y-123363695D01*
X125156609Y-123536305D01*
X125129607Y-123706790D01*
X125076267Y-123870952D01*
X124997904Y-124024748D01*
X124896447Y-124164393D01*
X124774393Y-124286447D01*
X124634748Y-124387904D01*
X124480952Y-124466267D01*
X124316790Y-124519607D01*
X124146305Y-124546609D01*
X123973695Y-124546609D01*
X123803210Y-124519607D01*
X123639048Y-124466267D01*
X123485252Y-124387904D01*
X123345607Y-124286447D01*
X123223553Y-124164393D01*
X123122096Y-124024748D01*
X123043733Y-123870952D01*
X122990393Y-123706790D01*
X122963391Y-123536305D01*
X122963391Y-123363695D01*
X122990393Y-123193210D01*
X123043733Y-123029048D01*
X123122096Y-122875252D01*
X123223553Y-122735607D01*
X123345607Y-122613553D01*
X123485252Y-122512096D01*
X123639048Y-122433733D01*
X123803210Y-122380393D01*
X123973695Y-122353391D01*
X124146305Y-122353391D01*
X124316790Y-122380393D01*
G37*
G36*
X113018576Y-123610657D02*
G01*
X113063995Y-123641005D01*
X113094343Y-123686424D01*
X113105000Y-123740000D01*
X113105000Y-124020000D01*
X113094343Y-124073576D01*
X113063995Y-124118995D01*
X113018576Y-124149343D01*
X112965000Y-124160000D01*
X112625000Y-124160000D01*
X112571424Y-124149343D01*
X112526005Y-124118995D01*
X112495657Y-124073576D01*
X112485000Y-124020000D01*
X112485000Y-123740000D01*
X112495657Y-123686424D01*
X112526005Y-123641005D01*
X112571424Y-123610657D01*
X112625000Y-123600000D01*
X112965000Y-123600000D01*
X113018576Y-123610657D01*
G37*
G36*
X118418576Y-123410657D02*
G01*
X118463995Y-123441005D01*
X118494343Y-123486424D01*
X118505000Y-123540000D01*
X118505000Y-123820000D01*
X118494343Y-123873576D01*
X118463995Y-123918995D01*
X118418576Y-123949343D01*
X118365000Y-123960000D01*
X118025000Y-123960000D01*
X117971424Y-123949343D01*
X117926005Y-123918995D01*
X117895657Y-123873576D01*
X117885000Y-123820000D01*
X117885000Y-123540000D01*
X117895657Y-123486424D01*
X117926005Y-123441005D01*
X117971424Y-123410657D01*
X118025000Y-123400000D01*
X118365000Y-123400000D01*
X118418576Y-123410657D01*
G37*
G36*
X119518576Y-122810657D02*
G01*
X119563995Y-122841005D01*
X119594343Y-122886424D01*
X119605000Y-122940000D01*
X119605000Y-123220000D01*
X119594343Y-123273576D01*
X119563995Y-123318995D01*
X119518576Y-123349343D01*
X119465000Y-123360000D01*
X119125000Y-123360000D01*
X119071424Y-123349343D01*
X119026005Y-123318995D01*
X118995657Y-123273576D01*
X118985000Y-123220000D01*
X118985000Y-122940000D01*
X118995657Y-122886424D01*
X119026005Y-122841005D01*
X119071424Y-122810657D01*
X119125000Y-122800000D01*
X119465000Y-122800000D01*
X119518576Y-122810657D01*
G37*
G36*
X120618576Y-122810657D02*
G01*
X120663995Y-122841005D01*
X120694343Y-122886424D01*
X120705000Y-122940000D01*
X120705000Y-123220000D01*
X120694343Y-123273576D01*
X120663995Y-123318995D01*
X120618576Y-123349343D01*
X120565000Y-123360000D01*
X120225000Y-123360000D01*
X120171424Y-123349343D01*
X120126005Y-123318995D01*
X120095657Y-123273576D01*
X120085000Y-123220000D01*
X120085000Y-122940000D01*
X120095657Y-122886424D01*
X120126005Y-122841005D01*
X120171424Y-122810657D01*
X120225000Y-122800000D01*
X120565000Y-122800000D01*
X120618576Y-122810657D01*
G37*
G36*
X121718576Y-122810657D02*
G01*
X121763995Y-122841005D01*
X121794343Y-122886424D01*
X121805000Y-122940000D01*
X121805000Y-123220000D01*
X121794343Y-123273576D01*
X121763995Y-123318995D01*
X121718576Y-123349343D01*
X121665000Y-123360000D01*
X121325000Y-123360000D01*
X121271424Y-123349343D01*
X121226005Y-123318995D01*
X121195657Y-123273576D01*
X121185000Y-123220000D01*
X121185000Y-122940000D01*
X121195657Y-122886424D01*
X121226005Y-122841005D01*
X121271424Y-122810657D01*
X121325000Y-122800000D01*
X121665000Y-122800000D01*
X121718576Y-122810657D01*
G37*
G36*
X113018576Y-122650657D02*
G01*
X113063995Y-122681005D01*
X113094343Y-122726424D01*
X113105000Y-122780000D01*
X113105000Y-123060000D01*
X113094343Y-123113576D01*
X113063995Y-123158995D01*
X113018576Y-123189343D01*
X112965000Y-123200000D01*
X112625000Y-123200000D01*
X112571424Y-123189343D01*
X112526005Y-123158995D01*
X112495657Y-123113576D01*
X112485000Y-123060000D01*
X112485000Y-122780000D01*
X112495657Y-122726424D01*
X112526005Y-122681005D01*
X112571424Y-122650657D01*
X112625000Y-122640000D01*
X112965000Y-122640000D01*
X113018576Y-122650657D01*
G37*
G36*
X118418576Y-122450657D02*
G01*
X118463995Y-122481005D01*
X118494343Y-122526424D01*
X118505000Y-122580000D01*
X118505000Y-122860000D01*
X118494343Y-122913576D01*
X118463995Y-122958995D01*
X118418576Y-122989343D01*
X118365000Y-123000000D01*
X118025000Y-123000000D01*
X117971424Y-122989343D01*
X117926005Y-122958995D01*
X117895657Y-122913576D01*
X117885000Y-122860000D01*
X117885000Y-122580000D01*
X117895657Y-122526424D01*
X117926005Y-122481005D01*
X117971424Y-122450657D01*
X118025000Y-122440000D01*
X118365000Y-122440000D01*
X118418576Y-122450657D01*
G37*
G36*
X114849047Y-121750805D02*
G01*
X114900408Y-121756764D01*
X114917954Y-121764511D01*
X114940671Y-121769030D01*
X114964991Y-121785280D01*
X114985793Y-121794465D01*
X115000000Y-121808672D01*
X115021777Y-121823223D01*
X115036327Y-121844999D01*
X115050534Y-121859206D01*
X115059718Y-121880006D01*
X115075970Y-121904329D01*
X115080489Y-121927048D01*
X115088235Y-121944591D01*
X115094192Y-121995940D01*
X115095000Y-122000000D01*
X115095000Y-122700000D01*
X115094192Y-122704059D01*
X115088235Y-122755408D01*
X115080489Y-122772950D01*
X115075970Y-122795671D01*
X115059716Y-122819995D01*
X115050534Y-122840793D01*
X115036329Y-122854997D01*
X115021777Y-122876777D01*
X114999997Y-122891329D01*
X114985793Y-122905534D01*
X114964995Y-122914716D01*
X114940671Y-122930970D01*
X114917950Y-122935489D01*
X114900408Y-122943235D01*
X114849061Y-122949192D01*
X114845000Y-122950000D01*
X113945000Y-122950000D01*
X113940941Y-122949192D01*
X113889591Y-122943235D01*
X113872048Y-122935489D01*
X113849329Y-122930970D01*
X113825006Y-122914718D01*
X113804206Y-122905534D01*
X113789999Y-122891327D01*
X113768223Y-122876777D01*
X113753672Y-122855000D01*
X113739465Y-122840793D01*
X113730280Y-122819991D01*
X113714030Y-122795671D01*
X113709511Y-122772954D01*
X113701764Y-122755408D01*
X113695805Y-122704049D01*
X113695000Y-122700000D01*
X113695000Y-122000000D01*
X113695804Y-121995953D01*
X113701764Y-121944591D01*
X113709511Y-121927043D01*
X113714030Y-121904329D01*
X113730278Y-121880010D01*
X113739465Y-121859206D01*
X113753674Y-121844996D01*
X113768223Y-121823223D01*
X113789996Y-121808674D01*
X113804206Y-121794465D01*
X113825010Y-121785278D01*
X113849329Y-121769030D01*
X113872043Y-121764511D01*
X113889591Y-121756764D01*
X113940952Y-121750805D01*
X113945000Y-121750000D01*
X114845000Y-121750000D01*
X114849047Y-121750805D01*
G37*
G36*
X117049047Y-121750805D02*
G01*
X117100408Y-121756764D01*
X117117954Y-121764511D01*
X117140671Y-121769030D01*
X117164991Y-121785280D01*
X117185793Y-121794465D01*
X117200000Y-121808672D01*
X117221777Y-121823223D01*
X117236327Y-121844999D01*
X117250534Y-121859206D01*
X117259718Y-121880006D01*
X117275970Y-121904329D01*
X117280489Y-121927048D01*
X117288235Y-121944591D01*
X117294192Y-121995940D01*
X117295000Y-122000000D01*
X117295000Y-122700000D01*
X117294192Y-122704059D01*
X117288235Y-122755408D01*
X117280489Y-122772950D01*
X117275970Y-122795671D01*
X117259716Y-122819995D01*
X117250534Y-122840793D01*
X117236329Y-122854997D01*
X117221777Y-122876777D01*
X117199997Y-122891329D01*
X117185793Y-122905534D01*
X117164995Y-122914716D01*
X117140671Y-122930970D01*
X117117950Y-122935489D01*
X117100408Y-122943235D01*
X117049061Y-122949192D01*
X117045000Y-122950000D01*
X116145000Y-122950000D01*
X116140941Y-122949192D01*
X116089591Y-122943235D01*
X116072048Y-122935489D01*
X116049329Y-122930970D01*
X116025006Y-122914718D01*
X116004206Y-122905534D01*
X115989999Y-122891327D01*
X115968223Y-122876777D01*
X115953672Y-122855000D01*
X115939465Y-122840793D01*
X115930280Y-122819991D01*
X115914030Y-122795671D01*
X115909511Y-122772954D01*
X115901764Y-122755408D01*
X115895805Y-122704049D01*
X115895000Y-122700000D01*
X115895000Y-122000000D01*
X115895804Y-121995953D01*
X115901764Y-121944591D01*
X115909511Y-121927043D01*
X115914030Y-121904329D01*
X115930278Y-121880010D01*
X115939465Y-121859206D01*
X115953674Y-121844996D01*
X115968223Y-121823223D01*
X115989996Y-121808674D01*
X116004206Y-121794465D01*
X116025010Y-121785278D01*
X116049329Y-121769030D01*
X116072043Y-121764511D01*
X116089591Y-121756764D01*
X116140952Y-121750805D01*
X116145000Y-121750000D01*
X117045000Y-121750000D01*
X117049047Y-121750805D01*
G37*
G36*
X102916742Y-120826601D02*
G01*
X103070687Y-120890367D01*
X103209234Y-120982941D01*
X103327059Y-121100766D01*
X103419633Y-121239313D01*
X103483399Y-121393258D01*
X103515907Y-121556685D01*
X103515907Y-121723315D01*
X103483399Y-121886742D01*
X103419633Y-122040687D01*
X103327059Y-122179234D01*
X103209234Y-122297059D01*
X103070687Y-122389633D01*
X102916742Y-122453399D01*
X102753315Y-122485907D01*
X102586685Y-122485907D01*
X102423258Y-122453399D01*
X102269313Y-122389633D01*
X102130766Y-122297059D01*
X102012941Y-122179234D01*
X101920367Y-122040687D01*
X101856601Y-121886742D01*
X101824093Y-121723315D01*
X101824093Y-121556685D01*
X101856601Y-121393258D01*
X101920367Y-121239313D01*
X102012941Y-121100766D01*
X102130766Y-120982941D01*
X102269313Y-120890367D01*
X102423258Y-120826601D01*
X102586685Y-120794093D01*
X102753315Y-120794093D01*
X102916742Y-120826601D01*
G37*
G36*
X105456742Y-120826601D02*
G01*
X105610687Y-120890367D01*
X105749234Y-120982941D01*
X105867059Y-121100766D01*
X105959633Y-121239313D01*
X106023399Y-121393258D01*
X106055907Y-121556685D01*
X106055907Y-121723315D01*
X106023399Y-121886742D01*
X105959633Y-122040687D01*
X105867059Y-122179234D01*
X105749234Y-122297059D01*
X105610687Y-122389633D01*
X105456742Y-122453399D01*
X105293315Y-122485907D01*
X105126685Y-122485907D01*
X104963258Y-122453399D01*
X104809313Y-122389633D01*
X104670766Y-122297059D01*
X104552941Y-122179234D01*
X104460367Y-122040687D01*
X104396601Y-121886742D01*
X104364093Y-121723315D01*
X104364093Y-121556685D01*
X104396601Y-121393258D01*
X104460367Y-121239313D01*
X104552941Y-121100766D01*
X104670766Y-120982941D01*
X104809313Y-120890367D01*
X104963258Y-120826601D01*
X105126685Y-120794093D01*
X105293315Y-120794093D01*
X105456742Y-120826601D01*
G37*
G36*
X129026742Y-120826601D02*
G01*
X129180687Y-120890367D01*
X129319234Y-120982941D01*
X129437059Y-121100766D01*
X129529633Y-121239313D01*
X129593399Y-121393258D01*
X129625907Y-121556685D01*
X129625907Y-121723315D01*
X129593399Y-121886742D01*
X129529633Y-122040687D01*
X129437059Y-122179234D01*
X129319234Y-122297059D01*
X129180687Y-122389633D01*
X129026742Y-122453399D01*
X128863315Y-122485907D01*
X128696685Y-122485907D01*
X128533258Y-122453399D01*
X128379313Y-122389633D01*
X128240766Y-122297059D01*
X128122941Y-122179234D01*
X128030367Y-122040687D01*
X127966601Y-121886742D01*
X127934093Y-121723315D01*
X127934093Y-121556685D01*
X127966601Y-121393258D01*
X128030367Y-121239313D01*
X128122941Y-121100766D01*
X128240766Y-120982941D01*
X128379313Y-120890367D01*
X128533258Y-120826601D01*
X128696685Y-120794093D01*
X128863315Y-120794093D01*
X129026742Y-120826601D01*
G37*
G36*
X131566742Y-120826601D02*
G01*
X131720687Y-120890367D01*
X131859234Y-120982941D01*
X131977059Y-121100766D01*
X132069633Y-121239313D01*
X132133399Y-121393258D01*
X132165907Y-121556685D01*
X132165907Y-121723315D01*
X132133399Y-121886742D01*
X132069633Y-122040687D01*
X131977059Y-122179234D01*
X131859234Y-122297059D01*
X131720687Y-122389633D01*
X131566742Y-122453399D01*
X131403315Y-122485907D01*
X131236685Y-122485907D01*
X131073258Y-122453399D01*
X130919313Y-122389633D01*
X130780766Y-122297059D01*
X130662941Y-122179234D01*
X130570367Y-122040687D01*
X130506601Y-121886742D01*
X130474093Y-121723315D01*
X130474093Y-121556685D01*
X130506601Y-121393258D01*
X130570367Y-121239313D01*
X130662941Y-121100766D01*
X130780766Y-120982941D01*
X130919313Y-120890367D01*
X131073258Y-120826601D01*
X131236685Y-120794093D01*
X131403315Y-120794093D01*
X131566742Y-120826601D01*
G37*
G36*
X119518576Y-121850657D02*
G01*
X119563995Y-121881005D01*
X119594343Y-121926424D01*
X119605000Y-121980000D01*
X119605000Y-122260000D01*
X119594343Y-122313576D01*
X119563995Y-122358995D01*
X119518576Y-122389343D01*
X119465000Y-122400000D01*
X119125000Y-122400000D01*
X119071424Y-122389343D01*
X119026005Y-122358995D01*
X118995657Y-122313576D01*
X118985000Y-122260000D01*
X118985000Y-121980000D01*
X118995657Y-121926424D01*
X119026005Y-121881005D01*
X119071424Y-121850657D01*
X119125000Y-121840000D01*
X119465000Y-121840000D01*
X119518576Y-121850657D01*
G37*
G36*
X120618576Y-121850657D02*
G01*
X120663995Y-121881005D01*
X120694343Y-121926424D01*
X120705000Y-121980000D01*
X120705000Y-122260000D01*
X120694343Y-122313576D01*
X120663995Y-122358995D01*
X120618576Y-122389343D01*
X120565000Y-122400000D01*
X120225000Y-122400000D01*
X120171424Y-122389343D01*
X120126005Y-122358995D01*
X120095657Y-122313576D01*
X120085000Y-122260000D01*
X120085000Y-121980000D01*
X120095657Y-121926424D01*
X120126005Y-121881005D01*
X120171424Y-121850657D01*
X120225000Y-121840000D01*
X120565000Y-121840000D01*
X120618576Y-121850657D01*
G37*
G36*
X121718576Y-121850657D02*
G01*
X121763995Y-121881005D01*
X121794343Y-121926424D01*
X121805000Y-121980000D01*
X121805000Y-122260000D01*
X121794343Y-122313576D01*
X121763995Y-122358995D01*
X121718576Y-122389343D01*
X121665000Y-122400000D01*
X121325000Y-122400000D01*
X121271424Y-122389343D01*
X121226005Y-122358995D01*
X121195657Y-122313576D01*
X121185000Y-122260000D01*
X121185000Y-121980000D01*
X121195657Y-121926424D01*
X121226005Y-121881005D01*
X121271424Y-121850657D01*
X121325000Y-121840000D01*
X121665000Y-121840000D01*
X121718576Y-121850657D01*
G37*
G36*
X112923576Y-120810657D02*
G01*
X112968995Y-120841005D01*
X112999343Y-120886424D01*
X113010000Y-120940000D01*
X113010000Y-121220000D01*
X112999343Y-121273576D01*
X112968995Y-121318995D01*
X112923576Y-121349343D01*
X112870000Y-121360000D01*
X112530000Y-121360000D01*
X112476424Y-121349343D01*
X112431005Y-121318995D01*
X112400657Y-121273576D01*
X112390000Y-121220000D01*
X112390000Y-120940000D01*
X112400657Y-120886424D01*
X112431005Y-120841005D01*
X112476424Y-120810657D01*
X112530000Y-120800000D01*
X112870000Y-120800000D01*
X112923576Y-120810657D01*
G37*
G36*
X121793946Y-120650228D02*
G01*
X121841798Y-120682202D01*
X121873772Y-120730054D01*
X121885000Y-120786500D01*
X121885000Y-121081500D01*
X121873772Y-121137946D01*
X121841798Y-121185798D01*
X121793946Y-121217772D01*
X121737500Y-121229000D01*
X121392500Y-121229000D01*
X121336054Y-121217772D01*
X121288202Y-121185798D01*
X121256228Y-121137946D01*
X121245000Y-121081500D01*
X121245000Y-120786500D01*
X121256228Y-120730054D01*
X121288202Y-120682202D01*
X121336054Y-120650228D01*
X121392500Y-120639000D01*
X121737500Y-120639000D01*
X121793946Y-120650228D01*
G37*
G36*
X114348701Y-119630709D02*
G01*
X114373033Y-119646967D01*
X114389291Y-119671299D01*
X114395000Y-119700000D01*
X114395000Y-121025000D01*
X114389291Y-121053701D01*
X114373033Y-121078033D01*
X114348701Y-121094291D01*
X114320000Y-121100000D01*
X114170000Y-121100000D01*
X114141299Y-121094291D01*
X114116967Y-121078033D01*
X114100709Y-121053701D01*
X114095000Y-121025000D01*
X114095000Y-119700000D01*
X114100709Y-119671299D01*
X114116967Y-119646967D01*
X114141299Y-119630709D01*
X114170000Y-119625000D01*
X114320000Y-119625000D01*
X114348701Y-119630709D01*
G37*
G36*
X114848701Y-119630709D02*
G01*
X114873033Y-119646967D01*
X114889291Y-119671299D01*
X114895000Y-119700000D01*
X114895000Y-121025000D01*
X114889291Y-121053701D01*
X114873033Y-121078033D01*
X114848701Y-121094291D01*
X114820000Y-121100000D01*
X114670000Y-121100000D01*
X114641299Y-121094291D01*
X114616967Y-121078033D01*
X114600709Y-121053701D01*
X114595000Y-121025000D01*
X114595000Y-119700000D01*
X114600709Y-119671299D01*
X114616967Y-119646967D01*
X114641299Y-119630709D01*
X114670000Y-119625000D01*
X114820000Y-119625000D01*
X114848701Y-119630709D01*
G37*
G36*
X115348701Y-119630709D02*
G01*
X115373033Y-119646967D01*
X115389291Y-119671299D01*
X115395000Y-119700000D01*
X115395000Y-121025000D01*
X115389291Y-121053701D01*
X115373033Y-121078033D01*
X115348701Y-121094291D01*
X115320000Y-121100000D01*
X115170000Y-121100000D01*
X115141299Y-121094291D01*
X115116967Y-121078033D01*
X115100709Y-121053701D01*
X115095000Y-121025000D01*
X115095000Y-119700000D01*
X115100709Y-119671299D01*
X115116967Y-119646967D01*
X115141299Y-119630709D01*
X115170000Y-119625000D01*
X115320000Y-119625000D01*
X115348701Y-119630709D01*
G37*
G36*
X115848701Y-119630709D02*
G01*
X115873033Y-119646967D01*
X115889291Y-119671299D01*
X115895000Y-119700000D01*
X115895000Y-121025000D01*
X115889291Y-121053701D01*
X115873033Y-121078033D01*
X115848701Y-121094291D01*
X115820000Y-121100000D01*
X115670000Y-121100000D01*
X115641299Y-121094291D01*
X115616967Y-121078033D01*
X115600709Y-121053701D01*
X115595000Y-121025000D01*
X115595000Y-119700000D01*
X115600709Y-119671299D01*
X115616967Y-119646967D01*
X115641299Y-119630709D01*
X115670000Y-119625000D01*
X115820000Y-119625000D01*
X115848701Y-119630709D01*
G37*
G36*
X116348701Y-119630709D02*
G01*
X116373033Y-119646967D01*
X116389291Y-119671299D01*
X116395000Y-119700000D01*
X116395000Y-121025000D01*
X116389291Y-121053701D01*
X116373033Y-121078033D01*
X116348701Y-121094291D01*
X116320000Y-121100000D01*
X116170000Y-121100000D01*
X116141299Y-121094291D01*
X116116967Y-121078033D01*
X116100709Y-121053701D01*
X116095000Y-121025000D01*
X116095000Y-119700000D01*
X116100709Y-119671299D01*
X116116967Y-119646967D01*
X116141299Y-119630709D01*
X116170000Y-119625000D01*
X116320000Y-119625000D01*
X116348701Y-119630709D01*
G37*
G36*
X116848701Y-119630709D02*
G01*
X116873033Y-119646967D01*
X116889291Y-119671299D01*
X116895000Y-119700000D01*
X116895000Y-121025000D01*
X116889291Y-121053701D01*
X116873033Y-121078033D01*
X116848701Y-121094291D01*
X116820000Y-121100000D01*
X116670000Y-121100000D01*
X116641299Y-121094291D01*
X116616967Y-121078033D01*
X116600709Y-121053701D01*
X116595000Y-121025000D01*
X116595000Y-119700000D01*
X116600709Y-119671299D01*
X116616967Y-119646967D01*
X116641299Y-119630709D01*
X116670000Y-119625000D01*
X116820000Y-119625000D01*
X116848701Y-119630709D01*
G37*
G36*
X117348701Y-119630709D02*
G01*
X117373033Y-119646967D01*
X117389291Y-119671299D01*
X117395000Y-119700000D01*
X117395000Y-121025000D01*
X117389291Y-121053701D01*
X117373033Y-121078033D01*
X117348701Y-121094291D01*
X117320000Y-121100000D01*
X117170000Y-121100000D01*
X117141299Y-121094291D01*
X117116967Y-121078033D01*
X117100709Y-121053701D01*
X117095000Y-121025000D01*
X117095000Y-119700000D01*
X117100709Y-119671299D01*
X117116967Y-119646967D01*
X117141299Y-119630709D01*
X117170000Y-119625000D01*
X117320000Y-119625000D01*
X117348701Y-119630709D01*
G37*
G36*
X117848701Y-119630709D02*
G01*
X117873033Y-119646967D01*
X117889291Y-119671299D01*
X117895000Y-119700000D01*
X117895000Y-121025000D01*
X117889291Y-121053701D01*
X117873033Y-121078033D01*
X117848701Y-121094291D01*
X117820000Y-121100000D01*
X117670000Y-121100000D01*
X117641299Y-121094291D01*
X117616967Y-121078033D01*
X117600709Y-121053701D01*
X117595000Y-121025000D01*
X117595000Y-119700000D01*
X117600709Y-119671299D01*
X117616967Y-119646967D01*
X117641299Y-119630709D01*
X117670000Y-119625000D01*
X117820000Y-119625000D01*
X117848701Y-119630709D01*
G37*
G36*
X118348701Y-119630709D02*
G01*
X118373033Y-119646967D01*
X118389291Y-119671299D01*
X118395000Y-119700000D01*
X118395000Y-121025000D01*
X118389291Y-121053701D01*
X118373033Y-121078033D01*
X118348701Y-121094291D01*
X118320000Y-121100000D01*
X118170000Y-121100000D01*
X118141299Y-121094291D01*
X118116967Y-121078033D01*
X118100709Y-121053701D01*
X118095000Y-121025000D01*
X118095000Y-119700000D01*
X118100709Y-119671299D01*
X118116967Y-119646967D01*
X118141299Y-119630709D01*
X118170000Y-119625000D01*
X118320000Y-119625000D01*
X118348701Y-119630709D01*
G37*
G36*
X118848701Y-119630709D02*
G01*
X118873033Y-119646967D01*
X118889291Y-119671299D01*
X118895000Y-119700000D01*
X118895000Y-121025000D01*
X118889291Y-121053701D01*
X118873033Y-121078033D01*
X118848701Y-121094291D01*
X118820000Y-121100000D01*
X118670000Y-121100000D01*
X118641299Y-121094291D01*
X118616967Y-121078033D01*
X118600709Y-121053701D01*
X118595000Y-121025000D01*
X118595000Y-119700000D01*
X118600709Y-119671299D01*
X118616967Y-119646967D01*
X118641299Y-119630709D01*
X118670000Y-119625000D01*
X118820000Y-119625000D01*
X118848701Y-119630709D01*
G37*
G36*
X119348701Y-119630709D02*
G01*
X119373033Y-119646967D01*
X119389291Y-119671299D01*
X119395000Y-119700000D01*
X119395000Y-121025000D01*
X119389291Y-121053701D01*
X119373033Y-121078033D01*
X119348701Y-121094291D01*
X119320000Y-121100000D01*
X119170000Y-121100000D01*
X119141299Y-121094291D01*
X119116967Y-121078033D01*
X119100709Y-121053701D01*
X119095000Y-121025000D01*
X119095000Y-119700000D01*
X119100709Y-119671299D01*
X119116967Y-119646967D01*
X119141299Y-119630709D01*
X119170000Y-119625000D01*
X119320000Y-119625000D01*
X119348701Y-119630709D01*
G37*
G36*
X119848701Y-119630709D02*
G01*
X119873033Y-119646967D01*
X119889291Y-119671299D01*
X119895000Y-119700000D01*
X119895000Y-121025000D01*
X119889291Y-121053701D01*
X119873033Y-121078033D01*
X119848701Y-121094291D01*
X119820000Y-121100000D01*
X119670000Y-121100000D01*
X119641299Y-121094291D01*
X119616967Y-121078033D01*
X119600709Y-121053701D01*
X119595000Y-121025000D01*
X119595000Y-119700000D01*
X119600709Y-119671299D01*
X119616967Y-119646967D01*
X119641299Y-119630709D01*
X119670000Y-119625000D01*
X119820000Y-119625000D01*
X119848701Y-119630709D01*
G37*
G36*
X122824576Y-120120657D02*
G01*
X122869995Y-120151005D01*
X122900343Y-120196424D01*
X122911000Y-120250000D01*
X122911000Y-120590000D01*
X122900343Y-120643576D01*
X122869995Y-120688995D01*
X122824576Y-120719343D01*
X122771000Y-120730000D01*
X122491000Y-120730000D01*
X122437424Y-120719343D01*
X122392005Y-120688995D01*
X122361657Y-120643576D01*
X122351000Y-120590000D01*
X122351000Y-120250000D01*
X122361657Y-120196424D01*
X122392005Y-120151005D01*
X122437424Y-120120657D01*
X122491000Y-120110000D01*
X122771000Y-120110000D01*
X122824576Y-120120657D01*
G37*
G36*
X123784576Y-120120657D02*
G01*
X123829995Y-120151005D01*
X123860343Y-120196424D01*
X123871000Y-120250000D01*
X123871000Y-120590000D01*
X123860343Y-120643576D01*
X123829995Y-120688995D01*
X123784576Y-120719343D01*
X123731000Y-120730000D01*
X123451000Y-120730000D01*
X123397424Y-120719343D01*
X123352005Y-120688995D01*
X123321657Y-120643576D01*
X123311000Y-120590000D01*
X123311000Y-120250000D01*
X123321657Y-120196424D01*
X123352005Y-120151005D01*
X123397424Y-120120657D01*
X123451000Y-120110000D01*
X123731000Y-120110000D01*
X123784576Y-120120657D01*
G37*
G36*
X124820576Y-120101657D02*
G01*
X124865995Y-120132005D01*
X124896343Y-120177424D01*
X124907000Y-120231000D01*
X124907000Y-120571000D01*
X124896343Y-120624576D01*
X124865995Y-120669995D01*
X124820576Y-120700343D01*
X124767000Y-120711000D01*
X124487000Y-120711000D01*
X124433424Y-120700343D01*
X124388005Y-120669995D01*
X124357657Y-120624576D01*
X124347000Y-120571000D01*
X124347000Y-120231000D01*
X124357657Y-120177424D01*
X124388005Y-120132005D01*
X124433424Y-120101657D01*
X124487000Y-120091000D01*
X124767000Y-120091000D01*
X124820576Y-120101657D01*
G37*
G36*
X125780576Y-120101657D02*
G01*
X125825995Y-120132005D01*
X125856343Y-120177424D01*
X125867000Y-120231000D01*
X125867000Y-120571000D01*
X125856343Y-120624576D01*
X125825995Y-120669995D01*
X125780576Y-120700343D01*
X125727000Y-120711000D01*
X125447000Y-120711000D01*
X125393424Y-120700343D01*
X125348005Y-120669995D01*
X125317657Y-120624576D01*
X125307000Y-120571000D01*
X125307000Y-120231000D01*
X125317657Y-120177424D01*
X125348005Y-120132005D01*
X125393424Y-120101657D01*
X125447000Y-120091000D01*
X125727000Y-120091000D01*
X125780576Y-120101657D01*
G37*
G36*
X108818662Y-119901276D02*
G01*
X108862459Y-119930541D01*
X108891724Y-119974338D01*
X108902000Y-120026000D01*
X108902000Y-120396000D01*
X108891724Y-120447662D01*
X108862459Y-120491459D01*
X108818662Y-120520724D01*
X108767000Y-120531000D01*
X108497000Y-120531000D01*
X108445338Y-120520724D01*
X108401541Y-120491459D01*
X108372276Y-120447662D01*
X108362000Y-120396000D01*
X108362000Y-120026000D01*
X108372276Y-119974338D01*
X108401541Y-119930541D01*
X108445338Y-119901276D01*
X108497000Y-119891000D01*
X108767000Y-119891000D01*
X108818662Y-119901276D01*
G37*
G36*
X109838662Y-119901276D02*
G01*
X109882459Y-119930541D01*
X109911724Y-119974338D01*
X109922000Y-120026000D01*
X109922000Y-120396000D01*
X109911724Y-120447662D01*
X109882459Y-120491459D01*
X109838662Y-120520724D01*
X109787000Y-120531000D01*
X109517000Y-120531000D01*
X109465338Y-120520724D01*
X109421541Y-120491459D01*
X109392276Y-120447662D01*
X109382000Y-120396000D01*
X109382000Y-120026000D01*
X109392276Y-119974338D01*
X109421541Y-119930541D01*
X109465338Y-119901276D01*
X109517000Y-119891000D01*
X109787000Y-119891000D01*
X109838662Y-119901276D01*
G37*
G36*
X112923576Y-119850657D02*
G01*
X112968995Y-119881005D01*
X112999343Y-119926424D01*
X113010000Y-119980000D01*
X113010000Y-120260000D01*
X112999343Y-120313576D01*
X112968995Y-120358995D01*
X112923576Y-120389343D01*
X112870000Y-120400000D01*
X112530000Y-120400000D01*
X112476424Y-120389343D01*
X112431005Y-120358995D01*
X112400657Y-120313576D01*
X112390000Y-120260000D01*
X112390000Y-119980000D01*
X112400657Y-119926424D01*
X112431005Y-119881005D01*
X112476424Y-119850657D01*
X112530000Y-119840000D01*
X112870000Y-119840000D01*
X112923576Y-119850657D01*
G37*
G36*
X121793946Y-119680228D02*
G01*
X121841798Y-119712202D01*
X121873772Y-119760054D01*
X121885000Y-119816500D01*
X121885000Y-120111500D01*
X121873772Y-120167946D01*
X121841798Y-120215798D01*
X121793946Y-120247772D01*
X121737500Y-120259000D01*
X121392500Y-120259000D01*
X121336054Y-120247772D01*
X121288202Y-120215798D01*
X121256228Y-120167946D01*
X121245000Y-120111500D01*
X121245000Y-119816500D01*
X121256228Y-119760054D01*
X121288202Y-119712202D01*
X121336054Y-119680228D01*
X121392500Y-119669000D01*
X121737500Y-119669000D01*
X121793946Y-119680228D01*
G37*
G36*
X102916742Y-118286601D02*
G01*
X103070687Y-118350367D01*
X103209234Y-118442941D01*
X103327059Y-118560766D01*
X103419633Y-118699313D01*
X103483399Y-118853258D01*
X103515907Y-119016685D01*
X103515907Y-119183315D01*
X103483399Y-119346742D01*
X103419633Y-119500687D01*
X103327059Y-119639234D01*
X103209234Y-119757059D01*
X103070687Y-119849633D01*
X102916742Y-119913399D01*
X102753315Y-119945907D01*
X102586685Y-119945907D01*
X102423258Y-119913399D01*
X102269313Y-119849633D01*
X102130766Y-119757059D01*
X102012941Y-119639234D01*
X101920367Y-119500687D01*
X101856601Y-119346742D01*
X101824093Y-119183315D01*
X101824093Y-119016685D01*
X101856601Y-118853258D01*
X101920367Y-118699313D01*
X102012941Y-118560766D01*
X102130766Y-118442941D01*
X102269313Y-118350367D01*
X102423258Y-118286601D01*
X102586685Y-118254093D01*
X102753315Y-118254093D01*
X102916742Y-118286601D01*
G37*
G36*
X105456742Y-118286601D02*
G01*
X105610687Y-118350367D01*
X105749234Y-118442941D01*
X105867059Y-118560766D01*
X105959633Y-118699313D01*
X106023399Y-118853258D01*
X106055907Y-119016685D01*
X106055907Y-119183315D01*
X106023399Y-119346742D01*
X105959633Y-119500687D01*
X105867059Y-119639234D01*
X105749234Y-119757059D01*
X105610687Y-119849633D01*
X105456742Y-119913399D01*
X105293315Y-119945907D01*
X105126685Y-119945907D01*
X104963258Y-119913399D01*
X104809313Y-119849633D01*
X104670766Y-119757059D01*
X104552941Y-119639234D01*
X104460367Y-119500687D01*
X104396601Y-119346742D01*
X104364093Y-119183315D01*
X104364093Y-119016685D01*
X104396601Y-118853258D01*
X104460367Y-118699313D01*
X104552941Y-118560766D01*
X104670766Y-118442941D01*
X104809313Y-118350367D01*
X104963258Y-118286601D01*
X105126685Y-118254093D01*
X105293315Y-118254093D01*
X105456742Y-118286601D01*
G37*
G36*
X129026742Y-118286601D02*
G01*
X129180687Y-118350367D01*
X129319234Y-118442941D01*
X129437059Y-118560766D01*
X129529633Y-118699313D01*
X129593399Y-118853258D01*
X129625907Y-119016685D01*
X129625907Y-119183315D01*
X129593399Y-119346742D01*
X129529633Y-119500687D01*
X129437059Y-119639234D01*
X129319234Y-119757059D01*
X129180687Y-119849633D01*
X129026742Y-119913399D01*
X128863315Y-119945907D01*
X128696685Y-119945907D01*
X128533258Y-119913399D01*
X128379313Y-119849633D01*
X128240766Y-119757059D01*
X128122941Y-119639234D01*
X128030367Y-119500687D01*
X127966601Y-119346742D01*
X127934093Y-119183315D01*
X127934093Y-119016685D01*
X127966601Y-118853258D01*
X128030367Y-118699313D01*
X128122941Y-118560766D01*
X128240766Y-118442941D01*
X128379313Y-118350367D01*
X128533258Y-118286601D01*
X128696685Y-118254093D01*
X128863315Y-118254093D01*
X129026742Y-118286601D01*
G37*
G36*
X131566742Y-118286601D02*
G01*
X131720687Y-118350367D01*
X131859234Y-118442941D01*
X131977059Y-118560766D01*
X132069633Y-118699313D01*
X132133399Y-118853258D01*
X132165907Y-119016685D01*
X132165907Y-119183315D01*
X132133399Y-119346742D01*
X132069633Y-119500687D01*
X131977059Y-119639234D01*
X131859234Y-119757059D01*
X131720687Y-119849633D01*
X131566742Y-119913399D01*
X131403315Y-119945907D01*
X131236685Y-119945907D01*
X131073258Y-119913399D01*
X130919313Y-119849633D01*
X130780766Y-119757059D01*
X130662941Y-119639234D01*
X130570367Y-119500687D01*
X130506601Y-119346742D01*
X130474093Y-119183315D01*
X130474093Y-119016685D01*
X130506601Y-118853258D01*
X130570367Y-118699313D01*
X130662941Y-118560766D01*
X130780766Y-118442941D01*
X130919313Y-118350367D01*
X131073258Y-118286601D01*
X131236685Y-118254093D01*
X131403315Y-118254093D01*
X131566742Y-118286601D01*
G37*
G36*
X110953576Y-119160657D02*
G01*
X110998995Y-119191005D01*
X111029343Y-119236424D01*
X111040000Y-119290000D01*
X111040000Y-119570000D01*
X111029343Y-119623576D01*
X110998995Y-119668995D01*
X110953576Y-119699343D01*
X110900000Y-119710000D01*
X110560000Y-119710000D01*
X110506424Y-119699343D01*
X110461005Y-119668995D01*
X110430657Y-119623576D01*
X110420000Y-119570000D01*
X110420000Y-119290000D01*
X110430657Y-119236424D01*
X110461005Y-119191005D01*
X110506424Y-119160657D01*
X110560000Y-119150000D01*
X110900000Y-119150000D01*
X110953576Y-119160657D01*
G37*
G36*
X108685662Y-118764276D02*
G01*
X108729459Y-118793541D01*
X108758724Y-118837338D01*
X108769000Y-118889000D01*
X108769000Y-119259000D01*
X108758724Y-119310662D01*
X108729459Y-119354459D01*
X108685662Y-119383724D01*
X108634000Y-119394000D01*
X108364000Y-119394000D01*
X108312338Y-119383724D01*
X108268541Y-119354459D01*
X108239276Y-119310662D01*
X108229000Y-119259000D01*
X108229000Y-118889000D01*
X108239276Y-118837338D01*
X108268541Y-118793541D01*
X108312338Y-118764276D01*
X108364000Y-118754000D01*
X108634000Y-118754000D01*
X108685662Y-118764276D01*
G37*
G36*
X109705662Y-118764276D02*
G01*
X109749459Y-118793541D01*
X109778724Y-118837338D01*
X109789000Y-118889000D01*
X109789000Y-119259000D01*
X109778724Y-119310662D01*
X109749459Y-119354459D01*
X109705662Y-119383724D01*
X109654000Y-119394000D01*
X109384000Y-119394000D01*
X109332338Y-119383724D01*
X109288541Y-119354459D01*
X109259276Y-119310662D01*
X109249000Y-119259000D01*
X109249000Y-118889000D01*
X109259276Y-118837338D01*
X109288541Y-118793541D01*
X109332338Y-118764276D01*
X109384000Y-118754000D01*
X109654000Y-118754000D01*
X109705662Y-118764276D01*
G37*
G36*
X123820985Y-118665661D02*
G01*
X123849372Y-118684628D01*
X123868339Y-118713015D01*
X123875000Y-118746500D01*
X123875000Y-119196500D01*
X123868339Y-119229985D01*
X123849372Y-119258372D01*
X123820985Y-119277339D01*
X123787500Y-119284000D01*
X123612500Y-119284000D01*
X123579015Y-119277339D01*
X123550628Y-119258372D01*
X123531661Y-119229985D01*
X123525000Y-119196500D01*
X123525000Y-118746500D01*
X123531661Y-118713015D01*
X123550628Y-118684628D01*
X123579015Y-118665661D01*
X123612500Y-118659000D01*
X123787500Y-118659000D01*
X123820985Y-118665661D01*
G37*
G36*
X124320985Y-118665661D02*
G01*
X124349372Y-118684628D01*
X124368339Y-118713015D01*
X124375000Y-118746500D01*
X124375000Y-119196500D01*
X124368339Y-119229985D01*
X124349372Y-119258372D01*
X124320985Y-119277339D01*
X124287500Y-119284000D01*
X124112500Y-119284000D01*
X124079015Y-119277339D01*
X124050628Y-119258372D01*
X124031661Y-119229985D01*
X124025000Y-119196500D01*
X124025000Y-118746500D01*
X124031661Y-118713015D01*
X124050628Y-118684628D01*
X124079015Y-118665661D01*
X124112500Y-118659000D01*
X124287500Y-118659000D01*
X124320985Y-118665661D01*
G37*
G36*
X124820985Y-118665661D02*
G01*
X124849372Y-118684628D01*
X124868339Y-118713015D01*
X124875000Y-118746500D01*
X124875000Y-119196500D01*
X124868339Y-119229985D01*
X124849372Y-119258372D01*
X124820985Y-119277339D01*
X124787500Y-119284000D01*
X124612500Y-119284000D01*
X124579015Y-119277339D01*
X124550628Y-119258372D01*
X124531661Y-119229985D01*
X124525000Y-119196500D01*
X124525000Y-118746500D01*
X124531661Y-118713015D01*
X124550628Y-118684628D01*
X124579015Y-118665661D01*
X124612500Y-118659000D01*
X124787500Y-118659000D01*
X124820985Y-118665661D01*
G37*
G36*
X113523701Y-118805709D02*
G01*
X113548033Y-118821967D01*
X113564291Y-118846299D01*
X113570000Y-118875000D01*
X113570000Y-119025000D01*
X113564291Y-119053701D01*
X113548033Y-119078033D01*
X113523701Y-119094291D01*
X113495000Y-119100000D01*
X112170000Y-119100000D01*
X112141299Y-119094291D01*
X112116967Y-119078033D01*
X112100709Y-119053701D01*
X112095000Y-119025000D01*
X112095000Y-118875000D01*
X112100709Y-118846299D01*
X112116967Y-118821967D01*
X112141299Y-118805709D01*
X112170000Y-118800000D01*
X113495000Y-118800000D01*
X113523701Y-118805709D01*
G37*
G36*
X121848701Y-118805709D02*
G01*
X121873033Y-118821967D01*
X121889291Y-118846299D01*
X121895000Y-118875000D01*
X121895000Y-119025000D01*
X121889291Y-119053701D01*
X121873033Y-119078033D01*
X121848701Y-119094291D01*
X121820000Y-119100000D01*
X120495000Y-119100000D01*
X120466299Y-119094291D01*
X120441967Y-119078033D01*
X120425709Y-119053701D01*
X120420000Y-119025000D01*
X120420000Y-118875000D01*
X120425709Y-118846299D01*
X120441967Y-118821967D01*
X120466299Y-118805709D01*
X120495000Y-118800000D01*
X121820000Y-118800000D01*
X121848701Y-118805709D01*
G37*
G36*
X123295985Y-118640661D02*
G01*
X123324372Y-118659628D01*
X123343339Y-118688015D01*
X123350000Y-118721500D01*
X123350000Y-118896500D01*
X123343339Y-118929985D01*
X123324372Y-118958372D01*
X123295985Y-118977339D01*
X123262500Y-118984000D01*
X122812500Y-118984000D01*
X122779015Y-118977339D01*
X122750628Y-118958372D01*
X122731661Y-118929985D01*
X122725000Y-118896500D01*
X122725000Y-118721500D01*
X122731661Y-118688015D01*
X122750628Y-118659628D01*
X122779015Y-118640661D01*
X122812500Y-118634000D01*
X123262500Y-118634000D01*
X123295985Y-118640661D01*
G37*
G36*
X125620985Y-118640661D02*
G01*
X125649372Y-118659628D01*
X125668339Y-118688015D01*
X125675000Y-118721500D01*
X125675000Y-118896500D01*
X125668339Y-118929985D01*
X125649372Y-118958372D01*
X125620985Y-118977339D01*
X125587500Y-118984000D01*
X125137500Y-118984000D01*
X125104015Y-118977339D01*
X125075628Y-118958372D01*
X125056661Y-118929985D01*
X125050000Y-118896500D01*
X125050000Y-118721500D01*
X125056661Y-118688015D01*
X125075628Y-118659628D01*
X125104015Y-118640661D01*
X125137500Y-118634000D01*
X125587500Y-118634000D01*
X125620985Y-118640661D01*
G37*
G36*
X110953576Y-118200657D02*
G01*
X110998995Y-118231005D01*
X111029343Y-118276424D01*
X111040000Y-118330000D01*
X111040000Y-118610000D01*
X111029343Y-118663576D01*
X110998995Y-118708995D01*
X110953576Y-118739343D01*
X110900000Y-118750000D01*
X110560000Y-118750000D01*
X110506424Y-118739343D01*
X110461005Y-118708995D01*
X110430657Y-118663576D01*
X110420000Y-118610000D01*
X110420000Y-118330000D01*
X110430657Y-118276424D01*
X110461005Y-118231005D01*
X110506424Y-118200657D01*
X110560000Y-118190000D01*
X110900000Y-118190000D01*
X110953576Y-118200657D01*
G37*
G36*
X113523701Y-118305709D02*
G01*
X113548033Y-118321967D01*
X113564291Y-118346299D01*
X113570000Y-118375000D01*
X113570000Y-118525000D01*
X113564291Y-118553701D01*
X113548033Y-118578033D01*
X113523701Y-118594291D01*
X113495000Y-118600000D01*
X112170000Y-118600000D01*
X112141299Y-118594291D01*
X112116967Y-118578033D01*
X112100709Y-118553701D01*
X112095000Y-118525000D01*
X112095000Y-118375000D01*
X112100709Y-118346299D01*
X112116967Y-118321967D01*
X112141299Y-118305709D01*
X112170000Y-118300000D01*
X113495000Y-118300000D01*
X113523701Y-118305709D01*
G37*
G36*
X121848701Y-118305709D02*
G01*
X121873033Y-118321967D01*
X121889291Y-118346299D01*
X121895000Y-118375000D01*
X121895000Y-118525000D01*
X121889291Y-118553701D01*
X121873033Y-118578033D01*
X121848701Y-118594291D01*
X121820000Y-118600000D01*
X120495000Y-118600000D01*
X120466299Y-118594291D01*
X120441967Y-118578033D01*
X120425709Y-118553701D01*
X120420000Y-118525000D01*
X120420000Y-118375000D01*
X120425709Y-118346299D01*
X120441967Y-118321967D01*
X120466299Y-118305709D01*
X120495000Y-118300000D01*
X121820000Y-118300000D01*
X121848701Y-118305709D01*
G37*
G36*
X123295985Y-118140661D02*
G01*
X123324372Y-118159628D01*
X123343339Y-118188015D01*
X123350000Y-118221500D01*
X123350000Y-118396500D01*
X123343339Y-118429985D01*
X123324372Y-118458372D01*
X123295985Y-118477339D01*
X123262500Y-118484000D01*
X122812500Y-118484000D01*
X122779015Y-118477339D01*
X122750628Y-118458372D01*
X122731661Y-118429985D01*
X122725000Y-118396500D01*
X122725000Y-118221500D01*
X122731661Y-118188015D01*
X122750628Y-118159628D01*
X122779015Y-118140661D01*
X122812500Y-118134000D01*
X123262500Y-118134000D01*
X123295985Y-118140661D01*
G37*
G36*
X125620985Y-118140661D02*
G01*
X125649372Y-118159628D01*
X125668339Y-118188015D01*
X125675000Y-118221500D01*
X125675000Y-118396500D01*
X125668339Y-118429985D01*
X125649372Y-118458372D01*
X125620985Y-118477339D01*
X125587500Y-118484000D01*
X125137500Y-118484000D01*
X125104015Y-118477339D01*
X125075628Y-118458372D01*
X125056661Y-118429985D01*
X125050000Y-118396500D01*
X125050000Y-118221500D01*
X125056661Y-118188015D01*
X125075628Y-118159628D01*
X125104015Y-118140661D01*
X125137500Y-118134000D01*
X125587500Y-118134000D01*
X125620985Y-118140661D01*
G37*
G36*
X109516662Y-117650276D02*
G01*
X109560459Y-117679541D01*
X109589724Y-117723338D01*
X109600000Y-117775000D01*
X109600000Y-118045000D01*
X109589724Y-118096662D01*
X109560459Y-118140459D01*
X109516662Y-118169724D01*
X109465000Y-118180000D01*
X109095000Y-118180000D01*
X109043338Y-118169724D01*
X108999541Y-118140459D01*
X108970276Y-118096662D01*
X108960000Y-118045000D01*
X108960000Y-117775000D01*
X108970276Y-117723338D01*
X108999541Y-117679541D01*
X109043338Y-117650276D01*
X109095000Y-117640000D01*
X109465000Y-117640000D01*
X109516662Y-117650276D01*
G37*
G36*
X113523701Y-117805709D02*
G01*
X113548033Y-117821967D01*
X113564291Y-117846299D01*
X113570000Y-117875000D01*
X113570000Y-118025000D01*
X113564291Y-118053701D01*
X113548033Y-118078033D01*
X113523701Y-118094291D01*
X113495000Y-118100000D01*
X112170000Y-118100000D01*
X112141299Y-118094291D01*
X112116967Y-118078033D01*
X112100709Y-118053701D01*
X112095000Y-118025000D01*
X112095000Y-117875000D01*
X112100709Y-117846299D01*
X112116967Y-117821967D01*
X112141299Y-117805709D01*
X112170000Y-117800000D01*
X113495000Y-117800000D01*
X113523701Y-117805709D01*
G37*
G36*
X121848701Y-117805709D02*
G01*
X121873033Y-117821967D01*
X121889291Y-117846299D01*
X121895000Y-117875000D01*
X121895000Y-118025000D01*
X121889291Y-118053701D01*
X121873033Y-118078033D01*
X121848701Y-118094291D01*
X121820000Y-118100000D01*
X120495000Y-118100000D01*
X120466299Y-118094291D01*
X120441967Y-118078033D01*
X120425709Y-118053701D01*
X120420000Y-118025000D01*
X120420000Y-117875000D01*
X120425709Y-117846299D01*
X120441967Y-117821967D01*
X120466299Y-117805709D01*
X120495000Y-117800000D01*
X121820000Y-117800000D01*
X121848701Y-117805709D01*
G37*
G36*
X123295985Y-117640661D02*
G01*
X123324372Y-117659628D01*
X123343339Y-117688015D01*
X123350000Y-117721500D01*
X123350000Y-117896500D01*
X123343339Y-117929985D01*
X123324372Y-117958372D01*
X123295985Y-117977339D01*
X123262500Y-117984000D01*
X122812500Y-117984000D01*
X122779015Y-117977339D01*
X122750628Y-117958372D01*
X122731661Y-117929985D01*
X122725000Y-117896500D01*
X122725000Y-117721500D01*
X122731661Y-117688015D01*
X122750628Y-117659628D01*
X122779015Y-117640661D01*
X122812500Y-117634000D01*
X123262500Y-117634000D01*
X123295985Y-117640661D01*
G37*
G36*
X125620985Y-117640661D02*
G01*
X125649372Y-117659628D01*
X125668339Y-117688015D01*
X125675000Y-117721500D01*
X125675000Y-117896500D01*
X125668339Y-117929985D01*
X125649372Y-117958372D01*
X125620985Y-117977339D01*
X125587500Y-117984000D01*
X125137500Y-117984000D01*
X125104015Y-117977339D01*
X125075628Y-117958372D01*
X125056661Y-117929985D01*
X125050000Y-117896500D01*
X125050000Y-117721500D01*
X125056661Y-117688015D01*
X125075628Y-117659628D01*
X125104015Y-117640661D01*
X125137500Y-117634000D01*
X125587500Y-117634000D01*
X125620985Y-117640661D01*
G37*
G36*
X113523701Y-117305709D02*
G01*
X113548033Y-117321967D01*
X113564291Y-117346299D01*
X113570000Y-117375000D01*
X113570000Y-117525000D01*
X113564291Y-117553701D01*
X113548033Y-117578033D01*
X113523701Y-117594291D01*
X113495000Y-117600000D01*
X112170000Y-117600000D01*
X112141299Y-117594291D01*
X112116967Y-117578033D01*
X112100709Y-117553701D01*
X112095000Y-117525000D01*
X112095000Y-117375000D01*
X112100709Y-117346299D01*
X112116967Y-117321967D01*
X112141299Y-117305709D01*
X112170000Y-117300000D01*
X113495000Y-117300000D01*
X113523701Y-117305709D01*
G37*
G36*
X121848701Y-117305709D02*
G01*
X121873033Y-117321967D01*
X121889291Y-117346299D01*
X121895000Y-117375000D01*
X121895000Y-117525000D01*
X121889291Y-117553701D01*
X121873033Y-117578033D01*
X121848701Y-117594291D01*
X121820000Y-117600000D01*
X120495000Y-117600000D01*
X120466299Y-117594291D01*
X120441967Y-117578033D01*
X120425709Y-117553701D01*
X120420000Y-117525000D01*
X120420000Y-117375000D01*
X120425709Y-117346299D01*
X120441967Y-117321967D01*
X120466299Y-117305709D01*
X120495000Y-117300000D01*
X121820000Y-117300000D01*
X121848701Y-117305709D01*
G37*
G36*
X123295985Y-117140661D02*
G01*
X123324372Y-117159628D01*
X123343339Y-117188015D01*
X123350000Y-117221500D01*
X123350000Y-117396500D01*
X123343339Y-117429985D01*
X123324372Y-117458372D01*
X123295985Y-117477339D01*
X123262500Y-117484000D01*
X122812500Y-117484000D01*
X122779015Y-117477339D01*
X122750628Y-117458372D01*
X122731661Y-117429985D01*
X122725000Y-117396500D01*
X122725000Y-117221500D01*
X122731661Y-117188015D01*
X122750628Y-117159628D01*
X122779015Y-117140661D01*
X122812500Y-117134000D01*
X123262500Y-117134000D01*
X123295985Y-117140661D01*
G37*
G36*
X125620985Y-117140661D02*
G01*
X125649372Y-117159628D01*
X125668339Y-117188015D01*
X125675000Y-117221500D01*
X125675000Y-117396500D01*
X125668339Y-117429985D01*
X125649372Y-117458372D01*
X125620985Y-117477339D01*
X125587500Y-117484000D01*
X125137500Y-117484000D01*
X125104015Y-117477339D01*
X125075628Y-117458372D01*
X125056661Y-117429985D01*
X125050000Y-117396500D01*
X125050000Y-117221500D01*
X125056661Y-117188015D01*
X125075628Y-117159628D01*
X125104015Y-117140661D01*
X125137500Y-117134000D01*
X125587500Y-117134000D01*
X125620985Y-117140661D01*
G37*
G36*
X123820985Y-116840661D02*
G01*
X123849372Y-116859628D01*
X123868339Y-116888015D01*
X123875000Y-116921500D01*
X123875000Y-117371500D01*
X123868339Y-117404985D01*
X123849372Y-117433372D01*
X123820985Y-117452339D01*
X123787500Y-117459000D01*
X123612500Y-117459000D01*
X123579015Y-117452339D01*
X123550628Y-117433372D01*
X123531661Y-117404985D01*
X123525000Y-117371500D01*
X123525000Y-116921500D01*
X123531661Y-116888015D01*
X123550628Y-116859628D01*
X123579015Y-116840661D01*
X123612500Y-116834000D01*
X123787500Y-116834000D01*
X123820985Y-116840661D01*
G37*
G36*
X124320985Y-116840661D02*
G01*
X124349372Y-116859628D01*
X124368339Y-116888015D01*
X124375000Y-116921500D01*
X124375000Y-117371500D01*
X124368339Y-117404985D01*
X124349372Y-117433372D01*
X124320985Y-117452339D01*
X124287500Y-117459000D01*
X124112500Y-117459000D01*
X124079015Y-117452339D01*
X124050628Y-117433372D01*
X124031661Y-117404985D01*
X124025000Y-117371500D01*
X124025000Y-116921500D01*
X124031661Y-116888015D01*
X124050628Y-116859628D01*
X124079015Y-116840661D01*
X124112500Y-116834000D01*
X124287500Y-116834000D01*
X124320985Y-116840661D01*
G37*
G36*
X124820985Y-116840661D02*
G01*
X124849372Y-116859628D01*
X124868339Y-116888015D01*
X124875000Y-116921500D01*
X124875000Y-117371500D01*
X124868339Y-117404985D01*
X124849372Y-117433372D01*
X124820985Y-117452339D01*
X124787500Y-117459000D01*
X124612500Y-117459000D01*
X124579015Y-117452339D01*
X124550628Y-117433372D01*
X124531661Y-117404985D01*
X124525000Y-117371500D01*
X124525000Y-116921500D01*
X124531661Y-116888015D01*
X124550628Y-116859628D01*
X124579015Y-116840661D01*
X124612500Y-116834000D01*
X124787500Y-116834000D01*
X124820985Y-116840661D01*
G37*
G36*
X102916742Y-115746601D02*
G01*
X103070687Y-115810367D01*
X103209234Y-115902941D01*
X103327059Y-116020766D01*
X103419633Y-116159313D01*
X103483399Y-116313258D01*
X103515907Y-116476685D01*
X103515907Y-116643315D01*
X103483399Y-116806742D01*
X103419633Y-116960687D01*
X103327059Y-117099234D01*
X103209234Y-117217059D01*
X103070687Y-117309633D01*
X102916742Y-117373399D01*
X102753315Y-117405907D01*
X102586685Y-117405907D01*
X102423258Y-117373399D01*
X102269313Y-117309633D01*
X102130766Y-117217059D01*
X102012941Y-117099234D01*
X101920367Y-116960687D01*
X101856601Y-116806742D01*
X101824093Y-116643315D01*
X101824093Y-116476685D01*
X101856601Y-116313258D01*
X101920367Y-116159313D01*
X102012941Y-116020766D01*
X102130766Y-115902941D01*
X102269313Y-115810367D01*
X102423258Y-115746601D01*
X102586685Y-115714093D01*
X102753315Y-115714093D01*
X102916742Y-115746601D01*
G37*
G36*
X105456742Y-115746601D02*
G01*
X105610687Y-115810367D01*
X105749234Y-115902941D01*
X105867059Y-116020766D01*
X105959633Y-116159313D01*
X106023399Y-116313258D01*
X106055907Y-116476685D01*
X106055907Y-116643315D01*
X106023399Y-116806742D01*
X105959633Y-116960687D01*
X105867059Y-117099234D01*
X105749234Y-117217059D01*
X105610687Y-117309633D01*
X105456742Y-117373399D01*
X105293315Y-117405907D01*
X105126685Y-117405907D01*
X104963258Y-117373399D01*
X104809313Y-117309633D01*
X104670766Y-117217059D01*
X104552941Y-117099234D01*
X104460367Y-116960687D01*
X104396601Y-116806742D01*
X104364093Y-116643315D01*
X104364093Y-116476685D01*
X104396601Y-116313258D01*
X104460367Y-116159313D01*
X104552941Y-116020766D01*
X104670766Y-115902941D01*
X104809313Y-115810367D01*
X104963258Y-115746601D01*
X105126685Y-115714093D01*
X105293315Y-115714093D01*
X105456742Y-115746601D01*
G37*
G36*
X129026742Y-115746601D02*
G01*
X129180687Y-115810367D01*
X129319234Y-115902941D01*
X129437059Y-116020766D01*
X129529633Y-116159313D01*
X129593399Y-116313258D01*
X129625907Y-116476685D01*
X129625907Y-116643315D01*
X129593399Y-116806742D01*
X129529633Y-116960687D01*
X129437059Y-117099234D01*
X129319234Y-117217059D01*
X129180687Y-117309633D01*
X129026742Y-117373399D01*
X128863315Y-117405907D01*
X128696685Y-117405907D01*
X128533258Y-117373399D01*
X128379313Y-117309633D01*
X128240766Y-117217059D01*
X128122941Y-117099234D01*
X128030367Y-116960687D01*
X127966601Y-116806742D01*
X127934093Y-116643315D01*
X127934093Y-116476685D01*
X127966601Y-116313258D01*
X128030367Y-116159313D01*
X128122941Y-116020766D01*
X128240766Y-115902941D01*
X128379313Y-115810367D01*
X128533258Y-115746601D01*
X128696685Y-115714093D01*
X128863315Y-115714093D01*
X129026742Y-115746601D01*
G37*
G36*
X131566742Y-115746601D02*
G01*
X131720687Y-115810367D01*
X131859234Y-115902941D01*
X131977059Y-116020766D01*
X132069633Y-116159313D01*
X132133399Y-116313258D01*
X132165907Y-116476685D01*
X132165907Y-116643315D01*
X132133399Y-116806742D01*
X132069633Y-116960687D01*
X131977059Y-117099234D01*
X131859234Y-117217059D01*
X131720687Y-117309633D01*
X131566742Y-117373399D01*
X131403315Y-117405907D01*
X131236685Y-117405907D01*
X131073258Y-117373399D01*
X130919313Y-117309633D01*
X130780766Y-117217059D01*
X130662941Y-117099234D01*
X130570367Y-116960687D01*
X130506601Y-116806742D01*
X130474093Y-116643315D01*
X130474093Y-116476685D01*
X130506601Y-116313258D01*
X130570367Y-116159313D01*
X130662941Y-116020766D01*
X130780766Y-115902941D01*
X130919313Y-115810367D01*
X131073258Y-115746601D01*
X131236685Y-115714093D01*
X131403315Y-115714093D01*
X131566742Y-115746601D01*
G37*
G36*
X109516662Y-116630276D02*
G01*
X109560459Y-116659541D01*
X109589724Y-116703338D01*
X109600000Y-116755000D01*
X109600000Y-117025000D01*
X109589724Y-117076662D01*
X109560459Y-117120459D01*
X109516662Y-117149724D01*
X109465000Y-117160000D01*
X109095000Y-117160000D01*
X109043338Y-117149724D01*
X108999541Y-117120459D01*
X108970276Y-117076662D01*
X108960000Y-117025000D01*
X108960000Y-116755000D01*
X108970276Y-116703338D01*
X108999541Y-116659541D01*
X109043338Y-116630276D01*
X109095000Y-116620000D01*
X109465000Y-116620000D01*
X109516662Y-116630276D01*
G37*
G36*
X113523701Y-116805709D02*
G01*
X113548033Y-116821967D01*
X113564291Y-116846299D01*
X113570000Y-116875000D01*
X113570000Y-117025000D01*
X113564291Y-117053701D01*
X113548033Y-117078033D01*
X113523701Y-117094291D01*
X113495000Y-117100000D01*
X112170000Y-117100000D01*
X112141299Y-117094291D01*
X112116967Y-117078033D01*
X112100709Y-117053701D01*
X112095000Y-117025000D01*
X112095000Y-116875000D01*
X112100709Y-116846299D01*
X112116967Y-116821967D01*
X112141299Y-116805709D01*
X112170000Y-116800000D01*
X113495000Y-116800000D01*
X113523701Y-116805709D01*
G37*
G36*
X121848701Y-116805709D02*
G01*
X121873033Y-116821967D01*
X121889291Y-116846299D01*
X121895000Y-116875000D01*
X121895000Y-117025000D01*
X121889291Y-117053701D01*
X121873033Y-117078033D01*
X121848701Y-117094291D01*
X121820000Y-117100000D01*
X120495000Y-117100000D01*
X120466299Y-117094291D01*
X120441967Y-117078033D01*
X120425709Y-117053701D01*
X120420000Y-117025000D01*
X120420000Y-116875000D01*
X120425709Y-116846299D01*
X120441967Y-116821967D01*
X120466299Y-116805709D01*
X120495000Y-116800000D01*
X121820000Y-116800000D01*
X121848701Y-116805709D01*
G37*
G36*
X113523701Y-116305709D02*
G01*
X113548033Y-116321967D01*
X113564291Y-116346299D01*
X113570000Y-116375000D01*
X113570000Y-116525000D01*
X113564291Y-116553701D01*
X113548033Y-116578033D01*
X113523701Y-116594291D01*
X113495000Y-116600000D01*
X112170000Y-116600000D01*
X112141299Y-116594291D01*
X112116967Y-116578033D01*
X112100709Y-116553701D01*
X112095000Y-116525000D01*
X112095000Y-116375000D01*
X112100709Y-116346299D01*
X112116967Y-116321967D01*
X112141299Y-116305709D01*
X112170000Y-116300000D01*
X113495000Y-116300000D01*
X113523701Y-116305709D01*
G37*
G36*
X121848701Y-116305709D02*
G01*
X121873033Y-116321967D01*
X121889291Y-116346299D01*
X121895000Y-116375000D01*
X121895000Y-116525000D01*
X121889291Y-116553701D01*
X121873033Y-116578033D01*
X121848701Y-116594291D01*
X121820000Y-116600000D01*
X120495000Y-116600000D01*
X120466299Y-116594291D01*
X120441967Y-116578033D01*
X120425709Y-116553701D01*
X120420000Y-116525000D01*
X120420000Y-116375000D01*
X120425709Y-116346299D01*
X120441967Y-116321967D01*
X120466299Y-116305709D01*
X120495000Y-116300000D01*
X121820000Y-116300000D01*
X121848701Y-116305709D01*
G37*
G36*
X113523701Y-115805709D02*
G01*
X113548033Y-115821967D01*
X113564291Y-115846299D01*
X113570000Y-115875000D01*
X113570000Y-116025000D01*
X113564291Y-116053701D01*
X113548033Y-116078033D01*
X113523701Y-116094291D01*
X113495000Y-116100000D01*
X112170000Y-116100000D01*
X112141299Y-116094291D01*
X112116967Y-116078033D01*
X112100709Y-116053701D01*
X112095000Y-116025000D01*
X112095000Y-115875000D01*
X112100709Y-115846299D01*
X112116967Y-115821967D01*
X112141299Y-115805709D01*
X112170000Y-115800000D01*
X113495000Y-115800000D01*
X113523701Y-115805709D01*
G37*
G36*
X121848701Y-115805709D02*
G01*
X121873033Y-115821967D01*
X121889291Y-115846299D01*
X121895000Y-115875000D01*
X121895000Y-116025000D01*
X121889291Y-116053701D01*
X121873033Y-116078033D01*
X121848701Y-116094291D01*
X121820000Y-116100000D01*
X120495000Y-116100000D01*
X120466299Y-116094291D01*
X120441967Y-116078033D01*
X120425709Y-116053701D01*
X120420000Y-116025000D01*
X120420000Y-115875000D01*
X120425709Y-115846299D01*
X120441967Y-115821967D01*
X120466299Y-115805709D01*
X120495000Y-115800000D01*
X121820000Y-115800000D01*
X121848701Y-115805709D01*
G37*
G36*
X110430000Y-116050000D02*
G01*
X108730000Y-116050000D01*
X108730000Y-115150000D01*
X110430000Y-115150000D01*
X110430000Y-116050000D01*
G37*
G36*
X125273000Y-115836000D02*
G01*
X123573000Y-115836000D01*
X123573000Y-114936000D01*
X125273000Y-114936000D01*
X125273000Y-115836000D01*
G37*
G36*
X113523701Y-115305709D02*
G01*
X113548033Y-115321967D01*
X113564291Y-115346299D01*
X113570000Y-115375000D01*
X113570000Y-115525000D01*
X113564291Y-115553701D01*
X113548033Y-115578033D01*
X113523701Y-115594291D01*
X113495000Y-115600000D01*
X112170000Y-115600000D01*
X112141299Y-115594291D01*
X112116967Y-115578033D01*
X112100709Y-115553701D01*
X112095000Y-115525000D01*
X112095000Y-115375000D01*
X112100709Y-115346299D01*
X112116967Y-115321967D01*
X112141299Y-115305709D01*
X112170000Y-115300000D01*
X113495000Y-115300000D01*
X113523701Y-115305709D01*
G37*
G36*
X121848701Y-115305709D02*
G01*
X121873033Y-115321967D01*
X121889291Y-115346299D01*
X121895000Y-115375000D01*
X121895000Y-115525000D01*
X121889291Y-115553701D01*
X121873033Y-115578033D01*
X121848701Y-115594291D01*
X121820000Y-115600000D01*
X120495000Y-115600000D01*
X120466299Y-115594291D01*
X120441967Y-115578033D01*
X120425709Y-115553701D01*
X120420000Y-115525000D01*
X120420000Y-115375000D01*
X120425709Y-115346299D01*
X120441967Y-115321967D01*
X120466299Y-115305709D01*
X120495000Y-115300000D01*
X121820000Y-115300000D01*
X121848701Y-115305709D01*
G37*
G36*
X113523701Y-114805709D02*
G01*
X113548033Y-114821967D01*
X113564291Y-114846299D01*
X113570000Y-114875000D01*
X113570000Y-115025000D01*
X113564291Y-115053701D01*
X113548033Y-115078033D01*
X113523701Y-115094291D01*
X113495000Y-115100000D01*
X112170000Y-115100000D01*
X112141299Y-115094291D01*
X112116967Y-115078033D01*
X112100709Y-115053701D01*
X112095000Y-115025000D01*
X112095000Y-114875000D01*
X112100709Y-114846299D01*
X112116967Y-114821967D01*
X112141299Y-114805709D01*
X112170000Y-114800000D01*
X113495000Y-114800000D01*
X113523701Y-114805709D01*
G37*
G36*
X121848701Y-114805709D02*
G01*
X121873033Y-114821967D01*
X121889291Y-114846299D01*
X121895000Y-114875000D01*
X121895000Y-115025000D01*
X121889291Y-115053701D01*
X121873033Y-115078033D01*
X121848701Y-115094291D01*
X121820000Y-115100000D01*
X120495000Y-115100000D01*
X120466299Y-115094291D01*
X120441967Y-115078033D01*
X120425709Y-115053701D01*
X120420000Y-115025000D01*
X120420000Y-114875000D01*
X120425709Y-114846299D01*
X120441967Y-114821967D01*
X120466299Y-114805709D01*
X120495000Y-114800000D01*
X121820000Y-114800000D01*
X121848701Y-114805709D01*
G37*
G36*
X102916742Y-113206601D02*
G01*
X103070687Y-113270367D01*
X103209234Y-113362941D01*
X103327059Y-113480766D01*
X103419633Y-113619313D01*
X103483399Y-113773258D01*
X103515907Y-113936685D01*
X103515907Y-114103315D01*
X103483399Y-114266742D01*
X103419633Y-114420687D01*
X103327059Y-114559234D01*
X103209234Y-114677059D01*
X103070687Y-114769633D01*
X102916742Y-114833399D01*
X102753315Y-114865907D01*
X102586685Y-114865907D01*
X102423258Y-114833399D01*
X102269313Y-114769633D01*
X102130766Y-114677059D01*
X102012941Y-114559234D01*
X101920367Y-114420687D01*
X101856601Y-114266742D01*
X101824093Y-114103315D01*
X101824093Y-113936685D01*
X101856601Y-113773258D01*
X101920367Y-113619313D01*
X102012941Y-113480766D01*
X102130766Y-113362941D01*
X102269313Y-113270367D01*
X102423258Y-113206601D01*
X102586685Y-113174093D01*
X102753315Y-113174093D01*
X102916742Y-113206601D01*
G37*
G36*
X105456742Y-113206601D02*
G01*
X105610687Y-113270367D01*
X105749234Y-113362941D01*
X105867059Y-113480766D01*
X105959633Y-113619313D01*
X106023399Y-113773258D01*
X106055907Y-113936685D01*
X106055907Y-114103315D01*
X106023399Y-114266742D01*
X105959633Y-114420687D01*
X105867059Y-114559234D01*
X105749234Y-114677059D01*
X105610687Y-114769633D01*
X105456742Y-114833399D01*
X105293315Y-114865907D01*
X105126685Y-114865907D01*
X104963258Y-114833399D01*
X104809313Y-114769633D01*
X104670766Y-114677059D01*
X104552941Y-114559234D01*
X104460367Y-114420687D01*
X104396601Y-114266742D01*
X104364093Y-114103315D01*
X104364093Y-113936685D01*
X104396601Y-113773258D01*
X104460367Y-113619313D01*
X104552941Y-113480766D01*
X104670766Y-113362941D01*
X104809313Y-113270367D01*
X104963258Y-113206601D01*
X105126685Y-113174093D01*
X105293315Y-113174093D01*
X105456742Y-113206601D01*
G37*
G36*
X129026742Y-113206601D02*
G01*
X129180687Y-113270367D01*
X129319234Y-113362941D01*
X129437059Y-113480766D01*
X129529633Y-113619313D01*
X129593399Y-113773258D01*
X129625907Y-113936685D01*
X129625907Y-114103315D01*
X129593399Y-114266742D01*
X129529633Y-114420687D01*
X129437059Y-114559234D01*
X129319234Y-114677059D01*
X129180687Y-114769633D01*
X129026742Y-114833399D01*
X128863315Y-114865907D01*
X128696685Y-114865907D01*
X128533258Y-114833399D01*
X128379313Y-114769633D01*
X128240766Y-114677059D01*
X128122941Y-114559234D01*
X128030367Y-114420687D01*
X127966601Y-114266742D01*
X127934093Y-114103315D01*
X127934093Y-113936685D01*
X127966601Y-113773258D01*
X128030367Y-113619313D01*
X128122941Y-113480766D01*
X128240766Y-113362941D01*
X128379313Y-113270367D01*
X128533258Y-113206601D01*
X128696685Y-113174093D01*
X128863315Y-113174093D01*
X129026742Y-113206601D01*
G37*
G36*
X131566742Y-113206601D02*
G01*
X131720687Y-113270367D01*
X131859234Y-113362941D01*
X131977059Y-113480766D01*
X132069633Y-113619313D01*
X132133399Y-113773258D01*
X132165907Y-113936685D01*
X132165907Y-114103315D01*
X132133399Y-114266742D01*
X132069633Y-114420687D01*
X131977059Y-114559234D01*
X131859234Y-114677059D01*
X131720687Y-114769633D01*
X131566742Y-114833399D01*
X131403315Y-114865907D01*
X131236685Y-114865907D01*
X131073258Y-114833399D01*
X130919313Y-114769633D01*
X130780766Y-114677059D01*
X130662941Y-114559234D01*
X130570367Y-114420687D01*
X130506601Y-114266742D01*
X130474093Y-114103315D01*
X130474093Y-113936685D01*
X130506601Y-113773258D01*
X130570367Y-113619313D01*
X130662941Y-113480766D01*
X130780766Y-113362941D01*
X130919313Y-113270367D01*
X131073258Y-113206601D01*
X131236685Y-113174093D01*
X131403315Y-113174093D01*
X131566742Y-113206601D01*
G37*
G36*
X113523701Y-114305709D02*
G01*
X113548033Y-114321967D01*
X113564291Y-114346299D01*
X113570000Y-114375000D01*
X113570000Y-114525000D01*
X113564291Y-114553701D01*
X113548033Y-114578033D01*
X113523701Y-114594291D01*
X113495000Y-114600000D01*
X112170000Y-114600000D01*
X112141299Y-114594291D01*
X112116967Y-114578033D01*
X112100709Y-114553701D01*
X112095000Y-114525000D01*
X112095000Y-114375000D01*
X112100709Y-114346299D01*
X112116967Y-114321967D01*
X112141299Y-114305709D01*
X112170000Y-114300000D01*
X113495000Y-114300000D01*
X113523701Y-114305709D01*
G37*
G36*
X121848701Y-114305709D02*
G01*
X121873033Y-114321967D01*
X121889291Y-114346299D01*
X121895000Y-114375000D01*
X121895000Y-114525000D01*
X121889291Y-114553701D01*
X121873033Y-114578033D01*
X121848701Y-114594291D01*
X121820000Y-114600000D01*
X120495000Y-114600000D01*
X120466299Y-114594291D01*
X120441967Y-114578033D01*
X120425709Y-114553701D01*
X120420000Y-114525000D01*
X120420000Y-114375000D01*
X120425709Y-114346299D01*
X120441967Y-114321967D01*
X120466299Y-114305709D01*
X120495000Y-114300000D01*
X121820000Y-114300000D01*
X121848701Y-114305709D01*
G37*
G36*
X113523701Y-113805709D02*
G01*
X113548033Y-113821967D01*
X113564291Y-113846299D01*
X113570000Y-113875000D01*
X113570000Y-114025000D01*
X113564291Y-114053701D01*
X113548033Y-114078033D01*
X113523701Y-114094291D01*
X113495000Y-114100000D01*
X112170000Y-114100000D01*
X112141299Y-114094291D01*
X112116967Y-114078033D01*
X112100709Y-114053701D01*
X112095000Y-114025000D01*
X112095000Y-113875000D01*
X112100709Y-113846299D01*
X112116967Y-113821967D01*
X112141299Y-113805709D01*
X112170000Y-113800000D01*
X113495000Y-113800000D01*
X113523701Y-113805709D01*
G37*
G36*
X121848701Y-113805709D02*
G01*
X121873033Y-113821967D01*
X121889291Y-113846299D01*
X121895000Y-113875000D01*
X121895000Y-114025000D01*
X121889291Y-114053701D01*
X121873033Y-114078033D01*
X121848701Y-114094291D01*
X121820000Y-114100000D01*
X120495000Y-114100000D01*
X120466299Y-114094291D01*
X120441967Y-114078033D01*
X120425709Y-114053701D01*
X120420000Y-114025000D01*
X120420000Y-113875000D01*
X120425709Y-113846299D01*
X120441967Y-113821967D01*
X120466299Y-113805709D01*
X120495000Y-113800000D01*
X121820000Y-113800000D01*
X121848701Y-113805709D01*
G37*
G36*
X113523701Y-113305709D02*
G01*
X113548033Y-113321967D01*
X113564291Y-113346299D01*
X113570000Y-113375000D01*
X113570000Y-113525000D01*
X113564291Y-113553701D01*
X113548033Y-113578033D01*
X113523701Y-113594291D01*
X113495000Y-113600000D01*
X112170000Y-113600000D01*
X112141299Y-113594291D01*
X112116967Y-113578033D01*
X112100709Y-113553701D01*
X112095000Y-113525000D01*
X112095000Y-113375000D01*
X112100709Y-113346299D01*
X112116967Y-113321967D01*
X112141299Y-113305709D01*
X112170000Y-113300000D01*
X113495000Y-113300000D01*
X113523701Y-113305709D01*
G37*
G36*
X121848701Y-113305709D02*
G01*
X121873033Y-113321967D01*
X121889291Y-113346299D01*
X121895000Y-113375000D01*
X121895000Y-113525000D01*
X121889291Y-113553701D01*
X121873033Y-113578033D01*
X121848701Y-113594291D01*
X121820000Y-113600000D01*
X120495000Y-113600000D01*
X120466299Y-113594291D01*
X120441967Y-113578033D01*
X120425709Y-113553701D01*
X120420000Y-113525000D01*
X120420000Y-113375000D01*
X120425709Y-113346299D01*
X120441967Y-113321967D01*
X120466299Y-113305709D01*
X120495000Y-113300000D01*
X121820000Y-113300000D01*
X121848701Y-113305709D01*
G37*
G36*
X114348701Y-111305709D02*
G01*
X114373033Y-111321967D01*
X114389291Y-111346299D01*
X114395000Y-111375000D01*
X114395000Y-112700000D01*
X114389291Y-112728701D01*
X114373033Y-112753033D01*
X114348701Y-112769291D01*
X114320000Y-112775000D01*
X114170000Y-112775000D01*
X114141299Y-112769291D01*
X114116967Y-112753033D01*
X114100709Y-112728701D01*
X114095000Y-112700000D01*
X114095000Y-111375000D01*
X114100709Y-111346299D01*
X114116967Y-111321967D01*
X114141299Y-111305709D01*
X114170000Y-111300000D01*
X114320000Y-111300000D01*
X114348701Y-111305709D01*
G37*
G36*
X114848701Y-111305709D02*
G01*
X114873033Y-111321967D01*
X114889291Y-111346299D01*
X114895000Y-111375000D01*
X114895000Y-112700000D01*
X114889291Y-112728701D01*
X114873033Y-112753033D01*
X114848701Y-112769291D01*
X114820000Y-112775000D01*
X114670000Y-112775000D01*
X114641299Y-112769291D01*
X114616967Y-112753033D01*
X114600709Y-112728701D01*
X114595000Y-112700000D01*
X114595000Y-111375000D01*
X114600709Y-111346299D01*
X114616967Y-111321967D01*
X114641299Y-111305709D01*
X114670000Y-111300000D01*
X114820000Y-111300000D01*
X114848701Y-111305709D01*
G37*
G36*
X115348701Y-111305709D02*
G01*
X115373033Y-111321967D01*
X115389291Y-111346299D01*
X115395000Y-111375000D01*
X115395000Y-112700000D01*
X115389291Y-112728701D01*
X115373033Y-112753033D01*
X115348701Y-112769291D01*
X115320000Y-112775000D01*
X115170000Y-112775000D01*
X115141299Y-112769291D01*
X115116967Y-112753033D01*
X115100709Y-112728701D01*
X115095000Y-112700000D01*
X115095000Y-111375000D01*
X115100709Y-111346299D01*
X115116967Y-111321967D01*
X115141299Y-111305709D01*
X115170000Y-111300000D01*
X115320000Y-111300000D01*
X115348701Y-111305709D01*
G37*
G36*
X115848701Y-111305709D02*
G01*
X115873033Y-111321967D01*
X115889291Y-111346299D01*
X115895000Y-111375000D01*
X115895000Y-112700000D01*
X115889291Y-112728701D01*
X115873033Y-112753033D01*
X115848701Y-112769291D01*
X115820000Y-112775000D01*
X115670000Y-112775000D01*
X115641299Y-112769291D01*
X115616967Y-112753033D01*
X115600709Y-112728701D01*
X115595000Y-112700000D01*
X115595000Y-111375000D01*
X115600709Y-111346299D01*
X115616967Y-111321967D01*
X115641299Y-111305709D01*
X115670000Y-111300000D01*
X115820000Y-111300000D01*
X115848701Y-111305709D01*
G37*
G36*
X116348701Y-111305709D02*
G01*
X116373033Y-111321967D01*
X116389291Y-111346299D01*
X116395000Y-111375000D01*
X116395000Y-112700000D01*
X116389291Y-112728701D01*
X116373033Y-112753033D01*
X116348701Y-112769291D01*
X116320000Y-112775000D01*
X116170000Y-112775000D01*
X116141299Y-112769291D01*
X116116967Y-112753033D01*
X116100709Y-112728701D01*
X116095000Y-112700000D01*
X116095000Y-111375000D01*
X116100709Y-111346299D01*
X116116967Y-111321967D01*
X116141299Y-111305709D01*
X116170000Y-111300000D01*
X116320000Y-111300000D01*
X116348701Y-111305709D01*
G37*
G36*
X116848701Y-111305709D02*
G01*
X116873033Y-111321967D01*
X116889291Y-111346299D01*
X116895000Y-111375000D01*
X116895000Y-112700000D01*
X116889291Y-112728701D01*
X116873033Y-112753033D01*
X116848701Y-112769291D01*
X116820000Y-112775000D01*
X116670000Y-112775000D01*
X116641299Y-112769291D01*
X116616967Y-112753033D01*
X116600709Y-112728701D01*
X116595000Y-112700000D01*
X116595000Y-111375000D01*
X116600709Y-111346299D01*
X116616967Y-111321967D01*
X116641299Y-111305709D01*
X116670000Y-111300000D01*
X116820000Y-111300000D01*
X116848701Y-111305709D01*
G37*
G36*
X117348701Y-111305709D02*
G01*
X117373033Y-111321967D01*
X117389291Y-111346299D01*
X117395000Y-111375000D01*
X117395000Y-112700000D01*
X117389291Y-112728701D01*
X117373033Y-112753033D01*
X117348701Y-112769291D01*
X117320000Y-112775000D01*
X117170000Y-112775000D01*
X117141299Y-112769291D01*
X117116967Y-112753033D01*
X117100709Y-112728701D01*
X117095000Y-112700000D01*
X117095000Y-111375000D01*
X117100709Y-111346299D01*
X117116967Y-111321967D01*
X117141299Y-111305709D01*
X117170000Y-111300000D01*
X117320000Y-111300000D01*
X117348701Y-111305709D01*
G37*
G36*
X117848701Y-111305709D02*
G01*
X117873033Y-111321967D01*
X117889291Y-111346299D01*
X117895000Y-111375000D01*
X117895000Y-112700000D01*
X117889291Y-112728701D01*
X117873033Y-112753033D01*
X117848701Y-112769291D01*
X117820000Y-112775000D01*
X117670000Y-112775000D01*
X117641299Y-112769291D01*
X117616967Y-112753033D01*
X117600709Y-112728701D01*
X117595000Y-112700000D01*
X117595000Y-111375000D01*
X117600709Y-111346299D01*
X117616967Y-111321967D01*
X117641299Y-111305709D01*
X117670000Y-111300000D01*
X117820000Y-111300000D01*
X117848701Y-111305709D01*
G37*
G36*
X118348701Y-111305709D02*
G01*
X118373033Y-111321967D01*
X118389291Y-111346299D01*
X118395000Y-111375000D01*
X118395000Y-112700000D01*
X118389291Y-112728701D01*
X118373033Y-112753033D01*
X118348701Y-112769291D01*
X118320000Y-112775000D01*
X118170000Y-112775000D01*
X118141299Y-112769291D01*
X118116967Y-112753033D01*
X118100709Y-112728701D01*
X118095000Y-112700000D01*
X118095000Y-111375000D01*
X118100709Y-111346299D01*
X118116967Y-111321967D01*
X118141299Y-111305709D01*
X118170000Y-111300000D01*
X118320000Y-111300000D01*
X118348701Y-111305709D01*
G37*
G36*
X118848701Y-111305709D02*
G01*
X118873033Y-111321967D01*
X118889291Y-111346299D01*
X118895000Y-111375000D01*
X118895000Y-112700000D01*
X118889291Y-112728701D01*
X118873033Y-112753033D01*
X118848701Y-112769291D01*
X118820000Y-112775000D01*
X118670000Y-112775000D01*
X118641299Y-112769291D01*
X118616967Y-112753033D01*
X118600709Y-112728701D01*
X118595000Y-112700000D01*
X118595000Y-111375000D01*
X118600709Y-111346299D01*
X118616967Y-111321967D01*
X118641299Y-111305709D01*
X118670000Y-111300000D01*
X118820000Y-111300000D01*
X118848701Y-111305709D01*
G37*
G36*
X119348701Y-111305709D02*
G01*
X119373033Y-111321967D01*
X119389291Y-111346299D01*
X119395000Y-111375000D01*
X119395000Y-112700000D01*
X119389291Y-112728701D01*
X119373033Y-112753033D01*
X119348701Y-112769291D01*
X119320000Y-112775000D01*
X119170000Y-112775000D01*
X119141299Y-112769291D01*
X119116967Y-112753033D01*
X119100709Y-112728701D01*
X119095000Y-112700000D01*
X119095000Y-111375000D01*
X119100709Y-111346299D01*
X119116967Y-111321967D01*
X119141299Y-111305709D01*
X119170000Y-111300000D01*
X119320000Y-111300000D01*
X119348701Y-111305709D01*
G37*
G36*
X119848701Y-111305709D02*
G01*
X119873033Y-111321967D01*
X119889291Y-111346299D01*
X119895000Y-111375000D01*
X119895000Y-112700000D01*
X119889291Y-112728701D01*
X119873033Y-112753033D01*
X119848701Y-112769291D01*
X119820000Y-112775000D01*
X119670000Y-112775000D01*
X119641299Y-112769291D01*
X119616967Y-112753033D01*
X119600709Y-112728701D01*
X119595000Y-112700000D01*
X119595000Y-111375000D01*
X119600709Y-111346299D01*
X119616967Y-111321967D01*
X119641299Y-111305709D01*
X119670000Y-111300000D01*
X119820000Y-111300000D01*
X119848701Y-111305709D01*
G37*
G36*
X121573576Y-112210657D02*
G01*
X121618995Y-112241005D01*
X121649343Y-112286424D01*
X121660000Y-112340000D01*
X121660000Y-112620000D01*
X121649343Y-112673576D01*
X121618995Y-112718995D01*
X121573576Y-112749343D01*
X121520000Y-112760000D01*
X121180000Y-112760000D01*
X121126424Y-112749343D01*
X121081005Y-112718995D01*
X121050657Y-112673576D01*
X121040000Y-112620000D01*
X121040000Y-112340000D01*
X121050657Y-112286424D01*
X121081005Y-112241005D01*
X121126424Y-112210657D01*
X121180000Y-112200000D01*
X121520000Y-112200000D01*
X121573576Y-112210657D01*
G37*
G36*
X110430000Y-112650000D02*
G01*
X108730000Y-112650000D01*
X108730000Y-111750000D01*
X110430000Y-111750000D01*
X110430000Y-112650000D01*
G37*
G36*
X125273000Y-112436000D02*
G01*
X123573000Y-112436000D01*
X123573000Y-111536000D01*
X125273000Y-111536000D01*
X125273000Y-112436000D01*
G37*
G36*
X102916742Y-110666601D02*
G01*
X103070687Y-110730367D01*
X103209234Y-110822941D01*
X103327059Y-110940766D01*
X103419633Y-111079313D01*
X103483399Y-111233258D01*
X103515907Y-111396685D01*
X103515907Y-111563315D01*
X103483399Y-111726742D01*
X103419633Y-111880687D01*
X103327059Y-112019234D01*
X103209234Y-112137059D01*
X103070687Y-112229633D01*
X102916742Y-112293399D01*
X102753315Y-112325907D01*
X102586685Y-112325907D01*
X102423258Y-112293399D01*
X102269313Y-112229633D01*
X102130766Y-112137059D01*
X102012941Y-112019234D01*
X101920367Y-111880687D01*
X101856601Y-111726742D01*
X101824093Y-111563315D01*
X101824093Y-111396685D01*
X101856601Y-111233258D01*
X101920367Y-111079313D01*
X102012941Y-110940766D01*
X102130766Y-110822941D01*
X102269313Y-110730367D01*
X102423258Y-110666601D01*
X102586685Y-110634093D01*
X102753315Y-110634093D01*
X102916742Y-110666601D01*
G37*
G36*
X105456742Y-110666601D02*
G01*
X105610687Y-110730367D01*
X105749234Y-110822941D01*
X105867059Y-110940766D01*
X105959633Y-111079313D01*
X106023399Y-111233258D01*
X106055907Y-111396685D01*
X106055907Y-111563315D01*
X106023399Y-111726742D01*
X105959633Y-111880687D01*
X105867059Y-112019234D01*
X105749234Y-112137059D01*
X105610687Y-112229633D01*
X105456742Y-112293399D01*
X105293315Y-112325907D01*
X105126685Y-112325907D01*
X104963258Y-112293399D01*
X104809313Y-112229633D01*
X104670766Y-112137059D01*
X104552941Y-112019234D01*
X104460367Y-111880687D01*
X104396601Y-111726742D01*
X104364093Y-111563315D01*
X104364093Y-111396685D01*
X104396601Y-111233258D01*
X104460367Y-111079313D01*
X104552941Y-110940766D01*
X104670766Y-110822941D01*
X104809313Y-110730367D01*
X104963258Y-110666601D01*
X105126685Y-110634093D01*
X105293315Y-110634093D01*
X105456742Y-110666601D01*
G37*
G36*
X129026742Y-110666601D02*
G01*
X129180687Y-110730367D01*
X129319234Y-110822941D01*
X129437059Y-110940766D01*
X129529633Y-111079313D01*
X129593399Y-111233258D01*
X129625907Y-111396685D01*
X129625907Y-111563315D01*
X129593399Y-111726742D01*
X129529633Y-111880687D01*
X129437059Y-112019234D01*
X129319234Y-112137059D01*
X129180687Y-112229633D01*
X129026742Y-112293399D01*
X128863315Y-112325907D01*
X128696685Y-112325907D01*
X128533258Y-112293399D01*
X128379313Y-112229633D01*
X128240766Y-112137059D01*
X128122941Y-112019234D01*
X128030367Y-111880687D01*
X127966601Y-111726742D01*
X127934093Y-111563315D01*
X127934093Y-111396685D01*
X127966601Y-111233258D01*
X128030367Y-111079313D01*
X128122941Y-110940766D01*
X128240766Y-110822941D01*
X128379313Y-110730367D01*
X128533258Y-110666601D01*
X128696685Y-110634093D01*
X128863315Y-110634093D01*
X129026742Y-110666601D01*
G37*
G36*
X131566742Y-110666601D02*
G01*
X131720687Y-110730367D01*
X131859234Y-110822941D01*
X131977059Y-110940766D01*
X132069633Y-111079313D01*
X132133399Y-111233258D01*
X132165907Y-111396685D01*
X132165907Y-111563315D01*
X132133399Y-111726742D01*
X132069633Y-111880687D01*
X131977059Y-112019234D01*
X131859234Y-112137059D01*
X131720687Y-112229633D01*
X131566742Y-112293399D01*
X131403315Y-112325907D01*
X131236685Y-112325907D01*
X131073258Y-112293399D01*
X130919313Y-112229633D01*
X130780766Y-112137059D01*
X130662941Y-112019234D01*
X130570367Y-111880687D01*
X130506601Y-111726742D01*
X130474093Y-111563315D01*
X130474093Y-111396685D01*
X130506601Y-111233258D01*
X130570367Y-111079313D01*
X130662941Y-110940766D01*
X130780766Y-110822941D01*
X130919313Y-110730367D01*
X131073258Y-110666601D01*
X131236685Y-110634093D01*
X131403315Y-110634093D01*
X131566742Y-110666601D01*
G37*
G36*
X112612576Y-111617657D02*
G01*
X112657995Y-111648005D01*
X112688343Y-111693424D01*
X112699000Y-111747000D01*
X112699000Y-112027000D01*
X112688343Y-112080576D01*
X112657995Y-112125995D01*
X112612576Y-112156343D01*
X112559000Y-112167000D01*
X112219000Y-112167000D01*
X112165424Y-112156343D01*
X112120005Y-112125995D01*
X112089657Y-112080576D01*
X112079000Y-112027000D01*
X112079000Y-111747000D01*
X112089657Y-111693424D01*
X112120005Y-111648005D01*
X112165424Y-111617657D01*
X112219000Y-111607000D01*
X112559000Y-111607000D01*
X112612576Y-111617657D01*
G37*
G36*
X121573576Y-111250657D02*
G01*
X121618995Y-111281005D01*
X121649343Y-111326424D01*
X121660000Y-111380000D01*
X121660000Y-111660000D01*
X121649343Y-111713576D01*
X121618995Y-111758995D01*
X121573576Y-111789343D01*
X121520000Y-111800000D01*
X121180000Y-111800000D01*
X121126424Y-111789343D01*
X121081005Y-111758995D01*
X121050657Y-111713576D01*
X121040000Y-111660000D01*
X121040000Y-111380000D01*
X121050657Y-111326424D01*
X121081005Y-111281005D01*
X121126424Y-111250657D01*
X121180000Y-111240000D01*
X121520000Y-111240000D01*
X121573576Y-111250657D01*
G37*
G36*
X112612576Y-110657657D02*
G01*
X112657995Y-110688005D01*
X112688343Y-110733424D01*
X112699000Y-110787000D01*
X112699000Y-111067000D01*
X112688343Y-111120576D01*
X112657995Y-111165995D01*
X112612576Y-111196343D01*
X112559000Y-111207000D01*
X112219000Y-111207000D01*
X112165424Y-111196343D01*
X112120005Y-111165995D01*
X112089657Y-111120576D01*
X112079000Y-111067000D01*
X112079000Y-110787000D01*
X112089657Y-110733424D01*
X112120005Y-110688005D01*
X112165424Y-110657657D01*
X112219000Y-110647000D01*
X112559000Y-110647000D01*
X112612576Y-110657657D01*
G37*
G36*
X118329576Y-110117657D02*
G01*
X118374995Y-110148005D01*
X118405343Y-110193424D01*
X118416000Y-110247000D01*
X118416000Y-110527000D01*
X118405343Y-110580576D01*
X118374995Y-110625995D01*
X118329576Y-110656343D01*
X118276000Y-110667000D01*
X117936000Y-110667000D01*
X117882424Y-110656343D01*
X117837005Y-110625995D01*
X117806657Y-110580576D01*
X117796000Y-110527000D01*
X117796000Y-110247000D01*
X117806657Y-110193424D01*
X117837005Y-110148005D01*
X117882424Y-110117657D01*
X117936000Y-110107000D01*
X118276000Y-110107000D01*
X118329576Y-110117657D01*
G37*
G36*
X116498701Y-109875709D02*
G01*
X116523033Y-109891967D01*
X116539291Y-109916299D01*
X116545000Y-109945000D01*
X116545000Y-110445000D01*
X116539291Y-110473701D01*
X116523033Y-110498033D01*
X116498701Y-110514291D01*
X116470000Y-110520000D01*
X116320000Y-110520000D01*
X116291299Y-110514291D01*
X116266967Y-110498033D01*
X116250709Y-110473701D01*
X116245000Y-110445000D01*
X116245000Y-109945000D01*
X116250709Y-109916299D01*
X116266967Y-109891967D01*
X116291299Y-109875709D01*
X116320000Y-109870000D01*
X116470000Y-109870000D01*
X116498701Y-109875709D01*
G37*
G36*
X115987127Y-109877136D02*
G01*
X116017541Y-109897459D01*
X116037864Y-109927873D01*
X116045000Y-109963750D01*
X116045000Y-110276250D01*
X116037864Y-110312127D01*
X116017541Y-110342541D01*
X115987127Y-110362864D01*
X115951250Y-110370000D01*
X115763750Y-110370000D01*
X115727873Y-110362864D01*
X115697459Y-110342541D01*
X115677136Y-110312127D01*
X115670000Y-110276250D01*
X115670000Y-109963750D01*
X115677136Y-109927873D01*
X115697459Y-109897459D01*
X115727873Y-109877136D01*
X115763750Y-109870000D01*
X115951250Y-109870000D01*
X115987127Y-109877136D01*
G37*
G36*
X117062127Y-109877136D02*
G01*
X117092541Y-109897459D01*
X117112864Y-109927873D01*
X117120000Y-109963750D01*
X117120000Y-110276250D01*
X117112864Y-110312127D01*
X117092541Y-110342541D01*
X117062127Y-110362864D01*
X117026250Y-110370000D01*
X116838750Y-110370000D01*
X116802873Y-110362864D01*
X116772459Y-110342541D01*
X116752136Y-110312127D01*
X116745000Y-110276250D01*
X116745000Y-109963750D01*
X116752136Y-109927873D01*
X116772459Y-109897459D01*
X116802873Y-109877136D01*
X116838750Y-109870000D01*
X117026250Y-109870000D01*
X117062127Y-109877136D01*
G37*
G36*
X111211946Y-109636228D02*
G01*
X111259798Y-109668202D01*
X111291772Y-109716054D01*
X111303000Y-109772500D01*
X111303000Y-110117500D01*
X111291772Y-110173946D01*
X111259798Y-110221798D01*
X111211946Y-110253772D01*
X111155500Y-110265000D01*
X110860500Y-110265000D01*
X110804054Y-110253772D01*
X110756202Y-110221798D01*
X110724228Y-110173946D01*
X110713000Y-110117500D01*
X110713000Y-109772500D01*
X110724228Y-109716054D01*
X110756202Y-109668202D01*
X110804054Y-109636228D01*
X110860500Y-109625000D01*
X111155500Y-109625000D01*
X111211946Y-109636228D01*
G37*
G36*
X112181946Y-109636228D02*
G01*
X112229798Y-109668202D01*
X112261772Y-109716054D01*
X112273000Y-109772500D01*
X112273000Y-110117500D01*
X112261772Y-110173946D01*
X112229798Y-110221798D01*
X112181946Y-110253772D01*
X112125500Y-110265000D01*
X111830500Y-110265000D01*
X111774054Y-110253772D01*
X111726202Y-110221798D01*
X111694228Y-110173946D01*
X111683000Y-110117500D01*
X111683000Y-109772500D01*
X111694228Y-109716054D01*
X111726202Y-109668202D01*
X111774054Y-109636228D01*
X111830500Y-109625000D01*
X112125500Y-109625000D01*
X112181946Y-109636228D01*
G37*
G36*
X120337127Y-109757136D02*
G01*
X120367541Y-109777459D01*
X120387864Y-109807873D01*
X120395000Y-109843750D01*
X120395000Y-110056250D01*
X120387864Y-110092127D01*
X120367541Y-110122541D01*
X120337127Y-110142864D01*
X120301250Y-110150000D01*
X120113750Y-110150000D01*
X120077873Y-110142864D01*
X120047459Y-110122541D01*
X120027136Y-110092127D01*
X120020000Y-110056250D01*
X120020000Y-109843750D01*
X120027136Y-109807873D01*
X120047459Y-109777459D01*
X120077873Y-109757136D01*
X120113750Y-109750000D01*
X120301250Y-109750000D01*
X120337127Y-109757136D01*
G37*
G36*
X122112127Y-109757136D02*
G01*
X122142541Y-109777459D01*
X122162864Y-109807873D01*
X122170000Y-109843750D01*
X122170000Y-110056250D01*
X122162864Y-110092127D01*
X122142541Y-110122541D01*
X122112127Y-110142864D01*
X122076250Y-110150000D01*
X121888750Y-110150000D01*
X121852873Y-110142864D01*
X121822459Y-110122541D01*
X121802136Y-110092127D01*
X121795000Y-110056250D01*
X121795000Y-109843750D01*
X121802136Y-109807873D01*
X121822459Y-109777459D01*
X121852873Y-109757136D01*
X121888750Y-109750000D01*
X122076250Y-109750000D01*
X122112127Y-109757136D01*
G37*
G36*
X121595000Y-110100000D02*
G01*
X120595000Y-110100000D01*
X120595000Y-108500000D01*
X121595000Y-108500000D01*
X121595000Y-110100000D01*
G37*
G36*
X123636662Y-109550276D02*
G01*
X123680459Y-109579541D01*
X123709724Y-109623338D01*
X123720000Y-109675000D01*
X123720000Y-109945000D01*
X123709724Y-109996662D01*
X123680459Y-110040459D01*
X123636662Y-110069724D01*
X123585000Y-110080000D01*
X123215000Y-110080000D01*
X123163338Y-110069724D01*
X123119541Y-110040459D01*
X123090276Y-109996662D01*
X123080000Y-109945000D01*
X123080000Y-109675000D01*
X123090276Y-109623338D01*
X123119541Y-109579541D01*
X123163338Y-109550276D01*
X123215000Y-109540000D01*
X123585000Y-109540000D01*
X123636662Y-109550276D01*
G37*
G36*
X119400662Y-109466276D02*
G01*
X119444459Y-109495541D01*
X119473724Y-109539338D01*
X119484000Y-109591000D01*
X119484000Y-109861000D01*
X119473724Y-109912662D01*
X119444459Y-109956459D01*
X119400662Y-109985724D01*
X119349000Y-109996000D01*
X118979000Y-109996000D01*
X118927338Y-109985724D01*
X118883541Y-109956459D01*
X118854276Y-109912662D01*
X118844000Y-109861000D01*
X118844000Y-109591000D01*
X118854276Y-109539338D01*
X118883541Y-109495541D01*
X118927338Y-109466276D01*
X118979000Y-109456000D01*
X119349000Y-109456000D01*
X119400662Y-109466276D01*
G37*
G36*
X113370662Y-109348276D02*
G01*
X113414459Y-109377541D01*
X113443724Y-109421338D01*
X113454000Y-109473000D01*
X113454000Y-109843000D01*
X113443724Y-109894662D01*
X113414459Y-109938459D01*
X113370662Y-109967724D01*
X113319000Y-109978000D01*
X113049000Y-109978000D01*
X112997338Y-109967724D01*
X112953541Y-109938459D01*
X112924276Y-109894662D01*
X112914000Y-109843000D01*
X112914000Y-109473000D01*
X112924276Y-109421338D01*
X112953541Y-109377541D01*
X112997338Y-109348276D01*
X113049000Y-109338000D01*
X113319000Y-109338000D01*
X113370662Y-109348276D01*
G37*
G36*
X114390662Y-109348276D02*
G01*
X114434459Y-109377541D01*
X114463724Y-109421338D01*
X114474000Y-109473000D01*
X114474000Y-109843000D01*
X114463724Y-109894662D01*
X114434459Y-109938459D01*
X114390662Y-109967724D01*
X114339000Y-109978000D01*
X114069000Y-109978000D01*
X114017338Y-109967724D01*
X113973541Y-109938459D01*
X113944276Y-109894662D01*
X113934000Y-109843000D01*
X113934000Y-109473000D01*
X113944276Y-109421338D01*
X113973541Y-109377541D01*
X114017338Y-109348276D01*
X114069000Y-109338000D01*
X114339000Y-109338000D01*
X114390662Y-109348276D01*
G37*
G36*
X102916742Y-108126601D02*
G01*
X103070687Y-108190367D01*
X103209234Y-108282941D01*
X103327059Y-108400766D01*
X103419633Y-108539313D01*
X103483399Y-108693258D01*
X103515907Y-108856685D01*
X103515907Y-109023315D01*
X103483399Y-109186742D01*
X103419633Y-109340687D01*
X103327059Y-109479234D01*
X103209234Y-109597059D01*
X103070687Y-109689633D01*
X102916742Y-109753399D01*
X102753315Y-109785907D01*
X102586685Y-109785907D01*
X102423258Y-109753399D01*
X102269313Y-109689633D01*
X102130766Y-109597059D01*
X102012941Y-109479234D01*
X101920367Y-109340687D01*
X101856601Y-109186742D01*
X101824093Y-109023315D01*
X101824093Y-108856685D01*
X101856601Y-108693258D01*
X101920367Y-108539313D01*
X102012941Y-108400766D01*
X102130766Y-108282941D01*
X102269313Y-108190367D01*
X102423258Y-108126601D01*
X102586685Y-108094093D01*
X102753315Y-108094093D01*
X102916742Y-108126601D01*
G37*
G36*
X105456742Y-108126601D02*
G01*
X105610687Y-108190367D01*
X105749234Y-108282941D01*
X105867059Y-108400766D01*
X105959633Y-108539313D01*
X106023399Y-108693258D01*
X106055907Y-108856685D01*
X106055907Y-109023315D01*
X106023399Y-109186742D01*
X105959633Y-109340687D01*
X105867059Y-109479234D01*
X105749234Y-109597059D01*
X105610687Y-109689633D01*
X105456742Y-109753399D01*
X105293315Y-109785907D01*
X105126685Y-109785907D01*
X104963258Y-109753399D01*
X104809313Y-109689633D01*
X104670766Y-109597059D01*
X104552941Y-109479234D01*
X104460367Y-109340687D01*
X104396601Y-109186742D01*
X104364093Y-109023315D01*
X104364093Y-108856685D01*
X104396601Y-108693258D01*
X104460367Y-108539313D01*
X104552941Y-108400766D01*
X104670766Y-108282941D01*
X104809313Y-108190367D01*
X104963258Y-108126601D01*
X105126685Y-108094093D01*
X105293315Y-108094093D01*
X105456742Y-108126601D01*
G37*
G36*
X129026742Y-108126601D02*
G01*
X129180687Y-108190367D01*
X129319234Y-108282941D01*
X129437059Y-108400766D01*
X129529633Y-108539313D01*
X129593399Y-108693258D01*
X129625907Y-108856685D01*
X129625907Y-109023315D01*
X129593399Y-109186742D01*
X129529633Y-109340687D01*
X129437059Y-109479234D01*
X129319234Y-109597059D01*
X129180687Y-109689633D01*
X129026742Y-109753399D01*
X128863315Y-109785907D01*
X128696685Y-109785907D01*
X128533258Y-109753399D01*
X128379313Y-109689633D01*
X128240766Y-109597059D01*
X128122941Y-109479234D01*
X128030367Y-109340687D01*
X127966601Y-109186742D01*
X127934093Y-109023315D01*
X127934093Y-108856685D01*
X127966601Y-108693258D01*
X128030367Y-108539313D01*
X128122941Y-108400766D01*
X128240766Y-108282941D01*
X128379313Y-108190367D01*
X128533258Y-108126601D01*
X128696685Y-108094093D01*
X128863315Y-108094093D01*
X129026742Y-108126601D01*
G37*
G36*
X131566742Y-108126601D02*
G01*
X131720687Y-108190367D01*
X131859234Y-108282941D01*
X131977059Y-108400766D01*
X132069633Y-108539313D01*
X132133399Y-108693258D01*
X132165907Y-108856685D01*
X132165907Y-109023315D01*
X132133399Y-109186742D01*
X132069633Y-109340687D01*
X131977059Y-109479234D01*
X131859234Y-109597059D01*
X131720687Y-109689633D01*
X131566742Y-109753399D01*
X131403315Y-109785907D01*
X131236685Y-109785907D01*
X131073258Y-109753399D01*
X130919313Y-109689633D01*
X130780766Y-109597059D01*
X130662941Y-109479234D01*
X130570367Y-109340687D01*
X130506601Y-109186742D01*
X130474093Y-109023315D01*
X130474093Y-108856685D01*
X130506601Y-108693258D01*
X130570367Y-108539313D01*
X130662941Y-108400766D01*
X130780766Y-108282941D01*
X130919313Y-108190367D01*
X131073258Y-108126601D01*
X131236685Y-108094093D01*
X131403315Y-108094093D01*
X131566742Y-108126601D01*
G37*
G36*
X118329576Y-109157657D02*
G01*
X118374995Y-109188005D01*
X118405343Y-109233424D01*
X118416000Y-109287000D01*
X118416000Y-109567000D01*
X118405343Y-109620576D01*
X118374995Y-109665995D01*
X118329576Y-109696343D01*
X118276000Y-109707000D01*
X117936000Y-109707000D01*
X117882424Y-109696343D01*
X117837005Y-109665995D01*
X117806657Y-109620576D01*
X117796000Y-109567000D01*
X117796000Y-109287000D01*
X117806657Y-109233424D01*
X117837005Y-109188005D01*
X117882424Y-109157657D01*
X117936000Y-109147000D01*
X118276000Y-109147000D01*
X118329576Y-109157657D01*
G37*
G36*
X120337127Y-109107136D02*
G01*
X120367541Y-109127459D01*
X120387864Y-109157873D01*
X120395000Y-109193750D01*
X120395000Y-109406250D01*
X120387864Y-109442127D01*
X120367541Y-109472541D01*
X120337127Y-109492864D01*
X120301250Y-109500000D01*
X120113750Y-109500000D01*
X120077873Y-109492864D01*
X120047459Y-109472541D01*
X120027136Y-109442127D01*
X120020000Y-109406250D01*
X120020000Y-109193750D01*
X120027136Y-109157873D01*
X120047459Y-109127459D01*
X120077873Y-109107136D01*
X120113750Y-109100000D01*
X120301250Y-109100000D01*
X120337127Y-109107136D01*
G37*
G36*
X122112127Y-109107136D02*
G01*
X122142541Y-109127459D01*
X122162864Y-109157873D01*
X122170000Y-109193750D01*
X122170000Y-109406250D01*
X122162864Y-109442127D01*
X122142541Y-109472541D01*
X122112127Y-109492864D01*
X122076250Y-109500000D01*
X121888750Y-109500000D01*
X121852873Y-109492864D01*
X121822459Y-109472541D01*
X121802136Y-109442127D01*
X121795000Y-109406250D01*
X121795000Y-109193750D01*
X121802136Y-109157873D01*
X121822459Y-109127459D01*
X121852873Y-109107136D01*
X121888750Y-109100000D01*
X122076250Y-109100000D01*
X122112127Y-109107136D01*
G37*
G36*
X123636662Y-108530276D02*
G01*
X123680459Y-108559541D01*
X123709724Y-108603338D01*
X123720000Y-108655000D01*
X123720000Y-108925000D01*
X123709724Y-108976662D01*
X123680459Y-109020459D01*
X123636662Y-109049724D01*
X123585000Y-109060000D01*
X123215000Y-109060000D01*
X123163338Y-109049724D01*
X123119541Y-109020459D01*
X123090276Y-108976662D01*
X123080000Y-108925000D01*
X123080000Y-108655000D01*
X123090276Y-108603338D01*
X123119541Y-108559541D01*
X123163338Y-108530276D01*
X123215000Y-108520000D01*
X123585000Y-108520000D01*
X123636662Y-108530276D01*
G37*
G36*
X119400662Y-108446276D02*
G01*
X119444459Y-108475541D01*
X119473724Y-108519338D01*
X119484000Y-108571000D01*
X119484000Y-108841000D01*
X119473724Y-108892662D01*
X119444459Y-108936459D01*
X119400662Y-108965724D01*
X119349000Y-108976000D01*
X118979000Y-108976000D01*
X118927338Y-108965724D01*
X118883541Y-108936459D01*
X118854276Y-108892662D01*
X118844000Y-108841000D01*
X118844000Y-108571000D01*
X118854276Y-108519338D01*
X118883541Y-108475541D01*
X118927338Y-108446276D01*
X118979000Y-108436000D01*
X119349000Y-108436000D01*
X119400662Y-108446276D01*
G37*
G36*
X113487662Y-108291276D02*
G01*
X113531459Y-108320541D01*
X113560724Y-108364338D01*
X113571000Y-108416000D01*
X113571000Y-108786000D01*
X113560724Y-108837662D01*
X113531459Y-108881459D01*
X113487662Y-108910724D01*
X113436000Y-108921000D01*
X113166000Y-108921000D01*
X113114338Y-108910724D01*
X113070541Y-108881459D01*
X113041276Y-108837662D01*
X113031000Y-108786000D01*
X113031000Y-108416000D01*
X113041276Y-108364338D01*
X113070541Y-108320541D01*
X113114338Y-108291276D01*
X113166000Y-108281000D01*
X113436000Y-108281000D01*
X113487662Y-108291276D01*
G37*
G36*
X114507662Y-108291276D02*
G01*
X114551459Y-108320541D01*
X114580724Y-108364338D01*
X114591000Y-108416000D01*
X114591000Y-108786000D01*
X114580724Y-108837662D01*
X114551459Y-108881459D01*
X114507662Y-108910724D01*
X114456000Y-108921000D01*
X114186000Y-108921000D01*
X114134338Y-108910724D01*
X114090541Y-108881459D01*
X114061276Y-108837662D01*
X114051000Y-108786000D01*
X114051000Y-108416000D01*
X114061276Y-108364338D01*
X114090541Y-108320541D01*
X114134338Y-108291276D01*
X114186000Y-108281000D01*
X114456000Y-108281000D01*
X114507662Y-108291276D01*
G37*
G36*
X120337127Y-108457136D02*
G01*
X120367541Y-108477459D01*
X120387864Y-108507873D01*
X120395000Y-108543750D01*
X120395000Y-108756250D01*
X120387864Y-108792127D01*
X120367541Y-108822541D01*
X120337127Y-108842864D01*
X120301250Y-108850000D01*
X120113750Y-108850000D01*
X120077873Y-108842864D01*
X120047459Y-108822541D01*
X120027136Y-108792127D01*
X120020000Y-108756250D01*
X120020000Y-108543750D01*
X120027136Y-108507873D01*
X120047459Y-108477459D01*
X120077873Y-108457136D01*
X120113750Y-108450000D01*
X120301250Y-108450000D01*
X120337127Y-108457136D01*
G37*
G36*
X122112127Y-108457136D02*
G01*
X122142541Y-108477459D01*
X122162864Y-108507873D01*
X122170000Y-108543750D01*
X122170000Y-108756250D01*
X122162864Y-108792127D01*
X122142541Y-108822541D01*
X122112127Y-108842864D01*
X122076250Y-108850000D01*
X121888750Y-108850000D01*
X121852873Y-108842864D01*
X121822459Y-108822541D01*
X121802136Y-108792127D01*
X121795000Y-108756250D01*
X121795000Y-108543750D01*
X121802136Y-108507873D01*
X121822459Y-108477459D01*
X121852873Y-108457136D01*
X121888750Y-108450000D01*
X122076250Y-108450000D01*
X122112127Y-108457136D01*
G37*
G36*
X111048946Y-108217228D02*
G01*
X111096798Y-108249202D01*
X111128772Y-108297054D01*
X111140000Y-108353500D01*
X111140000Y-108698500D01*
X111128772Y-108754946D01*
X111096798Y-108802798D01*
X111048946Y-108834772D01*
X110992500Y-108846000D01*
X110697500Y-108846000D01*
X110641054Y-108834772D01*
X110593202Y-108802798D01*
X110561228Y-108754946D01*
X110550000Y-108698500D01*
X110550000Y-108353500D01*
X110561228Y-108297054D01*
X110593202Y-108249202D01*
X110641054Y-108217228D01*
X110697500Y-108206000D01*
X110992500Y-108206000D01*
X111048946Y-108217228D01*
G37*
G36*
X112018946Y-108217228D02*
G01*
X112066798Y-108249202D01*
X112098772Y-108297054D01*
X112110000Y-108353500D01*
X112110000Y-108698500D01*
X112098772Y-108754946D01*
X112066798Y-108802798D01*
X112018946Y-108834772D01*
X111962500Y-108846000D01*
X111667500Y-108846000D01*
X111611054Y-108834772D01*
X111563202Y-108802798D01*
X111531228Y-108754946D01*
X111520000Y-108698500D01*
X111520000Y-108353500D01*
X111531228Y-108297054D01*
X111563202Y-108249202D01*
X111611054Y-108217228D01*
X111667500Y-108206000D01*
X111962500Y-108206000D01*
X112018946Y-108217228D01*
G37*
G36*
X115987127Y-108177136D02*
G01*
X116017541Y-108197459D01*
X116037864Y-108227873D01*
X116045000Y-108263750D01*
X116045000Y-108576250D01*
X116037864Y-108612127D01*
X116017541Y-108642541D01*
X115987127Y-108662864D01*
X115951250Y-108670000D01*
X115763750Y-108670000D01*
X115727873Y-108662864D01*
X115697459Y-108642541D01*
X115677136Y-108612127D01*
X115670000Y-108576250D01*
X115670000Y-108263750D01*
X115677136Y-108227873D01*
X115697459Y-108197459D01*
X115727873Y-108177136D01*
X115763750Y-108170000D01*
X115951250Y-108170000D01*
X115987127Y-108177136D01*
G37*
G36*
X116498701Y-108025709D02*
G01*
X116523033Y-108041967D01*
X116539291Y-108066299D01*
X116545000Y-108095000D01*
X116545000Y-108595000D01*
X116539291Y-108623701D01*
X116523033Y-108648033D01*
X116498701Y-108664291D01*
X116470000Y-108670000D01*
X116320000Y-108670000D01*
X116291299Y-108664291D01*
X116266967Y-108648033D01*
X116250709Y-108623701D01*
X116245000Y-108595000D01*
X116245000Y-108095000D01*
X116250709Y-108066299D01*
X116266967Y-108041967D01*
X116291299Y-108025709D01*
X116320000Y-108020000D01*
X116470000Y-108020000D01*
X116498701Y-108025709D01*
G37*
G36*
X117062127Y-108177136D02*
G01*
X117092541Y-108197459D01*
X117112864Y-108227873D01*
X117120000Y-108263750D01*
X117120000Y-108576250D01*
X117112864Y-108612127D01*
X117092541Y-108642541D01*
X117062127Y-108662864D01*
X117026250Y-108670000D01*
X116838750Y-108670000D01*
X116802873Y-108662864D01*
X116772459Y-108642541D01*
X116752136Y-108612127D01*
X116745000Y-108576250D01*
X116745000Y-108263750D01*
X116752136Y-108227873D01*
X116772459Y-108197459D01*
X116802873Y-108177136D01*
X116838750Y-108170000D01*
X117026250Y-108170000D01*
X117062127Y-108177136D01*
G37*
G36*
X102916742Y-105586601D02*
G01*
X103070687Y-105650367D01*
X103209234Y-105742941D01*
X103327059Y-105860766D01*
X103419633Y-105999313D01*
X103483399Y-106153258D01*
X103515907Y-106316685D01*
X103515907Y-106483315D01*
X103483399Y-106646742D01*
X103419633Y-106800687D01*
X103327059Y-106939234D01*
X103209234Y-107057059D01*
X103070687Y-107149633D01*
X102916742Y-107213399D01*
X102753315Y-107245907D01*
X102586685Y-107245907D01*
X102423258Y-107213399D01*
X102269313Y-107149633D01*
X102130766Y-107057059D01*
X102012941Y-106939234D01*
X101920367Y-106800687D01*
X101856601Y-106646742D01*
X101824093Y-106483315D01*
X101824093Y-106316685D01*
X101856601Y-106153258D01*
X101920367Y-105999313D01*
X102012941Y-105860766D01*
X102130766Y-105742941D01*
X102269313Y-105650367D01*
X102423258Y-105586601D01*
X102586685Y-105554093D01*
X102753315Y-105554093D01*
X102916742Y-105586601D01*
G37*
G36*
X105456742Y-105586601D02*
G01*
X105610687Y-105650367D01*
X105749234Y-105742941D01*
X105867059Y-105860766D01*
X105959633Y-105999313D01*
X106023399Y-106153258D01*
X106055907Y-106316685D01*
X106055907Y-106483315D01*
X106023399Y-106646742D01*
X105959633Y-106800687D01*
X105867059Y-106939234D01*
X105749234Y-107057059D01*
X105610687Y-107149633D01*
X105456742Y-107213399D01*
X105293315Y-107245907D01*
X105126685Y-107245907D01*
X104963258Y-107213399D01*
X104809313Y-107149633D01*
X104670766Y-107057059D01*
X104552941Y-106939234D01*
X104460367Y-106800687D01*
X104396601Y-106646742D01*
X104364093Y-106483315D01*
X104364093Y-106316685D01*
X104396601Y-106153258D01*
X104460367Y-105999313D01*
X104552941Y-105860766D01*
X104670766Y-105742941D01*
X104809313Y-105650367D01*
X104963258Y-105586601D01*
X105126685Y-105554093D01*
X105293315Y-105554093D01*
X105456742Y-105586601D01*
G37*
G36*
X129026742Y-105586601D02*
G01*
X129180687Y-105650367D01*
X129319234Y-105742941D01*
X129437059Y-105860766D01*
X129529633Y-105999313D01*
X129593399Y-106153258D01*
X129625907Y-106316685D01*
X129625907Y-106483315D01*
X129593399Y-106646742D01*
X129529633Y-106800687D01*
X129437059Y-106939234D01*
X129319234Y-107057059D01*
X129180687Y-107149633D01*
X129026742Y-107213399D01*
X128863315Y-107245907D01*
X128696685Y-107245907D01*
X128533258Y-107213399D01*
X128379313Y-107149633D01*
X128240766Y-107057059D01*
X128122941Y-106939234D01*
X128030367Y-106800687D01*
X127966601Y-106646742D01*
X127934093Y-106483315D01*
X127934093Y-106316685D01*
X127966601Y-106153258D01*
X128030367Y-105999313D01*
X128122941Y-105860766D01*
X128240766Y-105742941D01*
X128379313Y-105650367D01*
X128533258Y-105586601D01*
X128696685Y-105554093D01*
X128863315Y-105554093D01*
X129026742Y-105586601D01*
G37*
G36*
X131566742Y-105586601D02*
G01*
X131720687Y-105650367D01*
X131859234Y-105742941D01*
X131977059Y-105860766D01*
X132069633Y-105999313D01*
X132133399Y-106153258D01*
X132165907Y-106316685D01*
X132165907Y-106483315D01*
X132133399Y-106646742D01*
X132069633Y-106800687D01*
X131977059Y-106939234D01*
X131859234Y-107057059D01*
X131720687Y-107149633D01*
X131566742Y-107213399D01*
X131403315Y-107245907D01*
X131236685Y-107245907D01*
X131073258Y-107213399D01*
X130919313Y-107149633D01*
X130780766Y-107057059D01*
X130662941Y-106939234D01*
X130570367Y-106800687D01*
X130506601Y-106646742D01*
X130474093Y-106483315D01*
X130474093Y-106316685D01*
X130506601Y-106153258D01*
X130570367Y-105999313D01*
X130662941Y-105860766D01*
X130780766Y-105742941D01*
X130919313Y-105650367D01*
X131073258Y-105586601D01*
X131236685Y-105554093D01*
X131403315Y-105554093D01*
X131566742Y-105586601D01*
G37*
G36*
X109416104Y-106292127D02*
G01*
X109489099Y-106340901D01*
X109537873Y-106413896D01*
X109555000Y-106500000D01*
X109555000Y-107000000D01*
X109537873Y-107086104D01*
X109489099Y-107159099D01*
X109416104Y-107207873D01*
X109330000Y-107225000D01*
X108880000Y-107225000D01*
X108793896Y-107207873D01*
X108720901Y-107159099D01*
X108672127Y-107086104D01*
X108655000Y-107000000D01*
X108655000Y-106500000D01*
X108672127Y-106413896D01*
X108720901Y-106340901D01*
X108793896Y-106292127D01*
X108880000Y-106275000D01*
X109330000Y-106275000D01*
X109416104Y-106292127D01*
G37*
G36*
X110966104Y-106292127D02*
G01*
X111039099Y-106340901D01*
X111087873Y-106413896D01*
X111105000Y-106500000D01*
X111105000Y-107000000D01*
X111087873Y-107086104D01*
X111039099Y-107159099D01*
X110966104Y-107207873D01*
X110880000Y-107225000D01*
X110430000Y-107225000D01*
X110343896Y-107207873D01*
X110270901Y-107159099D01*
X110222127Y-107086104D01*
X110205000Y-107000000D01*
X110205000Y-106500000D01*
X110222127Y-106413896D01*
X110270901Y-106340901D01*
X110343896Y-106292127D01*
X110430000Y-106275000D01*
X110880000Y-106275000D01*
X110966104Y-106292127D01*
G37*
G36*
X122713576Y-106550657D02*
G01*
X122758995Y-106581005D01*
X122789343Y-106626424D01*
X122800000Y-106680000D01*
X122800000Y-107020000D01*
X122789343Y-107073576D01*
X122758995Y-107118995D01*
X122713576Y-107149343D01*
X122660000Y-107160000D01*
X122380000Y-107160000D01*
X122326424Y-107149343D01*
X122281005Y-107118995D01*
X122250657Y-107073576D01*
X122240000Y-107020000D01*
X122240000Y-106680000D01*
X122250657Y-106626424D01*
X122281005Y-106581005D01*
X122326424Y-106550657D01*
X122380000Y-106540000D01*
X122660000Y-106540000D01*
X122713576Y-106550657D01*
G37*
G36*
X123673576Y-106550657D02*
G01*
X123718995Y-106581005D01*
X123749343Y-106626424D01*
X123760000Y-106680000D01*
X123760000Y-107020000D01*
X123749343Y-107073576D01*
X123718995Y-107118995D01*
X123673576Y-107149343D01*
X123620000Y-107160000D01*
X123340000Y-107160000D01*
X123286424Y-107149343D01*
X123241005Y-107118995D01*
X123210657Y-107073576D01*
X123200000Y-107020000D01*
X123200000Y-106680000D01*
X123210657Y-106626424D01*
X123241005Y-106581005D01*
X123286424Y-106550657D01*
X123340000Y-106540000D01*
X123620000Y-106540000D01*
X123673576Y-106550657D01*
G37*
G36*
X124763576Y-106550657D02*
G01*
X124808995Y-106581005D01*
X124839343Y-106626424D01*
X124850000Y-106680000D01*
X124850000Y-107020000D01*
X124839343Y-107073576D01*
X124808995Y-107118995D01*
X124763576Y-107149343D01*
X124710000Y-107160000D01*
X124430000Y-107160000D01*
X124376424Y-107149343D01*
X124331005Y-107118995D01*
X124300657Y-107073576D01*
X124290000Y-107020000D01*
X124290000Y-106680000D01*
X124300657Y-106626424D01*
X124331005Y-106581005D01*
X124376424Y-106550657D01*
X124430000Y-106540000D01*
X124710000Y-106540000D01*
X124763576Y-106550657D01*
G37*
G36*
X125723576Y-106550657D02*
G01*
X125768995Y-106581005D01*
X125799343Y-106626424D01*
X125810000Y-106680000D01*
X125810000Y-107020000D01*
X125799343Y-107073576D01*
X125768995Y-107118995D01*
X125723576Y-107149343D01*
X125670000Y-107160000D01*
X125390000Y-107160000D01*
X125336424Y-107149343D01*
X125291005Y-107118995D01*
X125260657Y-107073576D01*
X125250000Y-107020000D01*
X125250000Y-106680000D01*
X125260657Y-106626424D01*
X125291005Y-106581005D01*
X125336424Y-106550657D01*
X125390000Y-106540000D01*
X125670000Y-106540000D01*
X125723576Y-106550657D01*
G37*
G36*
X114157766Y-106292403D02*
G01*
X114239154Y-106339393D01*
X114305607Y-106405846D01*
X114352597Y-106487234D01*
X114376920Y-106578011D01*
X114376920Y-106671989D01*
X114352597Y-106762766D01*
X114305607Y-106844154D01*
X114239154Y-106910607D01*
X114157766Y-106957597D01*
X114066989Y-106981920D01*
X113973011Y-106981920D01*
X113882234Y-106957597D01*
X113800846Y-106910607D01*
X113734393Y-106844154D01*
X113687403Y-106762766D01*
X113663080Y-106671989D01*
X113663080Y-106578011D01*
X113687403Y-106487234D01*
X113734393Y-106405846D01*
X113800846Y-106339393D01*
X113882234Y-106292403D01*
X113973011Y-106268080D01*
X114066989Y-106268080D01*
X114157766Y-106292403D01*
G37*
G36*
X115007766Y-106292403D02*
G01*
X115089154Y-106339393D01*
X115155607Y-106405846D01*
X115202597Y-106487234D01*
X115226920Y-106578011D01*
X115226920Y-106671989D01*
X115202597Y-106762766D01*
X115155607Y-106844154D01*
X115089154Y-106910607D01*
X115007766Y-106957597D01*
X114916989Y-106981920D01*
X114823011Y-106981920D01*
X114732234Y-106957597D01*
X114650846Y-106910607D01*
X114584393Y-106844154D01*
X114537403Y-106762766D01*
X114513080Y-106671989D01*
X114513080Y-106578011D01*
X114537403Y-106487234D01*
X114584393Y-106405846D01*
X114650846Y-106339393D01*
X114732234Y-106292403D01*
X114823011Y-106268080D01*
X114916989Y-106268080D01*
X115007766Y-106292403D01*
G37*
G36*
X115857766Y-106292403D02*
G01*
X115939154Y-106339393D01*
X116005607Y-106405846D01*
X116052597Y-106487234D01*
X116076920Y-106578011D01*
X116076920Y-106671989D01*
X116052597Y-106762766D01*
X116005607Y-106844154D01*
X115939154Y-106910607D01*
X115857766Y-106957597D01*
X115766989Y-106981920D01*
X115673011Y-106981920D01*
X115582234Y-106957597D01*
X115500846Y-106910607D01*
X115434393Y-106844154D01*
X115387403Y-106762766D01*
X115363080Y-106671989D01*
X115363080Y-106578011D01*
X115387403Y-106487234D01*
X115434393Y-106405846D01*
X115500846Y-106339393D01*
X115582234Y-106292403D01*
X115673011Y-106268080D01*
X115766989Y-106268080D01*
X115857766Y-106292403D01*
G37*
G36*
X116707766Y-106292403D02*
G01*
X116789154Y-106339393D01*
X116855607Y-106405846D01*
X116902597Y-106487234D01*
X116926920Y-106578011D01*
X116926920Y-106671989D01*
X116902597Y-106762766D01*
X116855607Y-106844154D01*
X116789154Y-106910607D01*
X116707766Y-106957597D01*
X116616989Y-106981920D01*
X116523011Y-106981920D01*
X116432234Y-106957597D01*
X116350846Y-106910607D01*
X116284393Y-106844154D01*
X116237403Y-106762766D01*
X116213080Y-106671989D01*
X116213080Y-106578011D01*
X116237403Y-106487234D01*
X116284393Y-106405846D01*
X116350846Y-106339393D01*
X116432234Y-106292403D01*
X116523011Y-106268080D01*
X116616989Y-106268080D01*
X116707766Y-106292403D01*
G37*
G36*
X117557766Y-106292403D02*
G01*
X117639154Y-106339393D01*
X117705607Y-106405846D01*
X117752597Y-106487234D01*
X117776920Y-106578011D01*
X117776920Y-106671989D01*
X117752597Y-106762766D01*
X117705607Y-106844154D01*
X117639154Y-106910607D01*
X117557766Y-106957597D01*
X117466989Y-106981920D01*
X117373011Y-106981920D01*
X117282234Y-106957597D01*
X117200846Y-106910607D01*
X117134393Y-106844154D01*
X117087403Y-106762766D01*
X117063080Y-106671989D01*
X117063080Y-106578011D01*
X117087403Y-106487234D01*
X117134393Y-106405846D01*
X117200846Y-106339393D01*
X117282234Y-106292403D01*
X117373011Y-106268080D01*
X117466989Y-106268080D01*
X117557766Y-106292403D01*
G37*
G36*
X118407766Y-106292403D02*
G01*
X118489154Y-106339393D01*
X118555607Y-106405846D01*
X118602597Y-106487234D01*
X118626920Y-106578011D01*
X118626920Y-106671989D01*
X118602597Y-106762766D01*
X118555607Y-106844154D01*
X118489154Y-106910607D01*
X118407766Y-106957597D01*
X118316989Y-106981920D01*
X118223011Y-106981920D01*
X118132234Y-106957597D01*
X118050846Y-106910607D01*
X117984393Y-106844154D01*
X117937403Y-106762766D01*
X117913080Y-106671989D01*
X117913080Y-106578011D01*
X117937403Y-106487234D01*
X117984393Y-106405846D01*
X118050846Y-106339393D01*
X118132234Y-106292403D01*
X118223011Y-106268080D01*
X118316989Y-106268080D01*
X118407766Y-106292403D01*
G37*
G36*
X119257766Y-106292403D02*
G01*
X119339154Y-106339393D01*
X119405607Y-106405846D01*
X119452597Y-106487234D01*
X119476920Y-106578011D01*
X119476920Y-106671989D01*
X119452597Y-106762766D01*
X119405607Y-106844154D01*
X119339154Y-106910607D01*
X119257766Y-106957597D01*
X119166989Y-106981920D01*
X119073011Y-106981920D01*
X118982234Y-106957597D01*
X118900846Y-106910607D01*
X118834393Y-106844154D01*
X118787403Y-106762766D01*
X118763080Y-106671989D01*
X118763080Y-106578011D01*
X118787403Y-106487234D01*
X118834393Y-106405846D01*
X118900846Y-106339393D01*
X118982234Y-106292403D01*
X119073011Y-106268080D01*
X119166989Y-106268080D01*
X119257766Y-106292403D01*
G37*
G36*
X120107766Y-106292403D02*
G01*
X120189154Y-106339393D01*
X120255607Y-106405846D01*
X120302597Y-106487234D01*
X120326920Y-106578011D01*
X120326920Y-106671989D01*
X120302597Y-106762766D01*
X120255607Y-106844154D01*
X120189154Y-106910607D01*
X120107766Y-106957597D01*
X120016989Y-106981920D01*
X119923011Y-106981920D01*
X119832234Y-106957597D01*
X119750846Y-106910607D01*
X119684393Y-106844154D01*
X119637403Y-106762766D01*
X119613080Y-106671989D01*
X119613080Y-106578011D01*
X119637403Y-106487234D01*
X119684393Y-106405846D01*
X119750846Y-106339393D01*
X119832234Y-106292403D01*
X119923011Y-106268080D01*
X120016989Y-106268080D01*
X120107766Y-106292403D01*
G37*
G36*
X112853688Y-104451538D02*
G01*
X112962205Y-104514190D01*
X113050810Y-104602795D01*
X113113462Y-104711312D01*
X113145894Y-104832347D01*
X113150000Y-104895000D01*
X113150000Y-106395000D01*
X113145894Y-106457653D01*
X113113462Y-106578688D01*
X113050810Y-106687205D01*
X112962205Y-106775810D01*
X112853688Y-106838462D01*
X112732653Y-106870894D01*
X112607347Y-106870894D01*
X112486312Y-106838462D01*
X112377795Y-106775810D01*
X112289190Y-106687205D01*
X112226538Y-106578688D01*
X112194106Y-106457653D01*
X112190000Y-106395000D01*
X112190000Y-104895000D01*
X112194106Y-104832347D01*
X112226538Y-104711312D01*
X112289190Y-104602795D01*
X112377795Y-104514190D01*
X112486312Y-104451538D01*
X112607347Y-104419106D01*
X112732653Y-104419106D01*
X112853688Y-104451538D01*
G37*
G36*
X121503688Y-104451538D02*
G01*
X121612205Y-104514190D01*
X121700810Y-104602795D01*
X121763462Y-104711312D01*
X121795894Y-104832347D01*
X121800000Y-104895000D01*
X121800000Y-106395000D01*
X121795894Y-106457653D01*
X121763462Y-106578688D01*
X121700810Y-106687205D01*
X121612205Y-106775810D01*
X121503688Y-106838462D01*
X121382653Y-106870894D01*
X121257347Y-106870894D01*
X121136312Y-106838462D01*
X121027795Y-106775810D01*
X120939190Y-106687205D01*
X120876538Y-106578688D01*
X120844106Y-106457653D01*
X120840000Y-106395000D01*
X120840000Y-104895000D01*
X120844106Y-104832347D01*
X120876538Y-104711312D01*
X120939190Y-104602795D01*
X121027795Y-104514190D01*
X121136312Y-104451538D01*
X121257347Y-104419106D01*
X121382653Y-104419106D01*
X121503688Y-104451538D01*
G37*
G36*
X114157766Y-104942403D02*
G01*
X114239154Y-104989393D01*
X114305607Y-105055846D01*
X114352597Y-105137234D01*
X114376920Y-105228011D01*
X114376920Y-105321989D01*
X114352597Y-105412766D01*
X114305607Y-105494154D01*
X114239154Y-105560607D01*
X114157766Y-105607597D01*
X114066989Y-105631920D01*
X113973011Y-105631920D01*
X113882234Y-105607597D01*
X113800846Y-105560607D01*
X113734393Y-105494154D01*
X113687403Y-105412766D01*
X113663080Y-105321989D01*
X113663080Y-105228011D01*
X113687403Y-105137234D01*
X113734393Y-105055846D01*
X113800846Y-104989393D01*
X113882234Y-104942403D01*
X113973011Y-104918080D01*
X114066989Y-104918080D01*
X114157766Y-104942403D01*
G37*
G36*
X115007766Y-104942403D02*
G01*
X115089154Y-104989393D01*
X115155607Y-105055846D01*
X115202597Y-105137234D01*
X115226920Y-105228011D01*
X115226920Y-105321989D01*
X115202597Y-105412766D01*
X115155607Y-105494154D01*
X115089154Y-105560607D01*
X115007766Y-105607597D01*
X114916989Y-105631920D01*
X114823011Y-105631920D01*
X114732234Y-105607597D01*
X114650846Y-105560607D01*
X114584393Y-105494154D01*
X114537403Y-105412766D01*
X114513080Y-105321989D01*
X114513080Y-105228011D01*
X114537403Y-105137234D01*
X114584393Y-105055846D01*
X114650846Y-104989393D01*
X114732234Y-104942403D01*
X114823011Y-104918080D01*
X114916989Y-104918080D01*
X115007766Y-104942403D01*
G37*
G36*
X115857766Y-104942403D02*
G01*
X115939154Y-104989393D01*
X116005607Y-105055846D01*
X116052597Y-105137234D01*
X116076920Y-105228011D01*
X116076920Y-105321989D01*
X116052597Y-105412766D01*
X116005607Y-105494154D01*
X115939154Y-105560607D01*
X115857766Y-105607597D01*
X115766989Y-105631920D01*
X115673011Y-105631920D01*
X115582234Y-105607597D01*
X115500846Y-105560607D01*
X115434393Y-105494154D01*
X115387403Y-105412766D01*
X115363080Y-105321989D01*
X115363080Y-105228011D01*
X115387403Y-105137234D01*
X115434393Y-105055846D01*
X115500846Y-104989393D01*
X115582234Y-104942403D01*
X115673011Y-104918080D01*
X115766989Y-104918080D01*
X115857766Y-104942403D01*
G37*
G36*
X116707766Y-104942403D02*
G01*
X116789154Y-104989393D01*
X116855607Y-105055846D01*
X116902597Y-105137234D01*
X116926920Y-105228011D01*
X116926920Y-105321989D01*
X116902597Y-105412766D01*
X116855607Y-105494154D01*
X116789154Y-105560607D01*
X116707766Y-105607597D01*
X116616989Y-105631920D01*
X116523011Y-105631920D01*
X116432234Y-105607597D01*
X116350846Y-105560607D01*
X116284393Y-105494154D01*
X116237403Y-105412766D01*
X116213080Y-105321989D01*
X116213080Y-105228011D01*
X116237403Y-105137234D01*
X116284393Y-105055846D01*
X116350846Y-104989393D01*
X116432234Y-104942403D01*
X116523011Y-104918080D01*
X116616989Y-104918080D01*
X116707766Y-104942403D01*
G37*
G36*
X117557766Y-104942403D02*
G01*
X117639154Y-104989393D01*
X117705607Y-105055846D01*
X117752597Y-105137234D01*
X117776920Y-105228011D01*
X117776920Y-105321989D01*
X117752597Y-105412766D01*
X117705607Y-105494154D01*
X117639154Y-105560607D01*
X117557766Y-105607597D01*
X117466989Y-105631920D01*
X117373011Y-105631920D01*
X117282234Y-105607597D01*
X117200846Y-105560607D01*
X117134393Y-105494154D01*
X117087403Y-105412766D01*
X117063080Y-105321989D01*
X117063080Y-105228011D01*
X117087403Y-105137234D01*
X117134393Y-105055846D01*
X117200846Y-104989393D01*
X117282234Y-104942403D01*
X117373011Y-104918080D01*
X117466989Y-104918080D01*
X117557766Y-104942403D01*
G37*
G36*
X118407766Y-104942403D02*
G01*
X118489154Y-104989393D01*
X118555607Y-105055846D01*
X118602597Y-105137234D01*
X118626920Y-105228011D01*
X118626920Y-105321989D01*
X118602597Y-105412766D01*
X118555607Y-105494154D01*
X118489154Y-105560607D01*
X118407766Y-105607597D01*
X118316989Y-105631920D01*
X118223011Y-105631920D01*
X118132234Y-105607597D01*
X118050846Y-105560607D01*
X117984393Y-105494154D01*
X117937403Y-105412766D01*
X117913080Y-105321989D01*
X117913080Y-105228011D01*
X117937403Y-105137234D01*
X117984393Y-105055846D01*
X118050846Y-104989393D01*
X118132234Y-104942403D01*
X118223011Y-104918080D01*
X118316989Y-104918080D01*
X118407766Y-104942403D01*
G37*
G36*
X119257766Y-104942403D02*
G01*
X119339154Y-104989393D01*
X119405607Y-105055846D01*
X119452597Y-105137234D01*
X119476920Y-105228011D01*
X119476920Y-105321989D01*
X119452597Y-105412766D01*
X119405607Y-105494154D01*
X119339154Y-105560607D01*
X119257766Y-105607597D01*
X119166989Y-105631920D01*
X119073011Y-105631920D01*
X118982234Y-105607597D01*
X118900846Y-105560607D01*
X118834393Y-105494154D01*
X118787403Y-105412766D01*
X118763080Y-105321989D01*
X118763080Y-105228011D01*
X118787403Y-105137234D01*
X118834393Y-105055846D01*
X118900846Y-104989393D01*
X118982234Y-104942403D01*
X119073011Y-104918080D01*
X119166989Y-104918080D01*
X119257766Y-104942403D01*
G37*
G36*
X120107766Y-104942403D02*
G01*
X120189154Y-104989393D01*
X120255607Y-105055846D01*
X120302597Y-105137234D01*
X120326920Y-105228011D01*
X120326920Y-105321989D01*
X120302597Y-105412766D01*
X120255607Y-105494154D01*
X120189154Y-105560607D01*
X120107766Y-105607597D01*
X120016989Y-105631920D01*
X119923011Y-105631920D01*
X119832234Y-105607597D01*
X119750846Y-105560607D01*
X119684393Y-105494154D01*
X119637403Y-105412766D01*
X119613080Y-105321989D01*
X119613080Y-105228011D01*
X119637403Y-105137234D01*
X119684393Y-105055846D01*
X119750846Y-104989393D01*
X119832234Y-104942403D01*
X119923011Y-104918080D01*
X120016989Y-104918080D01*
X120107766Y-104942403D01*
G37*
G36*
X110699662Y-104888276D02*
G01*
X110743459Y-104917541D01*
X110772724Y-104961338D01*
X110783000Y-105013000D01*
X110783000Y-105383000D01*
X110772724Y-105434662D01*
X110743459Y-105478459D01*
X110699662Y-105507724D01*
X110648000Y-105518000D01*
X110378000Y-105518000D01*
X110326338Y-105507724D01*
X110282541Y-105478459D01*
X110253276Y-105434662D01*
X110243000Y-105383000D01*
X110243000Y-105013000D01*
X110253276Y-104961338D01*
X110282541Y-104917541D01*
X110326338Y-104888276D01*
X110378000Y-104878000D01*
X110648000Y-104878000D01*
X110699662Y-104888276D01*
G37*
G36*
X111719662Y-104888276D02*
G01*
X111763459Y-104917541D01*
X111792724Y-104961338D01*
X111803000Y-105013000D01*
X111803000Y-105383000D01*
X111792724Y-105434662D01*
X111763459Y-105478459D01*
X111719662Y-105507724D01*
X111668000Y-105518000D01*
X111398000Y-105518000D01*
X111346338Y-105507724D01*
X111302541Y-105478459D01*
X111273276Y-105434662D01*
X111263000Y-105383000D01*
X111263000Y-105013000D01*
X111273276Y-104961338D01*
X111302541Y-104917541D01*
X111346338Y-104888276D01*
X111398000Y-104878000D01*
X111668000Y-104878000D01*
X111719662Y-104888276D01*
G37*
G36*
X108786662Y-104860276D02*
G01*
X108830459Y-104889541D01*
X108859724Y-104933338D01*
X108870000Y-104985000D01*
X108870000Y-105355000D01*
X108859724Y-105406662D01*
X108830459Y-105450459D01*
X108786662Y-105479724D01*
X108735000Y-105490000D01*
X108465000Y-105490000D01*
X108413338Y-105479724D01*
X108369541Y-105450459D01*
X108340276Y-105406662D01*
X108330000Y-105355000D01*
X108330000Y-104985000D01*
X108340276Y-104933338D01*
X108369541Y-104889541D01*
X108413338Y-104860276D01*
X108465000Y-104850000D01*
X108735000Y-104850000D01*
X108786662Y-104860276D01*
G37*
G36*
X109806662Y-104860276D02*
G01*
X109850459Y-104889541D01*
X109879724Y-104933338D01*
X109890000Y-104985000D01*
X109890000Y-105355000D01*
X109879724Y-105406662D01*
X109850459Y-105450459D01*
X109806662Y-105479724D01*
X109755000Y-105490000D01*
X109485000Y-105490000D01*
X109433338Y-105479724D01*
X109389541Y-105450459D01*
X109360276Y-105406662D01*
X109350000Y-105355000D01*
X109350000Y-104985000D01*
X109360276Y-104933338D01*
X109389541Y-104889541D01*
X109433338Y-104860276D01*
X109485000Y-104850000D01*
X109755000Y-104850000D01*
X109806662Y-104860276D01*
G37*
G36*
X123230552Y-104883564D02*
G01*
X123267050Y-104907950D01*
X123291436Y-104944448D01*
X123300000Y-104987500D01*
X123300000Y-105212500D01*
X123291436Y-105255552D01*
X123267050Y-105292050D01*
X123230552Y-105316436D01*
X123187500Y-105325000D01*
X122812500Y-105325000D01*
X122769448Y-105316436D01*
X122732950Y-105292050D01*
X122708564Y-105255552D01*
X122700000Y-105212500D01*
X122700000Y-104987500D01*
X122708564Y-104944448D01*
X122732950Y-104907950D01*
X122769448Y-104883564D01*
X122812500Y-104875000D01*
X123187500Y-104875000D01*
X123230552Y-104883564D01*
G37*
G36*
X125330552Y-104883564D02*
G01*
X125367050Y-104907950D01*
X125391436Y-104944448D01*
X125400000Y-104987500D01*
X125400000Y-105212500D01*
X125391436Y-105255552D01*
X125367050Y-105292050D01*
X125330552Y-105316436D01*
X125287500Y-105325000D01*
X124912500Y-105325000D01*
X124869448Y-105316436D01*
X124832950Y-105292050D01*
X124808564Y-105255552D01*
X124800000Y-105212500D01*
X124800000Y-104987500D01*
X124808564Y-104944448D01*
X124832950Y-104907950D01*
X124869448Y-104883564D01*
X124912500Y-104875000D01*
X125287500Y-104875000D01*
X125330552Y-104883564D01*
G37*
G36*
X102916742Y-103046601D02*
G01*
X103070687Y-103110367D01*
X103209234Y-103202941D01*
X103327059Y-103320766D01*
X103419633Y-103459313D01*
X103483399Y-103613258D01*
X103515907Y-103776685D01*
X103515907Y-103943315D01*
X103483399Y-104106742D01*
X103419633Y-104260687D01*
X103327059Y-104399234D01*
X103209234Y-104517059D01*
X103070687Y-104609633D01*
X102916742Y-104673399D01*
X102753315Y-104705907D01*
X102586685Y-104705907D01*
X102423258Y-104673399D01*
X102269313Y-104609633D01*
X102130766Y-104517059D01*
X102012941Y-104399234D01*
X101920367Y-104260687D01*
X101856601Y-104106742D01*
X101824093Y-103943315D01*
X101824093Y-103776685D01*
X101856601Y-103613258D01*
X101920367Y-103459313D01*
X102012941Y-103320766D01*
X102130766Y-103202941D01*
X102269313Y-103110367D01*
X102423258Y-103046601D01*
X102586685Y-103014093D01*
X102753315Y-103014093D01*
X102916742Y-103046601D01*
G37*
G36*
X105456742Y-103046601D02*
G01*
X105610687Y-103110367D01*
X105749234Y-103202941D01*
X105867059Y-103320766D01*
X105959633Y-103459313D01*
X106023399Y-103613258D01*
X106055907Y-103776685D01*
X106055907Y-103943315D01*
X106023399Y-104106742D01*
X105959633Y-104260687D01*
X105867059Y-104399234D01*
X105749234Y-104517059D01*
X105610687Y-104609633D01*
X105456742Y-104673399D01*
X105293315Y-104705907D01*
X105126685Y-104705907D01*
X104963258Y-104673399D01*
X104809313Y-104609633D01*
X104670766Y-104517059D01*
X104552941Y-104399234D01*
X104460367Y-104260687D01*
X104396601Y-104106742D01*
X104364093Y-103943315D01*
X104364093Y-103776685D01*
X104396601Y-103613258D01*
X104460367Y-103459313D01*
X104552941Y-103320766D01*
X104670766Y-103202941D01*
X104809313Y-103110367D01*
X104963258Y-103046601D01*
X105126685Y-103014093D01*
X105293315Y-103014093D01*
X105456742Y-103046601D01*
G37*
G36*
X129026742Y-103046601D02*
G01*
X129180687Y-103110367D01*
X129319234Y-103202941D01*
X129437059Y-103320766D01*
X129529633Y-103459313D01*
X129593399Y-103613258D01*
X129625907Y-103776685D01*
X129625907Y-103943315D01*
X129593399Y-104106742D01*
X129529633Y-104260687D01*
X129437059Y-104399234D01*
X129319234Y-104517059D01*
X129180687Y-104609633D01*
X129026742Y-104673399D01*
X128863315Y-104705907D01*
X128696685Y-104705907D01*
X128533258Y-104673399D01*
X128379313Y-104609633D01*
X128240766Y-104517059D01*
X128122941Y-104399234D01*
X128030367Y-104260687D01*
X127966601Y-104106742D01*
X127934093Y-103943315D01*
X127934093Y-103776685D01*
X127966601Y-103613258D01*
X128030367Y-103459313D01*
X128122941Y-103320766D01*
X128240766Y-103202941D01*
X128379313Y-103110367D01*
X128533258Y-103046601D01*
X128696685Y-103014093D01*
X128863315Y-103014093D01*
X129026742Y-103046601D01*
G37*
G36*
X131566742Y-103046601D02*
G01*
X131720687Y-103110367D01*
X131859234Y-103202941D01*
X131977059Y-103320766D01*
X132069633Y-103459313D01*
X132133399Y-103613258D01*
X132165907Y-103776685D01*
X132165907Y-103943315D01*
X132133399Y-104106742D01*
X132069633Y-104260687D01*
X131977059Y-104399234D01*
X131859234Y-104517059D01*
X131720687Y-104609633D01*
X131566742Y-104673399D01*
X131403315Y-104705907D01*
X131236685Y-104705907D01*
X131073258Y-104673399D01*
X130919313Y-104609633D01*
X130780766Y-104517059D01*
X130662941Y-104399234D01*
X130570367Y-104260687D01*
X130506601Y-104106742D01*
X130474093Y-103943315D01*
X130474093Y-103776685D01*
X130506601Y-103613258D01*
X130570367Y-103459313D01*
X130662941Y-103320766D01*
X130780766Y-103202941D01*
X130919313Y-103110367D01*
X131073258Y-103046601D01*
X131236685Y-103014093D01*
X131403315Y-103014093D01*
X131566742Y-103046601D01*
G37*
G36*
X110186790Y-100980393D02*
G01*
X110350952Y-101033733D01*
X110504748Y-101112096D01*
X110644393Y-101213553D01*
X110766447Y-101335607D01*
X110867904Y-101475252D01*
X110946267Y-101629048D01*
X110999607Y-101793210D01*
X111026609Y-101963695D01*
X111026609Y-102136305D01*
X110999607Y-102306790D01*
X110946267Y-102470952D01*
X110867904Y-102624748D01*
X110766447Y-102764393D01*
X110644393Y-102886447D01*
X110504748Y-102987904D01*
X110350952Y-103066267D01*
X110186790Y-103119607D01*
X110016305Y-103146609D01*
X109843695Y-103146609D01*
X109673210Y-103119607D01*
X109509048Y-103066267D01*
X109355252Y-102987904D01*
X109215607Y-102886447D01*
X109093553Y-102764393D01*
X108992096Y-102624748D01*
X108913733Y-102470952D01*
X108860393Y-102306790D01*
X108833391Y-102136305D01*
X108833391Y-101963695D01*
X108860393Y-101793210D01*
X108913733Y-101629048D01*
X108992096Y-101475252D01*
X109093553Y-101335607D01*
X109215607Y-101213553D01*
X109355252Y-101112096D01*
X109509048Y-101033733D01*
X109673210Y-100980393D01*
X109843695Y-100953391D01*
X110016305Y-100953391D01*
X110186790Y-100980393D01*
G37*
G36*
X124316790Y-100980393D02*
G01*
X124480952Y-101033733D01*
X124634748Y-101112096D01*
X124774393Y-101213553D01*
X124896447Y-101335607D01*
X124997904Y-101475252D01*
X125076267Y-101629048D01*
X125129607Y-101793210D01*
X125156609Y-101963695D01*
X125156609Y-102136305D01*
X125129607Y-102306790D01*
X125076267Y-102470952D01*
X124997904Y-102624748D01*
X124896447Y-102764393D01*
X124774393Y-102886447D01*
X124634748Y-102987904D01*
X124480952Y-103066267D01*
X124316790Y-103119607D01*
X124146305Y-103146609D01*
X123973695Y-103146609D01*
X123803210Y-103119607D01*
X123639048Y-103066267D01*
X123485252Y-102987904D01*
X123345607Y-102886447D01*
X123223553Y-102764393D01*
X123122096Y-102624748D01*
X123043733Y-102470952D01*
X122990393Y-102306790D01*
X122963391Y-102136305D01*
X122963391Y-101963695D01*
X122990393Y-101793210D01*
X123043733Y-101629048D01*
X123122096Y-101475252D01*
X123223553Y-101335607D01*
X123345607Y-101213553D01*
X123485252Y-101112096D01*
X123639048Y-101033733D01*
X123803210Y-100980393D01*
X123973695Y-100953391D01*
X124146305Y-100953391D01*
X124316790Y-100980393D01*
G37*
G36*
X112853688Y-101421538D02*
G01*
X112962205Y-101484190D01*
X113050810Y-101572795D01*
X113113462Y-101681312D01*
X113145894Y-101802347D01*
X113150000Y-101865000D01*
X113150000Y-102665000D01*
X113145894Y-102727653D01*
X113113462Y-102848688D01*
X113050810Y-102957205D01*
X112962205Y-103045810D01*
X112853688Y-103108462D01*
X112732653Y-103140894D01*
X112607347Y-103140894D01*
X112486312Y-103108462D01*
X112377795Y-103045810D01*
X112289190Y-102957205D01*
X112226538Y-102848688D01*
X112194106Y-102727653D01*
X112190000Y-102665000D01*
X112190000Y-101865000D01*
X112194106Y-101802347D01*
X112226538Y-101681312D01*
X112289190Y-101572795D01*
X112377795Y-101484190D01*
X112486312Y-101421538D01*
X112607347Y-101389106D01*
X112732653Y-101389106D01*
X112853688Y-101421538D01*
G37*
G36*
X121503688Y-101421538D02*
G01*
X121612205Y-101484190D01*
X121700810Y-101572795D01*
X121763462Y-101681312D01*
X121795894Y-101802347D01*
X121800000Y-101865000D01*
X121800000Y-102665000D01*
X121795894Y-102727653D01*
X121763462Y-102848688D01*
X121700810Y-102957205D01*
X121612205Y-103045810D01*
X121503688Y-103108462D01*
X121382653Y-103140894D01*
X121257347Y-103140894D01*
X121136312Y-103108462D01*
X121027795Y-103045810D01*
X120939190Y-102957205D01*
X120876538Y-102848688D01*
X120844106Y-102727653D01*
X120840000Y-102665000D01*
X120840000Y-101865000D01*
X120844106Y-101802347D01*
X120876538Y-101681312D01*
X120939190Y-101572795D01*
X121027795Y-101484190D01*
X121136312Y-101421538D01*
X121257347Y-101389106D01*
X121382653Y-101389106D01*
X121503688Y-101421538D01*
G37*
G36*
X103520000Y-102170000D02*
G01*
X101820000Y-102170000D01*
X101820000Y-100470000D01*
X103520000Y-100470000D01*
X103520000Y-102170000D01*
G37*
G36*
X129630000Y-102170000D02*
G01*
X127930000Y-102170000D01*
X127930000Y-100470000D01*
X129630000Y-100470000D01*
X129630000Y-102170000D01*
G37*
G36*
X105456742Y-100506601D02*
G01*
X105610687Y-100570367D01*
X105749234Y-100662941D01*
X105867059Y-100780766D01*
X105959633Y-100919313D01*
X106023399Y-101073258D01*
X106055907Y-101236685D01*
X106055907Y-101403315D01*
X106023399Y-101566742D01*
X105959633Y-101720687D01*
X105867059Y-101859234D01*
X105749234Y-101977059D01*
X105610687Y-102069633D01*
X105456742Y-102133399D01*
X105293315Y-102165907D01*
X105126685Y-102165907D01*
X104963258Y-102133399D01*
X104809313Y-102069633D01*
X104670766Y-101977059D01*
X104552941Y-101859234D01*
X104460367Y-101720687D01*
X104396601Y-101566742D01*
X104364093Y-101403315D01*
X104364093Y-101236685D01*
X104396601Y-101073258D01*
X104460367Y-100919313D01*
X104552941Y-100780766D01*
X104670766Y-100662941D01*
X104809313Y-100570367D01*
X104963258Y-100506601D01*
X105126685Y-100474093D01*
X105293315Y-100474093D01*
X105456742Y-100506601D01*
G37*
G36*
X131566742Y-100506601D02*
G01*
X131720687Y-100570367D01*
X131859234Y-100662941D01*
X131977059Y-100780766D01*
X132069633Y-100919313D01*
X132133399Y-101073258D01*
X132165907Y-101236685D01*
X132165907Y-101403315D01*
X132133399Y-101566742D01*
X132069633Y-101720687D01*
X131977059Y-101859234D01*
X131859234Y-101977059D01*
X131720687Y-102069633D01*
X131566742Y-102133399D01*
X131403315Y-102165907D01*
X131236685Y-102165907D01*
X131073258Y-102133399D01*
X130919313Y-102069633D01*
X130780766Y-101977059D01*
X130662941Y-101859234D01*
X130570367Y-101720687D01*
X130506601Y-101566742D01*
X130474093Y-101403315D01*
X130474093Y-101236685D01*
X130506601Y-101073258D01*
X130570367Y-100919313D01*
X130662941Y-100780766D01*
X130780766Y-100662941D01*
X130919313Y-100570367D01*
X131073258Y-100506601D01*
X131236685Y-100474093D01*
X131403315Y-100474093D01*
X131566742Y-100506601D01*
G37*
M02*
