M48
; DRILL file KiCad 10.0.6 date 2026-10-02T17:32:43
; FORMAT={-:-/ absolute / metric / decimal}
; #@! TF.CreationDate,2026-10-02T17:32:43+00:00
; #@! TF.GenerationSoftware,Kicad,Pcbnew,10.0.6
; #@! TF.FileFunction,Plated,1,2,PTH
FMAT,2
METRIC
; #@! TA.AperFunction,Plated,PTH,ViaDrill
T1C0.300
; #@! TA.AperFunction,Plated,PTH,ComponentDrill
T2C0.300
; #@! TA.AperFunction,Plated,PTH,ComponentDrill
T3C0.380
; #@! TA.AperFunction,Plated,PTH,ComponentDrill
T4C0.600
; #@! TA.AperFunction,Plated,PTH,ComponentDrill
T5C1.000
%
G90
G05
T1
X106.043Y-112.968
X106.493Y-106.748
X106.549Y-116.645
X106.776Y-115.6
X107.289Y-111.329
X107.573Y-114.559
X107.573Y-116.361
X107.772Y-118.537
X107.93Y-103.019
X108.395Y-100.775
X108.6Y-104.35
X109.322Y-108.991
X110.277Y-109.383
X110.938Y-117.744
X111.411Y-121.08
X111.748Y-106.041
X112.783Y-111.352
X113.175Y-108.075
X113.752Y-117.45
X113.757Y-119.085
X113.762Y-116.666
X113.77Y-115.914
X114.433Y-115.501
X114.495Y-113.5
X114.686Y-119.189
X114.745Y-102.045
X114.745Y-122.365
X114.939Y-110.583
X115.002Y-108.372
X115.369Y-109.497
X115.431Y-113.207
X115.478Y-119.193
X116.015Y-102.045
X116.022Y-115.768
X116.06Y-116.781
X116.15Y-107.55
X116.372Y-114.472
X116.851Y-119.168
X116.92Y-113.717
X117.285Y-102.045
X117.5Y-113.21
X117.995Y-119.151
X118.165Y-118.414
X118.245Y-116.11
X118.28Y-114.37
X118.298Y-113.225
X118.494Y-121.532
X118.555Y-102.045
X118.977Y-117.724
X119.113Y-118.586
X119.634Y-113.207
X119.693Y-116.879
X119.72Y-117.616
X119.729Y-115.527
X119.739Y-124.483
X119.798Y-108.109
X120.286Y-111.84
X120.314Y-123.976
X120.332Y-111.078
X120.35Y-112.8
X120.596Y-120.362
X121.66Y-107.596
X122.216Y-121.778
X122.274Y-117.37
X122.365Y-100.775
X122.508Y-112.717
X122.6Y-116.11
X123.148Y-111.709
X123.85Y-107.25
X124.347Y-105.308
X124.45Y-119.25
X124.47Y-120.93
X124.65Y-110.35
X125.739Y-115.242
X125.87Y-111.683
X126.285Y-109.14
X126.425Y-114.16
X126.461Y-114.904
X132.475Y-107.025
T2
X121.095Y-108.7
X121.095Y-109.9
T3
X114.02Y-105.275
X114.02Y-106.625
X114.87Y-105.275
X114.87Y-106.625
X115.72Y-105.275
X115.72Y-106.625
X116.57Y-105.275
X116.57Y-106.625
X117.42Y-105.275
X117.42Y-106.625
X118.27Y-105.275
X118.27Y-106.625
X119.12Y-105.275
X119.12Y-106.625
X119.97Y-105.275
X119.97Y-106.625
T5
X102.67Y-101.32
X102.67Y-103.86
X102.67Y-106.4
X102.67Y-108.94
X102.67Y-111.48
X102.67Y-114.02
X102.67Y-116.56
X102.67Y-119.1
X102.67Y-121.64
X102.67Y-124.18
X105.21Y-101.32
X105.21Y-103.86
X105.21Y-106.4
X105.21Y-108.94
X105.21Y-111.48
X105.21Y-114.02
X105.21Y-116.56
X105.21Y-119.1
X105.21Y-121.64
X105.21Y-124.18
X128.78Y-101.32
X128.78Y-103.86
X128.78Y-106.4
X128.78Y-108.94
X128.78Y-111.48
X128.78Y-114.02
X128.78Y-116.56
X128.78Y-119.1
X128.78Y-121.64
X128.78Y-124.18
X131.32Y-101.32
X131.32Y-103.86
X131.32Y-106.4
X131.32Y-108.94
X131.32Y-111.48
X131.32Y-114.02
X131.32Y-116.56
X131.32Y-119.1
X131.32Y-121.64
X131.32Y-124.18
T4
X112.67Y-102.665G85X112.67Y-101.865
G05
X112.67Y-106.395G85X112.67Y-104.895
G05
X121.32Y-102.665G85X121.32Y-101.865
G05
X121.32Y-106.395G85X121.32Y-104.895
G05
M30
