%TF.GenerationSoftware,KiCad,Pcbnew,10.0.6*%
%TF.CreationDate,2026-10-02T21:18:17+00:00*%
%TF.ProjectId,nicklink,6e69636b-6c69-46e6-9b2e-6b696361645f,rev?*%
%TF.SameCoordinates,Original*%
%TF.FileFunction,Paste,Top*%
%TF.FilePolarity,Positive*%
%FSLAX46Y46*%
G04 Gerber Fmt 4.6, Leading zero omitted, Abs format (unit mm)*
G04 Created by KiCad (PCBNEW 10.0.6) date 2026-10-02 21:18:17*
%MOMM*%
%LPD*%
G01*
G04 APERTURE LIST*
G04 Aperture macros list*
%AMRoundRect*
0 Rectangle with rounded corners*
0 $1 Rounding radius*
0 $2 $3 $4 $5 $6 $7 $8 $9 X,Y pos of 4 corners*
0 Add a 4 corners polygon primitive as box body*
4,1,4,$2,$3,$4,$5,$6,$7,$8,$9,$2,$3,0*
0 Add four circle primitives for the rounded corners*
1,1,$1+$1,$2,$3*
1,1,$1+$1,$4,$5*
1,1,$1+$1,$6,$7*
1,1,$1+$1,$8,$9*
0 Add four rect primitives between the rounded corners*
20,1,$1+$1,$2,$3,$4,$5,0*
20,1,$1+$1,$4,$5,$6,$7,0*
20,1,$1+$1,$6,$7,$8,$9,0*
20,1,$1+$1,$8,$9,$2,$3,0*%
G04 Aperture macros list end*
%ADD10RoundRect,0.087500X-0.225000X-0.087500X0.225000X-0.087500X0.225000X0.087500X-0.225000X0.087500X0*%
%ADD11RoundRect,0.087500X-0.087500X-0.225000X0.087500X-0.225000X0.087500X0.225000X-0.087500X0.225000X0*%
%ADD12RoundRect,0.135000X-0.135000X-0.185000X0.135000X-0.185000X0.135000X0.185000X-0.135000X0.185000X0*%
%ADD13RoundRect,0.140000X0.170000X-0.140000X0.170000X0.140000X-0.170000X0.140000X-0.170000X-0.140000X0*%
%ADD14RoundRect,0.140000X-0.170000X0.140000X-0.170000X-0.140000X0.170000X-0.140000X0.170000X0.140000X0*%
%ADD15RoundRect,0.250000X-0.450000X-0.350000X0.450000X-0.350000X0.450000X0.350000X-0.450000X0.350000X0*%
%ADD16RoundRect,0.135000X-0.185000X0.135000X-0.185000X-0.135000X0.185000X-0.135000X0.185000X0.135000X0*%
%ADD17R,1.700000X0.900000*%
%ADD18RoundRect,0.075000X0.075000X-0.662500X0.075000X0.662500X-0.075000X0.662500X-0.075000X-0.662500X0*%
%ADD19RoundRect,0.075000X0.662500X-0.075000X0.662500X0.075000X-0.662500X0.075000X-0.662500X-0.075000X0*%
%ADD20RoundRect,0.250000X0.262500X0.450000X-0.262500X0.450000X-0.262500X-0.450000X0.262500X-0.450000X0*%
%ADD21RoundRect,0.140000X-0.140000X-0.170000X0.140000X-0.170000X0.140000X0.170000X-0.140000X0.170000X0*%
%ADD22RoundRect,0.147500X-0.147500X-0.172500X0.147500X-0.172500X0.147500X0.172500X-0.147500X0.172500X0*%
%ADD23RoundRect,0.135000X0.185000X-0.135000X0.185000X0.135000X-0.185000X0.135000X-0.185000X-0.135000X0*%
%ADD24RoundRect,0.175000X-0.230000X-0.175000X0.230000X-0.175000X0.230000X0.175000X-0.230000X0.175000X0*%
%ADD25RoundRect,0.093750X-0.093750X-0.106250X0.093750X-0.106250X0.093750X0.106250X-0.093750X0.106250X0*%
%ADD26RoundRect,0.243750X-0.243750X-0.456250X0.243750X-0.456250X0.243750X0.456250X-0.243750X0.456250X0*%
%ADD27RoundRect,0.112500X0.112500X-0.350000X0.112500X0.350000X-0.112500X0.350000X-0.112500X-0.350000X0*%
%ADD28RoundRect,0.112500X0.112500X-0.187500X0.112500X0.187500X-0.112500X0.187500X-0.112500X-0.187500X0*%
%ADD29RoundRect,0.093750X-0.093750X0.156250X-0.093750X-0.156250X0.093750X-0.156250X0.093750X0.156250X0*%
%ADD30RoundRect,0.075000X-0.075000X0.250000X-0.075000X-0.250000X0.075000X-0.250000X0.075000X0.250000X0*%
%ADD31RoundRect,0.147500X0.172500X-0.147500X0.172500X0.147500X-0.172500X0.147500X-0.172500X-0.147500X0*%
G04 APERTURE END LIST*
D10*
%TO.C,U4*%
X123037500Y-116960000D03*
X123037500Y-117460000D03*
X123037500Y-117960000D03*
X123037500Y-118460000D03*
D11*
X123700000Y-118622500D03*
X124200000Y-118622500D03*
X124700000Y-118622500D03*
D10*
X125362500Y-118460000D03*
X125362500Y-117960000D03*
X125362500Y-117460000D03*
X125362500Y-116960000D03*
D11*
X124700000Y-116797500D03*
X124200000Y-116797500D03*
X123700000Y-116797500D03*
%TD*%
D12*
%TO.C,R7*%
X108493000Y-118957000D03*
X109513000Y-118957000D03*
%TD*%
D13*
%TO.C,C7*%
X120145000Y-123080000D03*
X120145000Y-122120000D03*
%TD*%
%TO.C,C2*%
X121100000Y-112480000D03*
X121100000Y-111520000D03*
%TD*%
%TO.C,C6*%
X119045000Y-123080000D03*
X119045000Y-122120000D03*
%TD*%
D14*
%TO.C,C13*%
X118058000Y-109374000D03*
X118058000Y-110334000D03*
%TD*%
D12*
%TO.C,R3*%
X108600000Y-105170000D03*
X109620000Y-105170000D03*
%TD*%
D13*
%TO.C,C10*%
X112545000Y-123880000D03*
X112545000Y-122920000D03*
%TD*%
D15*
%TO.C,Y1*%
X114145000Y-124050000D03*
X116345000Y-124050000D03*
X116345000Y-122350000D03*
X114145000Y-122350000D03*
%TD*%
D12*
%TO.C,R9*%
X108518000Y-120270000D03*
X109538000Y-120270000D03*
%TD*%
D16*
%TO.C,R10*%
X121250000Y-119890000D03*
X121250000Y-120910000D03*
%TD*%
D12*
%TO.C,R11*%
X113090000Y-110585000D03*
X114110000Y-110585000D03*
%TD*%
D17*
%TO.C,SW1*%
X124450000Y-115460000D03*
X124450000Y-112060000D03*
%TD*%
D12*
%TO.C,R2*%
X113132000Y-109650000D03*
X114152000Y-109650000D03*
%TD*%
D18*
%TO.C,U1*%
X113995000Y-120362500D03*
X114495000Y-120362500D03*
X114995000Y-120362500D03*
X115495000Y-120362500D03*
X115995000Y-120362500D03*
X116495000Y-120362500D03*
X116995000Y-120362500D03*
X117495000Y-120362500D03*
X117995000Y-120362500D03*
X118495000Y-120362500D03*
X118995000Y-120362500D03*
X119495000Y-120362500D03*
D19*
X120907500Y-118950000D03*
X120907500Y-118450000D03*
X120907500Y-117950000D03*
X120907500Y-117450000D03*
X120907500Y-116950000D03*
X120907500Y-116450000D03*
X120907500Y-115950000D03*
X120907500Y-115450000D03*
X120907500Y-114950000D03*
X120907500Y-114450000D03*
X120907500Y-113950000D03*
X120907500Y-113450000D03*
D18*
X119495000Y-112037500D03*
X118995000Y-112037500D03*
X118495000Y-112037500D03*
X117995000Y-112037500D03*
X117495000Y-112037500D03*
X116995000Y-112037500D03*
X116495000Y-112037500D03*
X115995000Y-112037500D03*
X115495000Y-112037500D03*
X114995000Y-112037500D03*
X114495000Y-112037500D03*
X113995000Y-112037500D03*
D19*
X112582500Y-113450000D03*
X112582500Y-113950000D03*
X112582500Y-114450000D03*
X112582500Y-114950000D03*
X112582500Y-115450000D03*
X112582500Y-115950000D03*
X112582500Y-116450000D03*
X112582500Y-116950000D03*
X112582500Y-117450000D03*
X112582500Y-117950000D03*
X112582500Y-118450000D03*
X112582500Y-118950000D03*
%TD*%
D14*
%TO.C,C8*%
X119263000Y-108730000D03*
X119263000Y-109690000D03*
%TD*%
D20*
%TO.C,R12*%
X110792500Y-106700000D03*
X108967500Y-106700000D03*
%TD*%
D17*
%TO.C,SW2*%
X109580000Y-115600000D03*
X109580000Y-112200000D03*
%TD*%
D21*
%TO.C,C12*%
X122920000Y-109830000D03*
X123880000Y-109830000D03*
%TD*%
D13*
%TO.C,C4*%
X110730000Y-119430000D03*
X110730000Y-118470000D03*
%TD*%
%TO.C,C1*%
X112450000Y-121080000D03*
X112450000Y-120120000D03*
%TD*%
%TO.C,C3*%
X112049000Y-111904000D03*
X112049000Y-110944000D03*
%TD*%
D22*
%TO.C,D3*%
X111008000Y-109620000D03*
X111978000Y-109620000D03*
%TD*%
D12*
%TO.C,R6*%
X110513000Y-105198000D03*
X111533000Y-105198000D03*
%TD*%
D23*
%TO.C,R4*%
X125600000Y-110910000D03*
X125600000Y-109890000D03*
%TD*%
D24*
%TO.C,U2*%
X121095000Y-109300000D03*
D25*
X120207500Y-108650000D03*
X120207500Y-109300000D03*
X120207500Y-109950000D03*
X121982500Y-109950000D03*
X121982500Y-109300000D03*
X121982500Y-108650000D03*
%TD*%
D14*
%TO.C,C14*%
X123720000Y-119970000D03*
X123720000Y-120930000D03*
%TD*%
D22*
%TO.C,D1*%
X110870000Y-108163000D03*
X111840000Y-108163000D03*
%TD*%
D12*
%TO.C,R5*%
X113218000Y-108662000D03*
X114238000Y-108662000D03*
%TD*%
%TO.C,R8*%
X122890000Y-110800000D03*
X123910000Y-110800000D03*
%TD*%
D26*
%TO.C,F1*%
X123337500Y-108405000D03*
X125212500Y-108405000D03*
%TD*%
D27*
%TO.C,Q1*%
X124380000Y-106592500D03*
X125680000Y-106592500D03*
X125030000Y-104817500D03*
%TD*%
D13*
%TO.C,C11*%
X117945000Y-123680000D03*
X117945000Y-122720000D03*
%TD*%
D14*
%TO.C,C15*%
X125220000Y-119970000D03*
X125220000Y-120930000D03*
%TD*%
D13*
%TO.C,C9*%
X121245000Y-123080000D03*
X121245000Y-122120000D03*
%TD*%
D23*
%TO.C,R1*%
X109280000Y-117910000D03*
X109280000Y-116890000D03*
%TD*%
D28*
%TO.C,D2*%
X122975000Y-106895000D03*
X122975000Y-104795000D03*
%TD*%
D29*
%TO.C,U3*%
X116932500Y-108420000D03*
D30*
X116395000Y-108345000D03*
D29*
X115857500Y-108420000D03*
X115857500Y-110120000D03*
D30*
X116395000Y-110195000D03*
D29*
X116932500Y-110120000D03*
%TD*%
D31*
%TO.C,FB1*%
X122620000Y-120935000D03*
X122620000Y-119965000D03*
%TD*%
M02*
