%TF.GenerationSoftware,KiCad,Pcbnew,10.0.6*%
%TF.CreationDate,2026-10-02T17:32:42+00:00*%
%TF.ProjectId,nicklink,6e69636b-6c69-46e6-9b2e-6b696361645f,rev?*%
%TF.SameCoordinates,Original*%
%TF.FileFunction,Copper,L2,Bot*%
%TF.FilePolarity,Positive*%
%FSLAX46Y46*%
G04 Gerber Fmt 4.6, Leading zero omitted, Abs format (unit mm)*
G04 Created by KiCad (PCBNEW 10.0.6) date 2026-10-02 17:32:42*
%MOMM*%
%LPD*%
G01*
G04 APERTURE LIST*
%TA.AperFunction,ComponentPad*%
%ADD10R,1.700000X1.700000*%
%TD*%
%TA.AperFunction,ComponentPad*%
%ADD11C,1.700000*%
%TD*%
%TA.AperFunction,ComponentPad*%
%ADD12C,0.660000*%
%TD*%
%TA.AperFunction,ComponentPad*%
%ADD13C,0.740000*%
%TD*%
%TA.AperFunction,ComponentPad*%
%ADD14O,0.960000X2.460000*%
%TD*%
%TA.AperFunction,ComponentPad*%
%ADD15O,0.960000X1.760000*%
%TD*%
%TA.AperFunction,ViaPad*%
%ADD16C,0.600000*%
%TD*%
%TA.AperFunction,Conductor*%
%ADD17C,0.200000*%
%TD*%
%TA.AperFunction,Conductor*%
%ADD18C,0.300000*%
%TD*%
%TA.AperFunction,Conductor*%
%ADD19C,0.250000*%
%TD*%
%TA.AperFunction,Conductor*%
%ADD20C,0.150000*%
%TD*%
G04 APERTURE END LIST*
D10*
%TO.P,J3,1*%
%TO.N,+3.3V*%
X102670000Y-101320000D03*
D11*
%TO.P,J3,2*%
%TO.N,GND*%
X105210000Y-101320000D03*
%TO.P,J3,3*%
%TO.N,/PA9*%
X102670000Y-103860000D03*
%TO.P,J3,4*%
%TO.N,/PA10*%
X105210000Y-103860000D03*
%TO.P,J3,5*%
%TO.N,/PA8*%
X102670000Y-106400000D03*
%TO.P,J3,6*%
%TO.N,/PA15*%
X105210000Y-106400000D03*
%TO.P,J3,7*%
%TO.N,/PA13*%
X102670000Y-108940000D03*
%TO.P,J3,8*%
%TO.N,/PA14*%
X105210000Y-108940000D03*
%TO.P,J3,9*%
%TO.N,/PB3*%
X102670000Y-111480000D03*
%TO.P,J3,10*%
%TO.N,/NRST*%
X105210000Y-111480000D03*
%TO.P,J3,11*%
%TO.N,/PB4*%
X102670000Y-114020000D03*
%TO.P,J3,12*%
%TO.N,/PB5*%
X105210000Y-114020000D03*
%TO.P,J3,13*%
%TO.N,/PB6*%
X102670000Y-116560000D03*
%TO.P,J3,14*%
%TO.N,/PB7*%
X105210000Y-116560000D03*
%TO.P,J3,15*%
%TO.N,/PB8*%
X102670000Y-119100000D03*
%TO.P,J3,16*%
%TO.N,/PB9*%
X105210000Y-119100000D03*
%TO.P,J3,17*%
%TO.N,/PC13*%
X102670000Y-121640000D03*
%TO.P,J3,18*%
%TO.N,/PC14*%
X105210000Y-121640000D03*
%TO.P,J3,19*%
%TO.N,/PC15*%
X102670000Y-124180000D03*
%TO.P,J3,20*%
%TO.N,GND*%
X105210000Y-124180000D03*
%TD*%
D10*
%TO.P,J1,1*%
%TO.N,+5V*%
X128780000Y-101320000D03*
D11*
%TO.P,J1,2*%
%TO.N,GND*%
X131320000Y-101320000D03*
%TO.P,J1,3*%
%TO.N,/PB15*%
X128780000Y-103860000D03*
%TO.P,J1,4*%
%TO.N,/PB14*%
X131320000Y-103860000D03*
%TO.P,J1,5*%
%TO.N,/PB13*%
X128780000Y-106400000D03*
%TO.P,J1,6*%
%TO.N,/PB12*%
X131320000Y-106400000D03*
%TO.P,J1,7*%
%TO.N,/PB11*%
X128780000Y-108940000D03*
%TO.P,J1,8*%
%TO.N,/PB10*%
X131320000Y-108940000D03*
%TO.P,J1,9*%
%TO.N,/PB2*%
X128780000Y-111480000D03*
%TO.P,J1,10*%
%TO.N,/PB1*%
X131320000Y-111480000D03*
%TO.P,J1,11*%
%TO.N,/PB0*%
X128780000Y-114020000D03*
%TO.P,J1,12*%
%TO.N,/PA7*%
X131320000Y-114020000D03*
%TO.P,J1,13*%
%TO.N,/PA6*%
X128780000Y-116560000D03*
%TO.P,J1,14*%
%TO.N,/PA5*%
X131320000Y-116560000D03*
%TO.P,J1,15*%
%TO.N,/PA4*%
X128780000Y-119100000D03*
%TO.P,J1,16*%
%TO.N,/PA3*%
X131320000Y-119100000D03*
%TO.P,J1,17*%
%TO.N,/PA2*%
X128780000Y-121640000D03*
%TO.P,J1,18*%
%TO.N,/PA1*%
X131320000Y-121640000D03*
%TO.P,J1,19*%
%TO.N,/PA0*%
X128780000Y-124180000D03*
%TO.P,J1,20*%
%TO.N,+3.3V*%
X131320000Y-124180000D03*
%TD*%
D12*
%TO.P,U2,7*%
%TO.N,GND*%
X121095000Y-108700000D03*
X121095000Y-109900000D03*
%TD*%
D13*
%TO.P,J2,A1*%
%TO.N,GND*%
X119970000Y-106625000D03*
%TO.P,J2,A4*%
%TO.N,VBUS*%
X119120000Y-106625000D03*
%TO.P,J2,A5*%
%TO.N,/USB_CC1*%
X118270000Y-106625000D03*
%TO.P,J2,A6*%
%TO.N,/USB_D+*%
X117420000Y-106625000D03*
%TO.P,J2,A7*%
%TO.N,/USB_D-*%
X116570000Y-106625000D03*
%TO.P,J2,A8*%
%TO.N,unconnected-(J2-SBU1-PadA8)*%
X115720000Y-106625000D03*
%TO.P,J2,A9*%
%TO.N,VBUS*%
X114870000Y-106625000D03*
%TO.P,J2,A12*%
%TO.N,GND*%
X114020000Y-106625000D03*
%TO.P,J2,B1*%
X114020000Y-105275000D03*
%TO.P,J2,B4*%
%TO.N,VBUS*%
X114870000Y-105275000D03*
%TO.P,J2,B5*%
%TO.N,/USB_CC2*%
X115720000Y-105275000D03*
%TO.P,J2,B6*%
%TO.N,/USB_D+*%
X116570000Y-105275000D03*
%TO.P,J2,B7*%
%TO.N,/USB_D-*%
X117420000Y-105275000D03*
%TO.P,J2,B8*%
%TO.N,unconnected-(J2-SBU2-PadB8)*%
X118270000Y-105275000D03*
%TO.P,J2,B9*%
%TO.N,VBUS*%
X119120000Y-105275000D03*
%TO.P,J2,B12*%
%TO.N,GND*%
X119970000Y-105275000D03*
D14*
%TO.P,J2,SH*%
X121320000Y-105645000D03*
D15*
X121320000Y-102265000D03*
D14*
X112670000Y-105645000D03*
D15*
X112670000Y-102265000D03*
%TD*%
D16*
%TO.N,+3.3V*%
X107930100Y-103019500D03*
X106549500Y-116644900D03*
X107771800Y-118537500D03*
X121659900Y-107595600D03*
X132475000Y-107024999D03*
X111411300Y-121080000D03*
X119797800Y-108108900D03*
X106775800Y-115600000D03*
X120350000Y-112800000D03*
%TO.N,GND*%
X116014999Y-102044999D03*
X124450000Y-119250000D03*
X116150000Y-107550000D03*
X118245000Y-116110000D03*
X108394999Y-100774999D03*
X113175000Y-108074999D03*
X122600000Y-116110000D03*
X108600000Y-104350000D03*
X124650000Y-110350000D03*
X112783300Y-111352000D03*
X118554999Y-102044999D03*
X122364999Y-100774999D03*
X114495000Y-113500000D03*
X114744999Y-102044999D03*
X114744999Y-122364999D03*
X124470000Y-120930000D03*
X123850000Y-107250000D03*
X117284999Y-102044999D03*
%TO.N,/BOOT0*%
X106043200Y-112968400D03*
X107573100Y-116361400D03*
X107289300Y-111328700D03*
X107573100Y-114558700D03*
%TO.N,/USER_LED_K*%
X111748000Y-106041400D03*
X110276900Y-109383500D03*
%TO.N,/NRST*%
X125738700Y-115241700D03*
X116850900Y-119167700D03*
X119738800Y-124483000D03*
%TO.N,/PB2*%
X123148200Y-111709400D03*
%TO.N,/PB6*%
X116021600Y-115767700D03*
X126461400Y-114904500D03*
X113770500Y-115913700D03*
%TO.N,/PB7*%
X126425000Y-114160200D03*
X118279800Y-114370000D03*
X113761800Y-116665600D03*
%TO.N,+3.3VA*%
X120313700Y-123976300D03*
X122215900Y-121778300D03*
X117995000Y-119151200D03*
%TO.N,/USB_CC1*%
X126285500Y-109139900D03*
%TO.N,/USB_D-*%
X114938600Y-110583400D03*
%TO.N,/USB_D+*%
X115368700Y-109496700D03*
%TO.N,/USB_CC2*%
X115001800Y-108371600D03*
%TO.N,/PA9*%
X106493000Y-106747800D03*
X116919600Y-113716900D03*
%TO.N,/PA10*%
X109322100Y-108991400D03*
%TO.N,/PA8*%
X117500200Y-113210400D03*
%TO.N,/PA13*%
X115430700Y-113207300D03*
%TO.N,/PB5*%
X114433100Y-115501100D03*
%TO.N,/PB8*%
X113752000Y-117450000D03*
%TO.N,/PB9*%
X110938400Y-117744400D03*
%TO.N,/PC13*%
X116060100Y-116781200D03*
X116372300Y-114472500D03*
X124346900Y-105307700D03*
X113756600Y-119084700D03*
%TO.N,/PC14*%
X114685600Y-119189300D03*
%TO.N,/PC15*%
X115478500Y-119193000D03*
%TO.N,/PB15*%
X118297700Y-113225000D03*
%TO.N,/PB14*%
X119633900Y-113207300D03*
X125869700Y-111683200D03*
%TO.N,/PB13*%
X120332200Y-111077600D03*
%TO.N,/PB12*%
X122507800Y-112716700D03*
X120285600Y-111840300D03*
%TO.N,/PB0*%
X119729400Y-115526900D03*
%TO.N,/PA7*%
X119692700Y-116879000D03*
%TO.N,/PA6*%
X122274100Y-117369600D03*
%TO.N,/PA5*%
X119719600Y-117616300D03*
%TO.N,/PA4*%
X118977200Y-117723900D03*
%TO.N,/PA3*%
X119113100Y-118586300D03*
%TO.N,/PA2*%
X120596000Y-120362500D03*
%TO.N,/PA1*%
X118165000Y-118414100D03*
%TO.N,/PA0*%
X118494500Y-121532000D03*
%TD*%
%TO.N,+3.3V*%
D17*
X129275000Y-102774999D02*
X129225000Y-102774999D01*
D18*
X119797800Y-108108900D02*
X119703900Y-108202800D01*
D17*
X124725000Y-103425000D02*
X124675000Y-103425000D01*
X132125000Y-105574999D02*
X131875000Y-105324999D01*
X130975000Y-105175000D02*
X130324999Y-104524999D01*
X132475000Y-105875000D02*
X132175000Y-105574999D01*
X129074999Y-102725000D02*
X129025000Y-102675000D01*
X124625000Y-103475000D02*
X124574999Y-103475000D01*
D18*
X119703900Y-108202800D02*
X119703900Y-112153900D01*
D17*
X130324999Y-104524999D02*
X130324999Y-104475000D01*
X128875000Y-102675000D02*
X128824999Y-102625000D01*
X129625000Y-103024999D02*
X129574999Y-103024999D01*
X131625000Y-105274999D02*
X131574999Y-105225000D01*
X132475000Y-107024999D02*
X132475000Y-105875000D01*
D18*
X121656900Y-101091200D02*
X122112300Y-101546600D01*
D17*
X129574999Y-103024999D02*
X129375000Y-102824999D01*
D18*
X111773800Y-101649600D02*
X112332200Y-101091200D01*
D17*
X128824999Y-102625000D02*
X125625000Y-102625000D01*
X131425000Y-105225000D02*
X131375000Y-105175000D01*
X124524999Y-103524999D02*
X124375000Y-103524999D01*
D18*
X103133600Y-122814600D02*
X103801700Y-122146500D01*
D17*
X124875000Y-103324999D02*
X124824999Y-103375000D01*
X129324999Y-102824999D02*
X129275000Y-102774999D01*
X129025000Y-102675000D02*
X128875000Y-102675000D01*
D18*
X106775800Y-116418600D02*
X106775800Y-115600000D01*
X122112300Y-101546600D02*
X122112300Y-107143200D01*
X110649600Y-103681700D02*
X111773800Y-102557500D01*
X101162400Y-103747100D02*
X101162400Y-121837400D01*
D17*
X131725000Y-105274999D02*
X131625000Y-105274999D01*
X130175000Y-104274999D02*
X130175000Y-104225000D01*
D18*
X101162400Y-121837400D02*
X102139600Y-122814600D01*
D17*
X124675000Y-103425000D02*
X124625000Y-103475000D01*
X124375000Y-103524999D02*
X124324999Y-103574999D01*
X131375000Y-105175000D02*
X130975000Y-105175000D01*
X125625000Y-102625000D02*
X124925000Y-103324999D01*
X131574999Y-105225000D02*
X131425000Y-105225000D01*
X124824999Y-103375000D02*
X124774999Y-103375000D01*
X124774999Y-103375000D02*
X124725000Y-103425000D01*
X130324999Y-104475000D02*
X130225000Y-104375000D01*
D18*
X105801000Y-120508300D02*
X107771800Y-118537500D01*
D17*
X130125000Y-104175000D02*
X130125000Y-103524999D01*
D18*
X103801700Y-122146500D02*
X103801700Y-121407300D01*
D17*
X124324999Y-103574999D02*
X122225000Y-103574999D01*
X129375000Y-102824999D02*
X129324999Y-102824999D01*
D18*
X112332200Y-101091200D02*
X121656900Y-101091200D01*
X107771800Y-118537500D02*
X110314300Y-121080000D01*
X103801700Y-121407300D02*
X104700700Y-120508300D01*
X102670000Y-102451700D02*
X102457800Y-102451700D01*
D17*
X124574999Y-103475000D02*
X124524999Y-103524999D01*
D18*
X102670000Y-101320000D02*
X102670000Y-102451700D01*
D17*
X130225000Y-104375000D02*
X130225000Y-104324999D01*
D18*
X102457800Y-102451700D02*
X101162400Y-103747100D01*
X119703900Y-112153900D02*
X120350000Y-112800000D01*
X106549500Y-116644900D02*
X106775800Y-116418600D01*
X107930100Y-103019500D02*
X108592300Y-103681700D01*
X104700700Y-120508300D02*
X105801000Y-120508300D01*
X111773800Y-102557500D02*
X111773800Y-101649600D01*
D17*
X130225000Y-104324999D02*
X130175000Y-104274999D01*
D18*
X108592300Y-103681700D02*
X110649600Y-103681700D01*
D17*
X132175000Y-105574999D02*
X132125000Y-105574999D01*
X130125000Y-103524999D02*
X129625000Y-103024999D01*
X130175000Y-104225000D02*
X130125000Y-104175000D01*
X124925000Y-103324999D02*
X124875000Y-103324999D01*
X131875000Y-105324999D02*
X131775000Y-105324999D01*
X131775000Y-105324999D02*
X131725000Y-105274999D01*
D18*
X110314300Y-121080000D02*
X111411300Y-121080000D01*
D17*
X129225000Y-102774999D02*
X129175000Y-102725000D01*
X129175000Y-102725000D02*
X129074999Y-102725000D01*
D18*
X102139600Y-122814600D02*
X103133600Y-122814600D01*
X122112300Y-107143200D02*
X121659900Y-107595600D01*
%TO.N,GND*%
D19*
X114020000Y-106625000D02*
X114020000Y-106728200D01*
X108600000Y-104350000D02*
X112670000Y-104350000D01*
X114495000Y-113500000D02*
X112783300Y-111788300D01*
X121095000Y-109900000D02*
X121095000Y-108700000D01*
X123850000Y-107250000D02*
X124650000Y-108050000D01*
X112670000Y-111238700D02*
X112783300Y-111352000D01*
X105210000Y-101320000D02*
X108240000Y-104350000D01*
X108240000Y-104350000D02*
X108600000Y-104350000D01*
X124650000Y-108050000D02*
X124650000Y-110350000D01*
X112670000Y-102265000D02*
X112670000Y-104350000D01*
X112670000Y-104350000D02*
X112670000Y-105645000D01*
X121320000Y-102265000D02*
X121320000Y-105645000D01*
X114020000Y-106728200D02*
X114841800Y-107550000D01*
X112670000Y-105645000D02*
X112670000Y-111238700D01*
X121095000Y-108700000D02*
X121095000Y-107750000D01*
X114841800Y-107550000D02*
X116150000Y-107550000D01*
X119970000Y-105275000D02*
X119970000Y-106625000D01*
X113175000Y-108074999D02*
X113175000Y-108074999D01*
X112783300Y-111788300D02*
X112783300Y-111352000D01*
X121095000Y-107750000D02*
X119970000Y-106625000D01*
D18*
X124450000Y-119250000D02*
X124470000Y-120930000D01*
X122600000Y-116110000D02*
X118245000Y-116110000D01*
%TO.N,/BOOT0*%
D20*
X104953200Y-112750000D02*
X104101200Y-111898000D01*
X104101200Y-111898000D02*
X104101200Y-111062100D01*
X107573100Y-114558700D02*
X107573100Y-116361400D01*
X104101200Y-111062100D02*
X104740300Y-110423000D01*
X106043200Y-112968400D02*
X105824800Y-112750000D01*
X104740300Y-110423000D02*
X106383600Y-110423000D01*
X106383600Y-110423000D02*
X107289300Y-111328700D01*
X105824800Y-112750000D02*
X104953200Y-112750000D01*
%TO.N,/USER_LED_K*%
X110276900Y-107512500D02*
X110276900Y-109383500D01*
X111748000Y-106041400D02*
X110276900Y-107512500D01*
%TO.N,/NRST*%
X125490000Y-114993000D02*
X125738700Y-115241700D01*
X110368500Y-111835400D02*
X113527400Y-114994300D01*
X116850900Y-121595100D02*
X119738800Y-124483000D01*
X118458800Y-115158400D02*
X118606600Y-115158400D01*
X115514900Y-115826600D02*
X115514900Y-115977600D01*
X116359000Y-116274400D02*
X116850900Y-116766300D01*
X116850900Y-119167700D02*
X116850900Y-116766300D01*
X113527400Y-114994300D02*
X114682600Y-114994300D01*
X105210000Y-111480000D02*
X105565400Y-111835400D01*
X114682600Y-114994300D02*
X115514900Y-115826600D01*
X115514900Y-115977600D02*
X115811700Y-116274400D01*
X116850900Y-116766300D02*
X118458800Y-115158400D01*
X118772000Y-114993000D02*
X125490000Y-114993000D01*
X105565400Y-111835400D02*
X110368500Y-111835400D01*
X116850900Y-119167700D02*
X116850900Y-121595100D01*
X118606600Y-115158400D02*
X118772000Y-114993000D01*
X115811700Y-116274400D02*
X116359000Y-116274400D01*
%TO.N,/PB2*%
X128780000Y-111480000D02*
X128476500Y-111176500D01*
X125126900Y-111709400D02*
X123148200Y-111709400D01*
X128476500Y-111176500D02*
X125659800Y-111176500D01*
X125659800Y-111176500D02*
X125126900Y-111709400D01*
%TO.N,/PB6*%
X118664100Y-114702400D02*
X118489800Y-114876700D01*
X126259300Y-114702400D02*
X118664100Y-114702400D01*
X126461400Y-114904500D02*
X126259300Y-114702400D01*
X117481800Y-114876700D02*
X116590800Y-115767700D01*
X116590800Y-115767700D02*
X116021600Y-115767700D01*
X111452600Y-113716500D02*
X113649800Y-115913700D01*
X107300200Y-113716500D02*
X111452600Y-113716500D01*
X103840900Y-115389100D02*
X105627600Y-115389100D01*
X102670000Y-116560000D02*
X103840900Y-115389100D01*
X105627600Y-115389100D02*
X107300200Y-113716500D01*
X113649800Y-115913700D02*
X113770500Y-115913700D01*
X118489800Y-114876700D02*
X117481800Y-114876700D01*
%TO.N,/PB7*%
X111097900Y-114001700D02*
X113761800Y-116665600D01*
X118279800Y-114370000D02*
X126215200Y-114370000D01*
X126215200Y-114370000D02*
X126425000Y-114160200D01*
X105210000Y-116560000D02*
X105210000Y-116205200D01*
X105210000Y-116205200D02*
X107413500Y-114001700D01*
X107413500Y-114001700D02*
X111097900Y-114001700D01*
%TO.N,+3.3VA*%
D18*
X117995000Y-119151200D02*
X117862300Y-119283900D01*
X117862300Y-121767400D02*
X119902700Y-123807800D01*
X119902700Y-123807800D02*
X120186400Y-123807800D01*
X120186400Y-123807800D02*
X122215900Y-121778300D01*
X120186400Y-123849000D02*
X120313700Y-123976300D01*
X120186400Y-123807800D02*
X120186400Y-123849000D01*
X117862300Y-119283900D02*
X117862300Y-121767400D01*
%TO.N,/USB_CC1*%
D20*
X120020300Y-107597100D02*
X120305200Y-107882000D01*
X120305200Y-109906200D02*
X121267400Y-110868400D01*
X121267400Y-110868400D02*
X124921400Y-110868400D01*
X120305200Y-107882000D02*
X120305200Y-109906200D01*
X119242100Y-107597100D02*
X120020300Y-107597100D01*
X126285500Y-109504300D02*
X126285500Y-109139900D01*
X118270000Y-106625000D02*
X119242100Y-107597100D01*
X124921400Y-110868400D02*
X126285500Y-109504300D01*
%TO.N,/USB_D-*%
X115588500Y-108878400D02*
X115211100Y-108878400D01*
X116673000Y-106728000D02*
X116673000Y-107793900D01*
X115211100Y-108878400D02*
X114820200Y-109269300D01*
X114820200Y-110465000D02*
X114938600Y-110583400D01*
X116673000Y-107793900D02*
X115588500Y-108878400D01*
X116570000Y-106625000D02*
X116673000Y-106728000D01*
X114820200Y-109269300D02*
X114820200Y-110465000D01*
%TO.N,/USB_D+*%
X117420000Y-106625000D02*
X117420000Y-107445400D01*
D17*
X116570000Y-105275000D02*
X117420000Y-106625000D01*
D20*
X117420000Y-107445400D02*
X115368700Y-109496700D01*
%TO.N,VBUS*%
D18*
X114870000Y-104200000D02*
X119120000Y-104200000D01*
X119120000Y-104200000D02*
X119120000Y-105275000D01*
X114870000Y-105275000D02*
X114870000Y-104200000D01*
%TO.N,/USB_CC2*%
D20*
X115001800Y-108371600D02*
X114901200Y-108371600D01*
X113875600Y-105949900D02*
X115045100Y-105949900D01*
X115045100Y-105949900D02*
X115720000Y-105275000D01*
X114901200Y-108371600D02*
X113433900Y-106904300D01*
X113433900Y-106391600D02*
X113875600Y-105949900D01*
X113433900Y-106904300D02*
X113433900Y-106391600D01*
%TO.N,/PA9*%
X109109900Y-109779800D02*
X108995400Y-109779800D01*
X108995400Y-109779800D02*
X106493000Y-107277400D01*
X116919600Y-113716900D02*
X116919600Y-114641900D01*
X115614100Y-114430900D02*
X113761000Y-114430900D01*
X116919600Y-114641900D02*
X116582300Y-114979200D01*
X113761000Y-114430900D02*
X109109900Y-109779800D01*
X116162400Y-114979200D02*
X115614100Y-114430900D01*
X106493000Y-107277400D02*
X106493000Y-106747800D01*
X116582300Y-114979200D02*
X116162400Y-114979200D01*
%TO.N,/PA10*%
X109322100Y-108991400D02*
X109322100Y-107972100D01*
X109322100Y-107972100D02*
X105210000Y-103860000D01*
%TO.N,/PA8*%
X116045600Y-115260900D02*
X116699100Y-115260900D01*
X108993100Y-110061500D02*
X113644200Y-114712600D01*
X103940000Y-107670000D02*
X106487100Y-107670000D01*
X106487100Y-107670000D02*
X108878600Y-110061500D01*
X108878600Y-110061500D02*
X108993100Y-110061500D01*
X102670000Y-106400000D02*
X103940000Y-107670000D01*
X113644200Y-114712600D02*
X115497300Y-114712600D01*
X117500200Y-114459800D02*
X117500200Y-113210400D01*
X116699100Y-115260900D02*
X117500200Y-114459800D01*
X115497300Y-114712600D02*
X116045600Y-115260900D01*
%TO.N,/PA13*%
X114144400Y-114037600D02*
X109604900Y-109498100D01*
X109604900Y-109498100D02*
X109112200Y-109498100D01*
X105723200Y-105261300D02*
X102278200Y-105261300D01*
X101567000Y-107837000D02*
X102670000Y-108940000D01*
X108815400Y-109201300D02*
X108815400Y-108353500D01*
X115430700Y-113349800D02*
X114742900Y-114037600D01*
X102278200Y-105261300D02*
X101567000Y-105972500D01*
X114742900Y-114037600D02*
X114144400Y-114037600D01*
X108815400Y-108353500D02*
X105723200Y-105261300D01*
X115430700Y-113207300D02*
X115430700Y-113349800D01*
X109112200Y-109498100D02*
X108815400Y-109201300D01*
X101567000Y-105972500D02*
X101567000Y-107837000D01*
%TO.N,/PB5*%
X114318400Y-115386400D02*
X114433100Y-115501100D01*
X113521000Y-115386400D02*
X114318400Y-115386400D01*
X105708300Y-114020000D02*
X106333200Y-113395100D01*
X106333200Y-113395100D02*
X111529700Y-113395100D01*
X105210000Y-114020000D02*
X105708300Y-114020000D01*
X111529700Y-113395100D02*
X113521000Y-115386400D01*
%TO.N,/PB8*%
X113178900Y-116876900D02*
X113752000Y-117450000D01*
X106274800Y-117151600D02*
X106759500Y-117151600D01*
X105809700Y-117616700D02*
X106274800Y-117151600D01*
X106759500Y-117151600D02*
X107034200Y-116876900D01*
X104153300Y-117616700D02*
X105809700Y-117616700D01*
X107034200Y-116876900D02*
X113178900Y-116876900D01*
X102670000Y-119100000D02*
X104153300Y-117616700D01*
%TO.N,/PB9*%
X105210000Y-119100000D02*
X106565600Y-117744400D01*
X106565600Y-117744400D02*
X110938400Y-117744400D01*
%TO.N,/PC13*%
X103840900Y-118951200D02*
X104822100Y-117970000D01*
X118522500Y-112702100D02*
X118965800Y-113145400D01*
X116372300Y-114472500D02*
X116372300Y-113521500D01*
X105854900Y-117970000D02*
X106391600Y-117433300D01*
X118965800Y-113145400D02*
X118965800Y-113278500D01*
X129187400Y-105307700D02*
X124346900Y-105307700D01*
X113756600Y-119084700D02*
X116060100Y-116781200D01*
X103840900Y-120469100D02*
X103840900Y-118951200D01*
X118965800Y-113278500D02*
X119436000Y-113748700D01*
X102670000Y-121640000D02*
X103840900Y-120469100D01*
X125189700Y-112536700D02*
X129307300Y-112536700D01*
X104822100Y-117970000D02*
X105854900Y-117970000D01*
X117191700Y-112702100D02*
X118522500Y-112702100D01*
X129863200Y-105983500D02*
X129187400Y-105307700D01*
X129863200Y-111980800D02*
X129863200Y-105983500D01*
X116372300Y-113521500D02*
X117191700Y-112702100D01*
X106391600Y-117433300D02*
X106876300Y-117433300D01*
X106876300Y-117433300D02*
X107087700Y-117221900D01*
X111893800Y-117221900D02*
X113756600Y-119084700D01*
X129307300Y-112536700D02*
X129863200Y-111980800D01*
X119436000Y-113748700D02*
X123977700Y-113748700D01*
X123977700Y-113748700D02*
X125189700Y-112536700D01*
X107087700Y-117221900D02*
X111893800Y-117221900D01*
%TO.N,/PC14*%
X105326800Y-121523200D02*
X111116600Y-121523200D01*
X111116600Y-121523200D02*
X111183600Y-121590200D01*
X111183600Y-121590200D02*
X112284700Y-121590200D01*
X105210000Y-121640000D02*
X105326800Y-121523200D01*
X112284700Y-121590200D02*
X114685600Y-119189300D01*
%TO.N,/PC15*%
X110917400Y-121862700D02*
X111014000Y-121959300D01*
X102670000Y-124180000D02*
X103940000Y-122910000D01*
X112712200Y-121959300D02*
X115478500Y-119193000D01*
X111014000Y-121959300D02*
X112712200Y-121959300D01*
X103940000Y-122910000D02*
X108160000Y-122910000D01*
X108160000Y-122910000D02*
X109207300Y-121862700D01*
X109207300Y-121862700D02*
X110917400Y-121862700D01*
%TO.N,/PB15*%
X119103100Y-114030400D02*
X124094500Y-114030400D01*
X125306500Y-112818400D02*
X129424100Y-112818400D01*
X130144900Y-112097600D02*
X130144900Y-105224900D01*
X130144900Y-105224900D02*
X128780000Y-103860000D01*
X118297700Y-113225000D02*
X119103100Y-114030400D01*
X129424100Y-112818400D02*
X130144900Y-112097600D01*
X124094500Y-114030400D02*
X125306500Y-112818400D01*
%TO.N,/PB14*%
X119733300Y-113306700D02*
X119633900Y-113207300D01*
X125298100Y-112254800D02*
X124558700Y-112254800D01*
X124558700Y-112254800D02*
X123506800Y-113306700D01*
X125869700Y-111683200D02*
X125298100Y-112254800D01*
X123506800Y-113306700D02*
X119733300Y-113306700D01*
%TO.N,/PB13*%
X120439100Y-111184500D02*
X125003900Y-111184500D01*
X128780000Y-107408400D02*
X128780000Y-106400000D01*
X120332200Y-111077600D02*
X120439100Y-111184500D01*
X125003900Y-111184500D02*
X128780000Y-107408400D01*
%TO.N,/PB12*%
X121162000Y-112716700D02*
X122507800Y-112716700D01*
X120285600Y-111840300D02*
X121162000Y-112716700D01*
%TO.N,/PB0*%
X126999900Y-115800100D02*
X128780000Y-114020000D01*
X122740000Y-115526900D02*
X123013200Y-115800100D01*
X119729400Y-115526900D02*
X122740000Y-115526900D01*
X123013200Y-115800100D02*
X126999900Y-115800100D01*
%TO.N,/PA7*%
X128124500Y-115472500D02*
X129867500Y-115472500D01*
X119767700Y-116804000D02*
X126793000Y-116804000D01*
X129867500Y-115472500D02*
X131320000Y-114020000D01*
X119692700Y-116879000D02*
X119767700Y-116804000D01*
X126793000Y-116804000D02*
X128124500Y-115472500D01*
%TO.N,/PA6*%
X128780000Y-116560000D02*
X127970400Y-117369600D01*
X127970400Y-117369600D02*
X122274100Y-117369600D01*
%TO.N,/PA5*%
X119719600Y-117616300D02*
X119987500Y-117884200D01*
X129995800Y-117884200D02*
X131320000Y-116560000D01*
X119987500Y-117884200D02*
X129995800Y-117884200D01*
%TO.N,/PA4*%
X127845900Y-118165900D02*
X128780000Y-119100000D01*
X119419200Y-118165900D02*
X127845900Y-118165900D01*
X118977200Y-117723900D02*
X119419200Y-118165900D01*
%TO.N,/PA3*%
X126577400Y-120176600D02*
X130243400Y-120176600D01*
X119251800Y-118447600D02*
X124848400Y-118447600D01*
X119113100Y-118586300D02*
X119251800Y-118447600D01*
X124848400Y-118447600D02*
X126577400Y-120176600D01*
X130243400Y-120176600D02*
X131320000Y-119100000D01*
%TO.N,/PA2*%
X122801300Y-120362500D02*
X120596000Y-120362500D01*
X128631000Y-121491000D02*
X123929800Y-121491000D01*
X123929800Y-121491000D02*
X122801300Y-120362500D01*
X128780000Y-121640000D02*
X128631000Y-121491000D01*
%TO.N,/PA1*%
X126466800Y-120522400D02*
X130202400Y-120522400D01*
X118852600Y-119101700D02*
X121692600Y-119101700D01*
X121692600Y-119101700D02*
X122065000Y-118729300D01*
X122065000Y-118729300D02*
X124673700Y-118729300D01*
X124673700Y-118729300D02*
X126466800Y-120522400D01*
X118165000Y-118414100D02*
X118852600Y-119101700D01*
X130202400Y-120522400D02*
X131320000Y-121640000D01*
%TO.N,/PA0*%
X118754900Y-121271600D02*
X123172000Y-121271600D01*
X123172000Y-121271600D02*
X123714000Y-121813600D01*
X118494500Y-121532000D02*
X118754900Y-121271600D01*
X126413600Y-121813600D02*
X128780000Y-124180000D01*
X123714000Y-121813600D02*
X126413600Y-121813600D01*
%TD*%
%TA.AperFunction,Conductor*%
%TO.N,GND*%
G36*
X116521345Y-117124511D02*
G01*
X116564610Y-117167776D01*
X116575400Y-117212721D01*
X116575400Y-118694379D01*
X116556493Y-118752570D01*
X116546404Y-118764383D01*
X116543588Y-118767198D01*
X116543586Y-118767200D01*
X116484586Y-118826200D01*
X116450397Y-118860389D01*
X116450396Y-118860390D01*
X116384509Y-118974509D01*
X116371727Y-119022215D01*
X116350400Y-119101808D01*
X116350400Y-119233592D01*
X116362270Y-119277890D01*
X116384509Y-119360890D01*
X116450396Y-119475009D01*
X116450398Y-119475011D01*
X116450400Y-119475014D01*
X116543586Y-119568200D01*
X116543588Y-119568201D01*
X116546404Y-119571017D01*
X116574181Y-119625534D01*
X116575400Y-119641021D01*
X116575400Y-121649900D01*
X116589442Y-121683800D01*
X116610199Y-121733912D01*
X116613595Y-121742109D01*
X116617343Y-121751158D01*
X119209305Y-124343121D01*
X119237081Y-124397636D01*
X119238300Y-124413123D01*
X119238300Y-124417108D01*
X119238300Y-124548892D01*
X119253347Y-124605049D01*
X119272409Y-124676190D01*
X119338296Y-124790309D01*
X119338298Y-124790311D01*
X119338300Y-124790314D01*
X119431486Y-124883500D01*
X119431488Y-124883501D01*
X119431490Y-124883503D01*
X119545610Y-124949390D01*
X119545608Y-124949390D01*
X119545612Y-124949391D01*
X119545614Y-124949392D01*
X119672908Y-124983500D01*
X119672910Y-124983500D01*
X119804690Y-124983500D01*
X119804692Y-124983500D01*
X119931986Y-124949392D01*
X119931988Y-124949390D01*
X119931990Y-124949390D01*
X120046109Y-124883503D01*
X120046109Y-124883502D01*
X120046114Y-124883500D01*
X120139300Y-124790314D01*
X120152618Y-124767247D01*
X120205190Y-124676190D01*
X120205190Y-124676188D01*
X120205192Y-124676186D01*
X120238956Y-124550175D01*
X120272279Y-124498863D01*
X120329400Y-124476936D01*
X120334582Y-124476800D01*
X120379590Y-124476800D01*
X120379592Y-124476800D01*
X120506886Y-124442692D01*
X120506888Y-124442690D01*
X120506890Y-124442690D01*
X120621009Y-124376803D01*
X120621009Y-124376802D01*
X120621014Y-124376800D01*
X120714200Y-124283614D01*
X120780092Y-124169486D01*
X120814200Y-124042192D01*
X120814200Y-123910408D01*
X120780092Y-123783114D01*
X120780089Y-123783110D01*
X120779389Y-123780495D01*
X120782591Y-123719394D01*
X120805010Y-123684870D01*
X122182085Y-122307796D01*
X122236602Y-122280019D01*
X122252089Y-122278800D01*
X122281790Y-122278800D01*
X122281792Y-122278800D01*
X122409086Y-122244692D01*
X122409088Y-122244690D01*
X122409090Y-122244690D01*
X122523209Y-122178803D01*
X122523209Y-122178802D01*
X122523214Y-122178800D01*
X122616400Y-122085614D01*
X122635454Y-122052612D01*
X122682290Y-121971490D01*
X122682290Y-121971488D01*
X122682292Y-121971486D01*
X122716400Y-121844192D01*
X122716400Y-121712408D01*
X122705498Y-121671721D01*
X122708701Y-121610622D01*
X122747206Y-121563072D01*
X122801125Y-121547100D01*
X123016877Y-121547100D01*
X123075068Y-121566007D01*
X123086880Y-121576095D01*
X123556291Y-122045507D01*
X123584067Y-122100022D01*
X123574496Y-122160454D01*
X123531231Y-122203718D01*
X123352194Y-122294942D01*
X123352180Y-122294950D01*
X123180213Y-122419891D01*
X123029891Y-122570213D01*
X122904950Y-122742180D01*
X122904948Y-122742184D01*
X122808443Y-122931587D01*
X122742752Y-123133761D01*
X122709500Y-123343709D01*
X122709500Y-123556290D01*
X122742752Y-123766238D01*
X122808443Y-123968412D01*
X122904948Y-124157815D01*
X122904950Y-124157819D01*
X123029891Y-124329786D01*
X123029893Y-124329788D01*
X123029896Y-124329792D01*
X123180208Y-124480104D01*
X123180211Y-124480106D01*
X123180213Y-124480108D01*
X123352180Y-124605049D01*
X123352184Y-124605051D01*
X123541588Y-124701557D01*
X123743757Y-124767246D01*
X123743758Y-124767246D01*
X123743761Y-124767247D01*
X123953710Y-124800500D01*
X123953713Y-124800500D01*
X124166290Y-124800500D01*
X124376238Y-124767247D01*
X124376239Y-124767246D01*
X124376243Y-124767246D01*
X124578412Y-124701557D01*
X124767816Y-124605051D01*
X124939792Y-124480104D01*
X125090104Y-124329792D01*
X125173402Y-124215141D01*
X125215049Y-124157819D01*
X125215051Y-124157816D01*
X125311557Y-123968412D01*
X125377246Y-123766243D01*
X125390135Y-123684868D01*
X125410500Y-123556290D01*
X125410500Y-123343709D01*
X125377247Y-123133761D01*
X125366589Y-123100958D01*
X125311557Y-122931588D01*
X125215051Y-122742184D01*
X125215049Y-122742180D01*
X125090108Y-122570213D01*
X125090106Y-122570211D01*
X125090104Y-122570208D01*
X124939792Y-122419896D01*
X124939788Y-122419893D01*
X124939786Y-122419891D01*
X124767819Y-122294950D01*
X124767815Y-122294948D01*
X124731235Y-122276310D01*
X124687970Y-122233045D01*
X124678399Y-122172613D01*
X124706176Y-122118096D01*
X124760693Y-122090319D01*
X124776180Y-122089100D01*
X126258477Y-122089100D01*
X126316668Y-122108007D01*
X126328481Y-122118096D01*
X127815092Y-123604707D01*
X127842869Y-123659224D01*
X127836552Y-123712596D01*
X127826598Y-123736628D01*
X127769869Y-123873581D01*
X127729500Y-124076532D01*
X127729500Y-124283467D01*
X127769869Y-124486418D01*
X127849058Y-124677597D01*
X127924373Y-124790314D01*
X127964023Y-124849655D01*
X128110345Y-124995977D01*
X128110348Y-124995979D01*
X128143580Y-125018184D01*
X128181460Y-125066234D01*
X128183862Y-125127373D01*
X128149869Y-125178246D01*
X128092466Y-125199424D01*
X128088579Y-125199500D01*
X103361421Y-125199500D01*
X103303230Y-125180593D01*
X103267266Y-125131093D01*
X103267266Y-125069907D01*
X103303230Y-125020407D01*
X103306420Y-125018184D01*
X103315152Y-125012348D01*
X103339655Y-124995977D01*
X103485977Y-124849655D01*
X103600941Y-124677598D01*
X103680130Y-124486420D01*
X103720500Y-124283465D01*
X103720500Y-124076535D01*
X103680130Y-123873580D01*
X103613446Y-123712593D01*
X103608646Y-123651599D01*
X103634906Y-123604708D01*
X104025120Y-123214496D01*
X104079636Y-123186719D01*
X104095123Y-123185500D01*
X108214799Y-123185500D01*
X108214800Y-123185500D01*
X108316058Y-123143557D01*
X108373762Y-123085853D01*
X108393558Y-123066058D01*
X108459251Y-123000364D01*
X108513767Y-122972586D01*
X108574199Y-122982157D01*
X108617464Y-123025421D01*
X108627036Y-123085853D01*
X108623410Y-123100958D01*
X108612753Y-123133757D01*
X108579500Y-123343709D01*
X108579500Y-123556290D01*
X108612752Y-123766238D01*
X108678443Y-123968412D01*
X108774948Y-124157815D01*
X108774950Y-124157819D01*
X108899891Y-124329786D01*
X108899893Y-124329788D01*
X108899896Y-124329792D01*
X109050208Y-124480104D01*
X109050211Y-124480106D01*
X109050213Y-124480108D01*
X109222180Y-124605049D01*
X109222184Y-124605051D01*
X109411588Y-124701557D01*
X109613757Y-124767246D01*
X109613758Y-124767246D01*
X109613761Y-124767247D01*
X109823710Y-124800500D01*
X109823713Y-124800500D01*
X110036290Y-124800500D01*
X110246238Y-124767247D01*
X110246239Y-124767246D01*
X110246243Y-124767246D01*
X110448412Y-124701557D01*
X110637816Y-124605051D01*
X110809792Y-124480104D01*
X110960104Y-124329792D01*
X111043402Y-124215141D01*
X111085049Y-124157819D01*
X111085051Y-124157816D01*
X111181557Y-123968412D01*
X111247246Y-123766243D01*
X111260135Y-123684868D01*
X111280500Y-123556290D01*
X111280500Y-123343709D01*
X111247247Y-123133761D01*
X111236589Y-123100958D01*
X111181557Y-122931588D01*
X111085051Y-122742184D01*
X111085049Y-122742180D01*
X110960108Y-122570213D01*
X110960106Y-122570211D01*
X110960104Y-122570208D01*
X110809792Y-122419896D01*
X110668569Y-122317292D01*
X110632606Y-122267793D01*
X110632606Y-122206608D01*
X110668570Y-122157107D01*
X110726761Y-122138200D01*
X110762277Y-122138200D01*
X110820468Y-122157107D01*
X110832279Y-122167195D01*
X110857729Y-122192644D01*
X110857942Y-122192857D01*
X110959200Y-122234800D01*
X110959201Y-122234800D01*
X112766999Y-122234800D01*
X112767000Y-122234800D01*
X112868258Y-122192857D01*
X112945757Y-122115358D01*
X115338618Y-119722495D01*
X115393135Y-119694719D01*
X115408622Y-119693500D01*
X115544390Y-119693500D01*
X115544392Y-119693500D01*
X115671686Y-119659392D01*
X115671688Y-119659390D01*
X115671690Y-119659390D01*
X115785809Y-119593503D01*
X115785809Y-119593502D01*
X115785814Y-119593500D01*
X115879000Y-119500314D01*
X115884310Y-119491117D01*
X115944890Y-119386190D01*
X115944890Y-119386188D01*
X115944892Y-119386186D01*
X115979000Y-119258892D01*
X115979000Y-119127108D01*
X115944892Y-118999814D01*
X115944890Y-118999811D01*
X115944890Y-118999809D01*
X115879003Y-118885690D01*
X115879001Y-118885688D01*
X115879000Y-118885686D01*
X115785814Y-118792500D01*
X115785811Y-118792498D01*
X115785809Y-118792496D01*
X115671689Y-118726609D01*
X115671691Y-118726609D01*
X115609203Y-118709866D01*
X115544392Y-118692500D01*
X115412608Y-118692500D01*
X115347797Y-118709866D01*
X115285309Y-118726609D01*
X115171190Y-118792496D01*
X115171184Y-118792501D01*
X115153902Y-118809783D01*
X115099385Y-118837559D01*
X115038953Y-118827987D01*
X115013898Y-118809783D01*
X114992915Y-118788801D01*
X114992909Y-118788796D01*
X114878789Y-118722909D01*
X114878791Y-118722909D01*
X114772313Y-118694379D01*
X114751990Y-118688933D01*
X114700677Y-118655610D01*
X114678750Y-118598488D01*
X114694586Y-118539388D01*
X114707605Y-118523308D01*
X115920218Y-117310696D01*
X115974735Y-117282919D01*
X115990222Y-117281700D01*
X116125990Y-117281700D01*
X116125992Y-117281700D01*
X116253286Y-117247592D01*
X116253288Y-117247590D01*
X116253290Y-117247590D01*
X116367409Y-117181703D01*
X116367409Y-117181702D01*
X116367414Y-117181700D01*
X116406398Y-117142715D01*
X116460913Y-117114940D01*
X116521345Y-117124511D01*
G37*
%TD.AperFunction*%
%TA.AperFunction,Conductor*%
G36*
X133497696Y-100301719D02*
G01*
X133512753Y-100304103D01*
X133536162Y-100307811D01*
X133565614Y-100317379D01*
X133593294Y-100331483D01*
X133618347Y-100349685D01*
X133640314Y-100371652D01*
X133658517Y-100396707D01*
X133672618Y-100424381D01*
X133682188Y-100453835D01*
X133688281Y-100492301D01*
X133689500Y-100507789D01*
X133689500Y-124992208D01*
X133688281Y-125007697D01*
X133682188Y-125046161D01*
X133672618Y-125075614D01*
X133658519Y-125103287D01*
X133640312Y-125128349D01*
X133618349Y-125150312D01*
X133593287Y-125168519D01*
X133565614Y-125182618D01*
X133536162Y-125192188D01*
X133514537Y-125195613D01*
X133497692Y-125198281D01*
X133482209Y-125199500D01*
X132011421Y-125199500D01*
X131953230Y-125180593D01*
X131917266Y-125131093D01*
X131917266Y-125069907D01*
X131953230Y-125020407D01*
X131956420Y-125018184D01*
X131965152Y-125012348D01*
X131989655Y-124995977D01*
X132135977Y-124849655D01*
X132250941Y-124677598D01*
X132330130Y-124486420D01*
X132370500Y-124283465D01*
X132370500Y-124076535D01*
X132330130Y-123873580D01*
X132250941Y-123682402D01*
X132135977Y-123510345D01*
X131989655Y-123364023D01*
X131989651Y-123364020D01*
X131817597Y-123249058D01*
X131626418Y-123169869D01*
X131423467Y-123129500D01*
X131423465Y-123129500D01*
X131216535Y-123129500D01*
X131216532Y-123129500D01*
X131013581Y-123169869D01*
X130822402Y-123249058D01*
X130650348Y-123364020D01*
X130504020Y-123510348D01*
X130389058Y-123682402D01*
X130309869Y-123873581D01*
X130269500Y-124076532D01*
X130269500Y-124283467D01*
X130309869Y-124486418D01*
X130389058Y-124677597D01*
X130464373Y-124790314D01*
X130504023Y-124849655D01*
X130650345Y-124995977D01*
X130650348Y-124995979D01*
X130683580Y-125018184D01*
X130721460Y-125066234D01*
X130723862Y-125127373D01*
X130689869Y-125178246D01*
X130632466Y-125199424D01*
X130628579Y-125199500D01*
X129471421Y-125199500D01*
X129413230Y-125180593D01*
X129377266Y-125131093D01*
X129377266Y-125069907D01*
X129413230Y-125020407D01*
X129416420Y-125018184D01*
X129425152Y-125012348D01*
X129449655Y-124995977D01*
X129595977Y-124849655D01*
X129710941Y-124677598D01*
X129790130Y-124486420D01*
X129830500Y-124283465D01*
X129830500Y-124076535D01*
X129790130Y-123873580D01*
X129710941Y-123682402D01*
X129595977Y-123510345D01*
X129449655Y-123364023D01*
X129449651Y-123364020D01*
X129277597Y-123249058D01*
X129086418Y-123169869D01*
X128883467Y-123129500D01*
X128883465Y-123129500D01*
X128676535Y-123129500D01*
X128676532Y-123129500D01*
X128473581Y-123169869D01*
X128365844Y-123214496D01*
X128312596Y-123236552D01*
X128251600Y-123241353D01*
X128204707Y-123215092D01*
X126925119Y-121935504D01*
X126897342Y-121880987D01*
X126906913Y-121820555D01*
X126950178Y-121777290D01*
X126995123Y-121766500D01*
X127652834Y-121766500D01*
X127711025Y-121785407D01*
X127746989Y-121834907D01*
X127749932Y-121846186D01*
X127769869Y-121946416D01*
X127769870Y-121946420D01*
X127780750Y-121972686D01*
X127849058Y-122137597D01*
X127962781Y-122307796D01*
X127964023Y-122309655D01*
X128110345Y-122455977D01*
X128282402Y-122570941D01*
X128473580Y-122650130D01*
X128676535Y-122690500D01*
X128676536Y-122690500D01*
X128883464Y-122690500D01*
X128883465Y-122690500D01*
X129086420Y-122650130D01*
X129277598Y-122570941D01*
X129449655Y-122455977D01*
X129595977Y-122309655D01*
X129710941Y-122137598D01*
X129790130Y-121946420D01*
X129830500Y-121743465D01*
X129830500Y-121536535D01*
X129790130Y-121333580D01*
X129710941Y-121142402D01*
X129595977Y-120970345D01*
X129592533Y-120966901D01*
X129564758Y-120912387D01*
X129574329Y-120851955D01*
X129617594Y-120808690D01*
X129662539Y-120797900D01*
X130047278Y-120797900D01*
X130105469Y-120816807D01*
X130117282Y-120826897D01*
X130355091Y-121064707D01*
X130382868Y-121119223D01*
X130376551Y-121172595D01*
X130309870Y-121333578D01*
X130309870Y-121333580D01*
X130269500Y-121536532D01*
X130269500Y-121743467D01*
X130309869Y-121946416D01*
X130309870Y-121946420D01*
X130320750Y-121972686D01*
X130389058Y-122137597D01*
X130502781Y-122307796D01*
X130504023Y-122309655D01*
X130650345Y-122455977D01*
X130822402Y-122570941D01*
X131013580Y-122650130D01*
X131216535Y-122690500D01*
X131216536Y-122690500D01*
X131423464Y-122690500D01*
X131423465Y-122690500D01*
X131626420Y-122650130D01*
X131817598Y-122570941D01*
X131989655Y-122455977D01*
X132135977Y-122309655D01*
X132250941Y-122137598D01*
X132330130Y-121946420D01*
X132370500Y-121743465D01*
X132370500Y-121536535D01*
X132330130Y-121333580D01*
X132250941Y-121142402D01*
X132135977Y-120970345D01*
X131989655Y-120824023D01*
X131979155Y-120817007D01*
X131817597Y-120709058D01*
X131626418Y-120629869D01*
X131423467Y-120589500D01*
X131423465Y-120589500D01*
X131216535Y-120589500D01*
X131216532Y-120589500D01*
X131013580Y-120629870D01*
X131013578Y-120629870D01*
X130852596Y-120696551D01*
X130791600Y-120701352D01*
X130744707Y-120675091D01*
X130509619Y-120440003D01*
X130481842Y-120385486D01*
X130491413Y-120325054D01*
X130509622Y-120299993D01*
X130523727Y-120285888D01*
X130523728Y-120285885D01*
X130744708Y-120064906D01*
X130799223Y-120037130D01*
X130852593Y-120043446D01*
X131013580Y-120110130D01*
X131216535Y-120150500D01*
X131216536Y-120150500D01*
X131423464Y-120150500D01*
X131423465Y-120150500D01*
X131626420Y-120110130D01*
X131817598Y-120030941D01*
X131989655Y-119915977D01*
X132135977Y-119769655D01*
X132250941Y-119597598D01*
X132330130Y-119406420D01*
X132370500Y-119203465D01*
X132370500Y-118996535D01*
X132330130Y-118793580D01*
X132250941Y-118602402D01*
X132135977Y-118430345D01*
X131989655Y-118284023D01*
X131982117Y-118278986D01*
X131817597Y-118169058D01*
X131626418Y-118089869D01*
X131423467Y-118049500D01*
X131423465Y-118049500D01*
X131216535Y-118049500D01*
X131216532Y-118049500D01*
X131013581Y-118089869D01*
X130822402Y-118169058D01*
X130650348Y-118284020D01*
X130504020Y-118430348D01*
X130389058Y-118602402D01*
X130309869Y-118793581D01*
X130269500Y-118996532D01*
X130269500Y-119203467D01*
X130280525Y-119258892D01*
X130307004Y-119392014D01*
X130309870Y-119406419D01*
X130309870Y-119406421D01*
X130376551Y-119567403D01*
X130381352Y-119628399D01*
X130355091Y-119675291D01*
X130158282Y-119872103D01*
X130103766Y-119899881D01*
X130088278Y-119901100D01*
X129693364Y-119901100D01*
X129635173Y-119882193D01*
X129599209Y-119832693D01*
X129599209Y-119771507D01*
X129611048Y-119747099D01*
X129646047Y-119694719D01*
X129710941Y-119597598D01*
X129790130Y-119406420D01*
X129830500Y-119203465D01*
X129830500Y-118996535D01*
X129790130Y-118793580D01*
X129710941Y-118602402D01*
X129595977Y-118430345D01*
X129494333Y-118328701D01*
X129466558Y-118274187D01*
X129476129Y-118213755D01*
X129519394Y-118170490D01*
X129564339Y-118159700D01*
X130050599Y-118159700D01*
X130050600Y-118159700D01*
X130151858Y-118117757D01*
X130229357Y-118040258D01*
X130229356Y-118040258D01*
X130744707Y-117524907D01*
X130799223Y-117497131D01*
X130852596Y-117503448D01*
X130897444Y-117522024D01*
X131013580Y-117570130D01*
X131216535Y-117610500D01*
X131216536Y-117610500D01*
X131423464Y-117610500D01*
X131423465Y-117610500D01*
X131626420Y-117570130D01*
X131817598Y-117490941D01*
X131989655Y-117375977D01*
X132135977Y-117229655D01*
X132250941Y-117057598D01*
X132330130Y-116866420D01*
X132370500Y-116663465D01*
X132370500Y-116456535D01*
X132330130Y-116253580D01*
X132250941Y-116062402D01*
X132135977Y-115890345D01*
X131989655Y-115744023D01*
X131989651Y-115744020D01*
X131817597Y-115629058D01*
X131626418Y-115549869D01*
X131423467Y-115509500D01*
X131423465Y-115509500D01*
X131216535Y-115509500D01*
X131216532Y-115509500D01*
X131013581Y-115549869D01*
X130822402Y-115629058D01*
X130650348Y-115744020D01*
X130504020Y-115890348D01*
X130389058Y-116062402D01*
X130309869Y-116253581D01*
X130269500Y-116456532D01*
X130269500Y-116456535D01*
X130269500Y-116663465D01*
X130308931Y-116861701D01*
X130309870Y-116866419D01*
X130309870Y-116866421D01*
X130376551Y-117027403D01*
X130381352Y-117088399D01*
X130355091Y-117135291D01*
X129910682Y-117579703D01*
X129856165Y-117607481D01*
X129840678Y-117608700D01*
X129427719Y-117608700D01*
X129369528Y-117589793D01*
X129333564Y-117540293D01*
X129333564Y-117479107D01*
X129369528Y-117429607D01*
X129372718Y-117427384D01*
X129379116Y-117423109D01*
X129449655Y-117375977D01*
X129595977Y-117229655D01*
X129710941Y-117057598D01*
X129790130Y-116866420D01*
X129830500Y-116663465D01*
X129830500Y-116456535D01*
X129790130Y-116253580D01*
X129710941Y-116062402D01*
X129603764Y-115902000D01*
X129587157Y-115843113D01*
X129608335Y-115785709D01*
X129659209Y-115751717D01*
X129686081Y-115748000D01*
X129922299Y-115748000D01*
X129922300Y-115748000D01*
X130023558Y-115706057D01*
X130101057Y-115628558D01*
X130101056Y-115628558D01*
X130744707Y-114984907D01*
X130799223Y-114957131D01*
X130852596Y-114963448D01*
X130886682Y-114977567D01*
X131013580Y-115030130D01*
X131216535Y-115070500D01*
X131216536Y-115070500D01*
X131423464Y-115070500D01*
X131423465Y-115070500D01*
X131626420Y-115030130D01*
X131817598Y-114950941D01*
X131989655Y-114835977D01*
X132135977Y-114689655D01*
X132250941Y-114517598D01*
X132330130Y-114326420D01*
X132370500Y-114123465D01*
X132370500Y-113916535D01*
X132330130Y-113713580D01*
X132250941Y-113522402D01*
X132135977Y-113350345D01*
X131989655Y-113204023D01*
X131961140Y-113184970D01*
X131817597Y-113089058D01*
X131626418Y-113009869D01*
X131423467Y-112969500D01*
X131423465Y-112969500D01*
X131216535Y-112969500D01*
X131216532Y-112969500D01*
X131013581Y-113009869D01*
X130822402Y-113089058D01*
X130650348Y-113204020D01*
X130504020Y-113350348D01*
X130389058Y-113522402D01*
X130309869Y-113713581D01*
X130269500Y-113916532D01*
X130269500Y-114123467D01*
X130283462Y-114193656D01*
X130303840Y-114296107D01*
X130309870Y-114326419D01*
X130309870Y-114326421D01*
X130376551Y-114487403D01*
X130381352Y-114548399D01*
X130355091Y-114595291D01*
X129782382Y-115168003D01*
X129727865Y-115195781D01*
X129712378Y-115197000D01*
X129181266Y-115197000D01*
X129123075Y-115178093D01*
X129087111Y-115128593D01*
X129087111Y-115067407D01*
X129123075Y-115017907D01*
X129143378Y-115006536D01*
X129277598Y-114950941D01*
X129449655Y-114835977D01*
X129595977Y-114689655D01*
X129710941Y-114517598D01*
X129790130Y-114326420D01*
X129830500Y-114123465D01*
X129830500Y-113916535D01*
X129790130Y-113713580D01*
X129710941Y-113522402D01*
X129595977Y-113350345D01*
X129485116Y-113239484D01*
X129457341Y-113184970D01*
X129466912Y-113124538D01*
X129510177Y-113081273D01*
X129517213Y-113078029D01*
X129580158Y-113051957D01*
X129657657Y-112974458D01*
X129657656Y-112974458D01*
X130378457Y-112253659D01*
X130388996Y-112228214D01*
X130428730Y-112181689D01*
X130488224Y-112167404D01*
X130544753Y-112190817D01*
X130550450Y-112196082D01*
X130650345Y-112295977D01*
X130822402Y-112410941D01*
X131013580Y-112490130D01*
X131216535Y-112530500D01*
X131216536Y-112530500D01*
X131423464Y-112530500D01*
X131423465Y-112530500D01*
X131626420Y-112490130D01*
X131817598Y-112410941D01*
X131989655Y-112295977D01*
X132135977Y-112149655D01*
X132250941Y-111977598D01*
X132330130Y-111786420D01*
X132370500Y-111583465D01*
X132370500Y-111376535D01*
X132330130Y-111173580D01*
X132250941Y-110982402D01*
X132135977Y-110810345D01*
X131989655Y-110664023D01*
X131976093Y-110654961D01*
X131817597Y-110549058D01*
X131626418Y-110469869D01*
X131423467Y-110429500D01*
X131423465Y-110429500D01*
X131216535Y-110429500D01*
X131216532Y-110429500D01*
X131013581Y-110469869D01*
X130822402Y-110549058D01*
X130650348Y-110664020D01*
X130650345Y-110664022D01*
X130650345Y-110664023D01*
X130589401Y-110724966D01*
X130534887Y-110752742D01*
X130474455Y-110743171D01*
X130431190Y-110699906D01*
X130420400Y-110654961D01*
X130420400Y-109765039D01*
X130439307Y-109706848D01*
X130488807Y-109670884D01*
X130549993Y-109670884D01*
X130589401Y-109695033D01*
X130650345Y-109755977D01*
X130822402Y-109870941D01*
X131013580Y-109950130D01*
X131216535Y-109990500D01*
X131216536Y-109990500D01*
X131423464Y-109990500D01*
X131423465Y-109990500D01*
X131626420Y-109950130D01*
X131817598Y-109870941D01*
X131989655Y-109755977D01*
X132135977Y-109609655D01*
X132250941Y-109437598D01*
X132330130Y-109246420D01*
X132370500Y-109043465D01*
X132370500Y-108836535D01*
X132330130Y-108633580D01*
X132250941Y-108442402D01*
X132135977Y-108270345D01*
X131989655Y-108124023D01*
X131989651Y-108124020D01*
X131817597Y-108009058D01*
X131626418Y-107929869D01*
X131423467Y-107889500D01*
X131423465Y-107889500D01*
X131216535Y-107889500D01*
X131216532Y-107889500D01*
X131013581Y-107929869D01*
X130822402Y-108009058D01*
X130650348Y-108124020D01*
X130650345Y-108124022D01*
X130650345Y-108124023D01*
X130589401Y-108184966D01*
X130534887Y-108212742D01*
X130474455Y-108203171D01*
X130431190Y-108159906D01*
X130420400Y-108114961D01*
X130420400Y-107225039D01*
X130439307Y-107166848D01*
X130488807Y-107130884D01*
X130549993Y-107130884D01*
X130589401Y-107155033D01*
X130650345Y-107215977D01*
X130822402Y-107330941D01*
X131013580Y-107410130D01*
X131216535Y-107450500D01*
X131216536Y-107450500D01*
X131423464Y-107450500D01*
X131423465Y-107450500D01*
X131626420Y-107410130D01*
X131817598Y-107330941D01*
X131914526Y-107266176D01*
X131973411Y-107249568D01*
X132030815Y-107270745D01*
X132055261Y-107298991D01*
X132074497Y-107332308D01*
X132074500Y-107332313D01*
X132167686Y-107425499D01*
X132167688Y-107425500D01*
X132167690Y-107425502D01*
X132281810Y-107491389D01*
X132281808Y-107491389D01*
X132281812Y-107491390D01*
X132281814Y-107491391D01*
X132409108Y-107525499D01*
X132409110Y-107525499D01*
X132540890Y-107525499D01*
X132540892Y-107525499D01*
X132668186Y-107491391D01*
X132668188Y-107491389D01*
X132668190Y-107491389D01*
X132782309Y-107425502D01*
X132782309Y-107425501D01*
X132782314Y-107425499D01*
X132875500Y-107332313D01*
X132881685Y-107321600D01*
X132941390Y-107218189D01*
X132941390Y-107218187D01*
X132941392Y-107218185D01*
X132975500Y-107090891D01*
X132975500Y-106959107D01*
X132941392Y-106831813D01*
X132941390Y-106831810D01*
X132941390Y-106831808D01*
X132875503Y-106717689D01*
X132875501Y-106717687D01*
X132875500Y-106717685D01*
X132804494Y-106646679D01*
X132776719Y-106592165D01*
X132775500Y-106576678D01*
X132775500Y-105835434D01*
X132770019Y-105814983D01*
X132770010Y-105814953D01*
X132755024Y-105759019D01*
X132755023Y-105759018D01*
X132755022Y-105759012D01*
X132715461Y-105690490D01*
X132359511Y-105334539D01*
X132359510Y-105334538D01*
X132290990Y-105294978D01*
X132290988Y-105294977D01*
X132287865Y-105294140D01*
X132285065Y-105292523D01*
X132284994Y-105292494D01*
X132284997Y-105292484D01*
X132243492Y-105268519D01*
X132059510Y-105084538D01*
X132059508Y-105084537D01*
X132054097Y-105081413D01*
X132054093Y-105081409D01*
X132054093Y-105081411D01*
X131990989Y-105044978D01*
X131990988Y-105044977D01*
X131990987Y-105044977D01*
X131914564Y-105024499D01*
X131908129Y-105023652D01*
X131908379Y-105021747D01*
X131869150Y-105011236D01*
X131840990Y-104994978D01*
X131840988Y-104994977D01*
X131809389Y-104986510D01*
X131758075Y-104953186D01*
X131736149Y-104896064D01*
X131751985Y-104836964D01*
X131797127Y-104799420D01*
X131817598Y-104790941D01*
X131989655Y-104675977D01*
X132135977Y-104529655D01*
X132250941Y-104357598D01*
X132330130Y-104166420D01*
X132370500Y-103963465D01*
X132370500Y-103756535D01*
X132330130Y-103553580D01*
X132250941Y-103362402D01*
X132135977Y-103190345D01*
X131989655Y-103044023D01*
X131989651Y-103044020D01*
X131817597Y-102929058D01*
X131626418Y-102849869D01*
X131423467Y-102809500D01*
X131423465Y-102809500D01*
X131216535Y-102809500D01*
X131216532Y-102809500D01*
X131013581Y-102849869D01*
X130822402Y-102929058D01*
X130650348Y-103044020D01*
X130504020Y-103190348D01*
X130455404Y-103263109D01*
X130407354Y-103300989D01*
X130346216Y-103303391D01*
X130303084Y-103278112D01*
X130068992Y-103044020D01*
X129809511Y-102784539D01*
X129809508Y-102784537D01*
X129789026Y-102772711D01*
X129789026Y-102772712D01*
X129740985Y-102744975D01*
X129737866Y-102744140D01*
X129735069Y-102742525D01*
X129734994Y-102742494D01*
X129734998Y-102742484D01*
X129693490Y-102718518D01*
X129559511Y-102584538D01*
X129508758Y-102555236D01*
X129467817Y-102509767D01*
X129461421Y-102448917D01*
X129492014Y-102395929D01*
X129547910Y-102371042D01*
X129558258Y-102370500D01*
X129649747Y-102370500D01*
X129649748Y-102370500D01*
X129708231Y-102358867D01*
X129774552Y-102314552D01*
X129818867Y-102248231D01*
X129830500Y-102189748D01*
X129830500Y-100450252D01*
X129830499Y-100450250D01*
X129830499Y-100450244D01*
X129824247Y-100418816D01*
X129831437Y-100358055D01*
X129872969Y-100313124D01*
X129921344Y-100300500D01*
X133442406Y-100300500D01*
X133482210Y-100300500D01*
X133497696Y-100301719D01*
G37*
%TD.AperFunction*%
%TA.AperFunction,Conductor*%
G36*
X124576768Y-119023707D02*
G01*
X124588580Y-119033795D01*
X126310741Y-120755957D01*
X126323893Y-120761404D01*
X126327747Y-120763001D01*
X126327752Y-120763003D01*
X126412000Y-120797900D01*
X127897461Y-120797900D01*
X127955652Y-120816807D01*
X127991616Y-120866307D01*
X127991616Y-120927493D01*
X127967466Y-120966901D01*
X127964023Y-120970345D01*
X127964020Y-120970348D01*
X127849058Y-121142402D01*
X127844095Y-121154386D01*
X127804358Y-121200911D01*
X127752631Y-121215500D01*
X124084923Y-121215500D01*
X124026732Y-121196593D01*
X124014919Y-121186504D01*
X123495411Y-120666996D01*
X122957358Y-120128943D01*
X122856100Y-120087000D01*
X122856099Y-120087000D01*
X121069321Y-120087000D01*
X121011130Y-120068093D01*
X120999317Y-120058004D01*
X120996501Y-120055188D01*
X120996500Y-120055186D01*
X120903314Y-119962000D01*
X120903311Y-119961998D01*
X120903309Y-119961996D01*
X120789189Y-119896109D01*
X120789191Y-119896109D01*
X120737254Y-119882193D01*
X120661892Y-119862000D01*
X120530108Y-119862000D01*
X120454746Y-119882193D01*
X120402809Y-119896109D01*
X120288690Y-119961996D01*
X120195496Y-120055190D01*
X120129609Y-120169309D01*
X120126293Y-120181686D01*
X120095500Y-120296608D01*
X120095500Y-120428392D01*
X120102815Y-120455691D01*
X120129609Y-120555690D01*
X120195496Y-120669809D01*
X120195498Y-120669811D01*
X120195500Y-120669814D01*
X120288686Y-120763000D01*
X120288688Y-120763001D01*
X120288690Y-120763003D01*
X120372453Y-120811364D01*
X120413394Y-120856833D01*
X120419790Y-120917684D01*
X120389197Y-120970672D01*
X120333301Y-120995558D01*
X120322953Y-120996100D01*
X118700099Y-120996100D01*
X118628499Y-121025758D01*
X118628491Y-121025761D01*
X118624369Y-121027468D01*
X118566870Y-121031988D01*
X118566823Y-121032347D01*
X118565138Y-121032125D01*
X118563372Y-121032264D01*
X118560900Y-121031636D01*
X118560392Y-121031500D01*
X118428608Y-121031500D01*
X118337422Y-121055932D01*
X118276321Y-121052730D01*
X118228771Y-121014225D01*
X118212800Y-120960306D01*
X118212800Y-119660538D01*
X118231707Y-119602347D01*
X118262299Y-119574802D01*
X118302314Y-119551700D01*
X118395500Y-119458514D01*
X118397441Y-119455153D01*
X118437259Y-119386186D01*
X118461392Y-119344386D01*
X118468633Y-119317358D01*
X118501956Y-119266045D01*
X118559078Y-119244118D01*
X118618178Y-119259953D01*
X118634260Y-119272976D01*
X118696541Y-119335257D01*
X118717374Y-119343886D01*
X118717375Y-119343887D01*
X118740931Y-119353643D01*
X118797800Y-119377200D01*
X121747399Y-119377200D01*
X121747400Y-119377200D01*
X121848658Y-119335257D01*
X121926157Y-119257758D01*
X121926156Y-119257758D01*
X122150120Y-119033796D01*
X122204637Y-119006019D01*
X122220123Y-119004800D01*
X124518577Y-119004800D01*
X124576768Y-119023707D01*
G37*
%TD.AperFunction*%
%TA.AperFunction,Conductor*%
G36*
X119209654Y-115287407D02*
G01*
X119245618Y-115336907D01*
X119247089Y-115393121D01*
X119228900Y-115461008D01*
X119228900Y-115592792D01*
X119248487Y-115665892D01*
X119263009Y-115720090D01*
X119328896Y-115834209D01*
X119328898Y-115834211D01*
X119328900Y-115834214D01*
X119422086Y-115927400D01*
X119422088Y-115927401D01*
X119422090Y-115927403D01*
X119536210Y-115993290D01*
X119536208Y-115993290D01*
X119536212Y-115993291D01*
X119536214Y-115993292D01*
X119663508Y-116027400D01*
X119663510Y-116027400D01*
X119795290Y-116027400D01*
X119795292Y-116027400D01*
X119922586Y-115993292D01*
X119922588Y-115993290D01*
X119922590Y-115993290D01*
X120036709Y-115927403D01*
X120036709Y-115927402D01*
X120036714Y-115927400D01*
X120129900Y-115834214D01*
X120129901Y-115834211D01*
X120132717Y-115831396D01*
X120187234Y-115803619D01*
X120202721Y-115802400D01*
X122584878Y-115802400D01*
X122643069Y-115821307D01*
X122654881Y-115831396D01*
X122857141Y-116033657D01*
X122886795Y-116045939D01*
X122886797Y-116045941D01*
X122886798Y-116045941D01*
X122922599Y-116060770D01*
X122958400Y-116075600D01*
X122958401Y-116075600D01*
X126892777Y-116075600D01*
X126950968Y-116094507D01*
X126986932Y-116144007D01*
X126986932Y-116205193D01*
X126962781Y-116244604D01*
X126707881Y-116499504D01*
X126653364Y-116527281D01*
X126637877Y-116528500D01*
X120091021Y-116528500D01*
X120032830Y-116509593D01*
X120021023Y-116499509D01*
X120000014Y-116478500D01*
X120000011Y-116478498D01*
X120000009Y-116478496D01*
X119885889Y-116412609D01*
X119885891Y-116412609D01*
X119832640Y-116398341D01*
X119758592Y-116378500D01*
X119626808Y-116378500D01*
X119552760Y-116398341D01*
X119499509Y-116412609D01*
X119385390Y-116478496D01*
X119292196Y-116571690D01*
X119226309Y-116685809D01*
X119226308Y-116685814D01*
X119192200Y-116813108D01*
X119192200Y-116944892D01*
X119214309Y-117027403D01*
X119226309Y-117072190D01*
X119243615Y-117102164D01*
X119256337Y-117162012D01*
X119231450Y-117217908D01*
X119178462Y-117248501D01*
X119132257Y-117247291D01*
X119066421Y-117229651D01*
X119043092Y-117223400D01*
X118911308Y-117223400D01*
X118833400Y-117244275D01*
X118784009Y-117257509D01*
X118669890Y-117323396D01*
X118576696Y-117416590D01*
X118510809Y-117530709D01*
X118494978Y-117589793D01*
X118480671Y-117643190D01*
X118476700Y-117658009D01*
X118476700Y-117789794D01*
X118487133Y-117828732D01*
X118483930Y-117889833D01*
X118445424Y-117937382D01*
X118386323Y-117953217D01*
X118364736Y-117948331D01*
X118364454Y-117949388D01*
X118358187Y-117947708D01*
X118358186Y-117947708D01*
X118230892Y-117913600D01*
X118099108Y-117913600D01*
X118021200Y-117934475D01*
X117971809Y-117947709D01*
X117857690Y-118013596D01*
X117764496Y-118106790D01*
X117698609Y-118220909D01*
X117692181Y-118244900D01*
X117664500Y-118348208D01*
X117664500Y-118479992D01*
X117689046Y-118571599D01*
X117698609Y-118607290D01*
X117709223Y-118625673D01*
X117721945Y-118685521D01*
X117697059Y-118741417D01*
X117692134Y-118745971D01*
X117692274Y-118746111D01*
X117594500Y-118843885D01*
X117594496Y-118843890D01*
X117528609Y-118958010D01*
X117528607Y-118958014D01*
X117516365Y-119003703D01*
X117483041Y-119055017D01*
X117425919Y-119076943D01*
X117366819Y-119061107D01*
X117328314Y-119013557D01*
X117325113Y-119003703D01*
X117317292Y-118974514D01*
X117307766Y-118958014D01*
X117251403Y-118860390D01*
X117251401Y-118860388D01*
X117251400Y-118860386D01*
X117158214Y-118767200D01*
X117158211Y-118767198D01*
X117155396Y-118764383D01*
X117127619Y-118709866D01*
X117126400Y-118694379D01*
X117126400Y-116921423D01*
X117145307Y-116863232D01*
X117155396Y-116851419D01*
X118543919Y-115462896D01*
X118598436Y-115435119D01*
X118613923Y-115433900D01*
X118661399Y-115433900D01*
X118661400Y-115433900D01*
X118762658Y-115391957D01*
X118840157Y-115314458D01*
X118857119Y-115297496D01*
X118911636Y-115269719D01*
X118927123Y-115268500D01*
X119151463Y-115268500D01*
X119209654Y-115287407D01*
G37*
%TD.AperFunction*%
%TA.AperFunction,Conductor*%
G36*
X111906784Y-106536583D02*
G01*
X111954334Y-106575088D01*
X111965887Y-106603501D01*
X111966640Y-106603273D01*
X111968053Y-106607932D01*
X112023081Y-106740782D01*
X112102969Y-106860344D01*
X112204655Y-106962030D01*
X112324217Y-107041918D01*
X112457065Y-107096945D01*
X112457068Y-107096946D01*
X112519999Y-107109463D01*
X112520000Y-107109463D01*
X112520000Y-106654808D01*
X112554204Y-106674556D01*
X112630504Y-106695000D01*
X112709496Y-106695000D01*
X112785796Y-106674556D01*
X112820000Y-106654808D01*
X112820000Y-107109463D01*
X112882931Y-107096946D01*
X112882934Y-107096945D01*
X113015783Y-107041917D01*
X113054051Y-107016348D01*
X113112939Y-106999739D01*
X113170342Y-107020916D01*
X113194352Y-107052634D01*
X113194926Y-107052251D01*
X113200340Y-107060354D01*
X113200342Y-107060356D01*
X113200343Y-107060358D01*
X114472305Y-108332320D01*
X114500081Y-108386835D01*
X114501300Y-108402322D01*
X114501300Y-108437492D01*
X114522893Y-108518079D01*
X114535409Y-108564790D01*
X114601296Y-108678909D01*
X114601298Y-108678911D01*
X114601300Y-108678914D01*
X114694486Y-108772100D01*
X114730657Y-108792983D01*
X114771598Y-108838453D01*
X114777994Y-108899303D01*
X114751162Y-108948721D01*
X114664142Y-109035743D01*
X114664141Y-109035742D01*
X114586646Y-109113238D01*
X114586644Y-109113240D01*
X114586643Y-109113242D01*
X114586643Y-109113243D01*
X114544700Y-109214500D01*
X114544700Y-110238127D01*
X114531436Y-110287627D01*
X114472209Y-110390209D01*
X114461681Y-110429500D01*
X114438100Y-110517508D01*
X114438100Y-110649292D01*
X114460260Y-110731996D01*
X114472209Y-110776590D01*
X114538096Y-110890709D01*
X114538098Y-110890711D01*
X114538100Y-110890714D01*
X114631286Y-110983900D01*
X114631288Y-110983901D01*
X114631290Y-110983903D01*
X114745410Y-111049790D01*
X114745408Y-111049790D01*
X114745412Y-111049791D01*
X114745414Y-111049792D01*
X114872708Y-111083900D01*
X114872710Y-111083900D01*
X115004490Y-111083900D01*
X115004492Y-111083900D01*
X115131786Y-111049792D01*
X115131788Y-111049790D01*
X115131790Y-111049790D01*
X115245909Y-110983903D01*
X115245909Y-110983902D01*
X115245914Y-110983900D01*
X115339100Y-110890714D01*
X115358564Y-110857001D01*
X115404990Y-110776590D01*
X115404990Y-110776588D01*
X115404992Y-110776586D01*
X115439100Y-110649292D01*
X115439100Y-110517508D01*
X115404992Y-110390214D01*
X115404990Y-110390211D01*
X115404990Y-110390209D01*
X115339103Y-110276090D01*
X115339101Y-110276088D01*
X115339100Y-110276086D01*
X115245914Y-110182900D01*
X115243486Y-110181498D01*
X115242142Y-110180006D01*
X115240765Y-110178949D01*
X115240960Y-110178693D01*
X115202544Y-110136029D01*
X115196148Y-110075179D01*
X115226740Y-110022190D01*
X115282636Y-109997303D01*
X115296319Y-109997482D01*
X115296319Y-109997200D01*
X115434590Y-109997200D01*
X115434592Y-109997200D01*
X115561886Y-109963092D01*
X115561888Y-109963090D01*
X115561890Y-109963090D01*
X115676009Y-109897203D01*
X115676009Y-109897202D01*
X115676014Y-109897200D01*
X115769200Y-109804014D01*
X115790779Y-109766638D01*
X115835090Y-109689890D01*
X115835090Y-109689888D01*
X115835092Y-109689886D01*
X115869200Y-109562592D01*
X115869200Y-109430808D01*
X115869200Y-109426822D01*
X115888107Y-109368631D01*
X115898196Y-109356818D01*
X116306290Y-108948724D01*
X117653557Y-107601459D01*
X117668884Y-107564456D01*
X117670588Y-107560343D01*
X117670588Y-107560342D01*
X117684281Y-107527284D01*
X117695500Y-107500200D01*
X117695500Y-107181854D01*
X117714407Y-107123663D01*
X117745002Y-107096117D01*
X117770290Y-107081517D01*
X117770290Y-107081516D01*
X117770295Y-107081514D01*
X117774998Y-107076810D01*
X117829513Y-107049035D01*
X117889945Y-107058606D01*
X117915000Y-107076809D01*
X117919705Y-107081514D01*
X117919707Y-107081515D01*
X117919709Y-107081517D01*
X118049791Y-107156620D01*
X118049789Y-107156620D01*
X118049793Y-107156621D01*
X118049795Y-107156622D01*
X118194892Y-107195500D01*
X118194894Y-107195500D01*
X118345106Y-107195500D01*
X118345108Y-107195500D01*
X118373320Y-107187940D01*
X118434418Y-107191140D01*
X118468947Y-107213562D01*
X119008543Y-107753158D01*
X119008542Y-107753158D01*
X119063212Y-107807827D01*
X119086042Y-107830657D01*
X119187300Y-107872600D01*
X119213941Y-107872600D01*
X119272132Y-107891507D01*
X119308096Y-107941007D01*
X119309568Y-107997222D01*
X119301704Y-108026573D01*
X119297300Y-108043008D01*
X119297300Y-108174792D01*
X119331408Y-108302086D01*
X119340136Y-108317204D01*
X119353400Y-108366704D01*
X119353400Y-112200043D01*
X119367766Y-112253658D01*
X119367765Y-112253658D01*
X119377285Y-112289185D01*
X119377286Y-112289188D01*
X119423430Y-112369112D01*
X119599059Y-112544741D01*
X119626837Y-112599257D01*
X119617266Y-112659689D01*
X119574001Y-112702954D01*
X119554680Y-112710371D01*
X119517117Y-112720435D01*
X119440714Y-112740908D01*
X119440712Y-112740908D01*
X119440708Y-112740910D01*
X119326590Y-112806796D01*
X119326584Y-112806800D01*
X119241703Y-112891681D01*
X119187186Y-112919458D01*
X119126754Y-112909886D01*
X119101697Y-112891681D01*
X118678559Y-112468544D01*
X118678558Y-112468543D01*
X118677930Y-112468283D01*
X118677001Y-112467898D01*
X118677001Y-112467897D01*
X118577300Y-112426600D01*
X117246500Y-112426600D01*
X117136900Y-112426600D01*
X117136898Y-112426600D01*
X117035644Y-112468540D01*
X117035642Y-112468541D01*
X117035642Y-112468542D01*
X116216242Y-113287943D01*
X116216241Y-113287942D01*
X116138746Y-113365438D01*
X116138744Y-113365440D01*
X116138743Y-113365442D01*
X116117376Y-113417026D01*
X116096800Y-113466700D01*
X116096800Y-113999179D01*
X116077893Y-114057370D01*
X116067804Y-114069183D01*
X116064988Y-114071998D01*
X116064986Y-114072000D01*
X116018308Y-114118678D01*
X115971798Y-114165188D01*
X115950732Y-114201675D01*
X115905261Y-114242616D01*
X115844411Y-114249010D01*
X115794994Y-114222179D01*
X115770158Y-114197343D01*
X115770156Y-114197342D01*
X115770155Y-114197341D01*
X115761259Y-114193656D01*
X115761259Y-114193655D01*
X115668900Y-114155400D01*
X115253722Y-114155400D01*
X115195531Y-114136493D01*
X115159567Y-114086993D01*
X115159567Y-114025807D01*
X115183715Y-113986399D01*
X115433358Y-113736756D01*
X115487872Y-113708982D01*
X115490439Y-113708610D01*
X115496587Y-113707800D01*
X115496592Y-113707800D01*
X115623886Y-113673692D01*
X115623889Y-113673690D01*
X115623890Y-113673690D01*
X115738009Y-113607803D01*
X115738009Y-113607802D01*
X115738014Y-113607800D01*
X115831200Y-113514614D01*
X115831203Y-113514609D01*
X115897090Y-113400490D01*
X115897090Y-113400488D01*
X115897092Y-113400486D01*
X115931200Y-113273192D01*
X115931200Y-113141408D01*
X115897092Y-113014114D01*
X115897090Y-113014111D01*
X115897090Y-113014109D01*
X115831203Y-112899990D01*
X115831201Y-112899988D01*
X115831200Y-112899986D01*
X115738014Y-112806800D01*
X115738011Y-112806798D01*
X115738009Y-112806796D01*
X115623889Y-112740909D01*
X115623891Y-112740909D01*
X115574499Y-112727675D01*
X115496592Y-112706800D01*
X115364808Y-112706800D01*
X115286900Y-112727675D01*
X115237509Y-112740909D01*
X115123390Y-112806796D01*
X115030196Y-112899990D01*
X114964309Y-113014109D01*
X114964308Y-113014114D01*
X114930200Y-113141408D01*
X114930200Y-113273192D01*
X114955028Y-113365851D01*
X114951825Y-113426953D01*
X114929405Y-113461477D01*
X114657782Y-113733103D01*
X114603266Y-113760881D01*
X114587778Y-113762100D01*
X114299524Y-113762100D01*
X114241333Y-113743193D01*
X114229520Y-113733104D01*
X112367533Y-111871117D01*
X110482842Y-109986427D01*
X110455066Y-109931911D01*
X110464637Y-109871479D01*
X110503345Y-109830689D01*
X110584214Y-109784000D01*
X110677400Y-109690814D01*
X110677403Y-109690809D01*
X110743290Y-109576690D01*
X110743290Y-109576688D01*
X110743292Y-109576686D01*
X110777400Y-109449392D01*
X110777400Y-109317608D01*
X110743292Y-109190314D01*
X110743290Y-109190311D01*
X110743290Y-109190309D01*
X110677403Y-109076190D01*
X110677401Y-109076188D01*
X110677400Y-109076186D01*
X110584214Y-108983000D01*
X110584211Y-108982998D01*
X110581396Y-108980183D01*
X110553619Y-108925666D01*
X110552400Y-108910179D01*
X110552400Y-107667623D01*
X110571307Y-107609432D01*
X110581396Y-107597619D01*
X111608119Y-106570896D01*
X111662636Y-106543119D01*
X111678123Y-106541900D01*
X111813890Y-106541900D01*
X111813892Y-106541900D01*
X111845685Y-106533381D01*
X111906784Y-106536583D01*
G37*
%TD.AperFunction*%
%TA.AperFunction,Conductor*%
G36*
X127696847Y-100319407D02*
G01*
X127732811Y-100368907D01*
X127735753Y-100418816D01*
X127729500Y-100450244D01*
X127729500Y-102189755D01*
X127732769Y-102206184D01*
X127725579Y-102266945D01*
X127684047Y-102311876D01*
X127635672Y-102324500D01*
X125664562Y-102324500D01*
X125585438Y-102324500D01*
X125522175Y-102341451D01*
X125461074Y-102338248D01*
X125413524Y-102299743D01*
X125397689Y-102240642D01*
X125398772Y-102230337D01*
X125410500Y-102156290D01*
X125410500Y-101943709D01*
X125377247Y-101733761D01*
X125360145Y-101681126D01*
X125311557Y-101531588D01*
X125215051Y-101342184D01*
X125215049Y-101342180D01*
X125090108Y-101170213D01*
X125090106Y-101170211D01*
X125090104Y-101170208D01*
X124939792Y-101019896D01*
X124939788Y-101019893D01*
X124939786Y-101019891D01*
X124767819Y-100894950D01*
X124767815Y-100894948D01*
X124578412Y-100798443D01*
X124376238Y-100732752D01*
X124166290Y-100699500D01*
X124166287Y-100699500D01*
X123953713Y-100699500D01*
X123953710Y-100699500D01*
X123743761Y-100732752D01*
X123541587Y-100798443D01*
X123352184Y-100894948D01*
X123352180Y-100894950D01*
X123180213Y-101019891D01*
X123029891Y-101170213D01*
X122904950Y-101342180D01*
X122904948Y-101342184D01*
X122808443Y-101531587D01*
X122742752Y-101733761D01*
X122709500Y-101943709D01*
X122709500Y-102156290D01*
X122742752Y-102366238D01*
X122808443Y-102568412D01*
X122904948Y-102757815D01*
X122904950Y-102757819D01*
X123029891Y-102929786D01*
X123029893Y-102929788D01*
X123029896Y-102929792D01*
X123180208Y-103080104D01*
X123180211Y-103080106D01*
X123180213Y-103080108D01*
X123201269Y-103095406D01*
X123237233Y-103144906D01*
X123237234Y-103206091D01*
X123201270Y-103255591D01*
X123143079Y-103274499D01*
X122561800Y-103274499D01*
X122503609Y-103255592D01*
X122467645Y-103206092D01*
X122462800Y-103175499D01*
X122462800Y-101500457D01*
X122462800Y-101500456D01*
X122438914Y-101411312D01*
X122392770Y-101331388D01*
X121872112Y-100810730D01*
X121792188Y-100764586D01*
X121703044Y-100740700D01*
X112378344Y-100740700D01*
X112286056Y-100740700D01*
X112196912Y-100764586D01*
X112116988Y-100810730D01*
X111493328Y-101434390D01*
X111455186Y-101500455D01*
X111455186Y-101500456D01*
X111451186Y-101507384D01*
X111447186Y-101514311D01*
X111423300Y-101603457D01*
X111423300Y-101650533D01*
X111404393Y-101708724D01*
X111354893Y-101744688D01*
X111293707Y-101744688D01*
X111244207Y-101708724D01*
X111230145Y-101681126D01*
X111181557Y-101531588D01*
X111085051Y-101342184D01*
X111085049Y-101342180D01*
X110960108Y-101170213D01*
X110960106Y-101170211D01*
X110960104Y-101170208D01*
X110809792Y-101019896D01*
X110809788Y-101019893D01*
X110809786Y-101019891D01*
X110637819Y-100894950D01*
X110637815Y-100894948D01*
X110448412Y-100798443D01*
X110246238Y-100732752D01*
X110036290Y-100699500D01*
X110036287Y-100699500D01*
X109823713Y-100699500D01*
X109823710Y-100699500D01*
X109613761Y-100732752D01*
X109411587Y-100798443D01*
X109222184Y-100894948D01*
X109222180Y-100894950D01*
X109050213Y-101019891D01*
X108899891Y-101170213D01*
X108774950Y-101342180D01*
X108774948Y-101342184D01*
X108678443Y-101531587D01*
X108612752Y-101733761D01*
X108579500Y-101943709D01*
X108579500Y-102156290D01*
X108612752Y-102366238D01*
X108678443Y-102568412D01*
X108774948Y-102757815D01*
X108774950Y-102757819D01*
X108899891Y-102929786D01*
X108899893Y-102929788D01*
X108899896Y-102929792D01*
X109050208Y-103080104D01*
X109050211Y-103080106D01*
X109050213Y-103080108D01*
X109149312Y-103152107D01*
X109185276Y-103201607D01*
X109185277Y-103262792D01*
X109149313Y-103312292D01*
X109091122Y-103331200D01*
X108778490Y-103331200D01*
X108720299Y-103312293D01*
X108708486Y-103302204D01*
X108459596Y-103053314D01*
X108431819Y-102998797D01*
X108430600Y-102983310D01*
X108430600Y-102953609D01*
X108429916Y-102951055D01*
X108396492Y-102826314D01*
X108396490Y-102826311D01*
X108396490Y-102826309D01*
X108330603Y-102712190D01*
X108330601Y-102712188D01*
X108330600Y-102712186D01*
X108237414Y-102619000D01*
X108237411Y-102618998D01*
X108237409Y-102618996D01*
X108123289Y-102553109D01*
X108123291Y-102553109D01*
X108072515Y-102539504D01*
X107995992Y-102519000D01*
X107864208Y-102519000D01*
X107787685Y-102539504D01*
X107736909Y-102553109D01*
X107622790Y-102618996D01*
X107529596Y-102712190D01*
X107463709Y-102826309D01*
X107457396Y-102849870D01*
X107429600Y-102953608D01*
X107429600Y-103085392D01*
X107441645Y-103130344D01*
X107463709Y-103212690D01*
X107529596Y-103326809D01*
X107529598Y-103326811D01*
X107529600Y-103326814D01*
X107622786Y-103420000D01*
X107622788Y-103420001D01*
X107622790Y-103420003D01*
X107736910Y-103485890D01*
X107736908Y-103485890D01*
X107736912Y-103485891D01*
X107736914Y-103485892D01*
X107864208Y-103520000D01*
X107893910Y-103520000D01*
X107952101Y-103538907D01*
X107963913Y-103548996D01*
X108171450Y-103756532D01*
X108377088Y-103962170D01*
X108457012Y-104008314D01*
X108546156Y-104032200D01*
X108546158Y-104032200D01*
X110695742Y-104032200D01*
X110695744Y-104032200D01*
X110784888Y-104008314D01*
X110864812Y-103962170D01*
X111857723Y-102969258D01*
X111912236Y-102941484D01*
X111972668Y-102951055D01*
X112015933Y-102994320D01*
X112019187Y-103001380D01*
X112023081Y-103010782D01*
X112102969Y-103130344D01*
X112204655Y-103232030D01*
X112324217Y-103311918D01*
X112457065Y-103366945D01*
X112457068Y-103366946D01*
X112519999Y-103379463D01*
X112520000Y-103379463D01*
X112520000Y-102924808D01*
X112554204Y-102944556D01*
X112630504Y-102965000D01*
X112709496Y-102965000D01*
X112785796Y-102944556D01*
X112820000Y-102924808D01*
X112820000Y-103379463D01*
X112882931Y-103366946D01*
X112882934Y-103366945D01*
X113015782Y-103311918D01*
X113135344Y-103232030D01*
X113237030Y-103130344D01*
X113316918Y-103010782D01*
X113371945Y-102877934D01*
X113399999Y-102736899D01*
X113400000Y-102736897D01*
X113400000Y-102415001D01*
X113399999Y-102415000D01*
X112970000Y-102415000D01*
X112970000Y-102115000D01*
X113399999Y-102115000D01*
X113400000Y-102114999D01*
X113400000Y-101793102D01*
X113399999Y-101793100D01*
X113371945Y-101652065D01*
X113341509Y-101578585D01*
X113336708Y-101517589D01*
X113368678Y-101465420D01*
X113425206Y-101442005D01*
X113432973Y-101441700D01*
X120557027Y-101441700D01*
X120615218Y-101460607D01*
X120651182Y-101510107D01*
X120651182Y-101571293D01*
X120648491Y-101578585D01*
X120618054Y-101652065D01*
X120590000Y-101793100D01*
X120590000Y-102114999D01*
X120590001Y-102115000D01*
X121020000Y-102115000D01*
X121020000Y-102415000D01*
X120590001Y-102415000D01*
X120590000Y-102415001D01*
X120590000Y-102736899D01*
X120618054Y-102877934D01*
X120673081Y-103010782D01*
X120752969Y-103130344D01*
X120854655Y-103232030D01*
X120974217Y-103311918D01*
X121107065Y-103366945D01*
X121107068Y-103366946D01*
X121169999Y-103379463D01*
X121170000Y-103379463D01*
X121170000Y-102924808D01*
X121204204Y-102944556D01*
X121280504Y-102965000D01*
X121359496Y-102965000D01*
X121435796Y-102944556D01*
X121470000Y-102924808D01*
X121470000Y-103379463D01*
X121532931Y-103366946D01*
X121532934Y-103366945D01*
X121624915Y-103328846D01*
X121685911Y-103324045D01*
X121738080Y-103356015D01*
X121761495Y-103412543D01*
X121761800Y-103420310D01*
X121761800Y-104139689D01*
X121742893Y-104197880D01*
X121693393Y-104233844D01*
X121632207Y-104233844D01*
X121624915Y-104231153D01*
X121532935Y-104193054D01*
X121470000Y-104180535D01*
X121470000Y-104635191D01*
X121435796Y-104615444D01*
X121359496Y-104595000D01*
X121280504Y-104595000D01*
X121204204Y-104615444D01*
X121170000Y-104635191D01*
X121170000Y-104180535D01*
X121107066Y-104193054D01*
X120974215Y-104248082D01*
X120854655Y-104327969D01*
X120752969Y-104429655D01*
X120673081Y-104549217D01*
X120618054Y-104682065D01*
X120590000Y-104823100D01*
X120590000Y-104854608D01*
X120571093Y-104912799D01*
X120521593Y-104948763D01*
X120506759Y-104950371D01*
X120182132Y-105274999D01*
X120182132Y-105275000D01*
X120510377Y-105603246D01*
X120541057Y-105609977D01*
X120581701Y-105655712D01*
X120590000Y-105695389D01*
X120590000Y-106204608D01*
X120571093Y-106262799D01*
X120521593Y-106298763D01*
X120506759Y-106300371D01*
X120182132Y-106624999D01*
X120182132Y-106625000D01*
X120501962Y-106944831D01*
X120519438Y-106918677D01*
X120552843Y-106838030D01*
X120592579Y-106791504D01*
X120652074Y-106777220D01*
X120708602Y-106800634D01*
X120726623Y-106820914D01*
X120752969Y-106860344D01*
X120854655Y-106962030D01*
X120974217Y-107041918D01*
X121107066Y-107096945D01*
X121212063Y-107117831D01*
X121265447Y-107147728D01*
X121291063Y-107203293D01*
X121279126Y-107263303D01*
X121262757Y-107284928D01*
X121259402Y-107288282D01*
X121259396Y-107288290D01*
X121193509Y-107402409D01*
X121178694Y-107457700D01*
X121159400Y-107529708D01*
X121159400Y-107661492D01*
X121183619Y-107751880D01*
X121193509Y-107788790D01*
X121259396Y-107902909D01*
X121259398Y-107902911D01*
X121259400Y-107902914D01*
X121352586Y-107996100D01*
X121352588Y-107996101D01*
X121352590Y-107996103D01*
X121466710Y-108061990D01*
X121466708Y-108061990D01*
X121466712Y-108061991D01*
X121466714Y-108061992D01*
X121594008Y-108096100D01*
X121594010Y-108096100D01*
X121725790Y-108096100D01*
X121725792Y-108096100D01*
X121853086Y-108061992D01*
X121853088Y-108061990D01*
X121853090Y-108061990D01*
X121967209Y-107996103D01*
X121967209Y-107996102D01*
X121967214Y-107996100D01*
X122060400Y-107902914D01*
X122060403Y-107902909D01*
X122126290Y-107788790D01*
X122126290Y-107788788D01*
X122126292Y-107788786D01*
X122160400Y-107661492D01*
X122160400Y-107631789D01*
X122179307Y-107573598D01*
X122189390Y-107561791D01*
X122392770Y-107358412D01*
X122438914Y-107278488D01*
X122440989Y-107270745D01*
X122445921Y-107252340D01*
X122452807Y-107226638D01*
X122462800Y-107189344D01*
X122462800Y-103974499D01*
X122481707Y-103916308D01*
X122531207Y-103880344D01*
X122561800Y-103875499D01*
X124364561Y-103875499D01*
X124400028Y-103865995D01*
X124440984Y-103855022D01*
X124440985Y-103855021D01*
X124442091Y-103854725D01*
X124442330Y-103854602D01*
X124443744Y-103853429D01*
X124459347Y-103844421D01*
X124459348Y-103844419D01*
X124469155Y-103838757D01*
X124518646Y-103825499D01*
X124543208Y-103825499D01*
X124564558Y-103825499D01*
X124564561Y-103825499D01*
X124602030Y-103815459D01*
X124640984Y-103805022D01*
X124640987Y-103805020D01*
X124640988Y-103805020D01*
X124673790Y-103786082D01*
X124704709Y-103768231D01*
X124728575Y-103758346D01*
X124740989Y-103755021D01*
X124804707Y-103718233D01*
X124828576Y-103708346D01*
X124840989Y-103705021D01*
X124904710Y-103668231D01*
X124928579Y-103658345D01*
X124940988Y-103655021D01*
X125004704Y-103618234D01*
X125028576Y-103608345D01*
X125040989Y-103605020D01*
X125109511Y-103565459D01*
X125165460Y-103509510D01*
X125165459Y-103509510D01*
X125720475Y-102954496D01*
X125774991Y-102926719D01*
X125790478Y-102925500D01*
X127989861Y-102925500D01*
X128048052Y-102944407D01*
X128084016Y-102993907D01*
X128084016Y-103055093D01*
X128059866Y-103094501D01*
X128009462Y-103144906D01*
X127964020Y-103190348D01*
X127849058Y-103362402D01*
X127769869Y-103553581D01*
X127729500Y-103756532D01*
X127729500Y-103963467D01*
X127769869Y-104166418D01*
X127849058Y-104357597D01*
X127938186Y-104490987D01*
X127964023Y-104529655D01*
X128110345Y-104675977D01*
X128282402Y-104790941D01*
X128405032Y-104841736D01*
X128451557Y-104881473D01*
X128465841Y-104940967D01*
X128442426Y-104997495D01*
X128390257Y-105029465D01*
X128367146Y-105032200D01*
X124820221Y-105032200D01*
X124762030Y-105013293D01*
X124750217Y-105003204D01*
X124747401Y-105000388D01*
X124747400Y-105000386D01*
X124654214Y-104907200D01*
X124654211Y-104907198D01*
X124654209Y-104907196D01*
X124540089Y-104841309D01*
X124540091Y-104841309D01*
X124472468Y-104823190D01*
X124412792Y-104807200D01*
X124281008Y-104807200D01*
X124221332Y-104823190D01*
X124153709Y-104841309D01*
X124039590Y-104907196D01*
X123946396Y-105000390D01*
X123880509Y-105114509D01*
X123880508Y-105114514D01*
X123846400Y-105241808D01*
X123846400Y-105373592D01*
X123871691Y-105467980D01*
X123880509Y-105500890D01*
X123946396Y-105615009D01*
X123946398Y-105615011D01*
X123946400Y-105615014D01*
X124039586Y-105708200D01*
X124039588Y-105708201D01*
X124039590Y-105708203D01*
X124153710Y-105774090D01*
X124153708Y-105774090D01*
X124153712Y-105774091D01*
X124153714Y-105774092D01*
X124281008Y-105808200D01*
X124281010Y-105808200D01*
X124412790Y-105808200D01*
X124412792Y-105808200D01*
X124540086Y-105774092D01*
X124540088Y-105774090D01*
X124540090Y-105774090D01*
X124654209Y-105708203D01*
X124654209Y-105708202D01*
X124654214Y-105708200D01*
X124747400Y-105615014D01*
X124747401Y-105615011D01*
X124750217Y-105612196D01*
X124804734Y-105584419D01*
X124820221Y-105583200D01*
X127877126Y-105583200D01*
X127935317Y-105602107D01*
X127971281Y-105651607D01*
X127971281Y-105712793D01*
X127959442Y-105737201D01*
X127849058Y-105902402D01*
X127769869Y-106093581D01*
X127729500Y-106296532D01*
X127729500Y-106503467D01*
X127769869Y-106706418D01*
X127849058Y-106897597D01*
X127952650Y-107052634D01*
X127964023Y-107069655D01*
X128110345Y-107215977D01*
X128282402Y-107330941D01*
X128282406Y-107330942D01*
X128285526Y-107332611D01*
X128327931Y-107376718D01*
X128336313Y-107437327D01*
X128308859Y-107489924D01*
X126879790Y-108918993D01*
X126825273Y-108946770D01*
X126764841Y-108937199D01*
X126724050Y-108898489D01*
X126686003Y-108832590D01*
X126686001Y-108832588D01*
X126686000Y-108832586D01*
X126592814Y-108739400D01*
X126592811Y-108739398D01*
X126592809Y-108739396D01*
X126478689Y-108673509D01*
X126478691Y-108673509D01*
X126429299Y-108660275D01*
X126351392Y-108639400D01*
X126219608Y-108639400D01*
X126141700Y-108660275D01*
X126092309Y-108673509D01*
X125978190Y-108739396D01*
X125884996Y-108832590D01*
X125819109Y-108946709D01*
X125819108Y-108946714D01*
X125785000Y-109074008D01*
X125785000Y-109205792D01*
X125800742Y-109264543D01*
X125819109Y-109333090D01*
X125871895Y-109424516D01*
X125884617Y-109484364D01*
X125859731Y-109540260D01*
X125856163Y-109544020D01*
X124836281Y-110563904D01*
X124781764Y-110591681D01*
X124766277Y-110592900D01*
X121422524Y-110592900D01*
X121364333Y-110573993D01*
X121352520Y-110563904D01*
X120609696Y-109821080D01*
X120581919Y-109766563D01*
X120580700Y-109751076D01*
X120580700Y-107827200D01*
X120547089Y-107746057D01*
X120547089Y-107746056D01*
X120538758Y-107725943D01*
X120538757Y-107725942D01*
X120538757Y-107725941D01*
X120176358Y-107363543D01*
X120172984Y-107360169D01*
X120145206Y-107305652D01*
X120154777Y-107245220D01*
X120198042Y-107201955D01*
X120205102Y-107198701D01*
X120263677Y-107174438D01*
X120289831Y-107156962D01*
X119970000Y-106837132D01*
X119759467Y-107047664D01*
X119704951Y-107075441D01*
X119644519Y-107065870D01*
X119601254Y-107022605D01*
X119591683Y-106962173D01*
X119603728Y-106928159D01*
X119607991Y-106920775D01*
X119651622Y-106845205D01*
X119686467Y-106715157D01*
X119712089Y-106670778D01*
X119757868Y-106624999D01*
X119720076Y-106587207D01*
X119780000Y-106587207D01*
X119780000Y-106662793D01*
X119808926Y-106732626D01*
X119862374Y-106786074D01*
X119932207Y-106815000D01*
X120007793Y-106815000D01*
X120077626Y-106786074D01*
X120131074Y-106732626D01*
X120160000Y-106662793D01*
X120160000Y-106587207D01*
X120131074Y-106517374D01*
X120077626Y-106463926D01*
X120007793Y-106435000D01*
X119932207Y-106435000D01*
X119862374Y-106463926D01*
X119808926Y-106517374D01*
X119780000Y-106587207D01*
X119720076Y-106587207D01*
X119712089Y-106579220D01*
X119686467Y-106534841D01*
X119651622Y-106404795D01*
X119651620Y-106404791D01*
X119603727Y-106321838D01*
X119591005Y-106261990D01*
X119615891Y-106206094D01*
X119668879Y-106175501D01*
X119729729Y-106181897D01*
X119759467Y-106202334D01*
X119970000Y-106412867D01*
X120289830Y-106093036D01*
X120289830Y-106093035D01*
X120263680Y-106075562D01*
X120181358Y-106041464D01*
X120134832Y-106001728D01*
X120120548Y-105942233D01*
X120143963Y-105885705D01*
X120181358Y-105858536D01*
X120263677Y-105824438D01*
X120289831Y-105806962D01*
X119970000Y-105487132D01*
X119759467Y-105697664D01*
X119704951Y-105725441D01*
X119644519Y-105715870D01*
X119601254Y-105672605D01*
X119591683Y-105612173D01*
X119603728Y-105578159D01*
X119605547Y-105575008D01*
X119651622Y-105495205D01*
X119686467Y-105365157D01*
X119712090Y-105320778D01*
X119780000Y-105252868D01*
X119780000Y-105312793D01*
X119808926Y-105382626D01*
X119862374Y-105436074D01*
X119932207Y-105465000D01*
X120007793Y-105465000D01*
X120077626Y-105436074D01*
X120131074Y-105382626D01*
X120160000Y-105312793D01*
X120160000Y-105237207D01*
X120131074Y-105167374D01*
X120077626Y-105113926D01*
X120007793Y-105085000D01*
X119947868Y-105085000D01*
X120289830Y-104743036D01*
X120289830Y-104743035D01*
X120263680Y-104725562D01*
X120150847Y-104678826D01*
X120031067Y-104655000D01*
X119908932Y-104655000D01*
X119789153Y-104678826D01*
X119789151Y-104678826D01*
X119676322Y-104725561D01*
X119624501Y-104760187D01*
X119565613Y-104776795D01*
X119508209Y-104755617D01*
X119474217Y-104704743D01*
X119470500Y-104677871D01*
X119470500Y-104153857D01*
X119466704Y-104139689D01*
X119446614Y-104064712D01*
X119400469Y-103984788D01*
X119335212Y-103919531D01*
X119288014Y-103892281D01*
X119255290Y-103873387D01*
X119255289Y-103873386D01*
X119255288Y-103873386D01*
X119166144Y-103849500D01*
X114916144Y-103849500D01*
X114823856Y-103849500D01*
X114734712Y-103873386D01*
X114734711Y-103873386D01*
X114734709Y-103873387D01*
X114654790Y-103919529D01*
X114589529Y-103984790D01*
X114543387Y-104064709D01*
X114519500Y-104153857D01*
X114519500Y-104677871D01*
X114500593Y-104736062D01*
X114451093Y-104772026D01*
X114389907Y-104772026D01*
X114365499Y-104760187D01*
X114313677Y-104725561D01*
X114200847Y-104678826D01*
X114081067Y-104655000D01*
X113958932Y-104655000D01*
X113839154Y-104678825D01*
X113726319Y-104725563D01*
X113726312Y-104725567D01*
X113700168Y-104743035D01*
X113700167Y-104743036D01*
X114042131Y-105085000D01*
X113982207Y-105085000D01*
X113912374Y-105113926D01*
X113858926Y-105167374D01*
X113830000Y-105237207D01*
X113830000Y-105312793D01*
X113858926Y-105382626D01*
X113912374Y-105436074D01*
X113982207Y-105465000D01*
X114042131Y-105465000D01*
X113855092Y-105652039D01*
X113822975Y-105673498D01*
X113766241Y-105696999D01*
X113766239Y-105697000D01*
X113719541Y-105716342D01*
X113569003Y-105866880D01*
X113514487Y-105894657D01*
X113454055Y-105885086D01*
X113410790Y-105841821D01*
X113400000Y-105796876D01*
X113400000Y-105695389D01*
X113418907Y-105637198D01*
X113468407Y-105601234D01*
X113483240Y-105599626D01*
X113807867Y-105275000D01*
X113479617Y-104946750D01*
X113448940Y-104940020D01*
X113408298Y-104894284D01*
X113400000Y-104854609D01*
X113400000Y-104823102D01*
X113399999Y-104823100D01*
X113371945Y-104682065D01*
X113316918Y-104549217D01*
X113237030Y-104429655D01*
X113135344Y-104327969D01*
X113015784Y-104248082D01*
X112882933Y-104193054D01*
X112820000Y-104180535D01*
X112820000Y-104635191D01*
X112785796Y-104615444D01*
X112709496Y-104595000D01*
X112630504Y-104595000D01*
X112554204Y-104615444D01*
X112520000Y-104635191D01*
X112520000Y-104180535D01*
X112457066Y-104193054D01*
X112324215Y-104248082D01*
X112204655Y-104327969D01*
X112102969Y-104429655D01*
X112023081Y-104549217D01*
X111968054Y-104682065D01*
X111940000Y-104823100D01*
X111940000Y-105445671D01*
X111921093Y-105503862D01*
X111871593Y-105539826D01*
X111820400Y-105541167D01*
X111820324Y-105541747D01*
X111816665Y-105541265D01*
X111815382Y-105541299D01*
X111813894Y-105540900D01*
X111813892Y-105540900D01*
X111682108Y-105540900D01*
X111604200Y-105561775D01*
X111554809Y-105575009D01*
X111440690Y-105640896D01*
X111347496Y-105734090D01*
X111281609Y-105848209D01*
X111247500Y-105975509D01*
X111247500Y-106111275D01*
X111228593Y-106169466D01*
X111218504Y-106181279D01*
X110120842Y-107278943D01*
X110120841Y-107278942D01*
X110043346Y-107356438D01*
X110043344Y-107356440D01*
X110043343Y-107356442D01*
X110018557Y-107416280D01*
X110001400Y-107457700D01*
X110001400Y-108840819D01*
X109982493Y-108899010D01*
X109932993Y-108934974D01*
X109871807Y-108934974D01*
X109822307Y-108899010D01*
X109806773Y-108866442D01*
X109788492Y-108798214D01*
X109788490Y-108798211D01*
X109788490Y-108798209D01*
X109722603Y-108684090D01*
X109722601Y-108684088D01*
X109722600Y-108684086D01*
X109629414Y-108590900D01*
X109629411Y-108590898D01*
X109626596Y-108588083D01*
X109598819Y-108533566D01*
X109597600Y-108518079D01*
X109597600Y-107917302D01*
X109597600Y-107917300D01*
X109592591Y-107905208D01*
X109585079Y-107887073D01*
X109555659Y-107816044D01*
X109555658Y-107816043D01*
X109555658Y-107816042D01*
X106174908Y-104435292D01*
X106147131Y-104380775D01*
X106153447Y-104327404D01*
X106220130Y-104166420D01*
X106260500Y-103963465D01*
X106260500Y-103756535D01*
X106220130Y-103553580D01*
X106140941Y-103362402D01*
X106025977Y-103190345D01*
X105879655Y-103044023D01*
X105879651Y-103044020D01*
X105707597Y-102929058D01*
X105516418Y-102849869D01*
X105313467Y-102809500D01*
X105313465Y-102809500D01*
X105106535Y-102809500D01*
X105106532Y-102809500D01*
X104903581Y-102849869D01*
X104712402Y-102929058D01*
X104540348Y-103044020D01*
X104394020Y-103190348D01*
X104279058Y-103362402D01*
X104199869Y-103553581D01*
X104159500Y-103756532D01*
X104159500Y-103963467D01*
X104199869Y-104166418D01*
X104279058Y-104357597D01*
X104368186Y-104490987D01*
X104394023Y-104529655D01*
X104540345Y-104675977D01*
X104540348Y-104675979D01*
X104712402Y-104790941D01*
X104723012Y-104795336D01*
X104769538Y-104835073D01*
X104783821Y-104894568D01*
X104760406Y-104951096D01*
X104708236Y-104983065D01*
X104685126Y-104985800D01*
X103194874Y-104985800D01*
X103136683Y-104966893D01*
X103100719Y-104917393D01*
X103100719Y-104856207D01*
X103136683Y-104806707D01*
X103156988Y-104795336D01*
X103160042Y-104794070D01*
X103167598Y-104790941D01*
X103339655Y-104675977D01*
X103485977Y-104529655D01*
X103600941Y-104357598D01*
X103680130Y-104166420D01*
X103720500Y-103963465D01*
X103720500Y-103756535D01*
X103680130Y-103553580D01*
X103600941Y-103362402D01*
X103485977Y-103190345D01*
X103339655Y-103044023D01*
X103339651Y-103044020D01*
X103167597Y-102929058D01*
X102976420Y-102849870D01*
X102974187Y-102849193D01*
X102973312Y-102848583D01*
X102971926Y-102848009D01*
X102972051Y-102847704D01*
X102923992Y-102814205D01*
X102903949Y-102756396D01*
X102921713Y-102697846D01*
X102932922Y-102684458D01*
X102950469Y-102666912D01*
X102996614Y-102586988D01*
X103020500Y-102497844D01*
X103020500Y-102469500D01*
X103039407Y-102411309D01*
X103088907Y-102375345D01*
X103119500Y-102370500D01*
X103539747Y-102370500D01*
X103539748Y-102370500D01*
X103598231Y-102358867D01*
X103664552Y-102314552D01*
X103708867Y-102248231D01*
X103720500Y-102189748D01*
X103720500Y-100450252D01*
X103720499Y-100450250D01*
X103720499Y-100450244D01*
X103714247Y-100418816D01*
X103721437Y-100358055D01*
X103762969Y-100313124D01*
X103811344Y-100300500D01*
X127638656Y-100300500D01*
X127696847Y-100319407D01*
G37*
%TD.AperFunction*%
%TA.AperFunction,Conductor*%
G36*
X114480404Y-107051843D02*
G01*
X114510730Y-107072539D01*
X114519705Y-107081514D01*
X114519707Y-107081515D01*
X114519709Y-107081517D01*
X114649791Y-107156620D01*
X114649789Y-107156620D01*
X114649793Y-107156621D01*
X114649795Y-107156622D01*
X114794892Y-107195500D01*
X114794894Y-107195500D01*
X114945106Y-107195500D01*
X114945108Y-107195500D01*
X115090205Y-107156622D01*
X115090207Y-107156620D01*
X115090209Y-107156620D01*
X115220290Y-107081517D01*
X115220290Y-107081516D01*
X115220295Y-107081514D01*
X115224998Y-107076810D01*
X115279513Y-107049035D01*
X115339945Y-107058606D01*
X115365000Y-107076809D01*
X115369705Y-107081514D01*
X115369707Y-107081515D01*
X115369709Y-107081517D01*
X115499791Y-107156620D01*
X115499789Y-107156620D01*
X115499793Y-107156621D01*
X115499795Y-107156622D01*
X115644892Y-107195500D01*
X115644894Y-107195500D01*
X115795106Y-107195500D01*
X115795108Y-107195500D01*
X115940205Y-107156622D01*
X115940207Y-107156620D01*
X115940209Y-107156620D01*
X116070290Y-107081517D01*
X116070290Y-107081516D01*
X116070295Y-107081514D01*
X116074998Y-107076810D01*
X116129513Y-107049035D01*
X116189945Y-107058606D01*
X116215000Y-107076809D01*
X116219705Y-107081514D01*
X116219707Y-107081515D01*
X116219709Y-107081517D01*
X116348000Y-107155586D01*
X116388941Y-107201055D01*
X116397500Y-107241322D01*
X116397500Y-107638776D01*
X116378593Y-107696967D01*
X116368504Y-107708780D01*
X115671304Y-108405980D01*
X115616787Y-108433757D01*
X115556355Y-108424186D01*
X115513090Y-108380921D01*
X115502300Y-108335976D01*
X115502300Y-108305709D01*
X115492825Y-108270348D01*
X115468192Y-108178414D01*
X115468190Y-108178411D01*
X115468190Y-108178409D01*
X115402303Y-108064290D01*
X115402301Y-108064288D01*
X115402300Y-108064286D01*
X115309114Y-107971100D01*
X115309111Y-107971098D01*
X115309109Y-107971096D01*
X115194990Y-107905209D01*
X115150503Y-107893289D01*
X115067692Y-107871100D01*
X114935908Y-107871100D01*
X114935905Y-107871100D01*
X114876290Y-107887073D01*
X114815189Y-107883870D01*
X114780665Y-107861450D01*
X114262865Y-107343649D01*
X114235088Y-107289132D01*
X114244659Y-107228700D01*
X114287924Y-107185435D01*
X114294985Y-107182180D01*
X114313680Y-107174436D01*
X114339831Y-107156962D01*
X114342207Y-107132842D01*
X114366727Y-107076785D01*
X114419513Y-107045846D01*
X114480404Y-107051843D01*
G37*
%TD.AperFunction*%
%TA.AperFunction,Conductor*%
G36*
X114277910Y-106670778D02*
G01*
X114303532Y-106715158D01*
X114311945Y-106746553D01*
X114338379Y-106845209D01*
X114386271Y-106928159D01*
X114398993Y-106988007D01*
X114374107Y-107043903D01*
X114321119Y-107074496D01*
X114260268Y-107068100D01*
X114230531Y-107047663D01*
X113997868Y-106815000D01*
X114057793Y-106815000D01*
X114127626Y-106786074D01*
X114181074Y-106732626D01*
X114210000Y-106662793D01*
X114210000Y-106602868D01*
X114277910Y-106670778D01*
G37*
%TD.AperFunction*%
%TD*%
M02*
