M48
; DRILL file KiCad 10.0.6 date 2026-10-01T21:43:33
; FORMAT={-:-/ absolute / metric / decimal}
; #@! TF.CreationDate,2026-10-01T21:43:33+00:00
; #@! TF.GenerationSoftware,Kicad,Pcbnew,10.0.6
; #@! TF.FileFunction,Plated,1,2,PTH
FMAT,2
METRIC
; #@! TA.AperFunction,Plated,PTH,ViaDrill
T1C0.300
; #@! TA.AperFunction,Plated,PTH,ComponentDrill
T2C0.400
; #@! TA.AperFunction,Plated,PTH,ComponentDrill
T3C0.600
; #@! TA.AperFunction,Plated,PTH,ComponentDrill
T4C1.000
%
G90
G05
T1
X108.395Y-119.825
X108.596Y-113.712
X109.349Y-106.053
X109.876Y-114.699
X110.404Y-117.745
X110.935Y-100.775
X110.935Y-103.315
X110.935Y-107.125
X110.935Y-122.365
X111.129Y-120.831
X111.256Y-115.45
X112.205Y-100.775
X112.99Y-110.458
X113.05Y-120.835
X113.475Y-100.775
X113.475Y-103.315
X113.603Y-116.307
X113.606Y-114.012
X113.607Y-117.45
X114.299Y-119.176
X114.301Y-116.837
X114.637Y-108.261
X114.745Y-100.775
X114.745Y-103.315
X114.837Y-110.035
X115.345Y-119.175
X115.373Y-113.554
X116.015Y-100.775
X116.015Y-103.315
X116.039Y-115.317
X116.433Y-110.835
X116.618Y-113.222
X116.637Y-119.162
X116.802Y-113.957
X117.285Y-100.775
X117.285Y-103.315
X117.845Y-119.15
X117.846Y-113.208
X117.995Y-118.382
X118.395Y-124.248
X118.555Y-100.775
X118.555Y-103.315
X119.561Y-113.288
X119.567Y-114.812
X119.568Y-116.45
X119.57Y-117.196
X119.58Y-118.305
X119.621Y-123.806
X119.676Y-110.723
X119.825Y-100.775
X119.825Y-103.315
X119.943Y-120.362
X119.987Y-108.016
X120.205Y-111.42
X120.665Y-123.795
X121.095Y-100.775
X121.715Y-112.48
X122.365Y-100.775
X122.365Y-103.315
X122.567Y-115.92
X122.753Y-119.466
X123.362Y-119.893
X123.613Y-118.347
X123.635Y-112.205
X123.661Y-107.559
X123.93Y-113.386
X124.16Y-104.56
X124.721Y-121.609
X124.831Y-114.508
X124.905Y-100.775
X124.905Y-110.935
X126.209Y-106.907
T2
X113.62Y-105.275
X113.62Y-106.625
X114.47Y-105.275
X114.47Y-106.625
X115.32Y-105.275
X115.32Y-106.625
X116.17Y-105.275
X116.17Y-106.625
X117.02Y-105.275
X117.02Y-106.625
X117.87Y-105.275
X117.87Y-106.625
X118.72Y-105.275
X118.72Y-106.625
X119.57Y-105.275
X119.57Y-106.625
T4
X102.47Y-101.32
X102.47Y-103.86
X102.47Y-106.4
X102.47Y-108.94
X102.47Y-111.48
X102.47Y-114.02
X102.47Y-116.56
X102.47Y-119.1
X102.47Y-121.64
X102.47Y-124.18
X105.01Y-101.32
X105.01Y-103.86
X105.01Y-106.4
X105.01Y-108.94
X105.01Y-111.48
X105.01Y-114.02
X105.01Y-116.56
X105.01Y-119.1
X105.01Y-121.64
X105.01Y-124.18
X128.18Y-101.32
X128.18Y-103.86
X128.18Y-106.4
X128.18Y-108.94
X128.18Y-111.48
X128.18Y-114.02
X128.18Y-116.56
X128.18Y-119.1
X128.18Y-121.64
X128.18Y-124.18
X130.72Y-101.32
X130.72Y-103.86
X130.72Y-106.4
X130.72Y-108.94
X130.72Y-111.48
X130.72Y-114.02
X130.72Y-116.56
X130.72Y-119.1
X130.72Y-121.64
X130.72Y-124.18
T3
X112.27Y-102.665G85X112.27Y-101.865
G05
X112.27Y-106.395G85X112.27Y-104.895
G05
X120.92Y-102.665G85X120.92Y-101.865
G05
X120.92Y-106.395G85X120.92Y-104.895
G05
M30
