%TF.GenerationSoftware,KiCad,Pcbnew,10.0.6*%
%TF.CreationDate,2026-10-01T21:43:32+00:00*%
%TF.ProjectId,nicklink,6e69636b-6c69-46e6-9b2e-6b696361645f,rev?*%
%TF.SameCoordinates,Original*%
%TF.FileFunction,Paste,Top*%
%TF.FilePolarity,Positive*%
%FSLAX46Y46*%
G04 Gerber Fmt 4.6, Leading zero omitted, Abs format (unit mm)*
G04 Created by KiCad (PCBNEW 10.0.6) date 2026-10-01 21:43:32*
%MOMM*%
%LPD*%
G01*
G04 APERTURE LIST*
G04 Aperture macros list*
%AMRoundRect*
0 Rectangle with rounded corners*
0 $1 Rounding radius*
0 $2 $3 $4 $5 $6 $7 $8 $9 X,Y pos of 4 corners*
0 Add a 4 corners polygon primitive as box body*
4,1,4,$2,$3,$4,$5,$6,$7,$8,$9,$2,$3,0*
0 Add four circle primitives for the rounded corners*
1,1,$1+$1,$2,$3*
1,1,$1+$1,$4,$5*
1,1,$1+$1,$6,$7*
1,1,$1+$1,$8,$9*
0 Add four rect primitives between the rounded corners*
20,1,$1+$1,$2,$3,$4,$5,0*
20,1,$1+$1,$4,$5,$6,$7,0*
20,1,$1+$1,$6,$7,$8,$9,0*
20,1,$1+$1,$8,$9,$2,$3,0*%
G04 Aperture macros list end*
%ADD10RoundRect,0.140000X0.170000X-0.140000X0.170000X0.140000X-0.170000X0.140000X-0.170000X-0.140000X0*%
%ADD11RoundRect,0.147500X0.172500X-0.147500X0.172500X0.147500X-0.172500X0.147500X-0.172500X-0.147500X0*%
%ADD12RoundRect,0.112500X-0.187500X-0.112500X0.187500X-0.112500X0.187500X0.112500X-0.187500X0.112500X0*%
%ADD13RoundRect,0.147500X-0.147500X-0.172500X0.147500X-0.172500X0.147500X0.172500X-0.147500X0.172500X0*%
%ADD14RoundRect,0.160000X-0.245000X-0.160000X0.245000X-0.160000X0.245000X0.160000X-0.245000X0.160000X0*%
%ADD15RoundRect,0.093750X-0.093750X-0.106250X0.093750X-0.106250X0.093750X0.106250X-0.093750X0.106250X0*%
%ADD16R,1.700000X0.900000*%
%ADD17RoundRect,0.135000X-0.135000X-0.185000X0.135000X-0.185000X0.135000X0.185000X-0.135000X0.185000X0*%
%ADD18RoundRect,0.225000X0.250000X-0.225000X0.250000X0.225000X-0.250000X0.225000X-0.250000X-0.225000X0*%
%ADD19RoundRect,0.135000X0.185000X-0.135000X0.185000X0.135000X-0.185000X0.135000X-0.185000X-0.135000X0*%
%ADD20RoundRect,0.093750X-0.093750X0.156250X-0.093750X-0.156250X0.093750X-0.156250X0.093750X0.156250X0*%
%ADD21RoundRect,0.075000X-0.075000X0.250000X-0.075000X-0.250000X0.075000X-0.250000X0.075000X0.250000X0*%
%ADD22RoundRect,0.075000X0.075000X-0.662500X0.075000X0.662500X-0.075000X0.662500X-0.075000X-0.662500X0*%
%ADD23RoundRect,0.075000X0.662500X-0.075000X0.662500X0.075000X-0.662500X0.075000X-0.662500X-0.075000X0*%
%ADD24RoundRect,0.140000X-0.140000X-0.170000X0.140000X-0.170000X0.140000X0.170000X-0.140000X0.170000X0*%
%ADD25RoundRect,0.250000X-0.450000X-0.350000X0.450000X-0.350000X0.450000X0.350000X-0.450000X0.350000X0*%
G04 APERTURE END LIST*
D10*
%TO.C,C4*%
X110330000Y-119430000D03*
X110330000Y-118470000D03*
%TD*%
%TO.C,C9*%
X118895000Y-123080000D03*
X118895000Y-122120000D03*
%TD*%
D11*
%TO.C,FB1*%
X122810000Y-118085000D03*
X122810000Y-117115000D03*
%TD*%
D12*
%TO.C,D2*%
X122600000Y-105100000D03*
X124700000Y-105100000D03*
%TD*%
D13*
%TO.C,D3*%
X110595000Y-109800000D03*
X111565000Y-109800000D03*
%TD*%
D14*
%TO.C,U2*%
X120695000Y-108900000D03*
X120695000Y-109700000D03*
D15*
X119807500Y-108650000D03*
X119807500Y-109300000D03*
X119807500Y-109950000D03*
X121582500Y-109950000D03*
X121582500Y-109300000D03*
X121582500Y-108650000D03*
%TD*%
D16*
%TO.C,SW2*%
X109240000Y-115600000D03*
X109240000Y-112200000D03*
%TD*%
D13*
%TO.C,D1*%
X110595000Y-108600000D03*
X111565000Y-108600000D03*
%TD*%
D10*
%TO.C,C7*%
X121095000Y-123080000D03*
X121095000Y-122120000D03*
%TD*%
%TO.C,C13*%
X117695000Y-110280000D03*
X117695000Y-109320000D03*
%TD*%
D17*
%TO.C,R5*%
X112885000Y-108600000D03*
X113905000Y-108600000D03*
%TD*%
D18*
%TO.C,C5*%
X124410000Y-119175000D03*
X124410000Y-117625000D03*
%TD*%
D17*
%TO.C,R3*%
X108100000Y-105300000D03*
X109120000Y-105300000D03*
%TD*%
D10*
%TO.C,C2*%
X120950000Y-112480000D03*
X120950000Y-111520000D03*
%TD*%
D16*
%TO.C,SW1*%
X123950000Y-115400000D03*
X123950000Y-112000000D03*
%TD*%
D10*
%TO.C,C3*%
X112095000Y-111980000D03*
X112095000Y-111020000D03*
%TD*%
%TO.C,C11*%
X117795000Y-123680000D03*
X117795000Y-122720000D03*
%TD*%
D19*
%TO.C,R8*%
X123000000Y-109810000D03*
X123000000Y-108790000D03*
%TD*%
D20*
%TO.C,U3*%
X116532500Y-108420000D03*
D21*
X115995000Y-108345000D03*
D20*
X115457500Y-108420000D03*
X115457500Y-110120000D03*
D21*
X115995000Y-110195000D03*
D20*
X116532500Y-110120000D03*
%TD*%
D22*
%TO.C,U1*%
X113845000Y-120362500D03*
X114345000Y-120362500D03*
X114845000Y-120362500D03*
X115345000Y-120362500D03*
X115845000Y-120362500D03*
X116345000Y-120362500D03*
X116845000Y-120362500D03*
X117345000Y-120362500D03*
X117845000Y-120362500D03*
X118345000Y-120362500D03*
X118845000Y-120362500D03*
X119345000Y-120362500D03*
D23*
X120757500Y-118950000D03*
X120757500Y-118450000D03*
X120757500Y-117950000D03*
X120757500Y-117450000D03*
X120757500Y-116950000D03*
X120757500Y-116450000D03*
X120757500Y-115950000D03*
X120757500Y-115450000D03*
X120757500Y-114950000D03*
X120757500Y-114450000D03*
X120757500Y-113950000D03*
X120757500Y-113450000D03*
D22*
X119345000Y-112037500D03*
X118845000Y-112037500D03*
X118345000Y-112037500D03*
X117845000Y-112037500D03*
X117345000Y-112037500D03*
X116845000Y-112037500D03*
X116345000Y-112037500D03*
X115845000Y-112037500D03*
X115345000Y-112037500D03*
X114845000Y-112037500D03*
X114345000Y-112037500D03*
X113845000Y-112037500D03*
D23*
X112432500Y-113450000D03*
X112432500Y-113950000D03*
X112432500Y-114450000D03*
X112432500Y-114950000D03*
X112432500Y-115450000D03*
X112432500Y-115950000D03*
X112432500Y-116450000D03*
X112432500Y-116950000D03*
X112432500Y-117450000D03*
X112432500Y-117950000D03*
X112432500Y-118450000D03*
X112432500Y-118950000D03*
%TD*%
D10*
%TO.C,C6*%
X119995000Y-123080000D03*
X119995000Y-122120000D03*
%TD*%
%TO.C,C1*%
X112300000Y-121080000D03*
X112300000Y-120120000D03*
%TD*%
D19*
%TO.C,R1*%
X108880000Y-117910000D03*
X108880000Y-116890000D03*
%TD*%
D24*
%TO.C,C12*%
X122120000Y-106850000D03*
X123080000Y-106850000D03*
%TD*%
D17*
%TO.C,R6*%
X110100000Y-105300000D03*
X111120000Y-105300000D03*
%TD*%
%TO.C,R2*%
X112885000Y-109700000D03*
X113905000Y-109700000D03*
%TD*%
D10*
%TO.C,C10*%
X112395000Y-123880000D03*
X112395000Y-122920000D03*
%TD*%
D19*
%TO.C,R4*%
X118795000Y-109710000D03*
X118795000Y-108690000D03*
%TD*%
D25*
%TO.C,Y1*%
X113995000Y-124050000D03*
X116195000Y-124050000D03*
X116195000Y-122350000D03*
X113995000Y-122350000D03*
%TD*%
D24*
%TO.C,C8*%
X124170000Y-106850000D03*
X125130000Y-106850000D03*
%TD*%
M02*
